<svg width="176" height="171" viewBox="0 0 176 171" fill="none" xmlns="http://www.w3.org/2000/svg">
<path d="M106.953 157.328C119.413 159.856 130.155 148.736 127.587 136.597L130.647 135.502C152.427 127.707 160.091 100.916 145.947 82.8022L147.149 78.3793C151.617 61.9281 137.226 46.7254 120.801 49.8843L120.422 48.732C114.821 31.695 94.057 25.4992 80.0592 36.4104L78.2634 35.6456C57.0225 26.5985 34.8733 45.9378 40.5573 67.9747L38.674 69.1732C22.701 79.3378 23.9583 102.847 40.4615 111.417L38.9248 116.027C34.0948 130.516 46.4263 144.713 61.1655 142.391C65.0978 157.332 82.1049 164.881 95.9229 157.406L99.0354 155.722L106.953 157.328Z" fill="#FFCE00" stroke="black" stroke-width="3"/>
<circle cx="18.8003" cy="55.6435" r="9.5" transform="rotate(-90 18.8003 55.6435)" fill="#FFCE00" stroke="black" stroke-width="3"/>
<circle cx="164.8" cy="60.6435" r="9.5" transform="rotate(-90 164.8 60.6435)" fill="#FFCE00" stroke="black" stroke-width="3"/>
<path d="M150.963 149.293C151.114 149.252 151.274 149.206 151.441 149.156C152.495 148.841 153.905 148.326 155.161 147.537C156.393 146.762 157.69 145.588 158.135 143.879C158.598 142.097 158.027 140.185 156.48 138.215C153.352 134.235 148.178 133.965 143.938 135.104C141.777 135.684 139.72 136.656 138.055 137.839C136.419 139.001 135.022 140.469 134.398 142.107C133.793 143.696 133.783 145.515 134.083 147.253C134.384 149.007 135.02 150.796 135.836 152.401C136.649 154.002 137.673 155.483 138.792 156.594C139.866 157.66 141.24 158.594 142.753 158.641L150.963 149.293ZM150.963 149.293C150.968 149.357 150.973 149.423 150.977 149.49C151.037 150.442 151.025 151.758 150.694 153.1C150.362 154.447 149.687 155.907 148.356 157.005C147.009 158.117 145.159 158.717 142.753 158.641L150.963 149.293Z" fill="#FFCE00" stroke="black" stroke-width="3"/>
<path d="M9.71536 124.942C9.67551 125.093 9.63494 125.255 9.59469 125.424C9.34074 126.494 9.08201 127.973 9.13761 129.456C9.19215 130.91 9.56005 132.62 10.8185 133.86C12.1298 135.152 14.0715 135.614 16.5507 135.258C21.5616 134.54 24.382 130.194 25.516 125.953C26.0941 123.791 26.2811 121.523 26.0889 119.49C25.9001 117.492 25.3273 115.549 24.2209 114.19C23.1477 112.871 21.5769 111.953 19.9224 111.343C18.252 110.727 16.3854 110.384 14.5875 110.288C12.7938 110.191 11.0001 110.338 9.47825 110.751C8.01751 111.148 6.52228 111.871 5.72476 113.158L9.71536 124.942ZM9.71536 124.942C9.65731 124.914 9.59802 124.885 9.53761 124.855C8.68305 124.431 7.54967 123.763 6.55261 122.805C5.55224 121.845 4.62509 120.53 4.33985 118.828C4.05101 117.105 4.45658 115.203 5.72462 113.158L9.71536 124.942Z" fill="#FFCE00" stroke="black" stroke-width="3"/>
<path d="M146.691 56.0148C146.648 55.6768 146.505 55.3189 146.31 55.0438C146.044 54.6693 145.586 54.8019 145.195 54.7787C145.127 54.772 145.065 54.666 144.991 54.5964C145.3 53.5856 145.647 52.5781 145.911 51.5474C146.096 50.8117 146.21 50.0528 146.275 49.2972C146.336 48.5747 145.901 48.1803 145.163 48.2002C144.864 48.2068 144.568 48.2831 144.269 48.2963C143.889 48.3129 143.509 48.2996 142.995 48.2996C143.343 47.67 143.821 47.2888 144.178 46.8182C144.727 46.0958 145.296 45.3832 145.784 44.6177C146.19 43.9781 145.998 43.4379 145.342 43.1164C144.984 42.9408 144.604 42.7983 144.23 42.6657C141.591 41.7245 138.945 40.7966 136.306 39.8487C135.799 39.6665 135.226 39.6002 134.794 39.1097C134.706 38.7087 134.593 38.2646 134.515 37.8172C133.988 34.7616 133.491 31.6994 132.941 28.6471C132.304 25.1342 131.43 21.6909 129.662 18.5557C129.616 18.4762 129.619 18.3635 129.6 18.2707C129.616 18.221 129.623 18.168 129.649 18.1282C129.821 17.8797 129.987 17.6245 130.172 17.3859C131.775 15.3477 132.681 13.0013 133.091 10.4462C133.666 6.85371 132.012 3.2281 128.921 1.51472C126.184 -0.00312895 123.255 -0.36105 120.203 0.354792C117.668 0.951327 115.714 2.50232 113.878 4.2621C113.631 4.4974 113.406 4.75258 113.231 4.93486C99.9139 0.623233 86.8862 0.84859 74.1608 6.40299C73.3514 5.56785 72.6201 4.7327 71.814 3.98703C69.9905 2.30347 67.8095 1.55118 65.3586 1.57437C64.2827 1.58432 63.2621 1.84613 62.3845 2.47912C60.444 3.88429 59.0561 5.70704 58.6108 8.1462C58.458 8.99461 58.393 9.8629 58.3377 10.7246C58.2337 12.2921 58.6238 13.7569 59.3584 15.1223C59.7419 15.8349 60.1742 16.5242 60.587 17.2202C60.7593 17.5118 60.9413 17.7968 61.0746 18.0155C61.0063 18.1912 60.9966 18.2442 60.9706 18.284C58.1232 22.4067 56.2054 26.9835 54.6972 31.7491C54.1447 33.4956 53.7741 35.2885 53.7189 37.1345C53.6279 40.1967 53.8131 43.2357 54.2032 46.2747C54.4177 47.9318 54.551 49.622 54.4925 51.2889C54.4437 52.7239 54.473 54.1357 54.6615 55.5475C55.0678 58.5468 56.1437 61.208 58.2142 63.4649C59.6444 65.0258 61.2631 66.2255 63.1874 67.0474C64.6695 67.6804 66.1875 68.1709 67.7639 68.4725C68.1377 68.5421 68.5148 68.6183 68.8723 68.6879C68.9048 69.0988 68.6383 69.1883 68.427 69.2877C67.4292 69.755 66.441 70.2455 65.4171 70.6465C64.8678 70.8619 64.2567 70.9282 63.6684 71.0309C63.5449 71.0541 63.4019 70.9514 63.2686 70.9083C63.1646 70.4477 63.0671 70.0168 62.9403 69.4601C61.2143 69.3142 59.5176 69.3971 57.8307 69.3076C56.0949 69.2181 54.3462 69.3805 52.5292 69.122C52.5552 68.5619 52.552 68.0615 52.6072 67.571C52.8543 65.3473 53.1305 63.1235 53.3711 60.8998C53.4588 60.0911 53.5238 59.2726 53.5173 58.4606C53.5076 57.3703 53.1143 56.9991 52.0579 57.0024C50.4067 57.0024 48.7555 57.0356 47.1075 57.0521C46.3079 57.0588 45.5051 57.0389 44.7055 57.0588C43.4183 57.0919 43.1355 57.3802 43.1615 58.7257C43.1745 59.488 43.2395 60.2535 43.3208 61.0091C43.5646 63.2329 43.8376 65.4567 44.0814 67.6804C44.1301 68.1245 44.0879 68.5785 44.0879 69.0226C42.8885 69.2745 42.4822 69.2645 41.403 68.9563C41.4388 68.4691 41.4615 67.9621 41.5168 67.4584C41.7703 65.1849 42.0499 62.9114 42.2904 60.6347C42.3716 59.8757 42.4237 59.1102 42.4009 58.3479C42.3716 57.3537 41.9848 57.0024 40.987 57.0057C38.5849 57.0124 36.1861 57.0389 33.784 57.0554C33.6345 57.0554 33.4817 57.0488 33.3322 57.0621C32.3896 57.1284 32.0613 57.4233 32.0646 58.3877C32.0646 59.3521 32.1458 60.3198 32.2498 61.2809C32.4806 63.4583 32.7504 65.6257 32.9877 67.803C33.0299 68.1974 32.9942 68.5984 32.9942 68.9629C32.3473 69.4302 31.5477 68.9132 30.9074 69.4534C30.9074 69.987 30.8879 70.5405 30.9139 71.0939C30.9399 71.6904 30.7969 72.3069 31.0959 72.9432C31.941 72.9763 32.7862 73.0426 33.6345 73.0393C38.0843 73.026 42.5374 72.9929 46.9905 72.9796C47.309 72.9796 47.7023 72.804 47.9169 73.2547C47.8681 73.3906 47.8291 73.5397 47.7641 73.6723C46.7142 75.7369 46.5647 77.8348 47.5106 79.9823C47.5918 80.1679 47.6633 80.3601 47.7478 80.5424C48.4467 82.0635 49.4836 83.2698 50.9625 84.0453C52.6235 84.9136 54.4047 85.4605 56.251 85.6427C59.1146 85.9277 61.9457 85.7455 64.65 84.5988C65.5244 84.2276 66.4053 83.8697 67.2861 83.5085C67.5072 83.419 67.7412 83.356 68.0337 83.2599C68.0467 83.5449 68.0825 83.7471 68.0597 83.9426C67.4942 88.7712 67.4487 93.5899 68.3815 98.3821C68.466 98.8129 68.4238 99.1808 68.1702 99.5321C66.7953 101.448 65.986 103.638 65.2351 105.859C64.7541 107.274 64.5655 108.722 64.611 110.213C64.637 111.095 64.8646 111.913 65.2514 112.702C65.9145 114.061 66.9026 115.115 68.1442 115.937C68.4368 116.129 68.7488 116.295 69.0479 116.48C71.3524 117.915 73.8877 118.31 76.5303 118.194C76.8651 118.177 77.2259 118.058 77.5217 117.885C78.6041 117.259 79.6995 116.639 80.7266 115.92C81.601 115.307 81.7408 114.339 81.2369 113.365C81.0777 113.057 80.9217 112.745 80.7396 112.381C81.7798 110.75 83.1287 109.524 84.7344 108.589C86.5871 109.332 88.4496 109.663 90.3316 109.948C92.7922 110.323 95.2105 110.26 97.5931 109.481C97.8531 109.395 98.1294 109.368 98.3894 109.315C98.4479 109.507 98.4999 109.604 98.5032 109.7C98.5942 111.632 98.682 113.561 98.7632 115.493C98.7925 116.156 98.8445 116.808 99.1338 117.425C99.4913 118.187 99.9984 118.595 100.886 118.565C102.296 118.518 103.649 118.214 105.027 117.948C106.645 117.637 108.02 116.908 109.386 116.023C110.686 115.181 111.515 114.038 112.018 112.616C112.425 111.469 112.808 110.309 113.117 109.133C113.865 106.283 114.57 103.419 115.279 100.559C115.675 98.962 116.224 97.4541 117.343 96.208C117.645 95.8733 117.859 95.4591 118.129 95.0912C120.047 92.4697 120.977 89.5235 120.967 86.2625C120.967 85.8151 121.006 85.3677 121.022 84.9567C121.194 84.8904 121.282 84.8208 121.367 84.8242C121.666 84.8308 121.965 84.8606 122.264 84.8838C126.483 85.192 130.38 84.2541 133.982 81.9376C136.533 80.2938 139.693 75.6607 139.293 71.9987C139.563 71.8164 139.852 71.6208 140.141 71.4286C141.188 70.7294 142.218 70.0069 143.073 69.0657C146.453 65.344 147.341 60.8998 146.713 56.0215L146.691 56.0148ZM124.555 68.32C124.887 68.2339 125.137 68.3565 125.267 68.7972C124.591 69.2645 123.876 69.1585 123.154 68.7475C123.622 68.6017 124.084 68.446 124.559 68.32H124.555Z" fill="white"/>
<path d="M146.691 56.0148C146.648 55.6768 146.505 55.3189 146.31 55.0438C146.044 54.6693 145.586 54.8019 145.195 54.7787C145.127 54.772 145.065 54.666 144.991 54.5964C145.3 53.5856 145.647 52.5781 145.911 51.5474C146.096 50.8117 146.21 50.0528 146.275 49.2972C146.336 48.5747 145.901 48.1803 145.163 48.2002C144.864 48.2068 144.568 48.2831 144.269 48.2963C143.889 48.3129 143.509 48.2996 142.995 48.2996C143.343 47.67 143.821 47.2888 144.178 46.8182C144.727 46.0958 145.296 45.3832 145.784 44.6177C146.19 43.9781 145.998 43.4379 145.342 43.1164C144.984 42.9408 144.604 42.7983 144.23 42.6657C141.591 41.7245 138.945 40.7966 136.306 39.8487C135.799 39.6665 135.226 39.6002 134.794 39.1097C134.706 38.7087 134.593 38.2646 134.515 37.8172C133.988 34.7616 133.491 31.6994 132.941 28.6471C132.304 25.1342 131.43 21.6909 129.662 18.5557C129.616 18.4762 129.619 18.3635 129.6 18.2707C129.616 18.221 129.623 18.168 129.649 18.1282C129.821 17.8797 129.987 17.6245 130.172 17.3859C131.775 15.3477 132.681 13.0013 133.091 10.4462C133.666 6.85371 132.012 3.2281 128.921 1.51472C126.184 -0.00312895 123.255 -0.36105 120.203 0.354792C117.668 0.951327 115.714 2.50232 113.878 4.2621C113.631 4.4974 113.406 4.75258 113.231 4.93486C99.9139 0.623233 86.8862 0.84859 74.1608 6.40299C73.3514 5.56785 72.6201 4.7327 71.814 3.98703C69.9905 2.30347 67.8095 1.55118 65.3586 1.57437C64.2827 1.58432 63.2621 1.84613 62.3845 2.47912C60.444 3.88429 59.0561 5.70704 58.6108 8.1462C58.458 8.99461 58.393 9.8629 58.3377 10.7246C58.2337 12.2921 58.6238 13.7569 59.3584 15.1223C59.7419 15.8349 60.1742 16.5242 60.587 17.2202C60.7593 17.5118 60.9413 17.7968 61.0746 18.0155C61.0063 18.1912 60.9966 18.2442 60.9706 18.284C58.1232 22.4067 56.2054 26.9835 54.6972 31.7491C54.1447 33.4956 53.7741 35.2885 53.7189 37.1345C53.6279 40.1967 53.8131 43.2357 54.2032 46.2747C54.4177 47.9318 54.551 49.622 54.4925 51.2889C54.4437 52.7239 54.473 54.1357 54.6615 55.5475C55.0678 58.5468 56.1437 61.208 58.2142 63.4649C59.6444 65.0258 61.2631 66.2255 63.1874 67.0474C64.6695 67.6804 66.1875 68.1709 67.7639 68.4725C68.1377 68.5421 68.5148 68.6183 68.8723 68.6879C68.9048 69.0988 68.6383 69.1883 68.427 69.2877C67.4292 69.755 66.441 70.2455 65.4171 70.6465C64.8678 70.8619 64.2567 70.9282 63.6684 71.0309C63.5449 71.0541 63.4019 70.9514 63.2686 70.9083C63.1646 70.4477 63.0671 70.0168 62.9403 69.4601C61.2143 69.3142 59.5176 69.3971 57.8307 69.3076C56.0949 69.2181 54.3462 69.3805 52.5292 69.122C52.5552 68.5619 52.552 68.0615 52.6072 67.571C52.8543 65.3473 53.1305 63.1235 53.3711 60.8998C53.4588 60.0911 53.5238 59.2726 53.5173 58.4606C53.5076 57.3703 53.1143 56.9991 52.0579 57.0024C50.4067 57.0024 48.7555 57.0356 47.1075 57.0521C46.3079 57.0588 45.5051 57.0389 44.7055 57.0588C43.4183 57.0919 43.1355 57.3802 43.1615 58.7257C43.1745 59.488 43.2395 60.2535 43.3208 61.0091C43.5646 63.2329 43.8376 65.4567 44.0814 67.6804C44.1301 68.1245 44.0879 68.5785 44.0879 69.0226C42.8885 69.2745 42.4822 69.2645 41.403 68.9563C41.4388 68.4691 41.4615 67.9621 41.5168 67.4584C41.7703 65.1849 42.0499 62.9114 42.2904 60.6347C42.3716 59.8757 42.4237 59.1102 42.4009 58.3479C42.3716 57.3537 41.9848 57.0024 40.987 57.0057C38.5849 57.0124 36.1861 57.0389 33.784 57.0554C33.6345 57.0554 33.4817 57.0488 33.3322 57.0621C32.3896 57.1284 32.0613 57.4233 32.0646 58.3877C32.0646 59.3521 32.1458 60.3198 32.2498 61.2809C32.4806 63.4583 32.7504 65.6257 32.9877 67.803C33.0299 68.1974 32.9942 68.5984 32.9942 68.9629C32.3473 69.4302 31.5477 68.9132 30.9074 69.4534C30.9074 69.987 30.8879 70.5405 30.9139 71.0939C30.9399 71.6904 30.7969 72.3069 31.0959 72.9432C31.941 72.9763 32.7862 73.0426 33.6345 73.0393C38.0843 73.026 42.5374 72.9929 46.9905 72.9796C47.309 72.9796 47.7023 72.804 47.9169 73.2547C47.8681 73.3906 47.8291 73.5397 47.7641 73.6723C46.7142 75.7369 46.5647 77.8348 47.5106 79.9823C47.5918 80.1679 47.6633 80.3601 47.7478 80.5424C48.4467 82.0635 49.4836 83.2698 50.9625 84.0453C52.6235 84.9136 54.4047 85.4605 56.251 85.6427C59.1146 85.9277 61.9457 85.7455 64.65 84.5988C65.5244 84.2276 66.4053 83.8697 67.2861 83.5085C67.5072 83.419 67.7412 83.356 68.0337 83.2599C68.0467 83.5449 68.0825 83.7471 68.0597 83.9426C67.4942 88.7712 67.4487 93.5899 68.3815 98.3821C68.466 98.8129 68.4238 99.1808 68.1702 99.5321C66.7953 101.448 65.986 103.638 65.2351 105.859C64.7541 107.274 64.5655 108.722 64.611 110.213C64.637 111.095 64.8646 111.913 65.2514 112.702C65.9145 114.061 66.9026 115.115 68.1442 115.937C68.4368 116.129 68.7488 116.295 69.0479 116.48C71.3524 117.915 73.8877 118.31 76.5303 118.194C76.8651 118.177 77.2259 118.058 77.5217 117.885C78.6041 117.259 79.6995 116.639 80.7266 115.92C81.601 115.307 81.7408 114.339 81.2369 113.365C81.0777 113.057 80.9217 112.745 80.7396 112.381C81.7798 110.75 83.1287 109.524 84.7344 108.589C86.5871 109.332 88.4496 109.663 90.3316 109.948C92.7922 110.323 95.2105 110.26 97.5931 109.481C97.8531 109.395 98.1294 109.368 98.3894 109.315C98.4479 109.507 98.4999 109.604 98.5032 109.7C98.5942 111.632 98.682 113.561 98.7632 115.493C98.7925 116.156 98.8445 116.808 99.1338 117.425C99.4913 118.187 99.9984 118.595 100.886 118.565C102.296 118.518 103.649 118.214 105.027 117.948C106.645 117.637 108.02 116.908 109.386 116.023C110.686 115.181 111.515 114.038 112.018 112.616C112.425 111.469 112.808 110.309 113.117 109.133C113.865 106.283 114.57 103.419 115.279 100.559C115.675 98.962 116.224 97.4541 117.343 96.208C117.645 95.8733 117.859 95.4591 118.129 95.0912C120.047 92.4697 120.977 89.5235 120.967 86.2625C120.967 85.8151 121.006 85.3677 121.022 84.9567C121.194 84.8904 121.282 84.8208 121.367 84.8242C121.666 84.8308 121.965 84.8606 122.264 84.8838C126.483 85.192 130.38 84.2541 133.982 81.9376C136.533 80.2938 139.693 75.6607 139.293 71.9987C139.563 71.8164 139.852 71.6208 140.141 71.4286C141.188 70.7294 142.218 70.0069 143.073 69.0657C146.453 65.344 147.341 60.8998 146.713 56.0215L146.691 56.0148ZM144.334 49.7645C144.373 49.7611 144.415 49.8175 144.542 49.9103C144.542 50.0362 144.571 50.2317 144.536 50.414C144.211 52.1208 143.658 53.748 142.839 55.2824C142.589 55.7497 142.26 56.0877 141.776 56.2965C138.373 57.7613 134.97 59.2295 131.576 60.7175C131.079 60.9362 130.643 60.9064 130.136 60.7606C127.757 60.0746 125.963 58.6263 124.659 56.5219C123.941 55.362 123.447 54.0927 122.937 52.7239C123.239 52.6046 123.447 52.4721 123.668 52.4389C129.71 51.627 135.753 50.8217 141.799 50.0263C142.641 49.9136 143.486 49.8473 144.331 49.7678L144.334 49.7645ZM144.071 44.1537C143.85 44.5481 143.726 44.8662 143.522 45.1214C143.011 45.7445 142.485 46.3642 141.922 46.9409C140.255 48.641 139.849 48.8034 137.456 49.0387C135.265 49.2574 133.068 49.4198 130.9 49.781C129.632 49.9931 128.622 49.6153 127.679 48.9227C124.689 46.7188 123.073 43.7693 123.148 39.9481C123.161 39.2886 123.184 38.6258 123.229 37.9663C123.242 37.7807 123.349 37.5985 123.427 37.3665C123.72 37.4228 123.964 37.4361 124.191 37.5123C130.773 39.7394 137.394 41.8339 144.071 44.157V44.1537ZM59.5371 10.3335C59.5761 9.72702 59.6541 9.11723 59.7517 8.51738C60.0799 6.53887 61.1818 5.07073 62.7875 3.99034C63.5969 3.44683 64.5395 3.26787 65.5114 3.31095C68.3815 3.44352 70.6666 4.74595 72.4933 6.95313C72.5518 7.02273 72.5551 7.13872 72.5843 7.23483C70.6958 8.62674 68.6936 9.88941 66.9481 11.4503C65.1994 13.0113 63.7042 14.8705 62.0985 16.6004C60.4667 15.066 59.4006 12.4711 59.5371 10.3335ZM51.8109 58.8152C52.0254 59.5112 51.7199 60.1674 51.5963 60.9594C49.3633 60.923 47.309 61.6256 45.1605 61.2146C44.9005 60.8103 44.9427 60.3364 44.8582 59.9056C44.7802 59.5112 44.7672 59.1036 44.725 58.7092C46.0024 58.4076 49.5291 58.4606 51.8109 58.8152ZM50.6667 69.1154C50.4424 69.1452 50.1987 69.2016 49.9581 69.2016C48.6677 69.2115 47.3773 69.2082 45.9406 69.2082C45.6026 67.1038 45.4238 65.1551 45.2548 63.1136C46.3697 63.0109 47.3448 62.8882 48.3232 62.8385C49.3015 62.7888 50.2539 62.3712 51.2453 62.59C51.4338 63.846 51.1575 66.9513 50.6667 69.1154ZM40.8244 58.8285C40.6977 59.8161 40.5839 60.7076 40.4604 61.6653C40.1549 61.7184 39.8721 61.8178 39.5925 61.8045C37.8536 61.7316 36.1178 61.6388 34.3821 61.546C34.2879 61.5394 34.1968 61.4897 34.0018 61.4234C33.9303 60.9959 33.836 60.512 33.7645 60.0249C33.6995 59.5775 33.654 59.1301 33.602 58.686C34.9867 58.4175 38.4711 58.4805 40.8212 58.8252L40.8244 58.8285ZM39.5113 69.1419C39.0465 69.1552 38.5524 69.185 38.0583 69.1817C37.0182 69.1784 35.9748 69.1585 34.9672 69.1452C34.5869 67.9124 34.1871 64.4525 34.2521 62.9479C34.6194 62.9214 35.0062 62.8352 35.3767 62.8816C36.1698 62.9744 36.9499 63.1534 37.7398 63.2561C38.5231 63.3555 39.3098 63.4085 40.0801 63.4815C40.2134 64.6082 39.9013 67.6903 39.508 69.1452L39.5113 69.1419ZM42.0596 71.3988C39.2642 71.3756 36.4656 71.3657 33.6703 71.3425C33.2802 71.3425 32.8934 71.2961 32.5066 71.2696C32.5066 71.1834 32.5066 71.0939 32.5034 71.0077C32.6204 70.9448 32.7341 70.8387 32.8544 70.8288C33.2022 70.7956 33.5533 70.7956 33.9011 70.7956C42.6934 70.7724 51.4826 70.7526 60.275 70.7393C60.7625 70.7393 61.2729 70.6134 61.7539 70.9116V71.4585C61.4354 71.5082 61.1136 71.5976 60.7918 71.5976C58.3962 71.5811 55.9974 71.5479 53.6019 71.5214C49.7566 71.4783 45.9114 71.4353 42.0661 71.3988H42.0596ZM68.375 81.2947C67.7802 81.6161 67.1334 81.9906 66.4638 82.3187C64.9718 83.0544 63.3759 83.4952 61.7702 83.8664C59.9369 84.2873 58.0777 84.1282 56.2607 83.7769C54.7915 83.4919 53.3678 82.9981 52.0026 82.3452C50.1857 81.4736 49.126 79.9458 48.7425 78.0303C48.4272 76.4561 48.7522 74.8985 49.7176 73.5397C50.0036 73.1354 50.3514 72.9365 50.8487 72.9365C53.5986 72.9299 56.3485 72.9067 59.0983 72.8901C59.2966 72.8901 59.4981 72.9067 59.6931 72.9432C62.04 73.3906 64.2632 72.9133 66.4248 72.0119C68.0532 71.3325 69.6134 70.5371 70.8031 69.1585C71.1476 68.7608 71.5539 68.7409 72.1 68.9563C71.2386 70.9547 70.3285 72.8736 69.8507 74.9548C69.3762 77.0327 68.8821 79.1074 68.3718 81.2913L68.375 81.2947ZM119.299 87.6544C119.111 89.391 118.672 91.0679 117.876 92.6089C117.391 93.5468 116.771 94.435 116.098 95.247C114.768 96.8477 114.001 98.687 113.51 100.689C112.808 103.552 112.096 106.412 111.342 109.259C111.043 110.386 110.637 111.483 110.247 112.583C109.971 113.362 109.483 113.965 108.791 114.459C107.751 115.201 106.655 115.718 105.404 115.996C104.133 116.278 102.891 116.666 101.572 116.613C101.325 116.603 101.081 116.56 100.762 116.523C100.697 116.169 100.58 115.834 100.574 115.496C100.535 113.107 100.193 110.724 100.356 108.328C100.427 107.247 99.6148 106.777 98.6625 107.145C97.9636 107.413 97.294 107.768 96.5822 107.99C95.074 108.464 93.5073 108.427 91.9698 108.258C89.1777 107.947 86.4376 107.386 83.9315 105.991C83.6683 105.845 83.3985 105.703 83.1157 105.61C82.7679 105.497 82.4233 105.517 82.1601 105.835C81.9358 106.107 81.9618 106.405 82.0983 106.69C82.2283 106.962 82.4006 107.214 82.5761 107.512C82.3356 108.016 81.861 108.321 81.4742 108.702C80.7851 109.378 80.2131 110.137 79.6995 110.962C79.1469 111.851 79.0234 112.749 79.407 113.72C79.4622 113.859 79.4947 114.011 79.5922 114.336C78.6399 115.019 77.7102 115.609 76.6929 116.026C76.3353 116.172 75.9193 116.212 75.5292 116.212C73.1206 116.212 70.8648 115.612 68.8918 114.18C67.1756 112.934 66.1225 111.277 66.246 109.014C66.3013 107.99 66.4573 106.999 66.7628 106.018C67.4161 103.923 68.2548 101.905 69.3697 100.032C69.932 99.088 70.0782 98.1468 69.8702 97.1194C69.1941 93.7987 69.3014 90.4349 69.3436 87.0777C69.3436 86.8225 69.3632 86.5674 69.3924 86.3155C69.4022 86.2194 69.4704 86.1299 69.5484 85.9443C69.8962 85.9907 70.27 86.0404 70.5853 86.0802C70.6796 86.2592 70.7641 86.3453 70.7608 86.4315C70.7446 86.9385 70.7348 87.4456 70.6796 87.9493C70.2343 91.9793 70.8974 95.8634 72.204 99.6514C72.7111 101.123 73.7545 102.253 74.7686 103.373C74.9766 103.602 75.3829 103.671 75.7145 103.748C78.2628 104.328 80.8566 104.5 83.4537 104.599C84.8514 104.656 86.2556 104.682 87.6533 104.636C88.8982 104.596 90.1464 104.477 91.3848 104.328C94.8075 103.92 98.2301 103.472 101.617 102.81C102.007 102.733 102.404 102.641 102.774 102.498C103.551 102.197 103.954 101.65 103.899 100.748C103.834 99.6812 103.853 98.6107 103.834 97.5436C103.827 97.2884 103.805 97.0332 103.814 96.7814C103.974 93.2552 103.538 89.7721 103.077 86.2923C103.057 86.1465 103.077 85.9973 103.077 85.7521C103.324 85.6593 103.587 85.5334 103.863 85.4638C106.483 84.8076 109.106 84.1812 111.719 83.5051C112.386 83.3328 113.02 83.0213 113.66 82.776C115.435 83.3527 117.239 83.9426 119.124 84.559C119.351 85.54 119.403 86.5939 119.286 87.6577L119.299 87.6544ZM137.372 73.8579C136.575 77.1255 134.853 79.7105 131.911 81.3477C129.727 82.5639 127.357 83.1572 124.877 83.2566C121.471 83.3925 118.233 82.5838 115.106 81.2715C114.043 80.8274 113.013 80.3071 111.973 79.8133C111.589 79.631 111.225 79.5481 110.852 79.8398C110.478 80.1314 110.442 80.5059 110.553 81.0063C110.858 81.2284 111.209 81.4836 111.648 81.805C110.793 82.2657 109.98 82.4513 109.181 82.6567C104.237 83.9194 99.2865 85.1556 94.2354 85.8847C89.7693 86.5309 85.2805 86.637 80.7721 86.3718C77.668 86.1896 74.6061 85.8051 71.5767 85.1025C70.9526 84.9567 70.3318 84.7811 69.6557 84.6087C69.5972 82.8854 70.0262 81.3112 70.3253 79.7304C71.2126 75.0244 72.243 72.0086 74.0015 68.731C75.0904 68.5851 76.2215 68.4261 77.3592 68.2836C77.811 68.2272 78.2791 68.1941 78.6009 67.8362C78.7536 67.6638 78.9194 67.3622 78.8706 67.1767C78.8024 66.9182 78.5683 66.6729 78.3473 66.4973C78.2108 66.3912 77.9605 66.3879 77.7687 66.4012C77.2194 66.4442 76.6734 66.4973 76.1305 66.5834C74.2485 66.8883 72.347 67.054 70.452 66.9811C67.4129 66.8618 64.494 66.1128 61.8937 64.479C59.0171 62.6662 57.0928 60.1011 56.4265 56.6246C56.0494 54.6561 56.0072 52.6775 56.0364 50.6957C56.0722 48.3991 55.9032 46.1223 55.6204 43.8455C55.3181 41.4196 55.0938 38.9771 55.2791 36.538C55.3863 35.1262 55.6139 33.7011 55.9974 32.339C56.6703 29.9462 57.4861 27.5932 58.4872 25.3098C59.7354 22.4498 61.3509 19.8283 63.3629 17.4687C64.8386 15.7388 66.3273 14.0154 67.9167 12.4015C68.8268 11.4769 69.919 10.7179 70.9916 9.9822C73.7415 8.09649 76.6669 6.57864 79.8913 5.69378C82.6444 4.94148 85.4007 4.21901 88.2481 3.93732C91.8821 3.5794 95.5225 3.28444 99.176 3.54294C102.023 3.7451 104.819 4.30849 107.611 4.89177C109.519 5.28946 111.42 5.71367 113.286 6.38311C113.348 6.3566 113.475 6.34334 113.527 6.27375C114.703 4.75921 116.364 3.88098 117.918 2.88012C119.078 2.12783 120.44 1.89584 121.773 1.71688C123.743 1.45175 125.664 1.72351 127.477 2.58848C129.057 3.34078 130.344 4.4046 131.154 6.03182C131.794 7.31437 131.973 8.6632 131.762 10.0385C131.368 12.6036 130.37 14.9036 128.579 16.9086C128.326 16.7032 128.085 16.5408 127.88 16.3386C127.308 15.7686 126.759 15.1754 126.184 14.6087C125.891 14.3203 125.547 14.1314 125.114 14.1314C124.676 14.1314 124.364 14.5921 124.591 14.9732C124.741 15.2284 124.958 15.4471 125.163 15.6625C125.855 16.3983 126.554 17.1274 127.25 17.8565C128.381 19.0462 129.171 20.4481 129.759 21.9825C130.673 24.362 131.264 26.831 131.7 29.3398C132.207 32.2462 132.704 35.1527 133.198 38.0591C133.221 38.1983 133.169 38.3474 133.149 38.4933C132.642 38.6987 132.252 38.3806 131.856 38.2447C129.395 37.3963 126.951 36.5048 124.497 35.6398C124.029 35.4774 123.538 35.3349 123.05 35.2753C122.465 35.2024 122.075 35.4675 121.922 36.0508C121.757 36.6838 121.659 37.3433 121.588 37.9962C121.516 38.6523 121.562 39.3218 121.471 39.9747C121.061 42.9971 121.978 45.5987 123.863 47.8887C124.341 48.472 124.926 48.9658 125.459 49.5027C125.631 49.675 125.79 49.8539 126.054 50.1323C125.283 50.4306 124.604 50.4637 123.931 50.5466C123.288 50.6294 122.638 50.6957 122.01 50.8515C121.289 51.0338 121.009 51.4712 121.152 52.2036C121.279 52.8466 121.487 53.4729 121.701 54.096C121.9 54.6726 122.235 55.2095 122.358 55.7961C122.849 58.169 124.5 59.6305 126.242 61.0158C126.746 61.4135 127.341 61.6985 128.004 62.1028C127.737 62.2784 127.555 62.4276 127.347 62.5237C126.346 62.9843 125.332 63.4185 124.338 63.8891C123.6 64.2371 123.606 64.257 123.125 65.1982C123.301 65.629 123.486 66.0963 123.71 66.6497C123.388 66.7856 123.093 66.9612 122.777 67.0342C119.26 67.8229 115.721 68.4559 112.106 68.5454C111.658 68.5553 111.206 68.5785 110.767 68.6614C110.338 68.7409 110.062 69.1618 110.104 69.5529C110.149 69.9605 110.468 70.2786 110.939 70.2588C112.737 70.1825 114.534 70.0732 116.328 69.9737C116.527 69.9638 116.722 69.8975 116.92 69.8677C118.103 69.6821 119.221 69.6291 120.411 70.1262C122.101 70.8321 123.925 70.8553 125.729 70.4941C126.343 70.3714 126.847 70.451 127.39 70.8818C130.221 73.1155 133.429 73.6491 136.887 72.8901C136.982 72.8703 137.086 72.8968 137.186 72.9001C137.583 73.1486 137.453 73.5331 137.375 73.8579H137.372ZM125.267 68.7972C124.591 69.2645 123.876 69.1585 123.154 68.7475C123.622 68.6017 124.084 68.446 124.559 68.32C124.89 68.2339 125.14 68.3565 125.27 68.7972H125.267ZM143.681 65.7417C142.218 68.3233 140.083 70.1328 137.281 70.9381C134.131 71.8429 131.144 71.3126 128.475 69.2977C127.464 68.5354 126.07 66.9513 125.173 65.5395C131.661 62.5701 138.028 59.6504 144.399 56.7439C144.568 56.6644 144.773 56.6611 144.978 56.6213C145.075 56.787 145.199 56.9063 145.208 57.0356C145.521 60.0845 145.218 63.0307 143.684 65.7417H143.681Z" fill="black"/>
<path d="M106.272 44.9192C106.236 46.6492 104.978 47.9682 103.366 47.9682C102.001 47.9682 100.62 46.4536 100.678 45.022C100.737 43.5472 101.994 42.1188 103.243 42.1089C104.751 42.0956 106.298 43.5339 106.269 44.9192H106.272Z" fill="black"/>
<path d="M77.496 44.8231C77.5188 46.8779 75.2402 48.4487 73.3615 47.6799C72.6269 47.3783 72.3506 46.7221 72.1426 46.0394C71.4957 43.9118 73.3972 41.8139 75.5003 42.3111C76.6964 42.5928 77.483 43.5837 77.496 44.8231Z" fill="black"/>
<path d="M90.6078 48.0046C90.2893 48.6509 90.1658 49.1745 89.5254 49.3568C88.6153 48.5581 87.6759 47.7329 86.6943 46.8712C86.0345 47.2855 85.7159 47.945 85.2121 48.4123C84.8091 48.7868 84.4125 49.1745 83.9932 49.5258C83.9054 49.5987 83.6617 49.6054 83.5869 49.5358C83.4601 49.4131 83.3204 49.1878 83.3496 49.042C83.4081 48.7536 83.5349 48.4587 83.7104 48.2234C84.3735 47.3319 85.0658 46.4603 85.7549 45.5887C85.8785 45.4329 86.0312 45.2904 86.1905 45.1711C86.5448 44.9093 86.9381 44.8397 87.3086 45.1015C87.8417 45.4793 88.3683 45.8704 88.8558 46.3045C89.4507 46.8348 90.0032 47.4147 90.6111 48.0046H90.6078Z" fill="black"/>
</svg>
