<svg width="24" height="25" viewBox="0 0 24 25" fill="none" xmlns="http://www.w3.org/2000/svg">
<mask id="path-1-outside-1_2335_887" maskUnits="userSpaceOnUse" x="0" y="-0.000488281" width="24" height="25" fill="black">
<rect fill="white" y="-0.000488281" width="24" height="25"/>
<path fill-rule="evenodd" clip-rule="evenodd" d="M22 12.0615C22 6.50451 17.522 1.99951 12 1.99951C6.477 1.99951 2 6.50451 2 12.0615C2 17.0825 5.656 21.2455 10.437 21.9995V14.9695H7.898V12.0615H10.437V9.84451C10.437 7.32351 11.931 5.92951 14.215 5.92951C15.309 5.92951 16.453 6.12651 16.453 6.12651V8.60251H15.192C13.95 8.60251 13.562 9.37751 13.562 10.1735V12.0615H16.336L15.893 14.9695H13.562V21.9995C18.343 21.2455 22 17.0825 22 12.0615"/>
</mask>
<path fill-rule="evenodd" clip-rule="evenodd" d="M22 12.0615C22 6.50451 17.522 1.99951 12 1.99951C6.477 1.99951 2 6.50451 2 12.0615C2 17.0825 5.656 21.2455 10.437 21.9995V14.9695H7.898V12.0615H10.437V9.84451C10.437 7.32351 11.931 5.92951 14.215 5.92951C15.309 5.92951 16.453 6.12651 16.453 6.12651V8.60251H15.192C13.95 8.60251 13.562 9.37751 13.562 10.1735V12.0615H16.336L15.893 14.9695H13.562V21.9995C18.343 21.2455 22 17.0825 22 12.0615" fill="white"/>
<path d="M10.437 21.9995L10.1254 23.9751L12.437 24.3396V21.9995H10.437ZM10.437 14.9695H12.437V12.9695H10.437V14.9695ZM7.898 14.9695H5.898V16.9695H7.898V14.9695ZM7.898 12.0615V10.0615H5.898V12.0615H7.898ZM10.437 12.0615V14.0615H12.437V12.0615H10.437ZM16.453 6.12651H18.453V4.44148L16.7924 4.15552L16.453 6.12651ZM16.453 8.60251V10.6025H18.453V8.60251H16.453ZM13.562 12.0615H11.562V14.0615H13.562V12.0615ZM16.336 12.0615L18.3132 12.3627L18.6638 10.0615H16.336V12.0615ZM15.893 14.9695V16.9695H17.6114L17.8702 15.2707L15.893 14.9695ZM13.562 14.9695V12.9695H11.562V14.9695H13.562ZM13.562 21.9995H11.562V24.3396L13.8736 23.9751L13.562 21.9995ZM24 12.0615C24 5.41152 18.6381 -0.000488281 12 -0.000488281V3.99951C16.4059 3.99951 20 7.59751 20 12.0615H24ZM12 -0.000488281C5.36076 -0.000488281 0 5.41165 0 12.0615H4C4 7.59738 7.59324 3.99951 12 3.99951V-0.000488281ZM0 12.0615C0 18.0728 4.37807 23.0687 10.1254 23.9751L10.7486 20.0239C6.93393 19.4223 4 16.0923 4 12.0615H0ZM12.437 21.9995V14.9695H8.437V21.9995H12.437ZM10.437 12.9695H7.898V16.9695H10.437V12.9695ZM9.898 14.9695V12.0615H5.898V14.9695H9.898ZM7.898 14.0615H10.437V10.0615H7.898V14.0615ZM12.437 12.0615V9.84451H8.437V12.0615H12.437ZM12.437 9.84451C12.437 8.98019 12.6853 8.55568 12.8887 8.3509C13.0925 8.14558 13.4811 7.92951 14.215 7.92951V3.92951C12.6649 3.92951 11.1645 4.41044 10.0504 5.53238C8.93571 6.65484 8.437 8.18783 8.437 9.84451H12.437ZM14.215 7.92951C14.6546 7.92951 15.1297 7.96995 15.5128 8.01458C15.7 8.03639 15.8561 8.05811 15.9633 8.07403C16.0167 8.08196 16.0575 8.08839 16.0834 8.09256C16.0964 8.09464 16.1055 8.09616 16.1107 8.09702C16.1132 8.09745 16.1148 8.09771 16.1153 8.09779C16.1155 8.09783 16.1155 8.09783 16.1152 8.09778C16.1151 8.09776 16.1149 8.09773 16.1146 8.09768C16.1145 8.09765 16.1143 8.09763 16.1142 8.0976C16.1141 8.09758 16.1139 8.09756 16.1139 8.09755C16.1137 8.09753 16.1136 8.0975 16.453 6.12651C16.7924 4.15552 16.7923 4.15549 16.7921 4.15547C16.792 4.15546 16.7919 4.15543 16.7917 4.15541C16.7915 4.15537 16.7912 4.15532 16.791 4.15527C16.7904 4.15518 16.7898 4.15507 16.7891 4.15495C16.7877 4.15472 16.786 4.15443 16.7841 4.1541C16.7802 4.15344 16.7752 4.1526 16.7691 4.15158C16.7569 4.14955 16.7405 4.14684 16.72 4.14353C16.679 4.13693 16.6219 4.12797 16.551 4.11743C16.4095 4.09642 16.2112 4.06889 15.9757 4.04145C15.5133 3.98758 14.8694 3.92951 14.215 3.92951V7.92951ZM14.453 6.12651V8.60251H18.453V6.12651H14.453ZM16.453 6.60251H15.192V10.6025H16.453V6.60251ZM15.192 6.60251C14.133 6.60251 13.1124 6.95133 12.395 7.78527C11.7257 8.56332 11.562 9.48695 11.562 10.1735H15.562C15.562 10.0641 15.5923 10.2022 15.4275 10.3938C15.3402 10.4953 15.2394 10.5594 15.1613 10.5909C15.092 10.6189 15.0874 10.6025 15.192 10.6025V6.60251ZM11.562 10.1735V12.0615H15.562V10.1735H11.562ZM13.562 14.0615H16.336V10.0615H13.562V14.0615ZM14.3588 11.7603L13.9158 14.6683L17.8702 15.2707L18.3132 12.3627L14.3588 11.7603ZM15.893 12.9695H13.562V16.9695H15.893V12.9695ZM11.562 14.9695V21.9995H15.562V14.9695H11.562ZM13.8736 23.9751C19.6207 23.0687 24 18.073 24 12.0615H20C20 16.092 17.0653 19.4223 13.2504 20.0239L13.8736 23.9751Z" fill="black" mask="url(#path-1-outside-1_2335_887)"/>
</svg>
