<svg width="406" height="582" viewBox="0 0 406 582" fill="none" xmlns="http://www.w3.org/2000/svg">
<path d="M244.695 239.451L242.235 235.883C241.197 234.378 240.83 232.51 241.219 230.724L241.405 229.871C241.778 228.162 243.009 226.768 244.658 226.188C245.991 225.719 247.066 224.713 247.621 223.414L254.293 207.821C255.197 205.708 256.719 203.916 258.658 202.682L262.896 199.984C266.106 197.941 266.948 193.625 264.742 190.525C263.442 188.699 263.151 186.34 263.967 184.252L273.544 159.765L274.774 157.226C276.519 153.62 279.307 150.622 282.775 148.62L304.63 136.002C307.671 134.247 311.119 133.323 314.63 133.323H320.96C323.382 133.323 325.783 132.883 328.047 132.025L338.578 128.034L347.662 124.243C349.503 123.474 351.596 123.601 353.33 124.585L356.764 126.535C360.831 128.843 365.563 124.816 363.935 120.432C363.43 119.073 362.361 117.999 361.004 117.488L359.119 116.778C354.358 114.984 351.877 109.738 353.512 104.92L361.002 82.8458C362.329 78.9353 361.506 74.6155 358.834 71.4669C357.629 70.0464 356.103 68.9328 354.382 68.218L347.287 65.2697C344.854 64.2591 342.247 63.7389 339.613 63.7389H326.505C325.253 63.7389 324.003 63.8565 322.773 64.0902L297.165 68.9543C295.935 69.188 294.685 69.3056 293.433 69.3056H278.925C274.079 69.3056 269.975 65.7351 269.303 60.9361C268.978 58.6153 267.826 56.4901 266.058 54.9521L259.184 48.9728C256.879 46.9679 255.064 44.4616 253.879 41.6463L252.744 38.9516C250.859 34.4764 247.41 30.8398 243.041 28.7203L235.76 25.1879C231.502 23.1222 228.114 19.6133 226.199 15.2853L223.494 9.17117C221.824 5.39459 218.253 2.80626 214.144 2.39276L201.271 1.09723C196.878 0.655127 193.925 5.49167 196.325 9.19765C197.839 11.5357 197.27 14.6486 195.027 16.2998L191.392 18.9746C188.818 20.8696 187.298 23.876 187.298 27.0729V27.7584C187.298 30.4999 186.311 33.1497 184.517 35.2232L170.121 51.8683C168.741 53.463 167.119 54.8296 165.312 55.9175L139.848 71.2539L115.555 83.6086C113.167 84.8232 111.047 86.5053 109.322 88.555L95.5566 104.906C93.8406 106.944 92.5492 109.305 91.7582 111.849L86.0957 130.065C84.9273 133.823 82.6759 137.153 79.6235 139.638L75.2462 143.201C72.365 145.547 68.4938 146.277 64.9559 145.143C63.5414 144.69 62.2336 143.955 61.1114 142.981L55.6118 138.213C51.975 135.059 47.3228 133.323 42.5091 133.323H34.6215C31.2302 133.323 28.481 130.574 28.481 127.182V124.296C28.481 121.726 29.62 119.288 31.5912 117.64L32.0757 117.235C35.0061 114.784 35.7689 110.59 33.8891 107.264C31.2289 102.558 24.7259 101.839 20.7694 105.523C16.9265 109.101 12.8426 112.38 10.3384 113.004C4.75607 114.396 -0.26801 128.869 0.0111058 141.673C0.290221 154.476 13.4087 163.661 15.9207 168.393C17.0613 170.542 14.2399 173.867 10.5999 176.936C6.53142 180.365 5.17526 187.703 10.3384 188.99C13.6878 189.825 32.3885 205.69 41.8784 209.587C51.3684 213.483 72.302 248.832 75.0932 248.832C77.8843 248.832 100.493 300.324 100.493 306.726C100.493 313.128 121.426 352.095 124.776 355.713C127.455 358.608 141.523 379.186 148.221 389.113C154.92 400.154 168.318 424.017 168.318 431.142V440.935C168.318 445.749 170.04 450.41 173.263 453.987C179.6 461.021 187.783 469.635 190.368 470.666C194.555 472.336 213.534 495.994 226.653 503.231C239.771 510.468 283.313 530.23 287.221 532.456C291.129 534.683 300.06 544.981 313.179 550.826C322.441 554.953 328.612 568.96 337.64 573.576C346.338 578.023 355.294 582 359.233 582C364.461 582 367.082 574.993 368.158 569.181C368.679 566.366 369.946 563.691 372.117 561.825C375.022 559.328 376.361 555.462 375.624 551.703L375.589 551.525C374.8 547.505 376.33 543.398 379.428 540.718C384.778 536.089 391.466 529.773 394.401 525.219C399.425 517.426 388.819 513.251 384.074 508.519C381.504 505.956 382.372 499.846 383.922 494.525C385.194 490.159 385.592 485.541 384.795 481.063C384.386 478.765 384.074 476.396 384.074 474.562C384.074 469.552 396.913 458.141 401.658 451.739C402.515 450.583 402.734 449.245 402.504 447.823C400.896 437.896 397.327 427.631 397.039 417.579C397.025 417.077 396.984 416.586 396.913 416.112C395.797 408.597 404.449 402.473 405.845 395.793C407.241 389.113 398.867 381.877 394.401 371.022C389.935 360.166 378.492 345.415 374.305 343.745C371.837 342.76 367.903 343.529 364.962 344.447C363.178 345.004 361.34 345.415 359.472 345.415C351.18 345.415 344.758 338.17 345.567 329.917C347.035 314.937 348.171 298.346 346.393 297.541C343.323 296.149 330.763 308.953 327.693 311.736C325.766 313.482 313.071 313.973 303.015 314.014C299.573 314.028 296.99 310.169 296.99 306.726C296.99 303.641 292.106 300.194 288.682 298.301C287.722 297.77 286.692 297.385 285.639 297.075L275.889 294.202C275.259 294.017 274.607 293.923 273.951 293.923C268.807 293.923 265.495 288.468 267.868 283.904L268 283.65C269.461 280.84 268.863 277.401 266.54 275.249L260.01 269.203C259.173 268.428 258.408 267.577 257.725 266.661L251.875 258.815C251.065 257.729 250.368 256.564 249.793 255.337L247.929 251.353C247.152 249.693 246.749 247.882 246.749 246.049C246.749 243.692 246.033 241.391 244.695 239.451Z" fill="#1F1F1F"/>
<path d="M119.056 160.504H121.576C121.968 160.504 122.34 160.544 122.692 160.624C123.052 160.696 123.368 160.824 123.64 161.008C123.92 161.184 124.14 161.424 124.3 161.728C124.468 162.024 124.552 162.392 124.552 162.832C124.552 163.296 124.464 163.68 124.288 163.984C124.112 164.288 123.884 164.528 123.604 164.704C123.332 164.88 123.032 165.004 122.704 165.076C122.376 165.148 122.064 165.184 121.768 165.184H120.064V169H119.056V160.504ZM120.064 164.248H121.768C122.272 164.248 122.68 164.136 122.992 163.912C123.312 163.68 123.472 163.324 123.472 162.844C123.472 162.364 123.312 162.012 122.992 161.788C122.68 161.556 122.272 161.44 121.768 161.44H120.064V164.248ZM146.169 160.504H151.509V161.44H147.177V164.104H151.221V165.04H147.177V168.064H151.725V169H146.169V160.504ZM173.283 160.504H175.455C175.863 160.504 176.267 160.528 176.667 160.576C177.075 160.624 177.439 160.728 177.759 160.888C178.079 161.048 178.339 161.284 178.539 161.596C178.739 161.9 178.839 162.316 178.839 162.844C178.839 163.468 178.651 163.972 178.275 164.356C177.899 164.74 177.379 164.984 176.715 165.088L179.127 169H177.891L175.587 165.184H174.291V169H173.283V160.504ZM174.291 164.248H175.191C175.471 164.248 175.759 164.24 176.055 164.224C176.359 164.208 176.635 164.156 176.883 164.068C177.139 163.98 177.347 163.844 177.507 163.66C177.675 163.468 177.759 163.196 177.759 162.844C177.759 162.54 177.699 162.296 177.579 162.112C177.459 161.928 177.299 161.788 177.099 161.692C176.907 161.588 176.687 161.52 176.439 161.488C176.199 161.456 175.955 161.44 175.707 161.44H174.291V164.248ZM206.991 165.76C206.991 166.224 206.931 166.664 206.811 167.08C206.699 167.496 206.515 167.864 206.259 168.184C206.011 168.496 205.683 168.748 205.275 168.94C204.867 169.124 204.371 169.216 203.787 169.216C203.203 169.216 202.707 169.124 202.299 168.94C201.891 168.748 201.559 168.496 201.303 168.184C201.055 167.864 200.871 167.496 200.751 167.08C200.639 166.664 200.583 166.224 200.583 165.76V160.504H201.591V165.616C201.591 165.96 201.627 166.292 201.699 166.612C201.771 166.932 201.891 167.216 202.059 167.464C202.227 167.712 202.451 167.912 202.73 168.064C203.011 168.208 203.363 168.28 203.787 168.28C204.211 168.28 204.563 168.208 204.843 168.064C205.123 167.912 205.347 167.712 205.515 167.464C205.683 167.216 205.803 166.932 205.875 166.612C205.947 166.292 205.983 165.96 205.983 165.616V160.504H206.991V165.76ZM204.207 158.176H205.527L203.811 159.904H202.959L204.207 158.176Z" fill="#9C9C9C"/>
</svg>
