<svg width="181" height="138" viewBox="0 0 181 138" fill="none" xmlns="http://www.w3.org/2000/svg">
<path d="M179.584 47.5543C179.314 47.7881 179.036 48.0181 178.754 48.2368C169.867 55.0917 160.975 61.943 152.084 68.7904C151.753 69.043 151.397 69.2579 150.965 69.552C150.894 69.8763 150.766 70.2722 150.713 70.6794C150.259 74.2012 148.813 77.327 146.891 80.2492C143.988 84.6532 139.99 87.813 135.394 90.2526C134.293 90.837 133.107 91.2895 131.913 91.6552C127.381 93.0466 122.744 93.7442 117.986 93.5669C117.04 93.533 116.09 93.5556 115.072 93.5518C115.166 94.766 115.628 95.8067 115.947 96.8851C116.578 99.0117 117.032 101.168 116.98 103.404C116.905 106.545 115.917 109.381 114.123 111.941C113.751 112.473 113.36 112.989 112.928 113.589C113.758 114.29 114.509 114.965 115.302 115.58C117.141 117.005 118.989 118.419 120.855 119.81C123.371 121.684 122.762 121.99 121.606 123.871C120.104 126.315 118.595 128.769 116.526 130.783C115.459 131.82 114.273 132.732 113.101 133.652C111.963 134.546 110.627 134.772 109.211 134.648C106.842 134.44 104.664 133.663 102.719 132.317C101.3 131.333 99.9518 130.243 98.6151 129.146C96.9592 127.781 95.3521 126.364 93.6812 124.931C93.2269 125.176 92.8101 125.387 92.4008 125.617C89.1754 127.419 85.7398 128.452 82.0375 128.682C79.3941 128.848 76.7958 128.671 74.2012 128.226C73.4615 128.098 72.8457 128.226 72.1661 128.573C68.0808 130.673 63.9618 132.702 59.8728 134.791C58.2695 135.609 56.5948 136.212 54.9014 136.789C53.6172 137.227 52.5621 136.959 51.6872 135.93C50.5645 134.614 49.363 133.351 48.3492 131.952C47.7297 131.099 47.3467 130.059 46.9599 129.06C46.3066 127.359 46.9449 125.753 47.5232 124.192C48.2328 122.272 49.3593 120.564 50.6622 119C52.626 116.643 54.8676 114.599 57.6199 113.174C58.1981 112.876 58.7614 112.548 59.4147 112.186C59.1031 109.377 58.8101 106.579 59.0955 103.781C59.3734 101.059 59.7226 98.3443 60.0417 95.6408C59.6475 95.4183 59.4372 95.7086 59.2157 95.867C58.6787 96.244 58.1643 96.6551 57.6461 97.0547C55.4383 98.7477 52.9639 99.9091 50.3205 100.712C47.587 101.546 44.891 101.327 42.2964 100.128C40.633 99.3623 39.3339 98.152 38.305 96.6437C37.3175 95.1883 36.6679 93.6084 36.6567 91.757C36.2624 91.659 35.9282 91.5535 35.5865 91.4969C31.3511 90.7805 27.1194 90.0678 22.884 89.3589C22.5911 89.3099 22.302 89.2571 22.0091 89.227C20.5334 89.0648 19.0353 89.0083 17.5784 88.733C14.1202 88.0807 10.6845 87.3228 7.23761 86.6064C5.95346 86.3387 4.6618 86.1011 3.38516 85.7957C2.93833 85.6901 2.51028 85.4526 2.11226 85.2112C1.35379 84.7437 1.03465 84.1027 1.00837 83.1374C0.952045 81.0787 1.17734 79.0803 1.76685 77.1158C2.22869 75.5698 2.67174 74.0202 3.15612 72.478C4.22249 69.0882 5.78077 65.9473 7.87972 63.0779C9.26525 61.1812 10.8948 59.541 12.746 58.1007C15.5809 55.8987 18.5584 53.9417 21.7838 52.3543C25.1894 50.6802 28.7791 49.7073 32.5114 49.0927C35.3838 48.6214 38.2037 48.6403 41.0348 49.2587C41.9585 49.4623 42.8709 49.7224 43.8735 49.9788C43.9861 49.5339 44.1025 49.2096 44.1513 48.874C44.4254 47.1019 44.6282 45.3146 44.9586 43.5537C45.2215 42.1473 45.5631 40.7446 45.9949 39.3797C47.6921 34.0593 49.9375 28.9917 53.1479 24.3991C54.1692 22.9361 55.3745 21.6013 56.561 20.1232C56.561 19.5539 56.1818 18.9958 55.9527 18.3888C55.3557 16.8089 54.8638 15.1988 54.969 13.4983C55.2769 8.40042 57.2444 4.26785 61.9267 1.7604C63.1207 1.12317 64.3448 0.923347 65.7115 1.02515C69.2899 1.28532 71.9858 3.0839 74.3026 5.64413C74.5767 5.94955 74.8583 6.2512 75.1699 6.59056C75.6618 6.43596 76.1049 6.26628 76.5592 6.16448C78.0686 5.82513 79.5706 5.42165 81.0988 5.20296C84.5232 4.71655 87.9626 4.36969 91.4283 4.48281C98.9492 4.7279 106.211 6.22483 113.21 9.0113C115.542 9.93887 117.825 10.9569 120.018 12.1711C120.374 12.3671 120.746 12.5368 121.163 12.7442C122.898 10.9456 125.057 9.94641 127.257 9.0113C129.104 8.22324 131.008 7.84618 133.013 8.16291C133.129 8.18177 133.25 8.20061 133.37 8.20061C136.734 8.23078 139.261 9.96523 141.405 12.3294C143.204 14.309 144.048 16.692 143.913 19.4068C143.819 21.2808 143.433 23.0756 142.678 24.795C142.494 25.2173 142.355 25.6585 142.133 26.2656C142.704 26.2241 143.106 26.2278 143.493 26.16C146.147 25.6962 148.821 25.5491 151.506 25.7C152.576 25.7641 153.642 25.9073 154.708 26.0355C159.057 26.5634 162.999 28.0867 166.536 30.7262C168.785 32.4041 171.076 34.0066 173.066 36.0125C175.841 38.8066 177.838 42.1209 179.633 45.5785C179.742 45.7897 179.813 46.0197 179.896 46.2459C180.076 46.7474 179.99 47.1886 179.577 47.543L179.584 47.5543Z" fill="white"/>
<path d="M179.903 46.2575C179.825 46.0313 179.753 45.8013 179.641 45.5901C177.842 42.1325 175.848 38.8181 173.073 36.0241C171.083 34.0181 168.793 32.4157 166.544 30.7378C163.007 28.0983 159.064 26.5788 154.716 26.0471C153.65 25.9189 152.583 25.7756 151.513 25.7115C148.828 25.5607 146.155 25.704 143.5 26.1716C143.114 26.2394 142.712 26.2356 142.141 26.2771C142.366 25.67 142.505 25.2289 142.686 24.8066C143.436 23.0872 143.827 21.2924 143.921 19.4184C144.056 16.7074 143.211 14.3206 141.413 12.341C139.269 9.97683 136.742 8.24237 133.377 8.21221C133.257 8.21221 133.137 8.18955 133.021 8.17447C131.012 7.85773 129.112 8.23857 127.264 9.02285C125.064 9.95796 122.905 10.9572 121.17 12.7557C120.754 12.5484 120.382 12.3787 120.025 12.1826C117.832 10.9647 115.549 9.94665 113.218 9.02285C106.215 6.24015 98.9568 4.73945 91.4359 4.49436C87.9665 4.38124 84.527 4.72438 81.1064 5.21455C79.5782 5.43325 78.0762 5.83672 76.5668 6.17608C76.1125 6.27788 75.6694 6.45133 75.1775 6.60216C74.8659 6.2628 74.588 5.96115 74.3102 5.65573C71.9934 3.0955 69.2975 1.29692 65.7191 1.03675C64.3486 0.934944 63.1245 1.13477 61.9343 1.772C57.252 4.27945 55.2845 8.41202 54.9766 13.5099C54.8752 15.2066 55.3633 16.8204 55.9603 18.4003C56.1894 19.0036 56.5724 19.5655 56.5686 20.1348C55.3821 21.6129 54.1768 22.9477 53.1555 24.4107C49.9489 29.0033 47.6997 34.0709 46.0025 39.3913C45.567 40.7524 45.229 42.1589 44.9662 43.5653C44.632 45.3262 44.4293 47.1135 44.1589 48.8856C44.1064 49.2212 43.9937 49.5455 43.881 49.9904C42.8785 49.734 41.9661 49.4738 41.0424 49.2702C38.215 48.6481 35.3914 48.6292 32.519 49.1043C28.7867 49.7189 25.197 50.6917 21.7914 52.3659C18.566 53.9533 15.5885 55.9103 12.7536 58.1123C10.9024 59.5526 9.2728 61.1928 7.88727 63.0895C5.78832 65.9626 4.23009 69.0998 3.16372 72.4895C2.67934 74.0279 2.23629 75.5814 1.77445 77.1274C1.18494 79.0919 0.959644 81.0903 1.01597 83.149C1.04225 84.1105 1.36139 84.7553 2.11986 85.2228C2.51787 85.4642 2.94593 85.7017 3.39275 85.8073C4.6694 86.1127 5.96106 86.3503 7.24521 86.618C10.6884 87.3307 14.1278 88.0885 17.586 88.7446C19.0429 89.0199 20.5373 89.0764 22.0167 89.2386C22.3096 89.2687 22.6025 89.3215 22.8916 89.3705C27.1233 90.0831 31.3587 90.7921 35.5941 91.5085C35.9358 91.565 36.27 91.6706 36.6643 91.7686C36.6755 93.62 37.3214 95.1999 38.3126 96.6553C39.3377 98.1636 40.6406 99.3739 42.304 100.139C44.8986 101.335 47.5908 101.557 50.3281 100.724C52.9677 99.9207 55.4459 98.7556 57.6537 97.0663C58.1757 96.6667 58.6863 96.2556 59.2233 95.8785C59.4448 95.724 59.6551 95.4337 60.0493 95.6524C59.7339 98.3559 59.381 101.071 59.1031 103.793C58.814 106.591 59.1106 109.389 59.4223 112.198C58.7689 112.56 58.2057 112.888 57.6275 113.186C54.8752 114.611 52.6373 116.655 50.6698 119.011C49.3669 120.576 48.2404 122.28 47.5308 124.203C46.9525 125.764 46.3142 127.374 46.9675 129.071C47.3543 130.067 47.7373 131.111 48.3568 131.963C49.3706 133.362 50.5721 134.621 51.6948 135.941C52.5697 136.967 53.6248 137.234 54.909 136.801C56.6062 136.224 58.2808 135.624 59.8804 134.802C63.9694 132.71 68.0884 130.685 72.1737 128.585C72.8495 128.238 73.4691 128.11 74.2088 128.238C76.7996 128.683 79.4017 128.86 82.0451 128.694C85.7511 128.464 89.183 127.431 92.4084 125.629C92.8177 125.399 93.2345 125.184 93.6888 124.942C95.3597 126.375 96.9668 127.793 98.6227 129.158C99.9594 130.255 101.307 131.345 102.727 132.329C104.672 133.675 106.849 134.452 109.219 134.659C110.634 134.784 111.971 134.557 113.109 133.664C114.28 132.744 115.467 131.827 116.533 130.794C118.606 128.781 120.115 126.326 121.613 123.883C122.77 122.001 123.378 121.696 120.862 119.822C118.996 118.43 117.149 117.017 115.309 115.591C114.517 114.973 113.766 114.298 112.936 113.6C113.368 113.001 113.758 112.484 114.13 111.953C115.925 109.392 116.912 106.557 116.988 103.416C117.04 101.176 116.586 99.0232 115.955 96.8966C115.636 95.8182 115.174 94.7776 115.08 93.5634C116.098 93.5672 117.048 93.5446 117.994 93.5785C122.747 93.7558 127.385 93.0544 131.92 91.6668C133.115 91.3011 134.301 90.8486 135.401 90.2642C139.997 87.8246 144 84.6648 146.898 80.2608C148.821 77.3386 150.27 74.2127 150.721 70.6909C150.773 70.2837 150.897 69.8878 150.972 69.5635C151.404 69.2732 151.761 69.0584 152.091 68.802C160.983 61.9546 169.874 55.1033 178.762 48.2484C179.044 48.0297 179.321 47.7959 179.592 47.5659C180.005 47.2115 180.091 46.7741 179.911 46.2688L179.903 46.2575ZM124.64 11.881C126.206 11.3154 127.771 10.7234 129.39 10.3539C131.643 9.83731 133.892 10.2295 136.1 10.7913C136.546 10.9044 136.971 11.1759 137.357 11.4398C137.996 11.8772 138.604 12.3598 139.205 12.8462C142.119 15.2179 142.941 18.2684 142.01 21.8316C141.585 23.453 140.883 24.9725 139.963 26.3789C139.359 27.3065 138.908 27.3781 138.127 26.6278C137.181 25.7191 136.235 24.8103 135.33 23.8639C131.932 20.3082 128.045 17.3634 123.994 14.6184C123.502 14.2866 123.014 13.9473 122.379 13.5099C123.055 12.6728 123.806 12.1789 124.644 11.8772L124.64 11.881ZM20.8302 87.161C20.8077 87.2628 20.695 87.3457 20.5185 87.5795C14.8562 86.4068 9.2503 85.2492 3.64434 84.0841C3.41905 84.0389 3.20876 83.922 2.91964 83.8126C2.90462 82.3082 2.75444 80.8151 3.1149 79.3596C3.971 75.8794 4.84211 72.399 6.29147 69.096C7.6019 66.1059 9.34414 63.3986 11.736 61.174C13.7936 59.2585 16.069 57.6145 18.5059 56.1968C19.3771 55.6915 20.1581 55.0242 21.0404 54.5453C22.2945 53.8591 23.575 53.2067 24.8967 52.6675C27.4987 51.6042 30.2173 50.8803 32.9883 50.4693C34.9296 50.1789 36.9346 50.1224 38.8721 50.5107C43.682 51.4722 48.3831 52.7656 52.6673 55.2881C54.4847 56.3552 56.0993 57.6674 57.6537 59.0625C58.4423 59.7714 59.3509 60.3821 59.9555 61.3776C56.7676 66.0757 53.591 70.755 50.3694 75.4985C49.9075 75.3062 49.5208 75.178 49.1641 74.9895C46.0626 73.3455 42.7809 72.3614 39.2664 72.1578C35.4627 71.9391 31.8769 72.5612 28.7641 74.8952C26.545 76.558 24.7239 78.6167 23.3947 81.0714C22.3434 83.0133 21.292 84.9627 20.834 87.161H20.8302ZM45.1877 82.9643C45.169 83.0057 45.0338 82.9982 44.9512 83.0133C44.9549 82.9605 44.9399 82.8813 44.9699 82.8587C45.0338 82.8021 45.1127 82.7645 45.1915 82.723C45.1915 82.7041 45.1915 82.689 45.1915 82.6701C45.2065 82.6701 45.2215 82.6739 45.2366 82.6739C45.4356 82.0065 45.5895 81.3203 45.8486 80.6756C46.4231 79.2503 46.8699 77.7647 47.7147 76.3281C48.2216 76.5769 48.6797 76.7994 49.258 77.0822C49.0101 77.4969 48.8449 77.7948 48.6572 78.0776C47.7636 79.4124 46.8736 80.7472 45.9537 82.0669C45.7772 82.3195 45.6721 82.7229 45.2366 82.6777C45.2328 82.689 45.229 82.6966 45.229 82.7079C45.2178 82.7154 45.2065 82.7192 45.1952 82.7268C45.2065 82.8097 45.2215 82.8964 45.1952 82.968L45.1877 82.9643ZM42.7583 84.3255C42.6194 84.2878 42.5556 84.2878 42.5293 84.2576C42.4955 84.2162 42.4655 84.1444 42.4693 84.0917C42.8485 81.2599 43.2315 78.4282 43.622 75.6003C43.652 75.374 43.7609 75.1554 43.8397 74.9179C44.7371 74.9292 45.4843 75.2157 46.2278 75.8039C45.1427 78.6959 43.9561 81.5202 42.7546 84.3255H42.7583ZM52.0666 76.1696C53.2306 77.1764 54.2556 78.3717 55.7162 78.9826C57.0755 79.5519 58.4423 80.0949 59.8616 80.6718C57.2745 82.5722 48.8825 85.1512 46.2391 84.8986C46.8661 83.6015 51.0377 77.3423 52.0666 76.1696ZM40.5843 83.9673C40.5017 83.8957 40.3553 83.8353 40.3478 83.7561C39.946 80.5737 39.5593 77.3914 39.1387 73.979L41.8422 74.3409C41.9586 75.4231 41.2414 80.898 40.5843 83.9673ZM22.993 87.3834C22.9667 86.667 23.1319 85.9996 23.635 85.3209C25.2609 85.6527 26.7403 86.4294 28.276 87.0252C29.7516 87.5946 31.2723 88.0734 32.8193 88.8992C31.3625 88.9784 24.4836 87.8962 22.9967 87.3834H22.993ZM24.3747 83.741C24.5512 82.8851 24.9567 82.2517 25.4599 81.5239C28.122 83.3225 30.6978 85.1135 33.3675 87.0516C32.2711 86.9913 26.8679 84.974 24.3747 83.741ZM26.4849 79.8648C26.8454 79.122 27.4199 78.5376 28.0732 77.8966C28.276 78.0323 28.4975 78.1191 28.6364 78.2812C30.4988 80.4606 32.3462 82.6551 34.1936 84.8458C34.2987 84.9702 34.3588 85.1399 34.4639 85.3322C33.0484 84.6686 27.9043 81.1468 26.4849 79.8648ZM29.4287 76.7428C30.067 75.8868 30.8818 75.4646 31.8656 75.08C32.5377 76.0565 32.8869 77.1349 33.3713 78.1416C33.8594 79.1672 34.3325 80.2005 34.7944 81.2336C35.2449 82.2366 35.7744 83.2056 35.8983 84.3858C33.7581 81.8557 31.614 79.3256 29.4287 76.7428ZM38.1549 84.7101C36.8482 82.1951 33.9946 75.7436 33.6266 74.4352C34.9446 74.0582 36.1536 73.8244 37.3852 73.9714C37.7982 75.442 38.7106 83.7976 38.6243 85.3209C38.4328 85.072 38.2601 84.9062 38.1587 84.7101H38.1549ZM61.1871 91.1352C61.0106 91.7951 60.7327 92.3569 60.2296 92.8131C57.4247 95.362 54.4021 97.5564 50.7712 98.7857C48.2066 99.6567 45.6834 99.4267 43.3028 98.2654C42.3115 97.7827 41.3991 96.9909 40.6782 96.1462C39.6869 94.9811 38.782 93.6917 38.6844 91.9798C39.5067 91.5575 40.1112 92.025 40.8659 92.025C42.488 90.924 43.0587 88.8841 44.4931 87.4098C45.5181 87.2288 46.6333 87.0441 47.741 86.8404C48.8524 86.6331 49.9714 86.4483 51.0678 86.1768C52.1642 85.9053 53.2493 85.5735 54.3195 85.2077C55.3896 84.842 56.441 84.4159 57.4886 83.9898C58.5362 83.5638 59.5462 83.0284 60.6163 82.6777C61.6489 82.3383 62.3773 81.26 63.6915 81.3882C63.6765 81.7011 63.7028 81.9425 63.6464 82.1574C62.8316 85.1512 61.9906 88.1413 61.1871 91.1427V91.1352ZM69.1285 127.733C65.8205 129.497 62.5313 131.3 59.1932 133.011C57.8753 133.686 56.456 134.161 55.0742 134.701C54.2707 135.014 53.5723 134.878 53.009 134.154C51.9502 132.789 50.8162 131.477 49.8174 130.07C49.0289 128.966 48.7285 127.68 49.1115 126.322C49.3706 125.41 49.5734 124.452 49.9977 123.619C51.6836 120.32 54.0228 117.582 57.1806 115.595C57.9804 115.094 58.7952 114.618 59.6476 114.102C59.7865 114.441 59.9067 114.656 59.963 114.882C60.5675 117.352 61.7728 119.535 63.0795 121.685C64.3261 123.732 66.0195 125.259 68.1485 126.326C68.6253 126.567 69.1022 126.809 69.5565 127.035C69.6692 127.457 69.3876 127.589 69.1285 127.729V127.733ZM114.723 100.901C116.045 107.349 112.193 112.616 107.691 115.161C107.484 115.278 107.259 115.365 107.041 115.463C106.587 115.667 106.219 115.946 106.147 116.489C106.102 116.836 106.099 116.836 106.853 117.714C108.659 117.405 109.928 116.051 111.513 115.06C112.985 116.251 114.449 117.454 115.932 118.627C117.423 119.807 118.94 120.957 120.536 122.19C120.374 122.529 120.265 122.857 120.085 123.14C118.61 125.455 117.138 127.789 115.211 129.765C114.34 130.659 113.342 131.428 112.392 132.238C111.667 132.853 110.815 133.019 109.88 132.932C107.691 132.729 105.697 131.971 103.906 130.726C102.584 129.81 101.322 128.803 100.068 127.793C98.0707 126.19 96.0994 124.55 94.1244 122.936C93.3621 122.774 92.8665 123.287 92.322 123.611C89.8814 125.074 87.2455 125.991 84.4332 126.337C81.0388 126.752 77.6594 126.598 74.3026 125.84C72.3727 125.402 70.5065 124.837 68.7568 123.89C67.0859 122.989 65.7567 121.768 64.7654 120.139C63.256 117.661 62.1971 115.037 61.7352 112.149C61.1157 108.28 61.0707 104.419 61.5212 100.535C62.0657 95.8296 63.1546 91.237 64.3148 86.6557C64.5776 85.615 64.7767 84.5554 65.0207 83.511C65.1672 82.8813 65.3474 82.2592 65.5013 81.6672C67.1159 81.5541 68.5991 81.4749 70.0747 81.3354C70.5966 81.2864 71.1111 81.1016 71.618 80.9395C71.9071 80.8452 72.1736 80.6341 72.0948 80.2872C72.0084 79.9064 71.7344 79.6612 71.3251 79.665C70.9684 79.6688 70.6116 79.7102 70.2624 79.7592C66.9019 80.1966 63.5977 79.944 60.3535 78.9524C57.5787 78.104 54.9803 76.969 53.208 74.3145C53.4521 73.9148 53.7074 73.4624 53.9966 73.0288C56.2795 69.5975 58.5774 66.1776 60.8454 62.7388C61.7765 61.3248 62.2421 61.2041 60.5675 59.5677C57.4285 56.4984 54.0003 53.8402 49.9188 52.1283C49.0965 51.7814 48.2592 51.4685 47.4256 51.1442C46.93 50.9519 46.4268 50.7747 45.8861 50.5749C45.7397 49.768 45.8148 48.995 45.8937 48.2371C46.2429 44.8963 46.8774 41.6159 47.925 38.4222C49.7911 32.7437 52.5472 27.5591 56.3584 22.9439C57.1544 21.9824 57.8377 20.9267 58.5887 19.8973C58.5962 19.0828 58.1494 18.4192 57.8678 17.7103C56.9403 15.3688 56.6625 12.982 57.1806 10.5009C57.4172 9.3773 57.7852 8.314 58.2958 7.29971C59.4523 4.99587 61.4537 3.70633 63.8229 3.10303C65.5239 2.66941 67.3187 3.04647 68.8957 3.75911C70.5779 4.52077 71.9897 5.75 73.2588 7.21676C72.7369 7.85777 72.0009 7.98594 71.4339 8.37054C70.9946 8.66842 70.5553 8.98138 70.1949 9.36221C69.9546 9.61861 69.8982 10.0108 70.0935 10.369C70.2737 10.7046 70.7393 10.8742 71.1937 10.7158C71.5842 10.5801 71.9671 10.4029 72.3351 10.2106C75.9886 8.34415 79.8335 7.20923 83.9338 6.84725C87.3206 6.54938 90.7037 6.25904 94.1056 6.56068C97.4324 6.85479 100.77 7.17529 104.003 8.02368C110.957 9.85242 117.573 12.4579 123.558 16.5867C128.248 19.8256 132.502 23.5321 136.588 27.6986C136.231 27.8683 135.957 28.0493 135.657 28.136C129.194 30.0703 124.392 34.2029 120.521 39.5798C119.755 40.6469 119 41.7215 118.242 42.7961C117.029 44.5193 116.131 46.3857 115.478 48.3954C115.05 49.7038 115.516 50.7483 116.672 51.6268C117.1 51.9511 117.558 52.2339 118.024 52.5016C121.272 54.3869 124.52 56.2647 127.775 58.1387C129.634 59.2095 131.462 60.3444 133.531 60.9892C133.7 61.042 133.854 61.1438 134.008 61.2306C136.096 62.3881 138.184 63.5419 140.264 64.7033C140.519 64.8466 140.744 65.035 141.03 65.2311C140.895 66.2492 140.883 67.2899 140.609 68.2476C139.359 72.614 137.327 76.5732 134.215 79.9177C133.689 80.4833 133.099 81.0073 132.472 81.4522C129.728 83.4054 126.788 84.9174 123.438 85.5923C119.909 86.305 116.383 86.7236 112.79 86.2297C112.174 86.1467 111.708 86.5011 111.689 87.0968C111.671 87.6285 111.701 88.179 111.817 88.6993C112.264 90.6789 112.752 92.651 113.225 94.6268C113.725 96.7157 114.28 98.797 114.716 100.901H114.723ZM146.377 60.7819C146.279 60.8611 146.181 60.9402 146.084 61.0194C144.244 58.561 142.404 56.1025 140.572 53.6516C141.348 52.988 142.165 52.5192 143.023 52.2452C144.161 55.0769 145.34 57.9012 146.38 60.7819H146.377ZM144.465 51.5401C145.306 50.8388 146.245 50.8162 147.154 50.6917C147.601 51.9737 148.254 57.426 148.164 60.8422C146.936 57.7503 145.708 54.6584 144.469 51.5363L144.465 51.5401ZM144.89 62.7199C143.56 61.8753 138.225 57.3581 137.41 56.3664C137.939 55.8461 138.476 55.3182 139.013 54.7904C140.215 56.0158 144.157 61.355 144.89 62.7199ZM143.515 63.7531C143.707 63.9152 144.022 64.0472 143.925 64.3978C143.94 64.4054 143.955 64.4129 143.97 64.4205C143.996 64.4356 144.018 64.4544 144.049 64.4695C144.105 64.477 144.157 64.4846 144.214 64.4921C144.176 64.4921 144.135 64.5034 144.101 64.4921C144.082 64.4846 144.067 64.4771 144.049 64.4658C144.003 64.4582 143.958 64.4507 143.91 64.4469C143.917 64.428 143.921 64.4129 143.925 64.3941C141.826 63.3081 139.742 62.2185 137.658 61.1212C136.768 60.6537 135.886 60.1785 134.954 59.6808C135.037 58.806 135.593 58.3121 136.205 57.7541C136.486 57.9313 136.749 58.0558 136.971 58.2367C139.16 60.0655 141.341 61.9017 143.515 63.7493V63.7531ZM147.991 74.899C146.444 78.5979 144.195 81.8029 141.157 84.416C138.657 86.5652 135.979 88.4731 132.848 89.6043C129.983 90.6375 127.028 91.3652 123.994 91.7083C121.088 92.0402 118.163 92.0212 115.245 92.0212C115.069 92.0212 114.896 91.976 114.494 91.9232C114.156 90.5884 113.837 89.3253 113.496 87.9716C114.509 87.8208 115.392 87.8811 116.27 87.8736C121.921 87.8321 127.261 86.6519 132.097 83.5827C133.986 82.3836 135.6 80.8866 136.914 79.0881C139.659 75.3363 141.732 71.2641 142.614 66.6489C142.637 66.5358 142.716 66.4378 142.772 66.3209C143.151 66.1022 143.433 66.4226 143.726 66.5508C145.198 67.1994 146.658 67.8781 148.123 68.5455C149.073 68.9829 149.166 69.1262 149.076 70.1933C148.941 71.8109 148.622 73.3907 147.991 74.8914V74.899ZM152.587 53.7082C152.456 54.4095 152.26 55.1033 152.099 55.8009C151.93 56.5587 151.768 57.3166 151.603 58.0745C151.449 58.7759 151.303 59.4734 151.141 60.171C150.969 60.8987 150.961 61.6793 150.544 62.3882C150.375 62.226 150.24 62.1619 150.233 62.0827C149.835 58.463 149.444 54.8432 149.069 51.2234C149.054 51.065 149.14 50.8916 149.196 50.6729C150.466 50.7031 151.693 50.8275 152.861 51.4308C153.06 52.2264 152.73 52.9579 152.591 53.7044L152.587 53.7082ZM152.711 61.9998C152.542 61.9772 152.474 61.9809 152.467 61.9658C152.444 61.913 152.433 61.8489 152.444 61.7924C152.516 61.4417 152.595 61.0948 152.67 60.7479C153.285 57.9049 153.901 55.0657 154.536 52.1397C155.565 52.3207 156.379 52.709 157.172 53.3236C155.658 56.2571 154.228 59.1756 152.711 61.9998ZM154.543 62.9462C154.87 61.3588 155.726 60.0352 156.394 58.6364C157.078 57.1998 157.832 55.7933 158.689 54.123C159.5 54.7941 160.085 55.2768 160.592 55.6953C160.619 55.8801 160.637 55.9366 160.63 55.9856C160.622 56.0422 160.6 56.1063 160.562 56.1478C158.707 58.3084 156.849 60.4651 154.99 62.6219C154.874 62.7539 154.757 62.8897 154.547 62.9462H154.543ZM162.845 58.3762C161.163 59.6921 159.47 61.0005 157.776 62.3051C157.649 62.4032 157.48 62.456 157.277 62.5541C157.919 61.3512 160.112 58.7005 161.922 56.9509C162.32 57.3468 162.646 57.6749 162.95 57.9765C162.905 58.1613 162.917 58.3196 162.845 58.3762ZM173.787 50.096C172.281 51.2686 170.76 52.4262 169.232 53.5687C167.715 54.7074 166.262 55.9404 164.602 57.0301C164.268 56.7058 163.96 56.4344 163.683 56.1365C160.551 52.7693 156.751 50.5334 152.32 49.3494C149.403 48.5689 146.53 48.7197 143.722 49.783C141.071 50.786 138.705 52.2641 136.689 54.2813C135.341 55.6312 133.933 56.9283 133.002 58.6326C132.953 58.7268 132.818 58.7721 132.619 58.9191C127.452 55.9856 122.304 52.9164 117.07 49.8547C117.408 48.4218 117.806 47.1097 118.497 45.9408C120.9 41.8685 123.528 37.9546 127.065 34.7572C128.845 33.1471 130.835 31.8123 133.054 30.8961C135.367 29.9384 137.737 29.1428 140.2 28.6337C141.36 28.3962 142.513 28.1323 143.662 27.7967C144.957 27.4158 146.358 27.314 147.721 27.2386C150.466 27.084 153.214 27.2122 155.918 27.6873C157.968 28.0493 159.977 28.679 161.809 29.7159C166.243 32.2271 170.385 35.1154 173.7 39.0632C175.142 40.7826 177.354 44.3873 178.263 46.6648C176.877 47.9015 175.281 48.9346 173.794 50.096H173.787Z" fill="#231F20" stroke="#231F20" stroke-width="0.590759" stroke-miterlimit="10"/>
<path d="M106.324 57.2901C106.083 59.2923 104.247 60.7251 102.336 60.4687C101.044 60.2952 99.3773 58.3345 99.6026 56.7848C99.9218 54.5979 101.886 53.5082 103.098 53.6213C104.818 53.7796 106.512 55.7328 106.324 57.2939V57.2901Z" fill="#231F20" stroke="#231F20" stroke-width="0.710276" stroke-miterlimit="10"/>
<path d="M68.0133 55.7478C66.6503 55.4914 66.0795 54.9258 65.8017 53.5269C65.5163 52.0903 66.0946 50.9252 67.0821 49.9863C67.9795 49.1342 69.1134 49.0588 70.2624 49.4735C72.444 50.254 73.0372 52.9274 71.3964 54.5601C70.4577 55.4952 69.38 56.0306 68.0133 55.744V55.7478Z" fill="#231F20" stroke="#231F20" stroke-width="0.710276" stroke-miterlimit="10"/>
<path d="M81.2754 60.2348C80.622 59.6127 80.6333 59.0471 81.1214 58.5607C82.0001 57.6822 82.92 56.8413 83.8549 56.0231C84.4032 55.5442 84.8349 55.5668 85.4395 56.0834C86.4307 56.9356 87.2869 57.9159 88.0303 58.9378C87.7787 60.0765 87.7712 60.0728 86.9114 60.6912C85.845 60.0426 85.3043 58.8473 84.3881 58.0064C83.2316 58.6248 82.537 59.7786 81.2754 60.2311V60.2348Z" fill="#231F20" stroke="#231F20" stroke-width="0.710276" stroke-miterlimit="10"/>
<path d="M166.72 38.2862C166.39 37.977 166.052 37.6678 165.725 37.3662C165.917 36.7101 166.104 36.1407 166.243 35.5601C166.326 35.2169 166.352 34.855 166.367 34.4968C166.379 34.2441 165.86 33.9764 165.68 34.1536C165.391 34.4327 165.072 34.7343 164.922 35.0925C164.648 35.7373 164.539 36.4461 164.129 37.023C163.217 36.9024 162.383 36.8458 161.58 36.6611C161.141 36.5593 160.727 36.2689 160.356 35.9899C160.078 35.7825 160.119 35.4809 160.476 35.2019C160.881 35.3112 161.328 35.4507 161.786 35.5488C161.948 35.5827 162.132 35.5148 162.413 35.4771C162.556 35.0812 162.706 34.6589 162.879 34.1725C162.158 33.803 161.539 33.4862 160.885 33.1582C160.908 32.8905 160.949 32.6567 160.938 32.4267C160.926 32.2118 160.855 32.0044 160.825 31.8498C159.879 31.567 159.751 32.6115 159.09 32.7057C158.632 32.6454 158.163 32.5587 157.686 32.5285C157.307 32.5059 156.973 32.6567 156.86 33.0601C156.747 33.4636 156.965 33.7652 157.288 33.9538C157.645 34.1649 158.043 34.3007 158.403 34.5043C158.527 34.576 158.591 34.757 158.779 35.0284C157.558 35.0096 156.837 34.3497 156.023 33.7351C156.165 33.0979 156.293 32.5172 156.432 31.9403C156.488 31.7103 156.59 31.4878 156.642 31.2541C156.729 30.8506 156.537 30.5527 156.218 30.3453C155.85 30.104 155.486 30.2963 155.249 30.5376C154.968 30.8242 154.754 31.205 154.596 31.5821C154.412 32.012 154.318 32.4833 154.168 32.9923C153.601 32.9169 153.086 32.8 152.572 32.7962C152.208 32.7962 151.9 33.0036 151.768 33.3957C151.618 33.8444 151.753 34.2215 152.061 34.5382C152.178 34.6589 152.381 34.6891 152.527 34.7871C152.801 34.9719 153.064 35.1717 153.364 35.3942C152.542 36.8647 151.524 38.0148 150.3 38.9913C149.974 39.2515 149.609 39.474 149.339 39.7869C148.997 40.1828 149.133 40.5523 149.647 40.854C150.248 40.5222 150.886 40.1715 151.723 39.7077C151.554 40.2959 151.491 40.6466 151.355 40.9709C150.856 42.1888 150.33 43.3878 149.827 44.6019C149.67 44.9865 149.504 45.3787 149.444 45.7859C149.373 46.2308 149.531 46.6117 150.139 46.6645C150.289 46.5401 150.522 46.4269 150.642 46.2384C151.934 44.2852 152.516 42.004 153.503 39.885C153.845 40.0923 154.13 40.2658 154.371 40.4128C154.663 40.2846 154.866 40.1904 155.073 40.0999C155.238 40.6164 155.399 41.1104 155.565 41.6194C154.866 42.2642 154.855 43.1013 154.919 43.9761C154.581 43.9572 154.288 43.927 153.991 43.9308C153.59 43.9308 153.308 44.1269 153.203 44.519C153.098 44.9074 153.263 45.2241 153.529 45.4843C153.653 45.605 153.822 45.6917 153.98 45.7633C155.193 46.2987 156.473 46.5627 157.78 46.7097C158.512 46.7927 158.876 46.4118 159.038 45.6954C158.745 45.3862 158.437 45.0657 158.148 44.7603C158.418 44.3078 158.674 43.9647 158.828 43.5839C158.899 43.4104 158.854 43.0673 158.726 42.9693C158.591 42.8599 158.253 42.8562 158.088 42.9505C157.679 43.188 157.326 43.5198 156.939 43.7951C156.732 43.9421 156.593 44.2588 156.18 44.1005C156.297 43.7573 156.432 43.4368 156.507 43.105C156.593 42.7317 156.271 42.2981 156.687 41.9173C157.078 42.0342 157.465 42.1699 157.863 42.2642C158.76 42.4753 159.278 42.2793 159.578 41.446C159.913 40.5108 160.104 39.5268 160.348 38.6067C159.541 37.8149 158.565 37.6527 157.694 37.3134C156.578 36.8798 156.331 37.0344 155.535 38.1542C155.493 38.2108 155.354 38.1957 155.223 38.2221C155.204 37.4944 155.185 36.778 155.159 35.6393C157.048 36.5518 158.771 37.1324 160.476 37.7809C160.731 38.1693 160.99 38.5615 161.189 38.8631C160.964 39.3457 160.682 39.7039 160.645 40.0848C160.54 41.2122 160.536 42.3509 160.487 43.4821C160.465 44.0175 160.757 44.3644 161.125 44.7C161.242 44.8018 161.276 45.0017 161.34 45.1487C161.141 45.5408 160.957 45.9066 160.788 46.2346C160.502 46.261 160.326 46.261 160.153 46.2912C159.379 46.4269 159.012 46.7248 159.034 47.1886C159.057 47.6675 159.496 48.233 160.007 48.3386C160.281 48.3952 160.615 48.3876 160.87 48.282C161.49 48.0219 161.978 47.5883 162.252 46.9511C162.605 46.1291 162.988 45.3184 163.303 44.4813C163.912 42.8675 164.482 41.2386 165.053 39.6512C165.902 39.4627 166.769 39.4249 166.701 38.2975L166.72 38.2862ZM156.879 39.4438C156.969 39.1271 157.19 38.9423 157.517 39.0026C157.848 39.0629 158.167 39.1874 158.516 39.293L158.384 40.2922C158.197 40.3676 158.08 40.4581 157.994 40.4355C157.72 40.3676 157.446 40.2771 157.187 40.1564C156.89 40.0169 156.785 39.7605 156.879 39.44V39.4438ZM162.44 41.5817C162.338 40.707 162.248 39.9453 162.136 38.9913C162.646 39.0818 162.977 39.1422 163.405 39.2213C163.254 40.1263 163.104 40.9068 162.436 41.5817H162.44Z" fill="#231F20"/>
<path d="M146.482 42.4339C145.494 41.7476 144.631 42.8713 143.602 42.4339C144.488 40.952 144.567 39.4023 144.345 37.7734C144.251 37.0797 143.988 36.548 143.602 36.0051C143.17 35.398 142.475 35.775 142.002 35.5073C140.943 34.0594 139.987 33.1494 139.133 32.7774C140.135 32.0057 140.717 31.3282 140.879 30.745C140.373 30.2586 139.869 30.5603 139.408 30.7978C137.29 31.8875 135.18 33.0036 133.069 34.1084C132.912 34.1914 132.746 34.2668 132.596 34.3611C131.973 34.7494 131.782 35.1604 132.011 35.6732C132.262 36.2275 132.743 35.8391 133.006 35.8881C133.497 37.2116 133.967 38.4785 134.44 39.7568C134.342 40.2997 133.531 40.6127 133.929 41.3593C134.305 41.5554 134.71 41.7665 135.078 41.9588C135.059 42.351 134.988 42.6602 135.048 42.943C135.09 43.1466 135.27 43.418 135.446 43.4708C135.615 43.5236 135.957 43.3992 136.055 43.2446C136.407 42.6978 136.685 42.1059 137.001 41.5365C137.05 41.446 137.155 41.3894 137.286 41.265C137.526 41.5026 137.77 41.7401 138.093 42.0606C137.737 42.6111 137.433 43.1089 137.106 43.5915C136.907 43.8856 136.655 44.1495 136.46 44.4474C136.096 45.0055 136.193 45.2279 137.087 45.8539C137.41 45.5409 137.722 45.1827 138.093 44.9074C138.42 44.6661 138.758 44.6963 138.957 45.2694C138.578 45.5673 138.153 45.8689 137.763 46.2158C137.297 46.6306 137.29 47.0491 137.748 47.611C137.883 47.7806 138.116 47.8711 138.277 47.9767C139.163 47.6487 139.809 47.117 140.365 46.4911C141.026 45.7483 141.769 45.3222 142.798 45.1864C143.782 45.0545 144.739 44.6435 145.671 44.2664C146.523 43.9195 146.703 43.2107 146.485 42.4264L146.482 42.4339ZM134.271 35.4244L134.132 35.3376L134.297 35.3L134.275 35.4244H134.271ZM137.046 38.3089C137.001 38.3277 136.948 38.3315 136.896 38.3428C136.892 38.3013 136.873 38.2297 136.884 38.2259C136.929 38.2071 136.978 38.2071 137.031 38.2033C137.035 38.241 137.057 38.3089 137.046 38.3127V38.3089ZM137.755 35.5073L137.767 35.4281L137.864 35.4809L137.752 35.5073H137.755ZM138.57 37.4454L138.597 37.3399L138.72 37.419L138.57 37.4454ZM138.799 34.9757C138.799 34.9757 138.758 34.9003 138.735 34.8588C138.833 34.8211 138.931 34.7796 139.032 34.7532C139.04 34.7532 139.07 34.8362 139.092 34.8776C138.995 34.9154 138.901 34.9531 138.803 34.9757H138.799ZM138.72 40.066C138.698 40.0245 138.645 39.9642 138.657 39.9378C138.679 39.9001 138.743 39.885 138.788 39.8586C138.833 39.885 138.882 39.9076 138.927 39.934C138.859 39.9793 138.788 40.0207 138.72 40.066ZM140.095 36.729C139.963 36.8082 139.821 36.8685 139.685 36.9364C139.633 36.8534 139.569 36.7743 139.577 36.7667C139.693 36.6498 139.806 36.5291 139.945 36.45C139.982 36.4273 140.098 36.5367 140.17 36.597C140.177 36.6046 140.132 36.7064 140.091 36.7328L140.095 36.729ZM140.917 38.8782C140.868 38.8707 140.834 38.6595 140.797 38.5389C140.996 38.4974 141.191 38.4409 141.39 38.422C141.416 38.422 141.458 38.6105 141.525 38.8141C141.308 38.8405 141.109 38.8933 140.917 38.8782ZM142.081 40.3488C141.597 39.8699 141.953 39.5683 142.081 39.1045C142.423 39.3496 142.652 39.5155 142.96 39.738C142.618 39.9755 142.344 40.1678 142.085 40.3488H142.081Z" fill="#231F20"/>
<path d="M131.421 41.6006C130.828 42.1812 130.715 43.0259 129.908 43.1729C129.315 42.8486 129.179 42.3585 129.277 41.7891C129.604 39.8925 129.551 37.9921 129.431 36.0842C129.408 35.7373 129.469 35.3716 129.555 35.0322C129.683 34.542 130.422 34.3912 130.689 34.821C130.933 35.2094 131.166 35.6807 131.177 36.1219C131.203 37.3586 131.65 38.4069 132.217 39.4777C133.52 41.955 134.722 44.4889 135.953 47.0039C136.208 47.528 136.584 48.0257 136.456 48.6591C135.596 49.0739 135.27 49.0815 134.909 48.6064C134.661 48.2783 134.474 47.8974 134.294 47.5242C133.543 45.9669 132.807 44.4059 132.059 42.8449C131.879 42.4716 131.68 42.1096 131.421 41.6043V41.6006Z" fill="#231F20"/>
<path d="M46.3329 59.8729C47.0275 59.5034 47.8086 59.1791 47.5269 58.1008C47.1327 57.9462 46.7121 57.7765 46.2766 57.603C46.239 57.1166 46.2128 56.7018 46.1715 56.2908C46.1264 55.8158 46.1038 55.3332 45.995 54.8731C45.9536 54.6884 45.7246 54.4659 45.5406 54.4206C45.214 54.3377 44.9436 54.5752 44.8911 54.8844C44.7934 55.4689 44.7822 56.0684 44.7221 56.6566C44.6808 57.0525 44.6207 57.4447 44.5681 57.8331C43.7458 57.9499 43.0211 57.9838 42.3415 58.1724C41.6243 58.3722 41.0536 58.1384 40.4979 57.7802C40.3928 57.7123 40.3928 57.4748 40.3214 57.2297C40.7194 57.1769 41.0649 57.143 41.4028 57.0865C41.7407 57.0262 42.0749 56.947 42.3641 56.8829C42.6532 55.4086 42.5518 55.2577 41.3277 55.2087C41.0349 55.1974 40.742 55.2087 40.5392 55.2087C39.9722 54.8203 40.4266 53.8702 39.4503 53.7797C39.1574 54.2284 38.8458 54.711 38.5041 55.2389C38.3013 55.2615 38.0648 55.269 37.8357 55.3218C37.4903 55.401 37.1073 55.4425 36.8257 55.6273C36.6229 55.763 36.4728 56.1061 36.4615 56.3662C36.454 56.5321 36.7055 56.7735 36.897 56.8715C37.1523 57.0035 37.4678 57.0186 37.7531 57.0978C38.0573 57.1808 38.4628 57.0073 38.6505 57.4296C37.5691 57.7916 37.3964 57.7652 35.8607 57.0073C35.8269 56.7434 35.7819 56.4493 35.7556 56.1552C35.7068 55.6197 35.7218 55.073 35.6054 54.5526C35.5528 54.3075 35.2975 54.0323 35.0647 53.9229C34.6892 53.7495 34.3212 53.987 34.1823 54.3226C34.0021 54.7449 33.9194 55.22 33.8556 55.68C33.7955 56.1363 33.8106 56.6001 33.7881 57.0714C33.514 57.1166 33.345 57.1506 33.176 57.177C32.9432 57.2147 32.6954 57.2109 32.4776 57.2863C32.057 57.4334 31.7642 57.7199 31.7492 58.2026C31.7341 58.6814 32.0383 59.1037 32.5489 59.2508C32.9319 59.3602 33.3299 59.4167 33.7092 59.4921C33.6228 60.9852 33.2473 62.1127 32.3537 63.5757C32.0758 64.0319 31.7492 64.4656 31.4826 64.9293C31.2348 65.3517 31.3812 65.559 32.1434 65.921C32.579 65.4119 33.0258 64.8916 33.4613 64.3825C33.8744 64.6616 33.7768 64.9821 33.758 65.2611C33.6904 66.2754 33.5815 67.2859 33.5177 68.3002C33.4689 69.0732 33.4163 69.8537 33.4501 70.6267C33.4689 71.0716 33.7505 71.3959 34.3325 71.3431C34.4526 71.181 34.6517 71.0075 34.7155 70.7963C35.4101 68.5528 35.121 66.1925 35.4514 63.7831C36.086 64.0809 36.6079 63.9527 36.6755 63.9339C37.1148 64.1752 37.5504 64.4127 37.8996 64.605C37.8245 65.1669 37.7156 65.5816 37.7306 65.9926C37.7456 66.3847 37.8958 66.7694 37.9897 67.1804C37.6855 67.2822 37.464 67.3576 37.2425 67.433C36.7806 67.5838 36.5741 67.9005 36.6304 68.387C36.6905 68.8998 37.0923 69.1222 37.4941 69.1637C38.9247 69.307 40.3477 69.2504 41.7483 68.8847C41.8609 68.8545 42.0186 68.8243 42.0674 68.7414C42.2401 68.4473 42.4767 68.1343 42.4955 67.8176C42.503 67.6253 42.1688 67.3952 41.9548 67.218C41.7858 67.0823 41.5718 67.0031 41.4667 66.9503C41.5455 66.3546 41.6244 65.887 41.6619 65.4119C41.6844 65.1329 41.2076 64.8954 40.9935 65.0801C40.7307 65.3101 40.4866 65.5703 40.2688 65.8456C40.0022 66.1849 39.7732 66.5507 39.4653 66.9994C39.2964 66.1472 39.1612 65.4723 39.011 64.7106C39.4991 64.688 39.9084 64.6843 40.3102 64.6428C41.2639 64.5447 41.6507 64.2318 41.6694 63.3231C41.6882 62.3276 41.6544 61.317 41.4554 60.3216C40.3552 59.8691 39.2701 60.0614 38.215 60.0577C37.1711 60.0577 36.9383 60.3782 36.9158 61.532C36.9158 61.6979 36.9233 61.8638 36.9271 62.2144C36.2737 61.3321 36.1348 60.431 35.7368 59.511C36.0672 59.3865 36.2324 59.2584 36.3901 59.2697C37.693 59.3526 38.996 59.5449 40.2951 59.5374C41.2113 59.5298 41.8909 59.79 42.334 60.3556C42.3265 61.0456 42.2364 61.5886 42.3378 62.0901C42.518 62.9649 42.8372 63.8094 43.07 64.6767C43.2389 65.3063 43.6069 65.7212 44.2077 65.9587C44.3016 65.9964 44.3616 66.1133 44.4705 66.2264L44.294 67.5688C44.0688 67.6479 43.8923 67.6856 43.7383 67.7685C43.0625 68.1418 42.8484 68.5415 43.0474 69.0242C43.2502 69.5143 43.9786 69.8575 44.5381 69.6727C44.8047 69.586 45.075 69.4201 45.2703 69.2202C45.6983 68.7829 45.9537 68.2437 46.01 67.6253C46.0701 66.973 46.1377 66.3169 46.1602 65.6608C46.2278 63.7529 46.2691 61.8449 46.3254 59.8767L46.3329 59.8729ZM40.1149 61.7206C40.1299 62.1316 40.1374 62.4595 40.1525 62.8856C39.593 62.8856 39.1424 62.8856 38.5942 62.8932C38.5904 62.452 38.5867 62.1164 38.5829 61.6828C39.1124 61.6941 39.5667 61.7055 40.1149 61.7206ZM44.4067 62.3766C44.1025 61.7545 43.7984 61.1323 43.4943 60.5177C43.7196 59.9709 44.1175 60.0577 44.6319 60.2085C44.9173 60.8986 44.6808 61.6112 44.4029 62.3766H44.4067Z" fill="#231F20"/>
<path d="M29.9017 69.4954C29.9168 69.1259 29.7028 68.7488 29.6051 68.4321C28.4186 68.221 27.923 69.4389 26.7214 69.4616C27.2358 68.2173 27.0068 67.0597 26.6013 65.9436C26.177 64.7785 25.7789 63.5568 24.3146 63.0968C23.9992 63.1835 23.6049 63.2891 23.1731 63.4097C22.9441 63.2401 22.7113 63.0628 22.471 62.8856C22.0392 62.5688 21.6412 62.1654 21.1605 61.9656C20.6611 61.762 20.0791 61.7544 19.4634 61.6488C19.775 61.2454 20.0829 60.8834 20.342 60.4913C20.5034 60.25 20.6348 59.9709 20.7099 59.6881C20.7475 59.5486 20.6874 59.3148 20.5823 59.213C20.4734 59.1074 20.2143 59.0283 20.1017 59.0887C19.7412 59.281 19.3695 59.4996 19.0879 59.7899C17.3456 61.5847 15.6221 63.4022 13.8949 65.2121C13.8123 65.2988 13.7222 65.3818 13.6621 65.4836C13.3505 66.019 13.3655 66.4941 13.9925 66.8787C14.2854 66.7844 14.6121 66.6788 14.9613 66.5619C15.3443 67.9156 16.5608 68.6169 17.3193 69.748C17.2517 70.1063 17.1579 70.5135 17.1166 70.9207C17.1016 71.0753 17.2142 71.245 17.2893 71.4675L18.6373 71.6484C18.84 72.2367 18.7161 72.9795 19.6323 72.987C20.3457 72.3875 20.2481 71.5202 20.3119 70.702C20.3195 70.604 20.4208 70.5136 20.4959 70.3929C20.6536 70.4193 20.8376 70.4231 20.9878 70.4909C21.1417 70.5588 21.2619 70.6907 21.4046 70.8001C21.4797 71.5655 21.1755 72.214 20.9465 72.8928C20.8151 73.2774 20.725 73.711 20.7738 74.1031C20.8001 74.3218 21.1192 74.5744 21.3633 74.6762C21.5022 74.7366 21.8251 74.5745 21.9415 74.4199C22.1518 74.1408 22.2269 73.76 22.4334 73.4772C22.6962 73.119 23.0267 73.1492 23.3609 73.5564C23.0793 73.9787 22.7601 74.4048 22.501 74.8648C22.2119 75.3738 22.3884 75.8413 22.9929 76.1732C23.1806 76.275 23.4397 76.2448 23.6274 76.2712C24.3033 75.7395 24.7276 75.0948 25.0205 74.3708C25.4185 73.3867 26.0643 72.7268 27.0256 72.2254C27.908 71.7691 28.6739 71.0715 29.4399 70.4192C29.684 70.2118 29.883 69.8159 29.8942 69.4992L29.9017 69.4954ZM19.0728 67.9005C19.009 67.991 18.9076 68.0513 18.8175 68.1268C18.6635 67.8025 18.9489 67.761 19.1216 67.6517C19.1066 67.7384 19.1216 67.8364 19.0728 67.9005ZM19.5309 64.3146C19.5046 64.3373 19.4296 64.3109 19.3732 64.3071C19.4446 64.2241 19.5122 64.1337 19.5948 64.062C19.6173 64.0432 19.6774 64.0696 19.7187 64.0734C19.6548 64.1563 19.6023 64.2468 19.5309 64.3184V64.3146ZM20.0528 66.8296L20.0153 66.6901L20.1242 66.6977L20.0528 66.8296ZM21.2469 65.3101C21.2732 65.2649 21.2994 65.2196 21.3257 65.1744C21.3708 65.1857 21.4384 65.1857 21.4534 65.2121C21.4722 65.2498 21.4534 65.3101 21.4496 65.3591C21.382 65.344 21.3145 65.3252 21.2469 65.3101ZM21.4647 68.6282C21.4196 68.6018 21.3708 68.5792 21.3257 68.5566C21.3858 68.5189 21.4459 68.4661 21.5135 68.4472C21.5322 68.4397 21.5811 68.5226 21.6149 68.5641C21.566 68.5867 21.5172 68.6093 21.4647 68.6282ZM22.5986 67.0069C23.0342 66.513 23.1994 66.3282 23.3834 66.117C23.5448 66.298 23.6537 66.4224 23.8602 66.6486C23.5148 66.7467 23.252 66.8221 22.5986 67.0069ZM24.5849 67.8741C24.5023 67.6064 24.2695 67.2482 24.3634 67.0898C24.5962 66.7015 24.9454 66.8183 25.2796 67.2331C25.0505 67.4442 24.8177 67.6591 24.5849 67.8741Z" fill="#231F20"/>
<path d="M15.0139 72.4855C14.6347 73.2735 14.8111 74.0428 14.1428 74.4312C13.497 74.3746 13.1628 73.9976 13.0727 73.4169C12.761 71.3996 12.1002 69.4879 11.3042 67.6215C11.2591 67.5121 11.2253 67.3953 11.199 67.2821C11.0901 66.8108 11.2628 66.3658 11.6083 66.2075C12.01 66.0265 12.333 66.249 12.547 66.5129C12.8399 66.8787 13.114 67.2972 13.2566 67.7346C13.5458 68.6244 14.139 69.239 14.7886 69.8725C17.0077 72.033 19.1742 74.2464 21.3595 76.4408C21.4872 76.569 21.6149 76.6935 21.7238 76.833C21.9378 77.112 22.2081 77.3948 21.9791 77.7832C21.7576 78.1565 21.138 78.2998 20.7025 78.0397C20.3533 77.8323 20.0341 77.5532 19.745 77.2591C18.4909 75.9847 17.2555 74.6951 16.0089 73.4131C15.7273 73.1228 15.4194 72.8588 15.0214 72.4855H15.0139Z" fill="#231F20"/>
</svg>
