<?xml version="1.0" standalone="no"?>
<!DOCTYPE svg PUBLIC "-//W3C//DTD SVG 1.1//EN" "http://www.w3.org/Graphics/SVG/1.1/DTD/svg11.dtd" >
<svg xmlns="http://www.w3.org/2000/svg" xmlns:xlink="http://www.w3.org/1999/xlink" version="1.1">
<metadata>
Created by FontForge 20201107 at Thu Jun 20 20:50:50 2024
 By 
Released in 2024 under CC0 license. No rights reserved.
</metadata>
<defs>
<font id="Electroharmonix-Regular" horiz-adv-x="1314" >
  <font-face 
    font-family="Electroharmonix"
    font-weight="400"
    font-stretch="normal"
    units-per-em="2048"
    panose-1="0 0 0 0 0 0 0 0 0 0"
    ascent="1638"
    descent="-410"
    x-height="1366"
    cap-height="1366"
    bbox="-238 -492 2693 1966"
    underline-thickness="40"
    underline-position="-292"
    unicode-range="U+0017-E001"
  />
<missing-glyph horiz-adv-x="1396" 
d="M1087 -250h-780q-203 0 -203 174v1501q0 87 52 133t151 46h780q100 0 152.5 -45.5t52.5 -133.5v-1501q0 -174 -205 -174zM324 1319l90 -221q74 49 159 49q36 0 89 -10t110 -29t97 -54t40 -77q0 -54 -30 -87t-70 -48q-31 -11 -76.5 -22.5t-74 -18.5t-65.5 -27t-63 -50.5
t-54 -87.5t-50 -138l221 -62q24 92 63.5 124.5t149.5 57.5q129 29 205 134.5t76 246.5q0 77 -35 142.5t-92 110t-130.5 76.5t-149 46.5t-148.5 14.5q-141 0 -262 -70zM465 350q-74 0 -127 -57.5t-53 -134.5q0 -72 46.5 -123t117.5 -51t124.5 54.5t53.5 135.5q0 72 -46.5 124
t-115.5 52z" />
    <glyph glyph-name="copyright" unicode="&#x28;C&#x29;" 
d="M1210 1366v-1366h-186v98h-733v-98h-187v1366h1106zM291 301h733v862h-733v-862zM510 909v-90q0 -94 61.5 -166t153 -106.5t193.5 -34.5l-46 -152q-101 7 -190.5 40.5t-160.5 90t-112.5 143t-41.5 191.5v236h571v-152h-428z" />
    <glyph glyph-name="registered" unicode="&#x28;R&#x29;" 
d="M1210 1366v-1366h-186v98h-733v-98h-187v1366h1106zM291 301h733v862h-733v-862zM328 883v145h108v80h142v-80h385l24 -127q-159 -146 -354 -246l-55 95v-383h-142v516h-108zM578 883v-92q87 44 151 92h-151zM639 618l115 91q103 -110 223 -289l-115 -90
q-109 165 -223 288z" />
    <glyph glyph-name="uni2117" unicode="&#x28;P&#x29;" 
d="M1210 1366v-1366h-186v98h-733v-98h-187v1366h1106zM291 301h733v862h-733v-862zM635 629l-17 47q-31 -192 -110 -330l-131 74q109 180 112 461l150 -7l-6 -79q94 41 162 131h-443v155h576l53 -143q-135 -227 -346 -309z" />
    <glyph glyph-name=".notdef" horiz-adv-x="1396" 
d="M1087 -250h-780q-203 0 -203 174v1501q0 87 52 133t151 46h780q100 0 152.5 -45.5t52.5 -133.5v-1501q0 -174 -205 -174zM324 1319l90 -221q74 49 159 49q36 0 89 -10t110 -29t97 -54t40 -77q0 -54 -30 -87t-70 -48q-31 -11 -76.5 -22.5t-74 -18.5t-65.5 -27t-63 -50.5
t-54 -87.5t-50 -138l221 -62q24 92 63.5 124.5t149.5 57.5q129 29 205 134.5t76 246.5q0 77 -35 142.5t-92 110t-130.5 76.5t-149 46.5t-148.5 14.5q-141 0 -262 -70zM465 350q-74 0 -127 -57.5t-53 -134.5q0 -72 46.5 -123t117.5 -51t124.5 54.5t53.5 135.5q0 72 -46.5 124
t-115.5 52z" />
    <glyph glyph-name="uni0000" horiz-adv-x="0" 
 />
    <glyph glyph-name="uni0000" horiz-adv-x="0" 
 />
    <glyph glyph-name="nonmarkingreturn" horiz-adv-x="682" 
 />
    <glyph glyph-name="uni0017" horiz-adv-x="653" 
 />
    <glyph glyph-name="space" unicode=" " horiz-adv-x="653" 
 />
    <glyph glyph-name="exclam" unicode="!" horiz-adv-x="573" 
d="M399 1366v-870h-227v870h227zM115 184q0 77 50 132t120 55q71 0 120.5 -55t49.5 -132t-49 -130.5t-121 -53.5q-71 0 -120.5 54t-49.5 130z" />
    <glyph glyph-name="quotedbl" unicode="&#x22;" horiz-adv-x="860" 
d="M57 1391l222 79q34 -73 73 -210.5t51 -223.5l-227 -65q-8 93 -43 218.5t-76 201.5zM446 1391l222 79q34 -74 73.5 -211t51.5 -223l-228 -65q-8 93 -43 218.5t-76 201.5z" />
    <glyph glyph-name="numbersign" unicode="#" horiz-adv-x="1431" 
d="M1395 635v-209h-400v-426h-198v426h-174q0 -208 -84 -317t-209 -109h-84l-23 213h62q67 0 102 45.5t35 132.5q0 5 -1 17t-1 18h-385v209h395v199h-295v206h295v326h203v-326h164v326h198v-326h201v-206h-201v-199h400zM633 635h164v199h-164v-199z" />
    <glyph glyph-name="dollar" unicode="$" horiz-adv-x="1239" 
d="M565 -106v249h-461v219h461v314h-139q-123 0 -188.5 69.5t-65.5 200.5v117h-125v221h518v193h185v-193h360v-221h-360v-170h413v-217h-61v-135q0 -202 -81.5 -300t-270.5 -98v-249h-185zM899 676h-149v-314q84 0 116.5 42.5t32.5 136.5v135zM375 946q0 -28 11 -40.5
t40 -12.5h139v170h-190v-117z" />
    <glyph glyph-name="percent" unicode="%" horiz-adv-x="1411" 
d="M995 1395l150 -68q-127 -335 -392 -752.5t-491 -615.5l-106 129q145 125 315.5 362t308.5 489t215 456zM803 328q0 114 73 194t177 80q106 0 180 -80t74 -194q0 -113 -74 -192t-180 -79q-104 0 -177 79t-73 192zM958 328q0 -38 28.5 -66.5t66.5 -28.5q39 0 67.5 28.5
t28.5 66.5q0 40 -28 68t-68 28q-39 0 -67 -28t-28 -68zM104 979q0 113 73 192.5t177 79.5q106 0 180 -79.5t74 -192.5q0 -114 -74 -193t-180 -79q-104 0 -177 79t-73 193zM262 979q0 -40 27 -67t65 -27q40 0 68.5 27.5t28.5 66.5q0 38 -28.5 66t-68.5 28q-38 0 -65 -28
t-27 -66z" />
    <glyph glyph-name="ampersand" unicode="&#x26;" horiz-adv-x="1333" 
d="M791 1237v-438h438v-246h-438v-80q0 -215 -62 -412l-237 52q53 154 53 350v90h-441v246h441v438h246z" />
    <glyph glyph-name="quotesingle" unicode="'" horiz-adv-x="473" 
d="M57 1391l222 79q34 -73 73 -210.5t51 -223.5l-227 -65q-8 93 -43 218.5t-76 201.5z" />
    <glyph glyph-name="parenleft" unicode="(" horiz-adv-x="708" 
d="M686 -55l-145 -135q-180 181 -274.5 409.5t-94.5 464.5t94.5 464t274.5 408l145 -135q-146 -136 -229.5 -341t-83.5 -396q0 -192 83.5 -397.5t229.5 -341.5z" />
    <glyph glyph-name="parenright" unicode=")" horiz-adv-x="708" 
d="M168 -190l-145 135q146 136 229.5 341.5t83.5 397.5q0 191 -83.5 396t-229.5 341l145 135q180 -180 274.5 -408t94.5 -464t-94.5 -464.5t-274.5 -409.5z" />
    <glyph glyph-name="asterisk" unicode="*" horiz-adv-x="1495" 
d="M242 18l-136 183q78 48 202 164t198 215h-436v223h573v616h229v-616h551v-223h-426q73 -101 198 -220.5t204 -166.5l-137 -181q-80 46 -197 167t-193 237v-475h-229v497q-74 -117 -195.5 -243.5t-205.5 -176.5zM1120 872l-178 134q57 56 121 159t92 183l188 -115
q-30 -74 -100.5 -188t-122.5 -173zM150 1165l149 160q59 -46 149 -144t138 -167l-166 -152q-43 76 -124 167t-146 136z" />
    <glyph glyph-name="plus" unicode="+" horiz-adv-x="1333" 
d="M791 1237v-438h438v-246h-438v-80q0 -215 -62 -412l-237 52q53 154 53 350v90h-441v246h441v438h246z" />
    <glyph glyph-name="comma" unicode="," horiz-adv-x="542" 
d="M41 242l162 172q63 -50 158.5 -155t146.5 -179l-176 -160q-46 79 -133.5 176t-157.5 146z" />
    <glyph glyph-name="hyphen" unicode="-" horiz-adv-x="1255" 
d="M66 799h1124v-246h-1124v246z" />
    <glyph glyph-name="period" unicode="." horiz-adv-x="712" 
d="M104 328q0 114 73 194t177 80q106 0 180 -80t74 -194q0 -113 -74 -192t-180 -79q-104 0 -177 79t-73 192zM262 328q0 -39 27 -67t65 -28q40 0 68.5 28.5t28.5 66.5q0 40 -28.5 68t-68.5 28q-38 0 -65 -28t-27 -68z" />
    <glyph glyph-name="slash" unicode="/" horiz-adv-x="1118" 
d="M905 1438l213 -92q-361 -831 -968 -1387l-150 180q305 287 521 597.5t384 701.5z" />
    <glyph glyph-name="zero" unicode="0" 
d="M1210 1366v-1366h-227v98h-651v-98h-228v1366h1106zM332 342h651v780h-651v-780z" />
    <glyph glyph-name="one" unicode="1" horiz-adv-x="694" 
d="M362 1366h228v-1366h-228v727q-110 -172 -169 -221l-177 162q67 51 179.5 227t166.5 342v129z" />
    <glyph glyph-name="two" unicode="2" horiz-adv-x="1370" 
d="M1239 1077v-481h-821v-152q0 -106 37 -153t135 -47h606v-244h-610q-213 0 -304.5 109t-91.5 335v152h-133v244h957v237h-879v244h1157v-244h-53z" />
    <glyph glyph-name="three" unicode="3" horiz-adv-x="1312" 
d="M1208 1366v-1366h-227v98h-905v244h905v260h-872v244h872v276h-905v244h1132z" />
    <glyph glyph-name="four" unicode="4" horiz-adv-x="1288" 
d="M72 500v243h186v670h227v-670h492q6 66 10 193l230 -10q-17 -559 -238 -965l-203 111q110 188 162 428h-866z" />
    <glyph glyph-name="five" unicode="5" horiz-adv-x="1376" 
d="M1317 639h-70v-195q0 -226 -91 -335t-304 -109h-721v244h717q98 0 135 47t37 153v195h-528q-138 0 -211.5 78.5t-73.5 226.5v178h-137v244h1185v-244h-821v-178q0 -32 12.5 -45.5t45.5 -13.5h825v-246z" />
    <glyph glyph-name="six" unicode="6" horiz-adv-x="1478" 
d="M1374 879v-926h-227v88h-449q-212 0 -303.5 109.5t-91.5 336.5v146h-237v246h237v243h-133v244h1182v-244h-822v-243h844zM530 487q0 -106 37.5 -153t134.5 -47h445v346h-617v-146z" />
    <glyph glyph-name="seven" unicode="7" horiz-adv-x="1286" 
d="M952 905v217h-876v244h1106v-446q0 -167 -53 -311t-145 -249t-217 -183t-268 -121.5t-298 -55.5l-72 242q122 0 240.5 28t223.5 84.5t185 134.5t127 185.5t47 230.5z" />
    <glyph glyph-name="eight" unicode="8" 
d="M1210 1366v-1366h-227v98h-651v-98h-228v1366h1106zM332 342h651v272h-651v-272zM332 1122v-264h651v264h-651z" />
    <glyph glyph-name="nine" unicode="9" horiz-adv-x="1288" 
d="M94 1366h1106v-446q0 -167 -53 -311t-145 -249t-217 -183t-268 -121.5t-298 -55.5l-72 242q158 0 307.5 46t272.5 139.5t186 219.5h-591v-49h-228v768zM971 1122h-649v-229h649v229z" />
    <glyph glyph-name="colon" unicode=":" horiz-adv-x="636" 
d="M147 324q0 77 50 131.5t120 54.5q72 0 122 -54.5t50 -131.5t-50 -131t-122 -54q-70 0 -120 54t-50 131zM147 1030q0 77 50 132t120 55q72 0 122 -55t50 -132t-50 -130.5t-122 -53.5q-71 0 -120.5 54t-49.5 130z" />
    <glyph glyph-name="semicolon" unicode=";" horiz-adv-x="645" 
d="M76 389l160 170q64 -49 160.5 -155t144.5 -179l-174 -157q-48 79 -134.5 174.5t-156.5 146.5zM135 1030q0 77 50 132t120 55q72 0 122 -55t50 -132t-50 -130.5t-122 -53.5q-71 0 -120.5 54t-49.5 130z" />
    <glyph glyph-name="less" unicode="&#x3c;" horiz-adv-x="1191" 
d="M997 90l-893 465v260l885 467l98 -205l-739 -391l739 -391z" />
    <glyph glyph-name="equal" unicode="=" horiz-adv-x="1333" 
d="M104 401h1125v-243h-1125v243zM168 1196h997v-246h-997v246z" />
    <glyph glyph-name="greater" unicode="&#x3e;" horiz-adv-x="1191" 
d="M1087 555l-892 -465l-91 205l738 391l-738 391l99 205l884 -467v-260z" />
    <glyph glyph-name="question" unicode="?" horiz-adv-x="1011" 
d="M61 1262q156 159 426 159q220 0 339.5 -92.5t119.5 -271.5q0 -72 -14.5 -128t-42 -94.5t-57.5 -63t-72 -46.5q-98 -51 -128 -82t-30 -82v-65h-227v110q0 114 47 178q22 27 75.5 56.5t100 51.5t84 63t37.5 94q0 69 -57.5 98t-180.5 29q-111 0 -172 -27.5t-104 -77.5z
M317 184q0 77 50 132t120 55q71 0 120.5 -55t49.5 -132t-49 -130.5t-121 -53.5q-71 0 -120.5 54t-49.5 130z" />
    <glyph glyph-name="at" unicode="@" horiz-adv-x="1411" 
d="M844 739h117v-356q0 -55 20 -78.5t66 -23.5q70 0 109.5 63t39.5 184q0 533 -475 533q-105 0 -195.5 -38.5t-160 -111.5t-109 -188t-39.5 -258q0 -138 45.5 -254t123 -194t172 -127.5t200.5 -69.5l-47 -162q-311 67 -486.5 276t-175.5 525q0 141 37 264.5t100.5 213
t148 154.5t180.5 97.5t196 32.5q306 0 476.5 -169t170.5 -511q0 -44 -7.5 -90t-29 -98t-53.5 -92t-87 -66.5t-124 -26.5q-134 0 -172 104q-65 -104 -183 -104q-98 0 -166.5 77.5t-68.5 207.5q0 142 61 215t170 73q88 0 146 -39v37zM844 385v184q-48 54 -121 54
q-71 0 -106 -41t-35 -129q0 -160 129 -160q54 0 84.5 22.5t48.5 69.5z" />
    <glyph glyph-name="A" unicode="A" horiz-adv-x="1415" 
d="M127 -12l-88 137l594 1305l209 -99l-482 -1044l590 159l-170 383l213 97l393 -869l-210 -96l-123 262z" />
    <glyph glyph-name="B" unicode="B" horiz-adv-x="1454" 
d="M1372 883v-439q0 -226 -91 -335t-302 -109h-238v244h234q96 0 133 47t37 153v193h-336v485h-197v-356q0 -67 -3 -124.5t-15 -134t-32 -139t-56 -129.5t-85 -116t-123 -87t-165 -54l-53 245q59 0 106.5 19.5t79 50t54.5 77t35 91t19 103t9 101.5t2 97v356h-268v244h919
v-483h336z" />
    <glyph glyph-name="C" unicode="C" horiz-adv-x="1206" 
d="M1110 1366v-244h-799v-678q0 -106 37 -153t135 -47h602v-244h-606q-213 0 -304 109t-91 335v922h1026z" />
    <glyph glyph-name="D" unicode="D" horiz-adv-x="1288" 
d="M971 905v217h-649v-504h-228v748h1106v-446q0 -167 -53 -311t-145 -249t-217 -183t-268 -121.5t-298 -55.5l-72 242q122 0 240.5 28t224 84.5t185.5 134.5t127 185.5t47 230.5z" />
    <glyph glyph-name="E" unicode="E" horiz-adv-x="1374" 
d="M96 1122v244h981v-244h-598v-241h844v-246h-844v-191q0 -106 37 -153t133 -47h600l-55 -244h-549q-213 0 -304 109t-91 335v191h-195v246h195v241h-154z" />
    <glyph glyph-name="F" unicode="F" horiz-adv-x="1267" 
d="M1049 1436l38 -244q-246 -51 -466 -72v-239h587v-246h-587v-191q0 -226 -91.5 -335t-304.5 -109h-18l-43 244h57q97 0 134.5 47.5t37.5 152.5v191h-287v246h287v223q-144 -6 -301 -6l-22 243q179 0 369 16t300.5 31.5t309.5 47.5z" />
    <glyph glyph-name="G" unicode="G" horiz-adv-x="1267" 
d="M1145 -53h-227v119q-143 12 -265.5 48.5t-228.5 104.5t-180.5 163.5t-117 232.5t-42.5 305v446h1106v-244h-879v-217q0 -144 48 -257t132.5 -184t192 -110t234.5 -47v438h227v-798z" />
    <glyph glyph-name="H" unicode="H" horiz-adv-x="1468" 
d="M547 1438v-500h862v-244h-90v-250q0 -226 -91 -335t-304 -109h-35l-58 244h89q97 0 134.5 47.5t37.5 152.5v250h-545v-221q0 -277 -127 -510l-211 103q110 179 110 405v223h-260v244h260v500h228z" />
    <glyph glyph-name="I" unicode="I" horiz-adv-x="1323" 
d="M197 1122v244h940v-244h-357v-878h482v-244h-1190v244h479v878h-354z" />
    <glyph glyph-name="J" unicode="J" horiz-adv-x="1163" 
d="M426 1087l-41 230q366 41 723 121l41 -230q-176 -45 -231 -55v-709q0 -226 -91.5 -335t-304.5 -109h-467v244h463q97 0 134.5 47.5t37.5 152.5v670q-132 -18 -264 -27z" />
    <glyph glyph-name="K" unicode="K" horiz-adv-x="1366" 
d="M328 1495l223 -53q-25 -124 -70 -268l822 116l36 -243l-305 -41q27 -213 27 -324q0 -145 -36 -272.5t-97.5 -220t-138 -157t-162.5 -98.5l-121 209q153 62 241.5 199t88.5 336q0 76 -29 293l-416 -56q-66 -161 -160 -335l-204 98q109 210 182.5 404.5t118.5 412.5z" />
    <glyph glyph-name="L" unicode="L" horiz-adv-x="1173" 
d="M145 -63l-88 225l70 24v1180h227v-1087q392 163 697 395l135 -199q-419 -323 -1041 -538z" />
    <glyph glyph-name="M" unicode="M" horiz-adv-x="1470" 
d="M332 1071v-967h-228v1213h527v184h219v-184h586v-246h-60v-604q0 -365 -299 -404l-57 244q67 9 98 48t31 112v604h-299v-1169h-219v1169h-299z" />
    <glyph glyph-name="N" unicode="N" horiz-adv-x="1329" 
d="M332 1077v-1077h-228v1321h439v180h229v-180h488v-244h-50v-633q0 -226 -91 -335t-304 -109h-31l-57 244h84q97 0 134.5 47.5t37.5 152.5v633h-651z" />
    <glyph glyph-name="O" unicode="O" 
d="M1210 1366v-1366h-227v98h-651v-98h-228v1366h1106zM332 342h651v780h-651v-780z" />
    <glyph glyph-name="P" unicode="P" horiz-adv-x="1284" 
d="M621 543l-66 194q-51 -454 -223 -751l-203 110q205 336 211 865l231 -11q-3 -93 -12 -170q250 97 418 342h-905v244h1085l92 -252q-128 -214 -279 -355t-349 -216z" />
    <glyph glyph-name="Q" unicode="Q" horiz-adv-x="1304" 
d="M1210 1366l4 -414q0 -352 -172 -592q97 -146 160 -292l-211 -91q-43 105 -114 222q-150 -101 -351 -101h-194v-98h-228v1366h1106zM592 852q177 -149 307 -303q84 156 84 418v155h-651v-780h190q128 0 211 45q-128 146 -299 285z" />
    <glyph glyph-name="R" unicode="R" horiz-adv-x="1355" 
d="M41 1090v243h192v168h230v-168h823l39 -221q-302 -279 -698 -487l-119 206q217 100 428 259h-473v-1090h-230v1090h-192zM678 494l188 147q229 -253 432 -555l-188 -147q-176 276 -432 555z" />
    <glyph glyph-name="S" unicode="S" horiz-adv-x="1376" 
d="M1317 639h-70v-195q0 -226 -91 -335t-304 -109h-721v244h717q98 0 135 47t37 153v195h-528q-138 0 -211.5 78.5t-73.5 226.5v178h-137v244h1185v-244h-821v-178q0 -32 12.5 -45.5t45.5 -13.5h825v-246z" />
    <glyph glyph-name="T" unicode="T" horiz-adv-x="1206" 
d="M1161 1137v-244h-434v-127q0 -67 -3 -124.5t-15 -134t-32 -139t-56 -129.5t-85 -116t-123 -87t-165 -54l-53 245q59 0 106.5 19.5t79 50t54.5 77t35 91t19 103t9 101.5t2 97v127h-434v244h434v364h227v-364h434z" />
    <glyph glyph-name="U" unicode="U" 
d="M332 342h651v1024h227v-1366h-227v98h-651v-98h-228v1366h228v-1024z" />
    <glyph glyph-name="V" unicode="V" horiz-adv-x="1150" 
d="M25 1341l233 60q155 -477 250 -1028q134 233 247.5 531.5t151.5 518.5l219 -69q-42 -216 -142 -491.5t-235 -535t-260 -399.5l-184 140q18 22 35 47q-162 715 -315 1226z" />
    <glyph glyph-name="W" unicode="W" horiz-adv-x="1462" 
d="M848 1501v-1159h287v819h227v-1161h-227v98h-803v-98h-228v1161h228v-819h289v1159h227z" />
    <glyph glyph-name="X" unicode="X" horiz-adv-x="1230" 
d="M168 879l125 204q142 -79 379 -266q162 281 280 629l213 -88q-133 -389 -315 -696q215 -187 326 -328l-168 -164q-114 130 -287 289q-225 -321 -526 -545l-160 172q291 217 508 528q-209 174 -375 265z" />
    <glyph glyph-name="Y" unicode="Y" horiz-adv-x="1304" 
d="M246 -39l-123 217q209 108 400 305.5t328.5 436t209.5 485.5l213 -70q-60 -257 -217 -529.5t-372 -497.5t-439 -347zM43 1249l162 181q96 -82 226.5 -246t217.5 -305l-192 -136q-77 129 -199 280.5t-215 225.5z" />
    <glyph glyph-name="Z" unicode="Z" horiz-adv-x="1228" 
d="M61 1366h963l33 -225l-664 -705q-53 -53 -53 -106q0 -86 125 -86h387q63 0 86 30t23 109l229 -12q0 -192 -70.5 -281.5t-240.5 -89.5h-420q-158 0 -252 88.5t-94 239.5q0 160 116 282l488 510h-656v246z" />
    <glyph glyph-name="bracketleft" unicode="[" horiz-adv-x="618" 
d="M180 -199v1764h410v-181h-223v-1400h223v-183h-410z" />
    <glyph glyph-name="backslash" unicode="\" horiz-adv-x="1118" 
d="M1118 49l-213 -90q-168 391 -384 701t-521 595l150 183q610 -562 968 -1389z" />
    <glyph glyph-name="bracketright" unicode="]" horiz-adv-x="618" 
d="M438 1565v-1764h-409v183h223v1400h-223v181h409z" />
    <glyph glyph-name="asciicircum" unicode="^" horiz-adv-x="1302" 
d="M55 475l465 891h260l465 -883l-205 -98l-391 737l-389 -737z" />
    <glyph glyph-name="underscore" unicode="_" horiz-adv-x="1267" 
d="M12 -127h1272v-246h-1272v246z" />
    <glyph glyph-name="grave" unicode="`" horiz-adv-x="509" 
d="M47 1839l199 127q53 -55 121.5 -181t95.5 -216l-211 -113q-27 89 -88 203.5t-117 179.5z" />
    <glyph glyph-name="a" unicode="a" horiz-adv-x="1415" 
d="M127 -12l-88 137l594 1305l209 -99l-482 -1044l590 159l-170 383l213 97l393 -869l-210 -96l-123 262z" />
    <glyph glyph-name="b" unicode="b" horiz-adv-x="1454" 
d="M1372 883v-439q0 -226 -91 -335t-302 -109h-238v244h234q96 0 133 47t37 153v193h-336v485h-197v-356q0 -67 -3 -124.5t-15 -134t-32 -139t-56 -129.5t-85 -116t-123 -87t-165 -54l-53 245q59 0 106.5 19.5t79 50t54.5 77t35 91t19 103t9 101.5t2 97v356h-268v244h919
v-483h336z" />
    <glyph glyph-name="c" unicode="c" horiz-adv-x="1206" 
d="M1110 1366v-244h-799v-678q0 -106 37 -153t135 -47h602v-244h-606q-213 0 -304 109t-91 335v922h1026z" />
    <glyph glyph-name="d" unicode="d" horiz-adv-x="1288" 
d="M971 905v217h-649v-504h-228v748h1106v-446q0 -167 -53 -311t-145 -249t-217 -183t-268 -121.5t-298 -55.5l-72 242q122 0 240.5 28t224 84.5t185.5 134.5t127 185.5t47 230.5z" />
    <glyph glyph-name="e" unicode="e" horiz-adv-x="1374" 
d="M96 1122v244h981v-244h-598v-241h844v-246h-844v-191q0 -106 37 -153t133 -47h600l-55 -244h-549q-213 0 -304 109t-91 335v191h-195v246h195v241h-154z" />
    <glyph glyph-name="f" unicode="f" horiz-adv-x="1267" 
d="M1049 1436l38 -244q-246 -51 -466 -72v-239h587v-246h-587v-191q0 -226 -91.5 -335t-304.5 -109h-18l-43 244h57q97 0 134.5 47.5t37.5 152.5v191h-287v246h287v223q-144 -6 -301 -6l-22 243q179 0 369 16t300.5 31.5t309.5 47.5z" />
    <glyph glyph-name="g" unicode="g" horiz-adv-x="1267" 
d="M1145 -53h-227v119q-143 12 -265.5 48.5t-228.5 104.5t-180.5 163.5t-117 232.5t-42.5 305v446h1106v-244h-879v-217q0 -144 48 -257t132.5 -184t192 -110t234.5 -47v438h227v-798z" />
    <glyph glyph-name="h" unicode="h" horiz-adv-x="1468" 
d="M547 1438v-500h862v-244h-90v-250q0 -226 -91 -335t-304 -109h-35l-58 244h89q97 0 134.5 47.5t37.5 152.5v250h-545v-221q0 -277 -127 -510l-211 103q110 179 110 405v223h-260v244h260v500h228z" />
    <glyph glyph-name="i" unicode="i" horiz-adv-x="1323" 
d="M197 1122v244h940v-244h-357v-878h482v-244h-1190v244h479v878h-354z" />
    <glyph glyph-name="j" unicode="j" horiz-adv-x="1163" 
d="M426 1087l-41 230q366 41 723 121l41 -230q-176 -45 -231 -55v-709q0 -226 -91.5 -335t-304.5 -109h-467v244h463q97 0 134.5 47.5t37.5 152.5v670q-132 -18 -264 -27z" />
    <glyph glyph-name="k" unicode="k" horiz-adv-x="1366" 
d="M328 1495l223 -53q-25 -124 -70 -268l822 116l36 -243l-305 -41q27 -213 27 -324q0 -145 -36 -272.5t-97.5 -220t-138 -157t-162.5 -98.5l-121 209q153 62 241.5 199t88.5 336q0 76 -29 293l-416 -56q-66 -161 -160 -335l-204 98q109 210 182.5 404.5t118.5 412.5z" />
    <glyph glyph-name="l" unicode="l" horiz-adv-x="1173" 
d="M145 -63l-88 225l70 24v1180h227v-1087q392 163 697 395l135 -199q-419 -323 -1041 -538z" />
    <glyph glyph-name="m" unicode="m" horiz-adv-x="1470" 
d="M332 1071v-967h-228v1213h527v184h219v-184h586v-246h-60v-604q0 -365 -299 -404l-57 244q67 9 98 48t31 112v604h-299v-1169h-219v1169h-299z" />
    <glyph glyph-name="n" unicode="n" horiz-adv-x="1329" 
d="M332 1077v-1077h-228v1321h439v180h229v-180h488v-244h-50v-633q0 -226 -91 -335t-304 -109h-31l-57 244h84q97 0 134.5 47.5t37.5 152.5v633h-651z" />
    <glyph glyph-name="o" unicode="o" 
d="M1210 1366v-1366h-227v98h-651v-98h-228v1366h1106zM332 342h651v780h-651v-780z" />
    <glyph glyph-name="p" unicode="p" horiz-adv-x="1284" 
d="M621 543l-66 194q-51 -454 -223 -751l-203 110q205 336 211 865l231 -11q-3 -93 -12 -170q250 97 418 342h-905v244h1085l92 -252q-128 -214 -279 -355t-349 -216z" />
    <glyph glyph-name="q" unicode="q" horiz-adv-x="1304" 
d="M1210 1366l4 -414q0 -352 -172 -592q97 -146 160 -292l-211 -91q-43 105 -114 222q-150 -101 -351 -101h-194v-98h-228v1366h1106zM592 852q177 -149 307 -303q84 156 84 418v155h-651v-780h190q128 0 211 45q-128 146 -299 285z" />
    <glyph glyph-name="r" unicode="r" horiz-adv-x="1355" 
d="M41 1090v243h192v168h230v-168h823l39 -221q-302 -279 -698 -487l-119 206q217 100 428 259h-473v-1090h-230v1090h-192zM678 494l188 147q229 -253 432 -555l-188 -147q-176 276 -432 555z" />
    <glyph glyph-name="s" unicode="s" horiz-adv-x="1376" 
d="M1317 639h-70v-195q0 -226 -91 -335t-304 -109h-721v244h717q98 0 135 47t37 153v195h-528q-138 0 -211.5 78.5t-73.5 226.5v178h-137v244h1185v-244h-821v-178q0 -32 12.5 -45.5t45.5 -13.5h825v-246z" />
    <glyph glyph-name="t" unicode="t" horiz-adv-x="1206" 
d="M1161 1137v-244h-434v-127q0 -67 -3 -124.5t-15 -134t-32 -139t-56 -129.5t-85 -116t-123 -87t-165 -54l-53 245q59 0 106.5 19.5t79 50t54.5 77t35 91t19 103t9 101.5t2 97v127h-434v244h434v364h227v-364h434z" />
    <glyph glyph-name="u" unicode="u" 
d="M332 342h651v1024h227v-1366h-227v98h-651v-98h-228v1366h228v-1024z" />
    <glyph glyph-name="v" unicode="v" horiz-adv-x="1150" 
d="M25 1341l233 60q155 -477 250 -1028q134 233 247.5 531.5t151.5 518.5l219 -69q-42 -216 -142 -491.5t-235 -535t-260 -399.5l-184 140q18 22 35 47q-162 715 -315 1226z" />
    <glyph glyph-name="w" unicode="w" horiz-adv-x="1462" 
d="M848 1501v-1159h287v819h227v-1161h-227v98h-803v-98h-228v1161h228v-819h289v1159h227z" />
    <glyph glyph-name="x" unicode="x" horiz-adv-x="1230" 
d="M168 879l125 204q142 -79 379 -266q162 281 280 629l213 -88q-133 -389 -315 -696q215 -187 326 -328l-168 -164q-114 130 -287 289q-225 -321 -526 -545l-160 172q291 217 508 528q-209 174 -375 265z" />
    <glyph glyph-name="y" unicode="y" horiz-adv-x="1304" 
d="M246 -39l-123 217q209 108 400 305.5t328.5 436t209.5 485.5l213 -70q-60 -257 -217 -529.5t-372 -497.5t-439 -347zM43 1249l162 181q96 -82 226.5 -246t217.5 -305l-192 -136q-77 129 -199 280.5t-215 225.5z" />
    <glyph glyph-name="z" unicode="z" horiz-adv-x="1228" 
d="M61 1366h963l33 -225l-664 -705q-53 -53 -53 -106q0 -86 125 -86h387q63 0 86 30t23 109l229 -12q0 -192 -70.5 -281.5t-240.5 -89.5h-420q-158 0 -252 88.5t-94 239.5q0 160 116 282l488 510h-656v246z" />
    <glyph glyph-name="braceleft" unicode="{" horiz-adv-x="749" 
d="M188 1565h541q-146 -163 -229.5 -408t-83.5 -475q0 -227 83.5 -472.5t229.5 -408.5h-541v1764z" />
    <glyph glyph-name="bar" unicode="|" horiz-adv-x="548" 
d="M182 -199v1764h187v-1764h-187z" />
    <glyph glyph-name="braceright" unicode="}" horiz-adv-x="749" 
d="M20 1565h541v-1764h-541q146 163 230 408.5t84 472.5q0 230 -84 474.5t-230 408.5z" />
    <glyph glyph-name="asciitilde" unicode="~" horiz-adv-x="1359" 
d="M231 481l-127 207q46 85 120.5 125.5t148.5 40.5q57 0 127.5 -21t127 -46.5t127 -46.5t126.5 -21q74 0 140.5 37.5t106.5 115.5l127 -208q-42 -89 -132 -136t-195 -47q-63 0 -137 22t-129.5 48t-121 48t-114.5 22q-122 0 -195 -140z" />
    <glyph glyph-name="uni00A0" unicode="&#xa0;" horiz-adv-x="653" 
 />
    <glyph glyph-name="exclamdown" unicode="&#xa1;" horiz-adv-x="573" 
d="M172 -209v871h227v-871h-227zM455 975q0 -77 -49 -132t-119 -55q-72 0 -122 55t-50 132q0 76 50 129t122 53q71 0 119.5 -53t48.5 -129z" />
    <glyph glyph-name="cent" unicode="&#xa2;" horiz-adv-x="1206" 
d="M1128 1257v-217h-333v-661h297v-217h-297v-268h-187v268h-65q-189 0 -271 97t-82 298v483h-118v217h536v220h187v-220h333zM395 557q0 -95 33 -136.5t119 -41.5h61v661h-213v-483z" />
    <glyph glyph-name="sterling" unicode="&#xa3;" horiz-adv-x="1161" 
d="M475 244h649v-244h-1052v244h174v295h-201v245h201v158q0 203 116 313.5t314 110.5h100v-244h-108q-114 0 -153.5 -40t-39.5 -130v-168h479v-245h-479v-295z" />
    <glyph glyph-name="currency" unicode="&#xa4;" horiz-adv-x="1245" 
d="M1141 365l-125 -132l-139 148q-113 -78 -254 -78q-143 0 -250 78l-142 -148l-127 132l146 135q-78 121 -78 254q0 136 78 254l-144 135l127 127l136 -144q117 82 254 82q132 0 256 -82l135 144l125 -127l-142 -135q82 -124 82 -254q0 -134 -82 -254zM911 754
q0 122 -83.5 205t-204.5 83q-119 0 -202 -83.5t-83 -204.5q0 -118 83 -201.5t202 -83.5q121 0 204.5 83t83.5 202z" />
    <glyph glyph-name="yen" unicode="&#xa5;" horiz-adv-x="1302" 
d="M86 582h440v73l-473 627l205 148l389 -549l391 549l205 -140l-471 -635v-73h438v-142h-438v-110h438v-140h-438v-190h-246v190h-440v140h440v110h-440v142z" />
    <glyph glyph-name="brokenbar" unicode="&#xa6;" horiz-adv-x="548" 
d="M182 -199v650h187v-650h-187zM369 1565v-625h-187v625h187z" />
    <glyph glyph-name="section" unicode="&#xa7;" horiz-adv-x="1126" 
d="M1022 487q0 -171 -133 -258q117 -80 117 -235v-72q0 -108 -32 -181t-99.5 -114.5t-158.5 -58.5t-222 -17q-195 0 -347 50v225q162 -51 351 -51q159 0 218.5 33.5t59.5 123.5v27q0 56 -31.5 89t-88 46.5t-117.5 20.5t-139.5 19.5t-133.5 33.5q-90 33 -126 106.5t-36 188.5
v49q0 182 144 272q-63 43 -96 96.5t-33 137.5v61q0 111 31 185.5t96.5 116.5t153.5 59.5t216 17.5q200 0 345 -51v-225q-162 51 -351 51q-150 0 -207 -36t-57 -124v-24q0 -73 33 -100t121 -38q82 -12 123.5 -18.5t101.5 -17.5t88 -21t67.5 -25.5t55.5 -33.5t37.5 -43
t29 -57.5t13.5 -72t6 -90.5v-45zM324 518v-39q0 -40 14 -69t35.5 -45.5t57 -26t69 -12t80.5 -2.5q128 0 174.5 39.5t46.5 128.5v36q0 90 -61 122t-189 32t-177.5 -40.5t-49.5 -123.5z" />
    <glyph glyph-name="dieresis" unicode="&#xa8;" horiz-adv-x="860" 
d="M395 1542v424h211v-424h-211zM47 1542v424h213v-424h-213z" />
    <glyph glyph-name="ordfeminine" unicode="&#xaa;" horiz-adv-x="983" 
d="M115 387l-68 100l387 846l154 -73l-299 -650q50 13 161 44.5t173 47.5l-109 238l160 72l256 -572l-150 -71l-80 168z" />
    <glyph glyph-name="guillemotleft" unicode="&#xab;" horiz-adv-x="1060" 
d="M432 -199l-418 883l418 881h186l-417 -881l417 -883h-186zM858 -199l-418 883l418 881h186l-417 -881l417 -883h-186z" />
    <glyph glyph-name="logicalnot" unicode="&#xac;" horiz-adv-x="1333" 
d="M104 799h1125v-453q0 -212 -62 -412l-237 54q55 159 55 348v217h-881v246z" />
    <glyph glyph-name="macron" unicode="&#xaf;" horiz-adv-x="1255" 
d="M66 1870h1124v-244h-1124v244z" />
    <glyph glyph-name="degree" unicode="&#xb0;" horiz-adv-x="770" 
d="M383 711q-86 0 -150.5 27t-102.5 76.5t-56.5 112t-18.5 138.5q0 160 80 257t248 97q166 0 248 -97.5t82 -256.5q0 -158 -82 -256t-248 -98zM383 846q94 0 139 61t45 158q0 99 -45 160t-139 61q-96 0 -140 -60.5t-44 -160.5q0 -97 44.5 -158t139.5 -61z" />
    <glyph glyph-name="plusminus" unicode="&#xb1;" horiz-adv-x="1333" 
d="M791 1237v-438h438v-246h-438v-80q0 -215 -62 -412l-237 52q53 154 53 350v90h-441v246h441v438h246zM104 -37h1125v-246h-1125v246z" />
    <glyph glyph-name="twosuperior" unicode="&#xb2;" horiz-adv-x="952" 
d="M834 1233v-305h-521v-82q0 -60 21.5 -87.5t75.5 -27.5h399v-180h-401q-141 0 -203 72.5t-62 222.5v82h-82v180h607v125h-557v180h761v-180h-38z" />
    <glyph glyph-name="threesuperior" unicode="&#xb3;" horiz-adv-x="915" 
d="M815 1444v-893h-170v61h-573v181h573v141h-551v178h551v152h-573v180h743z" />
    <glyph glyph-name="acute" unicode="&#xb4;" horiz-adv-x="509" 
d="M264 1966l199 -127q-56 -65 -117 -179.5t-88 -203.5l-211 113q27 90 95.5 216t121.5 181z" />
    <glyph glyph-name="paragraph" unicode="&#xb6;" horiz-adv-x="1185" 
d="M1030 -291h-227v1471h-195v-1471h-231v1018h-31q-154 0 -229.5 86t-75.5 240q0 152 81 232.5t243 80.5h786v-186h-121v-1471z" />
    <glyph glyph-name="periodcentered" unicode="&#xb7;" horiz-adv-x="495" 
d="M78 670q0 77 49 130.5t119 53.5q72 0 122 -53.5t50 -130.5t-50 -131t-122 -54q-70 0 -119 54t-49 131z" />
    <glyph glyph-name="cedilla" unicode="&#xb8;" horiz-adv-x="542" 
d="M41 -244l100 203q74 -30 194 -98.5t187 -120.5l-116 -191q-67 56 -176.5 118.5t-188.5 88.5z" />
    <glyph glyph-name="onesuperior" unicode="&#xb9;" horiz-adv-x="514" 
d="M250 1444h170v-893h-170v432q-51 -72 -92 -117l-133 121q46 34 118.5 147.5t106.5 219.5v90z" />
    <glyph glyph-name="ordmasculine" unicode="&#xba;" horiz-adv-x="917" 
d="M815 1290v-893h-170v62h-385v-62h-170v893h725zM260 639h385v471h-385v-471z" />
    <glyph glyph-name="guillemotright" unicode="&#xbb;" horiz-adv-x="1060" 
d="M618 684l-417 -883h-187l418 883l-418 881h187zM1044 684l-417 -883h-187l418 883l-418 881h187z" />
    <glyph glyph-name="onequarter" unicode="&#xbc;" horiz-adv-x="1705" 
d="M852 295v180h119v424h168v-424h286q0 2 1 10.5t2.5 37.5t3.5 75l170 -6q-10 -374 -160 -641l-148 80q70 122 105 264h-547zM330 1444h170v-893h-170v432q-51 -72 -92 -117l-134 121q46 34 119 147.5t107 219.5v90zM995 1395l150 -68q-127 -335 -392 -752.5t-491 -615.5
l-106 129q146 125 316.5 362t308 488.5t214.5 456.5z" />
    <glyph glyph-name="onehalf" unicode="&#xbd;" horiz-adv-x="1841" 
d="M1698 662v-306h-520v-82q0 -61 21 -87.5t75 -26.5h399v-180h-401q-141 0 -202.5 72t-61.5 222v82h-82v181h606v125h-557v180h762v-180h-39zM330 1444h170v-893h-170v432q-51 -72 -92 -117l-134 121q46 34 119 147.5t107 219.5v90zM1028 1395l150 -68
q-127 -335 -392 -752.5t-491 -615.5l-107 129q146 125 317 362t308.5 488.5t214.5 456.5z" />
    <glyph glyph-name="threequarters" unicode="&#xbe;" horiz-adv-x="2064" 
d="M848 1444v-893h-170v61h-574v181h574v141h-551v178h551v152h-574v180h744zM1341 1395l150 -68q-127 -335 -392 -752.5t-491 -615.5l-106 129q146 125 316.5 362t308 488.5t214.5 456.5zM1210 295v180h119v424h168v-424h287q0 2 0.5 10.5t2 38t3.5 74.5l170 -6
q-10 -374 -160 -641l-147 80q68 119 104 264h-547z" />
    <glyph glyph-name="questiondown" unicode="&#xbf;" horiz-adv-x="1011" 
d="M807 86l143 -190q-157 -160 -426 -160q-219 0 -338.5 93t-119.5 271q0 138 48.5 213t135.5 119q99 51 129.5 82t30.5 82v66h227v-111q0 -115 -47 -176q-18 -23 -57 -46t-78.5 -42t-77 -42.5t-61 -58t-23.5 -77.5q0 -69 57 -98t180 -29q111 0 171.5 27t105.5 77zM694 975
q0 -77 -50 -132t-120 -55q-72 0 -122 55t-50 132q0 76 50 129t122 53q71 0 120.5 -53t49.5 -129z" />
    <glyph glyph-name="Agrave" unicode="&#xc0;" horiz-adv-x="1415" 
d="M127 -12l-88 137l594 1305l209 -99l-482 -1044l590 159l-170 383l213 97l393 -869l-210 -96l-123 262zM498 1839l198 127q53 -55 121.5 -181t95.5 -216l-211 -113q-27 89 -87.5 203.5t-116.5 179.5z" />
    <glyph glyph-name="Aacute" unicode="&#xc1;" horiz-adv-x="1415" 
d="M127 -12l-88 137l594 1305l209 -99l-482 -1044l590 159l-170 383l213 97l393 -869l-210 -96l-123 262zM799 1966l198 -127q-56 -65 -116.5 -179.5t-87.5 -203.5l-211 113q27 90 95.5 216t121.5 181z" />
    <glyph glyph-name="Acircumflex" unicode="&#xc2;" horiz-adv-x="1415" 
d="M127 -12l-88 137l594 1305l209 -99l-482 -1044l590 159l-170 383l213 97l393 -869l-210 -96l-123 262zM172 1808h440v158h244v-158h440v-245h-1124v245z" />
    <glyph glyph-name="Atilde" unicode="&#xc3;" horiz-adv-x="1415" 
d="M127 -12l-88 137l594 1305l209 -99l-482 -1044l590 159l-170 383l213 97l393 -869l-210 -96l-123 262zM260 1575l-127 207q44 86 118 127t148 41q57 0 128 -21t127.5 -46.5t126.5 -46.5t126 -21q75 0 142.5 37t107.5 114l127 -207q-44 -90 -134 -137t-194 -47
q-63 0 -137 22t-130 48.5t-121 48.5t-113 22q-125 0 -195 -141z" />
    <glyph glyph-name="Adieresis" unicode="&#xc4;" horiz-adv-x="1501" 
d="M127 -12l-88 137l594 1305l209 -99l-482 -1044l590 159l-170 383l213 97l393 -869l-210 -96l-123 262zM1251 1124v424h211v-424h-211zM903 1124v424h213v-424h-213z" />
    <glyph glyph-name="Aring" unicode="&#xc5;" horiz-adv-x="1415" 
d="M127 -12l-88 137l594 1305l209 -99l-482 -1044l590 159l-170 383l213 97l393 -869l-210 -96l-123 262zM868 1276q0 113 73.5 192.5t178.5 79.5q104 0 178 -79.5t74 -192.5q0 -114 -73.5 -193t-178.5 -79q-106 0 -179 79t-73 193zM1026 1276q0 -40 27 -67t67 -27
q39 0 68 27.5t29 66.5q0 38 -29 66t-68 28t-66.5 -27.5t-27.5 -66.5z" />
    <glyph glyph-name="AE" unicode="&#xc6;" horiz-adv-x="2054" 
d="M127 -12l-88 137l594 1305l209 -99l-482 -1044l695 192v156h-197v246h197v241h-154v244h854v-244h-471v-241h719v-246h-719v-191q0 -106 37 -153t133 -47h475l-57 -244h-422q-156 0 -245.5 58.5t-123.5 177.5z" />
    <glyph glyph-name="Ccedilla" unicode="&#xc7;" horiz-adv-x="1206" 
d="M1110 1366v-244h-799v-678q0 -106 37 -153t135 -47h602v-244h-606q-213 0 -304 109t-91 335v922h1026zM496 -244l100 203q74 -30 194 -98.5t187 -120.5l-117 -191q-67 57 -176.5 119t-187.5 88z" />
    <glyph glyph-name="Egrave" unicode="&#xc8;" horiz-adv-x="1374" 
d="M96 1122v244h981v-244h-598v-241h844v-246h-844v-191q0 -106 37 -153t133 -47h600l-55 -244h-549q-213 0 -304 109t-91 335v191h-195v246h195v241h-154zM276 1839l199 127q53 -55 121.5 -181t95.5 -216l-211 -113q-27 89 -88 203.5t-117 179.5z" />
    <glyph glyph-name="Eacute" unicode="&#xc9;" horiz-adv-x="1374" 
d="M96 1122v244h981v-244h-598v-241h844v-246h-844v-191q0 -106 37 -153t133 -47h600l-55 -244h-549q-213 0 -304 109t-91 335v191h-195v246h195v241h-154zM551 1966l199 -127q-56 -65 -117 -179.5t-88 -203.5l-211 113q27 90 95.5 216t121.5 181z" />
    <glyph glyph-name="Ecircumflex" unicode="&#xca;" horiz-adv-x="1374" 
d="M96 1122v244h981v-244h-598v-241h844v-246h-844v-191q0 -106 37 -153t133 -47h600l-55 -244h-549q-213 0 -304 109t-91 335v191h-195v246h195v241h-154zM74 1808h440v158h244v-158h440v-245h-1124v245z" />
    <glyph glyph-name="Edieresis" unicode="&#xcb;" horiz-adv-x="1349" 
d="M96 1122v244h584v-244h-201v-241h719v-246h-719v-191q0 -106 37 -153t133 -47h475l-57 -244h-422q-213 0 -304 109t-91 335v191h-195v246h195v241h-154zM1110 1124v424h211v-424h-211zM762 1124v424h213v-424h-213z" />
    <glyph glyph-name="Igrave" unicode="&#xcc;" horiz-adv-x="1323" 
d="M197 1122v244h940v-244h-357v-878h482v-244h-1190v244h479v878h-354zM389 1839l199 127q53 -55 121.5 -181t95.5 -216l-211 -113q-27 89 -88 203.5t-117 179.5z" />
    <glyph glyph-name="Iacute" unicode="&#xcd;" horiz-adv-x="1323" 
d="M197 1122v244h940v-244h-357v-878h482v-244h-1190v244h479v878h-354zM711 1966l198 -127q-56 -65 -116.5 -179.5t-87.5 -203.5l-211 113q27 90 95.5 216t121.5 181z" />
    <glyph glyph-name="Icircumflex" unicode="&#xce;" horiz-adv-x="1323" 
d="M197 1122v244h940v-244h-357v-878h482v-244h-1190v244h479v878h-354zM102 1808h441v158h243v-158h441v-245h-1125v245z" />
    <glyph glyph-name="Idieresis" unicode="&#xcf;" horiz-adv-x="1517" 
d="M197 1122v244h645v-244h-62v-878h482v-244h-1190v244h479v878h-354zM1272 1124v424h211v-424h-211zM926 1124v424h211v-424h-211z" />
    <glyph glyph-name="Eth" unicode="&#xd0;" horiz-adv-x="1368" 
d="M0 883h176v483h1106v-446q0 -167 -53 -311t-145 -249t-217 -183t-268 -121.5t-298 -55.5l-72 242q122 0 240.5 28t224 84.5t185.5 134.5t127 185.5t47 230.5v217h-650v-239h437v-246h-840v246z" />
    <glyph glyph-name="Ntilde" unicode="&#xd1;" horiz-adv-x="1329" 
d="M332 1077v-1077h-228v1321h439v180h229v-180h488v-244h-50v-633q0 -226 -91 -335t-304 -109h-31l-57 244h84q97 0 134.5 47.5t37.5 152.5v633h-651zM174 1575l-127 207q44 86 118 127t148 41q57 0 128 -21t127.5 -46.5t126.5 -46.5t126 -21q75 0 142.5 37t107.5 114
l127 -207q-44 -90 -134 -137t-194 -47q-63 0 -137 22t-130 48.5t-121 48.5t-113 22q-125 0 -195 -141z" />
    <glyph glyph-name="Ograve" unicode="&#xd2;" 
d="M1210 1366v-1366h-227v98h-651v-98h-228v1366h1106zM332 342h651v780h-651v-780zM385 1839l199 127q53 -55 121.5 -181t95.5 -216l-211 -113q-27 89 -88 203.5t-117 179.5z" />
    <glyph glyph-name="Oacute" unicode="&#xd3;" 
d="M1210 1366v-1366h-227v98h-651v-98h-228v1366h1106zM332 342h651v780h-651v-780zM750 1966l198 -127q-56 -65 -117 -179.5t-88 -203.5l-211 113q27 89 96 215.5t122 181.5z" />
    <glyph glyph-name="Ocircumflex" unicode="&#xd4;" 
d="M1210 1366v-1366h-227v98h-651v-98h-228v1366h1106zM332 342h651v780h-651v-780zM102 1808h441v158h243v-158h441v-245h-1125v245z" />
    <glyph glyph-name="Otilde" unicode="&#xd5;" 
d="M1210 1366v-1366h-227v98h-651v-98h-228v1366h1106zM332 342h651v780h-651v-780zM209 1575l-127 207q44 86 118 127t148 41q57 0 128 -21t127.5 -46.5t126.5 -46.5t126 -21q75 0 142.5 37t107.5 114l127 -207q-44 -90 -134 -137t-194 -47q-63 0 -137 22t-130 48.5
t-121.5 48.5t-113.5 22q-123 0 -194 -141z" />
    <glyph glyph-name="Odieresis" unicode="&#xd6;" horiz-adv-x="1656" 
d="M1026 1040h123v-1040h-227v98h-590v-98h-228v1366h922v-326zM332 342h590v780h-590v-780zM1436 1124v424h211v-424h-211zM1090 1124v424h210v-424h-210z" />
    <glyph glyph-name="multiply" unicode="&#xd7;" horiz-adv-x="1183" 
d="M104 991l138 199q162 -105 376 -303q78 86 211 270l189 -137q-111 -157 -230 -297q190 -193 291 -334l-178 -158q-111 148 -276 318q-172 -169 -336 -279l-127 201q156 108 293 242q-185 172 -351 278z" />
    <glyph glyph-name="Oslash" unicode="&#xd8;" 
d="M750 1507l231 -26q-19 -151 -49 -324h278v-948h-227v98h-301q-98 -226 -219 -436l-197 131q100 178 158 305h-92v-98h-228v948h594q33 188 52 350zM332 551h194q66 166 115 362h-309v-362zM983 913h-102q-62 -232 -107 -362h209v362z" />
    <glyph glyph-name="Ugrave" unicode="&#xd9;" 
d="M332 342h651v1024h227v-1366h-227v98h-651v-98h-228v1366h228v-1024zM385 1839l199 127q53 -55 121.5 -181t95.5 -216l-211 -113q-27 89 -88 203.5t-117 179.5z" />
    <glyph glyph-name="Uacute" unicode="&#xda;" 
d="M332 342h651v1024h227v-1366h-227v98h-651v-98h-228v1366h228v-1024zM729 1966l199 -127q-56 -65 -117 -179.5t-88 -203.5l-211 113q27 90 95.5 216t121.5 181z" />
    <glyph glyph-name="Ucircumflex" unicode="&#xdb;" 
d="M332 342h651v1024h227v-1366h-227v98h-651v-98h-228v1366h228v-1024zM104 1808h441v158h243v-158h441v-245h-1125v245z" />
    <glyph glyph-name="Udieresis" unicode="&#xdc;" horiz-adv-x="1669" 
d="M1149 1040v-1040h-227v98h-590v-98h-228v1366h228v-1024h590v1024h104v-326h123zM1090 1124v424h210v-424h-210zM1436 1124v424h211v-424h-211z" />
    <glyph glyph-name="Yacute" unicode="&#xdd;" horiz-adv-x="1304" 
d="M246 -39l-123 217q209 108 400 305.5t328.5 436t209.5 485.5l213 -70q-60 -257 -217 -529.5t-372 -497.5t-439 -347zM43 1249l162 181q96 -82 226.5 -246t217.5 -305l-192 -136q-77 129 -199 280.5t-215 225.5zM723 1966l199 -127q-56 -65 -117 -179.5t-88 -203.5
l-211 113q27 90 95.5 216t121.5 181z" />
    <glyph glyph-name="Thorn" unicode="&#xde;" horiz-adv-x="1292" 
d="M332 1366v-209h878v-948h-227v98h-651v-307h-228v1366h228zM983 913h-651v-362h651v362z" />
    <glyph glyph-name="germandbls" unicode="&#xdf;" horiz-adv-x="2754" 
d="M1317 639h-70v-195q0 -226 -91 -335t-304 -109h-721v244h717q98 0 135 47t37 153v195h-528q-138 0 -211.5 78.5t-73.5 226.5v178h-137v244h1185v-244h-821v-178q0 -32 12.5 -45.5t45.5 -13.5h825v-246zM2693 639h-70v-195q0 -226 -91 -335t-304 -109h-721v244h717
q98 0 135 47t37 153v195h-528q-138 0 -211.5 78.5t-73.5 226.5v178h-137v244h1186v-244h-822v-178q0 -32 12.5 -45.5t45.5 -13.5h825v-246z" />
    <glyph glyph-name="agrave" unicode="&#xe0;" horiz-adv-x="1415" 
d="M127 -12l-88 137l594 1305l209 -99l-482 -1044l590 159l-170 383l213 97l393 -869l-210 -96l-123 262zM498 1839l198 127q53 -55 121.5 -181t95.5 -216l-211 -113q-27 89 -87.5 203.5t-116.5 179.5z" />
    <glyph glyph-name="aacute" unicode="&#xe1;" horiz-adv-x="1415" 
d="M127 -12l-88 137l594 1305l209 -99l-482 -1044l590 159l-170 383l213 97l393 -869l-210 -96l-123 262zM799 1966l198 -127q-56 -65 -116.5 -179.5t-87.5 -203.5l-211 113q27 90 95.5 216t121.5 181z" />
    <glyph glyph-name="acircumflex" unicode="&#xe2;" horiz-adv-x="1415" 
d="M127 -12l-88 137l594 1305l209 -99l-482 -1044l590 159l-170 383l213 97l393 -869l-210 -96l-123 262zM172 1808h440v158h244v-158h440v-245h-1124v245z" />
    <glyph glyph-name="atilde" unicode="&#xe3;" horiz-adv-x="1415" 
d="M127 -12l-88 137l594 1305l209 -99l-482 -1044l590 159l-170 383l213 97l393 -869l-210 -96l-123 262zM260 1575l-127 207q44 86 118 127t148 41q57 0 128 -21t127.5 -46.5t126.5 -46.5t126 -21q75 0 142.5 37t107.5 114l127 -207q-44 -90 -134 -137t-194 -47
q-63 0 -137 22t-130 48.5t-121 48.5t-113 22q-125 0 -195 -141z" />
    <glyph glyph-name="adieresis" unicode="&#xe4;" horiz-adv-x="1501" 
d="M127 -12l-88 137l594 1305l209 -99l-482 -1044l590 159l-170 383l213 97l393 -869l-210 -96l-123 262zM1251 1124v424h211v-424h-211zM903 1124v424h213v-424h-213z" />
    <glyph glyph-name="aring" unicode="&#xe5;" horiz-adv-x="1415" 
d="M127 -12l-88 137l594 1305l209 -99l-482 -1044l590 159l-170 383l213 97l393 -869l-210 -96l-123 262zM868 1276q0 113 73.5 192.5t178.5 79.5q104 0 178 -79.5t74 -192.5q0 -114 -73.5 -193t-178.5 -79q-106 0 -179 79t-73 193zM1026 1276q0 -40 27 -67t67 -27
q39 0 68 27.5t29 66.5q0 38 -29 66t-68 28t-66.5 -27.5t-27.5 -66.5z" />
    <glyph glyph-name="ae" unicode="&#xe6;" horiz-adv-x="2054" 
d="M127 -12l-88 137l594 1305l209 -99l-482 -1044l695 192v156h-197v246h197v241h-154v244h854v-244h-471v-241h719v-246h-719v-191q0 -106 37 -153t133 -47h475l-57 -244h-422q-156 0 -245.5 58.5t-123.5 177.5z" />
    <glyph glyph-name="ccedilla" unicode="&#xe7;" horiz-adv-x="1206" 
d="M1110 1366v-244h-799v-678q0 -106 37 -153t135 -47h602v-244h-606q-213 0 -304 109t-91 335v922h1026zM496 -244l100 203q74 -30 194 -98.5t187 -120.5l-117 -191q-67 57 -176.5 119t-187.5 88z" />
    <glyph glyph-name="egrave" unicode="&#xe8;" horiz-adv-x="1374" 
d="M96 1122v244h981v-244h-598v-241h844v-246h-844v-191q0 -106 37 -153t133 -47h600l-55 -244h-549q-213 0 -304 109t-91 335v191h-195v246h195v241h-154zM276 1839l199 127q53 -55 121.5 -181t95.5 -216l-211 -113q-27 89 -88 203.5t-117 179.5z" />
    <glyph glyph-name="eacute" unicode="&#xe9;" horiz-adv-x="1374" 
d="M96 1122v244h981v-244h-598v-241h844v-246h-844v-191q0 -106 37 -153t133 -47h600l-55 -244h-549q-213 0 -304 109t-91 335v191h-195v246h195v241h-154zM551 1966l199 -127q-56 -65 -117 -179.5t-88 -203.5l-211 113q27 90 95.5 216t121.5 181z" />
    <glyph glyph-name="ecircumflex" unicode="&#xea;" horiz-adv-x="1374" 
d="M96 1122v244h981v-244h-598v-241h844v-246h-844v-191q0 -106 37 -153t133 -47h600l-55 -244h-549q-213 0 -304 109t-91 335v191h-195v246h195v241h-154zM74 1808h440v158h244v-158h440v-245h-1124v245z" />
    <glyph glyph-name="edieresis" unicode="&#xeb;" horiz-adv-x="1349" 
d="M96 1122v244h584v-244h-201v-241h719v-246h-719v-191q0 -106 37 -153t133 -47h475l-57 -244h-422q-213 0 -304 109t-91 335v191h-195v246h195v241h-154zM1110 1124v424h211v-424h-211zM762 1124v424h213v-424h-213z" />
    <glyph glyph-name="igrave" unicode="&#xec;" horiz-adv-x="1323" 
d="M197 1122v244h940v-244h-357v-878h482v-244h-1190v244h479v878h-354zM389 1839l199 127q53 -55 121.5 -181t95.5 -216l-211 -113q-27 89 -88 203.5t-117 179.5z" />
    <glyph glyph-name="iacute" unicode="&#xed;" horiz-adv-x="1323" 
d="M197 1122v244h940v-244h-357v-878h482v-244h-1190v244h479v878h-354zM711 1966l198 -127q-56 -65 -116.5 -179.5t-87.5 -203.5l-211 113q27 90 95.5 216t121.5 181z" />
    <glyph glyph-name="icircumflex" unicode="&#xee;" horiz-adv-x="1323" 
d="M197 1122v244h940v-244h-357v-878h482v-244h-1190v244h479v878h-354zM102 1808h441v158h243v-158h441v-245h-1125v245z" />
    <glyph glyph-name="idieresis" unicode="&#xef;" horiz-adv-x="1517" 
d="M197 1122v244h645v-244h-62v-878h482v-244h-1190v244h479v878h-354zM1272 1124v424h211v-424h-211zM926 1124v424h211v-424h-211z" />
    <glyph glyph-name="eth" unicode="&#xf0;" horiz-adv-x="1368" 
d="M0 883h176v483h1106v-446q0 -167 -53 -311t-145 -249t-217 -183t-268 -121.5t-298 -55.5l-72 242q122 0 240.5 28t224 84.5t185.5 134.5t127 185.5t47 230.5v217h-650v-239h437v-246h-840v246z" />
    <glyph glyph-name="ntilde" unicode="&#xf1;" horiz-adv-x="1329" 
d="M332 1077v-1077h-228v1321h439v180h229v-180h488v-244h-50v-633q0 -226 -91 -335t-304 -109h-31l-57 244h84q97 0 134.5 47.5t37.5 152.5v633h-651zM174 1575l-127 207q44 86 118 127t148 41q57 0 128 -21t127.5 -46.5t126.5 -46.5t126 -21q75 0 142.5 37t107.5 114
l127 -207q-44 -90 -134 -137t-194 -47q-63 0 -137 22t-130 48.5t-121 48.5t-113 22q-125 0 -195 -141z" />
    <glyph glyph-name="ograve" unicode="&#xf2;" 
d="M1210 1366v-1366h-227v98h-651v-98h-228v1366h1106zM332 342h651v780h-651v-780zM385 1839l199 127q53 -55 121.5 -181t95.5 -216l-211 -113q-27 89 -88 203.5t-117 179.5z" />
    <glyph glyph-name="oacute" unicode="&#xf3;" 
d="M1210 1366v-1366h-227v98h-651v-98h-228v1366h1106zM332 342h651v780h-651v-780zM750 1966l198 -127q-56 -65 -117 -179.5t-88 -203.5l-211 113q27 89 96 215.5t122 181.5z" />
    <glyph glyph-name="ocircumflex" unicode="&#xf4;" 
d="M1210 1366v-1366h-227v98h-651v-98h-228v1366h1106zM332 342h651v780h-651v-780zM102 1808h441v158h243v-158h441v-245h-1125v245z" />
    <glyph glyph-name="otilde" unicode="&#xf5;" 
d="M1210 1366v-1366h-227v98h-651v-98h-228v1366h1106zM332 342h651v780h-651v-780zM209 1575l-127 207q44 86 118 127t148 41q57 0 128 -21t127.5 -46.5t126.5 -46.5t126 -21q75 0 142.5 37t107.5 114l127 -207q-44 -90 -134 -137t-194 -47q-63 0 -137 22t-130 48.5
t-121.5 48.5t-113.5 22q-123 0 -194 -141z" />
    <glyph glyph-name="odieresis" unicode="&#xf6;" horiz-adv-x="1656" 
d="M1026 1040h123v-1040h-227v98h-590v-98h-228v1366h922v-326zM332 342h590v780h-590v-780zM1436 1124v424h211v-424h-211zM1090 1124v424h210v-424h-210z" />
    <glyph glyph-name="divide" unicode="&#xf7;" horiz-adv-x="1333" 
d="M104 799h1125v-246h-1125v246zM496 219q0 77 49.5 132t118.5 55q72 0 122 -55t50 -132t-50 -130.5t-122 -53.5q-69 0 -118.5 54t-49.5 130zM496 1135q0 76 49.5 131t118.5 55q72 0 122 -54.5t50 -131.5t-50 -131t-122 -54q-69 0 -118.5 54.5t-49.5 130.5z" />
    <glyph glyph-name="oslash" unicode="&#xf8;" 
d="M750 1507l231 -26q-19 -151 -49 -324h278v-948h-227v98h-301q-98 -226 -219 -436l-197 131q100 178 158 305h-92v-98h-228v948h594q33 188 52 350zM332 551h194q66 166 115 362h-309v-362zM983 913h-102q-62 -232 -107 -362h209v362z" />
    <glyph glyph-name="ugrave" unicode="&#xf9;" 
d="M332 342h651v1024h227v-1366h-227v98h-651v-98h-228v1366h228v-1024zM385 1839l199 127q53 -55 121.5 -181t95.5 -216l-211 -113q-27 89 -88 203.5t-117 179.5z" />
    <glyph glyph-name="uacute" unicode="&#xfa;" 
d="M332 342h651v1024h227v-1366h-227v98h-651v-98h-228v1366h228v-1024zM729 1966l199 -127q-56 -65 -117 -179.5t-88 -203.5l-211 113q27 90 95.5 216t121.5 181z" />
    <glyph glyph-name="ucircumflex" unicode="&#xfb;" 
d="M332 342h651v1024h227v-1366h-227v98h-651v-98h-228v1366h228v-1024zM104 1808h441v158h243v-158h441v-245h-1125v245z" />
    <glyph glyph-name="udieresis" unicode="&#xfc;" horiz-adv-x="1669" 
d="M1149 1040v-1040h-227v98h-590v-98h-228v1366h228v-1024h590v1024h104v-326h123zM1090 1124v424h210v-424h-210zM1436 1124v424h211v-424h-211z" />
    <glyph glyph-name="yacute" unicode="&#xfd;" horiz-adv-x="1304" 
d="M246 -39l-123 217q209 108 400 305.5t328.5 436t209.5 485.5l213 -70q-60 -257 -217 -529.5t-372 -497.5t-439 -347zM43 1249l162 181q96 -82 226.5 -246t217.5 -305l-192 -136q-77 129 -199 280.5t-215 225.5zM723 1966l199 -127q-56 -65 -117 -179.5t-88 -203.5
l-211 113q27 90 95.5 216t121.5 181z" />
    <glyph glyph-name="thorn" unicode="&#xfe;" horiz-adv-x="1292" 
d="M332 1366v-209h878v-948h-227v98h-651v-307h-228v1366h228zM983 913h-651v-362h651v362z" />
    <glyph glyph-name="ydieresis" unicode="&#xff;" horiz-adv-x="1472" 
d="M1241 1124v424h211v-424h-211zM895 1124v424h211v-424h-211zM246 -39l-123 217q238 123 448.5 357t352.5 520h260q-94 -220 -242 -432.5t-330 -386.5t-366 -275zM43 1249l162 181q96 -82 226.5 -246t217.5 -305l-192 -136q-77 129 -199 280.5t-215 225.5z" />
    <glyph glyph-name="Amacron" unicode="&#x100;" horiz-adv-x="1415" 
d="M127 -12l-88 137l594 1305l209 -99l-482 -1044l590 159l-170 383l213 97l393 -869l-210 -96l-123 262zM145 1870h1125v-244h-1125v244z" />
    <glyph glyph-name="amacron" unicode="&#x101;" horiz-adv-x="1415" 
d="M127 -12l-88 137l594 1305l209 -99l-482 -1044l590 159l-170 383l213 97l393 -869l-210 -96l-123 262zM145 1870h1125v-244h-1125v244z" />
    <glyph glyph-name="Abreve" unicode="&#x102;" horiz-adv-x="1415" 
d="M127 -12l-88 137l594 1305l209 -99l-482 -1044l590 159l-170 383l213 97l393 -869l-210 -96l-123 262zM381 1782h651v184h228v-407h-1106v407h227v-184z" />
    <glyph glyph-name="abreve" unicode="&#x103;" horiz-adv-x="1415" 
d="M127 -12l-88 137l594 1305l209 -99l-482 -1044l590 159l-170 383l213 97l393 -869l-210 -96l-123 262zM381 1782h651v184h228v-407h-1106v407h227v-184z" />
    <glyph glyph-name="Aogonek" unicode="&#x104;" horiz-adv-x="1415" 
d="M127 -12l-88 137l594 1305l209 -99l-482 -1044l590 159l-170 383l213 97l393 -869l-210 -96l-123 262zM1243 -451q-106 0 -181.5 24t-119 69.5t-65 102t-27.5 132.5l225 53q10 -59 23.5 -85.5t47 -39t101.5 -12.5h137v-244h-141z" />
    <glyph glyph-name="aogonek" unicode="&#x105;" horiz-adv-x="1415" 
d="M127 -12l-88 137l594 1305l209 -99l-482 -1044l590 159l-170 383l213 97l393 -869l-210 -96l-123 262zM1243 -451q-106 0 -181.5 24t-119 69.5t-65 102t-27.5 132.5l225 53q10 -59 23.5 -85.5t47 -39t101.5 -12.5h137v-244h-141z" />
    <glyph glyph-name="Cacute" unicode="&#x106;" horiz-adv-x="1206" 
d="M1110 1366v-244h-799v-678q0 -106 37 -153t135 -47h602v-244h-606q-213 0 -304 109t-91 335v922h1026zM664 1966l198 -127q-56 -65 -117 -179.5t-88 -203.5l-211 113q27 89 96 215.5t122 181.5z" />
    <glyph glyph-name="cacute" unicode="&#x107;" horiz-adv-x="1206" 
d="M1110 1366v-244h-799v-678q0 -106 37 -153t135 -47h602v-244h-606q-213 0 -304 109t-91 335v922h1026zM664 1966l198 -127q-56 -65 -117 -179.5t-88 -203.5l-211 113q27 89 96 215.5t122 181.5z" />
    <glyph glyph-name="Cdotaccent" unicode="&#x10a;" horiz-adv-x="1206" 
d="M1110 1366v-244h-799v-678q0 -106 37 -153t135 -47h602v-244h-606q-213 0 -304 109t-91 335v922h1026zM461 1735q0 77 50 131.5t120 54.5q72 0 122 -54.5t50 -131.5t-50 -131t-122 -54q-70 0 -120 54t-50 131z" />
    <glyph glyph-name="cdotaccent" unicode="&#x10b;" horiz-adv-x="1206" 
d="M1110 1366v-244h-799v-678q0 -106 37 -153t135 -47h602v-244h-606q-213 0 -304 109t-91 335v922h1026zM461 1735q0 77 50 131.5t120 54.5q72 0 122 -54.5t50 -131.5t-50 -131t-122 -54q-70 0 -120 54t-50 131z" />
    <glyph glyph-name="Ccaron" unicode="&#x10c;" horiz-adv-x="1206" 
d="M1110 1366v-244h-799v-678q0 -106 37 -153t135 -47h602v-244h-606q-213 0 -304 109t-91 335v922h1026zM242 1823l174 143q113 -183 217 -268q144 207 227 268l172 -160q-72 -48 -155.5 -136t-135.5 -167h-194q-74 46 -170.5 148t-134.5 172z" />
    <glyph glyph-name="ccaron" unicode="&#x10d;" horiz-adv-x="1206" 
d="M1110 1366v-244h-799v-678q0 -106 37 -153t135 -47h602v-244h-606q-213 0 -304 109t-91 335v922h1026zM242 1823l174 143q113 -183 217 -268q144 207 227 268l172 -160q-72 -48 -155.5 -136t-135.5 -167h-194q-74 46 -170.5 148t-134.5 172z" />
    <glyph glyph-name="Dcaron" unicode="&#x10e;" horiz-adv-x="1288" 
d="M971 905v217h-649v-504h-228v748h1106v-446q0 -167 -53 -311t-145 -249t-217 -183t-268 -121.5t-298 -55.5l-72 242q122 0 240.5 28t224 84.5t185.5 134.5t127 185.5t47 230.5zM250 1823l174 143q113 -183 217 -268q144 207 227 268l172 -160q-72 -47 -155 -135.5
t-135 -167.5h-195q-74 46 -170.5 148t-134.5 172z" />
    <glyph glyph-name="dcaron" unicode="&#x10f;" horiz-adv-x="1288" 
d="M971 905v217h-649v-504h-228v748h1106v-446q0 -167 -53 -311t-145 -249t-217 -183t-268 -121.5t-298 -55.5l-72 242q122 0 240.5 28t224 84.5t185.5 134.5t127 185.5t47 230.5zM250 1823l174 143q113 -183 217 -268q144 207 227 268l172 -160q-72 -47 -155 -135.5
t-135 -167.5h-195q-74 46 -170.5 148t-134.5 172z" />
    <glyph glyph-name="Dcroat" unicode="&#x110;" horiz-adv-x="1368" 
d="M0 883h176v483h1106v-446q0 -167 -53 -311t-145 -249t-217 -183t-268 -121.5t-298 -55.5l-72 242q122 0 240.5 28t224 84.5t185.5 134.5t127 185.5t47 230.5v217h-650v-239h437v-246h-840v246z" />
    <glyph glyph-name="dcroat" unicode="&#x111;" horiz-adv-x="1368" 
d="M0 883h176v483h1106v-446q0 -167 -53 -311t-145 -249t-217 -183t-268 -121.5t-298 -55.5l-72 242q122 0 240.5 28t224 84.5t185.5 134.5t127 185.5t47 230.5v217h-650v-239h437v-246h-840v246z" />
    <glyph glyph-name="Emacron" unicode="&#x112;" horiz-adv-x="1374" 
d="M96 1122v244h981v-244h-598v-241h844v-246h-844v-191q0 -106 37 -153t133 -47h600l-55 -244h-549q-213 0 -304 109t-91 335v191h-195v246h195v241h-154zM63 1870h1125v-244h-1125v244z" />
    <glyph glyph-name="emacron" unicode="&#x113;" horiz-adv-x="1374" 
d="M96 1122v244h981v-244h-598v-241h844v-246h-844v-191q0 -106 37 -153t133 -47h600l-55 -244h-549q-213 0 -304 109t-91 335v191h-195v246h195v241h-154zM63 1870h1125v-244h-1125v244z" />
    <glyph glyph-name="Ebreve" unicode="&#x114;" horiz-adv-x="1374" 
d="M96 1122v244h981v-244h-598v-241h844v-246h-844v-191q0 -106 37 -153t133 -47h600l-55 -244h-549q-213 0 -304 109t-91 335v191h-195v246h195v241h-154zM301 1782h651v184h228v-407h-1106v407h227v-184z" />
    <glyph glyph-name="ebreve" unicode="&#x115;" horiz-adv-x="1374" 
d="M96 1122v244h981v-244h-598v-241h844v-246h-844v-191q0 -106 37 -153t133 -47h600l-55 -244h-549q-213 0 -304 109t-91 335v191h-195v246h195v241h-154zM301 1782h651v184h228v-407h-1106v407h227v-184z" />
    <glyph glyph-name="Edotaccent" unicode="&#x116;" horiz-adv-x="1374" 
d="M96 1122v244h981v-244h-598v-241h844v-246h-844v-191q0 -106 37 -153t133 -47h600l-55 -244h-549q-213 0 -304 109t-91 335v191h-195v246h195v241h-154zM473 1735q0 77 50 131.5t120 54.5q72 0 122 -54.5t50 -131.5t-50 -131t-122 -54q-70 0 -120 54t-50 131z" />
    <glyph glyph-name="edotaccent" unicode="&#x117;" horiz-adv-x="1374" 
d="M96 1122v244h981v-244h-598v-241h844v-246h-844v-191q0 -106 37 -153t133 -47h600l-55 -244h-549q-213 0 -304 109t-91 335v191h-195v246h195v241h-154zM473 1735q0 77 50 131.5t120 54.5q72 0 122 -54.5t50 -131.5t-50 -131t-122 -54q-70 0 -120 54t-50 131z" />
    <glyph glyph-name="Eogonek" unicode="&#x118;" horiz-adv-x="1374" 
d="M96 1122v244h981v-244h-598v-241h844v-246h-844v-191q0 -106 37 -153t133 -47h600l-55 -244h-549q-213 0 -304 109t-91 335v191h-195v246h195v241h-154zM1057 -451q-106 0 -181.5 24t-119 69.5t-65 102t-27.5 132.5l225 53q10 -59 23.5 -85.5t47 -39t101.5 -12.5h137
v-244h-141z" />
    <glyph glyph-name="eogonek" unicode="&#x119;" horiz-adv-x="1374" 
d="M96 1122v244h981v-244h-598v-241h844v-246h-844v-191q0 -106 37 -153t133 -47h600l-55 -244h-549q-213 0 -304 109t-91 335v191h-195v246h195v241h-154zM1057 -451q-106 0 -181.5 24t-119 69.5t-65 102t-27.5 132.5l225 53q10 -59 23.5 -85.5t47 -39t101.5 -12.5h137
v-244h-141z" />
    <glyph glyph-name="Ecaron" unicode="&#x11a;" horiz-adv-x="1374" 
d="M96 1122v244h981v-244h-598v-241h844v-246h-844v-191q0 -106 37 -153t133 -47h600l-55 -244h-549q-213 0 -304 109t-91 335v191h-195v246h195v241h-154zM193 1823l174 143q113 -183 217 -268q144 207 227 268l172 -160q-72 -48 -155.5 -136t-135.5 -167h-194
q-74 46 -170.5 148t-134.5 172z" />
    <glyph glyph-name="ecaron" unicode="&#x11b;" horiz-adv-x="1374" 
d="M96 1122v244h981v-244h-598v-241h844v-246h-844v-191q0 -106 37 -153t133 -47h600l-55 -244h-549q-213 0 -304 109t-91 335v191h-195v246h195v241h-154zM193 1823l174 143q113 -183 217 -268q144 207 227 268l172 -160q-72 -48 -155.5 -136t-135.5 -167h-194
q-74 46 -170.5 148t-134.5 172z" />
    <glyph glyph-name="Gbreve" unicode="&#x11e;" horiz-adv-x="1267" 
d="M1145 -53h-227v119q-143 12 -265.5 48.5t-228.5 104.5t-180.5 163.5t-117 232.5t-42.5 305v446h1106v-244h-879v-217q0 -144 48 -257t132.5 -184t192 -110t234.5 -47v438h227v-798zM309 1782h652v184h227v-407h-1106v407h227v-184z" />
    <glyph glyph-name="gbreve" unicode="&#x11f;" horiz-adv-x="1267" 
d="M1145 -53h-227v119q-143 12 -265.5 48.5t-228.5 104.5t-180.5 163.5t-117 232.5t-42.5 305v446h1106v-244h-879v-217q0 -144 48 -257t132.5 -184t192 -110t234.5 -47v438h227v-798zM309 1782h652v184h227v-407h-1106v407h227v-184z" />
    <glyph glyph-name="Gdotaccent" unicode="&#x120;" horiz-adv-x="1267" 
d="M1145 -53h-227v119q-143 12 -265.5 48.5t-228.5 104.5t-180.5 163.5t-117 232.5t-42.5 305v446h1106v-244h-879v-217q0 -144 48 -257t132.5 -184t192 -110t234.5 -47v438h227v-798zM471 1735q0 77 50 131.5t120 54.5q72 0 122 -54.5t50 -131.5t-50 -131t-122 -54
q-70 0 -120 54t-50 131z" />
    <glyph glyph-name="gdotaccent" unicode="&#x121;" horiz-adv-x="1267" 
d="M1145 -53h-227v119q-143 12 -265.5 48.5t-228.5 104.5t-180.5 163.5t-117 232.5t-42.5 305v446h1106v-244h-879v-217q0 -144 48 -257t132.5 -184t192 -110t234.5 -47v438h227v-798zM471 1735q0 77 50 131.5t120 54.5q72 0 122 -54.5t50 -131.5t-50 -131t-122 -54
q-70 0 -120 54t-50 131z" />
    <glyph glyph-name="uni0122" unicode="&#x122;" horiz-adv-x="1267" 
d="M1145 -53h-227v119q-143 12 -265.5 48.5t-228.5 104.5t-180.5 163.5t-117 232.5t-42.5 305v446h1106v-244h-879v-217q0 -144 48 -257t132.5 -184t192 -110t234.5 -47v438h227v-798zM600 -244l100 203q74 -30 194 -98.5t187 -120.5l-116 -191q-67 56 -176.5 118.5
t-188.5 88.5z" />
    <glyph glyph-name="uni0123" unicode="&#x123;" horiz-adv-x="1267" 
d="M1145 -53h-227v119q-143 12 -265.5 48.5t-228.5 104.5t-180.5 163.5t-117 232.5t-42.5 305v446h1106v-244h-879v-217q0 -144 48 -257t132.5 -184t192 -110t234.5 -47v438h227v-798zM600 -244l100 203q74 -30 194 -98.5t187 -120.5l-116 -191q-67 56 -176.5 118.5
t-188.5 88.5z" />
    <glyph glyph-name="Hbar" unicode="&#x126;" horiz-adv-x="1468" 
d="M117 1366h202v72h228v-72h633v-244h-633v-184h862v-244h-90v-250q0 -226 -91 -335t-304 -109h-35l-58 244h89q97 0 134.5 47.5t37.5 152.5v250h-545v-221q0 -277 -127 -510l-211 103q110 179 110 405v223h-260v244h260v184h-202v244z" />
    <glyph glyph-name="hbar" unicode="&#x127;" horiz-adv-x="1468" 
d="M117 1366h202v72h228v-72h633v-244h-633v-184h862v-244h-90v-250q0 -226 -91 -335t-304 -109h-35l-58 244h89q97 0 134.5 47.5t37.5 152.5v250h-545v-221q0 -277 -127 -510l-211 103q110 179 110 405v223h-260v244h260v184h-202v244z" />
    <glyph glyph-name="Imacron" unicode="&#x12a;" horiz-adv-x="1323" 
d="M197 1122v244h940v-244h-357v-878h482v-244h-1190v244h479v878h-354zM98 1870h1125v-244h-1125v244z" />
    <glyph glyph-name="imacron" unicode="&#x12b;" horiz-adv-x="1323" 
d="M197 1122v244h940v-244h-357v-878h482v-244h-1190v244h479v878h-354zM98 1870h1125v-244h-1125v244z" />
    <glyph glyph-name="Ibreve" unicode="&#x12c;" horiz-adv-x="1323" 
d="M197 1122v244h940v-244h-357v-878h482v-244h-1190v244h479v878h-354zM336 1782h651v184h227v-407h-1105v407h227v-184z" />
    <glyph glyph-name="ibreve" unicode="&#x12d;" horiz-adv-x="1323" 
d="M197 1122v244h940v-244h-357v-878h482v-244h-1190v244h479v878h-354zM336 1782h651v184h227v-407h-1105v407h227v-184z" />
    <glyph glyph-name="Iogonek" unicode="&#x12e;" horiz-adv-x="1323" 
d="M197 1122v244h940v-244h-357v-878h482v-244h-1190v244h479v878h-354zM942 -451q-106 0 -181.5 24t-119 69.5t-65 102t-27.5 132.5l225 53q10 -59 23.5 -85.5t47 -39t101.5 -12.5h137v-244h-141z" />
    <glyph glyph-name="iogonek" unicode="&#x12f;" horiz-adv-x="1323" 
d="M197 1122v244h940v-244h-357v-878h482v-244h-1190v244h479v878h-354zM942 -451q-106 0 -181.5 24t-119 69.5t-65 102t-27.5 132.5l225 53q10 -59 23.5 -85.5t47 -39t101.5 -12.5h137v-244h-141z" />
    <glyph glyph-name="Idotaccent" unicode="&#x130;" horiz-adv-x="1323" 
d="M197 1122v244h940v-244h-357v-878h482v-244h-1190v244h479v878h-354zM489 1735q0 77 50 131.5t120 54.5q72 0 122 -54.5t50 -131.5t-50 -131t-122 -54q-70 0 -120 54t-50 131z" />
    <glyph glyph-name="dotlessi" unicode="&#x131;" horiz-adv-x="1323" 
d="M197 1122v244h940v-244h-357v-878h482v-244h-1190v244h479v878h-354z" />
    <glyph glyph-name="ij" unicode="&#x133;" horiz-adv-x="2486" 
d="M197 1122v244h940v-244h-357v-878h482v-244h-1190v244h479v878h-354zM1749 1087l-41 230q366 41 723 121l41 -230q-176 -45 -231 -55v-709q0 -226 -91.5 -335t-304.5 -109h-467v244h463q97 0 134.5 47.5t37.5 152.5v670q-132 -18 -264 -27z" />
    <glyph glyph-name="uni0136" unicode="&#x136;" horiz-adv-x="1366" 
d="M328 1495l223 -53q-25 -124 -70 -268l822 116l36 -243l-305 -41q27 -213 27 -324q0 -145 -36 -272.5t-97.5 -220t-138 -157t-162.5 -98.5l-121 209q153 62 241.5 199t88.5 336q0 76 -29 293l-416 -56q-66 -161 -160 -335l-204 98q109 210 182.5 404.5t118.5 412.5z
M295 -244l100 203q74 -30 194 -98.5t187 -120.5l-117 -191q-67 57 -176.5 119t-187.5 88z" />
    <glyph glyph-name="uni0137" unicode="&#x137;" horiz-adv-x="1366" 
d="M328 1495l223 -53q-25 -124 -70 -268l822 116l36 -243l-305 -41q27 -213 27 -324q0 -145 -36 -272.5t-97.5 -220t-138 -157t-162.5 -98.5l-121 209q153 62 241.5 199t88.5 336q0 76 -29 293l-416 -56q-66 -161 -160 -335l-204 98q109 210 182.5 404.5t118.5 412.5z
M295 -244l100 203q74 -30 194 -98.5t187 -120.5l-117 -191q-67 57 -176.5 119t-187.5 88z" />
    <glyph glyph-name="Lacute" unicode="&#x139;" horiz-adv-x="1173" 
d="M145 -63l-88 225l70 24v1180h227v-1087q392 163 697 395l135 -199q-419 -323 -1041 -538zM389 1966l199 -127q-56 -65 -117 -179.5t-88 -203.5l-211 113q27 90 95.5 216t121.5 181z" />
    <glyph glyph-name="lacute" unicode="&#x13a;" horiz-adv-x="1173" 
d="M145 -63l-88 225l70 24v1180h227v-1087q392 163 697 395l135 -199q-419 -323 -1041 -538zM389 1966l199 -127q-56 -65 -117 -179.5t-88 -203.5l-211 113q27 90 95.5 216t121.5 181z" />
    <glyph glyph-name="uni013B" unicode="&#x13b;" horiz-adv-x="1173" 
d="M145 -63l-88 225l70 24v1180h227v-1087q392 163 697 395l135 -199q-419 -323 -1041 -538zM346 -244l100 203q74 -30 194 -98.5t187 -120.5l-116 -191q-67 56 -176.5 118.5t-188.5 88.5z" />
    <glyph glyph-name="uni013C" unicode="&#x13c;" horiz-adv-x="1173" 
d="M145 -63l-88 225l70 24v1180h227v-1087q392 163 697 395l135 -199q-419 -323 -1041 -538zM346 -244l100 203q74 -30 194 -98.5t187 -120.5l-116 -191q-67 56 -176.5 118.5t-188.5 88.5z" />
    <glyph glyph-name="Lcaron" unicode="&#x13d;" horiz-adv-x="1173" 
d="M145 -63l-88 225l70 24v1180h227v-1087q392 163 697 395l135 -199q-419 -323 -1041 -538zM672 1436l198 -127q-56 -65 -116.5 -179.5t-87.5 -203.5l-211 112q27 90 95.5 217t121.5 181z" />
    <glyph glyph-name="lcaron" unicode="&#x13e;" horiz-adv-x="1173" 
d="M145 -63l-88 225l70 24v1180h227v-1087q392 163 697 395l135 -199q-419 -323 -1041 -538zM672 1436l198 -127q-56 -65 -116.5 -179.5t-87.5 -203.5l-211 112q27 90 95.5 217t121.5 181z" />
    <glyph glyph-name="Ldot" unicode="&#x13f;" horiz-adv-x="1173" 
d="M145 -63l-88 225l70 24v1180h227v-1087q392 163 697 395l135 -199q-419 -323 -1041 -538zM643 1106l199 -127q-56 -65 -117 -179.5t-88 -203.5l-211 113q27 90 95.5 216t121.5 181z" />
    <glyph glyph-name="ldot" unicode="&#x140;" horiz-adv-x="1173" 
d="M145 -63l-88 225l70 24v1180h227v-1087q392 163 697 395l135 -199q-419 -323 -1041 -538zM643 1106l199 -127q-56 -65 -117 -179.5t-88 -203.5l-211 113q27 90 95.5 216t121.5 181z" />
    <glyph glyph-name="Lslash" unicode="&#x141;" horiz-adv-x="1271" 
d="M750 1116l55 -223q-174 -46 -352 -70v-544q389 163 696 395l135 -199q-420 -323 -1040 -538l-88 225l69 24v611q-91 -8 -207 -11v236q70 2 207 10v334h228v-307q134 19 297 57z" />
    <glyph glyph-name="lslash" unicode="&#x142;" horiz-adv-x="1271" 
d="M750 1116l55 -223q-174 -46 -352 -70v-544q389 163 696 395l135 -199q-420 -323 -1040 -538l-88 225l69 24v611q-91 -8 -207 -11v236q70 2 207 10v334h228v-307q134 19 297 57z" />
    <glyph glyph-name="Nacute" unicode="&#x143;" horiz-adv-x="1329" 
d="M332 1077v-1077h-228v1321h1156v-244h-50v-633q0 -226 -91 -335t-304 -109h-31l-57 244h84q97 0 134.5 47.5t37.5 152.5v633h-651zM778 1966l199 -127q-56 -65 -117 -179.5t-88 -203.5l-211 113q27 90 95.5 216t121.5 181z" />
    <glyph glyph-name="nacute" unicode="&#x144;" horiz-adv-x="1329" 
d="M332 1077v-1077h-228v1321h1156v-244h-50v-633q0 -226 -91 -335t-304 -109h-31l-57 244h84q97 0 134.5 47.5t37.5 152.5v633h-651zM778 1966l199 -127q-56 -65 -117 -179.5t-88 -203.5l-211 113q27 90 95.5 216t121.5 181z" />
    <glyph glyph-name="uni0145" unicode="&#x145;" horiz-adv-x="1329" 
d="M332 1077v-1077h-228v1321h439v180h229v-180h488v-244h-50v-633q0 -226 -91 -335t-304 -109h-31l-57 244h84q97 0 134.5 47.5t37.5 152.5v633h-651zM403 -244l101 203q74 -30 194 -98.5t187 -120.5l-117 -191q-67 56 -176.5 118.5t-188.5 88.5z" />
    <glyph glyph-name="uni0146" unicode="&#x146;" horiz-adv-x="1329" 
d="M332 1077v-1077h-228v1321h439v180h229v-180h488v-244h-50v-633q0 -226 -91 -335t-304 -109h-31l-57 244h84q97 0 134.5 47.5t37.5 152.5v633h-651zM403 -244l101 203q74 -30 194 -98.5t187 -120.5l-117 -191q-67 56 -176.5 118.5t-188.5 88.5z" />
    <glyph glyph-name="Ncaron" unicode="&#x147;" horiz-adv-x="1329" 
d="M332 1077v-1077h-228v1321h1156v-244h-50v-633q0 -226 -91 -335t-304 -109h-31l-57 244h84q97 0 134.5 47.5t37.5 152.5v633h-651zM252 1823l174 143q113 -183 217 -268q58 84 122.5 161t106.5 107l170 -160q-72 -47 -155 -135.5t-135 -167.5h-195q-74 46 -170.5 148
t-134.5 172z" />
    <glyph glyph-name="ncaron" unicode="&#x148;" horiz-adv-x="1329" 
d="M332 1077v-1077h-228v1321h1156v-244h-50v-633q0 -226 -91 -335t-304 -109h-31l-57 244h84q97 0 134.5 47.5t37.5 152.5v633h-651zM252 1823l174 143q113 -183 217 -268q58 84 122.5 161t106.5 107l170 -160q-72 -47 -155 -135.5t-135 -167.5h-195q-74 46 -170.5 148
t-134.5 172z" />
    <glyph glyph-name="Eng" unicode="&#x14a;" horiz-adv-x="1329" 
d="M332 1077v-1077h-228v1321h439v180h229v-180h488v-244h-50v-1030q0 -225 -91.5 -334.5t-303.5 -109.5h-297v245h293q97 0 134.5 47t37.5 152v1030h-651z" />
    <glyph glyph-name="eng" unicode="&#x14b;" horiz-adv-x="1329" 
d="M332 1077v-1077h-228v1321h439v180h229v-180h488v-244h-50v-1030q0 -225 -91.5 -334.5t-303.5 -109.5h-297v245h293q97 0 134.5 47t37.5 152v1030h-651z" />
    <glyph glyph-name="Omacron" unicode="&#x14c;" 
d="M1210 1366v-1366h-227v98h-651v-98h-228v1366h1106zM332 342h651v780h-651v-780zM94 1870h1125v-244h-1125v244z" />
    <glyph glyph-name="omacron" unicode="&#x14d;" 
d="M1210 1366v-1366h-227v98h-651v-98h-228v1366h1106zM332 342h651v780h-651v-780zM94 1870h1125v-244h-1125v244z" />
    <glyph glyph-name="Obreve" unicode="&#x14e;" 
d="M1210 1366v-1366h-227v98h-651v-98h-228v1366h1106zM332 342h651v780h-651v-780zM332 1782h651v184h227v-407h-1106v407h228v-184z" />
    <glyph glyph-name="obreve" unicode="&#x14f;" 
d="M1210 1366v-1366h-227v98h-651v-98h-228v1366h1106zM332 342h651v780h-651v-780zM332 1782h651v184h227v-407h-1106v407h228v-184z" />
    <glyph glyph-name="Ohungarumlaut" unicode="&#x150;" 
d="M1210 1366v-1366h-227v98h-651v-98h-228v1366h1106zM332 342h651v780h-651v-780zM893 1966l199 -127q-56 -64 -116 -178.5t-89 -204.5l-209 113q25 87 93.5 214t121.5 183zM518 1966l199 -127q-56 -65 -117 -179.5t-88 -203.5l-211 113q27 90 95.5 216t121.5 181z" />
    <glyph glyph-name="ohungarumlaut" unicode="&#x151;" 
d="M1210 1366v-1366h-227v98h-651v-98h-228v1366h1106zM332 342h651v780h-651v-780zM893 1966l199 -127q-56 -64 -116 -178.5t-89 -204.5l-209 113q25 87 93.5 214t121.5 183zM518 1966l199 -127q-56 -65 -117 -179.5t-88 -203.5l-211 113q27 90 95.5 216t121.5 181z" />
    <glyph glyph-name="OE" unicode="&#x152;" horiz-adv-x="1730" 
d="M1432 1122h-406v-241h651v-246h-651v-391h580l-58 -244h-1444v1366h1328v-244zM332 244h467v878h-467v-878z" />
    <glyph glyph-name="oe" unicode="&#x153;" horiz-adv-x="1730" 
d="M1432 1122h-406v-241h651v-246h-651v-391h580l-58 -244h-1444v1366h1328v-244zM332 244h467v878h-467v-878z" />
    <glyph glyph-name="Racute" unicode="&#x154;" horiz-adv-x="1355" 
d="M41 1090v243h192v168h230v-168h823l39 -221q-302 -279 -698 -487l-119 206q217 100 428 259h-473v-1090h-230v1090h-192zM678 494l188 147q229 -253 432 -555l-188 -147q-176 276 -432 555zM750 1966l198 -127q-56 -65 -117 -179.5t-88 -203.5l-211 113q27 89 96 215.5
t122 181.5z" />
    <glyph glyph-name="racute" unicode="&#x155;" horiz-adv-x="1355" 
d="M41 1090v243h192v168h230v-168h823l39 -221q-302 -279 -698 -487l-119 206q217 100 428 259h-473v-1090h-230v1090h-192zM678 494l188 147q229 -253 432 -555l-188 -147q-176 276 -432 555zM750 1966l198 -127q-56 -65 -117 -179.5t-88 -203.5l-211 113q27 89 96 215.5
t122 181.5z" />
    <glyph glyph-name="uni0156" unicode="&#x156;" horiz-adv-x="1355" 
d="M41 1090v243h192v168h230v-168h823l39 -221q-302 -279 -698 -487l-119 206q217 100 428 259h-473v-1090h-230v1090h-192zM678 494l188 147q229 -253 432 -555l-188 -147q-176 276 -432 555zM498 -244l100 203q74 -30 194 -98.5t187 -120.5l-117 -191q-67 57 -176.5 119
t-187.5 88z" />
    <glyph glyph-name="uni0157" unicode="&#x157;" horiz-adv-x="1355" 
d="M41 1090v243h192v168h230v-168h823l39 -221q-302 -279 -698 -487l-119 206q217 100 428 259h-473v-1090h-230v1090h-192zM678 494l188 147q229 -253 432 -555l-188 -147q-176 276 -432 555zM498 -244l100 203q74 -30 194 -98.5t187 -120.5l-117 -191q-67 57 -176.5 119
t-187.5 88z" />
    <glyph glyph-name="Rcaron" unicode="&#x158;" horiz-adv-x="1355" 
d="M41 1090v243h192v168h230v-168h823l39 -221q-302 -279 -698 -487l-119 206q217 100 428 259h-473v-1090h-230v1090h-192zM678 494l188 147q229 -253 432 -555l-188 -147q-176 276 -432 555zM375 1823l174 143q113 -183 217 -268q144 207 227 268l172 -160
q-72 -48 -155.5 -136t-135.5 -167h-194q-74 46 -170.5 148t-134.5 172z" />
    <glyph glyph-name="rcaron" unicode="&#x159;" horiz-adv-x="1355" 
d="M41 1090v243h192v168h230v-168h823l39 -221q-302 -279 -698 -487l-119 206q217 100 428 259h-473v-1090h-230v1090h-192zM678 494l188 147q229 -253 432 -555l-188 -147q-176 276 -432 555zM375 1823l174 143q113 -183 217 -268q144 207 227 268l172 -160
q-72 -48 -155.5 -136t-135.5 -167h-194q-74 46 -170.5 148t-134.5 172z" />
    <glyph glyph-name="Sacute" unicode="&#x15a;" horiz-adv-x="1376" 
d="M1317 639h-70v-195q0 -226 -91 -335t-304 -109h-721v244h717q98 0 135 47t37 153v195h-528q-138 0 -211.5 78.5t-73.5 226.5v178h-137v244h1185v-244h-821v-178q0 -32 12.5 -45.5t45.5 -13.5h825v-246zM739 1966l199 -127q-56 -65 -117 -179.5t-88 -203.5l-211 113
q27 90 95.5 216t121.5 181z" />
    <glyph glyph-name="sacute" unicode="&#x15b;" horiz-adv-x="1376" 
d="M1317 639h-70v-195q0 -226 -91 -335t-304 -109h-721v244h717q98 0 135 47t37 153v195h-528q-138 0 -211.5 78.5t-73.5 226.5v178h-137v244h1185v-244h-821v-178q0 -32 12.5 -45.5t45.5 -13.5h825v-246zM739 1966l199 -127q-56 -65 -117 -179.5t-88 -203.5l-211 113
q27 90 95.5 216t121.5 181z" />
    <glyph glyph-name="Scedilla" unicode="&#x15e;" horiz-adv-x="1376" 
d="M1317 639h-70v-195q0 -226 -91 -335t-304 -109h-721v244h717q98 0 135 47t37 153v195h-528q-138 0 -211.5 78.5t-73.5 226.5v178h-137v244h1185v-244h-821v-178q0 -32 12.5 -45.5t45.5 -13.5h825v-246zM426 -244l100 203q74 -30 194 -98.5t187 -120.5l-116 -191
q-67 56 -176.5 118.5t-188.5 88.5z" />
    <glyph glyph-name="scedilla" unicode="&#x15f;" horiz-adv-x="1376" 
d="M1317 639h-70v-195q0 -226 -91 -335t-304 -109h-721v244h717q98 0 135 47t37 153v195h-528q-138 0 -211.5 78.5t-73.5 226.5v178h-137v244h1185v-244h-821v-178q0 -32 12.5 -45.5t45.5 -13.5h825v-246zM426 -244l100 203q74 -30 194 -98.5t187 -120.5l-116 -191
q-67 56 -176.5 118.5t-188.5 88.5z" />
    <glyph glyph-name="Scaron" unicode="&#x160;" horiz-adv-x="1376" 
d="M1317 639h-70v-195q0 -226 -91 -335t-304 -109h-721v244h717q98 0 135 47t37 153v195h-528q-138 0 -211.5 78.5t-73.5 226.5v178h-137v244h1185v-244h-821v-178q0 -32 12.5 -45.5t45.5 -13.5h825v-246zM301 1823l174 143q113 -183 217 -268q57 82 122 160t106 108
l172 -160q-72 -48 -155.5 -136t-135.5 -167h-195q-74 46 -170.5 148t-134.5 172z" />
    <glyph glyph-name="scaron" unicode="&#x161;" horiz-adv-x="1376" 
d="M1317 639h-70v-195q0 -226 -91 -335t-304 -109h-721v244h717q98 0 135 47t37 153v195h-528q-138 0 -211.5 78.5t-73.5 226.5v178h-137v244h1185v-244h-821v-178q0 -32 12.5 -45.5t45.5 -13.5h825v-246zM301 1823l174 143q113 -183 217 -268q57 82 122 160t106 108
l172 -160q-72 -48 -155.5 -136t-135.5 -167h-195q-74 46 -170.5 148t-134.5 172z" />
    <glyph glyph-name="uni0162" unicode="&#x162;" horiz-adv-x="1206" 
d="M1161 1137v-244h-434v-127q0 -67 -3 -124.5t-15 -134t-32 -139t-56 -129.5t-85 -116t-123 -87t-165 -54l-53 245q59 0 106.5 19.5t79 50t54.5 77t35 91t19 103t9 101.5t2 97v127h-434v244h434v364h227v-364h434zM256 -244l100 203q74 -30 194 -98.5t187 -120.5l-116 -191
q-67 56 -176.5 118.5t-188.5 88.5z" />
    <glyph glyph-name="uni0163" unicode="&#x163;" horiz-adv-x="1206" 
d="M1161 1137v-244h-434v-127q0 -67 -3 -124.5t-15 -134t-32 -139t-56 -129.5t-85 -116t-123 -87t-165 -54l-53 245q59 0 106.5 19.5t79 50t54.5 77t35 91t19 103t9 101.5t2 97v127h-434v244h434v364h227v-364h434zM256 -244l100 203q74 -30 194 -98.5t187 -120.5l-116 -191
q-67 56 -176.5 118.5t-188.5 88.5z" />
    <glyph glyph-name="Tcaron" unicode="&#x164;" horiz-adv-x="1206" 
d="M1161 1137v-244h-434v-127q0 -67 -3 -124.5t-15 -134t-32 -139t-56 -129.5t-85 -116t-123 -87t-165 -54l-53 245q59 0 106.5 19.5t79 50t54.5 77t35 91t19 103t9 101.5t2 97v127h-434v244h434v260h227v-260h434zM215 1823l174 143q104 -175 217 -268q57 82 122 160
t106 108l172 -160q-72 -48 -155.5 -136t-135.5 -167h-195q-74 46 -170.5 148t-134.5 172z" />
    <glyph glyph-name="tcaron" unicode="&#x165;" horiz-adv-x="1206" 
d="M1161 1137v-244h-434v-127q0 -67 -3 -124.5t-15 -134t-32 -139t-56 -129.5t-85 -116t-123 -87t-165 -54l-53 245q59 0 106.5 19.5t79 50t54.5 77t35 91t19 103t9 101.5t2 97v127h-434v244h434v260h227v-260h434zM215 1823l174 143q104 -175 217 -268q57 82 122 160
t106 108l172 -160q-72 -48 -155.5 -136t-135.5 -167h-195q-74 46 -170.5 148t-134.5 172z" />
    <glyph glyph-name="Tbar" unicode="&#x166;" horiz-adv-x="1206" 
d="M1161 1221v-244h-434v-178h313v-246h-325q-60 -504 -467 -571l-53 245q243 0 292 326h-278v246h291v178h-434v244h434v280h227v-280h434z" />
    <glyph glyph-name="tbar" unicode="&#x167;" horiz-adv-x="1206" 
d="M1161 1221v-244h-434v-178h313v-246h-325q-60 -504 -467 -571l-53 245q243 0 292 326h-278v246h291v178h-434v244h434v280h227v-280h434z" />
    <glyph glyph-name="Utilde" unicode="&#x168;" 
d="M332 342h651v1024h227v-1366h-227v98h-651v-98h-228v1366h228v-1024zM209 1575l-127 207q44 86 118 127t148 41q57 0 128 -21t127.5 -46.5t126.5 -46.5t126 -21q75 0 142.5 37t107.5 114l127 -207q-44 -90 -134 -137t-194 -47q-63 0 -137 22t-130 48.5t-121.5 48.5
t-113.5 22q-123 0 -194 -141z" />
    <glyph glyph-name="utilde" unicode="&#x169;" 
d="M332 342h651v1024h227v-1366h-227v98h-651v-98h-228v1366h228v-1024zM209 1575l-127 207q44 86 118 127t148 41q57 0 128 -21t127.5 -46.5t126.5 -46.5t126 -21q75 0 142.5 37t107.5 114l127 -207q-44 -90 -134 -137t-194 -47q-63 0 -137 22t-130 48.5t-121.5 48.5
t-113.5 22q-123 0 -194 -141z" />
    <glyph glyph-name="Umacron" unicode="&#x16a;" 
d="M332 342h651v1024h227v-1366h-227v98h-651v-98h-228v1366h228v-1024zM94 1870h1125v-244h-1125v244z" />
    <glyph glyph-name="umacron" unicode="&#x16b;" 
d="M332 342h651v1024h227v-1366h-227v98h-651v-98h-228v1366h228v-1024zM94 1870h1125v-244h-1125v244z" />
    <glyph glyph-name="Ubreve" unicode="&#x16c;" 
d="M332 342h651v1024h227v-1366h-227v98h-651v-98h-228v1366h228v-1024zM332 1782h651v184h227v-407h-1106v407h228v-184z" />
    <glyph glyph-name="ubreve" unicode="&#x16d;" 
d="M332 342h651v1024h227v-1366h-227v98h-651v-98h-228v1366h228v-1024zM332 1782h651v184h227v-407h-1106v407h228v-184z" />
    <glyph glyph-name="Uring" unicode="&#x16e;" horiz-adv-x="1579" 
d="M1077 1274q0 114 73 194t177 80t178 -80t74 -194q0 -112 -74 -191t-178 -79t-177 78.5t-73 191.5zM1233 1274q0 -38 27 -65t67 -27q39 0 67.5 27t28.5 65q0 39 -28.5 67.5t-67.5 28.5q-40 0 -67 -28t-27 -68zM1038 1276q0 -105 46 -178.5t126 -110.5v-987h-227v98h-651
v-98h-228v1366h228v-1024h651v1024h68q-13 -47 -13 -90z" />
    <glyph glyph-name="uring" unicode="&#x16f;" horiz-adv-x="1579" 
d="M1077 1274q0 114 73 194t177 80t178 -80t74 -194q0 -112 -74 -191t-178 -79t-177 78.5t-73 191.5zM1233 1274q0 -38 27 -65t67 -27q39 0 67.5 27t28.5 65q0 39 -28.5 67.5t-67.5 28.5q-40 0 -67 -28t-27 -68zM1038 1276q0 -105 46 -178.5t126 -110.5v-987h-227v98h-651
v-98h-228v1366h228v-1024h651v1024h68q-13 -47 -13 -90z" />
    <glyph glyph-name="Uhungarumlaut" unicode="&#x170;" 
d="M332 342h651v1024h227v-1366h-227v98h-651v-98h-228v1366h228v-1024zM893 1966l199 -127q-56 -64 -116 -178.5t-89 -204.5l-209 113q25 87 93.5 214t121.5 183zM518 1966l199 -127q-56 -65 -117 -179.5t-88 -203.5l-211 113q27 90 95.5 216t121.5 181z" />
    <glyph glyph-name="uhungarumlaut" unicode="&#x171;" 
d="M332 342h651v1024h227v-1366h-227v98h-651v-98h-228v1366h228v-1024zM893 1966l199 -127q-56 -64 -116 -178.5t-89 -204.5l-209 113q25 87 93.5 214t121.5 183zM518 1966l199 -127q-56 -65 -117 -179.5t-88 -203.5l-211 113q27 90 95.5 216t121.5 181z" />
    <glyph glyph-name="Uogonek" unicode="&#x172;" 
d="M332 342h651v1024h227v-1366h-227v98h-651v-98h-228v1366h228v-1024zM1061 -451q-106 0 -181.5 24t-119 69.5t-65 102t-27.5 132.5l225 53q10 -59 23.5 -85.5t47 -39t101.5 -12.5h137v-244h-141z" />
    <glyph glyph-name="uogonek" unicode="&#x173;" 
d="M332 342h651v1024h227v-1366h-227v98h-651v-98h-228v1366h228v-1024zM1061 -451q-106 0 -181.5 24t-119 69.5t-65 102t-27.5 132.5l225 53q10 -59 23.5 -85.5t47 -39t101.5 -12.5h137v-244h-141z" />
    <glyph glyph-name="Wcircumflex" unicode="&#x174;" horiz-adv-x="1462" 
d="M848 1501v-1159h287v819h227v-1161h-227v98h-803v-98h-228v1161h228v-819h289v1159h227zM174 1808h440v158h244v-158h440v-245h-1124v245z" />
    <glyph glyph-name="wcircumflex" unicode="&#x175;" horiz-adv-x="1462" 
d="M848 1501v-1159h287v819h227v-1161h-227v98h-803v-98h-228v1161h228v-819h289v1159h227zM174 1808h440v158h244v-158h440v-245h-1124v245z" />
    <glyph glyph-name="Ycircumflex" unicode="&#x176;" horiz-adv-x="1304" 
d="M246 -39l-123 217q209 108 400 305.5t328.5 436t209.5 485.5l213 -70q-60 -257 -217 -529.5t-372 -497.5t-439 -347zM43 1249l162 181q96 -82 226.5 -246t217.5 -305l-192 -136q-77 129 -199 280.5t-215 225.5zM94 1808h441v158h243v-158h441v-245h-1125v245z" />
    <glyph glyph-name="ycircumflex" unicode="&#x177;" horiz-adv-x="1304" 
d="M246 -39l-123 217q209 108 400 305.5t328.5 436t209.5 485.5l213 -70q-60 -257 -217 -529.5t-372 -497.5t-439 -347zM43 1249l162 181q96 -82 226.5 -246t217.5 -305l-192 -136q-77 129 -199 280.5t-215 225.5zM94 1808h441v158h243v-158h441v-245h-1125v245z" />
    <glyph glyph-name="Ydieresis" unicode="&#x178;" horiz-adv-x="1472" 
d="M1241 1124v424h211v-424h-211zM895 1124v424h211v-424h-211zM246 -39l-123 217q238 123 448.5 357t352.5 520h260q-94 -220 -242 -432.5t-330 -386.5t-366 -275zM43 1249l162 181q96 -82 226.5 -246t217.5 -305l-192 -136q-77 129 -199 280.5t-215 225.5z" />
    <glyph glyph-name="Zacute" unicode="&#x179;" horiz-adv-x="1228" 
d="M61 1366h963l33 -225l-664 -705q-53 -53 -53 -106q0 -86 125 -86h387q63 0 86 30t23 109l229 -12q0 -192 -70.5 -281.5t-240.5 -89.5h-420q-158 0 -252 88.5t-94 239.5q0 160 116 282l488 510h-656v246zM625 1966l198 -127q-56 -65 -117 -179.5t-88 -203.5l-210 113
q27 90 95.5 216t121.5 181z" />
    <glyph glyph-name="zacute" unicode="&#x17a;" horiz-adv-x="1228" 
d="M61 1366h963l33 -225l-664 -705q-53 -53 -53 -106q0 -86 125 -86h387q63 0 86 30t23 109l229 -12q0 -192 -70.5 -281.5t-240.5 -89.5h-420q-158 0 -252 88.5t-94 239.5q0 160 116 282l488 510h-656v246zM625 1966l198 -127q-56 -65 -117 -179.5t-88 -203.5l-210 113
q27 90 95.5 216t121.5 181z" />
    <glyph glyph-name="Zdotaccent" unicode="&#x17b;" horiz-adv-x="1228" 
d="M61 1366h963l33 -225l-664 -705q-53 -53 -53 -106q0 -86 125 -86h387q63 0 86 30t23 109l229 -12q0 -192 -70.5 -281.5t-240.5 -89.5h-420q-158 0 -252 88.5t-94 239.5q0 160 116 282l488 510h-656v246zM442 1735q0 77 50 131.5t120 54.5q72 0 122 -54.5t50 -131.5
t-50 -131t-122 -54q-70 0 -120 54t-50 131z" />
    <glyph glyph-name="zdotaccent" unicode="&#x17c;" horiz-adv-x="1228" 
d="M61 1366h963l33 -225l-664 -705q-53 -53 -53 -106q0 -86 125 -86h387q63 0 86 30t23 109l229 -12q0 -192 -70.5 -281.5t-240.5 -89.5h-420q-158 0 -252 88.5t-94 239.5q0 160 116 282l488 510h-656v246zM442 1735q0 77 50 131.5t120 54.5q72 0 122 -54.5t50 -131.5
t-50 -131t-122 -54q-70 0 -120 54t-50 131z" />
    <glyph glyph-name="Zcaron" unicode="&#x17d;" horiz-adv-x="1228" 
d="M61 1366h963l33 -225l-664 -705q-53 -53 -53 -106q0 -86 125 -86h387q63 0 86 30t23 109l229 -12q0 -192 -70.5 -281.5t-240.5 -89.5h-420q-158 0 -252 88.5t-94 239.5q0 160 116 282l488 510h-656v246zM213 1823l174 143q113 -183 217 -268q144 207 227 268l173 -160
q-72 -48 -155.5 -136t-135.5 -167h-195q-74 46 -170.5 148t-134.5 172z" />
    <glyph glyph-name="zcaron" unicode="&#x17e;" horiz-adv-x="1228" 
d="M61 1366h963l33 -225l-664 -705q-53 -53 -53 -106q0 -86 125 -86h387q63 0 86 30t23 109l229 -12q0 -192 -70.5 -281.5t-240.5 -89.5h-420q-158 0 -252 88.5t-94 239.5q0 160 116 282l488 510h-656v246zM213 1823l174 143q113 -183 217 -268q144 207 227 268l173 -160
q-72 -48 -155.5 -136t-135.5 -167h-195q-74 46 -170.5 148t-134.5 172z" />
    <glyph glyph-name="florin" unicode="&#x192;" horiz-adv-x="978" 
d="M182 561l-43 232q88 8 264 32v97q0 226 91.5 335t304.5 109h180v-244h-176q-97 0 -134.5 -47.5t-37.5 -152.5v-58q180 37 231 49l43 -229q-128 -38 -274 -63v-322q0 -226 -91 -335t-304 -109h-179v243h174q98 0 135 47.5t37 153.5v287q-136 -18 -221 -25z" />
    <glyph glyph-name="uni0218" unicode="&#x218;" horiz-adv-x="1376" 
d="M1317 639h-70v-195q0 -226 -91 -335t-304 -109h-721v244h717q98 0 135 47t37 153v195h-528q-138 0 -211.5 78.5t-73.5 226.5v178h-137v244h1185v-244h-821v-178q0 -32 12.5 -45.5t45.5 -13.5h825v-246zM426 -244l100 203q74 -30 194 -98.5t187 -120.5l-116 -191
q-67 56 -176.5 118.5t-188.5 88.5z" />
    <glyph glyph-name="uni0219" unicode="&#x219;" horiz-adv-x="1376" 
d="M1317 639h-70v-195q0 -226 -91 -335t-304 -109h-721v244h717q98 0 135 47t37 153v195h-528q-138 0 -211.5 78.5t-73.5 226.5v178h-137v244h1185v-244h-821v-178q0 -32 12.5 -45.5t45.5 -13.5h825v-246zM426 -244l100 203q74 -30 194 -98.5t187 -120.5l-116 -191
q-67 56 -176.5 118.5t-188.5 88.5z" />
    <glyph glyph-name="uni021A" unicode="&#x21a;" horiz-adv-x="1206" 
d="M1161 1137v-244h-434v-127q0 -67 -3 -124.5t-15 -134t-32 -139t-56 -129.5t-85 -116t-123 -87t-165 -54l-53 245q59 0 106.5 19.5t79 50t54.5 77t35 91t19 103t9 101.5t2 97v127h-434v244h434v364h227v-364h434zM256 -244l100 203q74 -30 194 -98.5t187 -120.5l-116 -191
q-67 56 -176.5 118.5t-188.5 88.5z" />
    <glyph glyph-name="uni021B" unicode="&#x21b;" horiz-adv-x="1206" 
d="M1161 1137v-244h-434v-127q0 -67 -3 -124.5t-15 -134t-32 -139t-56 -129.5t-85 -116t-123 -87t-165 -54l-53 245q59 0 106.5 19.5t79 50t54.5 77t35 91t19 103t9 101.5t2 97v127h-434v244h434v364h227v-364h434zM256 -244l100 203q74 -30 194 -98.5t187 -120.5l-116 -191
q-67 56 -176.5 118.5t-188.5 88.5z" />
    <glyph glyph-name="circumflex" unicode="&#x2c6;" horiz-adv-x="1234" 
d="M55 1808h441v158h243v-158h441v-245h-1125v245z" />
    <glyph glyph-name="caron" unicode="&#x2c7;" horiz-adv-x="856" 
d="M37 1823l174 143q113 -183 217 -268q144 207 227 268l172 -160q-72 -47 -155 -135.5t-135 -167.5h-195q-74 46 -170.5 148t-134.5 172z" />
    <glyph glyph-name="breve" unicode="&#x2d8;" 
d="M332 1782h651v184h227v-407h-1106v407h228v-184z" />
    <glyph glyph-name="dotaccent" unicode="&#x2d9;" horiz-adv-x="430" 
d="M37 1735q0 77 50 131.5t120 54.5q72 0 122 -54.5t50 -131.5t-50 -131t-122 -54q-70 0 -120 54t-50 131z" />
    <glyph glyph-name="ring" unicode="&#x2da;" horiz-adv-x="712" 
d="M123 1694q0 113 73.5 192.5t178.5 79.5q104 0 178 -79.5t74 -192.5q0 -114 -74 -193.5t-178 -79.5q-106 0 -179 79.5t-73 193.5zM281 1694q0 -40 27 -67.5t67 -27.5q39 0 67.5 28t28.5 67q0 38 -29 66t-67 28q-39 0 -66.5 -27.5t-27.5 -66.5z" />
    <glyph glyph-name="ogonek" unicode="&#x2db;" horiz-adv-x="813" 
d="M477 -451q-106 0 -181.5 24t-119 69.5t-65 102t-27.5 132.5l225 53q10 -59 23.5 -85.5t47 -39t101.5 -12.5h137v-244h-141z" />
    <glyph glyph-name="tilde" unicode="&#x2dc;" horiz-adv-x="1359" 
d="M180 1575l-127 207q44 86 118 127t148 41q57 0 128 -21t127.5 -46.5t126.5 -46.5t126 -21q75 0 142.5 37t107.5 114l127 -207q-44 -90 -133.5 -137t-193.5 -47q-63 0 -137 22t-130 48.5t-121.5 48.5t-113.5 22q-125 0 -195 -141z" />
    <glyph glyph-name="hungarumlaut" unicode="&#x2dd;" horiz-adv-x="509" 
d="M639 1966l199 -127q-56 -64 -116 -178.5t-89 -204.5l-209 113q25 87 93.5 214t121.5 183zM264 1966l199 -127q-56 -65 -117 -179.5t-88 -203.5l-211 113q27 90 95.5 216t121.5 181z" />
    <glyph glyph-name="uni0394" unicode="&#x394;" horiz-adv-x="1333" 
d="M49 131l477 1235h260l496 -1239l-195 -127h-847zM655 1122l-325 -878h663z" />
    <glyph glyph-name="uni03A9" unicode="&#x3a9;" horiz-adv-x="1345" 
d="M1233 0h-453v215q112 90 161.5 197t49.5 284v238q0 146 -70 199t-247 53t-247.5 -52.5t-70.5 -195.5v-242q0 -178 49 -285t162 -196v-215h-454v213h235q-139 126 -191.5 237.5t-52.5 303.5v207q0 116 23.5 197.5t65.5 132.5t115 80t158 39.5t208 10.5t207.5 -10.5
t157.5 -39.5t114.5 -80.5t64.5 -132.5t23 -197v-207q0 -194 -52.5 -306t-189.5 -235h234v-213z" />
    <glyph glyph-name="uni03BC" unicode="&#x3bc;" horiz-adv-x="1093" 
d="M395 0v-492h-227v969q0 218 -111 406l211 102q127 -242 127 -510v-231h375v258q0 105 -37.5 152.5t-134.5 47.5h-88l57 244h35q213 0 304 -109t91 -335v-258h50v-244h-652z" />
    <glyph glyph-name="pi" unicode="&#x3c0;" horiz-adv-x="1073" 
d="M958 0h-245v641h-359v-641h-241v868h845v-868z" />
    <glyph glyph-name="Wgrave" unicode="&#x1e80;" horiz-adv-x="1462" 
d="M848 1501v-1159h287v819h227v-1161h-227v98h-803v-98h-228v1161h228v-819h289v1159h227zM199 1839l198 127q53 -55 121.5 -181t95.5 -216l-211 -113q-27 89 -87.5 203.5t-116.5 179.5z" />
    <glyph glyph-name="wgrave" unicode="&#x1e81;" horiz-adv-x="1462" 
d="M848 1501v-1159h287v819h227v-1161h-227v98h-803v-98h-228v1161h228v-819h289v1159h227zM199 1839l198 127q53 -55 121.5 -181t95.5 -216l-211 -113q-27 89 -87.5 203.5t-116.5 179.5z" />
    <glyph glyph-name="Wacute" unicode="&#x1e82;" horiz-adv-x="1462" 
d="M848 1501v-1159h287v819h227v-1161h-227v98h-803v-98h-228v1161h228v-819h289v1159h227zM1096 1966l198 -127q-56 -65 -116.5 -179.5t-87.5 -203.5l-211 113q27 90 95.5 216t121.5 181z" />
    <glyph glyph-name="wacute" unicode="&#x1e83;" horiz-adv-x="1462" 
d="M848 1501v-1159h287v819h227v-1161h-227v98h-803v-98h-228v1161h228v-819h289v1159h227zM1096 1966l198 -127q-56 -65 -116.5 -179.5t-87.5 -203.5l-211 113q27 90 95.5 216t121.5 181z" />
    <glyph glyph-name="Wdieresis" unicode="&#x1e84;" horiz-adv-x="1558" 
d="M848 1501v-1159h287v698h227v-1040h-227v98h-803v-98h-228v1161h228v-819h289v1159h227zM1321 1124v424h211v-424h-211zM975 1124v424h211v-424h-211z" />
    <glyph glyph-name="wdieresis" unicode="&#x1e85;" horiz-adv-x="1558" 
d="M848 1501v-1159h287v698h227v-1040h-227v98h-803v-98h-228v1161h228v-819h289v1159h227zM1321 1124v424h211v-424h-211zM975 1124v424h211v-424h-211z" />
    <glyph glyph-name="Ygrave" unicode="&#x1ef2;" horiz-adv-x="1304" 
d="M246 -39l-123 217q209 108 400 305.5t328.5 436t209.5 485.5l213 -70q-60 -257 -217 -529.5t-372 -497.5t-439 -347zM43 1249l162 181q96 -82 226.5 -246t217.5 -305l-192 -136q-77 129 -199 280.5t-215 225.5zM420 1839l198 127q53 -55 122 -181.5t96 -215.5l-211 -113
q-27 89 -88 203.5t-117 179.5z" />
    <glyph glyph-name="ygrave" unicode="&#x1ef3;" horiz-adv-x="1304" 
d="M246 -39l-123 217q209 108 400 305.5t328.5 436t209.5 485.5l213 -70q-60 -257 -217 -529.5t-372 -497.5t-439 -347zM43 1249l162 181q96 -82 226.5 -246t217.5 -305l-192 -136q-77 129 -199 280.5t-215 225.5zM420 1839l198 127q53 -55 122 -181.5t96 -215.5l-211 -113
q-27 89 -88 203.5t-117 179.5z" />
    <glyph glyph-name="endash" unicode="&#x2013;" horiz-adv-x="1046" 
d="M66 1069h915v-244h-915v244zM66 526h915v-243h-915v243z" />
    <glyph glyph-name="emdash" unicode="&#x2014;" horiz-adv-x="1255" 
d="M66 1069h1124v-244h-1124v244zM66 526h1124v-243h-1124v243z" />
    <glyph glyph-name="quoteleft" unicode="&#x2018;" horiz-adv-x="542" 
d="M41 1470l162 172q63 -50 159 -155t146 -178l-176 -160q-46 78 -133.5 175t-157.5 146z" />
    <glyph glyph-name="quoteright" unicode="&#x2019;" horiz-adv-x="542" 
d="M346 1642l162 -172q-70 -49 -157.5 -146t-133.5 -175l-176 160q50 73 146 178t159 155z" />
    <glyph glyph-name="quotesinglbase" unicode="&#x201a;" horiz-adv-x="542" 
d="M346 414l162 -172q-70 -49 -157.5 -146t-133.5 -176l-176 160q51 74 146.5 179t158.5 155z" />
    <glyph glyph-name="quotedblleft" unicode="&#x201c;" horiz-adv-x="688" 
d="M250 1384v-1384h-184v1565h555v-181h-371z" />
    <glyph glyph-name="quotedblright" unicode="&#x201d;" horiz-adv-x="688" 
d="M434 182v1383h187v-1565h-555v182h368z" />
    <glyph glyph-name="quotedblbase" unicode="&#x201e;" horiz-adv-x="688" 
d="M250 1384v-1384h-184v1565h555v-181h-371z" />
    <glyph glyph-name="dagger" unicode="&#x2020;" horiz-adv-x="1054" 
d="M621 1417v-330h329v-184h-329v-616q0 -158 -46 -310l-180 39q41 119 41 263v624h-332v184h332v330h185z" />
    <glyph glyph-name="daggerdbl" unicode="&#x2021;" horiz-adv-x="1054" 
d="M621 289v-330h-185v330h-332v184h332v430h-332v184h332v330h185v-330h329v-184h-329v-430h329v-184h-329z" />
    <glyph glyph-name="bullet" unicode="&#x2022;" horiz-adv-x="833" 
d="M104 686q0 141 91 240.5t221 99.5t221.5 -99.5t91.5 -240.5q0 -140 -91.5 -239t-221.5 -99t-221 99t-91 239z" />
    <glyph glyph-name="ellipsis" unicode="&#x2026;" horiz-adv-x="1511" 
d="M1065 184q0 77 50 132t120 55q72 0 122 -55t50 -132t-50 -130.5t-122 -53.5q-71 0 -120.5 54t-49.5 130zM586 184q0 77 49 132t119 55q72 0 122 -55t50 -132t-50 -130.5t-122 -53.5q-70 0 -119 53.5t-49 130.5zM104 184q0 77 50 132t120 55q71 0 120.5 -55t49.5 -132
t-49 -130.5t-121 -53.5q-71 0 -120.5 54t-49.5 130z" />
    <glyph glyph-name="perthousand" unicode="&#x2030;" horiz-adv-x="2347" 
d="M1120 1395l150 -68q-127 -335 -392 -752.5t-491 -615.5l-106 129q146 125 316.5 362t308 488.5t214.5 456.5zM1630 872v-892h-170v61h-176v-61h-170v892h516zM2243 872v-892h-170v61h-177v-61h-170v892h517zM621 1442v-893h-170v63h-177v-63h-170v893h517zM1284 221h176
v471h-176v-471zM1896 221h177v471h-177v-471zM274 793h177v469h-177v-469z" />
    <glyph glyph-name="guilsinglleft" unicode="&#x2039;" horiz-adv-x="634" 
d="M432 -199l-418 883l418 881h186l-417 -881l417 -883h-186z" />
    <glyph glyph-name="guilsinglright" unicode="&#x203a;" horiz-adv-x="634" 
d="M618 684l-417 -883h-187l418 883l-418 881h187z" />
    <glyph glyph-name="fraction" unicode="&#x2044;" horiz-adv-x="409" 
d="M602 1395l150 -68q-127 -335 -392 -752.5t-491 -615.5l-107 129q146 125 317 362t308.5 488.5t214.5 456.5z" />
    <glyph glyph-name="uni2070" unicode="&#x2070;" horiz-adv-x="917" 
d="M815 1444v-893h-170v61h-385v-61h-170v893h725zM260 793h385v471h-385v-471z" />
    <glyph glyph-name="uni2074" unicode="&#x2074;" horiz-adv-x="899" 
d="M70 866v181h118v423h168v-423h287q0 2 0.5 10.5t2 37.5t3.5 74l170 -6q-10 -374 -160 -641l-147 80q68 119 104 264h-546z" />
    <glyph glyph-name="uni2075" unicode="&#x2075;" horiz-adv-x="956" 
d="M879 956h-37v-110q0 -151 -60 -223t-202 -72h-474v180h472q54 0 75 27t21 88v110h-330q-94 0 -143 53t-49 154v101h-86v180h776v-180h-520v-101q0 -26 22 -26h535v-181z" />
    <glyph glyph-name="uni2076" unicode="&#x2076;" horiz-adv-x="1024" 
d="M922 1130v-612h-170v60h-271q-141 0 -202.5 71.5t-61.5 220.5v82h-151v178h151v134h-84v180h776v-180h-522v-134h535zM387 870q0 -61 20.5 -86.5t75.5 -25.5h269v194h-365v-82z" />
    <glyph glyph-name="uni2077" unicode="&#x2077;" horiz-adv-x="899" 
d="M627 1137v127h-555v180h727v-297q0 -108 -35 -201t-95.5 -161t-143 -118.5t-176.5 -78.5t-197 -37l-50 178q133 0 251 46.5t196 142t78 219.5z" />
    <glyph glyph-name="uni2078" unicode="&#x2078;" horiz-adv-x="917" 
d="M815 1444v-893h-170v61h-385v-61h-170v893h725zM260 793h385v149h-385v-149zM260 1264v-146h385v146h-385z" />
    <glyph glyph-name="uni2079" unicode="&#x2079;" horiz-adv-x="899" 
d="M84 1444h725v-297q0 -108 -34.5 -201t-95 -161t-142.5 -118.5t-175.5 -78.5t-195.5 -37l-53 178q152 0 286.5 61.5t196.5 170.5h-344v-29h-168v512zM639 1264h-387v-121h387v121z" />
    <glyph glyph-name="uni2080" unicode="&#x2080;" horiz-adv-x="917" 
d="M815 872v-892h-170v61h-385v-61h-170v892h725zM260 221h385v471h-385v-471z" />
    <glyph glyph-name="uni2081" unicode="&#x2081;" horiz-adv-x="514" 
d="M250 872h170v-892h-170v432q-51 -72 -92 -117l-133 121q46 34 118.5 147t106.5 219v90z" />
    <glyph glyph-name="uni2082" unicode="&#x2082;" horiz-adv-x="952" 
d="M834 662v-306h-521v-82q0 -60 21.5 -87t75.5 -27h399v-180h-401q-142 0 -203.5 72t-61.5 222v82h-82v181h607v125h-557v180h761v-180h-38z" />
    <glyph glyph-name="uni2083" unicode="&#x2083;" horiz-adv-x="915" 
d="M815 872v-892h-170v61h-573v180h573v141h-551v179h551v151h-573v180h743z" />
    <glyph glyph-name="uni2084" unicode="&#x2084;" horiz-adv-x="899" 
d="M70 295v180h118v424h168v-424h287q0 2 0.5 10.5t2 38t3.5 74.5l170 -6q-10 -374 -160 -641l-147 80q68 119 104 264h-546z" />
    <glyph glyph-name="uni2085" unicode="&#x2085;" horiz-adv-x="956" 
d="M879 385h-37v-111q0 -151 -60 -222.5t-202 -71.5h-474v180h472q54 0 75 26.5t21 87.5v111h-330q-94 0 -143 53t-49 154v100h-86v180h776v-180h-520v-100q0 -27 22 -27h535v-180z" />
    <glyph glyph-name="uni2086" unicode="&#x2086;" horiz-adv-x="1024" 
d="M922 559v-612h-170v59h-271q-141 0 -202.5 72t-61.5 221v82h-151v178h151v133h-84v180h776v-180h-522v-133h535zM387 299q0 -61 20.5 -87t75.5 -26h269v195h-365v-82z" />
    <glyph glyph-name="uni2087" unicode="&#x2087;" horiz-adv-x="899" 
d="M627 565v127h-555v180h727v-297q0 -108 -35 -201t-95.5 -160.5t-143 -118t-176.5 -78.5t-197 -37l-50 178q99 0 192 27.5t167.5 78t120 129t45.5 172.5z" />
    <glyph glyph-name="uni2088" unicode="&#x2088;" horiz-adv-x="917" 
d="M815 872v-892h-170v61h-385v-61h-170v892h725zM260 221h385v150h-385v-150zM260 692v-145h385v145h-385z" />
    <glyph glyph-name="uni2089" unicode="&#x2089;" horiz-adv-x="899" 
d="M84 872h725v-297q0 -108 -34.5 -201t-95 -160.5t-142.5 -118t-175 -78.5t-196 -37l-53 178q152 0 286.5 61t196.5 170h-344v-29h-168v512zM639 692h-387v-121h387v121z" />
    <glyph glyph-name="Euro" unicode="&#x20ac;" horiz-adv-x="1298" 
d="M20 963h140v358h465v180h227v-180h412v-244h-877v-114h735v-181h-723q17 -83 60 -161h415v-183h-258q119 -94 275 -145t319 -51l-71 -242q-264 21 -488 133.5t-354 304.5h-221v183h131q-30 95 -39 161h-148v181z" />
    <glyph glyph-name="uni20B9" unicode="&#x20b9;" horiz-adv-x="1275" 
d="M76 1122v244h1145v-244h-148q-40 -95 -112 -192h180v-244h-393q-49 -52 -121 -113q266 -235 422 -495l-191 -121q-150 254 -420 477q-84 -53 -159 -84l-91 211q93 40 205 125h-256v244h527q105 113 141 192h-729z" />
    <glyph glyph-name="trademark" unicode="&#x2122;" horiz-adv-x="1449" 
d="M360 700h-155v549h-189v117h529v-117h-185v-549zM1380 700h-139v482l-156 -482h-141l-162 482v-482h-139v666h223l152 -461l145 461h217v-666z" />
    <glyph glyph-name="onethird" unicode="&#x2153;" horiz-adv-x="1828" 
d="M1724 872v-892h-170v61h-573v180h573v141h-550v179h550v151h-573v180h743zM330 1444h170v-893h-170v432q-51 -72 -92 -117l-134 121q46 34 119 147.5t107 219.5v90zM1004 1395l149 -68q-127 -335 -392 -752.5t-491 -615.5l-106 129q146 125 317 362t308.5 488.5
t214.5 456.5z" />
    <glyph glyph-name="twothirds" unicode="&#x2154;" horiz-adv-x="2183" 
d="M2079 872v-892h-170v61h-574v180h574v141h-551v179h551v151h-574v180h744zM877 1233v-305h-521v-82q0 -60 21.5 -87.5t75.5 -27.5h399v-180h-401q-141 0 -203 72.5t-62 222.5v82h-82v180h607v125h-557v180h761v-180h-38zM1343 1395l150 -68q-127 -335 -392 -752.5
t-491 -615.5l-106 129q146 125 316.5 362t308 488.5t214.5 456.5z" />
    <glyph glyph-name="oneeighth" unicode="&#x215b;" horiz-adv-x="1855" 
d="M330 1444h170v-893h-170v432q-51 -72 -92 -117l-134 121q46 34 119 147.5t107 219.5v90zM1022 1395l149 -68q-81 -215 -228 -480t-325.5 -510.5t-328.5 -377.5l-107 129q146 125 317 362t308.5 488.5t214.5 456.5zM1751 872v-892h-170v61h-385v-61h-170v892h725z
M1196 221h385v150h-385v-150zM1196 692v-145h385v145h-385z" />
    <glyph glyph-name="threeeighths" unicode="&#x215c;" horiz-adv-x="2156" 
d="M1346 1395l149 -68q-127 -335 -392 -752.5t-491 -615.5l-106 129q146 125 317 362t308.5 488.5t214.5 456.5zM2052 872v-892h-170v61h-385v-61h-170v892h725zM848 1444v-893h-170v61h-574v181h574v141h-551v178h551v152h-574v180h744zM1497 221h385v150h-385v-150z
M1497 692v-145h385v145h-385z" />
    <glyph glyph-name="fiveeighths" unicode="&#x215d;" horiz-adv-x="2168" 
d="M1327 1395l150 -68q-127 -335 -392 -752.5t-491 -615.5l-107 129q146 125 317 362t308.5 488.5t214.5 456.5zM2064 872v-892h-170v61h-385v-61h-170v892h725zM918 956h-37v-110q0 -151 -60.5 -223t-202.5 -72h-473v180h471q54 0 75.5 27.5t21.5 87.5v110h-330
q-94 0 -143.5 53t-49.5 154v101h-86v180h777v-180h-521v-101q0 -26 23 -26h535v-181zM1509 221h385v150h-385v-150zM1509 692v-145h385v145h-385z" />
    <glyph glyph-name="seveneighths" unicode="&#x215e;" horiz-adv-x="1986" 
d="M1151 1395l149 -68q-81 -215 -228 -480t-325.5 -510.5t-328.5 -377.5l-107 129q146 125 317 362t308.5 488.5t214.5 456.5zM1882 872v-892h-170v61h-385v-61h-170v892h725zM659 1137v127h-555v180h727v-297q0 -108 -35 -201t-95.5 -161t-143 -118.5t-176.5 -78.5
t-197 -37l-49 178q78 0 154 17t143 52t117.5 83t80 114t29.5 142zM1327 221h385v150h-385v-150zM1327 692v-145h385v145h-385z" />
    <glyph glyph-name="partialdiff" unicode="&#x2202;" horiz-adv-x="991" 
d="M408 1169v185q50 10 90 10q86 0 160 -31.5t134.5 -94.5t95 -169.5t34.5 -245.5q0 -136 -13.5 -252.5t-47 -224t-85.5 -183t-134 -120.5t-187 -45q-208 0 -296.5 109t-88.5 325q0 212 103 331.5t267 119.5q57 0 110.5 -15t106 -58t76.5 -108q10 54 10 144
q0 159 -76.5 244.5t-193.5 85.5q-33 0 -65 -7zM713 504q-25 100 -87 147t-173 47q-92 0 -147.5 -70t-55.5 -198q0 -122 53 -185t152 -63q109 0 172 79t86 243z" />
    <glyph glyph-name="product" unicode="&#x220f;" horiz-adv-x="1118" 
d="M1014 -334h-215v1661h-480v-1661h-215v1835h910v-1835z" />
    <glyph glyph-name="summation" unicode="&#x2211;" horiz-adv-x="987" 
d="M903 -311h-778v147l403 797l-403 797v149h778v-205h-506l348 -741l-348 -742h506v-202z" />
    <glyph glyph-name="minus" unicode="&#x2212;" horiz-adv-x="1333" 
d="M104 799h1125v-246h-1125v246z" />
    <glyph glyph-name="radical" unicode="&#x221a;" horiz-adv-x="1497" 
d="M41 799h369l295 -555l589 1220l205 -98l-665 -1366h-259l-290 553h-244v246z" />
    <glyph glyph-name="infinity" unicode="&#x221e;" horiz-adv-x="1343" 
d="M672 502q-92 -207 -324 -207q-134 0 -221.5 93.5t-87.5 266.5q0 175 88 271t221 96q118 0 194 -52t130 -157q54 105 129 157t194 52q133 0 220.5 -96t87.5 -271q0 -173 -87 -266.5t-221 -93.5q-122 0 -199.5 52t-123.5 155zM598 651q-42 94 -92.5 139.5t-124.5 45.5
q-84 0 -130 -48.5t-46 -132.5q0 -184 176 -184q146 0 217 180zM748 651q61 -180 215 -180q176 0 176 184q0 84 -46.5 132.5t-129.5 48.5q-77 0 -128 -45.5t-87 -139.5z" />
    <glyph glyph-name="integral" unicode="&#x222b;" horiz-adv-x="681" 
d="M236 -37v1288q0 135 64 203t210 68q83 0 141 -21v-155q-41 14 -96 14q-58 0 -85.5 -26t-27.5 -89v-1294q0 -131 -65 -197.5t-211 -66.5q-92 0 -139 20v154q35 -13 94 -13q60 0 87.5 26t27.5 89z" />
    <glyph glyph-name="approxequal" unicode="&#x2248;" horiz-adv-x="1359" 
d="M231 209l-127 207q46 85 120.5 125.5t148.5 40.5q71 0 163 -34t183.5 -68t161.5 -34q74 0 140.5 38t106.5 116l127 -209q-42 -89 -132 -135.5t-195 -46.5q-63 0 -137 21.5t-129.5 48t-121 48t-114.5 21.5q-122 0 -195 -139zM231 754l-127 207q46 85 120.5 125t148.5 40
q57 0 127.5 -21t127 -46.5t127 -46.5t126.5 -21q74 0 140.5 38t106.5 116l127 -209q-42 -89 -132 -135.5t-195 -46.5q-63 0 -137 21.5t-129.5 48t-121 48t-114.5 21.5q-122 0 -195 -139z" />
    <glyph glyph-name="notequal" unicode="&#x2260;" horiz-adv-x="1333" 
d="M1012 1395l149 -68q-52 -138 -133 -299h137v-244h-268q-73 -126 -133 -215h465v-245h-631q-186 -250 -319 -365l-107 129q95 80 221 236h-289v245h467q60 87 138 215h-541v244h676q85 157 168 367z" />
    <glyph glyph-name="lessequal" unicode="&#x2264;" horiz-adv-x="1191" 
d="M997 90l-893 465v260l885 467l98 -205l-739 -391l739 -391zM41 -37h1124v-246h-1124v246z" />
    <glyph glyph-name="greaterequal" unicode="&#x2265;" horiz-adv-x="1191" 
d="M1087 555l-892 -465l-91 205l738 391l-738 391l99 205l884 -467v-260zM41 -37h1124v-246h-1124v246z" />
    <glyph glyph-name="lozenge" unicode="&#x25ca;" horiz-adv-x="1062" 
d="M401 0l-358 684l358 682h258l361 -682l-361 -684h-258zM530 1122l-233 -438l233 -440l232 440z" />
    <glyph glyph-name="uniE000" unicode="&#xe000;" horiz-adv-x="1253" 
d="M770 1501v-180h412v-244h-879v-172q0 -123 47 -230.5t127 -185.5t185 -134.5t223.5 -84.5t240.5 -28l-71 -242q-155 12 -297.5 55.5t-267.5 121.5t-216.5 183t-144.5 249t-53 311v401h465v180h229z" />
    <glyph glyph-name="uniE001" unicode="&#xe001;" horiz-adv-x="1302" 
d="M369 1501l174 158q122 -94 229 -250l-110 -98h475l32 -226l-507 -628q12 2 34 2q102 0 238 -127q96 -90 134 -114.5t83 -24.5q31 0 68 22l32 -229q-24 -17 -65.5 -28t-69.5 -11q-64 0 -127 34t-149 121q-69 69 -123.5 98t-128.5 29q-80 0 -151 -60t-206 -237l-170 150
l787 981h-739v248h442q-84 110 -182 190z" />
    <glyph glyph-name="CR" horiz-adv-x="653" 
 />
    </font>
</defs>
</svg>
