<?xml version="1.0" standalone="no"?>
<!DOCTYPE svg PUBLIC "-//W3C//DTD SVG 1.1//EN" "http://www.w3.org/Graphics/SVG/1.1/DTD/svg11.dtd" >
<svg xmlns="http://www.w3.org/2000/svg" xmlns:xlink="http://www.w3.org/1999/xlink" version="1.1">
<metadata>
Created by FontForge 20201107 at Tue Aug 24 12:03:24 2021
 By 
(c) 2021 Microsoft Corporation. All Rights Reserved.
</metadata>
<defs>
<font id="SegoeUIVariable" horiz-adv-x="0" >
  <font-face 
    font-family="Segoe UI Variable"
    font-weight="400"
    font-stretch="normal"
    units-per-em="2048"
    panose-1="0 0 0 0 0 0 0 0 0 0"
    ascent="1638"
    descent="-410"
    x-height="1024"
    cap-height="1434"
    bbox="-794 -621 2681 2150"
    underline-thickness="119"
    underline-position="-236"
    unicode-range="U+000D-FB06"
  />
<missing-glyph horiz-adv-x="1322" 
d="M166 0v1398h990v-1398h-990zM314 148h694v1102h-694v-1102z" />
    <glyph glyph-name=".notdef" horiz-adv-x="1322" 
d="M166 0v1398h990v-1398h-990zM314 148h694v1102h-694v-1102z" />
    <glyph glyph-name=".null" unicode="&#xd;" 
 />
    <glyph glyph-name=".null" 
 />
    <glyph glyph-name="nonmarkingreturn" horiz-adv-x="682" 
 />
    <glyph glyph-name="space" unicode=" " horiz-adv-x="561" 
 />
    <glyph glyph-name="exclam" unicode="!" horiz-adv-x="582" 
d="M374 1434l-18 -1030h-135l-18 1030h171zM291 -18q-49 0 -82.5 33t-33.5 81t33.5 81t82.5 33t82.5 -33t33.5 -81t-33.5 -81t-82.5 -33z" />
    <glyph glyph-name="quotedbl" unicode="&#x22;" horiz-adv-x="803" 
d="M308 1434v-447h-145v447h145zM640 1434v-447h-145v447h145z" />
    <glyph glyph-name="numbersign" unicode="#" horiz-adv-x="1210" 
d="M336 123h-125l84 397h-262l20 106h265l61 300h-277l21 106h277l84 402h126l-84 -402h252l86 402h123l-84 -402h263l-23 -106h-261l-63 -300h281l-27 -106h-275l-88 -397h-126l86 397h-250zM506 926l-66 -300h254l64 300h-252z" />
    <glyph glyph-name="dollar" unicode="$" horiz-adv-x="1104" 
d="M612 -18v-191h-104v185q-134 2 -247 46t-198 120l98 133q74 -68 160.5 -106.5t186.5 -41.5v537q-194 72 -287.5 162.5t-93.5 237.5q0 166 102 268.5t279 121.5v162h104v-159q104 -4 200 -42t172 -101l-115 -120q-51 47 -116.5 76.5t-140.5 35.5v-497q206 -76 296 -171
t90 -255q0 -155 -101 -266t-285 -135zM508 849v455q-103 -13 -158 -70t-55 -154q0 -80 49.5 -131.5t163.5 -99.5zM612 623v-489q98 17 158 76t60 158q0 90 -51.5 148t-166.5 107z" />
    <glyph glyph-name="percent" unicode="%" horiz-adv-x="1676" 
d="M404 715q-148 0 -236 97.5t-88 260.5q0 178 93 280.5t251 102.5q153 0 237.5 -95t84.5 -267t-94.5 -275.5t-247.5 -103.5zM418 1346q-95 0 -150 -70.5t-55 -193.5q0 -121 54 -188.5t147 -67.5q94 0 147 70t53 194q0 121 -52.5 188.5t-143.5 67.5zM1363 1435l-917 -1445
h-143l917 1445h143zM1258 -22q-148 0 -236 98t-88 260q0 178 94 281.5t250 103.5q152 0 237 -96t85 -269q0 -171 -94.5 -274.5t-247.5 -103.5zM1272 608q-96 0 -150.5 -70t-54.5 -194q0 -119 54 -186.5t147 -67.5q94 0 147 70.5t53 193.5q0 122 -52.5 188t-143.5 66z" />
    <glyph glyph-name="ampersand" unicode="&#x26;" horiz-adv-x="1639" 
d="M1345 0l-172 167q-80 -76 -200.5 -133t-281.5 -57q-215 0 -351 106t-136 307q0 147 80 252.5t226 174.5q-76 86 -107.5 160.5t-31.5 152.5q0 158 107 243t265 85q155 0 253.5 -82.5t98.5 -221.5q0 -118 -66 -198t-279 -171l424 -408q69 90 100 187.5t31 235.5h156
q0 -154 -46 -278t-140 -242l290 -280h-220zM658 876q168 61 225.5 119.5t57.5 144.5q0 99 -64.5 143t-133.5 44q-98 0 -157 -53t-59 -144q0 -69 33.5 -127.5t97.5 -126.5zM1073 265l-470 458q-102 -46 -167 -121t-65 -207q0 -134 92 -205t228 -71q125 0 219 42.5t163 103.5z
" />
    <glyph glyph-name="quotesingle" unicode="'" horiz-adv-x="471" 
d="M308 987h-145v447h145v-447z" />
    <glyph glyph-name="parenleft" unicode="(" horiz-adv-x="618" 
d="M596 -326h-146q-155 177 -232.5 395.5t-77.5 477.5q0 261 77.5 482.5t232.5 404.5h148q-157 -190 -235.5 -411t-78.5 -474q0 -250 78 -469t234 -406z" />
    <glyph glyph-name="parenright" unicode=")" horiz-adv-x="618" 
d="M170 -326h-146q156 187 234 406t78 469q0 253 -78.5 474t-235.5 411h148q156 -183 234 -404.5t78 -482.5q0 -259 -78 -477.5t-234 -395.5z" />
    <glyph glyph-name="asterisk" unicode="*" horiz-adv-x="854" 
d="M780 1104l-274 -56l190 -243l-110 -76l-156 265l-158 -265l-110 76l190 243l-276 56l45 125l262 -99l-23 304h138l-23 -304l263 99z" />
    <glyph glyph-name="plus" unicode="+" horiz-adv-x="1401" 
d="M1171 530h-404v-403h-133v403h-403v134h403v403h133v-403h404v-134z" />
    <glyph glyph-name="comma" unicode="," horiz-adv-x="444" 
d="M315 228l-159 -492h-117l117 492h159z" />
    <glyph glyph-name="hyphen" unicode="-" horiz-adv-x="819" 
d="M144 506v129h546v-129h-546z" />
    <glyph glyph-name="hyphen" unicode="&#x2010;" horiz-adv-x="819" 
d="M144 506v129h546v-129h-546z" />
    <glyph glyph-name="period" unicode="." horiz-adv-x="444" 
d="M222 -22q-48 0 -82 33.5t-34 80.5q0 46 34 80t82 34t82 -34t34 -80q0 -47 -34 -80.5t-82 -33.5z" />
    <glyph glyph-name="slash" unicode="/" horiz-adv-x="798" 
d="M806 1434l-677 -1647h-137l677 1647h137z" />
    <glyph glyph-name="zero" unicode="0" horiz-adv-x="1104" 
d="M538 -25q-216 0 -334.5 185.5t-118.5 527.5q0 375 124 572.5t359 197.5q226 0 338.5 -183.5t112.5 -551.5q0 -362 -127 -555t-354 -193zM560 1319q-153 0 -230 -155.5t-77 -467.5q0 -290 75 -435.5t226 -145.5q149 0 223 148t74 444q0 306 -73 459t-218 153z" />
    <glyph glyph-name="one" unicode="1" horiz-adv-x="776" 
d="M532 0h-164v1228q-37 -33 -131.5 -78t-167.5 -64l-47 144q115 30 244.5 98t203.5 138h62v-1466z" />
    <glyph glyph-name="two" unicode="2" horiz-adv-x="1104" 
d="M124 0v71q0 92 20 162t66 133t120.5 126t182.5 142q78 56 130.5 107t84.5 102q28 42 43.5 97t15.5 113q0 118 -68 192t-187 74q-96 0 -180.5 -36t-157.5 -111l-100 96q94 97 203 143.5t244 46.5q202 0 307.5 -118t105.5 -273q0 -79 -21.5 -152.5t-60.5 -130.5
q-40 -62 -98 -119t-138 -116q-101 -70 -166.5 -120t-103.5 -93q-39 -44 -55 -88t-16 -101h714v-147h-885z" />
    <glyph glyph-name="three" unicode="3" horiz-adv-x="1104" 
d="M108 97l76 118q80 -52 160.5 -76t163.5 -24q160 0 239.5 76t79.5 194q0 146 -100 216.5t-300 70.5h-119v139h113q177 0 265.5 66t88.5 206q0 114 -69.5 175t-166.5 61q-83 0 -158.5 -26t-146.5 -81l-86 109q91 71 187 104t211 33q180 0 288.5 -95t108.5 -260
q0 -128 -71.5 -219.5t-214.5 -131.5v-4q146 -16 242 -107.5t96 -241.5q0 -198 -131.5 -311t-342.5 -113q-117 0 -216 29t-197 93z" />
    <glyph glyph-name="four" unicode="4" horiz-adv-x="1104" 
d="M897 1446v-964h154v-153h-154v-343h-163v343h-681v145q95 108 192 230.5t186 248.5q88 126 163 252t127 241h176zM240 482h494v714q-76 -133 -143.5 -238t-128.5 -190q-62 -86 -117.5 -155t-104.5 -131z" />
    <glyph glyph-name="five" unicode="5" horiz-adv-x="1104" 
d="M101 117l86 111q75 -59 153.5 -86t171.5 -27q141 0 232 87.5t91 225.5q0 140 -94 219.5t-273 79.5q-58 0 -125.5 -3t-117.5 -9l49 719h663v-148h-521l-29 -421q32 2 68 3.5t64 1.5q226 0 355 -115.5t129 -316.5q0 -209 -138 -336t-351 -127q-120 0 -219.5 34.5
t-193.5 107.5z" />
    <glyph glyph-name="six" unicode="6" horiz-adv-x="1104" 
d="M1007 455q0 -218 -128.5 -349t-322.5 -131q-215 0 -337.5 170t-122.5 486q0 154 29.5 313t122.5 291q83 117 187.5 170t245.5 53q76 0 148 -23.5t141 -73.5l-82 -113q-50 37 -102.5 54t-114.5 17q-89 0 -160 -37.5t-134 -123.5q-54 -74 -82.5 -183t-28.5 -241h4
q61 82 147.5 122.5t179.5 40.5q186 0 298 -124t112 -318zM839 443q0 157 -73 236t-189 79q-138 0 -219.5 -85t-81.5 -204q0 -156 79.5 -255t207.5 -99q124 0 200 84.5t76 243.5z" />
    <glyph glyph-name="seven" unicode="7" horiz-adv-x="1104" 
d="M1008 1339q-174 -305 -317.5 -631t-201.5 -708h-176q55 360 206 697t296 589h-719v148h912v-95z" />
    <glyph glyph-name="eight" unicode="8" horiz-adv-x="1104" 
d="M87 400q0 113 69 221.5t196 156.5q-93 52 -148 133.5t-55 180.5q0 158 115.5 262t287.5 104q174 0 288.5 -105t114.5 -261q0 -99 -55 -180.5t-146 -133.5q125 -48 194 -156.5t69 -221.5q0 -186 -128.5 -304.5t-336.5 -118.5q-205 0 -335 118t-130 305zM265 414
q0 -135 79.5 -213.5t208.5 -78.5q125 0 207 79.5t82 212.5q0 120 -78.5 205.5t-210.5 85.5q-124 0 -206 -81.5t-82 -209.5zM316 1079q0 -102 69.5 -171t167.5 -69q97 0 167.5 69.5t70.5 170.5q0 104 -69 172.5t-169 68.5q-106 0 -171.5 -70.5t-65.5 -170.5z" />
    <glyph glyph-name="nine" unicode="9" horiz-adv-x="1104" 
d="M1011 803q0 -409 -137.5 -618.5t-427.5 -209.5q-105 0 -190.5 33t-163.5 103l96 107q57 -51 119.5 -75t147.5 -24q188 0 289 142t101 456h-4q-46 -93 -126 -139t-194 -46q-185 0 -302.5 125t-117.5 322q0 213 131 346t330 133q217 0 333 -171t116 -484zM834 950
q0 165 -80.5 267t-205.5 102q-118 0 -198.5 -90t-80.5 -228q0 -153 80 -238t209 -85q114 0 195 79t81 193z" />
    <glyph glyph-name="colon" unicode=":" horiz-adv-x="444" 
d="M222 818q-48 0 -82 33.5t-34 80.5q0 48 34 81t82 33t82 -33t34 -81q0 -47 -34 -80.5t-82 -33.5zM222 -22q-48 0 -82 33.5t-34 80.5q0 46 34 80t82 34t82 -34t34 -80q0 -47 -34 -80.5t-82 -33.5z" />
    <glyph glyph-name="semicolon" unicode=";" horiz-adv-x="444" 
d="M226 818q-49 0 -82.5 33.5t-33.5 80.5q0 48 33.5 81t82.5 33q48 0 82 -33t34 -81q0 -47 -34 -80.5t-82 -33.5zM316 228l-160 -492h-117l117 492h160z" />
    <glyph glyph-name="less" unicode="&#x3c;" horiz-adv-x="1401" 
d="M1132 127l-860 432v59l860 482v-150l-642 -356v-4l642 -314v-149z" />
    <glyph glyph-name="equal" unicode="=" horiz-adv-x="1401" 
d="M1171 744h-940v132h940v-132zM1171 318h-940v132h940v-132z" />
    <glyph glyph-name="greater" unicode="&#x3e;" horiz-adv-x="1401" 
d="M1131 559l-859 -432v149l643 312v6l-643 356v150l859 -482v-59z" />
    <glyph glyph-name="question" unicode="?" horiz-adv-x="918" 
d="M346 389q-14 30 -25 77.5t-11 94.5q0 61 26.5 109t64.5 90q40 44 84 86t82 84q38 43 63.5 89.5t25.5 102.5q0 96 -69 146.5t-163 50.5q-71 0 -148.5 -37.5t-132.5 -98.5l-102 102q74 76 174 124.5t217 48.5q164 0 274.5 -79.5t110.5 -235.5q0 -74 -26 -132t-65 -107
q-40 -48 -84.5 -91.5t-87.5 -82.5q-39 -36 -66.5 -75.5t-27.5 -87.5q0 -38 11.5 -69.5t21.5 -53.5zM425 -18q-46 0 -81 33t-35 81q0 49 34 81.5t82 32.5t82 -32.5t34 -81.5q0 -48 -35 -81t-81 -33z" />
    <glyph glyph-name="at" unicode="@" horiz-adv-x="1956" 
d="M1164 420h-5q-36 -119 -108 -178.5t-179 -59.5q-137 0 -220.5 101t-83.5 272q0 226 115.5 375.5t303.5 149.5q72 0 128.5 -37t72.5 -93h4l10 115h125q-23 -275 -35 -415.5t-12 -145.5q0 -103 30 -155t89 -52q108 0 179.5 117t71.5 303q0 275 -174 449t-482 174
q-297 0 -491 -208t-194 -520q0 -307 184.5 -495.5t497.5 -188.5q119 0 221 20t187 59l45 -105q-95 -43 -209.5 -66.5t-253.5 -23.5q-364 0 -586.5 219.5t-222.5 574.5q0 366 233.5 607t596.5 241q340 0 563 -202t223 -527q0 -238 -117.5 -390.5t-286.5 -152.5
q-109 0 -164 59.5t-56 178.5zM985 964q-124 0 -200.5 -118t-76.5 -293q0 -118 51.5 -186t137.5 -68q124 0 196.5 123.5t72.5 327.5q0 107 -45 160.5t-136 53.5z" />
    <glyph glyph-name="A" unicode="A" horiz-adv-x="1321" 
d="M22 0l550 1434h174l552 -1434h-186l-145 384h-621l-137 -384h-187zM402 535h510l-232 629q-6 15 -11 39t-11 57h-4q-5 -30 -10.5 -54t-12.5 -42z" />
    <glyph glyph-name="B" unicode="B" horiz-adv-x="1174" 
d="M188 0v1434h409q186 0 294.5 -88.5t108.5 -239.5q0 -122 -66 -212t-182 -128v-4q145 -17 232 -109.5t87 -240.5q0 -184 -132 -298t-333 -114h-418zM356 1282v-463h172q138 0 217 66.5t79 187.5q0 105 -69 157t-205 52h-194zM356 668v-516h228q148 0 229.5 70t81.5 192
q0 127 -86.5 190.5t-259.5 63.5h-193z" />
    <glyph glyph-name="C" unicode="C" horiz-adv-x="1268" 
d="M1198 72q-104 -50 -203 -73t-215 -23q-325 0 -505.5 197t-180.5 517q0 351 201.5 559.5t525.5 208.5q101 0 189.5 -19t183.5 -61l-62 -138q-79 35 -153 50.5t-160 15.5q-252 0 -400.5 -162.5t-148.5 -443.5q0 -263 142.5 -418t377.5 -155q87 0 170.5 19t170.5 62z" />
    <glyph glyph-name="D" unicode="D" horiz-adv-x="1436" 
d="M188 0v1434h396q379 0 568.5 -174.5t189.5 -524.5q0 -332 -210.5 -533.5t-563.5 -201.5h-380zM356 1282v-1130h214q282 0 439 151t157 428q0 276 -146.5 413.5t-439.5 137.5h-224z" />
    <glyph glyph-name="E" unicode="E" horiz-adv-x="1036" 
d="M948 0h-760v1434h728v-152h-560v-477h518v-151h-518v-502h592v-152z" />
    <glyph glyph-name="F" unicode="F" horiz-adv-x="1000" 
d="M916 1282h-560v-496h518v-151h-518v-635h-168v1434h728v-152z" />
    <glyph glyph-name="G" unicode="G" horiz-adv-x="1405" 
d="M1260 98q-108 -61 -228 -91.5t-252 -30.5q-315 0 -500.5 190t-185.5 532q0 349 207.5 554.5t532.5 205.5q119 0 221 -24.5t208 -78.5l-69 -136q-89 46 -175 66.5t-186 20.5q-246 0 -404.5 -156t-158.5 -440q0 -288 139 -435.5t392 -147.5q84 0 157 16.5t134 50.5v402
h-314v152h482v-650z" />
    <glyph glyph-name="H" unicode="H" horiz-adv-x="1454" 
d="M1266 0h-168v654h-742v-654h-168v1434h168v-629h742v629h168v-1434z" />
    <glyph glyph-name="I" unicode="I" horiz-adv-x="545" 
d="M356 0h-168v1434h168v-1434z" />
    <glyph glyph-name="J" unicode="J" horiz-adv-x="731" 
d="M555 410q0 -205 -90 -319.5t-280 -114.5q-48 0 -89 6t-86 20l44 145q34 -11 64.5 -15.5t61.5 -4.5q100 0 153.5 64t53.5 217v1026h168v-1024z" />
    <glyph glyph-name="K" unicode="K" horiz-adv-x="1188" 
d="M1186 0h-234l-554 656q-15 19 -24.5 31.5t-13.5 18.5h-4v-706h-168v1434h168v-674h4q7 11 16.5 23.5t21.5 25.5l536 625h209l-615 -688z" />
    <glyph glyph-name="L" unicode="L" horiz-adv-x="964" 
d="M932 0h-744v1434h168v-1282h576v-152z" />
    <glyph glyph-name="M" unicode="M" horiz-adv-x="1839" 
d="M1650 0h-167v962q0 57 3.5 127t10.5 152h-4q-12 -48 -22.5 -83t-20.5 -56l-490 -1102h-82l-489 1094q-10 24 -21 61t-22 86h-4q4 -43 6 -113t2 -168v-960h-162v1434h222l440 -1000q26 -57 42.5 -100t23.5 -72h6q22 59 39 103t30 73l449 996h210v-1434z" />
    <glyph glyph-name="N" unicode="N" horiz-adv-x="1532" 
d="M1344 0h-206l-738 1143q-14 22 -25.5 44.5t-20.5 45.5h-6q4 -23 6 -72t2 -125v-1036h-168v1434h218l718 -1125q23 -35 37.5 -59t20.5 -37h4q-5 31 -7.5 84t-2.5 127v1010h168v-1434z" />
    <glyph glyph-name="O" unicode="O" horiz-adv-x="1544" 
d="M766 -24q-305 0 -488.5 201t-183.5 523q0 346 187 552t509 206q297 0 478.5 -200t181.5 -523q0 -351 -186 -555t-498 -204zM766 127q236 0 372 154t136 431q0 284 -132 439t-364 155q-226 0 -367 -163t-141 -428t137.5 -426.5t358.5 -161.5z" />
    <glyph glyph-name="P" unicode="P" horiz-adv-x="1147" 
d="M356 526v-526h-168v1434h394q230 0 356.5 -114t126.5 -322q0 -207 -140.5 -339.5t-379.5 -132.5h-189zM356 1282v-604h176q174 0 265.5 81.5t91.5 230.5q0 146 -84 219t-252 73h-197z" />
    <glyph glyph-name="Q" unicode="Q" horiz-adv-x="1544" 
d="M768 -24q-303 0 -488.5 200t-185.5 524q0 349 189.5 553.5t508.5 204.5q296 0 473 -200t177 -523q0 -217 -74.5 -382t-205.5 -257l288 -203l-102 -140l-342 258q-54 -16 -114 -25.5t-124 -9.5zM780 1306q-226 0 -368 -163t-142 -428q0 -262 137.5 -425t360.5 -163
q236 0 367 154t131 431q0 285 -127 439.5t-359 154.5z" />
    <glyph glyph-name="R" unicode="R" horiz-adv-x="1225" 
d="M1204 0h-200l-246 407q-69 114 -118 146.5t-119 32.5h-165v-586h-168v1434h428q187 0 311.5 -99t124.5 -292q0 -152 -79 -255t-217 -149v-4q45 -27 79 -59t72 -94zM356 1282v-544h228q125 0 208.5 81t83.5 210q0 115 -74.5 184t-215.5 69h-230z" />
    <glyph glyph-name="S" unicode="S" horiz-adv-x="1088" 
d="M64 110l82 126q88 -57 176 -83t205 -26q131 0 215.5 61.5t84.5 179.5q0 105 -71.5 168t-234.5 122q-202 73 -299.5 164.5t-97.5 241.5q0 176 126.5 285t332.5 109q96 0 188 -20.5t190 -66.5l-63 -135q-82 38 -159.5 55t-167.5 17q-129 0 -204 -60.5t-75 -167.5
q0 -94 69 -150t230 -114q216 -78 310 -174t94 -259q0 -174 -126 -290.5t-354 -116.5q-128 0 -236 32t-215 102z" />
    <glyph glyph-name="T" unicode="T" horiz-adv-x="1073" 
d="M1034 1282h-414v-1282h-168v1282h-413v152h995v-152z" />
    <glyph glyph-name="U" unicode="U" horiz-adv-x="1407" 
d="M1237 581q0 -303 -136 -454t-409 -151q-261 0 -391.5 145t-130.5 436v877h168v-866q0 -220 93 -330.5t279 -110.5q180 0 269.5 106.5t89.5 319.5v881h168v-853z" />
    <glyph glyph-name="V" unicode="V" horiz-adv-x="1272" 
d="M1254 1434l-531 -1434h-185l-520 1434h187l397 -1137q10 -27 17 -59t12 -68h4q4 30 12.5 62.5t20.5 66.5l405 1135h181z" />
    <glyph glyph-name="W" unicode="W" horiz-adv-x="1913" 
d="M1884 1434l-405 -1434h-197l-295 1048q-9 34 -15 70.5t-8 75.5h-4q-3 -37 -9.5 -73t-16.5 -71l-297 -1050h-195l-420 1434h185l305 -1100q10 -34 16 -70t8 -74h5q3 27 10.5 63t20.5 81l317 1100h161l304 -1108q8 -28 14 -61.5t10 -72.5h4q2 26 9 60.5t18 77.5l293 1104
h182z" />
    <glyph glyph-name="X" unicode="X" horiz-adv-x="1208" 
d="M1178 0h-205l-330 549q-8 13 -16 30.5t-17 40.5h-4q-5 -12 -13.5 -29.5t-20.5 -41.5l-340 -549h-206l480 721l-442 713h206l293 -504q14 -25 27 -50t24 -50h4q16 33 30 59t26 45l305 500h193l-451 -711z" />
    <glyph glyph-name="Y" unicode="Y" horiz-adv-x="1132" 
d="M1117 1434l-473 -904v-530h-168v526l-461 908h191l321 -648q3 -6 12 -28t23 -60h3q5 17 14.5 39t23.5 49l336 648h178z" />
    <glyph glyph-name="Z" unicode="Z" horiz-adv-x="1168" 
d="M1104 0h-1071v47l833 1235h-766v152h1024v-40l-840 -1242h820v-152z" />
    <glyph glyph-name="bracketleft" unicode="[" horiz-adv-x="618" 
d="M568 -326h-368v1760h368v-119h-222v-1522h222v-119z" />
    <glyph glyph-name="backslash" unicode="\" horiz-adv-x="776" 
d="M787 -213h-137l-661 1647h137z" />
    <glyph glyph-name="bracketright" unicode="]" horiz-adv-x="618" 
d="M417 -326h-367v119h221v1522h-221v119h367v-1760z" />
    <glyph glyph-name="asciicircum" unicode="^" horiz-adv-x="1401" 
d="M1174 624h-150l-332 619h-6l-309 -619h-147l422 834h65z" />
    <glyph glyph-name="underscore" unicode="_" horiz-adv-x="850" 
d="M850 -297h-850v119h850v-119z" />
    <glyph glyph-name="grave" unicode="`" horiz-adv-x="549" 
d="M471 1218h-127l-262 328h168z" />
    <glyph glyph-name="a" unicode="a" horiz-adv-x="1042" 
d="M891 0h-164v160h-4q-53 -92 -130.5 -138t-180.5 -46q-144 0 -233 84t-89 223q0 131 90 217t255 110l292 39v23q0 129 -60 183.5t-160 54.5q-80 0 -154 -30t-139 -92l-96 99q86 83 183 122t216 39q186 0 280 -95.5t94 -286.5v-666zM727 416v102l-247 -34
q-113 -16 -170 -57t-57 -129q0 -92 53.5 -140.5t130.5 -48.5q133 0 211.5 87t78.5 220z" />
    <glyph glyph-name="b" unicode="b" horiz-adv-x="1204" 
d="M334 132h-4v-132h-164v1516h164v-672h4q61 102 149.5 153t204.5 51q197 0 308.5 -137.5t111.5 -368.5q0 -257 -125 -411.5t-342 -154.5q-101 0 -178 39t-129 117zM330 561v-143q0 -127 82.5 -215.5t209.5 -88.5q149 0 233.5 114t84.5 317q0 171 -79 268t-214 97
q-143 0 -230 -99.5t-87 -249.5z" />
    <glyph glyph-name="c" unicode="c" horiz-adv-x="946" 
d="M886 61q-71 -44 -142 -64.5t-155 -20.5q-216 0 -354.5 134t-138.5 380q0 250 139.5 404t383.5 154q79 0 150.5 -19t144.5 -62l-69 -120q-57 32 -112 47t-120 15q-169 0 -259 -113t-90 -287q0 -192 94.5 -293t244.5 -101q49 0 102.5 15.5t107.5 48.5z" />
    <glyph glyph-name="d" unicode="d" horiz-adv-x="1206" 
d="M872 174q-57 -99 -144.5 -148.5t-207.5 -49.5q-193 0 -308.5 137.5t-115.5 374.5q0 254 128 407t341 153q106 0 182.5 -41.5t124.5 -124.5h4v634h164v-1516h-164v174h-4zM264 496q0 -177 82.5 -279.5t221.5 -102.5q138 0 223 99t85 250v151q0 124 -82.5 210t-207.5 86
q-150 0 -236 -110t-86 -304z" />
    <glyph glyph-name="e" unicode="e" horiz-adv-x="1071" 
d="M989 475h-724q4 -173 91.5 -266.5t245.5 -93.5q69 0 138.5 20.5t137.5 65.5l76 -117q-87 -56 -174 -82t-191 -26q-232 0 -362 138t-131 385t130.5 398t341.5 151q200 0 310.5 -130.5t110.5 -361.5v-81zM821 609q-1 142 -69 221.5t-187 79.5q-117 0 -198.5 -81.5
t-99.5 -219.5h554z" />
    <glyph glyph-name="f" unicode="f" horiz-adv-x="641" 
d="M655 1382q-28 9 -50.5 13t-47.5 4q-84 0 -125 -45t-41 -132v-198h240v-140h-240v-884h-163v884h-175v140h175v206q0 145 89 226.5t244 81.5q38 0 69 -5.5t64 -16.5z" />
    <glyph glyph-name="g" unicode="g" horiz-adv-x="1206" 
d="M1040 55q0 -269 -137.5 -403t-376.5 -134q-105 0 -195.5 20t-186.5 65l60 126q80 -37 156.5 -54t163.5 -17q164 0 258 93t94 282v139h-4q-58 -98 -146 -147t-206 -49q-191 0 -307.5 136.5t-116.5 366.5q0 252 128.5 410.5t340.5 158.5q104 0 180.5 -41.5t126.5 -124.5h4
v142h164v-969zM876 463v151q0 122 -82.5 209t-205.5 87q-151 0 -237.5 -104t-86.5 -316q0 -182 80 -279t221 -97q138 0 224.5 98t86.5 251z" />
    <glyph glyph-name="h" unicode="h" horiz-adv-x="1159" 
d="M1016 0h-164v590q0 160 -59.5 240t-178.5 80q-120 0 -202 -92.5t-82 -237.5v-580h-164v1516h164v-662h4q59 97 143 145.5t193 48.5q173 0 259.5 -104t86.5 -313v-631z" />
    <glyph glyph-name="i" unicode="i" horiz-adv-x="496" 
d="M250 1269q-50 0 -84 33.5t-34 82.5t34 82.5t84 33.5t84 -33.5t34 -82.5t-34 -82.5t-84 -33.5zM330 0h-164v1024h164v-1024z" />
    <glyph glyph-name="j" unicode="j" horiz-adv-x="496" 
d="M250 1269q-50 0 -84 33.5t-34 82.5t34 82.5t84 33.5t84 -33.5t34 -82.5t-34 -82.5t-84 -33.5zM328 -29q0 -241 -87 -347t-266 -106q-39 0 -71.5 5t-69.5 16l35 139q31 -11 56 -15.5t51 -4.5q105 0 146.5 69.5t41.5 232.5v1064h164v-1053z" />
    <glyph glyph-name="k" unicode="k" horiz-adv-x="1018" 
d="M1016 0h-230l-452 492h-4v-492h-164v1516h164v-961h4l430 469h215l-475 -494z" />
    <glyph glyph-name="l" unicode="l" horiz-adv-x="496" 
d="M166 0v1516h164v-1516h-164z" />
    <glyph glyph-name="m" unicode="m" horiz-adv-x="1764" 
d="M1620 0h-164v588q0 170 -52.5 246t-176.5 76q-105 0 -178.5 -96t-73.5 -230v-584h-164v608q0 151 -58 226.5t-175 75.5q-108 0 -178 -90.5t-70 -235.5v-584h-164v1024h164v-162h4q55 93 134.5 139.5t183.5 46.5q105 0 183 -58.5t107 -153.5q57 106 142 159t198 53
q169 0 253.5 -104t84.5 -313v-631z" />
    <glyph glyph-name="n" unicode="n" horiz-adv-x="1159" 
d="M1016 0h-164v584q0 163 -59.5 244.5t-178.5 81.5q-123 0 -203.5 -92.5t-80.5 -233.5v-584h-164v1024h164v-170h4q58 97 142 145.5t194 48.5q168 0 257 -108.5t89 -313.5v-626z" />
    <glyph glyph-name="o" unicode="o" horiz-adv-x="1200" 
d="M594 -24q-227 0 -362.5 143.5t-135.5 380.5q0 257 140 402t382 146q229 1 357.5 -141t128.5 -391q0 -246 -138.5 -393t-371.5 -147zM606 114q159 0 244.5 103.5t85.5 292.5q0 193 -86 296.5t-244 103.5t-250 -108t-92 -296q0 -182 93 -287t249 -105z" />
    <glyph glyph-name="p" unicode="p" horiz-adv-x="1204" 
d="M334 148h-4v-619h-164v1495h164v-180h4q61 102 149.5 153t204.5 51q198 0 309 -137.5t111 -368.5q0 -257 -125 -411.5t-342 -154.5q-99 0 -176 43t-131 129zM330 561v-143q0 -127 82.5 -215.5t209.5 -88.5q149 0 233.5 114t84.5 317q0 171 -79 268t-214 97
q-143 0 -230 -99.5t-87 -249.5z" />
    <glyph glyph-name="q" unicode="q" horiz-adv-x="1206" 
d="M1075 -471h-164v647h-4q-53 -100 -140.5 -150t-209.5 -50q-193 0 -309.5 137.5t-116.5 374.5q0 255 128 407.5t344 152.5q105 0 181 -41.5t123 -124.5h4v142h164v-1495zM911 461v149q0 126 -82.5 213t-209.5 87q-148 0 -234 -109.5t-86 -308.5q0 -177 83 -277.5
t214 -100.5q144 0 229.5 98.5t85.5 248.5z" />
    <glyph glyph-name="r" unicode="r" horiz-adv-x="712" 
d="M671 884q-19 6 -34 8.5t-38 2.5q-125 0 -197 -106.5t-72 -266.5v-522h-164v1024h164v-203h4q35 108 107 164.5t166 56.5q31 0 52.5 -3t38.5 -9z" />
    <glyph glyph-name="s" unicode="s" horiz-adv-x="869" 
d="M70 77l78 126q67 -44 131 -66.5t138 -22.5q105 0 159.5 39t54.5 117q0 63 -48.5 106.5t-151.5 69.5q-192 49 -263 123.5t-71 183.5q0 126 95 210.5t265 84.5q82 0 156 -21t151 -72l-73 -124q-70 44 -125.5 61.5t-112.5 17.5q-99 0 -151 -36.5t-52 -105.5t53.5 -104
t172.5 -66q156 -42 233.5 -117.5t77.5 -197.5q0 -142 -100.5 -224.5t-275.5 -82.5q-94 0 -180.5 26t-160.5 75z" />
    <glyph glyph-name="t" unicode="t" horiz-adv-x="694" 
d="M654 12q-42 -17 -82.5 -25.5t-91.5 -8.5q-122 0 -191.5 71.5t-69.5 211.5v623h-176v140h176v250l164 53v-303h258v-140h-258v-604q0 -88 31.5 -127t94.5 -39q30 0 58 7t47 16z" />
    <glyph glyph-name="u" unicode="u" horiz-adv-x="1159" 
d="M994 0h-164v162h-4q-51 -93 -130 -139.5t-186 -46.5q-183 0 -274.5 109t-91.5 327v612h163v-586q0 -162 62 -243t186 -81q120 0 197.5 88.5t77.5 231.5v590h164v-1024z" />
    <glyph glyph-name="v" unicode="v" horiz-adv-x="981" 
d="M971 1024l-408 -1024h-161l-388 1024h180l260 -744q14 -41 23 -76.5t13 -66.5h4q5 39 13 73.5t19 65.5l272 748h173z" />
    <glyph glyph-name="w" unicode="w" horiz-adv-x="1480" 
d="M1456 1024l-307 -1024h-170l-212 735q-8 28 -10.5 47.5t-4.5 45.5h-4q-2 -26 -7 -45t-14 -48l-229 -735h-164l-310 1024h172l212 -770q5 -17 8.5 -40t5.5 -52h8q2 22 6 45.5t12 48.5l236 768h150l212 -772q5 -19 8.5 -41.5t6.5 -50.5h8q1 20 5.5 43t11.5 49l208 772h162z
" />
    <glyph glyph-name="x" unicode="x" horiz-adv-x="940" 
d="M914 1024l-344 -518l338 -506h-191l-201 332q-10 16 -21 35t-24 43h-4q-3 -4 -14.5 -24t-32.5 -54l-205 -332h-189l349 502l-334 522h191l198 -350q11 -20 21.5 -40t21.5 -40h4l24 40l24 40l208 350h181z" />
    <glyph glyph-name="y" unicode="y" horiz-adv-x="991" 
d="M981 1024l-483 -1219q-57 -144 -143 -215.5t-202 -71.5q-30 0 -55 3.5t-48 9.5l32 140q18 -6 33.5 -8.5t30.5 -2.5q66 0 109.5 34t69.5 96l89 212l-400 1022h182l277 -788q2 -7 7.5 -27t13.5 -51h6q3 12 7.5 31t12.5 45l291 790h170z" />
    <glyph glyph-name="z" unicode="z" horiz-adv-x="926" 
d="M880 977l-606 -837h600v-140h-841v51l606 833h-549v140h790v-47z" />
    <glyph glyph-name="braceleft" unicode="{" horiz-adv-x="618" 
d="M555 -326q-153 2 -230 79.5t-77 230.5v300q0 101 -39 154t-117 58v116q78 5 117 59t39 157v292q0 155 77 233.5t230 80.5v-128q-79 -2 -119 -51.5t-40 -146.5v-293q0 -105 -37.5 -169.5t-112.5 -88.5v-4q75 -22 112.5 -86t37.5 -170v-289q0 -111 35.5 -158.5t123.5 -49.5
v-126z" />
    <glyph glyph-name="bar" unicode="|" horiz-adv-x="490" 
d="M320 -482h-148v2048h148v-2048z" />
    <glyph glyph-name="braceright" unicode="}" horiz-adv-x="618" 
d="M525 496q-78 -5 -117 -58t-39 -154v-300q0 -153 -76.5 -230.5t-229.5 -79.5v126q87 2 123.5 50t36.5 158v289q0 106 37.5 170t111.5 86v4q-74 24 -111.5 88.5t-37.5 169.5v293q0 97 -40 146.5t-120 51.5v128q153 -2 229.5 -80.5t76.5 -233.5v-292q0 -103 39 -157t117 -59
v-116z" />
    <glyph glyph-name="asciitilde" unicode="~" horiz-adv-x="1401" 
d="M1194 750q-7 -148 -80.5 -229t-199.5 -81q-54 0 -120.5 27.5t-144.5 81.5q-48 34 -88 50.5t-71 16.5q-70 0 -106.5 -44t-39.5 -132h-135q5 143 79.5 226.5t201.5 83.5q53 0 112 -22t123 -66q66 -45 115.5 -67.5t81.5 -22.5q61 0 98 49t39 129h135z" />
    <glyph glyph-name="nbspace" unicode="&#xa0;" horiz-adv-x="561" 
 />
    <glyph glyph-name="exclamdown" unicode="&#xa1;" horiz-adv-x="582" 
d="M402 936q0 -46 -33 -78t-78 -32q-46 0 -78.5 32t-32.5 78t32.5 78t78.5 32q45 0 78 -32t33 -78zM379 -406h-172l19 1030h134z" />
    <glyph glyph-name="cent" unicode="&#xa2;" horiz-adv-x="1104" 
d="M606 -49v191q-193 22 -307.5 161t-114.5 346q0 219 114.5 366.5t307.5 184.5v213h125v-203q63 -1 135 -21t131 -55l-77 -127q-40 25 -91.5 40.5t-97.5 17.5v-785q61 6 112.5 26t84.5 41l71 -117q-56 -38 -130 -61.5t-138 -28.5v-189h-125zM606 291v761
q-119 -31 -186.5 -133.5t-67.5 -252.5t68 -249t186 -126z" />
    <glyph glyph-name="sterling" unicode="&#xa3;" horiz-adv-x="1104" 
d="M1006 0h-900v135q109 35 163.5 113t54.5 200v187h-197v141h197v254q0 188 109 308t282 120q59 0 112 -10t135 -41l-54 -133q-40 22 -87.5 33.5t-103.5 11.5q-114 0 -171.5 -76.5t-57.5 -230.5v-236h296v-141h-296v-156q0 -121 -48 -205.5t-145 -133.5h711v-140z" />
    <glyph glyph-name="currency" unicode="&#xa4;" horiz-adv-x="1138" 
d="M946 258l-137 138q-52 -38 -112 -57t-127 -19q-68 0 -128 19t-112 57l-138 -138l-92 96l138 134q-38 57 -57 116t-19 121q0 65 19 124t57 113l-138 136l92 96l138 -137q55 39 115 58t125 19t124 -19t113 -58l139 137l92 -96l-137 -136q39 -56 58.5 -115t19.5 -122
q0 -60 -19.5 -119.5t-58.5 -117.5l137 -134zM570 1002q-116 0 -195.5 -81t-79.5 -194t80.5 -194t194.5 -81q113 0 194.5 81t81.5 194t-83 194t-193 81z" />
    <glyph glyph-name="yen" unicode="&#xa5;" horiz-adv-x="1104" 
d="M473 0v293h-344v139h344v207h-344v139h291l-352 656h192l250 -514q14 -29 26 -56.5t21 -54.5h4q7 21 19 50.5t30 66.5l252 508h180l-356 -656h285v-139h-334v-207h334v-139h-334v-293h-164z" />
    <glyph glyph-name="brokenbar" unicode="&#xa6;" horiz-adv-x="490" 
d="M320 715h-148v851h148v-851zM320 -482h-148v852h148v-852z" />
    <glyph glyph-name="section" unicode="&#xa7;" horiz-adv-x="918" 
d="M658 416q45 -37 67.5 -83.5t22.5 -102.5q0 -132 -100 -214t-255 -82q-85 0 -157 22t-143 70l78 116q53 -36 106 -52t127 -16q84 0 130 39.5t46 99.5q0 53 -35.5 89.5t-180.5 113.5q-116 61 -174.5 140.5t-58.5 176.5q0 82 37 143t110 101q-53 42 -79.5 97.5t-26.5 125.5
q0 127 93.5 209t246.5 82q66 0 125.5 -13.5t121.5 -44.5l-61 -125q-47 23 -92 33.5t-98 10.5q-84 0 -126 -40t-42 -104q0 -55 40.5 -100t203.5 -123q112 -53 167.5 -126.5t55.5 -166.5q0 -85 -37 -154t-112 -122zM398 905q-50 -25 -75.5 -65t-25.5 -94q0 -59 36 -107
t146 -102l72 -35q44 34 66 77t22 95q0 57 -34 103t-144 98z" />
    <glyph glyph-name="dieresis" unicode="&#xa8;" horiz-adv-x="848" 
d="M608 1218q-40 0 -69 28t-29 71q0 42 28 70t68 28q42 0 71 -28.5t29 -69.5t-28 -70t-70 -29zM224 1218q-42 0 -71.5 29.5t-29.5 69.5q0 42 28.5 70t69.5 28t71 -28.5t30 -69.5t-29 -70t-69 -29z" />
    <glyph glyph-name="copyright" unicode="&#xa9;" horiz-adv-x="1823" 
d="M912 -33q-311 0 -530.5 219.5t-219.5 530.5t219.5 530.5t530.5 219.5q310 0 529.5 -219.5t219.5 -530.5t-219.5 -530.5t-529.5 -219.5zM912 1379q-274 0 -468 -194t-194 -468t194 -467.5t468 -193.5t467.5 193.5t193.5 467.5t-193.5 468t-467.5 194zM1209 336
q-66 -40 -131.5 -58t-142.5 -18q-192 0 -322 125t-130 313q0 218 133 348t346 130q60 0 121 -15t124 -49l-61 -116q-49 26 -95.5 37.5t-100.5 11.5q-141 0 -232.5 -90t-91.5 -242q0 -148 93.5 -237t237.5 -89q37 0 86.5 13.5t99.5 44.5z" />
    <glyph glyph-name="ordfeminine" unicode="&#xaa;" horiz-adv-x="803" 
d="M688 717h-129v100h-4q-39 -59 -97 -89t-134 -30q-109 0 -175.5 59.5t-66.5 152.5q0 101 62 160t186 75l229 31q0 84 -40.5 126t-122.5 42q-52 0 -106 -16.5t-107 -52.5l-62 93q68 46 136.5 67t150.5 21q132 0 206 -72t74 -202v-465zM559 1075l-180 -25
q-84 -11 -126 -44.5t-42 -89.5q0 -51 38.5 -83t102.5 -32q82 0 144.5 61t62.5 146v67z" />
    <glyph glyph-name="guillemetleft" unicode="&#xab;" horiz-adv-x="1036" 
d="M946 200h-168l-299 336l299 344h170l-307 -344zM557 200h-166l-299 336l299 344h166l-303 -344z" />
    <glyph glyph-name="logicalnot" unicode="&#xac;" horiz-adv-x="1401" 
d="M1172 254h-132v430h-808v133h940v-563z" />
    <glyph glyph-name="softhyphen" unicode="&#xad;" horiz-adv-x="819" 
d="M144 506v129h546v-129h-546z" />
    <glyph glyph-name="registered" unicode="&#xae;" horiz-adv-x="1823" 
d="M912 255q-269 0 -434.5 179t-165.5 420q0 242 165.5 421t434.5 179q268 0 433.5 -179t165.5 -421q0 -241 -165.5 -420t-433.5 -179zM913 1360q-204 0 -355.5 -139.5t-151.5 -366.5q0 -226 151.5 -365.5t355.5 -139.5q203 0 353.5 139.5t150.5 365.5q0 227 -150.5 366.5
t-353.5 139.5zM1203 479h-138l-83 183q-31 69 -65 103.5t-71 34.5h-52v-321h-117v763h215q133 0 205.5 -56t72.5 -152q0 -78 -51 -133.5t-142 -74.5v-3q31 -7 63 -42.5t63 -98.5zM794 1143v-245h94q79 0 118.5 31t39.5 92q0 71 -42.5 96.5t-134.5 25.5h-75z" />
    <glyph glyph-name="macron" unicode="&#xaf;" horiz-adv-x="850" 
d="M674 1218h-498v120h498v-120z" />
    <glyph glyph-name="degree" unicode="&#xb0;" horiz-adv-x="772" 
d="M385 897q-124 0 -200.5 83t-76.5 196q0 110 76 192t199 82q125 0 202 -82t77 -192q0 -113 -76.5 -196t-200.5 -83zM385 1333q-63 0 -110 -43.5t-47 -113.5q0 -72 46 -117t109 -45q64 0 111.5 45t47.5 117q0 70 -47 113.5t-110 43.5z" />
    <glyph glyph-name="plusminus" unicode="&#xb1;" horiz-adv-x="1401" 
d="M1172 652h-404v-404h-131v404h-405v132h405v404h131v-404h404v-132zM1172 0h-940v133h940v-133z" />
    <glyph glyph-name="twosuperior" unicode="&#xb2;" horiz-adv-x="750" 
d="M658 884h-554v82q0 61 29.5 109.5t74.5 90.5q44 42 96 79.5t97 77.5q44 40 73.5 85t29.5 101q0 53 -37.5 87.5t-91.5 34.5q-51 0 -97.5 -16.5t-88.5 -49.5l-66 105q56 42 115 63t142 21q123 0 192 -69t69 -171q0 -74 -28.5 -131.5t-71.5 -103.5t-93 -82t-93 -66
q-43 -31 -72 -59.5t-28 -65.5h403v-122z" />
    <glyph glyph-name="threesuperior" unicode="&#xb3;" horiz-adv-x="750" 
d="M107 932l59 102q44 -25 90.5 -38.5t83.5 -13.5q84 0 131 37.5t47 101.5q0 70 -54.5 105.5t-164.5 35.5h-84v118h80q99 0 148 33.5t49 100.5q0 59 -36 89t-99 30q-42 0 -82.5 -11.5t-81.5 -35.5l-53 103q56 34 111 49.5t116 15.5q121 0 188 -59.5t67 -155.5
q0 -75 -36.5 -126.5t-108.5 -78.5v-4q89 -21 133 -74.5t44 -133.5q0 -113 -84.5 -186t-222.5 -73q-63 0 -123.5 17.5t-116.5 51.5z" />
    <glyph glyph-name="acute" unicode="&#xb4;" horiz-adv-x="578" 
d="M262 1218h-127l223 328h166z" />
    <glyph glyph-name="micro" unicode="&#xb5;" horiz-adv-x="1182" 
d="M1016 1024v-759q0 -94 8 -160t24 -105h-170q-11 36 -17 78t-6 90h-5q-42 -95 -111.5 -143t-167.5 -48q-83 0 -142.5 31t-95.5 92h-4v-496h-163v1420h163v-626q0 -127 69 -202t180 -75q121 0 196.5 86t75.5 231v586h166z" />
    <glyph glyph-name="paragraph" unicode="&#xb6;" horiz-adv-x="938" 
d="M706 1331v-1331h-106v1331h-158v-1331h-108v903q-108 0 -179 76t-71 191q0 117 74.5 190.5t181.5 73.5h494v-103h-128z" />
    <glyph glyph-name="periodcentered" unicode="&#xb7;" horiz-adv-x="444" 
d="M223 510q-46 0 -78.5 33t-32.5 79q0 47 32.5 80t78.5 33q47 0 80 -33t33 -80q0 -46 -33 -79t-80 -33z" />
    <glyph glyph-name="cedilla" unicode="&#xb8;" horiz-adv-x="420" 
d="M200 0v-104q88 0 139.5 -40t51.5 -112q0 -88 -68.5 -132t-183.5 -44q-42 0 -56.5 1t-43.5 4l11 85q26 -2 42 -3t29 -1q71 0 106 22.5t35 67.5q0 39 -32 58.5t-97 19.5q-5 0 -15 -1t-26 -3v182h108z" />
    <glyph glyph-name="onesuperior" unicode="&#xb9;" horiz-adv-x="719" 
d="M320 884v706q-57 -46 -97 -72t-105 -57l-49 118q109 48 164.5 80.5t146.5 96.5h70v-872h-130z" />
    <glyph glyph-name="ordmasculine" unicode="&#xba;" horiz-adv-x="882" 
d="M436 696q-167 0 -262.5 100.5t-95.5 272.5q0 181 102.5 283t271.5 102q163 0 257 -99.5t94 -270.5q0 -178 -99.5 -283t-267.5 -105zM444 1344q-106 0 -168.5 -72t-62.5 -199q0 -124 59.5 -194t169.5 -70q105 0 166.5 71.5t61.5 194.5q0 126 -60.5 197.5t-165.5 71.5z" />
    <glyph glyph-name="guillemetright" unicode="&#xbb;" horiz-adv-x="1036" 
d="M647 200h-165l302 338l-302 342h165l301 -342zM260 200h-170l308 338l-308 342h170l299 -342z" />
    <glyph glyph-name="onequarter" unicode="&#xbc;" horiz-adv-x="1856" 
d="M320 584v706q-57 -46 -97 -72t-105 -57l-49 118q109 48 164.5 80.5t146.5 96.5h70v-872h-130zM535 0h-144l859 1434h143zM1706 204h-110v-204h-132v204h-393v92q105 121 198 258.5t171 295.5h156v-537h110v-109zM1464 313v371q-62 -113 -126 -202.5t-130 -168.5h256z" />
    <glyph glyph-name="onehalf" unicode="&#xbd;" horiz-adv-x="1906" 
d="M320 584v706q-57 -46 -97 -72t-105 -57l-49 118q109 48 164.5 80.5t146.5 96.5h70v-872h-130zM494 0h-144l859 1434h143zM1748 0h-554v82q0 61 29.5 109.5t74.5 90.5q44 42 96 79.5t97 77.5q44 40 73.5 85t29.5 101q0 53 -37.5 87.5t-91.5 34.5q-51 0 -97.5 -16.5
t-88.5 -49.5l-66 105q56 42 115 63t142 21q123 0 192 -69t69 -171q0 -74 -28.5 -131.5t-71.5 -103.5t-93 -82t-93 -66q-43 -31 -72 -59.5t-28 -65.5h403v-122z" />
    <glyph glyph-name="threequarters" unicode="&#xbe;" horiz-adv-x="1950" 
d="M107 632l59 102q44 -25 90.5 -38.5t83.5 -13.5q84 0 131 37.5t47 101.5q0 70 -54.5 105.5t-164.5 35.5h-84v118h80q99 0 148 33.5t49 100.5q0 59 -36 89t-99 30q-42 0 -82.5 -11.5t-81.5 -35.5l-53 103q56 34 111 49.5t116 15.5q121 0 188 -59.5t67 -155.5
q0 -75 -36.5 -126.5t-108.5 -78.5v-4q89 -21 133 -74.5t44 -133.5q0 -113 -84.5 -186t-222.5 -73q-63 0 -123.5 17.5t-116.5 51.5zM606 0h-144l859 1434h143zM1771 204h-110v-204h-132v204h-393v92q105 121 198 258.5t171 295.5h156v-537h110v-109zM1529 313v371
q-62 -113 -126 -202.5t-130 -168.5h256z" />
    <glyph glyph-name="questiondown" unicode="&#xbf;" horiz-adv-x="918" 
d="M914 -272q-72 -74 -177.5 -116t-226.5 -42q-183 0 -284 87t-101 239q0 71 26 125t65 103q77 92 171.5 164t94.5 173q0 38 -11.5 69.5t-21.5 53.5l147 55q14 -30 25 -77.5t11 -94.5q0 -125 -91.5 -206t-165.5 -163q-38 -43 -63.5 -89.5t-25.5 -102.5q0 -91 69 -139
t163 -48q72 0 151.5 33.5t132.5 92.5zM517 1046q46 0 81 -33t35 -81q0 -49 -34 -81.5t-82 -32.5t-82 32.5t-34 81.5q0 48 35 81t81 33z" />
    <glyph glyph-name="Agrave" unicode="&#xc0;" horiz-adv-x="1321" 
d="M22 0l550 1434h174l552 -1434h-186l-145 384h-621l-137 -384h-187zM402 535h510l-232 629q-6 15 -11 39t-11 57h-4q-5 -30 -10.5 -54t-12.5 -42zM788 1566h-127l-262 328h168z" />
    <glyph glyph-name="Aacute" unicode="&#xc1;" horiz-adv-x="1321" 
d="M22 0l550 1434h174l552 -1434h-186l-145 384h-621l-137 -384h-187zM402 535h510l-232 629q-6 15 -11 39t-11 57h-4q-5 -30 -10.5 -54t-12.5 -42zM661 1566h-127l223 328h166z" />
    <glyph glyph-name="Acircumflex" unicode="&#xc2;" horiz-adv-x="1321" 
d="M22 0l550 1434h174l552 -1434h-186l-145 384h-621l-137 -384h-187zM402 535h510l-232 629q-6 15 -11 39t-11 57h-4q-5 -30 -10.5 -54t-12.5 -42zM497 1566h-114l216 332h133l216 -332h-122l-164 230z" />
    <glyph glyph-name="Atilde" unicode="&#xc3;" horiz-adv-x="1321" 
d="M22 0l550 1434h174l552 -1434h-186l-145 384h-621l-137 -384h-187zM402 535h510l-232 629q-6 15 -11 39t-11 57h-4q-5 -30 -10.5 -54t-12.5 -42zM986 1806q0 -105 -48 -171.5t-130 -66.5q-35 0 -75.5 13t-86.5 39q-38 22 -68 32.5t-51 10.5q-44 0 -66 -28t-22 -85h-94
q0 107 48 171.5t134 64.5q33 0 70 -13t79 -39q37 -22 69 -33t59 -11q42 0 63 29t21 87h98z" />
    <glyph glyph-name="Adieresis" unicode="&#xc4;" horiz-adv-x="1321" 
d="M22 0l550 1434h174l552 -1434h-186l-145 384h-621l-137 -384h-187zM402 535h510l-232 629q-6 15 -11 39t-11 57h-4q-5 -30 -10.5 -54t-12.5 -42zM844 1566q-40 0 -69 28t-29 71q0 42 28 70t68 28q42 0 71 -28.5t29 -69.5t-28 -70t-70 -29zM460 1566q-42 0 -71.5 29.5
t-29.5 69.5q0 42 28.5 70t69.5 28t71 -28.5t30 -69.5t-29 -70t-69 -29z" />
    <glyph glyph-name="Aring" unicode="&#xc5;" horiz-adv-x="1321" 
d="M1298 0h-186l-145 384h-621l-137 -384h-187l529 1378q-50 26 -75.5 67t-25.5 97q0 89 60 144t152 55q88 0 144 -54.5t56 -138.5q0 -56 -24 -97.5t-72 -68.5zM656 1659q-50 0 -82 -31.5t-32 -79.5q0 -57 33.5 -85.5t80.5 -28.5q48 0 81 33t33 81q0 49 -33 80t-81 31z
M911 535l-231 629q-5 15 -10.5 39t-11.5 57h-4q-5 -30 -10.5 -54t-12.5 -42l-229 -629h509z" />
    <glyph glyph-name="AE" unicode="&#xc6;" horiz-adv-x="1762" 
d="M205 0h-195l700 1434h924v-152h-559v-477h519v-151h-519v-502h592v-152h-759v402h-510zM813 1282l-346 -729h441v729h-95z" />
    <glyph glyph-name="Ccedilla" unicode="&#xc7;" horiz-adv-x="1268" 
d="M1198 72q-104 -50 -203 -73t-215 -23q-325 0 -505.5 197t-180.5 517q0 351 201.5 559.5t525.5 208.5q101 0 189.5 -19t183.5 -61l-62 -138q-79 35 -153 50.5t-160 15.5q-252 0 -400.5 -162.5t-148.5 -443.5q0 -263 142.5 -418t377.5 -155q87 0 170.5 19t170.5 62zM765 0
v-104q88 0 139.5 -40t51.5 -112q0 -88 -68.5 -132t-183.5 -44q-42 0 -56.5 1t-43.5 4l11 85q26 -2 42 -3t29 -1q71 0 106 22.5t35 67.5q0 39 -32 58.5t-97 19.5q-5 0 -15 -1t-26 -3v182h108z" />
    <glyph glyph-name="Egrave" unicode="&#xc8;" horiz-adv-x="1036" 
d="M948 0h-760v1434h728v-152h-560v-477h518v-151h-518v-502h592v-152zM679 1566h-127l-262 328h168z" />
    <glyph glyph-name="Eacute" unicode="&#xc9;" horiz-adv-x="1036" 
d="M948 0h-760v1434h728v-152h-560v-477h518v-151h-518v-502h592v-152zM552 1566h-127l223 328h166z" />
    <glyph glyph-name="Ecircumflex" unicode="&#xca;" horiz-adv-x="1036" 
d="M948 0h-760v1434h728v-152h-560v-477h518v-151h-518v-502h592v-152zM388 1566h-114l216 332h133l216 -332h-122l-164 230z" />
    <glyph glyph-name="Edieresis" unicode="&#xcb;" horiz-adv-x="1036" 
d="M948 0h-760v1434h728v-152h-560v-477h518v-151h-518v-502h592v-152zM735 1566q-40 0 -69 28t-29 71q0 42 28 70t68 28q42 0 71 -28.5t29 -69.5t-28 -70t-70 -29zM351 1566q-42 0 -71.5 29.5t-29.5 69.5q0 42 28.5 70t69.5 28t71 -28.5t30 -69.5t-29 -70t-69 -29z" />
    <glyph glyph-name="Igrave" unicode="&#xcc;" horiz-adv-x="545" 
d="M356 0h-168v1434h168v-1434zM398 1566h-127l-262 328h168z" />
    <glyph glyph-name="Iacute" unicode="&#xcd;" horiz-adv-x="545" 
d="M356 0h-168v1434h168v-1434zM271 1566h-127l223 328h166z" />
    <glyph glyph-name="Icircumflex" unicode="&#xce;" horiz-adv-x="545" 
d="M356 0h-168v1434h168v-1434zM107 1566h-114l216 332h133l216 -332h-122l-164 230z" />
    <glyph glyph-name="Idieresis" unicode="&#xcf;" horiz-adv-x="545" 
d="M356 0h-168v1434h168v-1434zM454 1566q-40 0 -69 28t-29 71q0 42 28 70t68 28q42 0 71 -28.5t29 -69.5t-28 -70t-70 -29zM70 1566q-42 0 -71.5 29.5t-29.5 69.5q0 42 28.5 70t69.5 28t71 -28.5t30 -69.5t-29 -70t-69 -29z" />
    <glyph glyph-name="Eth" unicode="&#xd0;" horiz-adv-x="1436" 
d="M188 0v641h-160v155h160v638h396q379 0 568.5 -174.5t189.5 -524.5q0 -334 -210.5 -534.5t-563.5 -200.5h-380zM356 1282v-486h336v-155h-336v-489h214q282 0 439 151t157 428q0 276 -146.5 413.5t-439.5 137.5h-224z" />
    <glyph glyph-name="Ntilde" unicode="&#xd1;" horiz-adv-x="1532" 
d="M1344 0h-206l-738 1143q-14 22 -25.5 44.5t-20.5 45.5h-6q4 -23 6 -72t2 -125v-1036h-168v1434h218l718 -1125q23 -35 37.5 -59t20.5 -37h4q-5 31 -7.5 84t-2.5 127v1010h168v-1434zM1097 1806q0 -105 -48 -171.5t-130 -66.5q-35 0 -75.5 13t-86.5 39q-38 22 -68 32.5
t-51 10.5q-44 0 -66 -28t-22 -85h-94q0 107 48 171.5t134 64.5q33 0 70 -13t79 -39q37 -22 69 -33t59 -11q42 0 63 29t21 87h98z" />
    <glyph glyph-name="Ograve" unicode="&#xd2;" horiz-adv-x="1544" 
d="M766 -24q-305 0 -488.5 201t-183.5 523q0 346 187 552t509 206q297 0 478.5 -200t181.5 -523q0 -351 -186 -555t-498 -204zM766 127q236 0 372 154t136 431q0 284 -132 439t-364 155q-226 0 -367 -163t-141 -428t137.5 -426.5t358.5 -161.5zM911 1566h-127l-262 328h168z
" />
    <glyph glyph-name="Oacute" unicode="&#xd3;" horiz-adv-x="1544" 
d="M766 -24q-305 0 -488.5 201t-183.5 523q0 346 187 552t509 206q297 0 478.5 -200t181.5 -523q0 -351 -186 -555t-498 -204zM766 127q236 0 372 154t136 431q0 284 -132 439t-364 155q-226 0 -367 -163t-141 -428t137.5 -426.5t358.5 -161.5zM784 1566h-127l223 328h166z
" />
    <glyph glyph-name="Ocircumflex" unicode="&#xd4;" horiz-adv-x="1544" 
d="M766 -24q-305 0 -488.5 201t-183.5 523q0 346 187 552t509 206q297 0 478.5 -200t181.5 -523q0 -351 -186 -555t-498 -204zM766 127q236 0 372 154t136 431q0 284 -132 439t-364 155q-226 0 -367 -163t-141 -428t137.5 -426.5t358.5 -161.5zM620 1566h-114l216 332h133
l216 -332h-122l-164 230z" />
    <glyph glyph-name="Otilde" unicode="&#xd5;" horiz-adv-x="1544" 
d="M766 -24q-305 0 -488.5 201t-183.5 523q0 346 187 552t509 206q297 0 478.5 -200t181.5 -523q0 -351 -186 -555t-498 -204zM766 127q236 0 372 154t136 431q0 284 -132 439t-364 155q-226 0 -367 -163t-141 -428t137.5 -426.5t358.5 -161.5zM1109 1806q0 -105 -48 -171.5
t-130 -66.5q-35 0 -75.5 13t-86.5 39q-38 22 -68 32.5t-51 10.5q-44 0 -66 -28t-22 -85h-94q0 107 48 171.5t134 64.5q33 0 70 -13t79 -39q37 -22 69 -33t59 -11q42 0 63 29t21 87h98z" />
    <glyph glyph-name="Odieresis" unicode="&#xd6;" horiz-adv-x="1544" 
d="M766 -24q-305 0 -488.5 201t-183.5 523q0 346 187 552t509 206q297 0 478.5 -200t181.5 -523q0 -351 -186 -555t-498 -204zM766 127q236 0 372 154t136 431q0 284 -132 439t-364 155q-226 0 -367 -163t-141 -428t137.5 -426.5t358.5 -161.5zM967 1566q-40 0 -69 28
t-29 71q0 42 28 70t68 28q42 0 71 -28.5t29 -69.5t-28 -70t-70 -29zM583 1566q-42 0 -71.5 29.5t-29.5 69.5q0 42 28.5 70t69.5 28t71 -28.5t30 -69.5t-29 -70t-69 -29z" />
    <glyph glyph-name="multiply" unicode="&#xd7;" horiz-adv-x="1401" 
d="M1040 164l-340 340l-338 -340l-94 94l340 338l-340 340l94 94l338 -340l340 340l94 -94l-340 -340l340 -338z" />
    <glyph glyph-name="Oslash" unicode="&#xd8;" horiz-adv-x="1544" 
d="M324 131l-152 -182l-78 65l158 191q-79 98 -118.5 221.5t-39.5 273.5q0 343 186.5 550.5t509.5 207.5q117 0 217.5 -32t184.5 -97l135 162l78 -63l-139 -166q92 -100 138 -231.5t46 -295.5q0 -351 -186 -555t-498 -204q-133 0 -243.5 39t-198.5 116zM1090 1204
q-63 51 -141 76.5t-171 25.5q-227 0 -367.5 -164t-140.5 -427q0 -111 24.5 -204.5t73.5 -168.5zM1157 1130l-725 -866q66 -68 149.5 -102.5t184.5 -34.5q236 0 372 154.5t136 430.5q0 130 -29 234.5t-88 183.5z" />
    <glyph glyph-name="Ugrave" unicode="&#xd9;" horiz-adv-x="1407" 
d="M1237 581q0 -303 -136 -454t-409 -151q-261 0 -391.5 145t-130.5 436v877h168v-866q0 -220 93 -330.5t279 -110.5q180 0 269.5 106.5t89.5 319.5v881h168v-853zM832 1566h-127l-262 328h168z" />
    <glyph glyph-name="Uacute" unicode="&#xda;" horiz-adv-x="1407" 
d="M1237 581q0 -303 -136 -454t-409 -151q-261 0 -391.5 145t-130.5 436v877h168v-866q0 -220 93 -330.5t279 -110.5q180 0 269.5 106.5t89.5 319.5v881h168v-853zM705 1566h-127l223 328h166z" />
    <glyph glyph-name="Ucircumflex" unicode="&#xdb;" horiz-adv-x="1407" 
d="M1237 581q0 -303 -136 -454t-409 -151q-261 0 -391.5 145t-130.5 436v877h168v-866q0 -220 93 -330.5t279 -110.5q180 0 269.5 106.5t89.5 319.5v881h168v-853zM541 1566h-114l216 332h133l216 -332h-122l-164 230z" />
    <glyph glyph-name="Udieresis" unicode="&#xdc;" horiz-adv-x="1407" 
d="M1237 581q0 -303 -136 -454t-409 -151q-261 0 -391.5 145t-130.5 436v877h168v-866q0 -220 93 -330.5t279 -110.5q180 0 269.5 106.5t89.5 319.5v881h168v-853zM888 1566q-40 0 -69 28t-29 71q0 42 28 70t68 28q42 0 71 -28.5t29 -69.5t-28 -70t-70 -29zM504 1566
q-42 0 -71.5 29.5t-29.5 69.5q0 42 28.5 70t69.5 28t71 -28.5t30 -69.5t-29 -70t-69 -29z" />
    <glyph glyph-name="Yacute" unicode="&#xdd;" horiz-adv-x="1132" 
d="M1117 1434l-473 -904v-530h-168v526l-461 908h191l321 -648q3 -6 12 -28t23 -60h3q5 17 14.5 39t23.5 49l336 648h178zM567 1566h-127l223 328h166z" />
    <glyph glyph-name="Thorn" unicode="&#xde;" horiz-adv-x="1147" 
d="M356 318v-318h-168v1434h168v-226h226q232 0 357.5 -111.5t125.5 -316.5q0 -204 -141.5 -333t-381.5 -129h-186zM356 1057v-588h176q173 0 265 78t92 223q0 144 -84 215.5t-252 71.5h-197z" />
    <glyph glyph-name="germandbls" unicode="&#xdf;" horiz-adv-x="1114" 
d="M410 29l59 125q45 -21 88.5 -30.5t85.5 -9.5q109 0 171 73.5t62 197.5q0 150 -100 243.5t-278 113.5v130q118 20 194 103t76 197q0 108 -55 167.5t-152 59.5q-115 0 -173 -77t-58 -232v-1090h-164v1114q0 192 110 308t296 116q166 0 265 -95t99 -251q0 -127 -75 -228
t-195 -140v-5q189 -37 283.5 -143.5t94.5 -282.5q0 -177 -105 -297t-288 -120q-67 0 -123.5 12.5t-117.5 40.5z" />
    <glyph glyph-name="agrave" unicode="&#xe0;" horiz-adv-x="1042" 
d="M891 0h-164v160h-4q-53 -92 -130.5 -138t-180.5 -46q-144 0 -233 84t-89 223q0 131 90 217t255 110l292 39v23q0 129 -60 183.5t-160 54.5q-80 0 -154 -30t-139 -92l-96 99q86 83 183 122t216 39q186 0 280 -95.5t94 -286.5v-666zM727 416v102l-247 -34
q-113 -16 -170 -57t-57 -129q0 -92 53.5 -140.5t130.5 -48.5q133 0 211.5 87t78.5 220zM649 1218h-127l-262 328h168z" />
    <glyph glyph-name="aacute" unicode="&#xe1;" horiz-adv-x="1042" 
d="M891 0h-164v160h-4q-53 -92 -130.5 -138t-180.5 -46q-144 0 -233 84t-89 223q0 131 90 217t255 110l292 39v23q0 129 -60 183.5t-160 54.5q-80 0 -154 -30t-139 -92l-96 99q86 83 183 122t216 39q186 0 280 -95.5t94 -286.5v-666zM727 416v102l-247 -34
q-113 -16 -170 -57t-57 -129q0 -92 53.5 -140.5t130.5 -48.5q133 0 211.5 87t78.5 220zM522 1218h-127l223 328h166z" />
    <glyph glyph-name="acircumflex" unicode="&#xe2;" horiz-adv-x="1042" 
d="M891 0h-164v160h-4q-53 -92 -130.5 -138t-180.5 -46q-144 0 -233 84t-89 223q0 131 90 217t255 110l292 39v23q0 129 -60 183.5t-160 54.5q-80 0 -154 -30t-139 -92l-96 99q86 83 183 122t216 39q186 0 280 -95.5t94 -286.5v-666zM727 416v102l-247 -34
q-113 -16 -170 -57t-57 -129q0 -92 53.5 -140.5t130.5 -48.5q133 0 211.5 87t78.5 220zM358 1218h-114l216 332h133l216 -332h-122l-164 230z" />
    <glyph glyph-name="atilde" unicode="&#xe3;" horiz-adv-x="1042" 
d="M891 0h-164v160h-4q-53 -92 -130.5 -138t-180.5 -46q-144 0 -233 84t-89 223q0 131 90 217t255 110l292 39v23q0 129 -60 183.5t-160 54.5q-80 0 -154 -30t-139 -92l-96 99q86 83 183 122t216 39q186 0 280 -95.5t94 -286.5v-666zM727 416v102l-247 -34
q-113 -16 -170 -57t-57 -129q0 -92 53.5 -140.5t130.5 -48.5q133 0 211.5 87t78.5 220zM847 1458q0 -105 -48 -171.5t-130 -66.5q-35 0 -75.5 13t-86.5 39q-38 22 -68 32.5t-51 10.5q-44 0 -66 -28t-22 -85h-94q0 107 48 171.5t134 64.5q33 0 70 -13t79 -39q37 -22 69 -33
t59 -11q42 0 63 29t21 87h98z" />
    <glyph glyph-name="adieresis" unicode="&#xe4;" horiz-adv-x="1042" 
d="M891 0h-164v160h-4q-53 -92 -130.5 -138t-180.5 -46q-144 0 -233 84t-89 223q0 131 90 217t255 110l292 39v23q0 129 -60 183.5t-160 54.5q-80 0 -154 -30t-139 -92l-96 99q86 83 183 122t216 39q186 0 280 -95.5t94 -286.5v-666zM727 416v102l-247 -34
q-113 -16 -170 -57t-57 -129q0 -92 53.5 -140.5t130.5 -48.5q133 0 211.5 87t78.5 220zM705 1218q-40 0 -69 28t-29 71q0 42 28 70t68 28q42 0 71 -28.5t29 -69.5t-28 -70t-70 -29zM321 1218q-42 0 -71.5 29.5t-29.5 69.5q0 42 28.5 70t69.5 28t71 -28.5t30 -69.5t-29 -70
t-69 -29z" />
    <glyph glyph-name="aring" unicode="&#xe5;" horiz-adv-x="1042" 
d="M891 0h-164v160h-4q-53 -92 -130.5 -138t-180.5 -46q-144 0 -233 84t-89 223q0 131 90 217t255 110l292 39v23q0 129 -60 183.5t-160 54.5q-80 0 -154 -30t-139 -92l-96 99q86 83 183 122t216 39q186 0 280 -95.5t94 -286.5v-666zM727 416v102l-247 -34
q-113 -16 -170 -57t-57 -129q0 -92 53.5 -140.5t130.5 -48.5q133 0 211.5 87t78.5 220zM524 1128q-93 0 -149.5 52.5t-56.5 137.5q0 89 56.5 143.5t149.5 54.5t149.5 -53t56.5 -139q0 -88 -56.5 -142t-149.5 -54zM524 1435q-51 0 -82.5 -31t-31.5 -82q0 -50 31.5 -81
t82.5 -31t82.5 31t31.5 81q0 51 -31.5 82t-82.5 31z" />
    <glyph glyph-name="ae" unicode="&#xe6;" horiz-adv-x="1704" 
d="M1598 95q-88 -62 -178 -90.5t-198 -28.5q-165 0 -260.5 57.5t-152.5 171.5h-4q-72 -114 -169 -171.5t-218 -57.5q-153 0 -240.5 80.5t-87.5 215.5q0 150 96 231t287 93l262 16q0 149 -53.5 223.5t-174.5 74.5q-80 0 -154.5 -28t-142.5 -87l-91 104q88 77 184.5 113
t213.5 36q137 0 212 -50t109 -150h4q58 100 147 150t209 50q202 0 313 -130.5t111 -362.5v-84h-725q3 -171 91 -264t247 -92q72 0 143 22.5t140 70.5zM899 610h555q-2 144 -68.5 222t-185.5 78q-116 0 -199 -82t-102 -218zM735 473l-203 -12q-139 -8 -207.5 -49t-68.5 -136
q0 -73 53 -117.5t143 -44.5q119 0 201 84.5t82 211.5v63z" />
    <glyph glyph-name="ccedilla" unicode="&#xe7;" horiz-adv-x="946" 
d="M886 61q-71 -44 -142 -64.5t-155 -20.5q-216 0 -354.5 134t-138.5 380q0 250 139.5 404t383.5 154q79 0 150.5 -19t144.5 -62l-69 -120q-57 32 -112 47t-120 15q-169 0 -259 -113t-90 -287q0 -192 94.5 -293t244.5 -101q49 0 102.5 15.5t107.5 48.5zM588 0v-104
q88 0 139.5 -40t51.5 -112q0 -88 -68.5 -132t-183.5 -44q-42 0 -56.5 1t-43.5 4l11 85q26 -2 42 -3t29 -1q71 0 106 22.5t35 67.5q0 39 -32 58.5t-97 19.5q-5 0 -15 -1t-26 -3v182h108z" />
    <glyph glyph-name="egrave" unicode="&#xe8;" horiz-adv-x="1071" 
d="M989 475h-724q4 -173 91.5 -266.5t245.5 -93.5q69 0 138.5 20.5t137.5 65.5l76 -117q-87 -56 -174 -82t-191 -26q-232 0 -362 138t-131 385t130.5 398t341.5 151q200 0 310.5 -130.5t110.5 -361.5v-81zM821 609q-1 142 -69 221.5t-187 79.5q-117 0 -198.5 -81.5
t-99.5 -219.5h554zM692 1218h-127l-262 328h168z" />
    <glyph glyph-name="eacute" unicode="&#xe9;" horiz-adv-x="1071" 
d="M989 475h-724q4 -173 91.5 -266.5t245.5 -93.5q69 0 138.5 20.5t137.5 65.5l76 -117q-87 -56 -174 -82t-191 -26q-232 0 -362 138t-131 385t130.5 398t341.5 151q200 0 310.5 -130.5t110.5 -361.5v-81zM821 609q-1 142 -69 221.5t-187 79.5q-117 0 -198.5 -81.5
t-99.5 -219.5h554zM565 1218h-127l223 328h166z" />
    <glyph glyph-name="ecircumflex" unicode="&#xea;" horiz-adv-x="1071" 
d="M989 475h-724q4 -173 91.5 -266.5t245.5 -93.5q69 0 138.5 20.5t137.5 65.5l76 -117q-87 -56 -174 -82t-191 -26q-232 0 -362 138t-131 385t130.5 398t341.5 151q200 0 310.5 -130.5t110.5 -361.5v-81zM821 609q-1 142 -69 221.5t-187 79.5q-117 0 -198.5 -81.5
t-99.5 -219.5h554zM401 1218h-114l216 332h133l216 -332h-122l-164 230z" />
    <glyph glyph-name="edieresis" unicode="&#xeb;" horiz-adv-x="1071" 
d="M989 475h-724q4 -173 91.5 -266.5t245.5 -93.5q69 0 138.5 20.5t137.5 65.5l76 -117q-87 -56 -174 -82t-191 -26q-232 0 -362 138t-131 385t130.5 398t341.5 151q200 0 310.5 -130.5t110.5 -361.5v-81zM821 609q-1 142 -69 221.5t-187 79.5q-117 0 -198.5 -81.5
t-99.5 -219.5h554zM748 1218q-40 0 -69 28t-29 71q0 42 28 70t68 28q42 0 71 -28.5t29 -69.5t-28 -70t-70 -29zM364 1218q-42 0 -71.5 29.5t-29.5 69.5q0 42 28.5 70t69.5 28t71 -28.5t30 -69.5t-29 -70t-69 -29z" />
    <glyph glyph-name="igrave" unicode="&#xec;" horiz-adv-x="496" 
d="M166 0v1024h164v-1024h-164zM376 1218h-127l-262 328h168z" />
    <glyph glyph-name="iacute" unicode="&#xed;" horiz-adv-x="496" 
d="M166 0v1024h164v-1024h-164zM249 1218h-127l223 328h166z" />
    <glyph glyph-name="icircumflex" unicode="&#xee;" horiz-adv-x="496" 
d="M166 0v1024h164v-1024h-164zM85 1218h-114l216 332h133l216 -332h-122l-164 230z" />
    <glyph glyph-name="idieresis" unicode="&#xef;" horiz-adv-x="496" 
d="M166 0v1024h164v-1024h-164zM432 1218q-40 0 -69 28t-29 71q0 42 28 70t68 28q42 0 71 -28.5t29 -69.5t-28 -70t-70 -29zM48 1218q-42 0 -71.5 29.5t-29.5 69.5q0 42 28.5 70t69.5 28t71 -28.5t30 -69.5t-29 -70t-69 -29z" />
    <glyph glyph-name="eth" unicode="&#xf0;" horiz-adv-x="1145" 
d="M786 968l4 3q-45 81 -94.5 147.5t-103.5 118.5l-299 -151l-51 98l270 131q-44 35 -92.5 70t-103.5 69l82 109q62 -38 120 -83t123 -100l295 147l49 -97l-264 -130q164 -153 245.5 -346.5t81.5 -427.5q0 -240 -129 -394t-351 -154t-347 140t-125 382q0 243 130 394.5
t350 151.5q62 0 114.5 -19.5t95.5 -58.5zM582 910q-148 0 -233 -108.5t-85 -295.5q0 -181 83 -286.5t231 -105.5q139 0 220.5 108t81.5 288q0 200 -74.5 300t-223.5 100z" />
    <glyph glyph-name="ntilde" unicode="&#xf1;" horiz-adv-x="1159" 
d="M1016 0h-164v584q0 163 -59.5 244.5t-178.5 81.5q-123 0 -203.5 -92.5t-80.5 -233.5v-584h-164v1024h164v-170h4q58 97 142 145.5t194 48.5q168 0 257 -108.5t89 -313.5v-626zM906 1458q0 -105 -48 -171.5t-130 -66.5q-35 0 -75.5 13t-86.5 39q-38 22 -68 32.5t-51 10.5
q-44 0 -66 -28t-22 -85h-94q0 107 48 171.5t134 64.5q33 0 70 -13t79 -39q37 -22 69 -33t59 -11q42 0 63 29t21 87h98z" />
    <glyph glyph-name="ograve" unicode="&#xf2;" horiz-adv-x="1200" 
d="M594 -24q-227 0 -362.5 143.5t-135.5 380.5q0 257 140 402t382 146q229 1 357.5 -141t128.5 -391q0 -246 -138.5 -393t-371.5 -147zM606 114q159 0 244.5 103.5t85.5 292.5q0 193 -86 296.5t-244 103.5t-250 -108t-92 -296q0 -182 93 -287t249 -105zM728 1218h-127
l-262 328h168z" />
    <glyph glyph-name="oacute" unicode="&#xf3;" horiz-adv-x="1200" 
d="M594 -24q-227 0 -362.5 143.5t-135.5 380.5q0 257 140 402t382 146q229 1 357.5 -141t128.5 -391q0 -246 -138.5 -393t-371.5 -147zM606 114q159 0 244.5 103.5t85.5 292.5q0 193 -86 296.5t-244 103.5t-250 -108t-92 -296q0 -182 93 -287t249 -105zM601 1218h-127
l223 328h166z" />
    <glyph glyph-name="ocircumflex" unicode="&#xf4;" horiz-adv-x="1200" 
d="M594 -24q-227 0 -362.5 143.5t-135.5 380.5q0 257 140 402t382 146q229 1 357.5 -141t128.5 -391q0 -246 -138.5 -393t-371.5 -147zM606 114q159 0 244.5 103.5t85.5 292.5q0 193 -86 296.5t-244 103.5t-250 -108t-92 -296q0 -182 93 -287t249 -105zM437 1218h-114
l216 332h133l216 -332h-122l-164 230z" />
    <glyph glyph-name="otilde" unicode="&#xf5;" horiz-adv-x="1200" 
d="M594 -24q-227 0 -362.5 143.5t-135.5 380.5q0 257 140 402t382 146q229 1 357.5 -141t128.5 -391q0 -246 -138.5 -393t-371.5 -147zM606 114q159 0 244.5 103.5t85.5 292.5q0 193 -86 296.5t-244 103.5t-250 -108t-92 -296q0 -182 93 -287t249 -105zM927 1458
q0 -105 -48 -171.5t-130 -66.5q-35 0 -75.5 13t-86.5 39q-38 22 -68 32.5t-51 10.5q-44 0 -66 -28t-22 -85h-94q0 107 48 171.5t134 64.5q33 0 70 -13t79 -39q37 -22 69 -33t59 -11q42 0 63 29t21 87h98z" />
    <glyph glyph-name="odieresis" unicode="&#xf6;" horiz-adv-x="1200" 
d="M594 -24q-227 0 -362.5 143.5t-135.5 380.5q0 257 140 402t382 146q229 1 357.5 -141t128.5 -391q0 -246 -138.5 -393t-371.5 -147zM606 114q159 0 244.5 103.5t85.5 292.5q0 193 -86 296.5t-244 103.5t-250 -108t-92 -296q0 -182 93 -287t249 -105zM784 1218
q-40 0 -69 28t-29 71q0 42 28 70t68 28q42 0 71 -28.5t29 -69.5t-28 -70t-70 -29zM400 1218q-42 0 -71.5 29.5t-29.5 69.5q0 42 28.5 70t69.5 28t71 -28.5t30 -69.5t-29 -70t-69 -29z" />
    <glyph glyph-name="divide" unicode="&#xf7;" horiz-adv-x="1401" 
d="M811 975q0 -47 -30.5 -77t-72.5 -30q-44 0 -74 30.5t-30 74.5q0 45 29 77t75 32q52 0 77.5 -26.5t25.5 -80.5zM1172 530h-940v134h940v-134zM805 217q0 -45 -29 -75t-72 -30q-44 0 -75 30t-31 73q0 45 30 78t76 33q51 0 76 -27t25 -82z" />
    <glyph glyph-name="oslash" unicode="&#xf8;" horiz-adv-x="1200" 
d="M1174 1048l-168 -180q49 -69 73.5 -155.5t24.5 -190.5q0 -252 -139 -399t-371 -147q-96 0 -175.5 25.5t-142.5 76.5l-145 -160l-82 78l149 164q-51 69 -76.5 154t-25.5 186q0 258 142 403t382 145q92 0 169 -24.5t139 -73.5l162 176zM821 836q-39 37 -93 55.5t-122 18.5
q-159 0 -250.5 -107.5t-91.5 -296.5q0 -66 12.5 -122t37.5 -102zM891 742l-508 -552q44 -38 99 -57t122 -19q163 0 248.5 104t85.5 294q0 67 -11.5 124.5t-35.5 105.5z" />
    <glyph glyph-name="ugrave" unicode="&#xf9;" horiz-adv-x="1159" 
d="M994 0h-164v162h-4q-51 -93 -130 -139.5t-186 -46.5q-183 0 -274.5 109t-91.5 327v612h163v-586q0 -162 62 -243t186 -81q120 0 197.5 88.5t77.5 231.5v590h164v-1024zM708 1218h-127l-262 328h168z" />
    <glyph glyph-name="uacute" unicode="&#xfa;" horiz-adv-x="1159" 
d="M994 0h-164v162h-4q-51 -93 -130 -139.5t-186 -46.5q-183 0 -274.5 109t-91.5 327v612h163v-586q0 -162 62 -243t186 -81q120 0 197.5 88.5t77.5 231.5v590h164v-1024zM581 1218h-127l223 328h166z" />
    <glyph glyph-name="ucircumflex" unicode="&#xfb;" horiz-adv-x="1159" 
d="M994 0h-164v162h-4q-51 -93 -130 -139.5t-186 -46.5q-183 0 -274.5 109t-91.5 327v612h163v-586q0 -162 62 -243t186 -81q120 0 197.5 88.5t77.5 231.5v590h164v-1024zM417 1218h-114l216 332h133l216 -332h-122l-164 230z" />
    <glyph glyph-name="udieresis" unicode="&#xfc;" horiz-adv-x="1159" 
d="M994 0h-164v162h-4q-51 -93 -130 -139.5t-186 -46.5q-183 0 -274.5 109t-91.5 327v612h163v-586q0 -162 62 -243t186 -81q120 0 197.5 88.5t77.5 231.5v590h164v-1024zM764 1218q-40 0 -69 28t-29 71q0 42 28 70t68 28q42 0 71 -28.5t29 -69.5t-28 -70t-70 -29zM380 1218
q-42 0 -71.5 29.5t-29.5 69.5q0 42 28.5 70t69.5 28t71 -28.5t30 -69.5t-29 -70t-69 -29z" />
    <glyph glyph-name="yacute" unicode="&#xfd;" horiz-adv-x="991" 
d="M981 1024l-483 -1219q-57 -144 -143 -215.5t-202 -71.5q-30 0 -55 3.5t-48 9.5l32 140q18 -6 33.5 -8.5t30.5 -2.5q66 0 109.5 34t69.5 96l89 212l-400 1022h182l277 -788q2 -7 7.5 -27t13.5 -51h6q3 12 7.5 31t12.5 45l291 790h170zM497 1218h-127l223 328h166z" />
    <glyph glyph-name="thorn" unicode="&#xfe;" horiz-adv-x="1204" 
d="M334 148h-4v-619h-164v1987h164v-672h4q61 102 149.5 153t204.5 51q198 0 309 -137.5t111 -368.5q0 -257 -125 -411.5t-342 -154.5q-99 0 -176 43t-131 129zM330 561v-143q0 -127 82.5 -215.5t209.5 -88.5q149 0 233.5 114t84.5 317q0 171 -79 268t-214 97
q-143 0 -230 -99.5t-87 -249.5z" />
    <glyph glyph-name="ydieresis" unicode="&#xff;" horiz-adv-x="991" 
d="M981 1024l-483 -1219q-57 -144 -143 -215.5t-202 -71.5q-30 0 -55 3.5t-48 9.5l32 140q18 -6 33.5 -8.5t30.5 -2.5q66 0 109.5 34t69.5 96l89 212l-400 1022h182l277 -788q2 -7 7.5 -27t13.5 -51h6q3 12 7.5 31t12.5 45l291 790h170zM680 1218q-40 0 -69 28t-29 71
q0 42 28 70t68 28q42 0 71 -28.5t29 -69.5t-28 -70t-70 -29zM296 1218q-42 0 -71.5 29.5t-29.5 69.5q0 42 28.5 70t69.5 28t71 -28.5t30 -69.5t-29 -70t-69 -29z" />
    <glyph glyph-name="Amacron" unicode="&#x100;" horiz-adv-x="1321" 
d="M22 0l550 1434h174l552 -1434h-186l-145 384h-621l-137 -384h-187zM402 535h510l-232 629q-6 15 -11 39t-11 57h-4q-5 -30 -10.5 -54t-12.5 -42zM909 1566h-498v120h498v-120z" />
    <glyph glyph-name="amacron" unicode="&#x101;" horiz-adv-x="1042" 
d="M891 0h-164v160h-4q-53 -92 -130.5 -138t-180.5 -46q-144 0 -233 84t-89 223q0 131 90 217t255 110l292 39v23q0 129 -60 183.5t-160 54.5q-80 0 -154 -30t-139 -92l-96 99q86 83 183 122t216 39q186 0 280 -95.5t94 -286.5v-666zM727 416v102l-247 -34
q-113 -16 -170 -57t-57 -129q0 -92 53.5 -140.5t130.5 -48.5q133 0 211.5 87t78.5 220zM770 1218h-498v120h498v-120z" />
    <glyph glyph-name="Abreve" unicode="&#x102;" horiz-adv-x="1321" 
d="M22 0l550 1434h174l552 -1434h-186l-145 384h-621l-137 -384h-187zM402 535h510l-232 629q-6 15 -11 39t-11 57h-4q-5 -30 -10.5 -54t-12.5 -42zM940 1818q-10 -113 -88.5 -182.5t-190.5 -69.5q-117 0 -191 69t-79 183h100q6 -77 49 -116t123 -39q68 0 116.5 42t58.5 113
h102z" />
    <glyph glyph-name="abreve" unicode="&#x103;" horiz-adv-x="1042" 
d="M891 0h-164v160h-4q-53 -92 -130.5 -138t-180.5 -46q-144 0 -233 84t-89 223q0 131 90 217t255 110l292 39v23q0 129 -60 183.5t-160 54.5q-80 0 -154 -30t-139 -92l-96 99q86 83 183 122t216 39q186 0 280 -95.5t94 -286.5v-666zM727 416v102l-247 -34
q-113 -16 -170 -57t-57 -129q0 -92 53.5 -140.5t130.5 -48.5q133 0 211.5 87t78.5 220zM801 1470q-10 -113 -88.5 -182.5t-190.5 -69.5q-117 0 -191 69t-79 183h100q6 -77 49 -116t123 -39q68 0 116.5 42t58.5 113h102z" />
    <glyph glyph-name="Aogonek" unicode="&#x104;" horiz-adv-x="1321" 
d="M22 0l550 1434h174l552 -1434h-186l-145 384h-621l-137 -384h-187zM402 535h510l-232 629q-6 15 -11 39t-11 57h-4q-5 -30 -10.5 -54t-12.5 -42zM1231 0q-75 -70 -112.5 -126t-37.5 -97q0 -35 17 -52.5t51 -17.5q15 0 29 3.5t27 6.5l26 -97q-41 -13 -61.5 -16.5
t-46.5 -3.5q-76 0 -122 40t-46 110q0 61 39.5 123.5t117.5 126.5h119z" />
    <glyph glyph-name="aogonek" unicode="&#x105;" horiz-adv-x="1042" 
d="M891 0h-164v160h-4q-53 -92 -130.5 -138t-180.5 -46q-144 0 -233 84t-89 223q0 131 90 217t255 110l292 39v23q0 129 -60 183.5t-160 54.5q-80 0 -154 -30t-139 -92l-96 99q86 83 183 122t216 39q186 0 280 -95.5t94 -286.5v-666zM727 416v102l-247 -34
q-113 -16 -170 -57t-57 -129q0 -92 53.5 -140.5t130.5 -48.5q133 0 211.5 87t78.5 220zM851 0q-75 -70 -112.5 -126t-37.5 -97q0 -35 17 -52.5t51 -17.5q15 0 29 3.5t27 6.5l26 -97q-41 -13 -61.5 -16.5t-46.5 -3.5q-76 0 -122 40t-46 110q0 61 39.5 123.5t117.5 126.5h119z
" />
    <glyph glyph-name="Cacute" unicode="&#x106;" horiz-adv-x="1268" 
d="M1198 72q-104 -50 -203 -73t-215 -23q-325 0 -505.5 197t-180.5 517q0 351 201.5 559.5t525.5 208.5q101 0 189.5 -19t183.5 -61l-62 -138q-79 35 -153 50.5t-160 15.5q-252 0 -400.5 -162.5t-148.5 -443.5q0 -263 142.5 -418t377.5 -155q87 0 170.5 19t170.5 62z
M765 1566h-127l223 328h166z" />
    <glyph glyph-name="cacute" unicode="&#x107;" horiz-adv-x="946" 
d="M886 61q-71 -44 -142 -64.5t-155 -20.5q-216 0 -354.5 134t-138.5 380q0 250 139.5 404t383.5 154q79 0 150.5 -19t144.5 -62l-69 -120q-57 32 -112 47t-120 15q-169 0 -259 -113t-90 -287q0 -192 94.5 -293t244.5 -101q49 0 102.5 15.5t107.5 48.5zM593 1218h-127
l223 328h166z" />
    <glyph glyph-name="Ccircumflex" unicode="&#x108;" horiz-adv-x="1268" 
d="M1198 72q-104 -50 -203 -73t-215 -23q-325 0 -505.5 197t-180.5 517q0 351 201.5 559.5t525.5 208.5q101 0 189.5 -19t183.5 -61l-62 -138q-79 35 -153 50.5t-160 15.5q-252 0 -400.5 -162.5t-148.5 -443.5q0 -263 142.5 -418t377.5 -155q87 0 170.5 19t170.5 62z
M601 1566h-114l216 332h133l216 -332h-122l-164 230z" />
    <glyph glyph-name="ccircumflex" unicode="&#x109;" horiz-adv-x="946" 
d="M886 61q-71 -44 -142 -64.5t-155 -20.5q-216 0 -354.5 134t-138.5 380q0 250 139.5 404t383.5 154q79 0 150.5 -19t144.5 -62l-69 -120q-57 32 -112 47t-120 15q-169 0 -259 -113t-90 -287q0 -192 94.5 -293t244.5 -101q49 0 102.5 15.5t107.5 48.5zM429 1218h-114
l216 332h133l216 -332h-122l-164 230z" />
    <glyph glyph-name="Cdotaccent" unicode="&#x10a;" horiz-adv-x="1268" 
d="M1198 72q-104 -50 -203 -73t-215 -23q-325 0 -505.5 197t-180.5 517q0 351 201.5 559.5t525.5 208.5q101 0 189.5 -19t183.5 -61l-62 -138q-79 35 -153 50.5t-160 15.5q-252 0 -400.5 -162.5t-148.5 -443.5q0 -263 142.5 -418t377.5 -155q87 0 170.5 19t170.5 62z
M765 1566q-40 0 -69.5 28.5t-29.5 70.5q0 40 29 68t70 28t69.5 -27.5t28.5 -68.5t-28.5 -70t-69.5 -29z" />
    <glyph glyph-name="cdotaccent" unicode="&#x10b;" horiz-adv-x="946" 
d="M886 61q-71 -44 -142 -64.5t-155 -20.5q-216 0 -354.5 134t-138.5 380q0 250 139.5 404t383.5 154q79 0 150.5 -19t144.5 -62l-69 -120q-57 32 -112 47t-120 15q-169 0 -259 -113t-90 -287q0 -192 94.5 -293t244.5 -101q49 0 102.5 15.5t107.5 48.5zM593 1218
q-40 0 -69.5 28.5t-29.5 70.5q0 40 29 68t70 28t69.5 -27.5t28.5 -68.5t-28.5 -70t-69.5 -29z" />
    <glyph glyph-name="Ccaron" unicode="&#x10c;" horiz-adv-x="1268" 
d="M1198 72q-104 -50 -203 -73t-215 -23q-325 0 -505.5 197t-180.5 517q0 351 201.5 559.5t525.5 208.5q101 0 189.5 -19t183.5 -61l-62 -138q-79 35 -153 50.5t-160 15.5q-252 0 -400.5 -162.5t-148.5 -443.5q0 -263 142.5 -418t377.5 -155q87 0 170.5 19t170.5 62z
M834 1566h-132l-216 330h115l164 -229l164 229h119z" />
    <glyph glyph-name="ccaron" unicode="&#x10d;" horiz-adv-x="946" 
d="M886 61q-71 -44 -142 -64.5t-155 -20.5q-216 0 -354.5 134t-138.5 380q0 250 139.5 404t383.5 154q79 0 150.5 -19t144.5 -62l-69 -120q-57 32 -112 47t-120 15q-169 0 -259 -113t-90 -287q0 -192 94.5 -293t244.5 -101q49 0 102.5 15.5t107.5 48.5zM662 1218h-132
l-216 330h115l164 -229l164 229h119z" />
    <glyph glyph-name="Dcaron" unicode="&#x10e;" horiz-adv-x="1436" 
d="M188 0v1434h396q379 0 568.5 -174.5t189.5 -524.5q0 -332 -210.5 -533.5t-563.5 -201.5h-380zM356 1282v-1130h214q282 0 439 151t157 428q0 276 -146.5 413.5t-439.5 137.5h-224zM750 1566h-132l-216 330h115l164 -229l164 229h119z" />
    <glyph glyph-name="dcaron" unicode="&#x10f;" horiz-adv-x="1381" 
d="M872 174q-57 -99 -144.5 -148.5t-207.5 -49.5q-193 0 -308.5 137.5t-115.5 374.5q0 254 128 407t341 153q106 0 182.5 -41.5t124.5 -124.5h4v634h164v-1516h-164v174h-4zM264 496q0 -177 82.5 -279.5t221.5 -102.5q138 0 223 99t85 250v151q0 124 -82.5 210t-207.5 86
q-150 0 -236 -110t-86 -304zM1458 1522l-166 -260h-123l117 260h172z" />
    <glyph glyph-name="Dcroat" unicode="&#x110;" horiz-adv-x="1436" 
d="M188 0v641h-160v155h160v638h396q379 0 568.5 -174.5t189.5 -524.5q0 -334 -210.5 -534.5t-563.5 -200.5h-380zM356 1282v-486h336v-155h-336v-489h214q282 0 439 151t157 428q0 276 -146.5 413.5t-439.5 137.5h-224z" />
    <glyph glyph-name="dcroat" unicode="&#x111;" horiz-adv-x="1206" 
d="M1176 1202h-136v-1202h-164v174h-4q-57 -99 -145 -148.5t-207 -49.5q-193 0 -308.5 137.5t-115.5 374.5q0 254 128 407t341 153q104 0 181 -41.5t126 -124.5h4v320h-331v134h331v180h164v-180h136v-134zM876 463v151q0 124 -82 210t-208 86q-150 0 -236 -110t-86 -304
q0 -177 82.5 -279.5t221.5 -102.5q136 0 222 99t86 250z" />
    <glyph glyph-name="Emacron" unicode="&#x112;" horiz-adv-x="1036" 
d="M948 0h-760v1434h728v-152h-560v-477h518v-151h-518v-502h592v-152zM800 1566h-498v120h498v-120z" />
    <glyph glyph-name="emacron" unicode="&#x113;" horiz-adv-x="1071" 
d="M989 475h-724q4 -173 91.5 -266.5t245.5 -93.5q69 0 138.5 20.5t137.5 65.5l76 -117q-87 -56 -174 -82t-191 -26q-232 0 -362 138t-131 385t130.5 398t341.5 151q200 0 310.5 -130.5t110.5 -361.5v-81zM821 609q-1 142 -69 221.5t-187 79.5q-117 0 -198.5 -81.5
t-99.5 -219.5h554zM813 1218h-498v120h498v-120z" />
    <glyph glyph-name="Ebreve" unicode="&#x114;" horiz-adv-x="1036" 
d="M948 0h-760v1434h728v-152h-560v-477h518v-151h-518v-502h592v-152zM831 1818q-10 -113 -88.5 -182.5t-190.5 -69.5q-117 0 -191 69t-79 183h100q6 -77 49 -116t123 -39q68 0 116.5 42t58.5 113h102z" />
    <glyph glyph-name="ebreve" unicode="&#x115;" horiz-adv-x="1071" 
d="M989 475h-724q4 -173 91.5 -266.5t245.5 -93.5q69 0 138.5 20.5t137.5 65.5l76 -117q-87 -56 -174 -82t-191 -26q-232 0 -362 138t-131 385t130.5 398t341.5 151q200 0 310.5 -130.5t110.5 -361.5v-81zM821 609q-1 142 -69 221.5t-187 79.5q-117 0 -198.5 -81.5
t-99.5 -219.5h554zM844 1470q-10 -113 -88.5 -182.5t-190.5 -69.5q-117 0 -191 69t-79 183h100q6 -77 49 -116t123 -39q68 0 116.5 42t58.5 113h102z" />
    <glyph glyph-name="Edotaccent" unicode="&#x116;" horiz-adv-x="1036" 
d="M948 0h-760v1434h728v-152h-560v-477h518v-151h-518v-502h592v-152zM552 1566q-40 0 -69.5 28.5t-29.5 70.5q0 40 29 68t70 28t69.5 -27.5t28.5 -68.5t-28.5 -70t-69.5 -29z" />
    <glyph glyph-name="edotaccent" unicode="&#x117;" horiz-adv-x="1071" 
d="M989 475h-724q4 -173 91.5 -266.5t245.5 -93.5q69 0 138.5 20.5t137.5 65.5l76 -117q-87 -56 -174 -82t-191 -26q-232 0 -362 138t-131 385t130.5 398t341.5 151q200 0 310.5 -130.5t110.5 -361.5v-81zM821 609q-1 142 -69 221.5t-187 79.5q-117 0 -198.5 -81.5
t-99.5 -219.5h554zM565 1218q-40 0 -69.5 28.5t-29.5 70.5q0 40 29 68t70 28t69.5 -27.5t28.5 -68.5t-28.5 -70t-69.5 -29z" />
    <glyph glyph-name="Eogonek" unicode="&#x118;" horiz-adv-x="1036" 
d="M948 0h-760v1434h728v-152h-560v-477h518v-151h-518v-502h592v-152zM864 0q-75 -70 -112.5 -126t-37.5 -97q0 -35 17 -52.5t51 -17.5q15 0 29 3.5t27 6.5l26 -97q-41 -13 -61.5 -16.5t-46.5 -3.5q-76 0 -122 40t-46 110q0 61 39.5 123.5t117.5 126.5h119z" />
    <glyph glyph-name="eogonek" unicode="&#x119;" horiz-adv-x="1071" 
d="M989 475h-724q4 -173 91.5 -266.5t245.5 -93.5q69 0 138.5 20.5t137.5 65.5l76 -117q-87 -56 -174 -82t-191 -26q-232 0 -362 138t-131 385t130.5 398t341.5 151q200 0 310.5 -130.5t110.5 -361.5v-81zM821 609q-1 142 -69 221.5t-187 79.5q-117 0 -198.5 -81.5
t-99.5 -219.5h554zM756 0q-75 -70 -112.5 -126t-37.5 -97q0 -35 17 -52.5t51 -17.5q15 0 29 3.5t27 6.5l26 -97q-41 -13 -61.5 -16.5t-46.5 -3.5q-76 0 -122 40t-46 110q0 61 39.5 123.5t117.5 126.5h119z" />
    <glyph glyph-name="Ecaron" unicode="&#x11a;" horiz-adv-x="1036" 
d="M948 0h-760v1434h728v-152h-560v-477h518v-151h-518v-502h592v-152zM621 1566h-132l-216 330h115l164 -229l164 229h119z" />
    <glyph glyph-name="ecaron" unicode="&#x11b;" horiz-adv-x="1071" 
d="M989 475h-724q4 -173 91.5 -266.5t245.5 -93.5q69 0 138.5 20.5t137.5 65.5l76 -117q-87 -56 -174 -82t-191 -26q-232 0 -362 138t-131 385t130.5 398t341.5 151q200 0 310.5 -130.5t110.5 -361.5v-81zM821 609q-1 142 -69 221.5t-187 79.5q-117 0 -198.5 -81.5
t-99.5 -219.5h554zM634 1218h-132l-216 330h115l164 -229l164 229h119z" />
    <glyph glyph-name="Gcircumflex" unicode="&#x11c;" horiz-adv-x="1405" 
d="M1260 98q-108 -61 -228 -91.5t-252 -30.5q-315 0 -500.5 190t-185.5 532q0 349 207.5 554.5t532.5 205.5q119 0 221 -24.5t208 -78.5l-69 -136q-89 46 -175 66.5t-186 20.5q-246 0 -404.5 -156t-158.5 -440q0 -288 139 -435.5t392 -147.5q84 0 157 16.5t134 50.5v402
h-314v152h482v-650zM663 1566h-114l216 332h133l216 -332h-122l-164 230z" />
    <glyph glyph-name="gcircumflex" unicode="&#x11d;" horiz-adv-x="1206" 
d="M1040 55q0 -269 -137.5 -403t-376.5 -134q-105 0 -195.5 20t-186.5 65l60 126q80 -37 156.5 -54t163.5 -17q164 0 258 93t94 282v139h-4q-58 -98 -146 -147t-206 -49q-191 0 -307.5 136.5t-116.5 366.5q0 252 128.5 410.5t340.5 158.5q104 0 180.5 -41.5t126.5 -124.5h4
v142h164v-969zM876 463v151q0 122 -82.5 209t-205.5 87q-151 0 -237.5 -104t-86.5 -316q0 -182 80 -279t221 -97q138 0 224.5 98t86.5 251zM413 1218h-114l216 332h133l216 -332h-122l-164 230z" />
    <glyph glyph-name="Gbreve" unicode="&#x11e;" horiz-adv-x="1405" 
d="M1260 98q-108 -61 -228 -91.5t-252 -30.5q-315 0 -500.5 190t-185.5 532q0 349 207.5 554.5t532.5 205.5q119 0 221 -24.5t208 -78.5l-69 -136q-89 46 -175 66.5t-186 20.5q-246 0 -404.5 -156t-158.5 -440q0 -288 139 -435.5t392 -147.5q84 0 157 16.5t134 50.5v402
h-314v152h482v-650zM1106 1818q-10 -113 -88.5 -182.5t-190.5 -69.5q-117 0 -191 69t-79 183h100q6 -77 49 -116t123 -39q68 0 116.5 42t58.5 113h102z" />
    <glyph glyph-name="gbreve" unicode="&#x11f;" horiz-adv-x="1206" 
d="M1040 55q0 -269 -137.5 -403t-376.5 -134q-105 0 -195.5 20t-186.5 65l60 126q80 -37 156.5 -54t163.5 -17q164 0 258 93t94 282v139h-4q-58 -98 -146 -147t-206 -49q-191 0 -307.5 136.5t-116.5 366.5q0 252 128.5 410.5t340.5 158.5q104 0 180.5 -41.5t126.5 -124.5h4
v142h164v-969zM876 463v151q0 122 -82.5 209t-205.5 87q-151 0 -237.5 -104t-86.5 -316q0 -182 80 -279t221 -97q138 0 224.5 98t86.5 251zM856 1470q-10 -113 -88.5 -182.5t-190.5 -69.5q-117 0 -191 69t-79 183h100q6 -77 49 -116t123 -39q68 0 116.5 42t58.5 113h102z
" />
    <glyph glyph-name="Gdotaccent" unicode="&#x120;" horiz-adv-x="1405" 
d="M1260 98q-108 -61 -228 -91.5t-252 -30.5q-315 0 -500.5 190t-185.5 532q0 349 207.5 554.5t532.5 205.5q119 0 221 -24.5t208 -78.5l-69 -136q-89 46 -175 66.5t-186 20.5q-246 0 -404.5 -156t-158.5 -440q0 -288 139 -435.5t392 -147.5q84 0 157 16.5t134 50.5v402
h-314v152h482v-650zM827 1566q-40 0 -69.5 28.5t-29.5 70.5q0 40 29 68t70 28t69.5 -27.5t28.5 -68.5t-28.5 -70t-69.5 -29z" />
    <glyph glyph-name="gdotaccent" unicode="&#x121;" horiz-adv-x="1206" 
d="M1040 55q0 -269 -137.5 -403t-376.5 -134q-105 0 -195.5 20t-186.5 65l60 126q80 -37 156.5 -54t163.5 -17q164 0 258 93t94 282v139h-4q-58 -98 -146 -147t-206 -49q-191 0 -307.5 136.5t-116.5 366.5q0 252 128.5 410.5t340.5 158.5q104 0 180.5 -41.5t126.5 -124.5h4
v142h164v-969zM876 463v151q0 122 -82.5 209t-205.5 87q-151 0 -237.5 -104t-86.5 -316q0 -182 80 -279t221 -97q138 0 224.5 98t86.5 251zM577 1218q-40 0 -69.5 28.5t-29.5 70.5q0 40 29 68t70 28t69.5 -27.5t28.5 -68.5t-28.5 -70t-69.5 -29z" />
    <glyph glyph-name="Gcommaaccent" unicode="&#x122;" horiz-adv-x="1405" 
d="M1260 98q-108 -61 -228 -91.5t-252 -30.5q-315 0 -500.5 190t-185.5 532q0 349 207.5 554.5t532.5 205.5q119 0 221 -24.5t208 -78.5l-69 -136q-89 46 -175 66.5t-186 20.5q-246 0 -404.5 -156t-158.5 -440q0 -288 139 -435.5t392 -147.5q84 0 157 16.5t134 50.5v402
h-314v152h482v-650zM854 -120l-166 -260h-123l117 260h172z" />
    <glyph glyph-name="gcommaaccent" unicode="&#x123;" horiz-adv-x="1206" 
d="M471 1218l166 260h123l-117 -260h-172zM1040 55q0 -269 -137.5 -403t-376.5 -134q-105 0 -195.5 20t-186.5 65l60 126q80 -37 156.5 -54t163.5 -17q164 0 258 93t94 282v139h-4q-58 -98 -146 -147t-206 -49q-191 0 -307.5 136.5t-116.5 366.5q0 252 128.5 410.5
t340.5 158.5q104 0 180.5 -41.5t126.5 -124.5h4v142h164v-969zM876 463v151q0 122 -82.5 209t-205.5 87q-151 0 -237.5 -104t-86.5 -316q0 -182 80 -279t221 -97q138 0 224.5 98t86.5 251z" />
    <glyph glyph-name="Hcircumflex" unicode="&#x124;" horiz-adv-x="1454" 
d="M1266 0h-168v654h-742v-654h-168v1434h168v-629h742v629h168v-1434zM565 1566h-114l216 332h133l216 -332h-122l-164 230z" />
    <glyph glyph-name="hcircumflex" unicode="&#x125;" horiz-adv-x="1159" 
d="M1016 0h-164v590q0 160 -59.5 240t-178.5 80q-120 0 -202 -92.5t-82 -237.5v-580h-164v1516h164v-662h4q59 97 143 145.5t193 48.5q173 0 259.5 -104t86.5 -313v-631zM438 1578h-114l216 332h133l216 -332h-122l-164 230z" />
    <glyph glyph-name="Hbar" unicode="&#x126;" horiz-adv-x="1454" 
d="M356 0h-168v1028h-160v152h160v254h168v-254h742v254h168v-254h160v-152h-160v-1028h-168v654h-742v-654zM356 1028v-223h742v223h-742z" />
    <glyph glyph-name="hbar" unicode="&#x127;" horiz-adv-x="1159" 
d="M1016 0h-164v590q0 160 -59.5 240t-178.5 80q-120 0 -202 -92.5t-82 -237.5v-580h-164v1202h-136v134h136v180h164v-180h332v-134h-332v-348h4q60 97 144 145.5t192 48.5q173 0 259.5 -104t86.5 -313v-631z" />
    <glyph glyph-name="Itilde" unicode="&#x128;" horiz-adv-x="545" 
d="M356 0h-168v1434h168v-1434zM596 1806q0 -105 -48 -171.5t-130 -66.5q-35 0 -75.5 13t-86.5 39q-38 22 -68 32.5t-51 10.5q-44 0 -66 -28t-22 -85h-94q0 107 48 171.5t134 64.5q33 0 70 -13t79 -39q37 -22 69 -33t59 -11q42 0 63 29t21 87h98z" />
    <glyph glyph-name="itilde" unicode="&#x129;" horiz-adv-x="496" 
d="M166 0v1024h164v-1024h-164zM574 1458q0 -105 -48 -171.5t-130 -66.5q-35 0 -75.5 13t-86.5 39q-38 22 -68 32.5t-51 10.5q-44 0 -66 -28t-22 -85h-94q0 107 48 171.5t134 64.5q33 0 70 -13t79 -39q37 -22 69 -33t59 -11q42 0 63 29t21 87h98z" />
    <glyph glyph-name="Imacron" unicode="&#x12a;" horiz-adv-x="545" 
d="M356 0h-168v1434h168v-1434zM519 1566h-498v120h498v-120z" />
    <glyph glyph-name="imacron" unicode="&#x12b;" horiz-adv-x="496" 
d="M166 0v1024h164v-1024h-164zM497 1218h-498v120h498v-120z" />
    <glyph glyph-name="Ibreve" unicode="&#x12c;" horiz-adv-x="545" 
d="M356 0h-168v1434h168v-1434zM550 1818q-10 -113 -88.5 -182.5t-190.5 -69.5q-117 0 -191 69t-79 183h100q6 -77 49 -116t123 -39q68 0 116.5 42t58.5 113h102z" />
    <glyph glyph-name="ibreve" unicode="&#x12d;" horiz-adv-x="496" 
d="M166 0v1024h164v-1024h-164zM528 1470q-10 -113 -88.5 -182.5t-190.5 -69.5q-117 0 -191 69t-79 183h100q6 -77 49 -116t123 -39q68 0 116.5 42t58.5 113h102z" />
    <glyph glyph-name="Iogonek" unicode="&#x12e;" horiz-adv-x="545" 
d="M356 0h-168v1434h168v-1434zM357 0q-75 -70 -112.5 -126t-37.5 -97q0 -35 17 -52.5t51 -17.5q15 0 29 3.5t27 6.5l26 -97q-41 -13 -61.5 -16.5t-46.5 -3.5q-76 0 -122 40t-46 110q0 61 39.5 123.5t117.5 126.5h119z" />
    <glyph glyph-name="iogonek" unicode="&#x12f;" horiz-adv-x="496" 
d="M250 1269q-50 0 -84 33.5t-34 82.5t34 82.5t84 33.5t84 -33.5t34 -82.5t-34 -82.5t-84 -33.5zM330 0h-164v1024h164v-1024zM333 0q-75 -70 -112.5 -126t-37.5 -97q0 -35 17 -52.5t51 -17.5q15 0 29 3.5t27 6.5l26 -97q-41 -13 -61.5 -16.5t-46.5 -3.5q-76 0 -122 40
t-46 110q0 61 39.5 123.5t117.5 126.5h119z" />
    <glyph glyph-name="Idotaccent" unicode="&#x130;" horiz-adv-x="545" 
d="M356 0h-168v1434h168v-1434zM271 1566q-40 0 -69.5 28.5t-29.5 70.5q0 40 29 68t70 28t69.5 -27.5t28.5 -68.5t-28.5 -70t-69.5 -29z" />
    <glyph glyph-name="idotless" unicode="&#x131;" horiz-adv-x="496" 
d="M166 0v1024h164v-1024h-164z" />
    <glyph glyph-name="IJ" unicode="&#x132;" horiz-adv-x="1276" 
d="M356 0h-168v1434h168v-1434zM1102 410q0 -205 -90 -319.5t-280 -114.5q-48 0 -89 6t-86 20l44 145q34 -11 64.5 -15.5t61.5 -4.5q100 0 153.5 64t53.5 217v1026h168v-1024z" />
    <glyph glyph-name="ij" unicode="&#x133;" horiz-adv-x="1014" 
d="M250 1269q-50 0 -84 33.5t-34 82.5t34 82.5t84 33.5t84 -33.5t34 -82.5t-34 -82.5t-84 -33.5zM330 0h-164v1024h164v-1024zM768 1269q-50 0 -84 33.5t-34 82.5t34 82.5t84 33.5t84 -33.5t34 -82.5t-34 -82.5t-84 -33.5zM846 -29q0 -241 -87 -347t-266 -106q-39 0 -71.5 5
t-69.5 16l35 139q31 -11 56 -15.5t51 -4.5q105 0 146.5 69.5t41.5 232.5v1064h164v-1053z" />
    <glyph glyph-name="Jcircumflex" unicode="&#x134;" horiz-adv-x="731" 
d="M555 410q0 -205 -90 -319.5t-280 -114.5q-48 0 -89 6t-86 20l44 145q34 -11 64.5 -15.5t61.5 -4.5q100 0 153.5 64t53.5 217v1026h168v-1024zM306 1566h-114l216 332h133l216 -332h-122l-164 230z" />
    <glyph glyph-name="jcircumflex" unicode="&#x135;" horiz-adv-x="496" 
d="M328 -29q0 -241 -87 -347t-266 -106q-39 0 -71.5 5t-69.5 16l35 139q31 -11 56 -15.5t51 -4.5q105 0 146.5 69.5t41.5 232.5v1064h164v-1053zM83 1218h-114l216 332h133l216 -332h-122l-164 230z" />
    <glyph glyph-name="Kcommaaccent" unicode="&#x136;" horiz-adv-x="1188" 
d="M1186 0h-234l-554 656q-15 19 -24.5 31.5t-13.5 18.5h-4v-706h-168v1434h168v-674h4q7 11 16.5 23.5t21.5 25.5l536 625h209l-615 -688zM736 -120l-166 -260h-123l117 260h172z" />
    <glyph glyph-name="kcommaaccent" unicode="&#x137;" horiz-adv-x="1018" 
d="M1016 0h-230l-452 492h-4v-492h-164v1516h164v-961h4l430 469h215l-475 -494zM667 -120l-166 -260h-123l117 260h172z" />
    <glyph glyph-name="kgreenlandic" unicode="&#x138;" horiz-adv-x="1018" 
d="M330 0h-164v1024h164v-469h4l430 469h215l-475 -494l512 -530h-230l-452 492h-4v-492z" />
    <glyph glyph-name="Lacute" unicode="&#x139;" horiz-adv-x="964" 
d="M932 0h-744v1434h168v-1282h576v-152zM331 1570h-127l223 328h166z" />
    <glyph glyph-name="lacute" unicode="&#x13a;" horiz-adv-x="496" 
d="M166 0v1516h164v-1516h-164zM248 1594h-127l223 328h166z" />
    <glyph glyph-name="Lcommaaccent" unicode="&#x13b;" horiz-adv-x="964" 
d="M932 0h-744v1434h168v-1282h576v-152zM667 -120l-166 -260h-123l117 260h172z" />
    <glyph glyph-name="lcommaaccent" unicode="&#x13c;" horiz-adv-x="496" 
d="M166 0v1516h164v-1516h-164zM354 -120l-166 -260h-123l117 260h172z" />
    <glyph glyph-name="Lcaron" unicode="&#x13d;" horiz-adv-x="964" 
d="M932 0h-744v1434h168v-1282h576v-152zM909 1433l-166 -260h-123l117 260h172z" />
    <glyph glyph-name="lcaron" unicode="&#x13e;" horiz-adv-x="629" 
d="M166 0v1516h164v-1516h-164zM707 1504l-166 -260h-123l117 260h172z" />
    <glyph glyph-name="Ldot" unicode="&#x13f;" horiz-adv-x="964" 
d="M932 0h-744v1434h168v-1282h576v-152zM735 662q-40 0 -69.5 28.5t-29.5 70.5q0 40 29 68t70 28t69.5 -27.5t28.5 -68.5t-28.5 -70t-69.5 -29z" />
    <glyph glyph-name="ldot" unicode="&#x140;" horiz-adv-x="645" 
d="M166 0v1516h164v-1516h-164zM560 665q-40 0 -69.5 28.5t-29.5 70.5q0 40 29 68t70 28t69.5 -27.5t28.5 -68.5t-28.5 -70t-69.5 -29z" />
    <glyph glyph-name="Lslash" unicode="&#x141;" horiz-adv-x="964" 
d="M932 0h-744v547l-121 -79l-68 111l189 119v736h168v-631l295 183l68 -111l-363 -223v-500h576v-152z" />
    <glyph glyph-name="lslash" unicode="&#x142;" horiz-adv-x="561" 
d="M356 0h-164v578l-117 -82l-68 109l185 130v781h164v-670l127 89l68 -109l-195 -138v-688z" />
    <glyph glyph-name="Nacute" unicode="&#x143;" horiz-adv-x="1532" 
d="M1344 0h-206l-738 1143q-14 22 -25.5 44.5t-20.5 45.5h-6q4 -23 6 -72t2 -125v-1036h-168v1434h218l718 -1125q23 -35 37.5 -59t20.5 -37h4q-5 31 -7.5 84t-2.5 127v1010h168v-1434zM772 1566h-127l223 328h166z" />
    <glyph glyph-name="nacute" unicode="&#x144;" horiz-adv-x="1159" 
d="M1016 0h-164v584q0 163 -59.5 244.5t-178.5 81.5q-123 0 -203.5 -92.5t-80.5 -233.5v-584h-164v1024h164v-170h4q58 97 142 145.5t194 48.5q168 0 257 -108.5t89 -313.5v-626zM581 1218h-127l223 328h166z" />
    <glyph glyph-name="Ncommaaccent" unicode="&#x145;" horiz-adv-x="1532" 
d="M1344 0h-206l-738 1143q-14 22 -25.5 44.5t-20.5 45.5h-6q4 -23 6 -72t2 -125v-1036h-168v1434h218l718 -1125q23 -35 37.5 -59t20.5 -37h4q-5 31 -7.5 84t-2.5 127v1010h168v-1434zM876 -120l-166 -260h-123l117 260h172z" />
    <glyph glyph-name="ncommaaccent" unicode="&#x146;" horiz-adv-x="1159" 
d="M1016 0h-164v584q0 163 -59.5 244.5t-178.5 81.5q-123 0 -203.5 -92.5t-80.5 -233.5v-584h-164v1024h164v-170h4q58 97 142 145.5t194 48.5q168 0 257 -108.5t89 -313.5v-626zM711 -120l-166 -260h-123l117 260h172z" />
    <glyph glyph-name="Ncaron" unicode="&#x147;" horiz-adv-x="1532" 
d="M1344 0h-206l-738 1143q-14 22 -25.5 44.5t-20.5 45.5h-6q4 -23 6 -72t2 -125v-1036h-168v1434h218l718 -1125q23 -35 37.5 -59t20.5 -37h4q-5 31 -7.5 84t-2.5 127v1010h168v-1434zM841 1566h-132l-216 330h115l164 -229l164 229h119z" />
    <glyph glyph-name="ncaron" unicode="&#x148;" horiz-adv-x="1159" 
d="M1016 0h-164v584q0 163 -59.5 244.5t-178.5 81.5q-123 0 -203.5 -92.5t-80.5 -233.5v-584h-164v1024h164v-170h4q58 97 142 145.5t194 48.5q168 0 257 -108.5t89 -313.5v-626zM650 1218h-132l-216 330h115l164 -229l164 229h119z" />
    <glyph glyph-name="napostrophe" unicode="&#x149;" horiz-adv-x="1241" 
d="M1098 0h-164v584q0 163 -59.5 244.5t-178.5 81.5q-123 0 -203.5 -92.5t-80.5 -233.5v-584h-164v1024h164v-170h4q58 97 142 145.5t194 48.5q168 0 257 -108.5t89 -313.5v-626zM217 1458l-140 -446h-118l111 446h147z" />
    <glyph glyph-name="Eng" unicode="&#x14a;" horiz-adv-x="1532" 
d="M356 0h-168v1434h218l718 -1066q1 -1 15.5 -27t42.5 -77h4q-5 36 -7.5 91t-2.5 129v950h168v-1370q0 -243 -91 -364.5t-274 -121.5q-50 0 -97 10.5t-77 24.5l49 144q31 -13 63.5 -20t65.5 -7q95 0 142 67.5t47 202.5l-772 1143q-11 16 -22.5 38.5t-23.5 51.5h-6
q4 -26 6 -75.5t2 -121.5v-1036z" />
    <glyph glyph-name="eng" unicode="&#x14b;" horiz-adv-x="1159" 
d="M1016 26q0 -224 -89.5 -336t-268.5 -112q-38 0 -84 11t-99 40l71 132q24 -16 54 -23.5t62 -7.5q95 0 142.5 67.5t47.5 202.5v584q0 163 -59.5 244.5t-178.5 81.5q-122 0 -203 -92.5t-81 -233.5v-584h-164v1024h164v-170h4q59 97 143 145.5t193 48.5q167 0 256.5 -108.5
t89.5 -313.5v-600z" />
    <glyph glyph-name="Omacron" unicode="&#x14c;" horiz-adv-x="1544" 
d="M766 -24q-305 0 -488.5 201t-183.5 523q0 346 187 552t509 206q297 0 478.5 -200t181.5 -523q0 -351 -186 -555t-498 -204zM766 127q236 0 372 154t136 431q0 284 -132 439t-364 155q-226 0 -367 -163t-141 -428t137.5 -426.5t358.5 -161.5zM1032 1566h-498v120h498v-120
z" />
    <glyph glyph-name="omacron" unicode="&#x14d;" horiz-adv-x="1200" 
d="M594 -24q-227 0 -362.5 143.5t-135.5 380.5q0 257 140 402t382 146q229 1 357.5 -141t128.5 -391q0 -246 -138.5 -393t-371.5 -147zM606 114q159 0 244.5 103.5t85.5 292.5q0 193 -86 296.5t-244 103.5t-250 -108t-92 -296q0 -182 93 -287t249 -105zM849 1218h-498v120
h498v-120z" />
    <glyph glyph-name="Obreve" unicode="&#x14e;" horiz-adv-x="1544" 
d="M766 -24q-305 0 -488.5 201t-183.5 523q0 346 187 552t509 206q297 0 478.5 -200t181.5 -523q0 -351 -186 -555t-498 -204zM766 127q236 0 372 154t136 431q0 284 -132 439t-364 155q-226 0 -367 -163t-141 -428t137.5 -426.5t358.5 -161.5zM1063 1818
q-10 -113 -88.5 -182.5t-190.5 -69.5q-117 0 -191 69t-79 183h100q6 -77 49 -116t123 -39q68 0 116.5 42t58.5 113h102z" />
    <glyph glyph-name="obreve" unicode="&#x14f;" horiz-adv-x="1200" 
d="M594 -24q-227 0 -362.5 143.5t-135.5 380.5q0 257 140 402t382 146q229 1 357.5 -141t128.5 -391q0 -246 -138.5 -393t-371.5 -147zM606 114q159 0 244.5 103.5t85.5 292.5q0 193 -86 296.5t-244 103.5t-250 -108t-92 -296q0 -182 93 -287t249 -105zM880 1470
q-10 -113 -88.5 -182.5t-190.5 -69.5q-117 0 -191 69t-79 183h100q6 -77 49 -116t123 -39q68 0 116.5 42t58.5 113h102z" />
    <glyph glyph-name="Ohungarumlaut" unicode="&#x150;" horiz-adv-x="1544" 
d="M766 -24q-305 0 -488.5 201t-183.5 523q0 346 187 552t509 206q297 0 478.5 -200t181.5 -523q0 -351 -186 -555t-498 -204zM766 127q236 0 372 154t136 431q0 284 -132 439t-364 155q-226 0 -367 -163t-141 -428t137.5 -426.5t358.5 -161.5zM918 1569h-97l209 318h133z
M676 1569h-96l206 318h130z" />
    <glyph glyph-name="ohungarumlaut" unicode="&#x151;" horiz-adv-x="1200" 
d="M594 -24q-227 0 -362.5 143.5t-135.5 380.5q0 257 140 402t382 146q229 1 357.5 -141t128.5 -391q0 -246 -138.5 -393t-371.5 -147zM606 114q159 0 244.5 103.5t85.5 292.5q0 193 -86 296.5t-244 103.5t-250 -108t-92 -296q0 -182 93 -287t249 -105zM735 1221h-97
l209 318h133zM493 1221h-96l206 318h130z" />
    <glyph glyph-name="OE" unicode="&#x152;" horiz-adv-x="1906" 
d="M1810 0h-720q-14 0 -120 -12t-200 -12q-312 0 -494 201t-182 523q0 346 189.5 552t514.5 206q102 0 196 -12t96 -12h688v-152h-560v-477h518v-151h-518v-502h592v-152zM1050 1278q-80 14 -147 21t-121 7q-229 0 -370.5 -166t-141.5 -425q0 -258 139.5 -423t366.5 -165
q58 0 126.5 8.5t147.5 24.5v1118z" />
    <glyph glyph-name="oe" unicode="&#x153;" horiz-adv-x="1900" 
d="M1791 94q-87 -62 -176.5 -90t-196.5 -28q-157 0 -252.5 59.5t-151.5 177.5h-4q-65 -118 -169 -177.5t-247 -59.5q-229 0 -363.5 143t-134.5 379q0 258 142 404t382 146q147 0 247.5 -58.5t154.5 -176.5h4q60 118 156 176.5t229 58.5q196 0 305 -131.5t109 -357.5v-88
h-725q3 -171 91.5 -264t239.5 -92q71 0 141.5 22t138.5 71zM1657 610q-2 142 -69 221t-183 79q-120 0 -203.5 -85.5t-99.5 -214.5h555zM606 910q-158 0 -250 -108.5t-92 -299.5q0 -180 92 -284t248 -104q159 0 245.5 102.5t86.5 291.5q0 194 -86.5 298t-243.5 104z" />
    <glyph glyph-name="Racute" unicode="&#x154;" horiz-adv-x="1225" 
d="M1204 0h-200l-246 407q-69 114 -118 146.5t-119 32.5h-165v-586h-168v1434h428q187 0 311.5 -99t124.5 -292q0 -152 -79 -255t-217 -149v-4q45 -27 79 -59t72 -94zM356 1282v-544h228q125 0 208.5 81t83.5 210q0 115 -74.5 184t-215.5 69h-230zM604 1566h-127l223 328
h166z" />
    <glyph glyph-name="racute" unicode="&#x155;" horiz-adv-x="712" 
d="M671 884q-19 6 -34 8.5t-38 2.5q-125 0 -197 -106.5t-72 -266.5v-522h-164v1024h164v-203h4q35 108 107 164.5t166 56.5q31 0 52.5 -3t38.5 -9zM415 1218h-127l223 328h166z" />
    <glyph glyph-name="Rcommaaccent" unicode="&#x156;" horiz-adv-x="1225" 
d="M1204 0h-200l-246 407q-69 114 -118 146.5t-119 32.5h-165v-586h-168v1434h428q187 0 311.5 -99t124.5 -292q0 -152 -79 -255t-217 -149v-4q45 -27 79 -59t72 -94zM356 1282v-544h228q125 0 208.5 81t83.5 210q0 115 -74.5 184t-215.5 69h-230zM755 -120l-166 -260h-123
l117 260h172z" />
    <glyph glyph-name="rcommaaccent" unicode="&#x157;" horiz-adv-x="712" 
d="M671 884q-19 6 -34 8.5t-38 2.5q-125 0 -197 -106.5t-72 -266.5v-522h-164v1024h164v-203h4q35 108 107 164.5t166 56.5q31 0 52.5 -3t38.5 -9zM523 -120l-166 -260h-123l117 260h172z" />
    <glyph glyph-name="Rcaron" unicode="&#x158;" horiz-adv-x="1225" 
d="M1204 0h-200l-246 407q-69 114 -118 146.5t-119 32.5h-165v-586h-168v1434h428q187 0 311.5 -99t124.5 -292q0 -152 -79 -255t-217 -149v-4q45 -27 79 -59t72 -94zM356 1282v-544h228q125 0 208.5 81t83.5 210q0 115 -74.5 184t-215.5 69h-230zM673 1566h-132l-216 330
h115l164 -229l164 229h119z" />
    <glyph glyph-name="rcaron" unicode="&#x159;" horiz-adv-x="712" 
d="M671 884q-19 6 -34 8.5t-38 2.5q-125 0 -197 -106.5t-72 -266.5v-522h-164v1024h164v-203h4q35 108 107 164.5t166 56.5q31 0 52.5 -3t38.5 -9zM484 1218h-132l-216 330h115l164 -229l164 229h119z" />
    <glyph glyph-name="Sacute" unicode="&#x15a;" horiz-adv-x="1088" 
d="M64 110l82 126q88 -57 176 -83t205 -26q131 0 215.5 61.5t84.5 179.5q0 105 -71.5 168t-234.5 122q-202 73 -299.5 164.5t-97.5 241.5q0 176 126.5 285t332.5 109q96 0 188 -20.5t190 -66.5l-63 -135q-82 38 -159.5 55t-167.5 17q-129 0 -204 -60.5t-75 -167.5
q0 -94 69 -150t230 -114q216 -78 310 -174t94 -259q0 -174 -126 -290.5t-354 -116.5q-128 0 -236 32t-215 102zM545 1566h-127l223 328h166z" />
    <glyph glyph-name="sacute" unicode="&#x15b;" horiz-adv-x="869" 
d="M70 77l78 126q67 -44 131 -66.5t138 -22.5q105 0 159.5 39t54.5 117q0 63 -48.5 106.5t-151.5 69.5q-192 49 -263 123.5t-71 183.5q0 126 95 210.5t265 84.5q82 0 156 -21t151 -72l-73 -124q-70 44 -125.5 61.5t-112.5 17.5q-99 0 -151 -36.5t-52 -105.5t53.5 -104
t172.5 -66q156 -42 233.5 -117.5t77.5 -197.5q0 -142 -100.5 -224.5t-275.5 -82.5q-94 0 -180.5 26t-160.5 75zM432 1218h-127l223 328h166z" />
    <glyph glyph-name="Scircumflex" unicode="&#x15c;" horiz-adv-x="1088" 
d="M64 110l82 126q88 -57 176 -83t205 -26q131 0 215.5 61.5t84.5 179.5q0 105 -71.5 168t-234.5 122q-202 73 -299.5 164.5t-97.5 241.5q0 176 126.5 285t332.5 109q96 0 188 -20.5t190 -66.5l-63 -135q-82 38 -159.5 55t-167.5 17q-129 0 -204 -60.5t-75 -167.5
q0 -94 69 -150t230 -114q216 -78 310 -174t94 -259q0 -174 -126 -290.5t-354 -116.5q-128 0 -236 32t-215 102zM381 1566h-114l216 332h133l216 -332h-122l-164 230z" />
    <glyph glyph-name="scircumflex" unicode="&#x15d;" horiz-adv-x="869" 
d="M70 77l78 126q67 -44 131 -66.5t138 -22.5q105 0 159.5 39t54.5 117q0 63 -48.5 106.5t-151.5 69.5q-192 49 -263 123.5t-71 183.5q0 126 95 210.5t265 84.5q82 0 156 -21t151 -72l-73 -124q-70 44 -125.5 61.5t-112.5 17.5q-99 0 -151 -36.5t-52 -105.5t53.5 -104
t172.5 -66q156 -42 233.5 -117.5t77.5 -197.5q0 -142 -100.5 -224.5t-275.5 -82.5q-94 0 -180.5 26t-160.5 75zM268 1218h-114l216 332h133l216 -332h-122l-164 230z" />
    <glyph glyph-name="Scedilla" unicode="&#x15e;" horiz-adv-x="1088" 
d="M64 110l82 126q88 -57 176 -83t205 -26q131 0 215.5 61.5t84.5 179.5q0 105 -71.5 168t-234.5 122q-202 73 -299.5 164.5t-97.5 241.5q0 176 126.5 285t332.5 109q96 0 188 -20.5t190 -66.5l-63 -135q-82 38 -159.5 55t-167.5 17q-129 0 -204 -60.5t-75 -167.5
q0 -94 69 -150t230 -114q216 -78 310 -174t94 -259q0 -174 -126 -290.5t-354 -116.5q-128 0 -236 32t-215 102zM597 0v-104q88 0 139.5 -40t51.5 -112q0 -88 -68.5 -132t-183.5 -44q-42 0 -56.5 1t-43.5 4l11 85q26 -2 42 -3t29 -1q71 0 106 22.5t35 67.5q0 39 -32 58.5
t-97 19.5q-5 0 -15 -1t-26 -3v182h108z" />
    <glyph glyph-name="scedilla" unicode="&#x15f;" horiz-adv-x="869" 
d="M70 77l78 126q67 -44 131 -66.5t138 -22.5q105 0 159.5 39t54.5 117q0 63 -48.5 106.5t-151.5 69.5q-192 49 -263 123.5t-71 183.5q0 126 95 210.5t265 84.5q82 0 156 -21t151 -72l-73 -124q-70 44 -125.5 61.5t-112.5 17.5q-99 0 -151 -36.5t-52 -105.5t53.5 -104
t172.5 -66q156 -42 233.5 -117.5t77.5 -197.5q0 -142 -100.5 -224.5t-275.5 -82.5q-94 0 -180.5 26t-160.5 75zM477 0v-104q88 0 139.5 -40t51.5 -112q0 -88 -68.5 -132t-183.5 -44q-42 0 -56.5 1t-43.5 4l11 85q26 -2 42 -3t29 -1q71 0 106 22.5t35 67.5q0 39 -32 58.5
t-97 19.5q-5 0 -15 -1t-26 -3v182h108z" />
    <glyph glyph-name="Scaron" unicode="&#x160;" horiz-adv-x="1088" 
d="M64 110l82 126q88 -57 176 -83t205 -26q131 0 215.5 61.5t84.5 179.5q0 105 -71.5 168t-234.5 122q-202 73 -299.5 164.5t-97.5 241.5q0 176 126.5 285t332.5 109q96 0 188 -20.5t190 -66.5l-63 -135q-82 38 -159.5 55t-167.5 17q-129 0 -204 -60.5t-75 -167.5
q0 -94 69 -150t230 -114q216 -78 310 -174t94 -259q0 -174 -126 -290.5t-354 -116.5q-128 0 -236 32t-215 102zM614 1566h-132l-216 330h115l164 -229l164 229h119z" />
    <glyph glyph-name="scaron" unicode="&#x161;" horiz-adv-x="869" 
d="M70 77l78 126q67 -44 131 -66.5t138 -22.5q105 0 159.5 39t54.5 117q0 63 -48.5 106.5t-151.5 69.5q-192 49 -263 123.5t-71 183.5q0 126 95 210.5t265 84.5q82 0 156 -21t151 -72l-73 -124q-70 44 -125.5 61.5t-112.5 17.5q-99 0 -151 -36.5t-52 -105.5t53.5 -104
t172.5 -66q156 -42 233.5 -117.5t77.5 -197.5q0 -142 -100.5 -224.5t-275.5 -82.5q-94 0 -180.5 26t-160.5 75zM501 1218h-132l-216 330h115l164 -229l164 229h119z" />
    <glyph glyph-name="Tcedilla" unicode="&#x162;" horiz-adv-x="1073" 
d="M1034 1282h-414v-1282h-168v1282h-413v152h995v-152zM589 0v-104q88 0 139.5 -40t51.5 -112q0 -88 -68.5 -132t-183.5 -44q-42 0 -56.5 1t-43.5 4l11 85q26 -2 42 -3t29 -1q71 0 106 22.5t35 67.5q0 39 -32 58.5t-97 19.5q-5 0 -15 -1t-26 -3v182h108z" />
    <glyph glyph-name="tcedilla" unicode="&#x163;" horiz-adv-x="694" 
d="M654 12q-42 -17 -82.5 -25.5t-91.5 -8.5q-122 0 -191.5 71.5t-69.5 211.5v623h-176v140h176v250l164 53v-303h258v-140h-258v-604q0 -88 31.5 -127t94.5 -39q30 0 58 7t47 16zM502 0v-104q88 0 139.5 -40t51.5 -112q0 -88 -68.5 -132t-183.5 -44q-42 0 -56.5 1t-43.5 4
l11 85q26 -2 42 -3t29 -1q71 0 106 22.5t35 67.5q0 39 -32 58.5t-97 19.5q-5 0 -15 -1t-26 -3v182h108z" />
    <glyph glyph-name="Tcaron" unicode="&#x164;" horiz-adv-x="1073" 
d="M1034 1282h-414v-1282h-168v1282h-413v152h995v-152zM607 1566h-132l-216 330h115l164 -229l164 229h119z" />
    <glyph glyph-name="tcaron" unicode="&#x165;" horiz-adv-x="901" 
d="M654 12q-42 -17 -82.5 -25.5t-91.5 -8.5q-122 0 -191.5 71.5t-69.5 211.5v623h-176v140h176v250l164 53v-303h258v-140h-258v-604q0 -88 31.5 -127t94.5 -39q30 0 58 7t47 16zM781 1433l-166 -260h-123l117 260h172z" />
    <glyph glyph-name="Tbar" unicode="&#x166;" horiz-adv-x="1073" 
d="M622 0h-168v641h-249v155h249v486h-413v152h995v-152h-414v-486h246v-155h-246v-641z" />
    <glyph glyph-name="tbar" unicode="&#x167;" horiz-adv-x="694" 
d="M654 12q-42 -17 -82.5 -25.5t-83.5 -8.5q-130 0 -199.5 71.5t-69.5 210.5v287h-163v133h163v204h-176v140h176v250l164 53v-303h258v-140h-258v-204h248v-133h-248v-268q0 -86 31.5 -125.5t94.5 -39.5q31 0 58.5 7t46.5 16z" />
    <glyph glyph-name="Utilde" unicode="&#x168;" horiz-adv-x="1407" 
d="M1237 581q0 -303 -136 -454t-409 -151q-261 0 -391.5 145t-130.5 436v877h168v-866q0 -220 93 -330.5t279 -110.5q180 0 269.5 106.5t89.5 319.5v881h168v-853zM1030 1806q0 -105 -48 -171.5t-130 -66.5q-35 0 -75.5 13t-86.5 39q-38 22 -68 32.5t-51 10.5q-44 0 -66 -28
t-22 -85h-94q0 107 48 171.5t134 64.5q33 0 70 -13t79 -39q37 -22 69 -33t59 -11q42 0 63 29t21 87h98z" />
    <glyph glyph-name="utilde" unicode="&#x169;" horiz-adv-x="1159" 
d="M994 0h-164v162h-4q-51 -93 -130 -139.5t-186 -46.5q-183 0 -274.5 109t-91.5 327v612h163v-586q0 -162 62 -243t186 -81q120 0 197.5 88.5t77.5 231.5v590h164v-1024zM906 1458q0 -105 -48 -171.5t-130 -66.5q-35 0 -75.5 13t-86.5 39q-38 22 -68 32.5t-51 10.5
q-44 0 -66 -28t-22 -85h-94q0 107 48 171.5t134 64.5q33 0 70 -13t79 -39q37 -22 69 -33t59 -11q42 0 63 29t21 87h98z" />
    <glyph glyph-name="Umacron" unicode="&#x16a;" horiz-adv-x="1407" 
d="M1237 581q0 -303 -136 -454t-409 -151q-261 0 -391.5 145t-130.5 436v877h168v-866q0 -220 93 -330.5t279 -110.5q180 0 269.5 106.5t89.5 319.5v881h168v-853zM953 1566h-498v120h498v-120z" />
    <glyph glyph-name="umacron" unicode="&#x16b;" horiz-adv-x="1159" 
d="M994 0h-164v162h-4q-51 -93 -130 -139.5t-186 -46.5q-183 0 -274.5 109t-91.5 327v612h163v-586q0 -162 62 -243t186 -81q120 0 197.5 88.5t77.5 231.5v590h164v-1024zM829 1218h-498v120h498v-120z" />
    <glyph glyph-name="Ubreve" unicode="&#x16c;" horiz-adv-x="1407" 
d="M1237 581q0 -303 -136 -454t-409 -151q-261 0 -391.5 145t-130.5 436v877h168v-866q0 -220 93 -330.5t279 -110.5q180 0 269.5 106.5t89.5 319.5v881h168v-853zM984 1818q-10 -113 -88.5 -182.5t-190.5 -69.5q-117 0 -191 69t-79 183h100q6 -77 49 -116t123 -39
q68 0 116.5 42t58.5 113h102z" />
    <glyph glyph-name="ubreve" unicode="&#x16d;" horiz-adv-x="1159" 
d="M994 0h-164v162h-4q-51 -93 -130 -139.5t-186 -46.5q-183 0 -274.5 109t-91.5 327v612h163v-586q0 -162 62 -243t186 -81q120 0 197.5 88.5t77.5 231.5v590h164v-1024zM860 1470q-10 -113 -88.5 -182.5t-190.5 -69.5q-117 0 -191 69t-79 183h100q6 -77 49 -116t123 -39
q68 0 116.5 42t58.5 113h102z" />
    <glyph glyph-name="Uring" unicode="&#x16e;" horiz-adv-x="1407" 
d="M1237 581q0 -303 -136 -454t-409 -151q-261 0 -391.5 145t-130.5 436v877h168v-866q0 -220 93 -330.5t279 -110.5q180 0 269.5 106.5t89.5 319.5v881h168v-853zM707 1476q-93 0 -149.5 52.5t-56.5 137.5q0 89 56.5 143.5t149.5 54.5t149.5 -53t56.5 -139
q0 -88 -56.5 -142t-149.5 -54zM707 1783q-51 0 -82.5 -31t-31.5 -82q0 -50 31.5 -81t82.5 -31t82.5 31t31.5 81q0 51 -31.5 82t-82.5 31z" />
    <glyph glyph-name="uring" unicode="&#x16f;" horiz-adv-x="1159" 
d="M994 0h-164v162h-4q-51 -93 -130 -139.5t-186 -46.5q-183 0 -274.5 109t-91.5 327v612h163v-586q0 -162 62 -243t186 -81q120 0 197.5 88.5t77.5 231.5v590h164v-1024zM583 1128q-93 0 -149.5 52.5t-56.5 137.5q0 89 56.5 143.5t149.5 54.5t149.5 -53t56.5 -139
q0 -88 -56.5 -142t-149.5 -54zM583 1435q-51 0 -82.5 -31t-31.5 -82q0 -50 31.5 -81t82.5 -31t82.5 31t31.5 81q0 51 -31.5 82t-82.5 31z" />
    <glyph glyph-name="Uhungarumlaut" unicode="&#x170;" horiz-adv-x="1407" 
d="M1237 581q0 -303 -136 -454t-409 -151q-261 0 -391.5 145t-130.5 436v877h168v-866q0 -220 93 -330.5t279 -110.5q180 0 269.5 106.5t89.5 319.5v881h168v-853zM839 1569h-97l209 318h133zM597 1569h-96l206 318h130z" />
    <glyph glyph-name="uhungarumlaut" unicode="&#x171;" horiz-adv-x="1159" 
d="M994 0h-164v162h-4q-51 -93 -130 -139.5t-186 -46.5q-183 0 -274.5 109t-91.5 327v612h163v-586q0 -162 62 -243t186 -81q120 0 197.5 88.5t77.5 231.5v590h164v-1024zM715 1221h-97l209 318h133zM473 1221h-96l206 318h130z" />
    <glyph glyph-name="Uogonek" unicode="&#x172;" horiz-adv-x="1407" 
d="M1237 581q0 -303 -136 -454t-409 -151q-261 0 -391.5 145t-130.5 436v877h168v-866q0 -220 93 -330.5t279 -110.5q180 0 269.5 106.5t89.5 319.5v881h168v-853zM868 0q-75 -70 -112.5 -126t-37.5 -97q0 -35 17 -52.5t51 -17.5q15 0 29 3.5t27 6.5l26 -97
q-41 -13 -61.5 -16.5t-46.5 -3.5q-76 0 -122 40t-46 110q0 61 39.5 123.5t117.5 126.5h119z" />
    <glyph glyph-name="uogonek" unicode="&#x173;" horiz-adv-x="1159" 
d="M994 0h-164v162h-4q-51 -93 -130 -139.5t-186 -46.5q-183 0 -274.5 109t-91.5 327v612h163v-586q0 -162 62 -243t186 -81q120 0 197.5 88.5t77.5 231.5v590h164v-1024zM994 0q-75 -70 -112.5 -126t-37.5 -97q0 -35 17 -52.5t51 -17.5q15 0 29 3.5t27 6.5l26 -97
q-41 -13 -61.5 -16.5t-46.5 -3.5q-76 0 -122 40t-46 110q0 61 39.5 123.5t117.5 126.5h119z" />
    <glyph glyph-name="Wcircumflex" unicode="&#x174;" horiz-adv-x="1913" 
d="M1884 1434l-405 -1434h-197l-295 1048q-9 34 -15 70.5t-8 75.5h-4q-3 -37 -9.5 -73t-16.5 -71l-297 -1050h-195l-420 1434h185l305 -1100q10 -34 16 -70t8 -74h5q3 27 10.5 63t20.5 81l317 1100h161l304 -1108q8 -28 14 -61.5t10 -72.5h4q2 26 9 60.5t18 77.5l293 1104
h182zM804 1566h-114l216 332h133l216 -332h-122l-164 230z" />
    <glyph glyph-name="wcircumflex" unicode="&#x175;" horiz-adv-x="1480" 
d="M1456 1024l-307 -1024h-170l-212 735q-8 28 -10.5 47.5t-4.5 45.5h-4q-2 -26 -7 -45t-14 -48l-229 -735h-164l-310 1024h172l212 -770q5 -17 8.5 -40t5.5 -52h8q2 22 6 45.5t12 48.5l236 768h150l212 -772q5 -19 8.5 -41.5t6.5 -50.5h8q1 20 5.5 43t11.5 49l208 772h162z
M595 1218h-114l216 332h133l216 -332h-122l-164 230z" />
    <glyph glyph-name="Ycircumflex" unicode="&#x176;" horiz-adv-x="1132" 
d="M1117 1434l-473 -904v-530h-168v526l-461 908h191l321 -648q3 -6 12 -28t23 -60h3q5 17 14.5 39t23.5 49l336 648h178zM403 1566h-114l216 332h133l216 -332h-122l-164 230z" />
    <glyph glyph-name="ycircumflex" unicode="&#x177;" horiz-adv-x="991" 
d="M981 1024l-483 -1219q-57 -144 -143 -215.5t-202 -71.5q-30 0 -55 3.5t-48 9.5l32 140q18 -6 33.5 -8.5t30.5 -2.5q66 0 109.5 34t69.5 96l89 212l-400 1022h182l277 -788q2 -7 7.5 -27t13.5 -51h6q3 12 7.5 31t12.5 45l291 790h170zM333 1218h-114l216 332h133l216 -332
h-122l-164 230z" />
    <glyph glyph-name="Ydieresis" unicode="&#x178;" horiz-adv-x="1132" 
d="M1117 1434l-473 -904v-530h-168v526l-461 908h191l321 -648q3 -6 12 -28t23 -60h3q5 17 14.5 39t23.5 49l336 648h178zM750 1566q-40 0 -69 28t-29 71q0 42 28 70t68 28q42 0 71 -28.5t29 -69.5t-28 -70t-70 -29zM366 1566q-42 0 -71.5 29.5t-29.5 69.5q0 42 28.5 70
t69.5 28t71 -28.5t30 -69.5t-29 -70t-69 -29z" />
    <glyph glyph-name="Zacute" unicode="&#x179;" horiz-adv-x="1168" 
d="M1104 0h-1071v47l833 1235h-766v152h1024v-40l-840 -1242h820v-152zM609 1566h-127l223 328h166z" />
    <glyph glyph-name="zacute" unicode="&#x17a;" horiz-adv-x="926" 
d="M880 977l-606 -837h600v-140h-841v51l606 833h-549v140h790v-47zM487 1218h-127l223 328h166z" />
    <glyph glyph-name="Zdotaccent" unicode="&#x17b;" horiz-adv-x="1168" 
d="M1104 0h-1071v47l833 1235h-766v152h1024v-40l-840 -1242h820v-152zM609 1566q-40 0 -69.5 28.5t-29.5 70.5q0 40 29 68t70 28t69.5 -27.5t28.5 -68.5t-28.5 -70t-69.5 -29z" />
    <glyph glyph-name="zdotaccent" unicode="&#x17c;" horiz-adv-x="926" 
d="M880 977l-606 -837h600v-140h-841v51l606 833h-549v140h790v-47zM487 1218q-40 0 -69.5 28.5t-29.5 70.5q0 40 29 68t70 28t69.5 -27.5t28.5 -68.5t-28.5 -70t-69.5 -29z" />
    <glyph glyph-name="Zcaron" unicode="&#x17d;" horiz-adv-x="1168" 
d="M1104 0h-1071v47l833 1235h-766v152h1024v-40l-840 -1242h820v-152zM678 1566h-132l-216 330h115l164 -229l164 229h119z" />
    <glyph glyph-name="zcaron" unicode="&#x17e;" horiz-adv-x="926" 
d="M880 977l-606 -837h600v-140h-841v51l606 833h-549v140h790v-47zM556 1218h-132l-216 330h115l164 -229l164 229h119z" />
    <glyph glyph-name="longs" unicode="&#x17f;" horiz-adv-x="494" 
d="M594 1382q-28 9 -50.5 13t-47.5 4q-84 0 -125 -45t-41 -133v-1221h-164v1229q0 146 89.5 227.5t244.5 81.5q38 0 69 -5.5t64 -16.5z" />
    <glyph glyph-name="bstroke" unicode="&#x180;" horiz-adv-x="1204" 
d="M332 148h-4v-148h-162v1204h-133v140h133v172h162v-172h248v-140h-248v-360h4q61 102 149.5 153t204.5 51q197 0 309.5 -136.5t112.5 -369.5q0 -256 -125.5 -411t-343.5 -155q-99 0 -176 43t-131 129zM328 561v-143q0 -127 82 -215.5t210 -88.5q148 0 234 112.5t86 309.5
q0 175 -79 274.5t-216 99.5q-143 0 -230 -99.5t-87 -249.5z" />
    <glyph glyph-name="Bhook" unicode="&#x181;" horiz-adv-x="1256" 
d="M270 0v1282h-24q-81 0 -125.5 -46.5t-44.5 -123.5q0 -27 5 -53.5t15 -52.5h-158q-11 28 -16.5 58.5t-5.5 63.5q0 132 97.5 219t258.5 87h406q186 0 295 -91t109 -237q0 -122 -66 -212t-182 -128v-4q145 -17 232 -109.5t87 -240.5q0 -184 -132 -298t-333 -114h-418z
M438 1282v-463h172q138 0 216.5 66.5t78.5 187.5q0 105 -68.5 157t-205.5 52h-193zM438 668v-516h228q148 0 229.5 70t81.5 192q0 127 -86.5 190.5t-259.5 63.5h-193z" />
    <glyph glyph-name="Btopbar" unicode="&#x182;" horiz-adv-x="1171" 
d="M188 0v1434h766v-152h-598v-456h272q214 0 333 -103.5t119 -294.5q0 -198 -125 -313t-341 -115h-426zM356 674v-522h236q149 0 230 70t81 196q0 128 -77.5 192t-233.5 64h-236z" />
    <glyph glyph-name="btopbar" unicode="&#x183;" horiz-adv-x="1204" 
d="M332 148h-4v-148h-162v1516h805v-140h-643v-532h4q61 102 149.5 153t204.5 51q197 0 309.5 -136.5t112.5 -369.5q0 -256 -125.5 -411t-343.5 -155q-99 0 -176 43t-131 129zM328 561v-143q0 -127 82 -215.5t210 -88.5q148 0 234 112.5t86 309.5q0 175 -79 274.5t-216 99.5
q-143 0 -230 -99.5t-87 -249.5z" />
    <glyph glyph-name="Tonesix" unicode="&#x184;" horiz-adv-x="1182" 
d="M188 0v1153l-137 119v22l283 164h22v-634h272q214 0 333 -102.5t119 -293.5q0 -198 -125 -313t-341 -115h-426zM356 676v-526h236q149 0 229 71t80 197q0 129 -77 193.5t-232 64.5h-236z" />
    <glyph glyph-name="tonesix" unicode="&#x185;" horiz-adv-x="1204" 
d="M328 561v-143q0 -127 82 -215.5t210 -88.5q148 0 234 112.5t86 309.5q0 175 -79 274.5t-216 99.5q-143 0 -230 -99.5t-87 -249.5zM166 1218l-133 115v23l272 160h23v-672h4q61 102 149.5 153t204.5 51q197 0 309.5 -136.5t112.5 -369.5q0 -256 -125.5 -411t-343.5 -155
q-99 0 -176 43t-131 129h-4v-148h-162v1218z" />
    <glyph glyph-name="Oopen" unicode="&#x186;" horiz-adv-x="1270" 
d="M450 -24q-105 0 -193.5 20t-184.5 62l62 139q80 -35 154 -52t164 -17q251 0 399.5 162.5t148.5 445.5q0 261 -138 416t-391 155q-87 0 -168.5 -19.5t-157.5 -54.5l-62 137q88 49 192.5 68.5t215.5 19.5q324 0 504.5 -197t180.5 -515q0 -353 -201.5 -561.5t-524.5 -208.5z
" />
    <glyph glyph-name="Chook" unicode="&#x187;" horiz-adv-x="1270" 
d="M780 -24q-325 0 -505.5 197t-180.5 517q0 351 201.5 559.5t525.5 208.5q51 0 99 -4.5t90 -12.5q6 92 72 159t168 67q24 0 58.5 -5.5t69.5 -18.5l-30 -129q-22 7 -42 10.5t-38 3.5q-56 0 -84.5 -39.5t-28.5 -118.5q0 -20 2 -45.5t5 -53.5l-44 -34q-72 34 -147 51.5
t-152 17.5q-252 0 -400.5 -162.5t-148.5 -443.5q0 -263 138 -418t392 -155q73 0 152 19.5t161 63.5l71 -133q-99 -53 -195 -77t-209 -24z" />
    <glyph glyph-name="chook" unicode="&#x188;" horiz-adv-x="954" 
d="M928 77q-81 -52 -167 -76.5t-172 -24.5q-226 0 -359.5 143.5t-133.5 372.5q0 239 141 397.5t365 158.5q38 0 73 -5t67 -15q2 87 61.5 148t148.5 61q26 0 53.5 -6t63.5 -21l-42 -115q-16 7 -28 10t-28 3q-51 0 -76 -35.5t-25 -106.5q0 -25 0.5 -46.5t2.5 -39.5l-37 -30
q-65 29 -123.5 44.5t-112.5 15.5q-149 0 -242.5 -111.5t-93.5 -296.5q0 -180 94.5 -284t244.5 -103q63 0 117 14.5t137 64.5z" />
    <glyph glyph-name="Dafrican" unicode="&#x189;" horiz-adv-x="1436" 
d="M188 0v641h-160v155h160v638h396q379 0 568.5 -174.5t189.5 -524.5q0 -334 -210.5 -534.5t-563.5 -200.5h-380zM356 1282v-486h336v-155h-336v-489h214q282 0 439 151t157 428q0 276 -146.5 413.5t-439.5 137.5h-224z" />
    <glyph glyph-name="Dhook" unicode="&#x18a;" horiz-adv-x="1518" 
d="M270 0v1282h-24q-81 0 -125.5 -46.5t-44.5 -123.5q0 -27 5 -53.5t15 -52.5h-158q-11 28 -16.5 58.5t-5.5 63.5q0 132 97.5 219t258.5 87h394q379 0 568.5 -174.5t189.5 -524.5q0 -332 -210.5 -533.5t-564.5 -201.5h-379zM438 1282v-1130h214q282 0 438.5 151t156.5 428
q0 276 -146 413.5t-439 137.5h-224z" />
    <glyph glyph-name="Dtopbar" unicode="&#x18b;" horiz-adv-x="1172" 
d="M983 0h-420q-229 0 -350 103t-121 297t133 309t357 115h233v456h-598v154h766v-1434zM815 148v526h-231q-157 0 -235.5 -67t-78.5 -201q0 -129 77.5 -193.5t232.5 -64.5h235z" />
    <glyph glyph-name="dtopbar" unicode="&#x18c;" horiz-adv-x="1204" 
d="M1038 0h-162v174h-4q-57 -99 -145 -148.5t-207 -49.5q-193 0 -308.5 137.5t-115.5 374.5q0 254 128 407t341 153q106 0 182.5 -41.5t124.5 -124.5h4v494h-642v140h804v-1516zM876 614q0 124 -82 210t-208 86q-150 0 -236 -110t-86 -304q0 -177 82.5 -279.5t221.5 -102.5
q137 0 222.5 99t85.5 250v151z" />
    <glyph glyph-name="deltaturned" unicode="&#x18d;" horiz-adv-x="1212" 
d="M553 -482q-101 0 -186.5 24.5t-170.5 78.5l74 118q68 -42 135.5 -61.5t151.5 -19.5q109 0 163 32t54 95q0 52 -44 98.5t-244 165.5q-211 126 -300.5 249.5t-89.5 269.5q0 207 145 343.5t373 136.5q223 0 362.5 -130t139.5 -326q0 -147 -95.5 -277t-287.5 -243
q123 -83 166 -146t43 -143q0 -113 -108.5 -189t-280.5 -76zM264 582q0 -110 64.5 -205t275.5 -223q198 111 271 212t73 216q0 150 -93 239t-249 89q-154 0 -248 -89.5t-94 -238.5z" />
    <glyph glyph-name="Ereversed" unicode="&#x18e;" horiz-adv-x="1038" 
d="M850 0h-760v152h592v489h-518v151h518v490h-559v152h727v-1434z" />
    <glyph glyph-name="Schwa" unicode="&#x18f;" horiz-adv-x="1476" 
d="M717 -24q-298 0 -462 200.5t-169 591.5v26h1118q-17 237 -160.5 374.5t-359.5 137.5q-88 0 -180.5 -24.5t-186.5 -79.5l-76 132q113 65 223.5 94.5t240.5 29.5q312 0 494.5 -197t182.5 -544q0 -322 -182 -531.5t-483 -209.5zM719 127q207 0 336 140t149 376h-938
q4 -235 125 -375.5t328 -140.5z" />
    <glyph glyph-name="Eopen" unicode="&#x190;" horiz-adv-x="1108" 
d="M1046 73q-99 -51 -194.5 -74t-207.5 -23q-250 0 -391 110.5t-141 294.5q0 133 81 231t225 136v6q-128 40 -192 119.5t-64 197.5q0 167 136.5 277t353.5 110q102 0 193 -24.5t184 -77.5l-76 -132q-75 43 -147.5 62.5t-158.5 19.5q-141 0 -226 -63t-85 -170
q0 -112 101.5 -185t272.5 -73h105v-151h-107q-209 0 -314 -67.5t-105 -203.5q0 -125 95.5 -195.5t260.5 -70.5q92 0 171 19t162 61z" />
    <glyph glyph-name="Fhook" unicode="&#x191;" horiz-adv-x="1000" 
d="M916 1282h-560v-496h518v-151h-518v-563q0 -205 -90 -319.5t-280 -114.5q-59 0 -106 9t-77 24l48 144q29 -12 60.5 -19t69.5 -7q100 0 153.5 64t53.5 217v1364h728v-152z" />
    <glyph glyph-name="florin" unicode="&#x192;" horiz-adv-x="1104" 
d="M945 1269q-22 13 -47.5 19t-53.5 6q-73 0 -115.5 -40t-54.5 -120l-31 -208h166v-138h-187l-90 -648q-29 -209 -116 -313.5t-223 -104.5q-35 0 -68.5 6t-69.5 21l39 130q18 -8 39.5 -13.5t46.5 -5.5q75 0 122.5 73t67.5 219l91 636h-103v138h124l28 219q17 131 104.5 210
t221.5 79q43 0 80 -6.5t72 -22.5z" />
    <glyph glyph-name="Ghook" unicode="&#x193;" horiz-adv-x="1417" 
d="M1452 1511q-30 9 -57 13t-59 4q-57 0 -85.5 -42t-28.5 -126q0 -25 2 -51t5 -54l-32 -40q-85 45 -178.5 68t-190.5 23q-246 0 -402 -165t-156 -431q0 -272 143 -427.5t388 -155.5q84 0 156.5 16.5t134.5 50.5v402h-314v152h484v-650q-108 -61 -228.5 -91.5t-253.5 -30.5
q-307 0 -496.5 198t-189.5 524q0 333 210.5 546.5t533.5 213.5q60 0 120 -8.5t119 -25.5q3 100 70 171.5t170 71.5q62 0 98.5 -5.5t77.5 -17.5z" />
    <glyph glyph-name="Gammaafrican" unicode="&#x194;" horiz-adv-x="1272" 
d="M1254 1434l-514 -1336l6 -12q57 -114 85.5 -198.5t28.5 -139.5q0 -97 -68.5 -163.5t-167.5 -66.5q-96 0 -161 65t-65 165q0 61 20.5 119.5t97.5 212.5l8 16l-506 1338h187l397 -1092q11 -29 18 -57t11 -55h4q7 29 15 57t18 55l405 1092h181zM628 -39q-33 -70 -50 -122.5
t-17 -86.5q0 -44 17 -66t50 -22q34 0 51 22t17 66q0 34 -17 86.5t-51 122.5z" />
    <glyph glyph-name="hv" unicode="&#x195;" horiz-adv-x="1790" 
d="M330 0h-164v1516h164v-654h4q49 93 124.5 139.5t176.5 46.5q168 0 252 -104t84 -313v-170q0 -171 62 -256.5t185 -85.5q132 0 211 97t79 261q0 141 -36 277t-108 270h178q65 -134 97 -268.5t32 -271.5q0 -229 -127 -368.5t-330 -139.5t-305 118.5t-102 355.5v138
q0 170 -52.5 246t-176.5 76q-108 0 -178 -90.5t-70 -235.5v-584z" />
    <glyph glyph-name="Iotaafrican" unicode="&#x196;" horiz-adv-x="590" 
d="M575 17q-34 -18 -74.5 -26.5t-78.5 -8.5q-123 0 -184.5 72.5t-61.5 217.5v1162h168v-1158q0 -71 25 -107t72 -36q22 0 41.5 4.5t41.5 13.5z" />
    <glyph glyph-name="Istroke" unicode="&#x197;" horiz-adv-x="570" 
d="M528 654h-160v-654h-168v654h-159v151h159v629h168v-629h160v-151z" />
    <glyph glyph-name="Khook" unicode="&#x198;" horiz-adv-x="1188" 
d="M1186 0h-234l-554 656q-15 19 -24.5 31.5t-13.5 18.5h-4v-706h-168v1434h168v-674h4q14 18 20.5 27l19.5 27l256 366q132 188 201 233t155 45q45 0 85.5 -7t84.5 -23l-52 -143q-31 11 -59 16t-50 5q-53 0 -99 -38t-101 -115l-295 -411z" />
    <glyph glyph-name="khook" unicode="&#x199;" horiz-adv-x="1020" 
d="M1016 0h-230l-452 492h-4v-492h-164v1202q0 153 89.5 244.5t228.5 91.5q36 0 69.5 -6.5t87.5 -24.5l-51 -128q-25 11 -47 15.5t-49 4.5q-82 0 -123 -51.5t-41 -155.5v-637h4l430 469h215l-475 -494z" />
    <glyph glyph-name="lbar" unicode="&#x19a;" horiz-adv-x="496" 
d="M475 708h-145v-708h-164v708h-146v140h146v668h164v-668h145v-140z" />
    <glyph glyph-name="lambdastroke" unicode="&#x19b;" horiz-adv-x="1020" 
d="M991 0h-176l-281 828l-356 -828h-180l463 1016l-27 76l-270 -132l-58 113l287 139l-13 33q-23 59 -61 91t-81 32q-31 0 -56 -4t-55 -16l-46 142q34 15 71.5 21.5t77.5 6.5q120 0 184 -52.5t118 -185.5l244 119l58 -113l-256 -125z" />
    <glyph glyph-name="Mturned" unicode="&#x19c;" horiz-adv-x="1827" 
d="M1638 0h-164v162h-4q-54 -93 -133 -139.5t-184 -46.5q-107 0 -179 53t-108 159q-57 -106 -142.5 -159t-199.5 -53q-170 0 -255 113t-85 339v1006h168v-986q0 -165 51.5 -243t176.5 -78q103 0 175.5 95.5t72.5 229.5v982h168v-1006q0 -150 56.5 -225.5t169.5 -75.5
q108 0 178 90.5t70 234.5v982h168v-1434z" />
    <glyph glyph-name="Nhookleft" unicode="&#x19d;" horiz-adv-x="1532" 
d="M1346 0h-208l-738 1143q-14 22 -25.5 44.5t-20.5 45.5h-6q4 -23 6 -72t2 -125v-964q0 -205 -90 -319.5t-280 -114.5q-59 0 -106 9t-77 24l48 144q29 -12 60.5 -19t69.5 -7q100 0 153.5 64t53.5 217v1364h218l718 -1125q23 -35 37.5 -59t20.5 -37h4q-5 31 -7.5 84
t-2.5 127v1010h170v-1434z" />
    <glyph glyph-name="nlegrightlong" unicode="&#x19e;" horiz-adv-x="1178" 
d="M1016 -404h-166v976q0 164 -59 245.5t-177 81.5q-125 0 -204.5 -88.5t-79.5 -222.5v-588h-164v694q0 120 -8.5 202.5t-26.5 127.5h168q14 -35 20.5 -78.5t6.5 -95.5h4q56 99 141 148.5t199 49.5q167 0 256.5 -107t89.5 -310v-1035z" />
    <glyph glyph-name="Ocenteredtilde" unicode="&#x19f;" horiz-adv-x="1544" 
d="M766 -24q-305 0 -488.5 201t-183.5 523q0 346 187 552t509 206q297 0 478.5 -200t181.5 -523q0 -351 -186 -555t-498 -204zM1272 792q-19 246 -148.5 380t-345.5 134q-208 0 -345 -140t-159 -374h998zM1272 637h-998q21 -234 155 -372t337 -138q220 0 353.5 133.5
t152.5 376.5z" />
    <glyph glyph-name="Ohorn" unicode="&#x1a0;" horiz-adv-x="1562" 
d="M766 -24q-305 0 -488.5 201t-183.5 523q0 346 187 552t509 206q108 0 202.5 -27.5t174.5 -83.5q24 -4 44 -6.5t36 -2.5q107 0 160.5 32.5t53.5 97.5q0 36 -5 68.5t-16 61.5h136q9 -27 13.5 -60.5t4.5 -73.5q0 -108 -70 -175t-192 -67h-18h-16q76 -97 114 -218.5
t38 -268.5q0 -351 -186 -555t-498 -204zM778 1306q-226 0 -367 -163t-141 -428t137.5 -426.5t358.5 -161.5q236 0 372 154t136 431q0 284 -132 439t-364 155z" />
    <glyph glyph-name="ohorn" unicode="&#x1a1;" horiz-adv-x="1223" 
d="M974 908q65 -70 97.5 -168t32.5 -224q0 -245 -138.5 -392.5t-371.5 -147.5q-227 0 -362.5 143.5t-135.5 380.5q0 258 141 403t381 145q43 0 67 -3.5t67 -10.5q31 -5 73.5 -7.5t96.5 -2.5q59 0 98.5 35.5t39.5 85.5q0 37 -5 69.5t-15 61.5h134q10 -28 14.5 -62t4.5 -74
q0 -96 -54.5 -154t-164.5 -78zM606 910q-158 0 -250 -107.5t-92 -296.5q0 -182 93 -287t249 -105q159 0 244.5 103t85.5 293q0 192 -85.5 296t-244.5 104z" />
    <glyph glyph-name="Oi" unicode="&#x1a2;" horiz-adv-x="1984" 
d="M1796 0h-168v1268q-59 -12 -121 -18.5t-127 -6.5q-27 0 -60 2.5t-73 6.5v-1154q-124 -61 -244.5 -91.5t-236.5 -30.5q-306 0 -489 200t-183 524q0 332 193.5 545t504.5 213q56 0 131.5 -8.5t170.5 -25.5t169.5 -25.5t128.5 -8.5q108 0 209 17t195 51v-1458zM1080 188
v1086q-101 16 -175 24t-121 8q-228 0 -371 -163t-143 -428q0 -266 139.5 -427t368.5 -161q80 0 155.5 15.5t146.5 45.5z" />
    <glyph glyph-name="oi" unicode="&#x1a3;" horiz-adv-x="1618" 
d="M1452 0h-164v866q-50 -12 -98 -18t-94 -6q-31 0 -61.5 2t-61.5 6v-788q-87 -43 -177 -64.5t-182 -21.5q-236 0 -377 141.5t-141 384.5q0 250 148 398t384 148q42 0 101 -8t135 -25t135 -25.5t101 -8.5q89 0 177 17t175 50v-1048zM813 880q-63 15 -112.5 22.5t-84.5 7.5
q-158 0 -255 -107.5t-97 -296.5q0 -184 98.5 -288t265.5 -104q55 0 101.5 9.5t83.5 28.5v728z" />
    <glyph glyph-name="Phook" unicode="&#x1a4;" horiz-adv-x="1231" 
d="M438 542v-542h-168v1282h-24q-81 0 -125.5 -46.5t-44.5 -123.5q0 -27 5 -53.5t15 -52.5h-158q-11 28 -16.5 58.5t-5.5 63.5q0 132 97.5 219t258.5 87h392q230 0 356.5 -112.5t126.5 -315.5t-141 -333.5t-380 -130.5h-188zM438 1282v-588h176q179 0 268 76t89 228
q0 142 -84 213t-252 71h-197z" />
    <glyph glyph-name="phook" unicode="&#x1a5;" horiz-adv-x="1204" 
d="M330 -471h-164v1673q0 152 89 244t229 92q36 0 76 -6.5t83 -25.5l-52 -128q-23 9 -46.5 15t-50.5 6q-82 0 -123 -51.5t-41 -155.5v-348h4q59 102 147.5 153t206.5 51q197 0 308.5 -136.5t111.5 -369.5q0 -257 -125 -411.5t-342 -154.5q-100 0 -177 43t-130 129h-4v-619z
M330 561v-143q0 -126 82.5 -215t209.5 -89q149 0 233.5 113.5t84.5 317.5q0 171 -79 268t-214 97q-143 0 -230 -99t-87 -250z" />
    <glyph glyph-name="Yr" unicode="&#x1a6;" horiz-adv-x="1180" 
d="M188 0v1434h168v-152h260q205 0 320.5 -102.5t115.5 -278.5q0 -144 -79.5 -235t-239.5 -130v-4q44 -27 83.5 -77t74.5 -123l231 -484h-200l-197 438q-46 103 -109.5 154.5t-144.5 51.5h-115v-492h-168zM356 1130v-487h222q137 0 217.5 64t80.5 180q0 122 -72.5 182.5
t-217.5 60.5h-230z" />
    <glyph glyph-name="Tonetwo" unicode="&#x1a7;" horiz-adv-x="1088" 
d="M1028 142q-90 -79 -208 -122.5t-247 -43.5q-238 0 -359 107.5t-121 286.5q0 161 94 264.5t310 181.5q161 58 230 114t69 145q0 112 -75 172.5t-204 60.5q-86 0 -162 -30.5t-133 -83.5l-115 120q81 67 184 105.5t234 38.5q186 0 312.5 -109t126.5 -264
q0 -171 -97.5 -262.5t-299.5 -164.5q-163 -59 -234.5 -122t-71.5 -166q0 -120 84.5 -181.5t238.5 -61.5q87 0 177 38t169 110z" />
    <glyph glyph-name="tonetwo" unicode="&#x1a8;" horiz-adv-x="869" 
d="M801 62q-81 -45 -160 -65.5t-172 -20.5q-197 0 -290 92t-93 206q0 123 78 187.5t215 114.5q134 49 175 91t41 99q0 56 -52 100t-143 44q-95 0 -144.5 -14t-100.5 -44l-71 118q68 41 134.5 59.5t145.5 18.5q173 0 286 -83t113 -213q0 -119 -70.5 -182t-204.5 -116
q-99 -38 -166.5 -76.5t-67.5 -119.5q0 -72 52.5 -108t151.5 -36q85 0 148 16.5t128 52.5z" />
    <glyph glyph-name="Esh" unicode="&#x1a9;" horiz-adv-x="1057" 
d="M1008 0h-962v78l465 660l-423 606v90h858v-155h-613l376 -538l-417 -593h716v-148z" />
    <glyph glyph-name="eshreversedloop" unicode="&#x1aa;" horiz-adv-x="606" 
d="M670 -441q-31 -20 -71.5 -30.5t-89.5 -10.5q-141 0 -206 77t-65 231v1254q-28 -14 -59 -21t-65 -7q-101 0 -170 67.5t-69 170.5q0 104 72 176t180 72q128 0 200.5 -85.5t72.5 -234.5v-1364q0 -98 36.5 -147t95.5 -49q24 0 45 5.5t40 15.5zM238 1218v13q0 84 -28 126
t-85 42q-42 0 -70.5 -30t-28.5 -73q0 -44 31 -74t80 -30q27 0 52 6.5t49 19.5z" />
    <glyph glyph-name="tpalatalhook" unicode="&#x1ab;" horiz-adv-x="696" 
d="M641 -68q0 -135 -76.5 -214.5t-208.5 -79.5q-40 0 -77.5 10t-71.5 29l56 126q26 -13 52.5 -19.5t51.5 -6.5q58 0 89.5 39.5t31.5 119.5v40h-2h-2q-132 1 -198.5 76t-66.5 224v608h-176v140h176v250l164 53v-303h258v-140h-258v-579q0 -103 34.5 -147t116.5 -44
q30 0 57 8.5t50 25.5v-216z" />
    <glyph glyph-name="Thook" unicode="&#x1ac;" horiz-adv-x="1075" 
d="M1036 1282h-414v-1282h-168v1282h-155q-90 0 -140.5 -46t-50.5 -124q0 -27 5.5 -53.5t15.5 -52.5h-157q-11 28 -17 58.5t-6 63.5q0 133 97 219.5t259 86.5h731v-152z" />
    <glyph glyph-name="thook" unicode="&#x1ad;" horiz-adv-x="696" 
d="M654 12q-42 -17 -82.5 -25.5t-91.5 -8.5q-122 0 -191.5 74.5t-69.5 208.5v623h-176v140h176v192q0 147 76 234.5t207 87.5q39 0 79 -9t85 -28l-52 -124q-28 13 -50 17.5t-48 4.5q-66 0 -99.5 -47.5t-33.5 -143.5v-184h258v-140h-258v-604q0 -77 31.5 -121.5t94.5 -44.5
q30 0 58 7t47 16z" />
    <glyph glyph-name="Tretroflexhook" unicode="&#x1ae;" horiz-adv-x="1075" 
d="M1036 1282h-414v-1229q0 -132 42.5 -198t127.5 -66q29 0 55 6t47 17l52 -136q-36 -19 -78 -28.5t-91 -9.5q-161 0 -242 101.5t-81 303.5v1239h-415v152h997v-152z" />
    <glyph glyph-name="Uhorn" unicode="&#x1af;" horiz-adv-x="1450" 
d="M692 -24q-261 0 -391.5 145.5t-130.5 435.5v877h168v-866q0 -220 93 -330.5t279 -110.5q180 0 269.5 106.5t89.5 319.5v881h147q60 0 99.5 35.5t39.5 84.5q0 37 -5 70t-16 62h136q9 -28 13.5 -62t4.5 -74q0 -105 -62.5 -165t-188.5 -76v-729q0 -302 -136 -453t-409 -151z
" />
    <glyph glyph-name="uhorn" unicode="&#x1b0;" horiz-adv-x="1204" 
d="M994 0h-164v162h-4q-51 -93 -130 -139.5t-186 -46.5q-183 0 -274.5 109t-91.5 327v612h163v-586q0 -162 62 -243t186 -81q120 0 197.5 88.5t77.5 231.5v590h122q59 0 98.5 35.5t39.5 85.5q0 37 -5 69.5t-15 61.5h134q10 -28 14.5 -62t4.5 -74q0 -99 -57 -157.5
t-172 -76.5v-906z" />
    <glyph glyph-name="Upsilonafrican" unicode="&#x1b1;" horiz-adv-x="1546" 
d="M446 1286h-348v148h518v-148q-172 -127 -258 -285t-86 -347q0 -247 138.5 -388t359.5 -141q224 0 364 142t140 387q0 188 -86.5 346t-259.5 286v148h518v-148h-346q174 -118 261 -277t87 -360q0 -310 -185 -491.5t-489 -181.5q-307 0 -491.5 179t-184.5 492
q0 202 87 361.5t261 277.5z" />
    <glyph glyph-name="Vhook" unicode="&#x1b2;" horiz-adv-x="1458" 
d="M184 1434h168v-852q0 -227 86 -341t258 -114q217 0 356.5 200.5t139.5 493.5q0 241 -65 361.5t-188 120.5q-44 0 -76 -9.5t-61 -30.5l-69 138q37 26 90.5 41.5t120.5 15.5q198 0 309 -169.5t111 -454.5q0 -359 -191.5 -608.5t-484.5 -249.5q-252 0 -378 149.5t-126 448.5
v860z" />
    <glyph glyph-name="Yhook" unicode="&#x1b3;" horiz-adv-x="1166" 
d="M437 0v526l-461 908h191l321 -648q12 -24 16.5 -36.5t18.5 -51.5h3q12 37 16.5 49t17.5 39l199 398q76 152 138.5 213t163.5 61q27 0 55 -5t64 -20l-48 -135q-16 5 -28 6.5t-26 1.5q-47 0 -81.5 -33t-96.5 -157l-295 -590v-526h-168z" />
    <glyph glyph-name="yhook" unicode="&#x1b4;" horiz-adv-x="1059" 
d="M1101 896q-19 7 -36 9.5t-33 2.5q-51 0 -93 -42t-75 -126l-366 -935q-58 -147 -143.5 -217t-198.5 -70q-33 0 -58 3.5t-49 9.5l33 140q18 -6 33.5 -8.5t30.5 -2.5q66 0 109.5 34t69.5 96l89 212l-400 1022h182l277 -788q5 -14 10.5 -33.5t10.5 -44.5h6q3 13 8 32.5
t12 45.5l192 518q55 147 134.5 220.5t183.5 73.5q34 0 59 -5t58 -17z" />
    <glyph glyph-name="Zstroke" unicode="&#x1b5;" horiz-adv-x="1168" 
d="M1104 0h-1071v47l409 607h-227v151h330l321 477h-768v152h1026v-40l-399 -589h252v-151h-355l-338 -502h820v-152z" />
    <glyph glyph-name="zstroke" unicode="&#x1b6;" horiz-adv-x="926" 
d="M874 0h-841v51l295 405h-168v140h268l211 288h-549v140h790v-47l-276 -381h188v-140h-288l-230 -316h600v-140z" />
    <glyph glyph-name="Ezh" unicode="&#x1b7;" horiz-adv-x="1250" 
d="M11 -376l64 138q104 -48 202 -70t222 -22q214 0 347 119.5t133 310.5q0 204 -151.5 317t-417.5 113h-92v76l501 676h-780v152h1026v-76l-510 -686q273 -23 436.5 -175t163.5 -391q0 -256 -188 -422t-477 -166q-132 0 -245.5 25t-233.5 81z" />
    <glyph glyph-name="Ezhreversed" unicode="&#x1b8;" horiz-adv-x="1250" 
d="M1245 -368q-122 -60 -239 -87t-253 -27q-282 0 -470 162.5t-188 413.5q0 244 163.5 399.5t436.5 178.5l-510 686v76h1026v-152h-780l501 -676v-76h-92q-266 0 -417.5 -113t-151.5 -317q0 -191 133 -310.5t347 -119.5q120 0 221 23.5t207 74.5z" />
    <glyph glyph-name="ezhreversed" unicode="&#x1b9;" horiz-adv-x="905" 
d="M969 -383q-81 -47 -174.5 -71.5t-200.5 -24.5q-256 0 -410 124.5t-154 328.5q0 176 123.5 301.5t330.5 154.5l-394 543v51h813v-140h-571l378 -532v-51h-84q-200 0 -314 -85.5t-114 -235.5q0 -141 109 -230.5t268 -89.5q91 0 173.5 20.5t155.5 61.5z" />
    <glyph glyph-name="ezhtail" unicode="&#x1ba;" horiz-adv-x="838" 
d="M643 -271l64 -125q-89 -45 -174 -65.5t-185 -20.5q-160 0 -249 62.5t-89 173.5q0 99 78 173.5t234 125.5q164 54 227 108.5t63 143.5q0 90 -79 141.5t-221 51.5h-82v61l282 325h-502v140h728v-70l-294 -338q158 -18 245 -99t87 -210q0 -126 -83 -213.5t-279 -155.5
q-147 -50 -191.5 -84.5t-44.5 -87.5q0 -54 46 -81t138 -27q68 0 138 17t143 54z" />
    <glyph glyph-name="twostroke" unicode="&#x1bb;" horiz-adv-x="1104" 
d="M96 0v146l383 409h-253v147h388q105 119 146 197.5t41 163.5q0 120 -72 188t-201 68q-94 0 -172 -31t-142 -81l-76 110q84 67 191 104t222 37q192 0 301.5 -103.5t109.5 -279.5q0 -87 -40 -180.5t-119 -192.5h159v-147h-290l-375 -403v-4h663v-148h-864z" />
    <glyph glyph-name="Tonefive" unicode="&#x1bc;" horiz-adv-x="1104" 
d="M73 135l97 117q68 -71 143.5 -104t164.5 -33q139 0 231 87.5t92 225.5q0 140 -94.5 219.5t-271.5 79.5q-55 0 -139 -6t-90 -6l69 571h-158v148h787v-148h-475l-51 -420q33 2 60 3t49 1q231 0 356.5 -115t125.5 -317q0 -209 -135.5 -336t-354.5 -127q-132 0 -229.5 38.5
t-176.5 121.5z" />
    <glyph glyph-name="tonefive" unicode="&#x1bd;" horiz-adv-x="778" 
d="M74 36l63 123q47 -23 91.5 -34t97.5 -11q100 0 161.5 54t61.5 141q0 84 -65.5 134.5t-180.5 50.5q-59 0 -99 -2.5t-90 -5.5l62 398h-104v140h604v-140h-350l-40 -253q25 1 42.5 1.5t27.5 0.5q157 0 259 -83.5t102 -231.5q0 -151 -106.5 -246.5t-284.5 -95.5
q-70 0 -129.5 14.5t-122.5 45.5z" />
    <glyph glyph-name="glottalinvertedstroke" unicode="&#x1be;" horiz-adv-x="807" 
d="M70 66l77 115q52 -35 104.5 -51t127.5 -16q98 0 146.5 36t48.5 108q0 46 -28 83.5t-153 100.5q-146 76 -191.5 153.5t-45.5 186.5v102h-126v140h126v250l164 53v-303h258v-140h-258v-98q0 -75 35 -122t137 -96q137 -68 192.5 -138t55.5 -164q0 -127 -100.5 -208.5
t-273.5 -81.5q-84 0 -155 21.5t-141 68.5z" />
    <glyph glyph-name="wynn" unicode="&#x1bf;" horiz-adv-x="1118" 
d="M330 -45v-426h-164v1495h164v-129q86 77 177.5 115t188.5 38q151 0 250.5 -98t99.5 -244q0 -213 -176 -406t-485 -322zM330 725v-613l53 23q222 96 358.5 244t136.5 311q0 93 -56 154t-148 61q-79 0 -165 -45t-179 -135z" />
    <glyph glyph-name="clickdental" unicode="&#x1c0;" horiz-adv-x="490" 
d="M320 -482h-148v2048h148v-2048z" />
    <glyph glyph-name="clicklateral" unicode="&#x1c1;" horiz-adv-x="784" 
d="M319 -482h-148v2048h148v-2048zM613 -482h-148v2048h148v-2048z" />
    <glyph glyph-name="clickalveolar" unicode="&#x1c2;" horiz-adv-x="934" 
d="M540 -482h-147v808h-342v139h342v279h-342v138h342v684h147v-684h342v-138h-342v-279h342v-139h-342v-808z" />
    <glyph glyph-name="clickretroflex" unicode="&#x1c3;" horiz-adv-x="582" 
d="M374 1434l-18 -1030h-135l-18 1030h171zM291 -18q-49 0 -82.5 33t-33.5 81t33.5 81t82.5 33t82.5 -33t33.5 -81t-33.5 -81t-82.5 -33z" />
    <glyph glyph-name="DZcaron" unicode="&#x1c4;" horiz-adv-x="2536" 
d="M188 0v1434h396q379 0 568.5 -174.5t189.5 -524.5q0 -332 -210.5 -533.5t-563.5 -201.5h-380zM356 1282v-1130h214q282 0 439 151t157 428q0 276 -146.5 413.5t-439.5 137.5h-224zM2472 0h-1071v47l833 1235h-766v152h1024v-40l-840 -1242h820v-152zM2046 1566h-132
l-216 330h115l164 -229l164 229h119z" />
    <glyph glyph-name="Dzcaron" unicode="&#x1c5;" horiz-adv-x="2332" 
d="M188 0v1434h396q379 0 568.5 -174.5t189.5 -524.5q0 -332 -210.5 -533.5t-563.5 -201.5h-380zM356 1282v-1130h214q282 0 439 151t157 428q0 276 -146.5 413.5t-439.5 137.5h-224zM2286 977l-606 -837h600v-140h-841v51l606 833h-549v140h790v-47zM1974 1218h-132
l-216 330h115l164 -229l164 229h119z" />
    <glyph glyph-name="dzcaron" unicode="&#x1c6;" horiz-adv-x="2099" 
d="M872 174q-57 -99 -144.5 -148.5t-207.5 -49.5q-193 0 -308.5 137.5t-115.5 374.5q0 254 128 407t341 153q106 0 182.5 -41.5t124.5 -124.5h4v634h164v-1516h-164v174h-4zM264 496q0 -177 82.5 -279.5t221.5 -102.5q138 0 223 99t85 250v151q0 124 -82.5 210t-207.5 86
q-150 0 -236 -110t-86 -304zM2053 977l-606 -837h600v-140h-841v51l606 833h-549v140h790v-47zM1740 1218h-132l-216 330h115l164 -229l164 229h119z" />
    <glyph glyph-name="LJ" unicode="&#x1c7;" horiz-adv-x="1753" 
d="M932 0h-744v1434h168v-1282h576v-152zM1577 410q0 -205 -90 -319.5t-280 -114.5q-48 0 -89 6t-86 20l44 145q34 -11 64.5 -15.5t61.5 -4.5q100 0 153.5 64t53.5 217v1026h168v-1024z" />
    <glyph glyph-name="Lj" unicode="&#x1c8;" horiz-adv-x="1474" 
d="M932 0h-744v1434h168v-1282h576v-152zM1229 1269q-50 0 -84 33.5t-34 82.5t34 82.5t84 33.5t84 -33.5t34 -82.5t-34 -82.5t-84 -33.5zM1307 -29q0 -241 -87 -347t-266 -106q-39 0 -71.5 5t-69.5 16l35 139q31 -11 56 -15.5t51 -4.5q105 0 146.5 69.5t41.5 232.5v1064h164
v-1053z" />
    <glyph glyph-name="lj" unicode="&#x1c9;" horiz-adv-x="1025" 
d="M166 0v1516h164v-1516h-164zM779 1269q-50 0 -84 33.5t-34 82.5t34 82.5t84 33.5t84 -33.5t34 -82.5t-34 -82.5t-84 -33.5zM857 -29q0 -241 -87 -347t-266 -106q-39 0 -71.5 5t-69.5 16l35 139q31 -11 56 -15.5t51 -4.5q105 0 146.5 69.5t41.5 232.5v1064h164v-1053z" />
    <glyph glyph-name="NJ" unicode="&#x1ca;" horiz-adv-x="2196" 
d="M1344 0h-206l-738 1143q-14 22 -25.5 44.5t-20.5 45.5h-6q4 -23 6 -72t2 -125v-1036h-168v1434h218l718 -1125q23 -35 37.5 -59t20.5 -37h4q-5 31 -7.5 84t-2.5 127v1010h168v-1434zM2020 410q0 -205 -90 -319.5t-280 -114.5q-48 0 -89 6t-86 20l44 145
q34 -11 64.5 -15.5t61.5 -4.5q100 0 153.5 64t53.5 217v1026h168v-1024z" />
    <glyph glyph-name="Nj" unicode="&#x1cb;" horiz-adv-x="1982" 
d="M1344 0h-206l-738 1143q-14 22 -25.5 44.5t-20.5 45.5h-6q4 -23 6 -72t2 -125v-1036h-168v1434h218l718 -1125q23 -35 37.5 -59t20.5 -37h4q-5 31 -7.5 84t-2.5 127v1010h168v-1434zM1736 1269q-50 0 -84 33.5t-34 82.5t34 82.5t84 33.5t84 -33.5t34 -82.5t-34 -82.5
t-84 -33.5zM1814 -29q0 -241 -87 -347t-266 -106q-39 0 -71.5 5t-69.5 16l35 139q31 -11 56 -15.5t51 -4.5q105 0 146.5 69.5t41.5 232.5v1064h164v-1053z" />
    <glyph glyph-name="nj" unicode="&#x1cc;" horiz-adv-x="1655" 
d="M1016 0h-164v584q0 163 -59.5 244.5t-178.5 81.5q-123 0 -203.5 -92.5t-80.5 -233.5v-584h-164v1024h164v-170h4q58 97 142 145.5t194 48.5q168 0 257 -108.5t89 -313.5v-626zM1409 1269q-50 0 -84 33.5t-34 82.5t34 82.5t84 33.5t84 -33.5t34 -82.5t-34 -82.5t-84 -33.5
zM1487 -29q0 -241 -87 -347t-266 -106q-39 0 -71.5 5t-69.5 16l35 139q31 -11 56 -15.5t51 -4.5q105 0 146.5 69.5t41.5 232.5v1064h164v-1053z" />
    <glyph glyph-name="Acaron" unicode="&#x1cd;" horiz-adv-x="1321" 
d="M22 0l550 1434h174l552 -1434h-186l-145 384h-621l-137 -384h-187zM402 535h510l-232 629q-6 15 -11 39t-11 57h-4q-5 -30 -10.5 -54t-12.5 -42zM730 1566h-132l-216 330h115l164 -229l164 229h119z" />
    <glyph glyph-name="acaron" unicode="&#x1ce;" horiz-adv-x="1034" 
d="M883 0h-164v160h-4q-53 -92 -130.5 -138t-180.5 -46q-144 0 -233 84t-89 223q0 131 90 217t255 110l292 39v23q0 129 -60 183.5t-160 54.5q-80 0 -154 -30t-139 -92l-96 99q86 83 183 122t216 39q186 0 280 -95.5t94 -286.5v-666zM719 416v102l-247 -34
q-113 -16 -170 -57t-57 -129q0 -92 53.5 -140.5t130.5 -48.5q133 0 211.5 87t78.5 220zM591 1218h-132l-216 330h115l164 -229l164 229h119z" />
    <glyph glyph-name="Icaron" unicode="&#x1cf;" horiz-adv-x="545" 
d="M356 0h-168v1434h168v-1434zM340 1566h-132l-216 330h115l164 -229l164 229h119z" />
    <glyph glyph-name="icaron" unicode="&#x1d0;" horiz-adv-x="496" 
d="M166 0v1024h164v-1024h-164zM318 1218h-132l-216 330h115l164 -229l164 229h119z" />
    <glyph glyph-name="Ocaron" unicode="&#x1d1;" horiz-adv-x="1544" 
d="M766 -24q-305 0 -488.5 201t-183.5 523q0 346 187 552t509 206q297 0 478.5 -200t181.5 -523q0 -351 -186 -555t-498 -204zM766 127q236 0 372 154t136 431q0 284 -132 439t-364 155q-226 0 -367 -163t-141 -428t137.5 -426.5t358.5 -161.5zM853 1566h-132l-216 330h115
l164 -229l164 229h119z" />
    <glyph glyph-name="ocaron" unicode="&#x1d2;" horiz-adv-x="1200" 
d="M594 -24q-227 0 -362.5 143.5t-135.5 380.5q0 257 140 402t382 146q229 1 357.5 -141t128.5 -391q0 -246 -138.5 -393t-371.5 -147zM606 114q159 0 244.5 103.5t85.5 292.5q0 193 -86 296.5t-244 103.5t-250 -108t-92 -296q0 -182 93 -287t249 -105zM670 1218h-132
l-216 330h115l164 -229l164 229h119z" />
    <glyph glyph-name="Ucaron" unicode="&#x1d3;" horiz-adv-x="1407" 
d="M1237 581q0 -303 -136 -454t-409 -151q-261 0 -391.5 145t-130.5 436v877h168v-866q0 -220 93 -330.5t279 -110.5q180 0 269.5 106.5t89.5 319.5v881h168v-853zM774 1566h-132l-216 330h115l164 -229l164 229h119z" />
    <glyph glyph-name="ucaron" unicode="&#x1d4;" horiz-adv-x="1159" 
d="M994 0h-164v162h-4q-51 -93 -130 -139.5t-186 -46.5q-183 0 -274.5 109t-91.5 327v612h163v-586q0 -162 62 -243t186 -81q120 0 197.5 88.5t77.5 231.5v590h164v-1024zM650 1218h-132l-216 330h115l164 -229l164 229h119z" />
    <glyph glyph-name="Udieresismacron" unicode="&#x1d5;" horiz-adv-x="1407" 
d="M1237 581q0 -303 -136 -454t-409 -151q-261 0 -391.5 145t-130.5 436v877h168v-866q0 -220 93 -330.5t279 -110.5q180 0 269.5 106.5t89.5 319.5v881h168v-853zM958 1849h-508v109h508v-109zM995 1665q0 -41 -28.5 -70t-70.5 -29q-40 0 -69 28t-29 71q0 42 28.5 70
t67.5 28q42 0 71.5 -28.5t29.5 -69.5zM610 1665q0 -41 -28.5 -70t-69.5 -29t-71 28.5t-30 70.5t28.5 70t70.5 28q41 0 70.5 -28.5t29.5 -69.5z" />
    <glyph glyph-name="udieresismacron" unicode="&#x1d6;" horiz-adv-x="1159" 
d="M994 0h-164v162h-4q-51 -93 -130 -139.5t-186 -46.5q-183 0 -274.5 109t-91.5 327v612h163v-586q0 -162 62 -243t186 -81q120 0 197.5 88.5t77.5 231.5v590h164v-1024zM833 1501h-508v109h508v-109zM870 1317q0 -41 -28.5 -70t-70.5 -29q-40 0 -69 28t-29 71
q0 42 28.5 70t67.5 28q42 0 71.5 -28.5t29.5 -69.5zM485 1317q0 -41 -28.5 -70t-69.5 -29t-71 28.5t-30 70.5t28.5 70t70.5 28q41 0 70.5 -28.5t29.5 -69.5z" />
    <glyph glyph-name="Udieresisacute" unicode="&#x1d7;" horiz-adv-x="1407" 
d="M1237 581q0 -303 -136 -454t-409 -151q-261 0 -391.5 145t-130.5 436v877h168v-866q0 -220 93 -330.5t279 -110.5q180 0 269.5 106.5t89.5 319.5v881h168v-853zM1012 2110l-263 -328h-126l223 328h166zM895 1566q-40 0 -69 28t-29 71q0 42 27.5 70t68.5 28q42 0 71 -28.5
t29 -69.5t-28 -70t-70 -29zM510 1566q-41 0 -71 28.5t-30 70.5q0 41 28.5 69.5t70.5 28.5q41 0 71 -28.5t30 -69.5t-29 -70t-70 -29z" />
    <glyph glyph-name="udieresisacute" unicode="&#x1d8;" horiz-adv-x="1159" 
d="M994 0h-164v162h-4q-51 -93 -130 -139.5t-186 -46.5q-183 0 -274.5 109t-91.5 327v612h163v-586q0 -162 62 -243t186 -81q120 0 197.5 88.5t77.5 231.5v590h164v-1024zM888 1762l-263 -328h-126l223 328h166zM771 1218q-40 0 -69 28t-29 71q0 42 27.5 70t68.5 28
q42 0 71 -28.5t29 -69.5t-28 -70t-70 -29zM386 1218q-41 0 -71 28.5t-30 70.5q0 41 28.5 69.5t70.5 28.5q41 0 71 -28.5t30 -69.5t-29 -70t-70 -29z" />
    <glyph glyph-name="Udieresiscaron" unicode="&#x1d9;" horiz-adv-x="1407" 
d="M1237 581q0 -303 -136 -454t-409 -151q-261 0 -391.5 145t-130.5 436v877h168v-866q0 -220 93 -330.5t279 -110.5q180 0 269.5 106.5t89.5 319.5v881h168v-853zM986 2134l-213 -330h-133l-215 330h115l164 -230l164 230h118zM898 1566q-40 0 -69 28t-29 71q0 42 27.5 70
t68.5 28q42 0 71 -28.5t29 -69.5t-28 -70t-70 -29zM513 1566q-41 0 -71 28.5t-30 70.5q0 41 28.5 69.5t70.5 28.5q41 0 71 -28.5t30 -69.5t-29 -70t-70 -29z" />
    <glyph glyph-name="udieresiscaron" unicode="&#x1da;" horiz-adv-x="1159" 
d="M994 0h-164v162h-4q-51 -93 -130 -139.5t-186 -46.5q-183 0 -274.5 109t-91.5 327v612h163v-586q0 -162 62 -243t186 -81q120 0 197.5 88.5t77.5 231.5v590h164v-1024zM647 1456h-133l-215 330h115l164 -230l164 230h118zM870 1317q0 -41 -28 -70t-70 -29q-40 0 -69 28
t-29 71q0 42 27.5 70t68.5 28q42 0 71 -28.5t29 -69.5zM486 1317q0 -41 -29 -70t-70 -29t-71 28.5t-30 70.5q0 41 28.5 69.5t70.5 28.5q41 0 71 -28.5t30 -69.5z" />
    <glyph glyph-name="Udieresisgrave" unicode="&#x1db;" horiz-adv-x="1407" 
d="M1237 581q0 -303 -136 -454t-409 -151q-261 0 -391.5 145t-130.5 436v877h168v-866q0 -220 93 -330.5t279 -110.5q180 0 269.5 106.5t89.5 319.5v881h168v-853zM784 1782h-127l-263 328h166zM896 1566q-41 0 -69.5 29t-28.5 70t29.5 69.5t70.5 28.5q42 0 70.5 -28.5
t28.5 -69.5q0 -42 -30 -70.5t-71 -28.5zM512 1566q-42 0 -70.5 29t-28.5 70t29.5 69.5t71.5 28.5q39 0 67.5 -28t28.5 -70q0 -43 -29 -71t-69 -28z" />
    <glyph glyph-name="udieresisgrave" unicode="&#x1dc;" horiz-adv-x="1159" 
d="M994 0h-164v162h-4q-51 -93 -130 -139.5t-186 -46.5q-183 0 -274.5 109t-91.5 327v612h163v-586q0 -162 62 -243t186 -81q120 0 197.5 88.5t77.5 231.5v590h164v-1024zM660 1434h-127l-263 328h166zM772 1218q-41 0 -69.5 29t-28.5 70t29.5 69.5t70.5 28.5
q42 0 70.5 -28.5t28.5 -69.5q0 -42 -30 -70.5t-71 -28.5zM388 1218q-42 0 -70.5 29t-28.5 70t29.5 69.5t71.5 28.5q39 0 67.5 -28t28.5 -70q0 -43 -29 -71t-69 -28z" />
    <glyph glyph-name="eturned" unicode="&#x1dd;" horiz-adv-x="1071" 
d="M806 549q-4 173 -91.5 266.5t-245.5 93.5q-70 0 -140.5 -21t-140.5 -66l-75 117q88 57 176 83t193 26q232 0 362 -138t131 -385t-130.5 -398t-341.5 -151q-200 0 -310.5 130.5t-110.5 361.5v81h724zM250 415q1 -142 69 -221.5t187 -79.5q117 0 198.5 81.5t99.5 219.5
h-554z" />
    <glyph glyph-name="Adieresismacron" unicode="&#x1de;" horiz-adv-x="1321" 
d="M22 0l550 1434h174l552 -1434h-186l-145 384h-621l-137 -384h-187zM402 535h510l-232 629q-6 15 -11 39t-11 57h-4q-5 -30 -10.5 -54t-12.5 -42zM914 1849h-508v109h508v-109zM951 1665q0 -41 -28.5 -70t-70.5 -29q-40 0 -69 28t-29 71q0 42 28.5 70t67.5 28
q42 0 71.5 -28.5t29.5 -69.5zM566 1665q0 -41 -28.5 -70t-69.5 -29t-71 28.5t-30 70.5t28.5 70t70.5 28q41 0 70.5 -28.5t29.5 -69.5z" />
    <glyph glyph-name="adieresismacron" unicode="&#x1df;" horiz-adv-x="1034" 
d="M883 0h-164v160h-4q-53 -92 -130.5 -138t-180.5 -46q-144 0 -233 84t-89 223q0 131 90 217t255 110l292 39v23q0 129 -60 183.5t-160 54.5q-80 0 -154 -30t-139 -92l-96 99q86 83 183 122t216 39q186 0 280 -95.5t94 -286.5v-666zM719 416v102l-247 -34
q-113 -16 -170 -57t-57 -129q0 -92 53.5 -140.5t130.5 -48.5q133 0 211.5 87t78.5 220zM775 1501h-508v109h508v-109zM812 1317q0 -41 -28.5 -70t-70.5 -29q-40 0 -69 28t-29 71q0 42 28.5 70t67.5 28q42 0 71.5 -28.5t29.5 -69.5zM427 1317q0 -41 -28.5 -70t-69.5 -29
t-71 28.5t-30 70.5t28.5 70t70.5 28q41 0 70.5 -28.5t29.5 -69.5z" />
    <glyph glyph-name="Adotmacron" unicode="&#x1e0;" horiz-adv-x="1321" 
d="M22 0l550 1434h174l552 -1434h-186l-145 384h-621l-137 -384h-187zM402 535h510l-232 629q-6 15 -11 39t-11 57h-4q-5 -30 -10.5 -54t-12.5 -42zM758 1665q0 -41 -28.5 -70t-69.5 -29q-40 0 -69 28.5t-29 70.5q0 41 29 68.5t69 27.5q41 0 69.5 -27.5t28.5 -68.5z
M914 1828h-508v109h508v-109z" />
    <glyph glyph-name="adotmacron" unicode="&#x1e1;" horiz-adv-x="1034" 
d="M883 0h-164v160h-4q-53 -92 -130.5 -138t-180.5 -46q-144 0 -233 84t-89 223q0 131 90 217t255 110l292 39v23q0 129 -60 183.5t-160 54.5q-80 0 -154 -30t-139 -92l-96 99q86 83 183 122t216 39q186 0 280 -95.5t94 -286.5v-666zM719 416v102l-247 -34
q-113 -16 -170 -57t-57 -129q0 -92 53.5 -140.5t130.5 -48.5q133 0 211.5 87t78.5 220zM619 1317q0 -41 -28.5 -70t-69.5 -29q-40 0 -69 28.5t-29 70.5q0 41 29 68.5t69 27.5q41 0 69.5 -27.5t28.5 -68.5zM775 1480h-508v109h508v-109z" />
    <glyph glyph-name="AEmacron" unicode="&#x1e2;" horiz-adv-x="1762" 
d="M205 0h-195l700 1434h924v-152h-559v-477h519v-151h-519v-502h592v-152h-759v402h-510zM813 1282l-346 -729h441v729h-95zM1326 1566h-498v120h498v-120z" />
    <glyph glyph-name="aemacron" unicode="&#x1e3;" horiz-adv-x="1696" 
d="M1590 95q-88 -62 -178 -90.5t-198 -28.5q-165 0 -260.5 57.5t-152.5 171.5h-4q-72 -114 -169 -171.5t-218 -57.5q-153 0 -240.5 80.5t-87.5 215.5q0 150 96 231t287 93l262 16q0 149 -53.5 223.5t-174.5 74.5q-80 0 -154.5 -28t-142.5 -87l-91 104q88 77 184.5 113
t213.5 36q137 0 212 -50t109 -150h4q58 100 147 150t209 50q202 0 313 -130.5t111 -362.5v-84h-725q3 -171 91 -264t247 -92q72 0 143 22.5t140 70.5zM891 610h555q-2 144 -68.5 222t-185.5 78q-116 0 -199 -82t-102 -218zM727 473l-203 -12q-139 -8 -207.5 -49t-68.5 -136
q0 -73 53 -117.5t143 -44.5q119 0 201 84.5t82 211.5v63zM1088 1218h-498v120h498v-120z" />
    <glyph glyph-name="Gstroke" unicode="&#x1e4;" horiz-adv-x="1405" 
d="M1405 305h-145v-207q-108 -61 -228 -91.5t-252 -30.5q-307 0 -496.5 198t-189.5 524q0 348 207.5 554t533.5 206q115 0 218 -24.5t210 -79.5l-69 -136q-90 46 -176.5 67t-188.5 21q-242 0 -400.5 -156.5t-158.5 -439.5q0 -272 143 -427.5t388 -155.5q84 0 157 17t134 50
v111h-312v139h312v152h-314v152h482v-304h145v-139z" />
    <glyph glyph-name="gstroke" unicode="&#x1e5;" horiz-adv-x="1206" 
d="M1206 -209h-219q-59 -136 -181 -204.5t-280 -68.5q-107 0 -198.5 21t-188.5 68l62 126q81 -39 158 -57t139 -18q109 0 187 33.5t124 99.5h-332v139h387q6 31 9 63.5t3 66.5v153h-4q-58 -98 -146 -147.5t-206 -49.5q-189 0 -306.5 134t-117.5 350q0 245 128 396.5
t341 151.5q104 0 180.5 -41.5t126.5 -124.5h4v142h164v-942q0 -40 -3 -78t-9 -74h178v-139zM876 504v110q0 122 -82.5 209t-205.5 87q-151 0 -237.5 -107t-86.5 -293q0 -157 83.5 -255.5t217.5 -98.5q138 0 224.5 97t86.5 251z" />
    <glyph glyph-name="Gcaron" unicode="&#x1e6;" horiz-adv-x="1405" 
d="M1260 98q-108 -61 -228 -91.5t-252 -30.5q-315 0 -500.5 190t-185.5 532q0 349 207.5 554.5t532.5 205.5q119 0 221 -24.5t208 -78.5l-69 -136q-89 46 -175 66.5t-186 20.5q-246 0 -404.5 -156t-158.5 -440q0 -288 139 -435.5t392 -147.5q84 0 157 16.5t134 50.5v402
h-314v152h482v-650zM896 1566h-132l-216 330h115l164 -229l164 229h119z" />
    <glyph glyph-name="gcaron" unicode="&#x1e7;" horiz-adv-x="1206" 
d="M1040 55q0 -269 -137.5 -403t-376.5 -134q-105 0 -195.5 20t-186.5 65l60 126q80 -37 156.5 -54t163.5 -17q164 0 258 93t94 282v139h-4q-58 -98 -146 -147t-206 -49q-191 0 -307.5 136.5t-116.5 366.5q0 252 128.5 410.5t340.5 158.5q104 0 180.5 -41.5t126.5 -124.5h4
v142h164v-969zM876 463v151q0 122 -82.5 209t-205.5 87q-151 0 -237.5 -104t-86.5 -316q0 -182 80 -279t221 -97q138 0 224.5 98t86.5 251zM646 1218h-132l-216 330h115l164 -229l164 229h119z" />
    <glyph glyph-name="Kcaron" unicode="&#x1e8;" horiz-adv-x="1188" 
d="M1186 0h-234l-554 656q-15 19 -24.5 31.5t-13.5 18.5h-4v-706h-168v1434h168v-674h4q7 11 16.5 23.5t21.5 25.5l536 625h209l-615 -688zM675 1566h-132l-216 330h115l164 -229l164 229h119z" />
    <glyph glyph-name="kcaron" unicode="&#x1e9;" horiz-adv-x="1018" 
d="M1016 0h-230l-452 492h-4v-492h-164v1516h164v-961h4l430 469h215l-475 -494zM579 1578h-132l-216 330h115l164 -229l164 229h119z" />
    <glyph glyph-name="Oogonek" unicode="&#x1ea;" horiz-adv-x="1544" 
d="M766 -24q-305 0 -488.5 201t-183.5 523q0 346 187 552t509 206q297 0 478.5 -200t181.5 -523q0 -351 -186 -555t-498 -204zM766 127q236 0 372 154t136 431q0 284 -132 439t-364 155q-226 0 -367 -163t-141 -428t137.5 -426.5t358.5 -161.5zM863 0q-75 -70 -112.5 -126
t-37.5 -97q0 -35 17 -52.5t51 -17.5q15 0 29 3.5t27 6.5l26 -97q-41 -13 -61.5 -16.5t-46.5 -3.5q-76 0 -122 40t-46 110q0 61 39.5 123.5t117.5 126.5h119z" />
    <glyph glyph-name="oogonek" unicode="&#x1eb;" horiz-adv-x="1200" 
d="M594 -24q-227 0 -362.5 143.5t-135.5 380.5q0 257 140 402t382 146q229 1 357.5 -141t128.5 -391q0 -246 -138.5 -393t-371.5 -147zM606 114q159 0 244.5 103.5t85.5 292.5q0 193 -86 296.5t-244 103.5t-250 -108t-92 -296q0 -182 93 -287t249 -105zM693 0
q-75 -70 -112.5 -126t-37.5 -97q0 -35 17 -52.5t51 -17.5q15 0 29 3.5t27 6.5l26 -97q-41 -13 -61.5 -16.5t-46.5 -3.5q-76 0 -122 40t-46 110q0 61 39.5 123.5t117.5 126.5h119z" />
    <glyph glyph-name="Oogonekmacron" unicode="&#x1ec;" horiz-adv-x="1544" 
d="M766 -24q-305 0 -488.5 201t-183.5 523q0 346 187 552t509 206q297 0 478.5 -200t181.5 -523q0 -351 -186 -555t-498 -204zM766 127q236 0 372 154t136 431q0 284 -132 439t-364 155q-226 0 -367 -163t-141 -428t137.5 -426.5t358.5 -161.5zM1032 1566h-498v120h498v-120
zM863 0q-75 -70 -112.5 -126t-37.5 -97q0 -35 17 -52.5t51 -17.5q15 0 29 3.5t27 6.5l26 -97q-41 -13 -61.5 -16.5t-46.5 -3.5q-76 0 -122 40t-46 110q0 61 39.5 123.5t117.5 126.5h119z" />
    <glyph glyph-name="oogonekmacron" unicode="&#x1ed;" horiz-adv-x="1200" 
d="M594 -24q-227 0 -362.5 143.5t-135.5 380.5q0 257 140 402t382 146q229 1 357.5 -141t128.5 -391q0 -246 -138.5 -393t-371.5 -147zM606 114q159 0 244.5 103.5t85.5 292.5q0 193 -86 296.5t-244 103.5t-250 -108t-92 -296q0 -182 93 -287t249 -105zM693 0
q-75 -70 -112.5 -126t-37.5 -97q0 -35 17 -52.5t51 -17.5q15 0 29 3.5t27 6.5l26 -97q-41 -13 -61.5 -16.5t-46.5 -3.5q-76 0 -122 40t-46 110q0 61 39.5 123.5t117.5 126.5h119zM849 1218h-498v120h498v-120z" />
    <glyph glyph-name="Ezhcaron" unicode="&#x1ee;" horiz-adv-x="1250" 
d="M11 -376l64 138q104 -48 202 -70t222 -22q214 0 347 119.5t133 310.5q0 204 -151.5 317t-417.5 113h-92v76l501 676h-780v152h1026v-76l-510 -686q273 -23 436.5 -175t163.5 -391q0 -256 -188 -422t-477 -166q-132 0 -245.5 25t-233.5 81zM588 1566h-132l-216 330h115
l164 -229l164 229h119z" />
    <glyph glyph-name="ezhcaron" unicode="&#x1ef;" horiz-adv-x="905" 
d="M-34 -398l63 123q67 -34 131.5 -49.5t146.5 -15.5q174 0 285.5 91t111.5 235q0 149 -111 232t-317 83h-82v51l384 532h-546v140h781v-51l-393 -543q218 -26 335 -143t117 -297q0 -204 -162 -336.5t-409 -132.5q-93 0 -172.5 19t-162.5 62zM492 1218h-132l-216 330h115
l164 -229l164 229h119z" />
    <glyph glyph-name="jcaron" unicode="&#x1f0;" horiz-adv-x="496" 
d="M328 -29q0 -241 -87 -347t-266 -106q-39 0 -71.5 5t-69.5 16l35 139q31 -11 56 -15.5t51 -4.5q105 0 146.5 69.5t41.5 232.5v1064h164v-1053zM316 1218h-132l-216 330h115l164 -229l164 229h119z" />
    <glyph glyph-name="DZ" unicode="&#x1f1;" horiz-adv-x="2536" 
d="M188 0v1434h396q379 0 568.5 -174.5t189.5 -524.5q0 -332 -210.5 -533.5t-563.5 -201.5h-380zM356 1282v-1130h214q282 0 439 151t157 428q0 276 -146.5 413.5t-439.5 137.5h-224zM2472 0h-1071v47l833 1235h-766v152h1024v-40l-840 -1242h820v-152z" />
    <glyph glyph-name="Dz" unicode="&#x1f2;" horiz-adv-x="2332" 
d="M188 0v1434h396q379 0 568.5 -174.5t189.5 -524.5q0 -332 -210.5 -533.5t-563.5 -201.5h-380zM356 1282v-1130h214q282 0 439 151t157 428q0 276 -146.5 413.5t-439.5 137.5h-224zM2288 977l-606 -837h600v-140h-841v51l606 833h-549v140h790v-47z" />
    <glyph glyph-name="dz" unicode="&#x1f3;" horiz-adv-x="2099" 
d="M872 174q-57 -99 -144.5 -148.5t-207.5 -49.5q-193 0 -308.5 137.5t-115.5 374.5q0 254 128 407t341 153q106 0 182.5 -41.5t124.5 -124.5h4v634h164v-1516h-164v174h-4zM264 496q0 -177 82.5 -279.5t221.5 -102.5q138 0 223 99t85 250v151q0 124 -82.5 210t-207.5 86
q-150 0 -236 -110t-86 -304zM2054 977l-606 -837h600v-140h-841v51l606 833h-549v140h790v-47z" />
    <glyph glyph-name="Gacute" unicode="&#x1f4;" horiz-adv-x="1405" 
d="M1260 98q-108 -61 -228 -91.5t-252 -30.5q-315 0 -500.5 190t-185.5 532q0 349 207.5 554.5t532.5 205.5q119 0 221 -24.5t208 -78.5l-69 -136q-89 46 -175 66.5t-186 20.5q-246 0 -404.5 -156t-158.5 -440q0 -288 139 -435.5t392 -147.5q84 0 157 16.5t134 50.5v402
h-314v152h482v-650zM827 1566h-127l223 328h166z" />
    <glyph glyph-name="gacute" unicode="&#x1f5;" horiz-adv-x="1206" 
d="M1040 55q0 -269 -137.5 -403t-376.5 -134q-105 0 -195.5 20t-186.5 65l60 126q80 -37 156.5 -54t163.5 -17q164 0 258 93t94 282v139h-4q-58 -98 -146 -147t-206 -49q-191 0 -307.5 136.5t-116.5 366.5q0 252 128.5 410.5t340.5 158.5q104 0 180.5 -41.5t126.5 -124.5h4
v142h164v-969zM876 463v151q0 122 -82.5 209t-205.5 87q-151 0 -237.5 -104t-86.5 -316q0 -182 80 -279t221 -97q138 0 224.5 98t86.5 251zM577 1218h-127l223 328h166z" />
    <glyph glyph-name="Hwair" unicode="&#x1f6;" horiz-adv-x="2046" 
d="M1913 428q0 -214 -116 -333t-321 -119q-201 0 -310 114.5t-109 325.5v238h-701v-654h-168v1434h168v-629h701v629h167v-1004q0 -151 65.5 -227t195.5 -76t195 74.5t65 222.5v600h168v-596z" />
    <glyph glyph-name="Wynn" unicode="&#x1f7;" horiz-adv-x="1411" 
d="M356 -58v-413h-168v1905h168v-223h4q117 124 246 185.5t270 61.5q194 0 318.5 -135t124.5 -334q0 -321 -254.5 -595.5t-708.5 -451.5zM356 1014v-904q353 145 570 373.5t217 487.5q0 142 -81.5 236.5t-217.5 94.5q-117 0 -239 -72t-249 -216z" />
    <glyph glyph-name="Ngrave" unicode="&#x1f8;" horiz-adv-x="1532" 
d="M1344 0h-206l-738 1143q-14 22 -25.5 44.5t-20.5 45.5h-6q4 -23 6 -72t2 -125v-1036h-168v1434h218l718 -1125q23 -35 37.5 -59t20.5 -37h4q-5 31 -7.5 84t-2.5 127v1010h168v-1434zM899 1566h-127l-262 328h168z" />
    <glyph glyph-name="ngrave" unicode="&#x1f9;" horiz-adv-x="1159" 
d="M1016 0h-164v584q0 163 -59.5 244.5t-178.5 81.5q-123 0 -203.5 -92.5t-80.5 -233.5v-584h-164v1024h164v-170h4q58 97 142 145.5t194 48.5q168 0 257 -108.5t89 -313.5v-626zM708 1218h-127l-262 328h168z" />
    <glyph glyph-name="Aringacute" unicode="&#x1fa;" horiz-adv-x="1321" 
d="M1298 0h-186l-145 384h-621l-137 -384h-187l529 1378q-50 26 -75.5 67t-25.5 97q0 89 60 144t152 55q88 0 144 -54.5t56 -138.5q0 -56 -24 -97.5t-72 -68.5zM656 1659q-50 0 -82 -31.5t-32 -79.5q0 -57 33.5 -85.5t80.5 -28.5q48 0 81 33t33 81q0 49 -33 80t-81 31z
M911 535l-231 629q-5 15 -10.5 39t-11.5 57h-4q-5 -30 -10.5 -54t-12.5 -42l-229 -629h509zM654 1798h-127l223 328h166z" />
    <glyph glyph-name="aringacute" unicode="&#x1fb;" horiz-adv-x="1042" 
d="M891 0h-164v160h-4q-53 -92 -130.5 -138t-180.5 -46q-144 0 -233 84t-89 223q0 131 90 217t255 110l292 39v23q0 129 -60 183.5t-160 54.5q-80 0 -154 -30t-139 -92l-96 99q86 83 183 122t216 39q186 0 280 -95.5t94 -286.5v-666zM727 416v102l-247 -34
q-113 -16 -170 -57t-57 -129q0 -92 53.5 -140.5t130.5 -48.5q133 0 211.5 87t78.5 220zM523 1128q-93 0 -149.5 52.5t-56.5 137.5q0 89 56.5 143.5t149.5 54.5t149.5 -53t56.5 -139q0 -88 -56.5 -142t-149.5 -54zM523 1435q-51 0 -82.5 -31t-31.5 -82q0 -50 31.5 -81
t82.5 -31t82.5 31t31.5 81q0 51 -31.5 82t-82.5 31zM522 1565h-127l223 328h166z" />
    <glyph glyph-name="AEacute" unicode="&#x1fc;" horiz-adv-x="1762" 
d="M205 0h-195l700 1434h924v-152h-559v-477h519v-151h-519v-502h592v-152h-759v402h-510zM813 1282l-346 -729h441v729h-95zM1078 1566h-127l223 328h166z" />
    <glyph glyph-name="aeacute" unicode="&#x1fd;" horiz-adv-x="1704" 
d="M1598 95q-88 -62 -178 -90.5t-198 -28.5q-165 0 -260.5 57.5t-152.5 171.5h-4q-72 -114 -169 -171.5t-218 -57.5q-153 0 -240.5 80.5t-87.5 215.5q0 150 96 231t287 93l262 16q0 149 -53.5 223.5t-174.5 74.5q-80 0 -154.5 -28t-142.5 -87l-91 104q88 77 184.5 113
t213.5 36q137 0 212 -50t109 -150h4q58 100 147 150t209 50q202 0 313 -130.5t111 -362.5v-84h-725q3 -171 91 -264t247 -92q72 0 143 22.5t140 70.5zM899 610h555q-2 144 -68.5 222t-185.5 78q-116 0 -199 -82t-102 -218zM735 473l-203 -12q-139 -8 -207.5 -49t-68.5 -136
q0 -73 53 -117.5t143 -44.5q119 0 201 84.5t82 211.5v63zM840 1218h-127l223 328h166z" />
    <glyph glyph-name="Oslashacute" unicode="&#x1fe;" horiz-adv-x="1544" 
d="M324 131l-152 -182l-78 65l158 191q-79 98 -118.5 221.5t-39.5 273.5q0 343 186.5 550.5t509.5 207.5q117 0 217.5 -32t184.5 -97l135 162l78 -63l-139 -166q92 -100 138 -231.5t46 -295.5q0 -351 -186 -555t-498 -204q-133 0 -243.5 39t-198.5 116zM1090 1204
q-63 51 -141 76.5t-171 25.5q-227 0 -367.5 -164t-140.5 -427q0 -111 24.5 -204.5t73.5 -168.5zM1157 1130l-725 -866q66 -68 149.5 -102.5t184.5 -34.5q236 0 372 154.5t136 430.5q0 130 -29 234.5t-88 183.5zM788 1566h-127l223 328h166z" />
    <glyph glyph-name="oslashacute" unicode="&#x1ff;" horiz-adv-x="1200" 
d="M1174 1048l-168 -180q49 -69 73.5 -155.5t24.5 -190.5q0 -252 -139 -399t-371 -147q-96 0 -175.5 25.5t-142.5 76.5l-145 -160l-82 78l149 164q-51 69 -76.5 154t-25.5 186q0 258 142 403t382 145q92 0 169 -24.5t139 -73.5l162 176zM821 836q-39 37 -93 55.5t-122 18.5
q-159 0 -250.5 -107.5t-91.5 -296.5q0 -66 12.5 -122t37.5 -102zM891 742l-508 -552q44 -38 99 -57t122 -19q163 0 248.5 104t85.5 294q0 67 -11.5 124.5t-35.5 105.5zM601 1218h-127l223 328h166z" />
    <glyph glyph-name="Adblgrave" unicode="&#x200;" horiz-adv-x="1321" 
d="M22 0l550 1434h174l552 -1434h-186l-145 384h-621l-137 -384h-187zM402 535h510l-232 629q-6 15 -11 39t-11 57h-4q-5 -30 -10.5 -54t-12.5 -42zM880 1566h-97l-239 318h129zM638 1566h-96l-246 318h133z" />
    <glyph glyph-name="adblgrave" unicode="&#x201;" horiz-adv-x="1034" 
d="M883 0h-164v160h-4q-53 -92 -130.5 -138t-180.5 -46q-144 0 -233 84t-89 223q0 131 90 217t255 110l292 39v23q0 129 -60 183.5t-160 54.5q-80 0 -154 -30t-139 -92l-96 99q86 83 183 122t216 39q186 0 280 -95.5t94 -286.5v-666zM719 416v102l-247 -34
q-113 -16 -170 -57t-57 -129q0 -92 53.5 -140.5t130.5 -48.5q133 0 211.5 87t78.5 220zM741 1218h-97l-239 318h129zM499 1218h-96l-246 318h133z" />
    <glyph glyph-name="Ainvertedbreve" unicode="&#x202;" horiz-adv-x="1321" 
d="M22 0l550 1434h174l552 -1434h-186l-145 384h-621l-137 -384h-187zM402 535h510l-232 629q-6 15 -11 39t-11 57h-4q-5 -30 -10.5 -54t-12.5 -42zM388 1566q5 114 80 178t192 64t192 -64t80 -178h-100q-6 78 -49 111.5t-123 33.5t-123 -33.5t-49 -111.5h-100z" />
    <glyph glyph-name="ainvertedbreve" unicode="&#x203;" horiz-adv-x="1034" 
d="M883 0h-164v160h-4q-53 -92 -130.5 -138t-180.5 -46q-144 0 -233 84t-89 223q0 131 90 217t255 110l292 39v23q0 129 -60 183.5t-160 54.5q-80 0 -154 -30t-139 -92l-96 99q86 83 183 122t216 39q186 0 280 -95.5t94 -286.5v-666zM719 416v102l-247 -34
q-113 -16 -170 -57t-57 -129q0 -92 53.5 -140.5t130.5 -48.5q133 0 211.5 87t78.5 220zM249 1218q5 114 80 178t192 64t192 -64t80 -178h-100q-6 78 -49 111.5t-123 33.5t-123 -33.5t-49 -111.5h-100z" />
    <glyph glyph-name="Edblgrave" unicode="&#x204;" horiz-adv-x="1036" 
d="M948 0h-760v1434h728v-152h-560v-477h518v-151h-518v-502h592v-152zM771 1566h-97l-239 318h129zM529 1566h-96l-246 318h133z" />
    <glyph glyph-name="edblgrave" unicode="&#x205;" horiz-adv-x="1071" 
d="M989 475h-724q4 -173 91.5 -266.5t245.5 -93.5q69 0 138.5 20.5t137.5 65.5l76 -117q-87 -56 -174 -82t-191 -26q-232 0 -362 138t-131 385t130.5 398t341.5 151q200 0 310.5 -130.5t110.5 -361.5v-81zM821 609q-1 142 -69 221.5t-187 79.5q-117 0 -198.5 -81.5
t-99.5 -219.5h554zM784 1218h-97l-239 318h129zM542 1218h-96l-246 318h133z" />
    <glyph glyph-name="Einvertedbreve" unicode="&#x206;" horiz-adv-x="1036" 
d="M948 0h-760v1434h728v-152h-560v-477h518v-151h-518v-502h592v-152zM279 1566q5 114 80 178t192 64t192 -64t80 -178h-100q-6 78 -49 111.5t-123 33.5t-123 -33.5t-49 -111.5h-100z" />
    <glyph glyph-name="einvertedbreve" unicode="&#x207;" horiz-adv-x="1071" 
d="M989 475h-724q4 -173 91.5 -266.5t245.5 -93.5q69 0 138.5 20.5t137.5 65.5l76 -117q-87 -56 -174 -82t-191 -26q-232 0 -362 138t-131 385t130.5 398t341.5 151q200 0 310.5 -130.5t110.5 -361.5v-81zM821 609q-1 142 -69 221.5t-187 79.5q-117 0 -198.5 -81.5
t-99.5 -219.5h554zM292 1218q5 114 80 178t192 64t192 -64t80 -178h-100q-6 78 -49 111.5t-123 33.5t-123 -33.5t-49 -111.5h-100z" />
    <glyph glyph-name="Idblgrave" unicode="&#x208;" horiz-adv-x="545" 
d="M356 0h-168v1434h168v-1434zM491 1566h-97l-239 318h129zM249 1566h-96l-246 318h133z" />
    <glyph glyph-name="idblgrave" unicode="&#x209;" horiz-adv-x="496" 
d="M166 0v1024h164v-1024h-164zM468 1218h-97l-239 318h129zM226 1218h-96l-246 318h133z" />
    <glyph glyph-name="Iinvertedbreve" unicode="&#x20a;" horiz-adv-x="545" 
d="M356 0h-168v1434h168v-1434zM-1 1566q5 114 80 178t192 64t192 -64t80 -178h-100q-6 78 -49 111.5t-123 33.5t-123 -33.5t-49 -111.5h-100z" />
    <glyph glyph-name="iinvertedbreve" unicode="&#x20b;" horiz-adv-x="496" 
d="M166 0v1024h164v-1024h-164zM-24 1228q5 114 80 178t192 64t192 -64t80 -178h-100q-6 78 -49 111.5t-123 33.5t-123 -33.5t-49 -111.5h-100z" />
    <glyph glyph-name="Odblgrave" unicode="&#x20c;" horiz-adv-x="1544" 
d="M766 -24q-305 0 -488.5 201t-183.5 523q0 346 187 552t509 206q297 0 478.5 -200t181.5 -523q0 -351 -186 -555t-498 -204zM766 127q236 0 372 154t136 431q0 284 -132 439t-364 155q-226 0 -367 -163t-141 -428t137.5 -426.5t358.5 -161.5zM1003 1566h-97l-239 318h129z
M761 1566h-96l-246 318h133z" />
    <glyph glyph-name="odblgrave" unicode="&#x20d;" horiz-adv-x="1200" 
d="M594 -24q-227 0 -362.5 143.5t-135.5 380.5q0 257 140 402t382 146q229 1 357.5 -141t128.5 -391q0 -246 -138.5 -393t-371.5 -147zM606 114q159 0 244.5 103.5t85.5 292.5q0 193 -86 296.5t-244 103.5t-250 -108t-92 -296q0 -182 93 -287t249 -105zM820 1218h-97
l-239 318h129zM578 1218h-96l-246 318h133z" />
    <glyph glyph-name="Oinvertedbreve" unicode="&#x20e;" horiz-adv-x="1544" 
d="M766 -24q-305 0 -488.5 201t-183.5 523q0 346 187 552t509 206q297 0 478.5 -200t181.5 -523q0 -351 -186 -555t-498 -204zM766 127q236 0 372 154t136 431q0 284 -132 439t-364 155q-226 0 -367 -163t-141 -428t137.5 -426.5t358.5 -161.5zM511 1566q5 114 80 178
t192 64t192 -64t80 -178h-100q-6 78 -49 111.5t-123 33.5t-123 -33.5t-49 -111.5h-100z" />
    <glyph glyph-name="oinvertedbreve" unicode="&#x20f;" horiz-adv-x="1200" 
d="M594 -24q-227 0 -362.5 143.5t-135.5 380.5q0 257 140 402t382 146q229 1 357.5 -141t128.5 -391q0 -246 -138.5 -393t-371.5 -147zM606 114q159 0 244.5 103.5t85.5 292.5q0 193 -86 296.5t-244 103.5t-250 -108t-92 -296q0 -182 93 -287t249 -105zM328 1218
q5 114 80 178t192 64t192 -64t80 -178h-100q-6 78 -49 111.5t-123 33.5t-123 -33.5t-49 -111.5h-100z" />
    <glyph glyph-name="Rdblgrave" unicode="&#x210;" horiz-adv-x="1178" 
d="M1204 0h-200l-246 407q-69 114 -118 146.5t-119 32.5h-165v-586h-168v1434h428q187 0 311.5 -99t124.5 -292q0 -152 -79 -255t-217 -149v-4q45 -27 79 -59t72 -94zM356 1282v-544h228q125 0 208.5 81t83.5 210q0 115 -74.5 184t-215.5 69h-230zM823 1566h-97l-239 318
h129zM581 1566h-96l-246 318h133z" />
    <glyph glyph-name="rdblgrave" unicode="&#x211;" horiz-adv-x="712" 
d="M671 884q-19 6 -34 8.5t-38 2.5q-125 0 -197 -106.5t-72 -266.5v-522h-164v1024h164v-203h4q35 108 107 164.5t166 56.5q31 0 52.5 -3t38.5 -9zM634 1218h-97l-239 318h129zM392 1218h-96l-246 318h133z" />
    <glyph glyph-name="Rinvertedbreve" unicode="&#x212;" horiz-adv-x="1225" 
d="M1204 0h-200l-246 407q-69 114 -118 146.5t-119 32.5h-165v-586h-168v1434h428q187 0 311.5 -99t124.5 -292q0 -152 -79 -255t-217 -149v-4q45 -27 79 -59t72 -94zM356 1282v-544h228q125 0 208.5 81t83.5 210q0 115 -74.5 184t-215.5 69h-230zM331 1566q5 114 80 178
t192 64t192 -64t80 -178h-100q-6 78 -49 111.5t-123 33.5t-123 -33.5t-49 -111.5h-100z" />
    <glyph glyph-name="rinvertedbreve" unicode="&#x213;" horiz-adv-x="712" 
d="M671 884q-19 6 -34 8.5t-38 2.5q-125 0 -197 -106.5t-72 -266.5v-522h-164v1024h164v-203h4q35 108 107 164.5t166 56.5q31 0 52.5 -3t38.5 -9zM142 1218q5 114 80 178t192 64t192 -64t80 -178h-100q-6 78 -49 111.5t-123 33.5t-123 -33.5t-49 -111.5h-100z" />
    <glyph glyph-name="Udblgrave" unicode="&#x214;" horiz-adv-x="1407" 
d="M1237 581q0 -303 -136 -454t-409 -151q-261 0 -391.5 145t-130.5 436v877h168v-866q0 -220 93 -330.5t279 -110.5q180 0 269.5 106.5t89.5 319.5v881h168v-853zM924 1566h-97l-239 318h129zM682 1566h-96l-246 318h133z" />
    <glyph glyph-name="udblgrave" unicode="&#x215;" horiz-adv-x="1159" 
d="M994 0h-164v162h-4q-51 -93 -130 -139.5t-186 -46.5q-183 0 -274.5 109t-91.5 327v612h163v-586q0 -162 62 -243t186 -81q120 0 197.5 88.5t77.5 231.5v590h164v-1024zM800 1218h-97l-239 318h129zM558 1218h-96l-246 318h133z" />
    <glyph glyph-name="Uinvertedbreve" unicode="&#x216;" horiz-adv-x="1407" 
d="M1237 581q0 -303 -136 -454t-409 -151q-261 0 -391.5 145t-130.5 436v877h168v-866q0 -220 93 -330.5t279 -110.5q180 0 269.5 106.5t89.5 319.5v881h168v-853zM432 1566q5 114 80 178t192 64t192 -64t80 -178h-100q-6 78 -49 111.5t-123 33.5t-123 -33.5t-49 -111.5
h-100z" />
    <glyph glyph-name="uinvertedbreve" unicode="&#x217;" horiz-adv-x="1159" 
d="M994 0h-164v162h-4q-51 -93 -130 -139.5t-186 -46.5q-183 0 -274.5 109t-91.5 327v612h163v-586q0 -162 62 -243t186 -81q120 0 197.5 88.5t77.5 231.5v590h164v-1024zM308 1218q5 114 80 178t192 64t192 -64t80 -178h-100q-6 78 -49 111.5t-123 33.5t-123 -33.5
t-49 -111.5h-100z" />
    <glyph glyph-name="Scommaaccent" unicode="&#x218;" horiz-adv-x="1088" 
d="M64 110l82 126q88 -57 176 -83t205 -26q131 0 215.5 61.5t84.5 179.5q0 105 -71.5 168t-234.5 122q-202 73 -299.5 164.5t-97.5 241.5q0 176 126.5 285t332.5 109q96 0 188 -20.5t190 -66.5l-63 -135q-82 38 -159.5 55t-167.5 17q-129 0 -204 -60.5t-75 -167.5
q0 -94 69 -150t230 -114q216 -78 310 -174t94 -259q0 -174 -126 -290.5t-354 -116.5q-128 0 -236 32t-215 102zM650 -120l-166 -260h-123l117 260h172z" />
    <glyph glyph-name="scommaaccent" unicode="&#x219;" horiz-adv-x="869" 
d="M70 77l78 126q67 -44 131 -66.5t138 -22.5q105 0 159.5 39t54.5 117q0 63 -48.5 106.5t-151.5 69.5q-192 49 -263 123.5t-71 183.5q0 126 95 210.5t265 84.5q82 0 156 -21t151 -72l-73 -124q-70 44 -125.5 61.5t-112.5 17.5q-99 0 -151 -36.5t-52 -105.5t53.5 -104
t172.5 -66q156 -42 233.5 -117.5t77.5 -197.5q0 -142 -100.5 -224.5t-275.5 -82.5q-94 0 -180.5 26t-160.5 75zM530 -120l-166 -260h-123l117 260h172z" />
    <glyph glyph-name="Tcommaaccent" unicode="&#x21a;" horiz-adv-x="1073" 
d="M1034 1282h-414v-1282h-168v1282h-413v152h995v-152zM642 -120l-166 -260h-123l117 260h172z" />
    <glyph glyph-name="tcommaaccent" unicode="&#x21b;" horiz-adv-x="694" 
d="M654 12q-42 -17 -82.5 -25.5t-91.5 -8.5q-122 0 -191.5 71.5t-69.5 211.5v623h-176v140h176v250l164 53v-303h258v-140h-258v-604q0 -88 31.5 -127t94.5 -39q30 0 58 7t47 16zM555 -120l-166 -260h-123l117 260h172z" />
    <glyph glyph-name="Yogh" unicode="&#x21c;" horiz-adv-x="1032" 
d="M4 -459l31 148q43 -9 81 -13t78 -4q256 0 428 136.5t172 343.5q0 160 -114 261t-297 101q-45 0 -96 -8t-109 -24l-34 146l147 30q215 48 322.5 138t107.5 222q0 131 -97 209.5t-264 78.5q-72 0 -142.5 -15.5t-144.5 -50.5l-64 138q90 42 175.5 61t185.5 19
q246 0 384.5 -118t138.5 -312q0 -140 -74 -239t-223 -156v-9q173 -41 274 -165.5t101 -300.5q0 -264 -220.5 -450.5t-552.5 -186.5q-52 0 -97.5 5t-96.5 15z" />
    <glyph glyph-name="yogh" unicode="&#x21d;" horiz-adv-x="880" 
d="M21 -458l31 135q40 -9 76 -13t70 -4q203 0 333.5 100t130.5 258q0 125 -82 202t-222 77q-44 0 -89.5 -7t-92.5 -22l-28 136l124 22q158 30 246 103t88 171t-73.5 154t-210.5 56q-58 0 -123 -15t-134 -48l-60 124q83 40 162.5 58.5t172.5 18.5q199 0 314.5 -94.5
t115.5 -245.5q0 -99 -58 -176t-174 -132v-7q132 -30 212 -129.5t80 -239.5q0 -217 -174 -360t-451 -143q-50 0 -93 5t-91 16z" />
    <glyph glyph-name="Hcaron" unicode="&#x21e;" horiz-adv-x="1454" 
d="M1266 0h-168v654h-742v-654h-168v1434h168v-629h742v629h168v-1434zM798 1566h-132l-216 330h115l164 -229l164 229h119z" />
    <glyph glyph-name="hcaron" unicode="&#x21f;" horiz-adv-x="1159" 
d="M1016 0h-164v590q0 160 -59.5 240t-178.5 80q-120 0 -202 -92.5t-82 -237.5v-580h-164v1516h164v-662h4q59 97 143 145.5t193 48.5q173 0 259.5 -104t86.5 -313v-631zM671 1578h-132l-216 330h115l164 -229l164 229h119z" />
    <glyph glyph-name="Nlongrightleg" unicode="&#x220;" horiz-adv-x="1503" 
d="M1151 -471v1292q0 243 -88 364t-265 121q-192 0 -317 -141t-125 -354v-811h-168v1434h168v-262h6q79 143 198 214.5t278 71.5q233 0 357 -153.5t124 -438.5v-1337h-168z" />
    <glyph glyph-name="dcurl" unicode="&#x221;" horiz-adv-x="1319" 
d="M1080 -379q-7 -32 -11.5 -57.5t-5.5 -45.5h-145q4 51 15.5 101.5t30.5 100.5q-44 60 -66 135t-22 165v154h-4q-57 -99 -145 -148.5t-207 -49.5q-193 0 -308.5 137.5t-115.5 374.5q0 254 128 407t341 153q106 0 182.5 -41.5t124.5 -124.5h4v634h164v-1496q0 -39 5 -74.5
t14 -68.5q52 62 115.5 92.5t138.5 30.5q111 0 181 -58.5t70 -150.5q0 -95 -81 -158t-209 -63q-56 0 -104.5 13t-89.5 38zM876 463v151q0 124 -82 210t-208 86q-150 0 -236 -110t-86 -304q0 -177 82.5 -279.5t221.5 -102.5q137 0 222.5 99t85.5 250zM1134 -246q30 -23 65 -35
t75 -12q73 0 109.5 21t36.5 63q0 38 -28 57t-84 19q-53 0 -96.5 -28t-77.5 -85z" />
    <glyph glyph-name="OU" unicode="&#x222;" horiz-adv-x="1208" 
d="M602 -24q-242 0 -391 128.5t-149 345.5q0 143 70 246.5t210 167.5q-102 53 -153.5 135t-51.5 193q0 60 14 120.5t41 121.5h172q-29 -56 -44 -114.5t-15 -119.5q0 -116 82 -191t219 -75q138 0 221 75t83 191q0 59 -15.5 117.5t-46.5 116.5h174q28 -62 41.5 -122.5
t13.5 -119.5q0 -103 -52 -185t-157 -143q134 -52 209.5 -159t75.5 -246q0 -215 -156 -349t-395 -134zM606 127q159 0 265 88.5t106 238.5q0 149 -109 236.5t-262 87.5q-158 0 -263 -87.5t-105 -236.5t108 -238t260 -89z" />
    <glyph glyph-name="ou" unicode="&#x223;" horiz-adv-x="1161" 
d="M338 884q-95 48 -150 147t-55 223q0 64 11 129.5t32 132.5h160q-19 -60 -29 -123t-10 -129q0 -142 76 -229t209 -87t207.5 87.5t74.5 228.5q0 66 -9.5 129t-28.5 123h159q22 -67 32.5 -132.5t10.5 -129.5q0 -122 -51 -214.5t-153 -155.5q133 -63 199.5 -167.5
t66.5 -251.5q0 -215 -148.5 -352t-367.5 -137q-223 0 -362.5 133.5t-139.5 351.5q0 147 66.5 253t199.5 170zM582 809q-146 0 -244 -94.5t-98 -251.5q0 -156 100 -252.5t240 -96.5q145 0 243.5 96t98.5 253q0 153 -100 249.5t-240 96.5z" />
    <glyph glyph-name="Zhook" unicode="&#x224;" horiz-adv-x="1168" 
d="M1114 -244h-164q20 35 29.5 67.5t9.5 62.5q0 57 -36 85.5t-109 28.5h-811v47l833 1235h-766v152h1024v-40l-840 -1242h572q146 0 218.5 -63t72.5 -189q0 -35 -8 -71t-25 -73z" />
    <glyph glyph-name="zhook" unicode="&#x225;" horiz-adv-x="926" 
d="M895 -226h-149q17 32 25.5 62t8.5 58q0 53 -33 79.5t-100 26.5h-614v51l606 833h-549v140h790v-47l-606 -837h384q134 0 201 -58t67 -174q0 -32 -7.5 -65.5t-23.5 -68.5z" />
    <glyph glyph-name="Adotaccent" unicode="&#x226;" horiz-adv-x="1321" 
d="M22 0l550 1434h174l552 -1434h-186l-145 384h-621l-137 -384h-187zM402 535h510l-232 629q-6 15 -11 39t-11 57h-4q-5 -30 -10.5 -54t-12.5 -42zM661 1566q-40 0 -69.5 28.5t-29.5 70.5q0 40 29 68t70 28t69.5 -27.5t28.5 -68.5t-28.5 -70t-69.5 -29z" />
    <glyph glyph-name="adotaccent" unicode="&#x227;" horiz-adv-x="1034" 
d="M883 0h-164v160h-4q-53 -92 -130.5 -138t-180.5 -46q-144 0 -233 84t-89 223q0 131 90 217t255 110l292 39v23q0 129 -60 183.5t-160 54.5q-80 0 -154 -30t-139 -92l-96 99q86 83 183 122t216 39q186 0 280 -95.5t94 -286.5v-666zM719 416v102l-247 -34
q-113 -16 -170 -57t-57 -129q0 -92 53.5 -140.5t130.5 -48.5q133 0 211.5 87t78.5 220zM522 1218q-40 0 -69.5 28.5t-29.5 70.5q0 40 29 68t70 28t69.5 -27.5t28.5 -68.5t-28.5 -70t-69.5 -29z" />
    <glyph glyph-name="Ecedilla" unicode="&#x228;" horiz-adv-x="1036" 
d="M948 0h-760v1434h728v-152h-560v-477h518v-151h-518v-502h592v-152zM627 0v-104q88 0 139.5 -40t51.5 -112q0 -88 -68.5 -132t-183.5 -44q-42 0 -56.5 1t-43.5 4l11 85q26 -2 42 -3t29 -1q71 0 106 22.5t35 67.5q0 39 -32 58.5t-97 19.5q-5 0 -15 -1t-26 -3v182h108z" />
    <glyph glyph-name="ecedilla" unicode="&#x229;" horiz-adv-x="1071" 
d="M989 475h-724q4 -173 91.5 -266.5t245.5 -93.5q69 0 138.5 20.5t137.5 65.5l76 -117q-87 -56 -174 -82t-191 -26q-232 0 -362 138t-131 385t130.5 398t341.5 151q200 0 310.5 -130.5t110.5 -361.5v-81zM821 609q-1 142 -69 221.5t-187 79.5q-117 0 -198.5 -81.5
t-99.5 -219.5h554zM625 0v-104q88 0 139.5 -40t51.5 -112q0 -88 -68.5 -132t-183.5 -44q-42 0 -56.5 1t-43.5 4l11 85q26 -2 42 -3t29 -1q71 0 106 22.5t35 67.5q0 39 -32 58.5t-97 19.5q-5 0 -15 -1t-26 -3v182h108z" />
    <glyph glyph-name="Odieresismacron" unicode="&#x22a;" horiz-adv-x="1544" 
d="M766 -24q-305 0 -488.5 201t-183.5 523q0 346 187 552t509 206q297 0 478.5 -200t181.5 -523q0 -351 -186 -555t-498 -204zM766 127q236 0 372 154t136 431q0 284 -132 439t-364 155q-226 0 -367 -163t-141 -428t137.5 -426.5t358.5 -161.5zM1037 1849h-508v109h508v-109
zM1074 1665q0 -41 -28.5 -70t-70.5 -29q-40 0 -69 28t-29 71q0 42 28.5 70t67.5 28q42 0 71.5 -28.5t29.5 -69.5zM689 1665q0 -41 -28.5 -70t-69.5 -29t-71 28.5t-30 70.5t28.5 70t70.5 28q41 0 70.5 -28.5t29.5 -69.5z" />
    <glyph glyph-name="odieresismacron" unicode="&#x22b;" horiz-adv-x="1200" 
d="M594 -24q-227 0 -362.5 143.5t-135.5 380.5q0 257 140 402t382 146q229 1 357.5 -141t128.5 -391q0 -246 -138.5 -393t-371.5 -147zM606 114q159 0 244.5 103.5t85.5 292.5q0 193 -86 296.5t-244 103.5t-250 -108t-92 -296q0 -182 93 -287t249 -105zM854 1501h-508v109
h508v-109zM891 1317q0 -41 -28.5 -70t-70.5 -29q-40 0 -69 28t-29 71q0 42 28.5 70t67.5 28q42 0 71.5 -28.5t29.5 -69.5zM506 1317q0 -41 -28.5 -70t-69.5 -29t-71 28.5t-30 70.5t28.5 70t70.5 28q41 0 70.5 -28.5t29.5 -69.5z" />
    <glyph glyph-name="Otildemacron" unicode="&#x22c;" horiz-adv-x="1544" 
d="M766 -24q-305 0 -488.5 201t-183.5 523q0 346 187 552t509 206q297 0 478.5 -200t181.5 -523q0 -351 -186 -555t-498 -204zM766 127q236 0 372 154t136 431q0 284 -132 439t-364 155q-226 0 -367 -163t-141 -428t137.5 -426.5t358.5 -161.5zM562 1548h-94q0 107 48 171.5
t134 64.5q33 0 70 -13t79 -39q37 -22 69 -33t59 -11q42 0 63 29t21 87h98q0 -105 -48 -171.5t-130 -66.5q-35 0 -75.5 13t-86.5 39q-38 22 -68 32.5t-51 10.5q-44 0 -66 -28t-22 -85zM1037 1859h-508v109h508v-109z" />
    <glyph glyph-name="otildemacron" unicode="&#x22d;" horiz-adv-x="1200" 
d="M594 -24q-227 0 -362.5 143.5t-135.5 380.5q0 257 140 402t382 146q229 1 357.5 -141t128.5 -391q0 -246 -138.5 -393t-371.5 -147zM606 114q159 0 244.5 103.5t85.5 292.5q0 193 -86 296.5t-244 103.5t-250 -108t-92 -296q0 -182 93 -287t249 -105zM926 1456
q0 -105 -48 -171.5t-130 -66.5q-35 0 -75.5 13t-86.5 39q-38 22 -68 32.5t-51 10.5q-44 0 -66 -28t-22 -85h-94q0 107 48 171.5t134 64.5q33 0 70 -13t79 -39q37 -22 69 -33t59 -11q42 0 63 29t21 87h98zM854 1511h-508v109h508v-109z" />
    <glyph glyph-name="Odotaccent" unicode="&#x22e;" horiz-adv-x="1544" 
d="M766 -24q-305 0 -488.5 201t-183.5 523q0 346 187 552t509 206q297 0 478.5 -200t181.5 -523q0 -351 -186 -555t-498 -204zM766 127q236 0 372 154t136 431q0 284 -132 439t-364 155q-226 0 -367 -163t-141 -428t137.5 -426.5t358.5 -161.5zM784 1566q-40 0 -69.5 28.5
t-29.5 70.5q0 40 29 68t70 28t69.5 -27.5t28.5 -68.5t-28.5 -70t-69.5 -29z" />
    <glyph glyph-name="odotaccent" unicode="&#x22f;" horiz-adv-x="1200" 
d="M594 -24q-227 0 -362.5 143.5t-135.5 380.5q0 257 140 402t382 146q229 1 357.5 -141t128.5 -391q0 -246 -138.5 -393t-371.5 -147zM606 114q159 0 244.5 103.5t85.5 292.5q0 193 -86 296.5t-244 103.5t-250 -108t-92 -296q0 -182 93 -287t249 -105zM601 1218
q-40 0 -69.5 28.5t-29.5 70.5q0 40 29 68t70 28t69.5 -27.5t28.5 -68.5t-28.5 -70t-69.5 -29z" />
    <glyph glyph-name="Odotaccentmacron" unicode="&#x230;" horiz-adv-x="1544" 
d="M766 -24q-305 0 -488.5 201t-183.5 523q0 346 187 552t509 206q297 0 478.5 -200t181.5 -523q0 -351 -186 -555t-498 -204zM766 127q236 0 372 154t136 431q0 284 -132 439t-364 155q-226 0 -367 -163t-141 -428t137.5 -426.5t358.5 -161.5zM881 1665q0 -41 -28.5 -70
t-69.5 -29q-40 0 -69 28.5t-29 70.5q0 41 29 68.5t69 27.5q41 0 69.5 -27.5t28.5 -68.5zM1037 1828h-508v109h508v-109z" />
    <glyph glyph-name="odotaccentmacron" unicode="&#x231;" horiz-adv-x="1200" 
d="M594 -24q-227 0 -362.5 143.5t-135.5 380.5q0 257 140 402t382 146q229 1 357.5 -141t128.5 -391q0 -246 -138.5 -393t-371.5 -147zM606 114q159 0 244.5 103.5t85.5 292.5q0 193 -86 296.5t-244 103.5t-250 -108t-92 -296q0 -182 93 -287t249 -105zM698 1317
q0 -41 -28.5 -70t-69.5 -29q-40 0 -69 28.5t-29 70.5q0 41 29 68.5t69 27.5q41 0 69.5 -27.5t28.5 -68.5zM854 1480h-508v109h508v-109z" />
    <glyph glyph-name="Ymacron" unicode="&#x232;" horiz-adv-x="1132" 
d="M1117 1434l-473 -904v-530h-168v526l-461 908h191l321 -648q3 -6 12 -28t23 -60h3q5 17 14.5 39t23.5 49l336 648h178zM821 1567h-508v109h508v-109z" />
    <glyph glyph-name="ymacron" unicode="&#x233;" horiz-adv-x="991" 
d="M981 1024l-483 -1219q-57 -144 -143 -215.5t-202 -71.5q-30 0 -55 3.5t-48 9.5l32 140q18 -6 33.5 -8.5t30.5 -2.5q66 0 109.5 34t69.5 96l89 212l-400 1022h182l277 -788q2 -7 7.5 -27t13.5 -51h6q3 12 7.5 31t12.5 45l291 790h170zM750 1218h-508v109h508v-109z" />
    <glyph glyph-name="lcurl" unicode="&#x234;" horiz-adv-x="608" 
d="M368 -379q-7 -32 -11 -57.5t-5 -45.5h-145q4 51 15.5 101.5t31.5 100.5q-44 60 -66 135t-22 165v1496h164v-1496q0 -39 4.5 -74.5t13.5 -68.5q52 62 115.5 92.5t138.5 30.5q114 0 183 -59t69 -150q0 -94 -82 -157.5t-209 -63.5q-55 0 -104 13t-91 38zM424 -246
q30 -23 64.5 -35t74.5 -12q73 0 109 21t36 63q0 38 -27.5 57t-82.5 19q-53 0 -96.5 -28t-77.5 -85z" />
    <glyph glyph-name="ncurl" unicode="&#x235;" horiz-adv-x="1294" 
d="M1054 -379q-7 -32 -11 -57.5t-5 -45.5h-145q4 51 15.5 101.5t31.5 100.5q-44 60 -66 135t-22 165v564q0 163 -59.5 244.5t-178.5 81.5q-123 0 -203.5 -92.5t-80.5 -233.5v-584h-164v1024h164v-170h4q58 97 142 145.5t194 48.5q168 0 257 -108.5t89 -313.5v-606
q0 -39 4.5 -74.5t13.5 -68.5q52 62 115.5 92.5t138.5 30.5q112 0 182 -58.5t70 -150.5q0 -94 -82 -157.5t-208 -63.5q-56 0 -105 13t-91 38zM1110 -246q30 -23 65 -35t75 -12q72 0 108 21t36 63q0 38 -27.5 57t-82.5 19q-53 0 -96.5 -28t-77.5 -85z" />
    <glyph glyph-name="tcurl" unicode="&#x236;" horiz-adv-x="694" 
d="M422 -379q-7 -32 -11 -57.5t-5 -45.5h-146q4 51 16 101.5t31 100.5q-44 60 -66 135t-22 165v864h-176v140h176v250l164 53v-303h258v-140h-258v-864q0 -39 5 -74.5t14 -68.5q51 62 114.5 92.5t139.5 30.5q111 0 181.5 -58.5t70.5 -150.5q0 -94 -82 -157.5t-210 -63.5
q-55 0 -103.5 13t-90.5 38zM477 -246q30 -23 64.5 -35t74.5 -12q73 0 109.5 21t36.5 63q0 38 -27.5 57t-82.5 19q-54 0 -97.5 -28t-77.5 -85z" />
    <glyph glyph-name="jdotless" unicode="&#x237;" horiz-adv-x="496" 
d="M328 -29q0 -241 -87 -347t-266 -106q-39 0 -71.5 5t-69.5 16l35 139q31 -11 56 -15.5t51 -4.5q105 0 146.5 69.5t41.5 232.5v1064h164v-1053z" />
    <glyph glyph-name="dbdigraph" unicode="&#x238;" horiz-adv-x="1914" 
d="M520 -24q-193 0 -308.5 137.5t-115.5 374.5q0 254 128 407t341 153q106 0 182.5 -41.5t124.5 -124.5h4v634h164v-672h4q61 102 149.5 153t204.5 51q197 0 308.5 -137.5t111.5 -368.5q0 -257 -125 -411.5t-342 -154.5q-101 0 -178 43t-129 129h-4v-148h-164v174h-4
q-57 -99 -145 -148.5t-207 -49.5zM568 114q135 0 219 95.5t89 238.5v166q0 124 -82 210t-208 86q-150 0 -236 -110t-86 -304q0 -177 82.5 -279.5t221.5 -102.5zM1332 114q149 0 233.5 114t84.5 317q0 171 -79 268t-214 97q-138 0 -225.5 -94.5t-91.5 -239.5v-158
q0 -127 82.5 -215.5t209.5 -88.5z" />
    <glyph glyph-name="qpdigraph" unicode="&#x239;" horiz-adv-x="1914" 
d="M876 -471v645h-4q-57 -99 -145 -148.5t-207 -49.5q-193 0 -308.5 137.5t-115.5 374.5q0 254 128 407t341 153q106 0 182.5 -41.5t124.5 -124.5h4v142h164v-180h4q61 102 149.5 153t204.5 51q197 0 308.5 -137.5t111.5 -368.5q0 -257 -125 -411.5t-342 -154.5
q-101 0 -178 43t-129 129h-4v-619h-164zM568 114q135 0 219 95.5t89 238.5v166q0 124 -82 210t-208 86q-150 0 -236 -110t-86 -304q0 -177 82.5 -279.5t221.5 -102.5zM1332 114q149 0 233.5 114t84.5 317q0 171 -79 268t-214 97q-138 0 -225.5 -94.5t-91.5 -239.5v-158
q0 -127 82.5 -215.5t209.5 -88.5z" />
    <glyph glyph-name="Astroke" unicode="&#x23a;" horiz-adv-x="1321" 
d="M22 0l550 1434h174l552 -1434h-186l-145 384h-621l-137 -384h-187zM402 535h510l-232 629q-6 15 -11 39t-11 57h-4q-5 -30 -10.5 -54t-12.5 -42zM1250 1584l-1078 -1734h-164l1078 1734h164z" />
    <glyph glyph-name="Cstroke" unicode="&#x23b;" horiz-adv-x="1268" 
d="M1198 72q-104 -50 -203 -73t-215 -23q-325 0 -505.5 197t-180.5 517q0 351 201.5 559.5t525.5 208.5q101 0 189.5 -19t183.5 -61l-62 -138q-79 35 -153 50.5t-160 15.5q-252 0 -400.5 -162.5t-148.5 -443.5q0 -263 142.5 -418t377.5 -155q87 0 170.5 19t170.5 62z
M1243 1584l-1078 -1734h-164l1078 1734h164z" />
    <glyph glyph-name="cstroke" unicode="&#x23c;" horiz-adv-x="946" 
d="M244 -200h-145l699 1434h140zM886 61q-71 -44 -142 -64.5t-155 -20.5q-216 0 -354.5 134t-138.5 380q0 250 139.5 404t383.5 154q79 0 150.5 -19t144.5 -62l-69 -120q-57 32 -112 47t-120 15q-169 0 -259 -113t-90 -287q0 -192 94.5 -293t244.5 -101q49 0 102.5 15.5
t107.5 48.5z" />
    <glyph glyph-name="Lbar" unicode="&#x23d;" horiz-adv-x="964" 
d="M932 0h-744v1434h168v-1282h576v-152zM526 695h-508v109h508v-109z" />
    <glyph glyph-name="Tdiagonalstroke" unicode="&#x23e;" horiz-adv-x="1073" 
d="M1034 1282h-414v-1282h-168v1282h-413v152h995v-152zM1228 1584l-1078 -1734h-164l1078 1734h164z" />
    <glyph glyph-name="sswashtail" unicode="&#x23f;" horiz-adv-x="869" 
d="M577 -366q-80 0 -135.5 41t-90.5 123q-31 72 -90.5 136.5t-147.5 116.5l-42 25l78 127q36 -23 112.5 -56t156.5 -33q105 0 159.5 39t54.5 117q1 63 -48.5 106t-150.5 69q-193 50 -264 124.5t-71 183.5q0 126 95 210.5t265 84.5q95 0 169 -23.5t142 -74.5l-83 -110
q-49 36 -110 53t-122 17q-99 0 -151 -36.5t-52 -105.5t53.5 -103.5t172.5 -66.5q156 -42 233.5 -117t77.5 -198q0 -139 -99 -223t-276 -84h-7.5h-6.5q19 -18 34.5 -40t26.5 -49q24 -57 53 -85t71 -28q30 0 62 8.5t64 27.5l70 -122q-49 -28 -97.5 -41t-105.5 -13z" />
    <glyph glyph-name="zswashtail" unicode="&#x240;" horiz-adv-x="926" 
d="M724 -366q-81 0 -156.5 47.5t-169.5 155.5q-72 83 -148.5 123t-179.5 40h-37v51l606 833h-549v140h790v-47l-617 -851q67 -22 134 -69.5t128 -124.5q71 -89 116.5 -123.5t89.5 -34.5q32 0 65 8.5t67 27.5l68 -122q-52 -27 -100.5 -40.5t-106.5 -13.5z" />
    <glyph glyph-name="Glottalstop" unicode="&#x241;" horiz-adv-x="1046" 
d="M420 0v494q0 135 46.5 216t182.5 189q130 105 164.5 160t34.5 117q0 95 -96.5 159t-321.5 64q-96 0 -179.5 -14t-175.5 -46l-45 132q103 35 197.5 51t203.5 16q297 0 440 -100t143 -252q0 -91 -48.5 -170.5t-206.5 -202.5q-99 -77 -137.5 -142.5t-38.5 -176.5v-494h-163z
" />
    <glyph glyph-name="glottalstopsmall" unicode="&#x242;" horiz-adv-x="756" 
d="M20 139v149h210v16q0 121 40 201t146 184q106 105 134 160t28 117q0 95 -75.5 159t-201.5 64q-57 0 -118.5 -15.5t-125.5 -49.5l-66 123q80 43 157 62t168 19q194 0 311 -100t117 -252q0 -91 -39.5 -170.5t-168.5 -202.5q-76 -73 -109.5 -137.5t-33.5 -161.5v-16h303
v-149h-676z" />
    <glyph glyph-name="Bstroke" unicode="&#x243;" horiz-adv-x="1174" 
d="M28 335v152h580v-152h-580zM188 0v1434h409q186 0 294.5 -88.5t108.5 -239.5q0 -122 -66 -212t-182 -128v-4q145 -17 232 -109.5t87 -240.5q0 -184 -132 -298t-333 -114h-418zM356 1282v-463h172q138 0 217 66.5t79 187.5q0 105 -69 157t-205 52h-194zM356 668v-516h228
q148 0 229.5 70t81.5 192q0 127 -86.5 190.5t-259.5 63.5h-193z" />
    <glyph glyph-name="Ubar" unicode="&#x244;" horiz-adv-x="1407" 
d="M1376 644h-1346v152h1346v-152zM1237 581q0 -303 -136 -454t-409 -151q-261 0 -391.5 145t-130.5 436v877h168v-866q0 -220 93 -330.5t279 -110.5q180 0 269.5 106.5t89.5 319.5v881h168v-853z" />
    <glyph glyph-name="Vturned" unicode="&#x245;" horiz-adv-x="1287" 
d="M1263 0h-187l-404 1150q-8 24 -15 53.5t-13 64.5h-4q-5 -31 -12.5 -60.5t-17.5 -58.5l-406 -1149h-180l526 1434h190z" />
    <glyph glyph-name="Estroke" unicode="&#x246;" horiz-adv-x="1036" 
d="M948 0h-760v1434h728v-152h-560v-477h518v-151h-518v-502h592v-152zM969 1540l-688 -1672h-114l686 1672h116z" />
    <glyph glyph-name="estroke" unicode="&#x247;" horiz-adv-x="1071" 
d="M989 475h-724q4 -173 91.5 -266.5t245.5 -93.5q69 0 138.5 20.5t137.5 65.5l76 -117q-87 -56 -174 -82t-191 -26q-232 0 -362 138t-131 385t130.5 398t341.5 151q200 0 310.5 -130.5t110.5 -361.5v-81zM821 609q-1 142 -69 221.5t-187 79.5q-117 0 -198.5 -81.5
t-99.5 -219.5h554zM943 1335l-688 -1672h-114l686 1672h116z" />
    <glyph glyph-name="Jstroke" unicode="&#x248;" horiz-adv-x="731" 
d="M171 641v152h530v-152h-530zM555 410q0 -205 -90 -319.5t-280 -114.5q-48 0 -89 6t-86 20l44 145q34 -11 64.5 -15.5t61.5 -4.5q100 0 153.5 64t53.5 217v1026h168v-1024z" />
    <glyph glyph-name="jstroke" unicode="&#x249;" horiz-adv-x="496" 
d="M28 429v135h440v-135h-440zM250 1269q-50 0 -84 33.5t-34 82.5t34 82.5t84 33.5t84 -33.5t34 -82.5t-34 -82.5t-84 -33.5zM328 -29q0 -241 -87 -347t-266 -106q-39 0 -71.5 5t-69.5 16l35 139q31 -11 56 -15.5t51 -4.5q105 0 146.5 69.5t41.5 232.5v1064h164v-1053z" />
    <glyph glyph-name="Qhooktail" unicode="&#x24a;" horiz-adv-x="1537" 
d="M698 127q204 0 321.5 154t117.5 431v14q-3 278 -117 429t-311 151q-195 0 -317 -163t-122 -428t118.5 -426.5t309.5 -161.5zM1475 -362q-159 0 -248.5 113t-89.5 302v160q-80 -116 -195.5 -176.5t-262.5 -60.5q-266 0 -425.5 201t-159.5 523q0 346 162.5 552t443.5 206
q138 0 248.5 -58t188.5 -171v205h168v-1381q0 -132 44.5 -198t133.5 -66q27 0 57 5t63 15l46 -143q-45 -15 -86 -21.5t-88 -6.5z" />
    <glyph glyph-name="qhooktail" unicode="&#x24b;" horiz-adv-x="1206" 
d="M1210 -362q-160 0 -247 113t-87 302v121h-4q-57 -99 -145 -148.5t-207 -49.5q-193 0 -308.5 137t-115.5 375q0 253 128 406.5t341 153.5q106 0 182.5 -41.5t124.5 -124.5h4v142h164v-971q0 -132 44.5 -198t133.5 -66q25 0 50 5t49 17l48 -144q-52 -17 -87 -23t-68 -6z
M568 114q138 0 223 100.5t85 248.5v151q0 126 -83 211t-207 85q-150 0 -236 -110t-86 -304q0 -177 82.5 -279.5t221.5 -102.5z" />
    <glyph glyph-name="Rstroke" unicode="&#x24c;" horiz-adv-x="1225" 
d="M28 587v152h426v-152h-426zM1204 0h-200l-246 407q-69 114 -118 146.5t-119 32.5h-165v-586h-168v1434h428q187 0 311.5 -99t124.5 -292q0 -152 -79 -255t-217 -149v-4q45 -27 79 -59t72 -94zM356 1282v-544h228q125 0 208.5 81t83.5 210q0 115 -74.5 184t-215.5 69h-230
z" />
    <glyph glyph-name="rstroke" unicode="&#x24d;" horiz-adv-x="712" 
d="M28 335v152h579v-152h-579zM671 884q-19 6 -34 8.5t-38 2.5q-125 0 -197 -106.5t-72 -266.5v-522h-164v1024h164v-203h4q35 108 107 164.5t166 56.5q31 0 52.5 -3t38.5 -9z" />
    <glyph glyph-name="Ystroke" unicode="&#x24e;" horiz-adv-x="1132" 
d="M1103 1017h-1075v152h1075v-152zM1117 1434l-473 -904v-530h-168v526l-461 908h191l321 -648q3 -6 12 -28t23 -60h3q5 17 14.5 39t23.5 49l336 648h178z" />
    <glyph glyph-name="ystroke" unicode="&#x24f;" horiz-adv-x="991" 
d="M29 541v134h934v-134h-934zM981 1024l-483 -1219q-57 -144 -143 -215.5t-202 -71.5q-30 0 -55 3.5t-48 9.5l32 140q18 -6 33.5 -8.5t30.5 -2.5q66 0 109.5 34t69.5 96l89 212l-400 1022h182l277 -788q2 -7 7.5 -27t13.5 -51h6q3 12 7.5 31t12.5 45l291 790h170z" />
    <glyph glyph-name="aturned" unicode="&#x250;" horiz-adv-x="1034" 
d="M518 -24q-186 0 -280 95.5t-94 286.5v666h164v-160h4q53 92 130.5 138t180.5 46q144 0 233 -84t89 -223q0 -131 -90 -217t-255 -110l-292 -39v-23q0 -129 60 -183.5t160 -54.5q80 0 154 30t139 92l96 -99q-86 -83 -183 -122t-216 -39zM308 506l247 34q113 16 170 57
t57 129q0 92 -53.5 140.5t-130.5 48.5q-133 0 -211.5 -87t-78.5 -220v-102z" />
    <glyph glyph-name="alphalatin" unicode="&#x251;" horiz-adv-x="1206" 
d="M1040 0h-164v174h-4q-57 -99 -145 -148.5t-207 -49.5q-193 0 -308.5 137.5t-115.5 374.5q0 254 128 407t341 153q106 0 182.5 -41.5t124.5 -124.5h4v142h164v-1024zM876 614q0 124 -82 210t-208 86q-150 0 -236 -110t-86 -304q0 -177 82.5 -279.5t221.5 -102.5
q137 0 222.5 99t85.5 250v151z" />
    <glyph glyph-name="alphaturnedlatin" unicode="&#x252;" horiz-adv-x="1204" 
d="M641 -24q-101 0 -178 43t-129 129h-4v-148h-164v1024h164v-180h4q61 102 149.5 153t204.5 51q197 0 308.5 -137.5t111.5 -368.5q0 -257 -125 -411.5t-342 -154.5zM622 114q149 0 233.5 114t84.5 317q0 171 -79 268t-214 97q-143 0 -230 -99.5t-87 -249.5v-143
q0 -127 82.5 -215.5t209.5 -88.5z" />
    <glyph glyph-name="bhook" unicode="&#x253;" horiz-adv-x="1206" 
d="M336 148h-4v-148h-166v989q0 276 126.5 412.5t346.5 136.5q78 0 152 -16.5t145 -50.5l-61 -131q-59 30 -119 44.5t-121 14.5q-135 0 -219 -82.5t-84 -325.5v-147h4q61 102 149.5 153t204.5 51q197 0 308.5 -137.5t111.5 -368.5q0 -257 -125 -411.5t-342 -154.5
q-101 0 -177.5 43t-129.5 129zM332 561v-143q0 -127 82.5 -215.5t209.5 -88.5q149 0 234.5 114.5t85.5 316.5q0 170 -79.5 267.5t-215.5 97.5q-143 0 -230 -99.5t-87 -249.5z" />
    <glyph glyph-name="oopen" unicode="&#x254;" horiz-adv-x="954" 
d="M335 -24q-79 0 -150.5 19t-144.5 62l69 120q57 -32 112 -47t120 -15q169 0 259 113t90 287q0 192 -94.5 293t-244.5 101q-49 0 -102.5 -15.5t-107.5 -48.5l-73 118q71 44 142 64.5t155 20.5q216 0 354.5 -134t138.5 -380q0 -250 -139.5 -404t-383.5 -154z" />
    <glyph glyph-name="ccurl" unicode="&#x255;" horiz-adv-x="954" 
d="M186 -144q7 67 22.5 128.5t39.5 117.5q-76 72 -114 169.5t-38 218.5q0 253 139.5 405.5t383.5 152.5q79 0 150.5 -19t144.5 -62l-69 -120q-57 32 -112 47t-120 15q-169 0 -259 -113t-90 -287q0 -78 17.5 -145.5t52.5 -117.5q63 96 147.5 138t178.5 42q118 0 193 -60.5
t75 -152.5q0 -102 -94 -169.5t-248 -67.5q-62 0 -118.5 12t-107.5 36q-14 -40 -22.5 -82t-11.5 -86h-140zM598 108q85 0 134.5 27.5t49.5 73.5q0 43 -31.5 64.5t-94.5 21.5q-68 0 -125.5 -34.5t-104.5 -104.5q38 -24 81 -36t91 -12z" />
    <glyph glyph-name="dtail" unicode="&#x256;" horiz-adv-x="1206" 
d="M1348 -444q-47 -19 -90 -28.5t-76 -9.5q-146 0 -226 87.5t-80 246.5v328h-4q-57 -102 -145 -153t-207 -51q-194 0 -309 139t-115 371q0 256 130 409t344 153q102 0 177.5 -42t124.5 -126h4v636h164v-1658q0 -100 40 -150t120 -50q30 0 54 5t50 18zM876 471v135
q0 127 -81 215.5t-209 88.5q-153 0 -237.5 -112t-84.5 -306q0 -172 82 -275t219 -103q138 0 224.5 101.5t86.5 255.5z" />
    <glyph glyph-name="dhook" unicode="&#x257;" horiz-adv-x="1206" 
d="M1040 0h-164v180h-4q-57 -102 -145 -153t-207 -51q-194 0 -309 139t-115 371q0 256 130 409t344 153q102 0 177.5 -42t124.5 -126h4v322q0 153 90 244.5t228 91.5q36 0 78.5 -7t88.5 -26l-48 -133q-27 14 -54.5 20.5t-54.5 6.5q-82 0 -123 -51.5t-41 -155.5v-1192z
M876 471v135q0 127 -81 215.5t-209 88.5q-153 0 -237.5 -112t-84.5 -306q0 -172 82 -275t219 -103q138 0 224.5 101.5t86.5 255.5z" />
    <glyph glyph-name="ereversed" unicode="&#x258;" horiz-adv-x="1071" 
d="M498 -24q-114 0 -210.5 29.5t-190.5 93.5l77 114q76 -52 154 -75.5t160 -23.5q151 0 234.5 94.5t86.5 262.5h-727v86q0 224 117.5 357.5t322.5 133.5t329 -142.5t124 -393.5q0 -247 -130.5 -391.5t-346.5 -144.5zM250 610h553q-20 150 -92.5 225t-198.5 75
q-122 0 -191 -80.5t-71 -219.5z" />
    <glyph glyph-name="schwa" unicode="&#x259;" horiz-adv-x="1071" 
d="M806 549q-4 173 -91.5 266.5t-245.5 93.5q-70 0 -140.5 -21t-140.5 -66l-75 117q88 57 176 83t193 26q232 0 362 -138t131 -385t-130.5 -398t-341.5 -151q-200 0 -310.5 130.5t-110.5 361.5v81h724zM250 415q1 -142 69 -221.5t187 -79.5q117 0 198.5 81.5t99.5 219.5
h-554z" />
    <glyph glyph-name="schwahook" unicode="&#x25a;" horiz-adv-x="1254" 
d="M506 114q143 0 221 106t78 290q0 43 -4.5 80.5t-14.5 69.5l-536 -294q10 -108 79.5 -180t176.5 -72zM500 -24q-190 0 -298.5 119t-121.5 339l645 352q-45 62 -110 93t-150 31q-61 0 -138.5 -23t-154.5 -73l-75 116q95 62 190.5 90t208.5 28q120 0 213.5 -46t160.5 -138
l133 71h70l8 -30q24 -96 54 -121.5t73 -25.5q15 0 39.5 6t49.5 20l59 -111q-40 -21 -78.5 -30.5t-83.5 -9.5q-68 0 -117 35.5t-79 105.5l-62 -34q18 -48 26.5 -104t8.5 -120q0 -244 -133.5 -392t-337.5 -148z" />
    <glyph glyph-name="eopen" unicode="&#x25b;" horiz-adv-x="846" 
d="M472 -25q-199 0 -309.5 79.5t-110.5 222.5q0 91 63.5 159t189.5 91v4q-94 19 -154 81t-60 149q0 136 106.5 212t294.5 76q64 0 141.5 -12.5t145.5 -45.5l-47 -131q-57 29 -123 39.5t-117 10.5q-120 0 -177.5 -38t-57.5 -109q0 -80 75.5 -123.5t211.5 -43.5q37 0 66.5 1
t51.5 3v-146q-36 2 -71 3t-69 1q-152 0 -228 -44.5t-76 -133.5q0 -75 70.5 -120.5t198.5 -45.5q67 0 137.5 10.5t148.5 34.5l38 -125q-86 -35 -166 -47t-173 -12z" />
    <glyph glyph-name="eopenreversed" unicode="&#x25c;" horiz-adv-x="846" 
d="M344 -24q-81 0 -151 16t-143 52l61 124q58 -29 113 -41.5t122 -12.5q111 0 173.5 47.5t62.5 122.5q0 86 -72 129t-217 43h-42h-42v142h40h40q121 0 190.5 44.5t69.5 119.5q0 74 -50 111t-151 37q-50 0 -102.5 -12t-108.5 -39l-60 124q70 34 137 49.5t146 15.5
q162 0 258.5 -75.5t96.5 -198.5q0 -82 -46 -140.5t-139 -93.5v-4q110 -25 165 -88.5t55 -165.5q0 -136 -109.5 -221t-296.5 -85z" />
    <glyph glyph-name="eopenreversedhook" unicode="&#x25d;" horiz-adv-x="1038" 
d="M344 -24q-81 0 -151 16t-143 52l61 124q58 -29 113 -41.5t122 -12.5q111 0 173.5 47.5t62.5 122.5q0 86 -72 129t-217 43h-84v142h82q115 0 186.5 46.5t71.5 119.5t-50 109.5t-151 36.5q-50 0 -102.5 -12t-108.5 -39l-60 124q70 34 137 49.5t146 15.5q143 0 229.5 -55
t116.5 -165l93 97h56l17 -51q20 -58 49 -87t68 -29q13 0 26.5 3t30.5 13l50 -105q-26 -14 -59 -25t-64 -11q-61 0 -107 30.5t-76 90.5l-84 -86q-42 -43 -86 -75t-90 -53v-4q110 -26 165 -89.5t55 -164.5q0 -136 -109.5 -221t-296.5 -85z" />
    <glyph glyph-name="eopenreversedclosed" unicode="&#x25e;" horiz-adv-x="1128" 
d="M610 -24q-238 0 -376 141t-138 381q0 252 147 401t385 149q168 0 273 -77.5t105 -200.5q0 -81 -45 -138.5t-135 -91.5v-4q105 -24 157.5 -86.5t52.5 -163.5q0 -135 -116 -222.5t-310 -87.5zM618 114q116 0 183 48t67 122q0 86 -66.5 129t-199.5 43h-72v142h68
q122 0 183 40t61 120q0 67 -61 109.5t-159 42.5q-164 0 -261 -106.5t-97 -297.5q0 -182 97 -287t257 -105z" />
    <glyph glyph-name="jdotlessstroke" unicode="&#x25f;" horiz-adv-x="568" 
d="M-2 -482q-51 0 -94 9t-90 30l57 128q32 -14 62 -20.5t67 -6.5q102 0 152.5 76.5t50.5 228.5v512h-175v139h175v410h163v-410h174v-139h-174v-508q0 -214 -97.5 -331.5t-270.5 -117.5z" />
    <glyph glyph-name="ghook" unicode="&#x260;" horiz-adv-x="1206" 
d="M526 -482q-105 0 -195.5 20t-186.5 65l60 126q80 -37 156.5 -54t163.5 -17q164 0 258 100.5t94 301.5v112h-4q-58 -98 -146 -147t-206 -49q-191 0 -307.5 136.5t-116.5 366.5q0 261 125.5 415t343.5 154q104 0 180.5 -41.5t126.5 -124.5h4v320q0 153 90 244.5t228 91.5
q52 0 96.5 -9.5t89.5 -27.5l-56 -127q-30 13 -58.5 19t-61.5 6q-82 0 -123 -51.5t-41 -155.5v-1110q0 -282 -137.5 -423t-376.5 -141zM565 114q138 0 224.5 98t86.5 251v151q0 122 -82.5 209t-205.5 87q-152 0 -238 -110.5t-86 -309.5q0 -171 82.5 -273.5t218.5 -102.5z" />
    <glyph glyph-name="gsingle" unicode="&#x261;" horiz-adv-x="1206" 
d="M1040 55q0 -269 -137.5 -403t-376.5 -134q-105 0 -195.5 20t-186.5 65l60 126q80 -37 156.5 -54t163.5 -17q164 0 258 93t94 282v139h-4q-58 -98 -146 -147t-206 -49q-191 0 -307.5 136.5t-116.5 366.5q0 252 128.5 410.5t340.5 158.5q104 0 180.5 -41.5t126.5 -124.5h4
v142h164v-969zM876 463v151q0 122 -82.5 209t-205.5 87q-151 0 -237.5 -104t-86.5 -316q0 -182 80 -279t221 -97q138 0 224.5 98t86.5 251z" />
    <glyph glyph-name="Gsmall" unicode="&#x262;" horiz-adv-x="1084" 
d="M614 -24q-236 0 -377 140t-141 380q0 241 156 396.5t402 155.5q84 0 164 -15.5t166 -50.5l-52 -128q-73 30 -140.5 43t-146.5 13q-169 0 -275 -112t-106 -292q0 -184 98.5 -288t265.5 -104q55 0 101.5 9.5t83.5 28.5v260h-223v139h383v-489q-87 -43 -177 -64.5
t-182 -21.5z" />
    <glyph glyph-name="gammalatin" unicode="&#x263;" horiz-adv-x="981" 
d="M479 -430q-95 0 -155 65.5t-60 164.5q0 45 24.5 118t73.5 174l34 68l-382 864h178l294 -702l302 702h178l-392 -864l34 -68q47 -94 70.5 -167t23.5 -125q0 -99 -62 -164.5t-161 -65.5zM484 -295q32 0 48.5 24.5t16.5 74.5q0 28 -12.5 73t-38.5 106l-14 33l-15 -33
q-26 -56 -37.5 -101.5t-11.5 -77.5q0 -50 16 -74.5t48 -24.5z" />
    <glyph glyph-name="ramshorn" unicode="&#x264;" horiz-adv-x="936" 
d="M463 -24q-111 0 -174 82t-63 216q0 105 36.5 216.5t109.5 228.5q-79 119 -127 155t-105 36q-28 0 -59.5 -7t-64.5 -22l-58 125q48 22 92.5 32t97.5 10q98 0 166.5 -46t154.5 -160q65 98 143 152t188 54q55 0 97.5 -10t87.5 -32l-60 -124q-30 15 -58.5 21.5t-61.5 6.5
q-75 0 -129.5 -43t-112.5 -148q75 -119 112 -229.5t37 -211.5q0 -136 -66.5 -219t-182.5 -83zM469 114q44 0 66 43t22 129q0 73 -22 151.5t-66 162.5q-44 -81 -66 -159.5t-22 -154.5q0 -86 22 -129t66 -43z" />
    <glyph glyph-name="hturned" unicode="&#x265;" horiz-adv-x="1159" 
d="M830 -471v641h-4q-60 -97 -144.5 -145.5t-193.5 -48.5q-172 0 -258 104.5t-86 312.5v631h163v-590q0 -160 59 -240t176 -80q122 0 205 93.5t83 236.5v580h164v-1495h-164z" />
    <glyph glyph-name="hhook" unicode="&#x266;" horiz-adv-x="1159" 
d="M166 0v989q0 276 126 412.5t345 136.5q78 0 148.5 -14.5t145.5 -46.5l-54 -128q-62 27 -119.5 38.5t-124.5 11.5q-135 0 -219 -82.5t-84 -325.5v-137h4q59 97 143 145.5t193 48.5q173 0 259.5 -104t86.5 -313v-631h-164v590q0 160 -59.5 240t-178.5 80q-120 0 -202 -92.5
t-82 -237.5v-580h-164z" />
    <glyph glyph-name="henghook" unicode="&#x267;" horiz-adv-x="1159" 
d="M652 -482q-49 0 -91.5 9t-87.5 29l57 128q31 -14 59.5 -20t62.5 -6q100 0 150 79.5t50 238.5v614q0 160 -59.5 240t-178.5 80q-120 0 -202 -92.5t-82 -237.5v-580h-164v989q0 276 126 412.5t345 136.5q78 0 148.5 -14.5t145.5 -46.5l-54 -128q-62 27 -119 38.5t-125 11.5
q-135 0 -219 -82.5t-84 -325.5v-137h4q59 97 143 145.5t193 48.5q173 0 259.5 -104t86.5 -313v-635q0 -230 -95.5 -354t-268.5 -124z" />
    <glyph glyph-name="istroke" unicode="&#x268;" horiz-adv-x="536" 
d="M272 1284q-44 0 -76 30t-32 76t32 76.5t76 30.5q46 0 76.5 -30.5t30.5 -76.5q0 -44 -30.5 -75t-76.5 -31zM186 0v475h-176v139h176v410h164v-410h176v-139h-176v-475h-164z" />
    <glyph glyph-name="iotalatin" unicode="&#x269;" horiz-adv-x="570" 
d="M420 -22q-141 0 -206.5 74t-65.5 222v750h164v-742q0 -75 36 -120.5t82 -45.5q22 0 49 4t58 18l47 -129q-44 -17 -85 -24t-79 -7z" />
    <glyph glyph-name="Ismall" unicode="&#x26a;" horiz-adv-x="656" 
d="M580 0h-504v140h170v744h-170v140h504v-140h-170v-744h170v-140z" />
    <glyph glyph-name="lmiddletilde" unicode="&#x26b;" horiz-adv-x="574" 
d="M198 0v729q-23 9 -38.5 11t-41.5 2q-19 0 -44 -8.5t-55 -28.5l-68 99q40 33 85.5 54.5t98.5 21.5q15 0 30.5 -2t32.5 -6v644h164v-692q23 -6 43.5 -9.5t38.5 -3.5q27 0 53.5 8.5t51.5 24.5l62 -111q-49 -35 -89 -48t-84 -13q-17 0 -36 2.5t-40 7.5v-682h-164z" />
    <glyph glyph-name="lbelt" unicode="&#x26c;" horiz-adv-x="770" 
d="M330 0v647h-66q-136 0 -210 58t-74 161q0 85 58.5 145t147.5 60q43 0 79 -14.5t65 -44.5v504h164v-730h256v-139h-256v-647h-164zM266 786h64q-4 68 -40.5 114t-86.5 46q-38 0 -57 -18.5t-19 -55.5q0 -43 35 -64.5t104 -21.5z" />
    <glyph glyph-name="lhookretroflex" unicode="&#x26d;" horiz-adv-x="494" 
d="M471 -482q-147 0 -226 87.5t-79 246.5v1664h164v-1658q0 -100 40 -150t120 -50q13 0 41 3.5t59 12.5l36 -136q-40 -10 -76.5 -15t-78.5 -5z" />
    <glyph glyph-name="lezh" unicode="&#x26e;" horiz-adv-x="1235" 
d="M631 -479q-110 0 -203.5 26.5t-186.5 85.5l73 118q76 -48 151.5 -69.5t171.5 -21.5q174 0 285.5 91t111.5 235q0 150 -111.5 232.5t-316.5 82.5h-82v51l384 532h-578v-884h-164v1516h164v-492h813v-51l-393 -543q216 -26 334 -143.5t118 -296.5q0 -204 -162 -336.5
t-409 -132.5z" />
    <glyph glyph-name="mturned" unicode="&#x26f;" horiz-adv-x="1764" 
d="M504 -24q-169 0 -253.5 104.5t-84.5 312.5v631h164v-588q0 -170 52.5 -246t176.5 -76q105 0 178.5 96t73.5 230v584h164v-608q0 -151 58.5 -226.5t174.5 -75.5q108 0 178 90.5t70 235.5v584h164v-1024h-164v162h-4q-54 -93 -133.5 -139.5t-184.5 -46.5t-183 58.5
t-107 153.5q-57 -106 -142 -159t-198 -53z" />
    <glyph glyph-name="mlonglegturned" unicode="&#x270;" horiz-adv-x="1764" 
d="M1456 -471v633h-4q-54 -93 -133.5 -139.5t-184.5 -46.5t-183 58.5t-107 153.5q-57 -106 -142 -159t-198 -53q-169 0 -253.5 104.5t-84.5 312.5v631h164v-588q0 -170 52.5 -246t176.5 -76q105 0 178.5 96t73.5 230v584h164v-608q0 -151 58.5 -226.5t174.5 -75.5
q108 0 178 90.5t70 235.5v584h164v-1495h-164z" />
    <glyph glyph-name="mhook" unicode="&#x271;" horiz-adv-x="1764" 
d="M1256 -482q-55 0 -102.5 12t-96.5 38l66 123q33 -17 64.5 -25t68.5 -8q100 0 150 79.5t50 238.5v612q0 170 -52.5 246t-176.5 76q-105 0 -178.5 -96t-73.5 -230v-584h-164v608q0 151 -58 226.5t-175 75.5q-108 0 -178 -90.5t-70 -235.5v-584h-164v1024h164v-162h4
q55 93 134.5 139.5t183.5 46.5q105 0 183 -58.5t107 -153.5q57 106 142 159t198 53q169 0 253.5 -104t84.5 -313v-635q0 -230 -95.5 -354t-268.5 -124z" />
    <glyph glyph-name="nhookleft" unicode="&#x272;" horiz-adv-x="1138" 
d="M21 -482q-57 0 -98 8t-86 26l53 130q31 -13 59 -18.5t66 -5.5q68 0 109.5 51.5t41.5 153.5v1161h164v-170h4q58 97 142.5 145.5t195.5 48.5q172 0 258 -105.5t86 -316.5v-626h-164v584q0 163 -59 244.5t-177 81.5q-123 0 -204.5 -92.5t-81.5 -233.5v-732
q0 -153 -89.5 -243.5t-219.5 -90.5z" />
    <glyph glyph-name="nhookretroflex" unicode="&#x273;" horiz-adv-x="1138" 
d="M1157 -482q-147 0 -226 87.5t-79 246.5v732q0 163 -59 244.5t-177 81.5q-123 0 -204.5 -92.5t-81.5 -233.5v-584h-164v1024h164v-170h4q58 97 142.5 145.5t195.5 48.5q172 0 258 -105.5t86 -316.5v-768q0 -100 40 -150t120 -50q13 0 41 4t58 14l41 -134
q-41 -13 -78.5 -18.5t-80.5 -5.5z" />
    <glyph glyph-name="Nsmall" unicode="&#x274;" horiz-adv-x="1200" 
d="M166 0v1024h164l498 -704q16 -22 28 -41.5t20 -36.5h4q-3 26 -4.5 54.5t-1.5 59.5v668h160v-1024h-156l-506 721q-18 26 -28 41t-20 34h-4q2 -26 3 -58.5t1 -71.5v-666h-158z" />
    <glyph glyph-name="obarred" unicode="&#x275;" horiz-adv-x="1200" 
d="M594 -24q-228 0 -363 144t-135 380q0 258 141 403t381 145q229 0 357.5 -141t128.5 -391q0 -245 -138.5 -392.5t-371.5 -147.5zM930 604q-20 153 -101 229.5t-223 76.5q-136 0 -224.5 -80t-111.5 -226h660zM934 465h-668q10 -163 101.5 -257t238.5 -94q154 0 236 88
t92 263z" />
    <glyph glyph-name="OEsmall" unicode="&#x276;" horiz-adv-x="1430" 
d="M604 -22q-235 0 -371.5 144.5t-136.5 379.5q0 243 141 393.5t379 150.5q40 0 91 -5.5t112 -16.5h533v-140h-394v-298h367v-140h-367v-306h418v-140h-557q-63 -11 -109 -16.5t-106 -5.5zM614 110q49 0 90.5 7.5t91.5 22.5v749q-48 13 -92.5 19t-85.5 6
q-159 0 -255.5 -112.5t-96.5 -291.5q0 -180 93 -290t255 -110z" />
    <glyph glyph-name="omegaclosedlatin" unicode="&#x277;" horiz-adv-x="1476" 
d="M438 -24q-158 0 -250 117.5t-92 330.5q0 279 178.5 451.5t479.5 172.5q284 0 455 -165t171 -437q0 -225 -100 -347.5t-276 -122.5q-106 0 -167.5 46t-101.5 156h-6q-43 -101 -116 -151.5t-175 -50.5zM467 114q96 0 143.5 78.5t47.5 235.5v90h159v-90q0 -157 46.5 -235.5
t138.5 -78.5q107 0 160.5 81t53.5 243q0 223 -125 347.5t-349 124.5q-222 0 -352 -129t-130 -345q0 -161 52 -241.5t155 -80.5z" />
    <glyph glyph-name="philatin" unicode="&#x278;" horiz-adv-x="1306" 
d="M572 -471v447q-221 17 -348.5 162t-127.5 368q0 231 130 375t346 167v468h163v-468q223 -16 349 -159.5t126 -372.5q0 -227 -129 -373t-346 -167v-447h-163zM735 114q147 18 227 122t80 276q0 171 -80 275.5t-227 122.5v-796zM572 114v796q-145 -18 -226.5 -123
t-81.5 -277q0 -166 81.5 -271.5t226.5 -124.5z" />
    <glyph glyph-name="rturned" unicode="&#x279;" horiz-adv-x="712" 
d="M105 -18q-31 0 -52.5 3t-38.5 9l27 146q19 -6 34 -8.5t38 -2.5q125 0 197 106.5t72 266.5v522h164v-1024h-164v203h-4q-35 -108 -107 -164.5t-166 -56.5z" />
    <glyph glyph-name="rlonglegturned" unicode="&#x27a;" horiz-adv-x="712" 
d="M105 -18q-31 0 -52.5 3t-38.5 9l27 146q19 -6 34 -8.5t38 -2.5q125 0 197 106.5t72 266.5v1014h164v-1516h-164v203h-4q-35 -108 -107 -164.5t-166 -56.5z" />
    <glyph glyph-name="rhookturned" unicode="&#x27b;" horiz-adv-x="712" 
d="M687 -482q-146 0 -225.5 87.5t-79.5 246.5v369h-4q-35 -108 -107 -164.5t-166 -56.5q-31 0 -52.5 3t-38.5 9l27 146q19 -6 34 -8.5t38 -2.5q125 0 197 106.5t72 266.5v522h164v-1184q0 -100 39.5 -150t119.5 -50q15 0 43.5 5t59.5 16l48 -131q-43 -16 -83 -23t-86 -7z
" />
    <glyph glyph-name="rlongleg" unicode="&#x27c;" horiz-adv-x="712" 
d="M166 -471v1495h164v-203h4q35 108 107 164.5t166 56.5q31 0 52.5 -3t38.5 -9l-27 -146q-19 6 -34 8.5t-38 2.5q-125 0 -197 -106.5t-72 -266.5v-993h-164z" />
    <glyph glyph-name="rhook" unicode="&#x27d;" horiz-adv-x="712" 
d="M471 -482q-147 0 -226 87.5t-79 246.5v1172h164v-203h4q35 108 107 164.5t166 56.5q31 0 52.5 -3t38.5 -9l-27 -146q-19 6 -34 8.5t-38 2.5q-125 0 -197 -106.5t-72 -266.5v-664q0 -100 40 -150t120 -50q14 0 43 4.5t61 14.5l43 -133q-43 -14 -82 -20t-84 -6z" />
    <glyph glyph-name="rfishhook" unicode="&#x27e;" horiz-adv-x="686" 
d="M305 0h-161v635q0 189 103 301t273 112q43 0 81.5 -7.5t76.5 -23.5l-44 -128q-29 12 -57 16.5t-57 4.5q-107 0 -161 -68.5t-54 -206.5v-635z" />
    <glyph glyph-name="rfishhookreversed" unicode="&#x27f;" horiz-adv-x="686" 
d="M381 -471v1102q0 140 -53.5 209.5t-161.5 69.5q-33 0 -69 -8t-75 -26l-58 125q53 25 103 36t109 11q176 0 271 -105t95 -302v-1112h-161z" />
    <glyph glyph-name="Rsmall" unicode="&#x280;" horiz-adv-x="930" 
d="M166 0v1024h338q165 0 256.5 -76t91.5 -208q0 -109 -58.5 -175.5t-175.5 -91.5v-4q42 -16 77 -55.5t63 -101.5l141 -312h-184l-117 276q-31 73 -76.5 109.5t-105.5 36.5h-86v-422h-164zM330 561h154q102 0 153 42t51 126q0 78 -49 116.5t-147 38.5h-162v-323z" />
    <glyph glyph-name="Rsmallinverted" unicode="&#x281;" horiz-adv-x="930" 
d="M166 0v1024h164v-422h86q65 0 106.5 32.5t75.5 113.5l121 276h180l-141 -309q-25 -56 -59 -94.5t-77 -59.5v-4q115 -21 172.5 -85.5t57.5 -172.5q0 -136 -99.5 -217.5t-273.5 -81.5h-313zM330 140h149q105 0 157 39.5t52 117.5q0 79 -55 122.5t-149 43.5h-154v-323z" />
    <glyph glyph-name="shook" unicode="&#x282;" horiz-adv-x="815" 
d="M336 -330q-123 0 -193.5 71.5t-70.5 202.5v213l46 18q68 -31 139 -46t129 -15q105 0 159.5 39t54.5 117q0 63 -48.5 106.5t-151.5 69.5q-192 49 -263 123.5t-71 183.5q0 126 95 210.5t265 84.5q61 0 145.5 -21t161.5 -72l-73 -124q-70 44 -125.5 61.5t-112.5 17.5
q-99 0 -151 -36.5t-52 -105.5q0 -62 53.5 -100.5t172.5 -69.5q156 -42 233 -117.5t78 -197.5q0 -142 -100.5 -224.5t-275.5 -82.5q-32 0 -86.5 5.5t-87.5 16.5v-39q0 -85 37.5 -127.5t111.5 -42.5q21 0 55.5 8.5t70.5 27.5l56 -105q-50 -26 -97.5 -38t-103.5 -12z" />
    <glyph glyph-name="esh" unicode="&#x283;" horiz-adv-x="506" 
d="M336 -29q0 -241 -87 -347t-266 -106q-39 0 -71.5 5t-69.5 16l35 139q31 -11 56 -15.5t51 -4.5q105 0 146.5 69.5t41.5 232.5v1269q0 146 89.5 227.5t244.5 81.5q38 0 69 -5.5t64 -16.5l-39 -134q-28 9 -50.5 13t-47.5 4q-84 0 -125 -45t-41 -133v-1250z" />
    <glyph glyph-name="jdotlessstrokehook" unicode="&#x284;" horiz-adv-x="528" 
d="M20 -482q-46 0 -86 7.5t-83 23.5l50 131q31 -12 59 -17t50 -5q86 0 129 56t43 167v594h-176v139h176v570q0 162 92 258t234 96q60 0 102.5 -10t86.5 -31l-61 -125q-29 14 -57 20.5t-61 6.5q-86 0 -129 -55.5t-43 -167.5v-562h176v-139h-176v-604q0 -164 -91.5 -258.5
t-234.5 -94.5z" />
    <glyph glyph-name="eshsquatreversed" unicode="&#x285;" horiz-adv-x="590" 
d="M434 -16q-131 0 -196.5 74t-65.5 222v914q0 99 -38.5 148t-115.5 49q-15 0 -43 -4.5t-59 -15.5l-45 132q42 14 80.5 20.5t83.5 6.5q144 0 222.5 -87t78.5 -243v-891q0 -93 36.5 -140t97.5 -47q34 0 61 7.5t56 20.5l50 -121q-33 -15 -86 -30t-117 -15z" />
    <glyph glyph-name="eshcurl" unicode="&#x286;" horiz-adv-x="580" 
d="M51 -482q-105 0 -172 60.5t-67 153.5q0 109 90 181.5t235 72.5q19 0 37 -1t35 -3v18.5v18.5v1165q0 162 92 258t233 96q54 0 94 -8t83 -26l-55 -128q-29 12 -56 17.5t-58 5.5q-85 0 -127.5 -55.5t-42.5 -167.5v-1206v-16v-16q61 -22 126 -56.5t149 -94.5l-78 -108
q-56 41 -100.5 68t-108.5 53q-16 -129 -97.5 -205.5t-211.5 -76.5zM62 -348q71 0 108 49t39 147q-17 3 -35 4.5t-37 1.5q-87 0 -130.5 -28t-43.5 -84q0 -45 25 -67.5t74 -22.5z" />
    <glyph glyph-name="tturned" unicode="&#x287;" horiz-adv-x="696" 
d="M314 -303v303h-258v140h258v604q0 88 -31.5 127t-94.5 39q-30 0 -58 -7t-47 -16l-40 125q42 17 82.5 25.5t91.5 8.5q122 0 191.5 -71.5t69.5 -211.5v-623h176v-140h-176v-250z" />
    <glyph glyph-name="tretroflexhook" unicode="&#x288;" horiz-adv-x="696" 
d="M654 -448q-42 -17 -82.5 -25.5t-91.5 -8.5q-122 0 -191.5 71.5t-69.5 211.5v1083h-176v140h176v250l164 53v-303h258v-140h-258v-1064q0 -88 31.5 -127t94.5 -39q30 0 58 7t47 16z" />
    <glyph glyph-name="ubar" unicode="&#x289;" horiz-adv-x="1227" 
d="M36 475v139h1155v-139h-1155zM1036 0h-164v162h-4q-51 -93 -130 -139.5t-186 -46.5q-183 0 -274.5 109t-91.5 327v612h163v-586q0 -162 62 -243t186 -81q120 0 197.5 88.5t77.5 231.5v590h164v-1024z" />
    <glyph glyph-name="upsilonlatin" unicode="&#x28a;" horiz-adv-x="1218" 
d="M284 884h-188v140h383v-142q-109 -50 -164 -145.5t-55 -236.5q0 -175 94.5 -280.5t255.5 -105.5q166 0 257 102t91 284q0 141 -54.5 236.5t-163.5 145.5v142h382v-140h-184q92 -68 138 -167.5t46 -230.5q0 -227 -138 -368.5t-380 -141.5q-237 0 -372.5 139t-135.5 364
q0 132 47 233t141 172z" />
    <glyph glyph-name="vhook" unicode="&#x28b;" horiz-adv-x="1143" 
d="M563 -24q-209 0 -314 111.5t-105 334.5v602h163v-588q0 -161 67 -241.5t200 -80.5q147 0 226.5 109.5t79.5 302.5q0 207 -44 296.5t-135 89.5q-26 0 -58.5 -6.5t-69.5 -21.5l-51 126q50 20 96.5 29t100.5 9q163 0 245 -133t82 -383q0 -253 -128 -404.5t-355 -151.5z" />
    <glyph glyph-name="vturned" unicode="&#x28c;" horiz-adv-x="981" 
d="M14 0l408 1024h161l388 -1024h-180l-260 744q-14 41 -23 76.5t-13 66.5h-4q-5 -39 -13 -73.5t-19 -65.5l-272 -748h-173z" />
    <glyph glyph-name="wturned" unicode="&#x28d;" horiz-adv-x="1480" 
d="M24 0l307 1024h170l212 -735q8 -28 10.5 -47.5t4.5 -45.5h4q2 26 7 45t14 48l229 735h164l310 -1024h-172l-212 770q-5 17 -8.5 40t-5.5 52h-8q-2 -22 -6 -45.5t-12 -48.5l-236 -768h-150l-212 772q-5 19 -8.5 41.5t-6.5 50.5h-8q-1 -20 -5.5 -43t-11.5 -49l-208 -772
h-162z" />
    <glyph glyph-name="yturned" unicode="&#x28e;" horiz-adv-x="991" 
d="M14 0l483 1219q57 144 143 215.5t202 71.5q30 0 55 -3.5t48 -9.5l-32 -140q-18 6 -33.5 8.5t-30.5 2.5q-66 0 -109.5 -34t-69.5 -96l-89 -212l400 -1022h-182l-277 788q-2 7 -7.5 27t-13.5 51h-6q-3 -12 -7.5 -31t-12.5 -45l-291 -790h-170z" />
    <glyph glyph-name="Ysmall" unicode="&#x28f;" horiz-adv-x="854" 
d="M344 0v375l-334 649h176l184 -385q21 -43 33 -70.5t25 -62.5h4q12 35 23.5 62.5t32.5 70.5l188 385h168l-336 -649v-375h-164z" />
    <glyph glyph-name="zretroflexhook" unicode="&#x290;" horiz-adv-x="926" 
d="M905 -262q-88 0 -141.5 55.5t-53.5 136.5q0 17 2 34.5t7 35.5h-686v51l606 833h-549v140h790v-47l-606 -837h561l30 -32q-12 -48 -18.5 -85.5t-6.5 -63.5q0 -53 22.5 -79t67.5 -26q6 0 32.5 5.5t55.5 17.5l45 -107q-40 -17 -77 -24.5t-81 -7.5z" />
    <glyph glyph-name="zcurl" unicode="&#x291;" horiz-adv-x="1048" 
d="M358 -127q2 36 6.5 68t10.5 59h-342v51l606 833h-549v140h790v-47l-606 -837h144q61 143 162 222.5t221 79.5q118 0 189 -60t71 -152q0 -106 -86 -168t-242 -62h-215q-7 -35 -11.5 -66.5t-6.5 -60.5h-142zM563 140h172q92 0 137.5 22.5t45.5 67.5q0 42 -30 63t-90 21
q-77 0 -135.5 -43.5t-99.5 -130.5z" />
    <glyph glyph-name="ezh" unicode="&#x292;" horiz-adv-x="905" 
d="M-34 -398l63 123q67 -34 131.5 -49.5t146.5 -15.5q174 0 285.5 91t111.5 235q0 149 -111 232t-317 83h-82v51l384 532h-546v140h781v-51l-393 -543q218 -26 335 -143t117 -297q0 -204 -162 -336.5t-409 -132.5q-93 0 -172.5 19t-162.5 62z" />
    <glyph glyph-name="ezhcurl" unicode="&#x293;" horiz-adv-x="905" 
d="M299 -479q-148 0 -234.5 62t-86.5 165q0 100 78 165t237 65q90 0 184.5 -29.5t194.5 -88.5q16 31 24 64t8 68q0 146 -112.5 227.5t-315.5 81.5h-82v51l384 532h-578v140h813v-51l-393 -543q214 -26 333 -141.5t119 -292.5q0 -58 -16.5 -114t-50.5 -110q31 -23 65 -49
t92 -72l-84 -101q-31 27 -68 56t-87 64q-83 -74 -189 -111.5t-235 -37.5zM307 -342q86 0 156.5 23t126.5 69q-84 46 -158 69t-139 23q-77 0 -121.5 -25t-44.5 -65q0 -47 45 -70.5t135 -23.5z" />
    <glyph glyph-name="glottalstop" unicode="&#x294;" horiz-adv-x="748" 
d="M230 0v494q0 135 38 216t148 189q106 105 134 160t28 117q0 95 -75.5 159t-201.5 64q-58 0 -120.5 -14t-128.5 -44l-58 126q80 37 156.5 54t165.5 17q194 0 311 -100t117 -252q0 -91 -39.5 -170.5t-168.5 -202.5q-80 -77 -111.5 -142.5t-31.5 -176.5v-494h-163z" />
    <glyph glyph-name="glottalstopreversed" unicode="&#x295;" horiz-adv-x="748" 
d="M354 0v494q0 95 -28.5 160t-120.5 157q-122 121 -161.5 200.5t-39.5 174.5q0 149 120 250.5t312 101.5q89 0 164 -18t154 -58l-63 -124q-63 32 -123.5 46.5t-131.5 14.5q-122 0 -194 -60t-72 -149q0 -56 25 -113t139 -174q112 -115 148 -196t36 -213v-494h-164z" />
    <glyph glyph-name="glottalstopinverted" unicode="&#x296;" horiz-adv-x="748" 
d="M283 -22q-81 0 -150.5 16t-142.5 52l60 124q58 -29 113 -41.5t120 -12.5q122 0 194.5 59t72.5 151q0 69 -30 124t-134 162q-111 115 -148 195t-37 215v494h164v-494q0 -94 31 -162t119 -156q122 -119 161.5 -199t39.5 -175q0 -151 -119.5 -251.5t-313.5 -100.5z" />
    <glyph glyph-name="cstretched" unicode="&#x297;" horiz-adv-x="954" 
d="M576 -479q-232 0 -356 189.5t-124 553.5q0 383 131.5 583.5t378.5 200.5q87 0 160.5 -22.5t146.5 -71.5l-78 -114q-54 36 -109 53t-120 17q-170 0 -255 -158.5t-85 -475.5q0 -309 82.5 -463.5t247.5 -154.5q53 0 113.5 21t118.5 66l84 -108q-77 -60 -158 -88t-178 -28z
" />
    <glyph glyph-name="bilabialclick" unicode="&#x298;" horiz-adv-x="1266" 
d="M628 -24q-258 0 -395 198t-137 572q0 380 141.5 586t401.5 206q258 0 394.5 -197t136.5 -575q0 -381 -141 -585.5t-401 -204.5zM633 114q180 0 274.5 166t94.5 478q0 321 -92 481t-277 160q-180 0 -274.5 -166.5t-94.5 -478.5q0 -320 92.5 -480t276.5 -160zM633 645
q-47 0 -79 33t-32 80q0 46 32 79t79 33q46 0 79.5 -33t33.5 -79t-33.5 -79.5t-79.5 -33.5z" />
    <glyph glyph-name="Bsmall" unicode="&#x299;" horiz-adv-x="991" 
d="M166 0v1024h342q164 0 252 -66.5t88 -187.5q0 -86 -43 -142t-129 -83v-5q110 -19 164.5 -79.5t54.5 -161.5q0 -137 -101 -218t-276 -81h-352zM330 598h162q95 0 142.5 37t47.5 111q0 69 -46 103.5t-138 34.5h-168v-286zM330 140h186q106 0 158.5 39.5t52.5 117.5
q0 81 -56.5 121.5t-170.5 40.5h-170v-319z" />
    <glyph glyph-name="eopenclosed" unicode="&#x29a;" horiz-adv-x="1122" 
d="M496 -24q-192 0 -298 79t-106 217q0 103 53 168t158 92v4q-94 31 -141.5 88.5t-47.5 141.5q0 126 108.5 204t289.5 78q238 0 376 -141t138 -385q0 -245 -143.5 -395.5t-386.5 -150.5zM502 114q166 0 261 105t95 297q0 185 -95.5 289.5t-258.5 104.5q-104 0 -164 -42
t-60 -110q0 -72 68 -116t188 -44h84v-142h-86q-137 0 -205.5 -42.5t-68.5 -127.5q0 -79 64.5 -125.5t177.5 -46.5z" />
    <glyph glyph-name="Gsmallhook" unicode="&#x29b;" horiz-adv-x="1084" 
d="M614 -24q-236 0 -377 140t-141 380q0 239 154 395.5t399 156.5q41 0 79.5 -5.5t74.5 -16.5q-2 17 -3.5 26.5t-1.5 10.5q0 76 56 131.5t142 55.5q30 0 64.5 -4.5t75.5 -19.5l-39 -110q-26 9 -42 12.5t-37 3.5q-47 0 -70.5 -29.5t-23.5 -88.5q0 -33 3.5 -72t9.5 -76
l-17 -18q-64 27 -135.5 44.5t-143.5 17.5q-168 0 -272.5 -112.5t-104.5 -291.5q0 -184 98.5 -288t265.5 -104q55 0 101.5 9.5t83.5 28.5v260h-223v139h383v-489q-87 -43 -177 -64.5t-182 -21.5z" />
    <glyph glyph-name="Hsmall" unicode="&#x29c;" horiz-adv-x="1159" 
d="M156 0v1024h164v-430h522v430h164v-1024h-164v455h-522v-455h-164z" />
    <glyph glyph-name="jcrossedtail" unicode="&#x29d;" horiz-adv-x="494" 
d="M250 1284q-44 0 -75 30t-31 76t31 76.5t75 30.5q45 0 76.5 -30.5t31.5 -76.5q0 -44 -31.5 -75t-76.5 -31zM8 -482q-104 0 -172 60t-68 154q0 109 82 181.5t244 72.5q20 0 38 -1t34 -3v21.5v21.5v999h164v-1044v-21v-21q61 -22 120.5 -54t147.5 -95l-79 -106
q-50 37 -94 63.5t-107 53.5q-22 -141 -100 -211.5t-210 -70.5zM18 -348q72 0 109 49t39 147q-18 3 -36 4.5t-36 1.5q-87 0 -130.5 -28t-43.5 -79q0 -42 24.5 -68.5t73.5 -26.5z" />
    </font>
</defs>
</svg>
