<?xml version="1.0" standalone="no"?>
<!DOCTYPE svg PUBLIC "-//W3C//DTD SVG 1.1//EN" "http://www.w3.org/Graphics/SVG/1.1/DTD/svg11.dtd" >
<svg xmlns="http://www.w3.org/2000/svg" xmlns:xlink="http://www.w3.org/1999/xlink" version="1.1">
<metadata>
Created by FontForge 20201107 at Wed Jun 12 19:32:35 2024
 By 
(c) 2001-2018 Typodermic Fonts Inc.
</metadata>
<defs>
<font id="SteelfishEb-Regular" horiz-adv-x="585" >
  <font-face 
    font-family="Steelfish Eb"
    font-weight="800"
    font-stretch="normal"
    units-per-em="2048"
    panose-1="2 11 9 8 2 2 2 4 5 4"
    ascent="1743"
    descent="-305"
    x-height="1268"
    cap-height="1686"
    bbox="-651 -305 1214 2316"
    underline-thickness="102"
    underline-position="-255"
    unicode-range="U+0017-FB02"
  />
<missing-glyph horiz-adv-x="1073" 
d="M815 -295h-561q-184 0 -184 162v1780q0 163 184 163h561q189 0 189 -163v-1780q0 -162 -189 -162zM483 225l43 254q11 57 15 77t14.5 53t24.5 50.5t37 41.5t59 53q72 60 114.5 143t65.5 211l37 213q8 41 8 94q0 134 -85 210.5t-247 76.5q-116 0 -178 -67t-86 -210
l-55 -325l235 -43l58 332q9 59 55 59q61 0 61 -59l-43 -240q-25 -135 -47 -176.5t-108 -110.5q-68 -60 -101.5 -133.5t-58.5 -210.5l-47 -252zM410 -195l51 281l-228 39l-49 -283z" />
    <glyph glyph-name=".notdef" horiz-adv-x="1073" 
d="M815 -295h-561q-184 0 -184 162v1780q0 163 184 163h561q189 0 189 -163v-1780q0 -162 -189 -162zM483 225l43 254q11 57 15 77t14.5 53t24.5 50.5t37 41.5t59 53q72 60 114.5 143t65.5 211l37 213q8 41 8 94q0 134 -85 210.5t-247 76.5q-116 0 -178 -67t-86 -210
l-55 -325l235 -43l58 332q9 59 55 59q61 0 61 -59l-43 -240q-25 -135 -47 -176.5t-108 -110.5q-68 -60 -101.5 -133.5t-58.5 -210.5l-47 -252zM410 -195l51 281l-228 39l-49 -283z" />
    <glyph glyph-name=".null" horiz-adv-x="0" 
 />
    <glyph glyph-name="nonmarkingreturn" horiz-adv-x="682" 
 />
    <glyph glyph-name="uni0017" horiz-adv-x="278" 
 />
    <glyph glyph-name="space" unicode=" " horiz-adv-x="278" 
 />
    <glyph glyph-name="exclam" unicode="!" horiz-adv-x="378" 
d="M303 0h-227v223h227v-223zM258 326h-139l-43 518v842h227v-838z" />
    <glyph glyph-name="quotedbl" unicode="&#x22;" horiz-adv-x="628" 
d="M213 1219h-113l-43 270v197h199v-197zM528 1219h-112l-43 270v197h198v-197z" />
    <glyph glyph-name="numbersign" unicode="#" horiz-adv-x="831" 
d="M512 0h-141l88 580h-168l-86 -580h-139l86 580h-115v190h141l29 193h-133v190h162l77 533h146l-82 -533h166l78 533h143l-80 -533h111v-190h-140l-28 -193h129v-190h-158zM485 770l29 193h-166l-29 -193h166z" />
    <glyph glyph-name="dollar" unicode="$" horiz-adv-x="587" 
d="M324 -106h-64v126q-203 20 -203 279v319h168v-337q0 -23 13 -39t32 -21v504l-71 80q-90 93 -116 159.5t-26 182.5v242q0 254 203 276v115h64v-115q202 -18 202 -276v-271h-164v289q0 50 -49 59v-493l78 -78q86 -91 112.5 -160t26.5 -213v-223q0 -260 -206 -281v-124z
M270 1014v452q-45 -9 -45 -59v-266q0 -41 8.5 -67t36.5 -60zM356 281v258q0 44 -8.5 74t-34.5 67v-459q43 9 43 60z" />
    <glyph glyph-name="percent" unicode="%" horiz-adv-x="991" 
d="M63 997v576q0 143 142 143q139 0 139 -143v-576q0 -143 -139 -143q-142 0 -142 143zM233 995v580q0 31 -28 31q-31 0 -31 -31v-580q0 -30 31 -30q28 0 28 30zM184 0h-127l752 1686h125zM645 113v575q0 143 141 143q140 0 140 -143v-575q0 -144 -140 -144q-141 0 -141 144
zM815 111v579q0 31 -29 31q-30 0 -30 -31v-579q0 -31 30 -31q29 0 29 31z" />
    <glyph glyph-name="ampersand" unicode="&#x26;" horiz-adv-x="786" 
d="M758 221v-207q-49 -22 -105 -22q-67 0 -110 53q-55 -63 -203 -63q-166 0 -228.5 82.5t-62.5 267.5v186q0 94 33.5 179t124.5 212q-66 176 -83.5 252t-17.5 172v97q0 150 56.5 212t187.5 62q62 0 107.5 -21t71 -59.5t37.5 -85t12 -104.5v-129q0 -97 -31.5 -178
t-130.5 -242l157 -443q9 58 9 133v50h170v-60q0 -198 -84 -356q9 -6 26 -6q38 0 64 18zM459 221l-166 461q-27 -70 -27 -150v-194q0 -148 94 -148q30 0 58.5 9t40.5 22zM399 1348v71q0 68 -49 68q-53 0 -53 -68v-71q1 -52 3 -81t12 -77.5t28 -99.5q59 109 59 258z" />
    <glyph glyph-name="quotesingle" unicode="'" horiz-adv-x="313" 
d="M213 1219h-113l-43 270v197h199v-197z" />
    <glyph glyph-name="parenleft" unicode="(" horiz-adv-x="524" 
d="M485 -164h-18q-163 0 -242.5 85t-79.5 269v1305q0 184 79.5 269t242.5 85h18v-159h-18q-162 0 -162 -195v-1305q0 -194 162 -194h18v-160z" />
    <glyph glyph-name="parenright" unicode=")" horiz-adv-x="524" 
d="M164 -164h-19v160h19q162 0 162 194v1305q0 195 -162 195h-19v159h19q163 0 242 -85t79 -269v-1305q0 -184 -79 -269t-242 -85z" />
    <glyph glyph-name="asterisk" unicode="*" horiz-adv-x="649" 
d="M549 1196l-105 -80l-120 191l-117 -191l-107 78l142 172l-217 53l41 125l206 -82l-16 224h135l-16 -224l207 86l41 -127l-217 -55z" />
    <glyph glyph-name="plus" unicode="+" horiz-adv-x="962" 
d="M565 444h-166v332h-329v166h329v328h166v-328h330v-166h-330v-332z" />
    <glyph glyph-name="comma" unicode="," horiz-adv-x="321" 
d="M109 -127h-27v88h27q24 0 33.5 11t9.5 38v35h-95v211h207v-231q0 -67 -37 -109.5t-118 -42.5z" />
    <glyph glyph-name="hyphen" unicode="-" horiz-adv-x="370" 
d="M354 764h-334v170h334v-170z" />
    <glyph glyph-name="hyphen" unicode="&#xad;" horiz-adv-x="370" 
d="M354 764h-334v170h334v-170z" />
    <glyph glyph-name="period" unicode="." horiz-adv-x="321" 
d="M264 0h-207v256h207v-256z" />
    <glyph glyph-name="slash" unicode="/" horiz-adv-x="497" 
d="M168 0h-162l322 1686h161z" />
    <glyph glyph-name="zero" unicode="0" horiz-adv-x="677" 
d="M57 268v1149q0 143 68.5 215t214.5 72q145 0 213 -71.5t68 -215.5v-1149q0 -143 -68 -214.5t-213 -71.5q-146 0 -214.5 71.5t-68.5 214.5zM399 264v1157q0 64 -59 64t-59 -64v-1157q0 -63 59 -63t59 63z" />
    <glyph glyph-name="one" unicode="1" horiz-adv-x="417" 
d="M344 0h-221v1343h-94v218h43q73 0 73 84v41h199v-1686z" />
    <glyph glyph-name="two" unicode="2" horiz-adv-x="638" 
d="M594 0h-545v307q0 156 30.5 250t133.5 250q88 135 123 225.5t35 204.5v180q0 64 -52 64q-49 0 -49 -64v-299h-221v295q0 153 66 222t204 69q139 0 207 -70t68 -221v-205q0 -222 -166 -475q-100 -151 -128 -233t-28 -193v-84h322v-223z" />
    <glyph glyph-name="three" unicode="3" horiz-adv-x="641" 
d="M375 268v422q0 64 -53 64h-86v211h96q41 0 41 63v389q0 64 -51 64q-50 0 -50 -64v-301h-219v297q0 153 64 222t205 69t203.5 -69t62.5 -224v-383q0 -62 -22.5 -101.5t-76.5 -68.5q103 -38 103 -176v-414q0 -134 -67 -210t-203 -76q-134 0 -204.5 76t-70.5 208v332h225
v-330q0 -63 50 -63q53 0 53 63z" />
    <glyph glyph-name="three" unicode="&#x417;" horiz-adv-x="641" 
d="M375 268v422q0 64 -53 64h-86v211h96q41 0 41 63v389q0 64 -51 64q-50 0 -50 -64v-301h-219v297q0 153 64 222t205 69t203.5 -69t62.5 -224v-383q0 -62 -22.5 -101.5t-76.5 -68.5q103 -38 103 -176v-414q0 -134 -67 -210t-203 -76q-134 0 -204.5 76t-70.5 208v332h225
v-330q0 -63 50 -63q53 0 53 63z" />
    <glyph glyph-name="four" unicode="4" horiz-adv-x="661" 
d="M211 537h145q0 326 15 581q-43 -188 -160 -581zM563 0h-207v326h-342v192l342 1168h207v-1149h82v-211h-82v-326z" />
    <glyph glyph-name="five" unicode="5" horiz-adv-x="651" 
d="M383 268v547q0 26 -15.5 41.5t-43.5 15.5q-32 0 -51.5 -21.5t-24.5 -57.5l-191 8l23 885h508v-224h-307l-17 -444q48 51 148 51q186 0 186 -260v-545q0 -143 -65 -212.5t-201 -69.5q-273 0 -273 282v354h220v-350q0 -63 51 -63q53 0 53 63z" />
    <glyph glyph-name="six" unicode="6" horiz-adv-x="659" 
d="M383 268v514q0 64 -51 64q-39 0 -51 -37v-541q0 -63 51 -63t51 63zM606 799v-531q0 -137 -69.5 -211.5t-204.5 -74.5t-205 74t-70 210v1151q0 137 70 212t205 75q134 0 199 -74.5t65 -212.5v-291h-213v291q0 64 -51 64t-51 -64v-407q18 15 30.5 23.5t40 17t60.5 8.5
q104 0 149 -59.5t45 -200.5z" />
    <glyph glyph-name="seven" unicode="7" horiz-adv-x="595" 
d="M334 0h-223q0 268 24.5 514t58 408t72 288.5t64 184t35.5 67.5h-342v224h550v-207q-127 -288 -182 -654t-57 -825z" />
    <glyph glyph-name="eight" unicode="8" horiz-adv-x="649" 
d="M596 678v-412q0 -284 -272 -284q-273 0 -273 284v412q0 145 103 196q-84 53 -84 179v364q0 287 254 287t254 -287v-364q0 -126 -84 -179q102 -50 102 -196zM375 268v426q0 27 -13 44.5t-38 17.5t-38.5 -18t-13.5 -44v-426q0 -63 52 -63q51 0 51 63zM375 1024v393
q0 64 -51 64q-52 0 -52 -64v-393q0 -61 52 -61q51 0 51 61z" />
    <glyph glyph-name="nine" unicode="9" horiz-adv-x="657" 
d="M375 915v502q0 64 -49 64q-52 0 -52 -64v-475q0 -65 52 -65q36 0 49 38zM375 268v434q-53 -49 -129 -49q-104 0 -148.5 59.5t-44.5 200.5v504q0 137 69 212t204 75t204.5 -74t69.5 -211v-1151q0 -137 -69.5 -211.5t-204.5 -74.5q-129 0 -200 75.5t-71 210.5v291h219v-291
q0 -63 52 -63q49 0 49 63z" />
    <glyph glyph-name="colon" unicode=":" horiz-adv-x="321" 
d="M264 750h-207v254h207v-254zM264 0h-207v256h207v-256z" />
    <glyph glyph-name="semicolon" unicode=";" horiz-adv-x="321" 
d="M264 750h-207v254h207v-254zM109 -127h-27v88h27q24 0 33.5 11t9.5 38v35h-95v211h207v-231q0 -67 -37 -109.5t-118 -42.5z" />
    <glyph glyph-name="less" unicode="&#x3c;" horiz-adv-x="962" 
d="M895 522l-825 234v202l825 234v-166l-655 -164l655 -174v-166z" />
    <glyph glyph-name="equal" unicode="=" horiz-adv-x="962" 
d="M895 967h-825v168h825v-168zM895 584h-825v168h825v-168z" />
    <glyph glyph-name="greater" unicode="&#x3e;" horiz-adv-x="962" 
d="M895 756l-825 -234v166l655 174l-655 164v166l825 -234v-202z" />
    <glyph glyph-name="question" unicode="?" horiz-adv-x="616" 
d="M381 383h-207v227q0 126 19.5 198t72.5 132q44 53 61 83.5t24 71.5t7 124v198q0 64 -51 64t-51 -64v-299h-213v295q0 150 64 220.5t200 70.5q138 0 204.5 -70.5t66.5 -222.5v-194q0 -115 -25 -194t-80 -146q-66 -75 -79 -115t-13 -148v-231zM381 0h-207v256h207v-256z
" />
    <glyph glyph-name="at" unicode="@" horiz-adv-x="1075" 
d="M872 129h144q4 -28 4 -37q0 -51 -11 -92t-42.5 -81.5t-83.5 -68t-139.5 -44.5t-204.5 -17q-116 0 -202 26t-151.5 84t-99 158.5t-33.5 241.5v715q0 251 114.5 361t367.5 110q242 0 352 -102.5t110 -329.5v-617q0 -111 -60.5 -171t-148.5 -60q-58 0 -102 20.5t-65 53.5
q-29 -64 -119 -64q-162 0 -162 186v451q0 117 41 163t121 46q36 0 65 -19t41 -51q0 28 4 60h107v-678q22 -25 61 -25q70 0 70 80v629q0 121 -77 188.5t-238 67.5q-163 0 -236.5 -74t-73.5 -219v-725q0 -179 83 -252.5t257 -73.5q309 0 309 135q0 23 -2 25zM588 385v485
q-14 33 -45 33q-56 0 -56 -59v-434q0 -56 56 -56q29 0 45 31z" />
    <glyph glyph-name="A" unicode="A" horiz-adv-x="694" 
d="M674 0h-223l-25 240h-164l-29 -240h-215l205 1686h258zM283 442h118q-31 300 -57 672q-25 -357 -61 -672z" />
    <glyph glyph-name="A" unicode="&#x410;" horiz-adv-x="694" 
d="M674 0h-223l-25 240h-164l-29 -240h-215l205 1686h258zM283 442h118q-31 300 -57 672q-25 -357 -61 -672z" />
    <glyph glyph-name="A" unicode="&#x391;" horiz-adv-x="694" 
d="M674 0h-223l-25 240h-164l-29 -240h-215l205 1686h258zM283 442h118q-31 300 -57 672q-25 -357 -61 -672z" />
    <glyph glyph-name="B" unicode="B" horiz-adv-x="671" 
d="M399 1020v379q0 63 -51 63h-55v-506h57q49 0 49 64zM399 287v411q0 64 -49 64h-57v-539h55q51 0 51 64zM348 0h-278v1686h278q139 0 198.5 -70.5t59.5 -226.5v-349q0 -60 -21 -105.5t-57 -62.5q42 -13 70.5 -56t28.5 -111v-420q0 -148 -68.5 -216.5t-210.5 -68.5z" />
    <glyph glyph-name="B" unicode="&#x412;" horiz-adv-x="671" 
d="M399 1020v379q0 63 -51 63h-55v-506h57q49 0 49 64zM399 287v411q0 64 -49 64h-57v-539h55q51 0 51 64zM348 0h-278v1686h278q139 0 198.5 -70.5t59.5 -226.5v-349q0 -60 -21 -105.5t-57 -62.5q42 -13 70.5 -56t28.5 -111v-420q0 -148 -68.5 -216.5t-210.5 -68.5z" />
    <glyph glyph-name="B" unicode="&#x392;" horiz-adv-x="671" 
d="M399 1020v379q0 63 -51 63h-55v-506h57q49 0 49 64zM399 287v411q0 64 -49 64h-57v-539h55q51 0 51 64zM348 0h-278v1686h278q139 0 198.5 -70.5t59.5 -226.5v-349q0 -60 -21 -105.5t-57 -62.5q42 -13 70.5 -56t28.5 -111v-420q0 -148 -68.5 -216.5t-210.5 -68.5z" />
    <glyph glyph-name="C" unicode="C" horiz-adv-x="636" 
d="M387 268v350h203v-348q0 -149 -60 -218.5t-194 -69.5q-279 0 -279 284v1147q0 291 279 291q254 0 254 -287v-299h-203v299q0 64 -51 64t-51 -64v-1149q0 -63 51 -63t51 63z" />
    <glyph glyph-name="C" unicode="&#x421;" horiz-adv-x="636" 
d="M387 268v350h203v-348q0 -149 -60 -218.5t-194 -69.5q-279 0 -279 284v1147q0 291 279 291q254 0 254 -287v-299h-203v299q0 64 -51 64t-51 -64v-1149q0 -63 51 -63t51 63z" />
    <glyph glyph-name="D" unicode="D" horiz-adv-x="673" 
d="M395 287v1112q0 63 -53 63h-49v-1239h49q53 0 53 64zM342 0h-272v1686h272q134 0 204 -76t70 -213v-1110q0 -287 -274 -287z" />
    <glyph glyph-name="E" unicode="E" horiz-adv-x="577" 
d="M543 0h-473v1686h462v-224h-239v-491h151v-223h-151v-525h250v-223z" />
    <glyph glyph-name="E" unicode="&#x415;" horiz-adv-x="577" 
d="M543 0h-473v1686h462v-224h-239v-491h151v-223h-151v-525h250v-223z" />
    <glyph glyph-name="E" unicode="&#x395;" horiz-adv-x="577" 
d="M543 0h-473v1686h462v-224h-239v-491h151v-223h-151v-525h250v-223z" />
    <glyph glyph-name="F" unicode="F" horiz-adv-x="557" 
d="M293 0h-223v1686h473v-224h-250v-499h153v-224h-153v-739z" />
    <glyph glyph-name="G" unicode="G" horiz-adv-x="665" 
d="M610 -10h-22l-72 67q-57 -75 -199 -75q-260 0 -260 286v1147q0 289 277 289q138 0 201 -72.5t63 -216.5v-297h-201v299q0 64 -63 64q-53 0 -53 -64v-1149q0 -63 51 -63q63 0 63 63v330h-71v213h286v-821z" />
    <glyph glyph-name="H" unicode="H" horiz-adv-x="686" 
d="M616 0h-221v748h-102v-748h-223v1686h223v-715h102v715h221v-1686z" />
    <glyph glyph-name="H" unicode="&#x41d;" horiz-adv-x="686" 
d="M616 0h-221v748h-102v-748h-223v1686h223v-715h102v715h221v-1686z" />
    <glyph glyph-name="H" unicode="&#x397;" horiz-adv-x="686" 
d="M616 0h-221v748h-102v-748h-223v1686h223v-715h102v715h221v-1686z" />
    <glyph glyph-name="I" unicode="I" horiz-adv-x="370" 
d="M297 0h-223v1686h223v-1686z" />
    <glyph glyph-name="I" unicode="&#x4cf;" horiz-adv-x="370" 
d="M297 0h-223v1686h223v-1686z" />
    <glyph glyph-name="I" unicode="&#x4c0;" horiz-adv-x="370" 
d="M297 0h-223v1686h223v-1686z" />
    <glyph glyph-name="I" unicode="&#x406;" horiz-adv-x="370" 
d="M297 0h-223v1686h223v-1686z" />
    <glyph glyph-name="I" unicode="&#x399;" horiz-adv-x="370" 
d="M297 0h-223v1686h223v-1686z" />
    <glyph glyph-name="J" unicode="J" horiz-adv-x="444" 
d="M14 -2v221q35 -6 88 -6q56 0 56 74v1399h223v-1399q0 -299 -279 -299q-43 0 -88 10z" />
    <glyph glyph-name="J" unicode="&#x408;" horiz-adv-x="444" 
d="M14 -2v221q35 -6 88 -6q56 0 56 74v1399h223v-1399q0 -299 -279 -299q-43 0 -88 10z" />
    <glyph glyph-name="K" unicode="K" horiz-adv-x="722" 
d="M721 0h-254q-131 544 -180 803q6 -123 6 -438v-365h-223v1686h223v-336q0 -277 -6 -371q17 98 176 707h237l-223 -752z" />
    <glyph glyph-name="K" unicode="&#x41a;" horiz-adv-x="722" 
d="M721 0h-254q-131 544 -180 803q6 -123 6 -438v-365h-223v1686h223v-336q0 -277 -6 -371q17 98 176 707h237l-223 -752z" />
    <glyph glyph-name="K" unicode="&#x39a;" horiz-adv-x="722" 
d="M721 0h-254q-131 544 -180 803q6 -123 6 -438v-365h-223v1686h223v-336q0 -277 -6 -371q17 98 176 707h237l-223 -752z" />
    <glyph glyph-name="L" unicode="L" horiz-adv-x="561" 
d="M543 0h-473v1686h223v-1463h250v-223z" />
    <glyph glyph-name="M" unicode="M" horiz-adv-x="937" 
d="M872 0h-202v475q0 375 8 561q-7 -83 -19 -190.5t-41 -354.5t-57 -491h-188l-117 1067q12 -295 12 -594v-473h-202v1686h294q103 -1143 105 -1174q14 233 108 1174h299v-1686z" />
    <glyph glyph-name="M" unicode="&#x41c;" horiz-adv-x="937" 
d="M872 0h-202v475q0 375 8 561q-7 -83 -19 -190.5t-41 -354.5t-57 -491h-188l-117 1067q12 -295 12 -594v-473h-202v1686h294q103 -1143 105 -1174q14 233 108 1174h299v-1686z" />
    <glyph glyph-name="M" unicode="&#x39c;" horiz-adv-x="937" 
d="M872 0h-202v475q0 375 8 561q-7 -83 -19 -190.5t-41 -354.5t-57 -491h-188l-117 1067q12 -295 12 -594v-473h-202v1686h294q103 -1143 105 -1174q14 233 108 1174h299v-1686z" />
    <glyph glyph-name="N" unicode="N" horiz-adv-x="731" 
d="M666 0h-213q-156 740 -207 1032q6 -199 6 -598v-434h-186v1686h256q51 -315 84.5 -532t53 -349t25.5 -174q-6 180 -6 528v527h187v-1686z" />
    <glyph glyph-name="N" unicode="&#x39d;" horiz-adv-x="731" 
d="M666 0h-213q-156 740 -207 1032q6 -199 6 -598v-434h-186v1686h256q51 -315 84.5 -532t53 -349t25.5 -174q-6 180 -6 528v527h187v-1686z" />
    <glyph glyph-name="O" unicode="O" horiz-adv-x="663" 
d="M57 268v1149q0 287 275 287q274 0 274 -287v-1149q0 -286 -274 -286q-275 0 -275 286zM383 268v1149q0 64 -51 64t-51 -64v-1149q0 -63 51 -63t51 63z" />
    <glyph glyph-name="O" unicode="&#x41e;" horiz-adv-x="663" 
d="M57 268v1149q0 287 275 287q274 0 274 -287v-1149q0 -286 -274 -286q-275 0 -275 286zM383 268v1149q0 64 -51 64t-51 -64v-1149q0 -63 51 -63t51 63z" />
    <glyph glyph-name="O" unicode="&#x39f;" horiz-adv-x="663" 
d="M57 268v1149q0 287 275 287q274 0 274 -287v-1149q0 -286 -274 -286q-275 0 -275 286zM383 268v1149q0 64 -51 64t-51 -64v-1149q0 -63 51 -63t51 63z" />
    <glyph glyph-name="P" unicode="P" horiz-adv-x="665" 
d="M420 1096v286q0 80 -78 80h-49v-444h51q76 0 76 78zM293 0h-223v1686h272q154 0 225.5 -73.5t71.5 -232.5v-276q0 -159 -70.5 -231t-224.5 -72h-51v-801z" />
    <glyph glyph-name="P" unicode="&#x420;" horiz-adv-x="665" 
d="M420 1096v286q0 80 -78 80h-49v-444h51q76 0 76 78zM293 0h-223v1686h272q154 0 225.5 -73.5t71.5 -232.5v-276q0 -159 -70.5 -231t-224.5 -72h-51v-801z" />
    <glyph glyph-name="P" unicode="&#x3a1;" horiz-adv-x="665" 
d="M420 1096v286q0 80 -78 80h-49v-444h51q76 0 76 78zM293 0h-223v1686h272q154 0 225.5 -73.5t71.5 -232.5v-276q0 -159 -70.5 -231t-224.5 -72h-51v-801z" />
    <glyph glyph-name="Q" unicode="Q" horiz-adv-x="663" 
d="M606 12v-168q-44 -41 -141 -41q-104 0 -157.5 59.5t-55.5 155.5q-195 41 -195 281v1118q0 287 275 287q274 0 274 -287v-1118q0 -251 -211 -285q6 -39 94 -39q77 0 117 37zM383 287v1130q0 64 -51 64t-51 -64v-1130q0 -64 51 -64t51 64z" />
    <glyph glyph-name="R" unicode="R" horiz-adv-x="681" 
d="M412 1032v350q0 80 -76 80h-43v-508h45q74 0 74 78zM651 0h-243q-45 500 -78 752h-37v-752h-223v1686h266q156 0 228.5 -70.5t72.5 -233.5v-348q0 -97 -22.5 -151.5t-73.5 -85.5q48 -303 110 -797z" />
    <glyph glyph-name="S" unicode="S" horiz-adv-x="641" 
d="M371 260v240q0 63 -27.5 111t-136.5 188q-84 111 -121 194t-37 183v251q0 277 273 277q140 0 202 -67t62 -210v-309h-205v309q0 54 -53 54q-54 0 -54 -54v-249q0 -55 23 -96t107 -149q21 -27 32 -42q91 -121 123.5 -201t32.5 -188v-242q0 -138 -65 -208t-205 -70
q-273 0 -273 278v358h213v-358q0 -55 53 -55q56 0 56 55z" />
    <glyph glyph-name="S" unicode="&#x405;" horiz-adv-x="641" 
d="M371 260v240q0 63 -27.5 111t-136.5 188q-84 111 -121 194t-37 183v251q0 277 273 277q140 0 202 -67t62 -210v-309h-205v309q0 54 -53 54q-54 0 -54 -54v-249q0 -55 23 -96t107 -149q21 -27 32 -42q91 -121 123.5 -201t32.5 -188v-242q0 -138 -65 -208t-205 -70
q-273 0 -273 278v358h213v-358q0 -55 53 -55q56 0 56 55z" />
    <glyph glyph-name="T" unicode="T" 
d="M406 0h-224v1462h-164v224h549v-224h-161v-1462z" />
    <glyph glyph-name="T" unicode="&#x422;" 
d="M406 0h-224v1462h-164v224h549v-224h-161v-1462z" />
    <glyph glyph-name="T" unicode="&#x3a4;" 
d="M406 0h-224v1462h-164v224h549v-224h-161v-1462z" />
    <glyph glyph-name="U" unicode="U" horiz-adv-x="673" 
d="M389 268v1418h221v-1418q0 -286 -272 -286q-275 0 -275 286v1418h224v-1418q0 -63 51 -63t51 63z" />
    <glyph glyph-name="V" unicode="V" horiz-adv-x="700" 
d="M492 0h-297l-177 1686h232q88 -1015 100 -1301q41 589 111 1301h221z" />
    <glyph glyph-name="W" unicode="W" horiz-adv-x="1099" 
d="M893 0h-258q-60 617 -76 804.5t-16 280.5q-7 -100 -103 -1085h-260l-162 1686h234q58 -779 80 -1176q11 202 119 1176h198q94 -1017 103 -1176q19 346 96 1176h233z" />
    <glyph glyph-name="X" unicode="X" horiz-adv-x="704" 
d="M700 0h-239q-96 514 -115 674q-29 -243 -115 -674h-227l217 903l-178 783h238q52 -297 75 -531q10 101 76 531h232l-187 -777z" />
    <glyph glyph-name="X" unicode="&#x425;" horiz-adv-x="704" 
d="M700 0h-239q-96 514 -115 674q-29 -243 -115 -674h-227l217 903l-178 783h238q52 -297 75 -531q10 101 76 531h232l-187 -777z" />
    <glyph glyph-name="X" unicode="&#x3a7;" horiz-adv-x="704" 
d="M700 0h-239q-96 514 -115 674q-29 -243 -115 -674h-227l217 903l-178 783h238q52 -297 75 -531q10 101 76 531h232l-187 -777z" />
    <glyph glyph-name="Y" unicode="Y" horiz-adv-x="688" 
d="M453 0h-226v719l-215 967h236q63 -366 102 -639q27 188 109 639h217l-223 -967v-719z" />
    <glyph glyph-name="Y" unicode="&#x4ae;" horiz-adv-x="688" 
d="M453 0h-226v719l-215 967h236q63 -366 102 -639q27 188 109 639h217l-223 -967v-719z" />
    <glyph glyph-name="Y" unicode="&#x3a5;" horiz-adv-x="688" 
d="M453 0h-226v719l-215 967h236q63 -366 102 -639q27 188 109 639h217l-223 -967v-719z" />
    <glyph glyph-name="Z" unicode="Z" horiz-adv-x="634" 
d="M592 0h-547v227l326 1241h-310v218h531v-201l-316 -1258h316v-227z" />
    <glyph glyph-name="Z" unicode="&#x396;" horiz-adv-x="634" 
d="M592 0h-547v227l326 1241h-310v218h531v-201l-316 -1258h316v-227z" />
    <glyph glyph-name="bracketleft" unicode="[" horiz-adv-x="518" 
d="M479 -164h-334v2013h334v-159h-174v-1694h174v-160z" />
    <glyph glyph-name="backslash" unicode="\" horiz-adv-x="497" 
d="M489 0h-161l-322 1686h162z" />
    <glyph glyph-name="bracketright" unicode="]" horiz-adv-x="518" 
d="M479 -164h-334v160h174v1694h-174v159h334v-2013z" />
    <glyph glyph-name="asciicircum" unicode="^" horiz-adv-x="663" 
d="M594 1114h-158l-98 402l-109 -402h-159l161 572h201z" />
    <glyph glyph-name="underscore" unicode="_" horiz-adv-x="630" 
d="M633 -221h-635v147h635v-147z" />
    <glyph glyph-name="grave" unicode="`" horiz-adv-x="618" 
d="M508 1343h-193l-286 330h256z" />
    <glyph glyph-name="a" unicode="a" 
d="M528 0h-182q-8 19 -8 63q-51 -81 -131 -81q-166 0 -166 200v187q0 111 30 173t97 109q29 20 158 90v297q0 49 -45 49t-45 -49v-268h-177v268q0 250 226 250q233 0 233 -250v-932q0 -68 10 -106zM326 209v371q-32 -13 -52 -33q-36 -29 -36 -98v-230q0 -20 12.5 -30.5
t32.5 -10.5q27 0 43 31z" />
    <glyph glyph-name="a" unicode="&#x430;" 
d="M528 0h-182q-8 19 -8 63q-51 -81 -131 -81q-166 0 -166 200v187q0 111 30 173t97 109q29 20 158 90v297q0 49 -45 49t-45 -49v-268h-177v268q0 250 226 250q233 0 233 -250v-932q0 -68 10 -106zM326 209v371q-32 -13 -52 -33q-36 -29 -36 -98v-230q0 -20 12.5 -30.5
t32.5 -10.5q27 0 43 31z" />
    <glyph glyph-name="b" unicode="b" horiz-adv-x="624" 
d="M367 258v770q0 51 -50 51q-31 0 -47 -28v-818q16 -28 47 -28q50 0 50 53zM166 0h-96v1686h200v-435q43 37 113 37q94 0 139 -56t45 -177v-795q0 -137 -53 -203.5t-168 -66.5q-91 0 -147 80q-6 -26 -33 -70z" />
    <glyph glyph-name="c" unicode="c" horiz-adv-x="583" 
d="M344 240v278h186v-282q0 -254 -233 -254q-120 0 -180 68.5t-60 189.5v786q0 121 60.5 191.5t179.5 70.5q117 0 173 -69.5t56 -190.5v-274h-182v278q0 49 -45 49t-45 -49v-792q0 -54 45 -54t45 54z" />
    <glyph glyph-name="c" unicode="&#x441;" horiz-adv-x="583" 
d="M344 240v278h186v-282q0 -254 -233 -254q-120 0 -180 68.5t-60 189.5v786q0 121 60.5 191.5t179.5 70.5q117 0 173 -69.5t56 -190.5v-274h-182v278q0 49 -45 49t-45 -49v-792q0 -54 45 -54t45 54z" />
    <glyph glyph-name="d" unicode="d" horiz-adv-x="624" 
d="M354 233v824q-14 26 -47 26q-49 0 -49 -49v-776q0 -53 49 -53q31 0 47 28zM555 0h-170q-6 30 -6 70q-19 -43 -52 -61.5t-94 -18.5q-81 0 -128.5 62t-47.5 177v826q0 121 45.5 177t139.5 56q69 0 112 -37v435h201v-1686z" />
    <glyph glyph-name="e" unicode="e" horiz-adv-x="575" 
d="M330 743v285q0 51 -45 51q-41 0 -41 -51v-285h86zM330 240v276h188v-278q0 -256 -233 -256q-228 0 -228 256v790q0 260 228 260q233 0 233 -260v-428h-274v-362q0 -52 41 -52q45 0 45 54z" />
    <glyph glyph-name="e" unicode="&#x435;" horiz-adv-x="575" 
d="M330 743v285q0 51 -45 51q-41 0 -41 -51v-285h86zM330 240v276h188v-278q0 -256 -233 -256q-228 0 -228 256v790q0 260 228 260q233 0 233 -260v-428h-274v-362q0 -52 41 -52q45 0 45 54z" />
    <glyph glyph-name="f" unicode="f" horiz-adv-x="391" 
d="M279 0h-201v1094h-64v174h64v176q0 114 47.5 183t155.5 69q50 0 94 -13v-170q-9 3 -29 3q-67 0 -67 -76v-172h92v-174h-92v-1094z" />
    <glyph glyph-name="g" unicode="g" horiz-adv-x="624" 
d="M360 -76v172q-43 -37 -120 -37q-93 0 -138 55.5t-45 176.5v747q0 115 47.5 177.5t128.5 62.5q55 0 87.5 -18.5t58.5 -61.5q0 40 6 70h170v-1334q0 -239 -240 -239q-132 0 -185.5 58.5t-53.5 180.5v52h180v-62q0 -55 53 -55q51 0 51 55zM360 281v753q-16 29 -51 29
q-53 0 -53 -53v-707q0 -51 53 -51q35 0 51 29z" />
    <glyph glyph-name="h" unicode="h" horiz-adv-x="622" 
d="M559 0h-201v1042q0 50 -41 50q-29 0 -47 -21v-1071h-200v1686h200v-451q59 53 136 53q153 0 153 -233v-1055z" />
    <glyph glyph-name="h" unicode="&#x4bb;" horiz-adv-x="622" 
d="M559 0h-201v1042q0 50 -41 50q-29 0 -47 -21v-1071h-200v1686h200v-451q59 53 136 53q153 0 153 -233v-1055z" />
    <glyph glyph-name="i" unicode="i" horiz-adv-x="346" 
d="M274 1430h-200v256h200v-256zM274 0h-200v1268h200v-1268z" />
    <glyph glyph-name="i" unicode="&#x456;" horiz-adv-x="346" 
d="M274 1430h-200v256h200v-256zM274 0h-200v1268h200v-1268z" />
    <glyph glyph-name="j" unicode="j" horiz-adv-x="370" 
d="M297 1430h-201v256h201v-256zM-33 -287v199q27 -6 78 -6t51 67v1295h201v-1295q0 -139 -62.5 -203.5t-189.5 -64.5q-51 0 -78 8z" />
    <glyph glyph-name="j" unicode="&#x458;" horiz-adv-x="370" 
d="M297 1430h-201v256h201v-256zM-33 -287v199q27 -6 78 -6t51 67v1295h201v-1295q0 -139 -62.5 -203.5t-189.5 -64.5q-51 0 -78 8z" />
    <glyph glyph-name="k" unicode="k" horiz-adv-x="614" 
d="M608 0h-219l-70 334q-29 126 -57 303q4 -68 4 -313v-324h-196v1686h196v-648q0 -236 -4 -301q54 221 74 293l61 238h205l-156 -545z" />
    <glyph glyph-name="l" unicode="l" horiz-adv-x="339" 
d="M270 0h-200v1686h200v-1686z" />
    <glyph glyph-name="m" unicode="m" horiz-adv-x="911" 
d="M848 0h-201v1042q0 50 -41 50q-26 0 -47 -21v-1071h-201v1042q0 50 -41 50q-29 0 -47 -21v-1071h-200v1268h170q6 -30 6 -68q58 88 155 88q93 0 131 -80q57 80 160 80q77 0 116.5 -63t39.5 -181v-1044z" />
    <glyph glyph-name="n" unicode="n" horiz-adv-x="622" 
d="M559 0h-201v1042q0 50 -41 50q-29 0 -47 -21v-1071h-200v1268h170q6 -30 6 -68q58 88 155 88q158 0 158 -233v-1055z" />
    <glyph glyph-name="o" unicode="o" horiz-adv-x="598" 
d="M57 233v801q0 254 242 254t242 -254v-801q0 -251 -242 -251t-242 251zM344 242v784q0 55 -45 55t-45 -55v-784q0 -56 45 -56t45 56z" />
    <glyph glyph-name="o" unicode="&#x43e;" horiz-adv-x="598" 
d="M57 233v801q0 254 242 254t242 -254v-801q0 -251 -242 -251t-242 251zM344 242v784q0 55 -45 55t-45 -55v-784q0 -56 45 -56t45 56z" />
    <glyph glyph-name="o" unicode="&#x3bf;" horiz-adv-x="598" 
d="M57 233v801q0 254 242 254t242 -254v-801q0 -251 -242 -251t-242 251zM344 242v784q0 55 -45 55t-45 -55v-784q0 -56 45 -56t45 56z" />
    <glyph glyph-name="p" unicode="p" horiz-adv-x="624" 
d="M367 233v779q0 53 -50 53q-31 0 -47 -29v-825q15 -27 47 -27q50 0 50 49zM270 -285h-200v1553h170q6 -35 6 -70q19 43 51.5 61.5t93.5 18.5q81 0 128.5 -62.5t47.5 -177.5v-825q0 -121 -45 -176t-139 -55q-73 0 -113 34v-301z" />
    <glyph glyph-name="p" unicode="&#x440;" horiz-adv-x="624" 
d="M367 233v779q0 53 -50 53q-31 0 -47 -29v-825q15 -27 47 -27q50 0 50 49zM270 -285h-200v1553h170q6 -35 6 -70q19 43 51.5 61.5t93.5 18.5q81 0 128.5 -62.5t47.5 -177.5v-825q0 -121 -45 -176t-139 -55q-73 0 -113 34v-301z" />
    <glyph glyph-name="q" unicode="q" horiz-adv-x="624" 
d="M354 211v829q-16 29 -47 29q-49 0 -49 -53v-783q0 -49 49 -49q32 0 47 27zM555 -285h-201v301q-40 -34 -112 -34q-94 0 -139.5 55t-45.5 176v825q0 115 47.5 177.5t128.5 62.5q61 0 94 -18.5t52 -61.5q0 36 6 70h170v-1553z" />
    <glyph glyph-name="r" unicode="r" horiz-adv-x="423" 
d="M270 0h-200v1268h170q6 -30 6 -66q41 80 123 80q22 0 34 -6v-225q-22 16 -65 16q-55 0 -68 -35v-1032z" />
    <glyph glyph-name="s" unicode="s" horiz-adv-x="573" 
d="M522 334v-115q0 -126 -61 -181.5t-187 -55.5q-112 0 -168.5 60t-56.5 187v195h182v-191q0 -53 48 -53q43 0 43 53v132q0 49 -23 90.5t-106 136.5q-77 91 -110.5 161t-33.5 183v96q0 137 58.5 196.5t173.5 59.5q133 0 184 -59t51 -197v-194h-182v196q0 53 -47 53
q-41 0 -41 -53v-131q0 -58 24 -98t111 -135q86 -93 113.5 -159.5t27.5 -176.5z" />
    <glyph glyph-name="s" unicode="&#x455;" horiz-adv-x="573" 
d="M522 334v-115q0 -126 -61 -181.5t-187 -55.5q-112 0 -168.5 60t-56.5 187v195h182v-191q0 -53 48 -53q43 0 43 53v132q0 49 -23 90.5t-106 136.5q-77 91 -110.5 161t-33.5 183v96q0 137 58.5 196.5t173.5 59.5q133 0 184 -59t51 -197v-194h-182v196q0 53 -47 53
q-41 0 -41 -53v-131q0 -58 24 -98t111 -135q86 -93 113.5 -159.5t27.5 -176.5z" />
    <glyph glyph-name="t" unicode="t" horiz-adv-x="391" 
d="M375 156v-170q-46 -4 -62 -4q-235 0 -235 262v850h-64v174h64v401h201v-401h92v-174h-92v-846q0 -52 23 -72t73 -20z" />
    <glyph glyph-name="u" unicode="u" horiz-adv-x="618" 
d="M549 0h-170q-6 30 -6 68q-55 -78 -152 -78q-73 0 -115.5 57.5t-42.5 155.5v1065h201v-1032q0 -50 39 -50q27 0 45 21v1061h201v-1268z" />
    <glyph glyph-name="v" unicode="v" horiz-adv-x="571" 
d="M381 0h-199l-166 1268h201q58 -578 66 -762q18 231 77 762h193z" />
    <glyph glyph-name="v" unicode="&#x3bd;" horiz-adv-x="571" 
d="M381 0h-199l-166 1268h201q58 -578 66 -762q18 231 77 762h193z" />
    <glyph glyph-name="w" unicode="w" horiz-adv-x="870" 
d="M725 0h-231q-63 651 -66 780q-2 -37 -8.5 -107t-25 -256.5t-38.5 -416.5h-229l-107 1268h185q36 -558 55 -885l84 885h178q23 -279 39.5 -488.5t22.5 -282t10 -114.5q3 52 72 885h182z" />
    <glyph glyph-name="x" unicode="x" horiz-adv-x="587" 
d="M580 0h-207q-31 186 -84 547q-13 -140 -80 -547h-201l154 680l-127 588h209q17 -113 27.5 -193.5t17 -149.5t8.5 -83q2 15 7 65.5t9 85.5t15 110t26 165h199l-129 -584z" />
    <glyph glyph-name="x" unicode="&#x445;" horiz-adv-x="587" 
d="M580 0h-207q-31 186 -84 547q-13 -140 -80 -547h-201l154 680l-127 588h209q17 -113 27.5 -193.5t17 -149.5t8.5 -83q2 15 7 65.5t9 85.5t15 110t26 165h199l-129 -584z" />
    <glyph glyph-name="y" unicode="y" horiz-adv-x="571" 
d="M35 -287v199q23 -6 69 -6q40 0 57.5 35.5t24.5 109.5l-170 1217h209q11 -135 24.5 -297.5t19.5 -229.5t11 -141.5t7 -130.5q2 45 5 91t10.5 124t13 135t21 202t25.5 247h191l-166 -1241q-11 -83 -28 -139t-47.5 -99.5t-79.5 -63.5t-119 -20q-47 0 -78 8z" />
    <glyph glyph-name="y" unicode="&#x443;" horiz-adv-x="571" 
d="M35 -287v199q23 -6 69 -6q40 0 57.5 35.5t24.5 109.5l-170 1217h209q11 -135 24.5 -297.5t19.5 -229.5t11 -141.5t7 -130.5q2 45 5 91t10.5 124t13 135t21 202t25.5 247h191l-166 -1241q-11 -83 -28 -139t-47.5 -99.5t-79.5 -63.5t-119 -20q-47 0 -78 8z" />
    <glyph glyph-name="z" unicode="z" horiz-adv-x="526" 
d="M481 0h-436v190l248 881h-244v197h434v-187l-237 -876h235v-205z" />
    <glyph glyph-name="braceleft" unicode="{" horiz-adv-x="581" 
d="M551 -164h-16q-316 0 -316 297v416q0 36 -7 54t-26 44l-159 197l159 194q19 26 26 44.5t7 54.5v415q0 297 316 297h16v-159h-14q-81 0 -120.5 -35.5t-39.5 -112.5v-407q0 -61 -14.5 -100.5t-51.5 -84.5l-88 -106l88 -109q37 -45 51.5 -84t14.5 -100v-408q0 -77 39.5 -112
t120.5 -35h14v-160z" />
    <glyph glyph-name="bar" unicode="|" horiz-adv-x="430" 
d="M295 -164h-162v2013h162v-2013z" />
    <glyph glyph-name="braceright" unicode="}" horiz-adv-x="581" 
d="M43 -164h-16v160h14q81 0 120.5 35t39.5 112v408q0 61 14 100t51 84l88 109l-88 106q-37 44 -51 84t-14 101v407q0 77 -39.5 112.5t-120.5 35.5h-14v159h16q315 0 315 -297v-415q0 -36 7 -54.5t26 -44.5l160 -194l-160 -197q-19 -26 -26 -44t-7 -54v-416
q0 -297 -315 -297z" />
    <glyph glyph-name="asciitilde" unicode="~" horiz-adv-x="964" 
d="M897 999v-194q-97 -70 -240 -70q-67 0 -190.5 43t-179.5 43q-61 0 -112 -22.5t-105 -81.5v196q79 72 211 72q69 0 140.5 -21.5t134.5 -43t110 -21.5q71 0 122 21t109 79z" />
    <glyph glyph-name="nbspace" unicode="&#xa0;" horiz-adv-x="278" 
 />
    <glyph glyph-name="exclamdown" unicode="&#xa1;" horiz-adv-x="378" 
d="M76 1440h227v-223h-227v223zM121 1114h139l43 -518v-842h-227v838z" />
    <glyph glyph-name="cent" unicode="&#xa2;" horiz-adv-x="579" 
d="M332 0h-64v184q-103 7 -157 76t-54 182v779q0 112 53.5 180t157.5 78v207h64v-207q194 -20 194 -256v-279h-159v283q0 18 -13.5 31.5t-31.5 13.5v-881q45 4 45 51v269h163v-273q0 -110 -48.5 -176t-149.5 -76v-186zM279 393v879q-20 -1 -33 -14.5t-13 -30.5v-785
q0 -49 46 -49z" />
    <glyph glyph-name="sterling" unicode="&#xa3;" horiz-adv-x="589" 
d="M555 244v-201q-56 -59 -152 -59q-42 0 -118 35.5t-113 35.5t-66 -15.5t-63 -57.5h-8v204q44 48 104 58q13 176 13 420v268h-111v168h111v282q0 155 66 238.5t194 83.5q59 0 106 -12v-207q-28 14 -63 14q-50 0 -81.5 -36.5t-31.5 -78.5v-284h176v-168h-176v-270
q0 -312 -20 -463q55 -25 88 -25q40 0 70.5 15t64.5 55h10z" />
    <glyph glyph-name="currency" unicode="&#xa4;" horiz-adv-x="1021" 
d="M874 313l-129 142q-113 -74 -233 -74q-134 0 -233 74l-134 -142l-118 121l137 133q-72 104 -72 234q0 125 72 235q-70 64 -135 129l118 121l129 -139q94 76 236 76q129 0 236 -76l124 139l119 -121l-133 -129q74 -107 74 -235q0 -135 -74 -234l135 -133zM750 801
q0 98 -70 167.5t-168 69.5q-100 0 -169 -69t-69 -168q0 -100 69 -169t169 -69q99 0 168.5 69.5t69.5 168.5z" />
    <glyph glyph-name="yen" unicode="&#xa5;" horiz-adv-x="704" 
d="M666 168h-213v-168h-209v168h-213v168h213v153h-213v168h213v54l-226 975h236q74 -429 104 -639q16 114 107 639h219l-231 -975v-54h213v-168h-213v-153h213v-168z" />
    <glyph glyph-name="brokenbar" unicode="&#xa6;" horiz-adv-x="430" 
d="M295 1004h-162v845h162v-845zM295 -164h-162v846h162v-846z" />
    <glyph glyph-name="section" unicode="&#xa7;" horiz-adv-x="593" 
d="M524 39v-84q0 -120 -55.5 -180t-177.5 -60q-121 0 -177.5 60.5t-56.5 179.5v184h185v-184q0 -47 45 -47q47 0 47 47v82q0 55 -24.5 98.5t-116.5 157.5q-74 98 -105 167t-31 158v216q0 88 45 138t115 56q-72 90 -109.5 168.5t-37.5 177.5v92q0 238 233 238
q121 0 174 -58.5t53 -179.5v-143h-176v143q0 45 -45 45q-47 0 -47 -45v-90q0 -51 19 -85.5t93 -129.5q16 -21 25 -33q80 -105 109 -174t29 -161v-207q0 -90 -39.5 -149t-102.5 -70q75 -100 102 -167.5t27 -160.5zM342 565v254q0 47 -45 47t-45 -47v-254q0 -47 45 -47t45 47z
" />
    <glyph glyph-name="dieresis" unicode="&#xa8;" horiz-adv-x="657" 
d="M588 1368h-201v256h201v-256zM270 1368h-200v256h200v-256z" />
    <glyph glyph-name="copyright" unicode="&#xa9;" horiz-adv-x="1077" 
d="M1020 1233v-780q0 -252 -114.5 -361.5t-366.5 -109.5t-367 109.5t-115 361.5v780q0 252 115 361.5t367 109.5q250 0 365.5 -110t115.5 -361zM870 434v817q0 178 -71 245t-260 67q-190 0 -261 -66.5t-71 -245.5v-817q0 -168 73 -238.5t259 -70.5t258.5 70t72.5 239z
M573 489v222h127v-219q0 -94 -37 -137.5t-122 -43.5q-174 0 -174 178v721q0 185 174 185q159 0 159 -183v-188h-127v188q0 41 -32 41q-31 0 -31 -41v-723q0 -38 31 -38q32 0 32 38z" />
    <glyph glyph-name="ordfeminine" unicode="&#xaa;" horiz-adv-x="444" 
d="M352 614h-100q-4 16 -4 35q-27 -45 -72 -45q-92 0 -92 111v102q0 45 10.5 77t31 53t45 36.5t58.5 33.5q7 3 11 5v164q0 26 -25 26t-25 -26v-148h-96v148q0 137 123 137q129 0 129 -137v-512q0 -45 6 -60zM240 729v205q-26 -15 -36.5 -30t-10.5 -44v-125q0 -22 24 -22
q17 0 23 16z" />
    <glyph glyph-name="guillemotleft" unicode="&#xab;" horiz-adv-x="794" 
d="M365 346l-332 219v236l332 205v-187l-226 -135l226 -143v-195zM762 346l-332 219v236l332 205v-187l-225 -135l225 -143v-195z" />
    <glyph glyph-name="logicalnot" unicode="&#xac;" horiz-adv-x="890" 
d="M821 0h-207v733h-579v213h786v-946z" />
    <glyph glyph-name="registered" unicode="&#xae;" horiz-adv-x="1077" 
d="M1020 1233v-780q0 -252 -114.5 -361.5t-366.5 -109.5t-367 109.5t-115 361.5v780q0 252 115 361.5t367 109.5q250 0 365.5 -110t115.5 -361zM870 434v817q0 178 -71 245t-260 67q-190 0 -261 -66.5t-71 -245.5v-817q0 -168 73 -238.5t259 -70.5t258.5 70t72.5 239z
M584 973v219q0 49 -47 49h-27v-317h27q47 0 47 49zM735 322h-153q-29 325 -50 469h-22v-469h-141v1060h168q100 0 144 -43.5t44 -146.5v-221q0 -62 -13.5 -97t-45.5 -55q14 -74 25.5 -156.5t23.5 -184t20 -156.5z" />
    <glyph glyph-name="macron" unicode="&#xaf;" horiz-adv-x="626" 
d="M557 1409h-487v172h487v-172z" />
    <glyph glyph-name="degree" unicode="&#xb0;" horiz-adv-x="628" 
d="M311 1268q72 0 102.5 34.5t30.5 112.5q0 80 -31 116t-102 36q-68 0 -101.5 -36.5t-33.5 -115.5q0 -78 33 -112.5t102 -34.5zM313 1147q-125 0 -190.5 72.5t-65.5 195.5q0 122 66 198.5t190 76.5q125 0 191.5 -76.5t66.5 -198.5t-66.5 -195t-191.5 -73z" />
    <glyph glyph-name="plusminus" unicode="&#xb1;" horiz-adv-x="962" 
d="M565 444h-166v332h-329v166h329v328h166v-328h330v-166h-330v-332zM895 182h-825v166h825v-166z" />
    <glyph glyph-name="twosuperior" unicode="&#xb2;" horiz-adv-x="380" 
d="M328 864h-273v154q0 76 15.5 126t66.5 124q43 64 60.5 110.5t17.5 104.5v90q0 31 -25 31q-24 0 -24 -31v-150h-111v148q0 77 32.5 111t102.5 34q138 0 138 -145v-103q0 -109 -84 -237q-50 -78 -64 -118.5t-14 -94.5v-43h162v-111z" />
    <glyph glyph-name="threesuperior" unicode="&#xb3;" horiz-adv-x="380" 
d="M217 997v211q0 33 -27 33h-43v105h50q20 0 20 32v195q0 31 -27 31q-24 0 -24 -31v-152h-109v150q0 77 31.5 111t101.5 34t102 -35t32 -112v-191q0 -59 -50 -86q52 -18 52 -88v-207q0 -68 -34 -105.5t-102 -37.5q-66 0 -101.5 38t-35.5 105v166h113v-166q0 -30 24 -30
q27 0 27 30z" />
    <glyph glyph-name="acute" unicode="&#xb4;" horiz-adv-x="618" 
d="M303 1343h-192l223 330h256z" />
    <glyph glyph-name="paragraph" unicode="&#xb6;" horiz-adv-x="903" 
d="M748 -274h-185v1747h-135v-1532q0 -105 -53.5 -172.5t-153.5 -67.5q-49 0 -90 14v152q28 -4 33 -4q42 0 59 27.5t17 91.5v1239q-211 0 -211 227q0 108 52 173t163 65h628v-213h-124v-1747zM240 1333v140h-21q-41 0 -41 -72q0 -68 41 -68h21z" />
    <glyph glyph-name="periodcentered" unicode="&#xb7;" horiz-adv-x="321" 
d="M264 717h-207v256h207v-256z" />
    <glyph glyph-name="cedilla" unicode="&#xb8;" horiz-adv-x="305" 
d="M135 -305h-47v63h41q23 0 23 25v29h-82v147h166v-176q0 -41 -24.5 -64.5t-76.5 -23.5z" />
    <glyph glyph-name="onesuperior" unicode="&#xb9;" horiz-adv-x="270" 
d="M203 864h-111v672h-47v109h21q36 0 36 41v20h101v-842z" />
    <glyph glyph-name="ordmasculine" unicode="&#xba;" horiz-adv-x="452" 
d="M92 743v441q0 139 133 139t133 -139v-441q0 -139 -133 -139t-133 139zM250 748v432q0 28 -25 28q-24 0 -24 -28v-432q0 -31 24 -31q25 0 25 31z" />
    <glyph glyph-name="guillemotright" unicode="&#xbb;" horiz-adv-x="794" 
d="M365 565l-332 -219v195l225 143l-225 135v187l332 -205v-236zM762 565l-332 -219v195l225 143l-225 135v187l332 -205v-236z" />
    <glyph glyph-name="onequarter" unicode="&#xbc;" horiz-adv-x="991" 
d="M295 864h-111v672h-47v109h21q37 0 37 41v20h100v-842zM184 0h-127l752 1686h125zM700 248h74q0 99 3 189.5t3 101.5q-18 -86 -80 -291zM877 -20h-103v161h-172v97l172 583h103v-573h41v-107h-41v-161z" />
    <glyph glyph-name="onehalf" unicode="&#xbd;" horiz-adv-x="991" 
d="M295 864h-111v672h-47v109h21q37 0 37 41v20h100v-842zM184 0h-127l752 1686h125zM913 -20h-272v153q0 76 15.5 126t66.5 124q43 64 60.5 110.5t17.5 104.5v90q0 31 -25 31q-24 0 -24 -31v-149h-111v147q0 77 32.5 111t102.5 34q137 0 137 -145v-102q0 -110 -84 -238
q-50 -78 -63.5 -118t-13.5 -95v-43h161v-110z" />
    <glyph glyph-name="threequarters" unicode="&#xbe;" horiz-adv-x="991" 
d="M260 997v211q0 33 -27 33h-43v105h50q20 0 20 32v195q0 31 -27 31q-24 0 -24 -31v-152h-109v150q0 77 31.5 111t101.5 34t102 -35t32 -112v-191q0 -59 -50 -86q52 -18 52 -88v-207q0 -68 -34.5 -105.5t-101.5 -37.5q-66 0 -101.5 38t-35.5 105v166h113v-166q0 -30 24 -30
q27 0 27 30zM184 0h-127l752 1686h125zM659 248h74q0 99 3 189.5t3 101.5q-18 -86 -80 -291zM836 -20h-103v161h-172v97l172 583h103v-573h41v-107h-41v-161z" />
    <glyph glyph-name="questiondown" unicode="&#xbf;" horiz-adv-x="616" 
d="M240 1057h206v-228q0 -125 -19.5 -197t-72.5 -132q-44 -53 -61 -83.5t-24 -71.5t-7 -124v-198q0 -64 51 -64q52 0 52 64v299h213v-295q0 -149 -64.5 -220t-200.5 -71q-138 0 -204 70.5t-66 222.5v194q0 115 24.5 194t79.5 146q67 75 80 115t13 147v232zM240 1440h206
v-256h-206v256z" />
    <glyph glyph-name="Agrave" unicode="&#xc0;" horiz-adv-x="694" 
d="M674 0h-223l-25 240h-164l-29 -240h-215l205 1686h258zM283 442h118q-31 300 -57 672q-25 -357 -61 -672zM483 1761h-192l-287 330h256z" />
    <glyph glyph-name="Aacute" unicode="&#xc1;" horiz-adv-x="694" 
d="M674 0h-223l-25 240h-164l-29 -240h-215l205 1686h258zM283 442h118q-31 300 -57 672q-25 -357 -61 -672zM401 1761h-192l223 330h256z" />
    <glyph glyph-name="Acircumflex" unicode="&#xc2;" horiz-adv-x="694" 
d="M674 0h-223l-25 240h-164l-29 -240h-215l205 1686h258zM283 442h118q-31 300 -57 672q-25 -357 -61 -672zM659 1761h-194l-117 224l-125 -224h-184l199 330h235z" />
    <glyph glyph-name="Atilde" unicode="&#xc3;" horiz-adv-x="694" 
d="M674 0h-223l-25 240h-164l-29 -240h-215l205 1686h258zM283 442h118q-31 300 -57 672q-25 -357 -61 -672zM600 2023v-168q-49 -49 -129 -49q-51 0 -134.5 32t-127.5 32q-70 0 -113 -55h-4v165q46 50 129 50q49 0 132.5 -30t129.5 -30q43 0 68.5 11t44.5 42h4z" />
    <glyph glyph-name="Adieresis" unicode="&#xc4;" horiz-adv-x="694" 
d="M674 0h-223l-25 240h-164l-29 -240h-215l205 1686h258zM283 442h118q-31 300 -57 672q-25 -357 -61 -672zM606 1786h-200v256h200v-256zM289 1786h-201v256h201v-256z" />
    <glyph glyph-name="Aring" unicode="&#xc5;" horiz-adv-x="694" 
d="M674 0h-223l-25 240h-164l-29 -240h-215l205 1686h258zM283 442h118q-31 300 -57 672q-25 -357 -61 -672zM451 1927q0 43 -25 62.5t-82 19.5q-108 0 -108 -82q0 -42 26 -60t82 -18q57 0 82 18.5t25 59.5zM551 1927q0 -72 -53 -116t-154 -44q-100 0 -151.5 44t-51.5 116
q0 75 51 119.5t152 44.5t154 -44.5t53 -119.5z" />
    <glyph glyph-name="AE" unicode="&#xc6;" horiz-adv-x="966" 
d="M932 0h-473v240h-195l-28 -240h-218l207 1686h699v-224h-240v-491h152v-223h-152v-525h248v-223zM459 442v1020h-60l-112 -1020h172z" />
    <glyph glyph-name="Ccedilla" unicode="&#xc7;" horiz-adv-x="636" 
d="M387 268v350h203v-348q0 -149 -60 -218.5t-194 -69.5q-279 0 -279 284v1147q0 291 279 291q254 0 254 -287v-299h-203v299q0 64 -51 64t-51 -64v-1149q0 -63 51 -63t51 63zM322 -305h-48v63h41q23 0 23 25v29h-82v147h166v-176q0 -88 -100 -88z" />
    <glyph glyph-name="Egrave" unicode="&#xc8;" horiz-adv-x="577" 
d="M543 0h-473v1686h462v-224h-239v-491h151v-223h-151v-525h250v-223zM426 1761h-193l-286 330h256z" />
    <glyph glyph-name="Egrave" unicode="&#x400;" horiz-adv-x="577" 
d="M543 0h-473v1686h462v-224h-239v-491h151v-223h-151v-525h250v-223zM426 1761h-193l-286 330h256z" />
    <glyph glyph-name="Eacute" unicode="&#xc9;" horiz-adv-x="577" 
d="M543 0h-473v1686h462v-224h-239v-491h151v-223h-151v-525h250v-223zM346 1761h-192l223 330h256z" />
    <glyph glyph-name="Ecircumflex" unicode="&#xca;" horiz-adv-x="577" 
d="M543 0h-473v1686h462v-224h-239v-491h151v-223h-151v-525h250v-223zM608 1761h-194l-117 224l-125 -224h-184l198 330h236z" />
    <glyph glyph-name="Edieresis" unicode="&#xcb;" horiz-adv-x="577" 
d="M543 0h-473v1686h462v-224h-239v-491h151v-223h-151v-525h250v-223zM555 1786h-201v256h201v-256zM238 1786h-201v256h201v-256z" />
    <glyph glyph-name="Edieresis" unicode="&#x401;" horiz-adv-x="577" 
d="M543 0h-473v1686h462v-224h-239v-491h151v-223h-151v-525h250v-223zM555 1786h-201v256h201v-256zM238 1786h-201v256h201v-256z" />
    <glyph glyph-name="Igrave" unicode="&#xcc;" horiz-adv-x="370" 
d="M297 0h-223v1686h223v-1686zM324 1761h-193l-287 330h256z" />
    <glyph glyph-name="Iacute" unicode="&#xcd;" horiz-adv-x="370" 
d="M297 0h-223v1686h223v-1686zM242 1761h-193l223 330h256z" />
    <glyph glyph-name="Icircumflex" unicode="&#xce;" horiz-adv-x="370" 
d="M297 0h-223v1686h223v-1686zM496 1761h-195l-117 224l-125 -224h-184l199 330h235z" />
    <glyph glyph-name="Idieresis" unicode="&#xcf;" horiz-adv-x="370" 
d="M297 0h-223v1686h223v-1686zM444 1786h-200v256h200v-256zM127 1786h-201v256h201v-256z" />
    <glyph glyph-name="Idieresis" unicode="&#x407;" horiz-adv-x="370" 
d="M297 0h-223v1686h223v-1686zM444 1786h-200v256h200v-256zM127 1786h-201v256h201v-256z" />
    <glyph glyph-name="Idieresis" unicode="&#x3aa;" horiz-adv-x="370" 
d="M297 0h-223v1686h223v-1686zM444 1786h-200v256h200v-256zM127 1786h-201v256h201v-256z" />
    <glyph glyph-name="Eth" unicode="&#xd0;" horiz-adv-x="671" 
d="M340 0h-272v748h-54v223h54v715h272q134 0 204 -76t70 -213v-1110q0 -287 -274 -287zM393 287v1112q0 63 -53 63h-49v-491h63v-223h-63v-525h49q53 0 53 64z" />
    <glyph glyph-name="Eth" unicode="&#x110;" horiz-adv-x="671" 
d="M340 0h-272v748h-54v223h54v715h272q134 0 204 -76t70 -213v-1110q0 -287 -274 -287zM393 287v1112q0 63 -53 63h-49v-491h63v-223h-63v-525h49q53 0 53 64z" />
    <glyph glyph-name="Ntilde" unicode="&#xd1;" horiz-adv-x="731" 
d="M666 0h-213q-156 740 -207 1032q6 -199 6 -598v-434h-186v1686h256q51 -315 84.5 -532t53 -349t25.5 -174q-6 180 -6 528v527h187v-1686zM618 2023v-168q-49 -49 -129 -49q-51 0 -134.5 32t-127.5 32q-69 0 -112 -55h-4v165q46 50 129 50q50 0 133 -30t129 -30
q43 0 67.5 11t44.5 42h4z" />
    <glyph glyph-name="Ograve" unicode="&#xd2;" horiz-adv-x="663" 
d="M57 268v1149q0 287 275 287q274 0 274 -287v-1149q0 -286 -274 -286q-275 0 -275 286zM383 268v1149q0 64 -51 64t-51 -64v-1149q0 -63 51 -63t51 63zM469 1761h-193l-286 330h256z" />
    <glyph glyph-name="Oacute" unicode="&#xd3;" horiz-adv-x="663" 
d="M57 268v1149q0 287 275 287q274 0 274 -287v-1149q0 -286 -274 -286q-275 0 -275 286zM383 268v1149q0 64 -51 64t-51 -64v-1149q0 -63 51 -63t51 63zM387 1761h-192l223 330h256z" />
    <glyph glyph-name="Ocircumflex" unicode="&#xd4;" horiz-adv-x="663" 
d="M57 268v1149q0 287 275 287q274 0 274 -287v-1149q0 -286 -274 -286q-275 0 -275 286zM383 268v1149q0 64 -51 64t-51 -64v-1149q0 -63 51 -63t51 63zM643 1761h-194l-117 224l-125 -224h-184l198 330h236z" />
    <glyph glyph-name="Otilde" unicode="&#xd5;" horiz-adv-x="663" 
d="M57 268v1149q0 287 275 287q274 0 274 -287v-1149q0 -286 -274 -286q-275 0 -275 286zM383 268v1149q0 64 -51 64t-51 -64v-1149q0 -63 51 -63t51 63zM586 2023v-168q-49 -49 -129 -49q-51 0 -134.5 32t-127.5 32q-70 0 -113 -55h-4v165q46 50 129 50q49 0 132 -30
t130 -30q43 0 68.5 11t44.5 42h4z" />
    <glyph glyph-name="Odieresis" unicode="&#xd6;" horiz-adv-x="663" 
d="M57 268v1149q0 287 275 287q274 0 274 -287v-1149q0 -286 -274 -286q-275 0 -275 286zM383 268v1149q0 64 -51 64t-51 -64v-1149q0 -63 51 -63t51 63zM590 1786h-201v256h201v-256zM272 1786h-200v256h200v-256z" />
    <glyph glyph-name="multiply" unicode="&#xd7;" horiz-adv-x="962" 
d="M831 625l-116 -117l-236 233l-233 -233l-117 119l233 231l-231 234l117 116l231 -231l234 233l116 -118l-231 -234z" />
    <glyph glyph-name="Oslash" unicode="&#xd8;" horiz-adv-x="663" 
d="M143 -193h-86l58 259q-58 70 -58 202v1149q0 287 275 287q78 0 141 -29l45 203h88l-59 -260q59 -71 59 -201v-1149q0 -286 -274 -286q-83 0 -144 28zM383 268v613l-102 -455v-158q0 -63 51 -63t51 63zM281 813l102 455v149q0 64 -51 64t-51 -64v-604z" />
    <glyph glyph-name="Ugrave" unicode="&#xd9;" horiz-adv-x="673" 
d="M389 268v1418h221v-1418q0 -286 -272 -286q-275 0 -275 286v1418h224v-1418q0 -63 51 -63t51 63zM475 1761h-192l-287 330h256z" />
    <glyph glyph-name="Uacute" unicode="&#xda;" horiz-adv-x="673" 
d="M389 268v1418h221v-1418q0 -286 -272 -286q-275 0 -275 286v1418h224v-1418q0 -63 51 -63t51 63zM391 1761h-192l223 330h256z" />
    <glyph glyph-name="Ucircumflex" unicode="&#xdb;" horiz-adv-x="673" 
d="M389 268v1418h221v-1418q0 -286 -272 -286q-275 0 -275 286v1418h224v-1418q0 -63 51 -63t51 63zM647 1761h-194l-117 224l-125 -224h-184l198 330h236z" />
    <glyph glyph-name="Udieresis" unicode="&#xdc;" horiz-adv-x="673" 
d="M389 268v1418h221v-1418q0 -286 -272 -286q-275 0 -275 286v1418h224v-1418q0 -63 51 -63t51 63zM596 1786h-201v256h201v-256zM279 1786h-201v256h201v-256z" />
    <glyph glyph-name="Yacute" unicode="&#xdd;" horiz-adv-x="688" 
d="M453 0h-226v719l-215 967h236q63 -366 102 -639q27 188 109 639h217l-223 -967v-719zM403 1761h-192l223 330h256z" />
    <glyph glyph-name="Thorn" unicode="&#xde;" horiz-adv-x="677" 
d="M426 565v518q0 80 -78 80h-55v-678h57q76 0 76 80zM293 0h-223v1686h223v-300h55q154 0 227.5 -74t73.5 -229v-518q0 -149 -75.5 -226t-223.5 -77h-57v-262z" />
    <glyph glyph-name="germandbls" unicode="&#xdf;" horiz-adv-x="677" 
d="M328 -12v202q21 -6 53 -6q49 0 49 58v477q0 57 -49 57h-78v193h14q39 0 39 53v422q0 55 -45 55t-45 -55v-1444h-196v1452q0 252 241 252q240 0 240 -252v-430q0 -68 -43 -111q119 -38 119 -200v-469q0 -136 -53 -198t-175 -62q-29 0 -71 6z" />
    <glyph glyph-name="agrave" unicode="&#xe0;" 
d="M528 0h-182q-8 19 -8 63q-51 -81 -131 -81q-166 0 -166 200v187q0 111 30 173t97 109q29 20 158 90v297q0 49 -45 49t-45 -49v-268h-177v268q0 250 226 250q233 0 233 -250v-932q0 -68 10 -106zM326 209v371q-32 -13 -52 -33q-36 -29 -36 -98v-230q0 -20 12.5 -30.5
t32.5 -10.5q27 0 43 31zM430 1343h-192l-287 330h256z" />
    <glyph glyph-name="aacute" unicode="&#xe1;" 
d="M528 0h-182q-8 19 -8 63q-51 -81 -131 -81q-166 0 -166 200v187q0 111 30 173t97 109q29 20 158 90v297q0 49 -45 49t-45 -49v-268h-177v268q0 250 226 250q233 0 233 -250v-932q0 -68 10 -106zM326 209v371q-32 -13 -52 -33q-36 -29 -36 -98v-230q0 -20 12.5 -30.5
t32.5 -10.5q27 0 43 31zM348 1343h-192l223 330h256z" />
    <glyph glyph-name="acircumflex" unicode="&#xe2;" 
d="M528 0h-182q-8 19 -8 63q-51 -81 -131 -81q-166 0 -166 200v187q0 111 30 173t97 109q29 20 158 90v297q0 49 -45 49t-45 -49v-268h-177v268q0 250 226 250q233 0 233 -250v-932q0 -68 10 -106zM326 209v371q-32 -13 -52 -33q-36 -29 -36 -98v-230q0 -20 12.5 -30.5
t32.5 -10.5q27 0 43 31zM604 1343h-194l-117 224l-125 -224h-184l198 330h236z" />
    <glyph glyph-name="atilde" unicode="&#xe3;" 
d="M528 0h-182q-8 19 -8 63q-51 -81 -131 -81q-166 0 -166 200v187q0 111 30 173t97 109q29 20 158 90v297q0 49 -45 49t-45 -49v-268h-177v268q0 250 226 250q233 0 233 -250v-932q0 -68 10 -106zM326 209v371q-32 -13 -52 -33q-36 -29 -36 -98v-230q0 -20 12.5 -30.5
t32.5 -10.5q27 0 43 31zM547 1606v-168q-49 -49 -129 -49q-51 0 -134.5 31.5t-127.5 31.5q-70 0 -113 -55h-4v166q45 49 129 49q50 0 133 -30t129 -30q43 0 68 11.5t45 42.5h4z" />
    <glyph glyph-name="adieresis" unicode="&#xe4;" 
d="M528 0h-182q-8 19 -8 63q-51 -81 -131 -81q-166 0 -166 200v187q0 111 30 173t97 109q29 20 158 90v297q0 49 -45 49t-45 -49v-268h-177v268q0 250 226 250q233 0 233 -250v-932q0 -68 10 -106zM326 209v371q-32 -13 -52 -33q-36 -29 -36 -98v-230q0 -20 12.5 -30.5
t32.5 -10.5q27 0 43 31zM553 1368h-201v256h201v-256zM236 1368h-201v256h201v-256z" />
    <glyph glyph-name="aring" unicode="&#xe5;" 
d="M528 0h-182q-8 19 -8 63q-51 -81 -131 -81q-166 0 -166 200v187q0 111 30 173t97 109q29 20 158 90v297q0 49 -45 49t-45 -49v-268h-177v268q0 250 226 250q233 0 233 -250v-932q0 -68 10 -106zM326 209v371q-32 -13 -52 -33q-36 -29 -36 -98v-230q0 -20 12.5 -30.5
t32.5 -10.5q27 0 43 31zM397 1509q0 43 -24.5 62.5t-81.5 19.5q-109 0 -109 -82q0 -42 26 -59.5t83 -17.5t81.5 18t24.5 59zM498 1509q0 -72 -53 -115.5t-154 -43.5q-100 0 -151.5 43.5t-51.5 115.5q0 75 51 119.5t152 44.5t154 -44.5t53 -119.5z" />
    <glyph glyph-name="ae" unicode="&#xe6;" horiz-adv-x="849" 
d="M606 240v276h187v-278q0 -256 -232 -256q-66 0 -102.5 21t-67.5 71q-22 -46 -61 -69t-109 -23q-84 0 -132 49t-48 151v187q0 111 30 173t97 109q29 20 158 90v297q0 49 -45 49t-45 -49v-268h-177v268q0 250 226 250q88 0 141 -35q53 35 135 35q232 0 232 -260v-428h-275
v-362q0 -52 43 -52q45 0 45 54zM326 209v371q-32 -13 -52 -33q-36 -29 -36 -98v-230q0 -20 12.5 -30.5t32.5 -10.5q27 0 43 31zM606 743v285q0 51 -45 51q-43 0 -43 -51v-285h88z" />
    <glyph glyph-name="ccedilla" unicode="&#xe7;" horiz-adv-x="583" 
d="M344 240v278h186v-282q0 -254 -233 -254q-120 0 -180 68.5t-60 189.5v786q0 121 60.5 191.5t179.5 70.5q117 0 173 -69.5t56 -190.5v-274h-182v278q0 49 -45 49t-45 -49v-792q0 -54 45 -54t45 54zM283 -305h-47v63h40q23 0 23 25v29h-82v147h166v-176q0 -88 -100 -88z
" />
    <glyph glyph-name="egrave" unicode="&#xe8;" horiz-adv-x="575" 
d="M330 743v285q0 51 -45 51q-41 0 -41 -51v-285h86zM330 240v276h188v-278q0 -256 -233 -256q-228 0 -228 256v790q0 260 228 260q233 0 233 -260v-428h-274v-362q0 -52 41 -52q45 0 45 54zM426 1343h-193l-286 330h256z" />
    <glyph glyph-name="egrave" unicode="&#x450;" horiz-adv-x="575" 
d="M330 743v285q0 51 -45 51q-41 0 -41 -51v-285h86zM330 240v276h188v-278q0 -256 -233 -256q-228 0 -228 256v790q0 260 228 260q233 0 233 -260v-428h-274v-362q0 -52 41 -52q45 0 45 54zM426 1343h-193l-286 330h256z" />
    <glyph glyph-name="eacute" unicode="&#xe9;" horiz-adv-x="575" 
d="M330 743v285q0 51 -45 51q-41 0 -41 -51v-285h86zM330 240v276h188v-278q0 -256 -233 -256q-228 0 -228 256v790q0 260 228 260q233 0 233 -260v-428h-274v-362q0 -52 41 -52q45 0 45 54zM342 1343h-192l223 330h256z" />
    <glyph glyph-name="ecircumflex" unicode="&#xea;" horiz-adv-x="575" 
d="M330 743v285q0 51 -45 51q-41 0 -41 -51v-285h86zM330 240v276h188v-278q0 -256 -233 -256q-228 0 -228 256v790q0 260 228 260q233 0 233 -260v-428h-274v-362q0 -52 41 -52q45 0 45 54zM598 1343h-195l-116 224l-125 -224h-185l199 330h236z" />
    <glyph glyph-name="edieresis" unicode="&#xeb;" horiz-adv-x="575" 
d="M330 743v285q0 51 -45 51q-41 0 -41 -51v-285h86zM330 240v276h188v-278q0 -256 -233 -256q-228 0 -228 256v790q0 260 228 260q233 0 233 -260v-428h-274v-362q0 -52 41 -52q45 0 45 54zM547 1368h-201v256h201v-256zM229 1368h-200v256h200v-256z" />
    <glyph glyph-name="edieresis" unicode="&#x451;" horiz-adv-x="575" 
d="M330 743v285q0 51 -45 51q-41 0 -41 -51v-285h86zM330 240v276h188v-278q0 -256 -233 -256q-228 0 -228 256v790q0 260 228 260q233 0 233 -260v-428h-274v-362q0 -52 41 -52q45 0 45 54zM547 1368h-201v256h201v-256zM229 1368h-200v256h200v-256z" />
    <glyph glyph-name="igrave" unicode="&#xec;" horiz-adv-x="403" 
d="M332 0h-201v1268h201v-1268zM369 1343h-193l-287 330h256z" />
    <glyph glyph-name="iacute" unicode="&#xed;" horiz-adv-x="417" 
d="M274 0h-200v1268h200v-1268zM229 1343h-192l223 330h256z" />
    <glyph glyph-name="icircumflex" unicode="&#xee;" horiz-adv-x="516" 
d="M358 0h-200v1268h200v-1268zM567 1343h-194l-117 224l-125 -224h-184l198 330h236z" />
    <glyph glyph-name="idieresis" unicode="&#xef;" horiz-adv-x="518" 
d="M360 0h-200v1268h200v-1268zM518 1368h-201v256h201v-256zM201 1368h-201v256h201v-256z" />
    <glyph glyph-name="idieresis" unicode="&#x457;" horiz-adv-x="518" 
d="M360 0h-200v1268h200v-1268zM518 1368h-201v256h201v-256zM201 1368h-201v256h201v-256z" />
    <glyph glyph-name="eth" unicode="&#xf0;" horiz-adv-x="663" 
d="M57 274v541q0 129 60 189.5t164 60.5q70 0 120 -41v158q0 128 -18 188l-180 -207l-58 49l199 228q-39 41 -137 41v223q194 0 282 -96l89 98l57 -49l-98 -113q69 -132 69 -373v-897q0 -142 -69.5 -217t-204.5 -75q-136 0 -205.5 75t-69.5 217zM381 268v549q-11 29 -45 29
q-55 0 -55 -70v-508q0 -63 51 -63q49 0 49 63z" />
    <glyph glyph-name="ntilde" unicode="&#xf1;" horiz-adv-x="622" 
d="M559 0h-201v1042q0 50 -41 50q-29 0 -47 -21v-1071h-200v1268h170q6 -30 6 -68q58 88 155 88q158 0 158 -233v-1055zM565 1606v-168q-49 -49 -129 -49q-51 0 -134.5 31.5t-127.5 31.5q-70 0 -113 -55h-4v166q45 49 129 49q50 0 133 -30t130 -30q43 0 67.5 11.5t44.5 42.5
h4z" />
    <glyph glyph-name="ograve" unicode="&#xf2;" horiz-adv-x="598" 
d="M57 233v801q0 254 242 254t242 -254v-801q0 -251 -242 -251t-242 251zM344 242v784q0 55 -45 55t-45 -55v-784q0 -56 45 -56t45 56zM436 1343h-192l-287 330h256z" />
    <glyph glyph-name="oacute" unicode="&#xf3;" horiz-adv-x="598" 
d="M57 233v801q0 254 242 254t242 -254v-801q0 -251 -242 -251t-242 251zM344 242v784q0 55 -45 55t-45 -55v-784q0 -56 45 -56t45 56zM354 1343h-192l223 330h256z" />
    <glyph glyph-name="ocircumflex" unicode="&#xf4;" horiz-adv-x="598" 
d="M57 233v801q0 254 242 254t242 -254v-801q0 -251 -242 -251t-242 251zM344 242v784q0 55 -45 55t-45 -55v-784q0 -56 45 -56t45 56zM610 1343h-194l-117 224l-125 -224h-184l198 330h236z" />
    <glyph glyph-name="otilde" unicode="&#xf5;" horiz-adv-x="598" 
d="M57 233v801q0 254 242 254t242 -254v-801q0 -251 -242 -251t-242 251zM344 242v784q0 55 -45 55t-45 -55v-784q0 -56 45 -56t45 56zM553 1606v-168q-49 -49 -129 -49q-51 0 -134.5 31.5t-127.5 31.5q-70 0 -113 -55h-4v166q45 49 129 49q50 0 133 -30t129 -30
q43 0 68 11.5t45 42.5h4z" />
    <glyph glyph-name="odieresis" unicode="&#xf6;" horiz-adv-x="598" 
d="M57 233v801q0 254 242 254t242 -254v-801q0 -251 -242 -251t-242 251zM344 242v784q0 55 -45 55t-45 -55v-784q0 -56 45 -56t45 56zM559 1368h-201v256h201v-256zM242 1368h-201v256h201v-256z" />
    <glyph glyph-name="divide" unicode="&#xf7;" horiz-adv-x="962" 
d="M895 776h-825v166h825v-166zM584 1106h-207v256h207v-256zM584 356h-207v256h207v-256z" />
    <glyph glyph-name="oslash" unicode="&#xf8;" horiz-adv-x="598" 
d="M143 -193h-86l58 240q-58 64 -58 186v801q0 254 242 254q62 0 109 -20l47 192h86l-58 -241q58 -64 58 -185v-801q0 -251 -242 -251q-63 0 -109 16zM344 242v403l-90 -375v-28q0 -56 45 -56t45 56zM254 631l90 373v22q0 55 -45 55t-45 -55v-395z" />
    <glyph glyph-name="ugrave" unicode="&#xf9;" horiz-adv-x="618" 
d="M549 0h-170q-6 30 -6 68q-55 -78 -152 -78q-73 0 -115.5 57.5t-42.5 155.5v1065h201v-1032q0 -50 39 -50q27 0 45 21v1061h201v-1268zM446 1343h-192l-287 330h256z" />
    <glyph glyph-name="uacute" unicode="&#xfa;" horiz-adv-x="618" 
d="M549 0h-170q-6 30 -6 68q-55 -78 -152 -78q-73 0 -115.5 57.5t-42.5 155.5v1065h201v-1032q0 -50 39 -50q27 0 45 21v1061h201v-1268zM365 1343h-193l223 330h256z" />
    <glyph glyph-name="ucircumflex" unicode="&#xfb;" horiz-adv-x="618" 
d="M549 0h-170q-6 30 -6 68q-55 -78 -152 -78q-73 0 -115.5 57.5t-42.5 155.5v1065h201v-1032q0 -50 39 -50q27 0 45 21v1061h201v-1268zM621 1343h-195l-117 224l-125 -224h-184l199 330h235z" />
    <glyph glyph-name="udieresis" unicode="&#xfc;" horiz-adv-x="618" 
d="M549 0h-170q-6 30 -6 68q-55 -78 -152 -78q-73 0 -115.5 57.5t-42.5 155.5v1065h201v-1032q0 -50 39 -50q27 0 45 21v1061h201v-1268zM569 1368h-200v256h200v-256zM252 1368h-201v256h201v-256z" />
    <glyph glyph-name="yacute" unicode="&#xfd;" horiz-adv-x="571" 
d="M35 -287v199q23 -6 69 -6q40 0 57.5 35.5t24.5 109.5l-170 1217h209q11 -135 24.5 -297.5t19.5 -229.5t11 -141.5t7 -130.5q2 45 5 91t10.5 124t13 135t21 202t25.5 247h191l-166 -1241q-11 -83 -28 -139t-47.5 -99.5t-79.5 -63.5t-119 -20q-47 0 -78 8zM344 1343h-192
l223 330h256z" />
    <glyph glyph-name="thorn" unicode="&#xfe;" horiz-adv-x="624" 
d="M270 -285h-200v1971h200v-435q43 37 113 37q94 0 139 -56t45 -177v-842q0 -121 -45 -176t-139 -55q-73 0 -113 34v-301zM367 240v788q0 51 -50 51q-31 0 -47 -28v-834q15 -27 47 -27q50 0 50 50z" />
    <glyph glyph-name="ydieresis" unicode="&#xff;" horiz-adv-x="571" 
d="M35 -287v199q23 -6 69 -6q40 0 57.5 35.5t24.5 109.5l-170 1217h209q11 -135 24.5 -297.5t19.5 -229.5t11 -141.5t7 -130.5q2 45 5 91t10.5 124t13 135t21 202t25.5 247h191l-166 -1241q-11 -83 -28 -139t-47.5 -99.5t-79.5 -63.5t-119 -20q-47 0 -78 8zM549 1368h-201
v256h201v-256zM231 1368h-200v256h200v-256z" />
    <glyph glyph-name="Amacron" unicode="&#x100;" horiz-adv-x="694" 
d="M674 0h-223l-25 240h-164l-29 -240h-215l205 1686h258zM283 442h118q-31 300 -57 672q-25 -357 -61 -672zM590 1827h-488v172h488v-172z" />
    <glyph glyph-name="amacron" unicode="&#x101;" 
d="M528 0h-182q-8 19 -8 63q-51 -81 -131 -81q-166 0 -166 200v187q0 111 30 173t97 109q29 20 158 90v297q0 49 -45 49t-45 -49v-268h-177v268q0 250 226 250q233 0 233 -250v-932q0 -68 10 -106zM326 209v371q-32 -13 -52 -33q-36 -29 -36 -98v-230q0 -20 12.5 -30.5
t32.5 -10.5q27 0 43 31zM537 1409h-488v172h488v-172z" />
    <glyph glyph-name="Abreve" unicode="&#x102;" horiz-adv-x="694" 
d="M674 0h-223l-25 240h-164l-29 -240h-215l205 1686h258zM283 442h118q-31 300 -57 672q-25 -357 -61 -672zM446 2079h185q0 -178 -65.5 -244t-213.5 -66q-113 0 -173.5 26.5t-88 93t-27.5 190.5h183q0 -62 8 -104t23.5 -61.5t31 -26.5t37.5 -7t37.5 7t31 26.5t23.5 61.5
t8 104z" />
    <glyph glyph-name="abreve" unicode="&#x103;" 
d="M528 0h-182q-8 19 -8 63q-51 -81 -131 -81q-166 0 -166 200v187q0 111 30 173t97 109q29 20 158 90v297q0 49 -45 49t-45 -49v-268h-177v268q0 250 226 250q233 0 233 -250v-932q0 -68 10 -106zM326 209v371q-32 -13 -52 -33q-36 -29 -36 -98v-230q0 -20 12.5 -30.5
t32.5 -10.5q27 0 43 31zM393 1661h185q0 -91 -16.5 -151.5t-53 -95t-86 -48.5t-123.5 -14q-167 0 -228 63.5t-61 245.5h183q0 -62 8 -104t23.5 -61.5t31 -26.5t37.5 -7t37.5 7t31 26.5t23.5 61.5t8 104z" />
    <glyph glyph-name="Aogonek" unicode="&#x104;" horiz-adv-x="694" 
d="M727 -78v-22q0 -102 -53.5 -153.5t-181.5 -51.5q-81 0 -132 37t-51 104q0 54 38 93.5t106 58.5l-27 252h-164l-29 -240h-215l205 1686h258l193 -1686q-225 -29 -225 -123q0 -17 12.5 -30t40.5 -13q57 0 57 66v22h168zM283 442h118q-31 300 -57 672q-25 -357 -61 -672z
" />
    <glyph glyph-name="aogonek" unicode="&#x105;" 
d="M582 -78v-22q0 -102 -54 -153.5t-182 -51.5q-81 0 -131.5 37t-50.5 104q0 62 48 104.5t134 55.5q-8 24 -8 67q-51 -81 -131 -81q-166 0 -166 200v187q0 111 30 173t97 109q29 20 158 90v297q0 49 -45 49t-45 -49v-268h-177v268q0 250 226 250q233 0 233 -250v-932
q0 -68 10 -106q-225 -29 -225 -123q0 -17 12.5 -30t40.5 -13q58 0 58 66v22h168zM326 209v371q-32 -13 -52 -33q-36 -29 -36 -98v-230q0 -20 12.5 -30.5t32.5 -10.5q27 0 43 31z" />
    <glyph glyph-name="Cacute" unicode="&#x106;" horiz-adv-x="636" 
d="M387 268v350h203v-348q0 -149 -60 -218.5t-194 -69.5q-279 0 -279 284v1147q0 291 279 291q254 0 254 -287v-299h-203v299q0 64 -51 64t-51 -64v-1149q0 -63 51 -63t51 63zM373 1761h-193l223 330h256z" />
    <glyph glyph-name="cacute" unicode="&#x107;" horiz-adv-x="583" 
d="M344 240v278h186v-282q0 -254 -233 -254q-120 0 -180 68.5t-60 189.5v786q0 121 60.5 191.5t179.5 70.5q117 0 173 -69.5t56 -190.5v-274h-182v278q0 49 -45 49t-45 -49v-792q0 -54 45 -54t45 54zM346 1343h-192l223 330h256z" />
    <glyph glyph-name="Cdotaccent" unicode="&#x10a;" horiz-adv-x="636" 
d="M387 268v350h203v-348q0 -149 -60 -218.5t-194 -69.5q-279 0 -279 284v1147q0 291 279 291q254 0 254 -287v-299h-203v299q0 64 -51 64t-51 -64v-1149q0 -63 51 -63t51 63zM428 1786h-201v256h201v-256z" />
    <glyph glyph-name="cdotaccent" unicode="&#x10b;" horiz-adv-x="583" 
d="M344 240v278h186v-282q0 -254 -233 -254q-120 0 -180 68.5t-60 189.5v786q0 121 60.5 191.5t179.5 70.5q117 0 173 -69.5t56 -190.5v-274h-182v278q0 49 -45 49t-45 -49v-792q0 -54 45 -54t45 54zM391 1368h-201v256h201v-256z" />
    <glyph glyph-name="Ccaron" unicode="&#x10c;" horiz-adv-x="636" 
d="M387 268v350h203v-348q0 -149 -60 -218.5t-194 -69.5q-279 0 -279 284v1147q0 291 279 291q254 0 254 -287v-299h-203v299q0 64 -51 64t-51 -64v-1149q0 -63 51 -63t51 63zM440 1761h-235l-187 330h195l117 -223l125 223h184z" />
    <glyph glyph-name="ccaron" unicode="&#x10d;" horiz-adv-x="583" 
d="M344 240v278h186v-282q0 -254 -233 -254q-120 0 -180 68.5t-60 189.5v786q0 121 60.5 191.5t179.5 70.5q117 0 173 -69.5t56 -190.5v-274h-182v278q0 49 -45 49t-45 -49v-792q0 -54 45 -54t45 54zM403 1343h-235l-186 330h194l117 -223l125 223h184z" />
    <glyph glyph-name="Dcaron" unicode="&#x10e;" horiz-adv-x="673" 
d="M395 287v1112q0 63 -53 63h-49v-1239h49q53 0 53 64zM342 0h-272v1686h272q134 0 204 -76t70 -213v-1110q0 -287 -274 -287zM449 1761h-236l-186 330h194l117 -223l125 223h184z" />
    <glyph glyph-name="dcaron" unicode="&#x10f;" horiz-adv-x="831" 
d="M354 233v824q-14 26 -47 26q-49 0 -49 -49v-776q0 -53 49 -53q31 0 47 28zM555 0h-170q-6 30 -6 70q-19 -43 -52 -61.5t-94 -18.5q-81 0 -128.5 62t-47.5 177v826q0 121 45.5 177t139.5 56q69 0 112 -37v435h201v-1686zM676 1303h-27v88h27q24 0 33.5 11t9.5 36v37h-94
v211h206v-232q0 -66 -37 -108.5t-118 -42.5z" />
    <glyph glyph-name="dmacron" unicode="&#x111;" horiz-adv-x="624" 
d="M555 0h-170q-6 30 -6 70q-19 -43 -52 -61.5t-94 -18.5q-81 0 -128.5 62t-47.5 177v826q0 121 45.5 177t139.5 56q69 0 112 -37v127h-225v172h225v136h201v-136h61v-172h-61v-1378zM354 233v824q-14 26 -47 26q-49 0 -49 -49v-776q0 -53 49 -53q31 0 47 28z" />
    <glyph glyph-name="Emacron" unicode="&#x112;" horiz-adv-x="577" 
d="M543 0h-473v1686h462v-224h-239v-491h151v-223h-151v-525h250v-223zM532 1827h-487v172h487v-172z" />
    <glyph glyph-name="emacron" unicode="&#x113;" horiz-adv-x="575" 
d="M330 743v285q0 51 -45 51q-41 0 -41 -51v-285h86zM330 240v276h188v-278q0 -256 -233 -256q-228 0 -228 256v790q0 260 228 260q233 0 233 -260v-428h-274v-362q0 -52 41 -52q45 0 45 54zM532 1409h-487v172h487v-172z" />
    <glyph glyph-name="Ebreve" unicode="&#x114;" horiz-adv-x="577" 
d="M543 0h-473v1686h462v-224h-239v-491h151v-223h-151v-525h250v-223zM389 2079h184q0 -178 -65 -244t-213 -66q-113 0 -173.5 26.5t-88 93t-27.5 190.5h182q0 -118 27 -158.5t74 -40.5q22 0 37.5 7t31 26.5t23.5 61.5t8 104z" />
    <glyph glyph-name="ebreve" unicode="&#x115;" horiz-adv-x="575" 
d="M330 743v285q0 51 -45 51q-41 0 -41 -51v-285h86zM330 240v276h188v-278q0 -256 -233 -256q-228 0 -228 256v790q0 260 228 260q233 0 233 -260v-428h-274v-362q0 -52 41 -52q45 0 45 54zM387 1661h184q0 -178 -65 -243.5t-213 -65.5q-167 0 -228 63.5t-61 245.5h182
q0 -118 27 -158.5t74 -40.5q22 0 37.5 7t31 26.5t23.5 61.5t8 104z" />
    <glyph glyph-name="Edotaccent" unicode="&#x116;" horiz-adv-x="577" 
d="M543 0h-473v1686h462v-224h-239v-491h151v-223h-151v-525h250v-223zM399 1786h-200v256h200v-256z" />
    <glyph glyph-name="edotaccent" unicode="&#x117;" horiz-adv-x="575" 
d="M330 743v285q0 51 -45 51q-41 0 -41 -51v-285h86zM330 240v276h188v-278q0 -256 -233 -256q-228 0 -228 256v790q0 260 228 260q233 0 233 -260v-428h-274v-362q0 -52 41 -52q45 0 45 54zM387 1368h-201v256h201v-256z" />
    <glyph glyph-name="Eogonek" unicode="&#x118;" horiz-adv-x="577" 
d="M596 -78v-22q0 -102 -54 -153.5t-182 -51.5q-81 0 -131.5 37t-50.5 104q0 68 57.5 111t161.5 53h-327v1686h462v-224h-239v-491h151v-223h-151v-525h250v-223q-226 -30 -226 -123q0 -16 13 -29.5t41 -13.5q57 0 57 66v22h168z" />
    <glyph glyph-name="eogonek" unicode="&#x119;" horiz-adv-x="575" 
d="M475 -78v-22q0 -102 -53.5 -153.5t-181.5 -51.5q-81 0 -132 37t-51 104q0 57 41 97t115 57q-156 38 -156 248v790q0 260 228 260q233 0 233 -260v-428h-274v-362q0 -52 41 -52q45 0 45 54v276h188v-278q0 -218 -180 -252q-141 -30 -141 -109q0 -17 12.5 -30t40.5 -13
q57 0 57 66v22h168zM330 743v285q0 51 -45 51q-41 0 -41 -51v-285h86z" />
    <glyph glyph-name="Ecaron" unicode="&#x11a;" horiz-adv-x="577" 
d="M543 0h-473v1686h462v-224h-239v-491h151v-223h-151v-525h250v-223zM412 1761h-236l-186 330h194l117 -223l125 223h184z" />
    <glyph glyph-name="ecaron" unicode="&#x11b;" horiz-adv-x="575" 
d="M330 743v285q0 51 -45 51q-41 0 -41 -51v-285h86zM330 240v276h188v-278q0 -256 -233 -256q-228 0 -228 256v790q0 260 228 260q233 0 233 -260v-428h-274v-362q0 -52 41 -52q45 0 45 54zM399 1343h-235l-187 330h195l117 -223l125 223h184z" />
    <glyph glyph-name="Gbreve" unicode="&#x11e;" horiz-adv-x="665" 
d="M610 -10h-22l-72 67q-57 -75 -199 -75q-260 0 -260 286v1147q0 289 277 289q138 0 201 -72.5t63 -216.5v-297h-201v299q0 64 -63 64q-53 0 -53 -64v-1149q0 -63 51 -63q63 0 63 63v330h-71v213h286v-821zM432 2079h184q0 -178 -65 -244t-213 -66q-113 0 -173.5 26.5
t-88 93t-27.5 190.5h182q0 -118 27 -158.5t74 -40.5q22 0 37.5 7t31 26.5t23.5 61.5t8 104z" />
    <glyph glyph-name="gbreve" unicode="&#x11f;" horiz-adv-x="624" 
d="M360 -76v172q-43 -37 -120 -37q-93 0 -138 55.5t-45 176.5v747q0 115 47.5 177.5t128.5 62.5q55 0 87.5 -18.5t58.5 -61.5q0 40 6 70h170v-1334q0 -239 -240 -239q-132 0 -185.5 58.5t-53.5 180.5v52h180v-62q0 -55 53 -55q51 0 51 55zM360 281v753q-16 29 -51 29
q-53 0 -53 -53v-707q0 -51 53 -51q35 0 51 29zM412 1661h184q0 -91 -16.5 -151.5t-53 -95t-86 -48.5t-123.5 -14q-85 0 -138 13.5t-88 49t-48.5 94t-13.5 152.5h182q0 -62 8 -104t23.5 -61.5t31 -26.5t37.5 -7q47 0 74 40.5t27 158.5z" />
    <glyph glyph-name="Gdotaccent" unicode="&#x120;" horiz-adv-x="665" 
d="M610 -10h-22l-72 67q-57 -75 -199 -75q-260 0 -260 286v1147q0 289 277 289q138 0 201 -72.5t63 -216.5v-297h-201v299q0 64 -63 64q-53 0 -53 -64v-1149q0 -63 51 -63q63 0 63 63v330h-71v213h286v-821zM432 1786h-201v256h201v-256z" />
    <glyph glyph-name="gdotaccent" unicode="&#x121;" horiz-adv-x="624" 
d="M360 -76v172q-43 -37 -120 -37q-93 0 -138 55.5t-45 176.5v747q0 115 47.5 177.5t128.5 62.5q55 0 87.5 -18.5t58.5 -61.5q0 40 6 70h170v-1334q0 -239 -240 -239q-132 0 -185.5 58.5t-53.5 180.5v52h180v-62q0 -55 53 -55q51 0 51 55zM360 281v753q-16 29 -51 29
q-53 0 -53 -53v-707q0 -51 53 -51q35 0 51 29zM412 1368h-201v256h201v-256z" />
    <glyph glyph-name="Gcommaaccent" unicode="&#x122;" horiz-adv-x="665" 
d="M610 -10h-22l-72 67q-57 -75 -199 -75q-260 0 -260 286v1147q0 289 277 289q138 0 201 -72.5t63 -216.5v-297h-201v299q0 64 -63 64q-53 0 -53 -64v-1149q0 -63 51 -63q63 0 63 63v330h-71v213h286v-821zM326 -305h-47v63h40q23 0 23 25v29h-82v147h166v-176
q0 -88 -100 -88z" />
    <glyph glyph-name="gcommaaccent" unicode="&#x123;" horiz-adv-x="624" 
d="M360 -76v172q-43 -37 -120 -37q-93 0 -138 55.5t-45 176.5v747q0 115 47.5 177.5t128.5 62.5q55 0 87.5 -18.5t58.5 -61.5q0 40 6 70h170v-1334q0 -239 -240 -239q-132 0 -185.5 58.5t-53.5 180.5v52h180v-62q0 -55 53 -55q51 0 51 55zM360 281v753q-16 29 -51 29
q-53 0 -53 -53v-707q0 -51 53 -51q35 0 51 29zM330 1606h47v-64h-41q-23 0 -23 -24v-29h82v-148h-166v177q0 41 24.5 64.5t76.5 23.5z" />
    <glyph glyph-name="Hbar" unicode="&#x126;" horiz-adv-x="686" 
d="M616 0h-221v748h-102v-748h-223v1686h223v-271h102v271h221v-1686zM293 971h102v272h-102v-272z" />
    <glyph glyph-name="hbar" unicode="&#x127;" horiz-adv-x="622" 
d="M498 1378h-228v-143q59 53 136 53q153 0 153 -233v-1055h-201v1042q0 50 -41 50q-29 0 -47 -21v-1071h-200v1378h-60v172h60v136h200v-136h228v-172z" />
    <glyph glyph-name="hbar" unicode="&#x45b;" horiz-adv-x="622" 
d="M498 1378h-228v-143q59 53 136 53q153 0 153 -233v-1055h-201v1042q0 50 -41 50q-29 0 -47 -21v-1071h-200v1378h-60v172h60v136h200v-136h228v-172z" />
    <glyph glyph-name="Itilde" unicode="&#x128;" horiz-adv-x="507" 
d="M365 0h-224v1686h224v-1686zM508 2023v-168q-49 -49 -129 -49q-51 0 -134.5 32t-127.5 32q-70 0 -113 -55h-4v165q46 50 129 50q49 0 132 -30t130 -30q43 0 68.5 11t44.5 42h4z" />
    <glyph glyph-name="itilde" unicode="&#x129;" horiz-adv-x="507" 
d="M354 0h-200v1268h200v-1268zM508 1606v-168q-49 -49 -129 -49q-51 0 -134.5 31.5t-127.5 31.5q-70 0 -113 -55h-4v166q45 49 129 49q49 0 132 -30t130 -30q43 0 68 11.5t45 42.5h4z" />
    <glyph glyph-name="Imacron" unicode="&#x12a;" horiz-adv-x="370" 
d="M297 0h-223v1686h223v-1686zM430 1827h-487v172h487v-172z" />
    <glyph glyph-name="imacron" unicode="&#x12b;" horiz-adv-x="432" 
d="M315 0h-200v1268h200v-1268zM459 1409h-488v172h488v-172z" />
    <glyph glyph-name="Ibreve" unicode="&#x12c;" horiz-adv-x="370" 
d="M297 0h-223v1686h223v-1686zM285 2079h184q0 -178 -65.5 -244t-213.5 -66q-113 0 -173 26.5t-87.5 92.5t-27.5 191h182q0 -62 8 -104t23.5 -61.5t31 -26.5t37.5 -7q47 0 74 40.5t27 158.5z" />
    <glyph glyph-name="ibreve" unicode="&#x12d;" horiz-adv-x="503" 
d="M352 0h-200v1268h200v-1268zM350 1661h185q0 -91 -16.5 -151.5t-53 -95t-86 -48.5t-123.5 -14q-167 0 -228 63.5t-61 245.5h183q0 -62 8 -104t23.5 -61.5t31 -26.5t37.5 -7t37.5 7t31 26.5t23.5 61.5t8 104z" />
    <glyph glyph-name="Iogonek" unicode="&#x12e;" horiz-adv-x="370" 
d="M350 -78v-22q0 -102 -53.5 -153.5t-181.5 -51.5q-81 0 -132 37t-51 104q0 53 37.5 92t104.5 58v1700h223v-1686q-225 -29 -225 -123q0 -17 12.5 -30t40.5 -13q57 0 57 66v22h168z" />
    <glyph glyph-name="iogonek" unicode="&#x12f;" horiz-adv-x="346" 
d="M328 -78v-22q0 -102 -54 -153.5t-182 -51.5q-81 0 -131.5 37t-50.5 104q0 59 42.5 99t121.5 57v1276h200v-1268q-225 -29 -225 -123q0 -17 12.5 -30t40.5 -13q58 0 58 66v22h168zM274 1430h-200v256h200v-256z" />
    <glyph glyph-name="Idotaccent" unicode="&#x130;" horiz-adv-x="370" 
d="M297 0h-223v1686h223v-1686zM285 1786h-201v256h201v-256z" />
    <glyph glyph-name="dotlessi" unicode="&#x131;" horiz-adv-x="346" 
d="M274 0h-200v1268h200v-1268z" />
    <glyph glyph-name="IJ" unicode="&#x132;" horiz-adv-x="815" 
d="M297 0h-223v1686h223v-1686zM385 -2v221q35 -6 88 -6q55 0 55 74v1399h224v-1399q0 -299 -279 -299q-43 0 -88 10z" />
    <glyph glyph-name="ij" unicode="&#x133;" horiz-adv-x="716" 
d="M274 1430h-200v256h200v-256zM274 0h-200v1268h200v-1268zM643 1430h-201v256h201v-256zM313 -287v199q27 -6 78 -6t51 67v1295h201v-1295q0 -139 -62.5 -203.5t-189.5 -64.5q-51 0 -78 8z" />
    <glyph glyph-name="Kcommaaccent" unicode="&#x136;" horiz-adv-x="722" 
d="M721 0h-254q-131 544 -180 803q6 -123 6 -438v-365h-223v1686h223v-336q0 -277 -6 -371q17 98 176 707h237l-223 -752zM365 -305h-48v63h41q23 0 23 25v29h-82v147h166v-176q0 -88 -100 -88z" />
    <glyph glyph-name="kcommaaccent" unicode="&#x137;" horiz-adv-x="614" 
d="M608 0h-219l-70 334q-29 126 -57 303q4 -68 4 -313v-324h-196v1686h196v-648q0 -236 -4 -301q54 221 74 293l61 238h205l-156 -545zM315 -305h-47v63h41q23 0 23 25v29h-82v147h166v-176q0 -41 -24.5 -64.5t-76.5 -23.5z" />
    <glyph glyph-name="Lacute" unicode="&#x139;" horiz-adv-x="561" 
d="M543 0h-473v1686h223v-1463h250v-223zM236 1761h-193l223 330h256z" />
    <glyph glyph-name="lacute" unicode="&#x13a;" horiz-adv-x="339" 
d="M270 0h-200v1686h200v-1686zM225 1761h-192l223 330h256z" />
    <glyph glyph-name="Lcommaaccent" unicode="&#x13b;" horiz-adv-x="561" 
d="M543 0h-473v1686h223v-1463h250v-223zM283 -305h-47v63h40q23 0 23 25v29h-82v147h166v-176q0 -88 -100 -88z" />
    <glyph glyph-name="lcommaaccent" unicode="&#x13c;" horiz-adv-x="339" 
d="M270 0h-200v1686h200v-1686zM152 -305h-48v63h41q23 0 23 25v29h-82v147h166v-176q0 -88 -100 -88z" />
    <glyph glyph-name="Lcaron" unicode="&#x13d;" horiz-adv-x="620" 
d="M543 0h-473v1686h223v-1463h250v-223zM465 1303h-27v88h27q24 0 33.5 11t9.5 36v37h-94v211h207v-232q0 -66 -37.5 -108.5t-118.5 -42.5z" />
    <glyph glyph-name="lcaron" unicode="&#x13e;" horiz-adv-x="546" 
d="M270 0h-200v1686h200v-1686zM391 1303h-26v88h26q24 0 33.5 11t9.5 36v37h-94v211h207v-232q0 -66 -37.5 -108.5t-118.5 -42.5z" />
    <glyph glyph-name="Lslash" unicode="&#x141;" horiz-adv-x="571" 
d="M551 0h-473v999l-66 -38l-73 120l139 80v525h225v-396l86 53l70 -120l-156 -95v-905h248v-223z" />
    <glyph glyph-name="lslash" unicode="&#x142;" horiz-adv-x="464" 
d="M336 0h-203v1012l-100 -56l-72 119l172 96v515h203v-398l96 60l74 -119l-170 -101v-1128z" />
    <glyph glyph-name="Nacute" unicode="&#x143;" horiz-adv-x="731" 
d="M666 0h-213q-156 740 -207 1032q6 -199 6 -598v-434h-186v1686h256q51 -315 84.5 -532t53 -349t25.5 -174q-6 180 -6 528v527h187v-1686zM420 1761h-193l224 330h256z" />
    <glyph glyph-name="nacute" unicode="&#x144;" horiz-adv-x="622" 
d="M559 0h-201v1042q0 50 -41 50q-29 0 -47 -21v-1071h-200v1268h170q6 -30 6 -68q58 88 155 88q158 0 158 -233v-1055zM367 1343h-193l223 330h256z" />
    <glyph glyph-name="Ncommaaccent" unicode="&#x145;" horiz-adv-x="731" 
d="M666 0h-213q-156 740 -207 1032q6 -199 6 -598v-434h-186v1686h256q51 -315 84.5 -532t53 -349t25.5 -174q-6 180 -6 528v527h187v-1686zM348 -305h-47v63h41q23 0 23 25v29h-82v147h166v-176q0 -41 -24.5 -64.5t-76.5 -23.5z" />
    <glyph glyph-name="ncommaaccent" unicode="&#x146;" horiz-adv-x="622" 
d="M559 0h-201v1042q0 50 -41 50q-29 0 -47 -21v-1071h-200v1268h170q6 -30 6 -68q58 88 155 88q158 0 158 -233v-1055zM303 -305h-47v63h41q22 0 22 25v29h-81v147h165v-176q0 -88 -100 -88z" />
    <glyph glyph-name="Ncaron" unicode="&#x147;" horiz-adv-x="731" 
d="M666 0h-213q-156 740 -207 1032q6 -199 6 -598v-434h-186v1686h256q51 -315 84.5 -532t53 -349t25.5 -174q-6 180 -6 528v527h187v-1686zM477 1761h-235l-187 330h195l117 -223l125 223h184z" />
    <glyph glyph-name="ncaron" unicode="&#x148;" horiz-adv-x="622" 
d="M559 0h-201v1042q0 50 -41 50q-29 0 -47 -21v-1071h-200v1268h170q6 -30 6 -68q58 88 155 88q158 0 158 -233v-1055zM430 1343h-235l-187 330h195l116 -223l125 223h185z" />
    <glyph glyph-name="Eng" unicode="&#x14a;" horiz-adv-x="731" 
d="M336 -297v199q27 -6 78 -6q34 0 55 24q-169 793 -223 1112q6 -199 6 -598v-434h-186v1686h256q51 -315 84.5 -532t53 -349t25.5 -174q-6 180 -6 528v527h187v-1723q0 -139 -62.5 -203.5t-189.5 -64.5q-51 0 -78 8z" />
    <glyph glyph-name="eng" unicode="&#x14b;" horiz-adv-x="622" 
d="M229 -297v199q27 -6 78 -6t51 67v1079q0 50 -41 50q-29 0 -47 -21v-1071h-200v1268h170q6 -30 6 -68q58 88 155 88q158 0 158 -233v-1092q0 -139 -62.5 -203.5t-189.5 -64.5q-51 0 -78 8z" />
    <glyph glyph-name="Omacron" unicode="&#x14c;" horiz-adv-x="663" 
d="M57 268v1149q0 287 275 287q274 0 274 -287v-1149q0 -286 -274 -286q-275 0 -275 286zM383 268v1149q0 64 -51 64t-51 -64v-1149q0 -63 51 -63t51 63zM575 1827h-487v172h487v-172z" />
    <glyph glyph-name="omacron" unicode="&#x14d;" horiz-adv-x="598" 
d="M57 233v801q0 254 242 254t242 -254v-801q0 -251 -242 -251t-242 251zM344 242v784q0 55 -45 55t-45 -55v-784q0 -56 45 -56t45 56zM543 1409h-488v172h488v-172z" />
    <glyph glyph-name="Obreve" unicode="&#x14e;" horiz-adv-x="663" 
d="M57 268v1149q0 287 275 287q274 0 274 -287v-1149q0 -286 -274 -286q-275 0 -275 286zM383 268v1149q0 64 -51 64t-51 -64v-1149q0 -63 51 -63t51 63zM432 2079h184q0 -178 -65 -244t-213 -66q-113 0 -173.5 26.5t-88 93t-27.5 190.5h182q0 -118 27 -158.5t74 -40.5
q22 0 37.5 7t31 26.5t23.5 61.5t8 104z" />
    <glyph glyph-name="obreve" unicode="&#x14f;" horiz-adv-x="598" 
d="M57 233v801q0 254 242 254t242 -254v-801q0 -251 -242 -251t-242 251zM344 242v784q0 55 -45 55t-45 -55v-784q0 -56 45 -56t45 56zM399 1661h185q0 -91 -16.5 -151.5t-53 -95t-86 -48.5t-123.5 -14q-167 0 -228 63.5t-61 245.5h183q0 -62 8 -104t23.5 -61.5t31 -26.5
t37.5 -7t37.5 7t31 26.5t23.5 61.5t8 104z" />
    <glyph glyph-name="Ohungarumlaut" unicode="&#x150;" horiz-adv-x="663" 
d="M57 268v1149q0 287 275 287q274 0 274 -287v-1149q0 -286 -274 -286q-275 0 -275 286zM383 268v1149q0 64 -51 64t-51 -64v-1149q0 -63 51 -63t51 63zM559 1761h-192l223 330h258zM215 1761h-192l223 330h256z" />
    <glyph glyph-name="ohungarumlaut" unicode="&#x151;" horiz-adv-x="598" 
d="M57 233v801q0 254 242 254t242 -254v-801q0 -251 -242 -251t-242 251zM344 242v784q0 55 -45 55t-45 -55v-784q0 -56 45 -56t45 56zM526 1343h-192l223 330h258zM182 1343h-192l223 330h256z" />
    <glyph glyph-name="OE" unicode="&#x152;" horiz-adv-x="890" 
d="M856 0h-412q-46 -18 -112 -18q-275 0 -275 286v1149q0 287 275 287q66 0 112 -18h402v-224h-240v-491h152v-223h-152v-525h250v-223zM383 211v1264q-18 6 -51 6q-51 0 -51 -64v-1149q0 -63 51 -63q33 0 51 6z" />
    <glyph glyph-name="oe" unicode="&#x153;" horiz-adv-x="872" 
d="M627 240v276h188v-278q0 -256 -233 -256q-84 0 -142 34q-52 -34 -141 -34q-242 0 -242 251v801q0 254 242 254q87 0 143 -39q51 39 140 39q233 0 233 -260v-428h-274v-362q0 -52 41 -52q45 0 45 54zM344 242v784q0 55 -45 55t-45 -55v-784q0 -56 45 -56t45 56zM627 743
v285q0 51 -45 51q-41 0 -41 -51v-285h86z" />
    <glyph glyph-name="Racute" unicode="&#x154;" horiz-adv-x="681" 
d="M412 1032v350q0 80 -76 80h-43v-508h45q74 0 74 78zM651 0h-243q-45 500 -78 752h-37v-752h-223v1686h266q156 0 228.5 -70.5t72.5 -233.5v-348q0 -97 -22.5 -151.5t-73.5 -85.5q48 -303 110 -797zM395 1761h-192l223 330h256z" />
    <glyph glyph-name="racute" unicode="&#x155;" horiz-adv-x="423" 
d="M270 0h-200v1268h170q6 -30 6 -66q41 80 123 80q22 0 34 -6v-225q-22 16 -65 16q-55 0 -68 -35v-1032zM268 1343h-192l223 330h256z" />
    <glyph glyph-name="Rcommaaccent" unicode="&#x156;" horiz-adv-x="681" 
d="M412 1032v350q0 80 -76 80h-43v-508h45q74 0 74 78zM651 0h-243q-45 500 -78 752h-37v-752h-223v1686h266q156 0 228.5 -70.5t72.5 -233.5v-348q0 -97 -22.5 -151.5t-73.5 -85.5q48 -303 110 -797zM344 -305h-47v63h41q22 0 22 25v29h-81v147h165v-176q0 -88 -100 -88z
" />
    <glyph glyph-name="rcommaaccent" unicode="&#x157;" horiz-adv-x="423" 
d="M270 0h-200v1268h170q6 -30 6 -66q41 80 123 80q22 0 34 -6v-225q-22 16 -65 16q-55 0 -68 -35v-1032zM154 -305h-48v63h41q23 0 23 25v29h-82v147h166v-176q0 -88 -100 -88z" />
    <glyph glyph-name="Rcaron" unicode="&#x158;" horiz-adv-x="681" 
d="M412 1032v350q0 80 -76 80h-43v-508h45q74 0 74 78zM651 0h-243q-45 500 -78 752h-37v-752h-223v1686h266q156 0 228.5 -70.5t72.5 -233.5v-348q0 -97 -22.5 -151.5t-73.5 -85.5q48 -303 110 -797zM457 1761h-236l-186 330h194l117 -223l125 223h184z" />
    <glyph glyph-name="rcaron" unicode="&#x159;" horiz-adv-x="423" 
d="M270 0h-200v1268h170q6 -30 6 -66q41 80 123 80q22 0 34 -6v-225q-22 16 -65 16q-55 0 -68 -35v-1032zM324 1343h-236l-186 330h194l117 -223l125 223h184z" />
    <glyph glyph-name="Sacute" unicode="&#x15a;" horiz-adv-x="641" 
d="M371 260v240q0 63 -27.5 111t-136.5 188q-84 111 -121 194t-37 183v251q0 277 273 277q140 0 202 -67t62 -210v-309h-205v309q0 54 -53 54q-54 0 -54 -54v-249q0 -55 23 -96t107 -149q21 -27 32 -42q91 -121 123.5 -201t32.5 -188v-242q0 -138 -65 -208t-205 -70
q-273 0 -273 278v358h213v-358q0 -55 53 -55q56 0 56 55zM375 1761h-193l224 330h256z" />
    <glyph glyph-name="sacute" unicode="&#x15b;" horiz-adv-x="573" 
d="M522 334v-115q0 -126 -61 -181.5t-187 -55.5q-112 0 -168.5 60t-56.5 187v195h182v-191q0 -53 48 -53q43 0 43 53v132q0 49 -23 90.5t-106 136.5q-77 91 -110.5 161t-33.5 183v96q0 137 58.5 196.5t173.5 59.5q133 0 184 -59t51 -197v-194h-182v196q0 53 -47 53
q-41 0 -41 -53v-131q0 -58 24 -98t111 -135q86 -93 113.5 -159.5t27.5 -176.5zM342 1343h-192l223 330h256z" />
    <glyph glyph-name="Scedilla" unicode="&#x15e;" horiz-adv-x="641" 
d="M371 260v240q0 63 -27.5 111t-136.5 188q-84 111 -121 194t-37 183v251q0 277 273 277q140 0 202 -67t62 -210v-309h-205v309q0 54 -53 54q-54 0 -54 -54v-249q0 -55 23 -96t107 -149q21 -27 32 -42q91 -121 123.5 -201t32.5 -188v-242q0 -138 -65 -208t-205 -70
q-273 0 -273 278v358h213v-358q0 -55 53 -55q56 0 56 55zM303 -305h-47v63h41q22 0 22 25v29h-81v147h165v-176q0 -88 -100 -88z" />
    <glyph glyph-name="Scedilla" unicode="&#x218;" horiz-adv-x="641" 
d="M371 260v240q0 63 -27.5 111t-136.5 188q-84 111 -121 194t-37 183v251q0 277 273 277q140 0 202 -67t62 -210v-309h-205v309q0 54 -53 54q-54 0 -54 -54v-249q0 -55 23 -96t107 -149q21 -27 32 -42q91 -121 123.5 -201t32.5 -188v-242q0 -138 -65 -208t-205 -70
q-273 0 -273 278v358h213v-358q0 -55 53 -55q56 0 56 55zM303 -305h-47v63h41q22 0 22 25v29h-81v147h165v-176q0 -88 -100 -88z" />
    <glyph glyph-name="scedilla" unicode="&#x15f;" horiz-adv-x="573" 
d="M522 334v-115q0 -126 -61 -181.5t-187 -55.5q-112 0 -168.5 60t-56.5 187v195h182v-191q0 -53 48 -53q43 0 43 53v132q0 49 -23 90.5t-106 136.5q-77 91 -110.5 161t-33.5 183v96q0 137 58.5 196.5t173.5 59.5q133 0 184 -59t51 -197v-194h-182v196q0 53 -47 53
q-41 0 -41 -53v-131q0 -58 24 -98t111 -135q86 -93 113.5 -159.5t27.5 -176.5zM268 -305h-47v63h41q23 0 23 25v29h-82v147h166v-176q0 -41 -24.5 -64.5t-76.5 -23.5z" />
    <glyph glyph-name="scedilla" unicode="&#x219;" horiz-adv-x="573" 
d="M522 334v-115q0 -126 -61 -181.5t-187 -55.5q-112 0 -168.5 60t-56.5 187v195h182v-191q0 -53 48 -53q43 0 43 53v132q0 49 -23 90.5t-106 136.5q-77 91 -110.5 161t-33.5 183v96q0 137 58.5 196.5t173.5 59.5q133 0 184 -59t51 -197v-194h-182v196q0 53 -47 53
q-41 0 -41 -53v-131q0 -58 24 -98t111 -135q86 -93 113.5 -159.5t27.5 -176.5zM268 -305h-47v63h41q23 0 23 25v29h-82v147h166v-176q0 -41 -24.5 -64.5t-76.5 -23.5z" />
    <glyph glyph-name="Scaron" unicode="&#x160;" horiz-adv-x="641" 
d="M371 260v240q0 63 -27.5 111t-136.5 188q-84 111 -121 194t-37 183v251q0 277 273 277q140 0 202 -67t62 -210v-309h-205v309q0 54 -53 54q-54 0 -54 -54v-249q0 -55 23 -96t107 -149q21 -27 32 -42q91 -121 123.5 -201t32.5 -188v-242q0 -138 -65 -208t-205 -70
q-273 0 -273 278v358h213v-358q0 -55 53 -55q56 0 56 55zM440 1761h-235l-187 330h195l117 -223l125 223h184z" />
    <glyph glyph-name="scaron" unicode="&#x161;" horiz-adv-x="573" 
d="M522 334v-115q0 -126 -61 -181.5t-187 -55.5q-112 0 -168.5 60t-56.5 187v195h182v-191q0 -53 48 -53q43 0 43 53v132q0 49 -23 90.5t-106 136.5q-77 91 -110.5 161t-33.5 183v96q0 137 58.5 196.5t173.5 59.5q133 0 184 -59t51 -197v-194h-182v196q0 53 -47 53
q-41 0 -41 -53v-131q0 -58 24 -98t111 -135q86 -93 113.5 -159.5t27.5 -176.5zM401 1343h-235l-186 330h194l117 -223l125 223h184z" />
    <glyph glyph-name="Tcommaaccent" unicode="&#x162;" 
d="M406 0h-224v1462h-164v224h549v-224h-161v-1462zM279 -305h-48v63h41q23 0 23 25v29h-82v147h166v-176q0 -88 -100 -88z" />
    <glyph glyph-name="Tcommaaccent" unicode="&#x21a;" 
d="M406 0h-224v1462h-164v224h549v-224h-161v-1462zM279 -305h-48v63h41q23 0 23 25v29h-82v147h166v-176q0 -88 -100 -88z" />
    <glyph glyph-name="tcommaaccent" unicode="&#x163;" horiz-adv-x="391" 
d="M375 156v-170q-46 -4 -62 -4q-235 0 -235 262v850h-64v174h64v401h201v-401h92v-174h-92v-846q0 -52 23 -72t73 -20zM219 -305h-47v63h41q23 0 23 25v29h-82v147h165v-176q0 -88 -100 -88z" />
    <glyph glyph-name="tcommaaccent" unicode="&#x21b;" horiz-adv-x="391" 
d="M375 156v-170q-46 -4 -62 -4q-235 0 -235 262v850h-64v174h64v401h201v-401h92v-174h-92v-846q0 -52 23 -72t73 -20zM219 -305h-47v63h41q23 0 23 25v29h-82v147h165v-176q0 -88 -100 -88z" />
    <glyph glyph-name="Tcaron" unicode="&#x164;" 
d="M406 0h-224v1462h-164v224h549v-224h-161v-1462zM406 1761h-236l-186 330h194l117 -223l125 223h184z" />
    <glyph glyph-name="tcaron" unicode="&#x165;" horiz-adv-x="567" 
d="M375 156v-170q-46 -4 -62 -4q-235 0 -235 262v850h-64v174h64v401h201v-401h92v-174h-92v-846q0 -52 23 -72t73 -20zM412 1303h-27v88h27q24 0 33.5 11t9.5 36v37h-95v211h207v-232q0 -66 -37 -108.5t-118 -42.5z" />
    <glyph glyph-name="Tbar" unicode="&#x166;" 
d="M406 0h-224v770h-98v170h98v522h-164v224h549v-224h-161v-522h94v-170h-94v-770z" />
    <glyph glyph-name="tbar" unicode="&#x167;" horiz-adv-x="391" 
d="M362 580h-83v-332q0 -52 23 -72t73 -20v-170q-46 -4 -62 -4q-235 0 -235 262v336h-49v170h49v344h-64v174h64v401h201v-401h92v-174h-92v-344h83v-170z" />
    <glyph glyph-name="Utilde" unicode="&#x168;" horiz-adv-x="673" 
d="M389 268v1418h221v-1418q0 -286 -272 -286q-275 0 -275 286v1418h224v-1418q0 -63 51 -63t51 63zM590 2023v-168q-49 -49 -129 -49q-51 0 -134.5 32t-127.5 32q-70 0 -113 -55h-4v165q46 50 129 50q49 0 132.5 -30t129.5 -30q43 0 68.5 11t44.5 42h4z" />
    <glyph glyph-name="utilde" unicode="&#x169;" horiz-adv-x="618" 
d="M549 0h-170q-6 30 -6 68q-55 -78 -152 -78q-73 0 -115.5 57.5t-42.5 155.5v1065h201v-1032q0 -50 39 -50q27 0 45 21v1061h201v-1268zM563 1606v-168q-49 -49 -129 -49q-51 0 -134.5 31.5t-127.5 31.5q-70 0 -113 -55h-4v166q45 49 129 49q50 0 133 -30t129 -30
q43 0 68 11.5t45 42.5h4z" />
    <glyph glyph-name="Umacron" unicode="&#x16a;" horiz-adv-x="673" 
d="M389 268v1418h221v-1418q0 -286 -272 -286q-275 0 -275 286v1418h224v-1418q0 -63 51 -63t51 63zM580 1827h-488v172h488v-172z" />
    <glyph glyph-name="umacron" unicode="&#x16b;" horiz-adv-x="618" 
d="M549 0h-170q-6 30 -6 68q-55 -78 -152 -78q-73 0 -115.5 57.5t-42.5 155.5v1065h201v-1032q0 -50 39 -50q27 0 45 21v1061h201v-1268zM553 1409h-487v172h487v-172z" />
    <glyph glyph-name="Ubreve" unicode="&#x16c;" horiz-adv-x="673" 
d="M389 268v1418h221v-1418q0 -286 -272 -286q-275 0 -275 286v1418h224v-1418q0 -63 51 -63t51 63zM436 2079h185q0 -178 -65.5 -244t-213.5 -66q-113 0 -173.5 26.5t-88 93t-27.5 190.5h183q0 -62 8 -104t23.5 -61.5t31 -26.5t37.5 -7t37.5 7t31 26.5t23.5 61.5t8 104z
" />
    <glyph glyph-name="ubreve" unicode="&#x16d;" horiz-adv-x="618" 
d="M549 0h-170q-6 30 -6 68q-55 -78 -152 -78q-73 0 -115.5 57.5t-42.5 155.5v1065h201v-1032q0 -50 39 -50q27 0 45 21v1061h201v-1268zM410 1661h184q0 -91 -16.5 -151.5t-53 -95t-86 -48.5t-123.5 -14q-85 0 -138 13.5t-88 49t-48.5 94t-13.5 152.5h182q0 -62 8 -104
t23.5 -61.5t31 -26.5t37.5 -7q47 0 74 40.5t27 158.5z" />
    <glyph glyph-name="Uring" unicode="&#x16e;" horiz-adv-x="673" 
d="M389 268v1418h221v-1418q0 -286 -272 -286q-275 0 -275 286v1418h224v-1418q0 -63 51 -63t51 63zM440 1927q0 43 -24.5 62.5t-81.5 19.5q-109 0 -109 -82q0 -42 26 -60t83 -18t81.5 18.5t24.5 59.5zM541 1927q0 -72 -53 -116t-154 -44q-100 0 -151.5 44t-51.5 116
q0 75 51 119.5t152 44.5t154 -44.5t53 -119.5z" />
    <glyph glyph-name="uring" unicode="&#x16f;" horiz-adv-x="618" 
d="M549 0h-170q-6 30 -6 68q-55 -78 -152 -78q-73 0 -115.5 57.5t-42.5 155.5v1065h201v-1032q0 -50 39 -50q27 0 45 21v1061h201v-1268zM414 1509q0 43 -25 62.5t-82 19.5q-108 0 -108 -82q0 -42 25.5 -59.5t82.5 -17.5t82 18t25 59zM514 1509q0 -72 -53 -115.5t-154 -43.5
q-100 0 -151.5 43.5t-51.5 115.5q0 75 51 119.5t152 44.5t154 -44.5t53 -119.5z" />
    <glyph glyph-name="Uhungarumlaut" unicode="&#x170;" horiz-adv-x="673" 
d="M389 268v1418h221v-1418q0 -286 -272 -286q-275 0 -275 286v1418h224v-1418q0 -63 51 -63t51 63zM563 1761h-192l223 330h258zM219 1761h-192l223 330h256z" />
    <glyph glyph-name="uhungarumlaut" unicode="&#x171;" horiz-adv-x="618" 
d="M549 0h-170q-6 30 -6 68q-55 -78 -152 -78q-73 0 -115.5 57.5t-42.5 155.5v1065h201v-1032q0 -50 39 -50q27 0 45 21v1061h201v-1268zM537 1343h-193l223 330h258zM193 1343h-193l223 330h256z" />
    <glyph glyph-name="Uogonek" unicode="&#x172;" horiz-adv-x="673" 
d="M508 -78v-22q0 -102 -54 -153.5t-182 -51.5q-81 0 -131.5 37t-50.5 104q0 56 42 96.5t116 57.5q-185 41 -185 278v1418h224v-1418q0 -63 51 -63t51 63v1418h221v-1418q0 -135 -62 -199.5t-190 -84.5q-68 -10 -98.5 -40.5t-30.5 -66.5q0 -16 13 -29.5t41 -13.5q57 0 57 66
v22h168z" />
    <glyph glyph-name="uogonek" unicode="&#x173;" horiz-adv-x="618" 
d="M602 -78v-22q0 -102 -53.5 -153.5t-181.5 -51.5q-81 0 -132 37t-51 104q0 65 51 106.5t144 55.5q-6 18 -6 70q-55 -78 -152 -78q-73 0 -115.5 57.5t-42.5 155.5v1065h201v-1032q0 -50 39 -50q27 0 45 21v1061h201v-1268q-225 -29 -225 -123q0 -17 12.5 -30t40.5 -13
q57 0 57 66v22h168z" />
    <glyph glyph-name="Wcircumflex" unicode="&#x174;" horiz-adv-x="1099" 
d="M893 0h-258q-60 617 -76 804.5t-16 280.5q-7 -100 -103 -1085h-260l-162 1686h234q58 -779 80 -1176q11 202 119 1176h198q94 -1017 103 -1176q19 346 96 1176h233zM860 1761h-194l-117 224l-125 -224h-184l198 330h236z" />
    <glyph glyph-name="wcircumflex" unicode="&#x175;" horiz-adv-x="870" 
d="M725 0h-231q-63 651 -66 780q-2 -37 -8.5 -107t-25 -256.5t-38.5 -416.5h-229l-107 1268h185q36 -558 55 -885l84 885h178q23 -279 39.5 -488.5t22.5 -282t10 -114.5q3 52 72 885h182zM745 1343h-194l-117 224l-125 -224h-184l199 330h235z" />
    <glyph glyph-name="Ycircumflex" unicode="&#x176;" horiz-adv-x="688" 
d="M453 0h-226v719l-215 967h236q63 -366 102 -639q27 188 109 639h217l-223 -967v-719zM662 1761h-195l-117 224l-125 -224h-184l199 330h235z" />
    <glyph glyph-name="ycircumflex" unicode="&#x177;" horiz-adv-x="571" 
d="M35 -287v199q23 -6 69 -6q40 0 57.5 35.5t24.5 109.5l-170 1217h209q11 -135 24.5 -297.5t19.5 -229.5t11 -141.5t7 -130.5q2 45 5 91t10.5 124t13 135t21 202t25.5 247h191l-166 -1241q-11 -83 -28 -139t-47.5 -99.5t-79.5 -63.5t-119 -20q-47 0 -78 8zM600 1343h-194
l-117 224l-125 -224h-184l198 330h236z" />
    <glyph glyph-name="Ydieresis" unicode="&#x178;" horiz-adv-x="688" 
d="M453 0h-226v719l-215 967h236q63 -366 102 -639q27 188 109 639h217l-223 -967v-719zM608 1786h-200v256h200v-256zM291 1786h-201v256h201v-256z" />
    <glyph glyph-name="Ydieresis" unicode="&#x3ab;" horiz-adv-x="688" 
d="M453 0h-226v719l-215 967h236q63 -366 102 -639q27 188 109 639h217l-223 -967v-719zM608 1786h-200v256h200v-256zM291 1786h-201v256h201v-256z" />
    <glyph glyph-name="Zacute" unicode="&#x179;" horiz-adv-x="634" 
d="M592 0h-547v227l326 1241h-310v218h531v-201l-316 -1258h316v-227zM373 1761h-193l223 330h256z" />
    <glyph glyph-name="zacute" unicode="&#x17a;" horiz-adv-x="526" 
d="M481 0h-436v190l248 881h-244v197h434v-187l-237 -876h235v-205zM317 1343h-192l223 330h256z" />
    <glyph glyph-name="Zdotaccent" unicode="&#x17b;" horiz-adv-x="634" 
d="M592 0h-547v227l326 1241h-310v218h531v-201l-316 -1258h316v-227zM428 1786h-201v256h201v-256z" />
    <glyph glyph-name="zdotaccent" unicode="&#x17c;" horiz-adv-x="526" 
d="M481 0h-436v190l248 881h-244v197h434v-187l-237 -876h235v-205zM362 1368h-200v256h200v-256z" />
    <glyph glyph-name="Zcaron" unicode="&#x17d;" horiz-adv-x="634" 
d="M592 0h-547v227l326 1241h-310v218h531v-201l-316 -1258h316v-227zM440 1761h-235l-187 330h195l117 -223l125 223h184z" />
    <glyph glyph-name="zcaron" unicode="&#x17e;" horiz-adv-x="526" 
d="M481 0h-436v190l248 881h-244v197h434v-187l-237 -876h235v-205zM375 1343h-236l-186 330h194l117 -223l125 223h184z" />
    <glyph glyph-name="uni018E" unicode="&#x18e;" horiz-adv-x="577" 
d="M35 1686h473v-1686h-463v223h240v492h-152v223h152v524h-250v224z" />
    <glyph glyph-name="uni018F" unicode="&#x18f;" horiz-adv-x="647" 
d="M260 1417v-327h-203v325q0 149 60 219t194 70q279 0 279 -285v-1147q0 -290 -279 -290q-254 0 -254 286v615h305v534q0 64 -51 64t-51 -64zM362 268v445h-102v-445q0 -63 51 -63t51 63z" />
    <glyph glyph-name="uni018F" unicode="&#x4d8;" horiz-adv-x="647" 
d="M260 1417v-327h-203v325q0 149 60 219t194 70q279 0 279 -285v-1147q0 -290 -279 -290q-254 0 -254 286v615h305v534q0 64 -51 64t-51 -64zM362 268v445h-102v-445q0 -63 51 -63t51 63z" />
    <glyph glyph-name="florin" unicode="&#x192;" horiz-adv-x="854" 
d="M29 0v178q55 -10 116 -10q52 0 76 24t31 89l106 860h-141v170h160l14 98q20 164 94 229.5t238 65.5q69 0 121 -18v-179q-60 11 -119 11q-51 0 -76 -24.5t-31 -88.5l-10 -94h187v-170h-209l-105 -865q-20 -165 -92 -229.5t-239 -64.5q-80 0 -121 18z" />
    <glyph glyph-name="uni0194" unicode="&#x194;" horiz-adv-x="700" 
d="M358 -305q-128 0 -178.5 49.5t-50.5 159.5q0 63 16 153l113 580l-240 1049h232l106 -541l105 541h221l-227 -1041l116 -588q17 -96 17 -153q0 -110 -51 -159.5t-179 -49.5zM399 16l-43 183l-39 -183q-16 -74 -16 -127q0 -44 13 -65t44 -21t44.5 21t13.5 65q0 48 -17 127z
" />
    <glyph glyph-name="uni019D" unicode="&#x19d;" horiz-adv-x="731" 
d="M66 -27v1713h256q51 -315 84.5 -532t53 -349t25.5 -174q-6 180 -6 528v527h187v-1686h-213q-156 740 -207 1032q6 -199 6 -598v-461q0 -142 -57 -205t-185 -63q-46 0 -73 8v199q27 -6 63 -6q37 0 51.5 14.5t14.5 52.5z" />
    <glyph glyph-name="uni01A0" unicode="&#x1a0;" horiz-adv-x="745" 
d="M322 1704q38 0 88.5 -9t78.5 -9q36 0 51 12.5t15 46.5v143h190v-131q0 -178 -159 -209q20 -53 20 -131v-1149q0 -286 -274 -286q-275 0 -275 286v1149q0 141 69.5 214t195.5 73zM383 268v1149q0 64 -51 64t-51 -64v-1149q0 -63 51 -63t51 63z" />
    <glyph glyph-name="uni01A1" unicode="&#x1a1;" horiz-adv-x="708" 
d="M289 1288q36 0 86 -10t78 -10q37 0 51 12.5t14 46.5v143h191v-131q0 -190 -179 -211q11 -53 11 -94v-801q0 -251 -242 -251t-242 251v801q0 122 60.5 188t171.5 66zM344 242v784q0 55 -45 55t-45 -55v-784q0 -56 45 -56t45 56z" />
    <glyph glyph-name="uni01AF" unicode="&#x1af;" horiz-adv-x="862" 
d="M389 268v1418h221q34 0 48 13.5t14 45.5v143h190v-131q0 -113 -61.5 -164t-190.5 -51v-1274q0 -286 -272 -286q-275 0 -275 286v1418h224v-1418q0 -63 51 -63t51 63z" />
    <glyph glyph-name="uni01B0" unicode="&#x1b0;" horiz-adv-x="800" 
d="M549 0h-170q-6 30 -6 68q-55 -78 -146 -78q-79 0 -121.5 57t-42.5 156v1065h201v-1032q0 -50 39 -50q27 0 45 21v1061h201q34 0 47.5 13.5t13.5 45.5v143h191v-131q0 -113 -61.5 -164t-190.5 -51v-1124z" />
    <glyph glyph-name="uni01DD" unicode="&#x1dd;" horiz-adv-x="575" 
d="M246 526v-284q0 -52 45 -52q41 0 41 52v284h-86zM246 1030v-276h-189v278q0 256 234 256q227 0 227 -256v-790q0 -260 -227 -260q-234 0 -234 260v428h275v362q0 51 -41 51q-45 0 -45 -53z" />
    <glyph glyph-name="uni01DD" unicode="&#x4d9;" horiz-adv-x="575" 
d="M246 526v-284q0 -52 45 -52q41 0 41 52v284h-86zM246 1030v-276h-189v278q0 256 234 256q227 0 227 -256v-790q0 -260 -227 -260q-234 0 -234 260v428h275v362q0 51 -41 51q-45 0 -45 -53z" />
    <glyph glyph-name="uni01E6" unicode="&#x1e6;" horiz-adv-x="665" 
d="M610 -10h-22l-72 67q-57 -75 -199 -75q-260 0 -260 286v1147q0 289 277 289q138 0 201 -72.5t63 -216.5v-297h-201v299q0 64 -63 64q-53 0 -53 -64v-1149q0 -63 51 -63q63 0 63 63v330h-71v213h286v-821zM444 1761h-235l-186 330h194l117 -223l125 223h184z" />
    <glyph glyph-name="uni01E7" unicode="&#x1e7;" horiz-adv-x="624" 
d="M360 -76v172q-43 -37 -120 -37q-93 0 -138 55.5t-45 176.5v747q0 115 47.5 177.5t128.5 62.5q55 0 87.5 -18.5t58.5 -61.5q0 40 6 70h170v-1334q0 -239 -240 -239q-132 0 -185.5 58.5t-53.5 180.5v52h180v-62q0 -55 53 -55q51 0 51 55zM360 281v753q-16 29 -51 29
q-53 0 -53 -53v-707q0 -51 53 -51q35 0 51 29zM424 1343h-236l-186 330h195l116 -223l125 223h185z" />
    <glyph glyph-name="uni01F4" unicode="&#x1f4;" horiz-adv-x="665" 
d="M610 -10h-22l-72 67q-57 -75 -199 -75q-260 0 -260 286v1147q0 289 277 289q138 0 201 -72.5t63 -216.5v-297h-201v299q0 64 -63 64q-53 0 -53 -64v-1149q0 -63 51 -63q63 0 63 63v330h-71v213h286v-821zM393 1761h-192l223 330h256z" />
    <glyph glyph-name="uni01F5" unicode="&#x1f5;" horiz-adv-x="624" 
d="M360 -76v172q-43 -37 -120 -37q-93 0 -138 55.5t-45 176.5v747q0 115 47.5 177.5t128.5 62.5q55 0 87.5 -18.5t58.5 -61.5q0 40 6 70h170v-1334q0 -239 -240 -239q-132 0 -185.5 58.5t-53.5 180.5v52h180v-62q0 -55 53 -55q51 0 51 55zM360 281v753q-16 29 -51 29
q-53 0 -53 -53v-707q0 -51 53 -51q35 0 51 29zM342 1343h-192l223 330h256z" />
    <glyph glyph-name="uni01F8" unicode="&#x1f8;" horiz-adv-x="731" 
d="M666 0h-213q-156 740 -207 1032q6 -199 6 -598v-434h-186v1686h256q51 -315 84.5 -532t53 -349t25.5 -174q-6 180 -6 528v527h187v-1686zM502 1761h-193l-286 330h256z" />
    <glyph glyph-name="uni01F9" unicode="&#x1f9;" horiz-adv-x="622" 
d="M559 0h-201v1042q0 50 -41 50q-29 0 -47 -21v-1071h-200v1268h170q6 -30 6 -68q58 88 155 88q158 0 158 -233v-1055zM449 1343h-193l-287 330h256z" />
    <glyph glyph-name="dotlessj" unicode="&#x237;" horiz-adv-x="370" 
d="M-33 -287v199q27 -6 78 -6t51 67v1295h201v-1295q0 -139 -62.5 -203.5t-189.5 -64.5q-51 0 -78 8z" />
    <glyph glyph-name="uni0241" unicode="&#x241;" horiz-adv-x="616" 
d="M387 0h-221v610q0 130 22.5 196t77.5 134q46 56 62 84.5t23 69.5t7 125v198q0 64 -51 64t-51 -64v-299h-213v295q0 150 64 220.5t202 70.5q137 0 203 -70.5t66 -222.5v-194q0 -124 -24.5 -196.5t-80.5 -143.5q-39 -49 -53.5 -74t-23.5 -69.5t-9 -119.5v-614z" />
    <glyph glyph-name="uni0242" unicode="&#x242;" horiz-adv-x="602" 
d="M362 0h-200v276q0 132 19.5 198t70.5 132q44 56 59 84t22 69.5t7 125.5v116q0 64 -49 64t-49 -64v-217h-195v213q0 152 57 221.5t189 69.5t195 -70.5t63 -222.5v-112q0 -131 -23 -198.5t-77 -141.5q-52 -73 -70.5 -122t-18.5 -140v-281z" />
    <glyph glyph-name="uni024C" unicode="&#x24c;" horiz-adv-x="786" 
d="M758 -4h-244q-45 500 -78 752h-37v-752h-223v752h-176v202h176v731h266q157 0 229 -70t72 -233v-348q0 -97 -22.5 -151.5t-73.5 -85.5q53 -332 111 -797zM518 1028v350q0 80 -76 80h-43v-508h45q74 0 74 78z" />
    <glyph glyph-name="uni024D" unicode="&#x24d;" horiz-adv-x="464" 
d="M311 0h-200v551h-111v172h111v545h170q6 -30 6 -66q41 80 123 80q22 0 34 -6v-225q-22 16 -65 16q-55 0 -68 -35v-309h117v-172h-117v-551z" />
    <glyph glyph-name="uni0263" unicode="&#x263;" horiz-adv-x="571" 
d="M291 -305q-104 0 -143 50.5t-39 168.5q0 64 14 143l84 428l-191 783h201l72 -361l71 361h193l-182 -768l90 -443q14 -79 14 -153q0 -110 -40.5 -159.5t-143.5 -49.5zM322 16l-33 131l-31 -131q-12 -62 -12 -131q0 -82 45 -82q26 0 36.5 21.5t10.5 71.5q0 49 -16 120z" />
    <glyph glyph-name="uni0272" unicode="&#x272;" horiz-adv-x="622" 
d="M270 1071v-1071q0 -143 -64.5 -219t-191.5 -76q-46 0 -73 8v199q21 -6 65 -6q64 0 64 94v1268h170q6 -30 6 -68q58 88 155 88q158 0 158 -233v-1055h-201v1042q0 50 -41 50q-29 0 -47 -21z" />
    <glyph glyph-name="circumflex" unicode="&#x2c6;" horiz-adv-x="796" 
d="M709 1343h-195l-117 224l-125 -224h-184l199 330h235z" />
    <glyph glyph-name="caron" unicode="&#x2c7;" horiz-adv-x="796" 
d="M510 1343h-236l-186 330h195l116 -223l125 223h185z" />
    <glyph glyph-name="breve" unicode="&#x2d8;" horiz-adv-x="704" 
d="M453 1661h184q0 -91 -16.5 -151.5t-53 -95t-86 -48.5t-123.5 -14q-85 0 -138 13.5t-88 49t-48.5 94t-13.5 152.5h182q0 -62 8 -104t23.5 -61.5t31 -26.5t37.5 -7q47 0 74 40.5t27 158.5z" />
    <glyph glyph-name="dotaccent" unicode="&#x2d9;" horiz-adv-x="339" 
d="M270 1368h-200v256h200v-256z" />
    <glyph glyph-name="ring" unicode="&#x2da;" horiz-adv-x="546" 
d="M379 1509q0 43 -25 62.5t-82 19.5q-108 0 -108 -82q0 -42 25.5 -59.5t82.5 -17.5t82 18t25 59zM479 1509q0 -72 -53 -115.5t-154 -43.5q-100 0 -151 43.5t-51 115.5q0 75 50.5 119.5t151.5 44.5t154 -44.5t53 -119.5z" />
    <glyph glyph-name="ogonek" unicode="&#x2db;" horiz-adv-x="555" 
d="M487 -78v-22q0 -205 -221 -205q-94 0 -145 36t-51 103q0 71 58 113t161 53h145q-122 -16 -173.5 -49t-51.5 -70q0 -47 53 -47q57 0 57 66v22h168z" />
    <glyph glyph-name="tilde" unicode="&#x2dc;" horiz-adv-x="647" 
d="M578 1606v-168q-49 -49 -129 -49q-51 0 -135 31.5t-128 31.5q-69 0 -112 -55h-4v166q45 49 129 49q49 0 132 -30t130 -30q43 0 67.5 11.5t44.5 42.5h5z" />
    <glyph glyph-name="hungarumlaut" unicode="&#x2dd;" horiz-adv-x="962" 
d="M647 1343h-192l223 330h258zM303 1343h-192l223 330h256z" />
    <glyph glyph-name="gravecomb" unicode="&#x300;" horiz-adv-x="0" 
d="M-172 1343h-193l-286 330h256z" />
    <glyph glyph-name="acutecomb" unicode="&#x301;" horiz-adv-x="0" 
d="M-254 1343h-192l223 330h256z" />
    <glyph glyph-name="uni0302" unicode="&#x302;" horiz-adv-x="0" 
d="M0 1343h-195l-116 224l-125 -224h-185l199 330h236z" />
    <glyph glyph-name="tildecomb" unicode="&#x303;" horiz-adv-x="0" 
d="M-55 1606v-168q-49 -49 -129 -49q-51 0 -134.5 31.5t-127.5 31.5q-70 0 -113 -55h-4v166q45 49 129 49q50 0 133 -30t129 -30q43 0 68 11.5t45 42.5h4z" />
    <glyph glyph-name="uni0304" unicode="&#x304;" horiz-adv-x="0" 
d="M-66 1409h-487v172h487v-172z" />
    <glyph glyph-name="uni0306" unicode="&#x306;" horiz-adv-x="0" 
d="M-213 1661h184q0 -178 -65 -243.5t-213 -65.5q-167 0 -228 63.5t-61 245.5h182q0 -118 27 -158.5t74 -40.5q22 0 37.5 7t31 26.5t23.5 61.5t8 104z" />
    <glyph glyph-name="uni0307" unicode="&#x307;" horiz-adv-x="0" 
d="M-209 1368h-201v256h201v-256z" />
    <glyph glyph-name="uni0308" unicode="&#x308;" horiz-adv-x="0" 
d="M-51 1368h-201v256h201v-256zM-369 1368h-200v256h200v-256z" />
    <glyph glyph-name="hookabovecomb" unicode="&#x309;" horiz-adv-x="0" 
d="M-256 1354h-131v24q0 46 14.5 71t42.5 46q7 5 21.5 14.5t19 14t9 14.5t4.5 25v10q0 18 -25 18q-29 0 -29 -18v-23h-139v29q0 94 166 94q170 0 170 -94v-18q0 -44 -13.5 -64.5t-54.5 -46.5q-40 -25 -47.5 -35.5t-7.5 -36.5v-24z" />
    <glyph glyph-name="uni030A" unicode="&#x30a;" horiz-adv-x="0" 
d="M-207 1509q0 43 -24.5 62.5t-81.5 19.5q-109 0 -109 -82q0 -42 26 -59.5t83 -17.5t81.5 18t24.5 59zM-106 1509q0 -72 -53 -115.5t-154 -43.5q-100 0 -151.5 43.5t-51.5 115.5q0 75 51 119.5t152 44.5t154 -44.5t53 -119.5z" />
    <glyph glyph-name="uni030B" unicode="&#x30b;" horiz-adv-x="0" 
d="M-84 1343h-192l223 330h258zM-428 1343h-193l224 330h256z" />
    <glyph glyph-name="uni030C" unicode="&#x30c;" horiz-adv-x="0" 
d="M-199 1343h-235l-187 330h195l117 -223l125 223h184z" />
    <glyph glyph-name="uni0313" unicode="&#x313;" horiz-adv-x="0" 
d="M-209 1354h-207v170q0 65 39.5 107t116.5 42h27v-88h-27q-25 0 -34 -10.5t-9 -36.5v-8h94v-176z" />
    <glyph glyph-name="uni031B" unicode="&#x31b;" horiz-adv-x="116" 
d="M-197 1130v144q27 -6 62 -6q34 0 47.5 13.5t13.5 45.5v143h191v-131q0 -112 -59.5 -163.5t-180.5 -51.5q-44 0 -74 6z" />
    <glyph glyph-name="dotbelowcomb" unicode="&#x323;" horiz-adv-x="0" 
d="M-209 -305h-201v209h201v-209z" />
    <glyph glyph-name="uni0326" unicode="&#x326;" horiz-adv-x="0" 
d="M-328 -305h-47v63h41q23 0 23 25v29h-82v147h166v-176q0 -41 -24.5 -64.5t-76.5 -23.5z" />
    <glyph glyph-name="uni0328" unicode="&#x328;" horiz-adv-x="0" 
d="M-100 -78v-22q0 -205 -222 -205q-94 0 -145 36t-51 103q0 71 58 113t161 53h145q-122 -16 -173.5 -49t-51.5 -70q0 -47 53 -47q58 0 58 66v22h168z" />
    <glyph glyph-name="uni032D" unicode="&#x32d;" horiz-adv-x="0" 
d="M-35 -305h-172l-102 174l-111 -174h-164l176 256h209z" />
    <glyph glyph-name="tonos" unicode="&#x384;" horiz-adv-x="217" 
d="M166 1348h-146v407h183z" />
    <glyph glyph-name="dieresistonos" unicode="&#x385;" horiz-adv-x="696" 
d="M221 1368h-201v256h201v-256zM416 1348h-146v407h183zM676 1368h-201v256h201v-256z" />
    <glyph glyph-name="Alphatonos" unicode="&#x386;" horiz-adv-x="768" 
d="M166 1348h-146v407h183zM748 0h-224l-24 240h-164l-29 -240h-215l205 1686h258zM356 442h119q-31 300 -57 672q-23 -336 -62 -672z" />
    <glyph glyph-name="anoteleia" unicode="&#x387;" horiz-adv-x="321" 
d="M264 1012h-207v256h207v-256z" />
    <glyph glyph-name="Epsilontonos" unicode="&#x388;" horiz-adv-x="794" 
d="M166 1348h-146v407h183zM760 0h-473v1686h463v-224h-240v-491h152v-223h-152v-525h250v-223z" />
    <glyph glyph-name="Etatonos" unicode="&#x389;" horiz-adv-x="903" 
d="M166 1348h-146v407h183zM834 0h-222v748h-102v-748h-223v1686h223v-715h102v715h222v-1686z" />
    <glyph glyph-name="Iotatonos" unicode="&#x38a;" horiz-adv-x="587" 
d="M166 1348h-146v407h183zM514 0h-223v1686h223v-1686z" />
    <glyph glyph-name="Omicrontonos" unicode="&#x38c;" horiz-adv-x="839" 
d="M166 1348h-146v407h183zM233 268v1149q0 287 275 287q274 0 274 -287v-1149q0 -286 -274 -286q-275 0 -275 286zM559 268v1149q0 64 -51 64t-51 -64v-1149q0 -63 51 -63t51 63z" />
    <glyph glyph-name="Upsilontonos" unicode="&#x38e;" horiz-adv-x="905" 
d="M166 1348h-146v407h183zM670 0h-226v719l-215 967h236q63 -366 102 -639q27 188 109 639h217l-223 -967v-719z" />
    <glyph glyph-name="Omegatonos" unicode="&#x38f;" horiz-adv-x="839" 
d="M166 1348h-146v407h183zM510 1481q-34 0 -50 -17.5t-16 -58.5v-805q0 -267 41 -399v-201h-264v223h107q-42 45 -68.5 149t-26.5 228v803q0 160 64 230.5t213 70.5q150 0 213 -70t63 -231v-803q0 -125 -26 -228.5t-68 -148.5h107v-223h-264v201q40 129 40 399v805
q0 41 -15.5 58.5t-49.5 17.5z" />
    <glyph glyph-name="iotadieresistonos" unicode="&#x390;" horiz-adv-x="675" 
d="M547 168v-160q-40 -18 -119 -18q-94 0 -144.5 57t-50.5 162v1059h201v-1002q0 -55 12 -82.5t50 -27.5q30 0 51 12zM211 1368h-201v256h201v-256zM406 1348h-146v407h182zM666 1368h-201v256h201v-256z" />
    <glyph glyph-name="uni0413" unicode="&#x393;" horiz-adv-x="561" 
d="M70 1686h473v-224h-250v-1462h-223v1686z" />
    <glyph glyph-name="uni0413" unicode="&#x413;" horiz-adv-x="561" 
d="M70 1686h473v-224h-250v-1462h-223v1686z" />
    <glyph glyph-name="Delta" unicode="&#x394;" horiz-adv-x="700" 
d="M682 0h-664l191 1686h297zM260 223h170q-60 665 -80 1077q-16 -344 -90 -1077z" />
    <glyph glyph-name="Theta" unicode="&#x398;" horiz-adv-x="663" 
d="M57 268v1149q0 287 275 287q274 0 274 -287v-1149q0 -286 -274 -286q-275 0 -275 286zM383 268v480h-102v-480q0 -63 51 -63t51 63zM281 971h102v446q0 64 -51 64t-51 -64v-446z" />
    <glyph glyph-name="Lambda" unicode="&#x39b;" horiz-adv-x="700" 
d="M209 1686h297l176 -1686h-231q-90 1039 -101 1300q-43 -621 -110 -1300h-222z" />
    <glyph glyph-name="Xi" unicode="&#x39e;" horiz-adv-x="577" 
d="M543 0h-508v223h508v-223zM532 1462h-487v224h487v-224zM444 748h-311v223h311v-223z" />
    <glyph glyph-name="uni041F" unicode="&#x3a0;" horiz-adv-x="686" 
d="M616 0h-221v1462h-102v-1462h-223v1686h546v-1686z" />
    <glyph glyph-name="uni041F" unicode="&#x41f;" horiz-adv-x="686" 
d="M616 0h-221v1462h-102v-1462h-223v1686h546v-1686z" />
    <glyph glyph-name="Sigma" unicode="&#x3a3;" horiz-adv-x="587" 
d="M473 889l-229 -666h309v-223h-526v227l235 666l-209 592v201h490v-224h-273z" />
    <glyph glyph-name="uni0424" unicode="&#x3a6;" horiz-adv-x="862" 
d="M248 1186v-686q0 -44 17.5 -66t62.5 -31v879q-45 -9 -62.5 -30.5t-17.5 -65.5zM535 1282v-879q45 9 62 31t17 66v686q0 44 -17 65.5t-62 30.5zM53 516v653q0 84 9.5 135.5t37.5 94.5t82 65t140 31v191h219v-191q86 -9 140 -31t81.5 -65t37 -94.5t9.5 -135.5v-653
q0 -84 -9.5 -135.5t-37 -94.5t-81.5 -65t-140 -31v-190h-219v190q-86 9 -140 31t-82 65t-37.5 94.5t-9.5 135.5z" />
    <glyph glyph-name="uni0424" unicode="&#x424;" horiz-adv-x="862" 
d="M248 1186v-686q0 -44 17.5 -66t62.5 -31v879q-45 -9 -62.5 -30.5t-17.5 -65.5zM535 1282v-879q45 9 62 31t17 66v686q0 44 -17 65.5t-62 30.5zM53 516v653q0 84 9.5 135.5t37.5 94.5t82 65t140 31v191h219v-191q86 -9 140 -31t81.5 -65t37 -94.5t9.5 -135.5v-653
q0 -84 -9.5 -135.5t-37 -94.5t-81.5 -65t-140 -31v-190h-219v190q-86 9 -140 31t-82 65t-37.5 94.5t-9.5 135.5z" />
    <glyph glyph-name="Psi" unicode="&#x3a8;" horiz-adv-x="862" 
d="M53 737v949h195v-965q0 -44 17.5 -65.5t62.5 -30.5v1061h207v-1061q45 9 62 30.5t17 65.5v965h195v-949q0 -67 -5.5 -111t-21.5 -84.5t-46 -65t-77.5 -41t-117.5 -23.5v-412h-219v412q-87 9 -140.5 31t-81.5 64.5t-37.5 94.5t-9.5 135z" />
    <glyph glyph-name="Omega" unicode="&#x3a9;" horiz-adv-x="659" 
d="M330 1481q-34 0 -50 -17.5t-16 -58.5v-805q0 -267 41 -399v-201h-264v223h106q-42 45 -68 148.5t-26 228.5v803q0 160 64 230.5t213 70.5q150 0 213 -70t63 -231v-803q0 -125 -26 -228.5t-68 -148.5h106v-223h-264v201q41 132 41 399v805q0 41 -15.5 58.5t-49.5 17.5z
" />
    <glyph glyph-name="alphatonos" unicode="&#x3ac;" horiz-adv-x="688" 
d="M57 229v809q0 115 47.5 177.5t128.5 62.5q61 0 94 -18.5t52 -61.5q0 36 6 70h170v-1002q0 -55 11.5 -82.5t49.5 -27.5q31 0 52 12v-160q-40 -18 -119 -18q-118 0 -166 88q-29 -39 -69 -63.5t-81 -24.5q-81 0 -128.5 62t-47.5 177zM354 233v807q-16 29 -47 29
q-49 0 -49 -53v-758q0 -53 49 -53q31 0 47 28zM373 1348h-146v407h183z" />
    <glyph glyph-name="epsilontonos" unicode="&#x3ad;" horiz-adv-x="591" 
d="M262 524v-325q0 -47 49 -47q41 0 41 47v284h187v-284q0 -101 -61.5 -159t-178.5 -58q-120 0 -179 58t-59 159v315q0 105 91 133q-47 23 -66.5 53t-19.5 76v291q0 119 54.5 171t178.5 52t180 -52t56 -169v-242h-183v205q0 49 -39 49q-51 0 -51 -49v-244q0 -23 12 -35
t31 -12h131v-170h-127q-47 0 -47 -47zM362 1348h-145v407h182z" />
    <glyph glyph-name="etatonos" unicode="&#x3ae;" horiz-adv-x="622" 
d="M559 -285h-201v1327q0 50 -41 50q-29 0 -47 -21v-1071h-200v1268h170q6 -30 6 -68q58 88 155 88q158 0 158 -233v-1340zM377 1348h-146v407h183z" />
    <glyph glyph-name="iotatonos" unicode="&#x3af;" horiz-adv-x="407" 
d="M387 168v-160q-40 -18 -119 -18q-93 0 -143.5 57t-50.5 162v1059h200v-1002q0 -55 12 -82.5t50 -27.5q30 0 51 12zM250 1348h-146v407h183z" />
    <glyph glyph-name="upsilondieresistonos" unicode="&#x3b0;" horiz-adv-x="679" 
d="M575 1268v-1035q0 -251 -241 -251q-242 0 -242 251v1035h197v-1026q0 -56 45 -56t45 56v1026h196zM213 1368h-201v256h201v-256zM408 1348h-146v407h182zM668 1368h-201v256h201v-256z" />
    <glyph glyph-name="alpha" unicode="&#x3b1;" horiz-adv-x="688" 
d="M57 229v809q0 115 47.5 177.5t128.5 62.5q61 0 94 -18.5t52 -61.5q0 36 6 70h170v-1002q0 -55 11.5 -82.5t49.5 -27.5q31 0 52 12v-160q-40 -18 -119 -18q-118 0 -166 88q-29 -39 -69 -63.5t-81 -24.5q-81 0 -128.5 62t-47.5 177zM354 233v807q-16 29 -47 29
q-49 0 -49 -53v-758q0 -53 49 -53q31 0 47 28z" />
    <glyph glyph-name="beta" unicode="&#x3b2;" horiz-adv-x="628" 
d="M375 -18q-52 0 -105 16v-283h-200v1737q0 252 241 252q240 0 240 -252v-424q0 -41 -17 -76.5t-40 -48.5q71 -42 71 -186v-475q0 -139 -45.5 -199.5t-144.5 -60.5zM270 1444v-1247q26 -13 54 -13q22 0 32.5 13t10.5 45v483q0 30 -9.5 43.5t-33.5 13.5h-25v193h23
q38 0 38 53v416q0 55 -45 55t-45 -55z" />
    <glyph glyph-name="uni04AF" unicode="&#x3b3;" horiz-adv-x="571" 
d="M383 63v-348h-201v348l-166 1205h201l66 -723l77 723h193z" />
    <glyph glyph-name="uni04AF" unicode="&#x4af;" horiz-adv-x="571" 
d="M383 63v-348h-201v348l-166 1205h201l66 -723l77 723h193z" />
    <glyph glyph-name="delta" unicode="&#x3b4;" horiz-adv-x="604" 
d="M535 1503h-152q158 -154 158 -368v-902q0 -251 -240 -251q-244 0 -244 251v801q0 128 49 191t140 63q35 0 86 -14q-26 82 -92.5 143.5t-137.5 85.5v183h433v-183zM299 186q45 0 45 56v848q-23 10 -43 10q-47 0 -47 -56v-802q0 -56 45 -56z" />
    <glyph glyph-name="epsilon" unicode="&#x3b5;" horiz-adv-x="591" 
d="M262 524v-325q0 -47 49 -47q41 0 41 47v284h187v-284q0 -101 -61.5 -159t-178.5 -58q-120 0 -179 58t-59 159v315q0 105 91 133q-47 23 -66.5 53t-19.5 76v291q0 119 54.5 171t178.5 52t180 -52t56 -169v-242h-183v205q0 49 -39 49q-51 0 -51 -49v-244q0 -23 12 -35
t31 -12h131v-170h-127q-47 0 -47 -47z" />
    <glyph glyph-name="zeta" unicode="&#x3b6;" horiz-adv-x="536" 
d="M252 494v-82q0 -107 31 -146q21 -26 84.5 -74t87.5 -75q53 -60 53 -176q0 -246 -201 -246h-174v209h154q22 0 31.5 7.5t9.5 27.5q0 33 -31 61q-10 9 -49.5 40t-77.5 65.5t-61 66.5q-28 38 -41 89t-13 151v82q0 121 11.5 196.5t37.5 155.5l215 657h-251v183h434v-187
l-211 -680q-22 -71 -30.5 -138t-8.5 -187z" />
    <glyph glyph-name="eta" unicode="&#x3b7;" horiz-adv-x="622" 
d="M559 -285h-201v1327q0 50 -41 50q-29 0 -47 -21v-1071h-200v1268h170q6 -30 6 -68q58 88 155 88q158 0 158 -233v-1340z" />
    <glyph glyph-name="theta" unicode="&#x3b8;" horiz-adv-x="598" 
d="M57 233v1217q0 254 242 254t242 -254v-1217q0 -251 -242 -251t-242 251zM344 242v518h-90v-518q0 -56 45 -56t45 56zM254 1442v-477h90v477q0 55 -45 55t-45 -55z" />
    <glyph glyph-name="iota" unicode="&#x3b9;" horiz-adv-x="407" 
d="M387 168v-160q-40 -18 -119 -18q-93 0 -143.5 57t-50.5 162v1059h200v-1002q0 -55 12 -82.5t50 -27.5q30 0 51 12z" />
    <glyph glyph-name="uni043A" unicode="&#x3ba;" horiz-adv-x="614" 
d="M608 0h-219l-70 334q-36 171 -57 303q4 -68 4 -313v-324h-196v1268h196v-230q0 -236 -4 -301q32 132 74 293l61 238h205l-156 -545z" />
    <glyph glyph-name="uni043A" unicode="&#x43a;" horiz-adv-x="614" 
d="M608 0h-219l-70 334q-36 171 -57 303q4 -68 4 -313v-324h-196v1268h196v-230q0 -236 -4 -301q32 132 74 293l61 238h205l-156 -545z" />
    <glyph glyph-name="lambda" unicode="&#x3bb;" horiz-adv-x="571" 
d="M18 1489v199q31 8 78 8q135 0 194 -74.5t81 -232.5l182 -1389h-199q-46 397 -67 764q-12 -157 -76 -764h-195l168 1235l-16 135q-8 64 -25.5 94.5t-54.5 30.5q-47 0 -70 -6z" />
    <glyph glyph-name="mu" unicode="&#x3bc;" horiz-adv-x="688" 
d="M270 -285h-200v1553h200v-1032q0 -50 39 -50q24 0 45 21v1061h201v-1002q0 -55 11.5 -82.5t49.5 -27.5q31 0 52 12v-160q-40 -18 -111 -18q-124 0 -174 86q-47 -70 -113 -82v-279z" />
    <glyph glyph-name="xi" unicode="&#x3be;" horiz-adv-x="530" 
d="M59 997v138q0 214 158 368h-151v183h432v-183q-91 -30 -166.5 -115t-75.5 -194v-184q0 -23 12 -35t31 -12h145v-170h-145q-47 0 -47 -48v-383q0 -57 31 -96q21 -26 84.5 -74t87.5 -75q53 -60 53 -176q0 -246 -201 -246h-174v209h154q22 0 31.5 7.5t9.5 27.5q0 33 -31 61
q-2 2 -84 64.5t-111 103.5q-47 64 -47 190v377q0 106 90 133q-47 23 -66.5 53t-19.5 76z" />
    <glyph glyph-name="pi" unicode="&#x3c0;" horiz-adv-x="724" 
d="M705 168v-160q-40 -18 -119 -18q-94 0 -144.5 57t-50.5 162v885h-88v-1094h-201v1094h-82v174h666v-174h-94v-828q0 -55 11.5 -82.5t49.5 -27.5q31 0 52 12z" />
    <glyph glyph-name="rho" unicode="&#x3c1;" horiz-adv-x="618" 
d="M360 233v793q0 55 -49 55q-47 0 -47 -55v-815q15 -27 47 -27q49 0 49 49zM561 1034v-821q0 -121 -45 -176t-139 -55q-73 0 -113 34v-301h-201v1319q0 254 248 254q250 0 250 -254z" />
    <glyph glyph-name="sigma1" unicode="&#x3c2;" horiz-adv-x="571" 
d="M344 754v278q0 49 -45 49t-45 -49v-670q0 -57 31 -96q21 -26 85 -74.5t87 -74.5q53 -60 53 -176q0 -246 -201 -246h-174v209h154q22 0 31.5 7.5t9.5 27.5q0 33 -31 61q-2 2 -84 64.5t-111 103.5q-47 64 -47 190v668q0 121 60.5 191.5t179.5 70.5q117 0 173 -69.5
t56 -190.5v-274h-182z" />
    <glyph glyph-name="sigma" unicode="&#x3c3;" horiz-adv-x="659" 
d="M57 233v781q0 254 242 254h348v-205h-127q6 -21 6 -49v-781q0 -126 -53.5 -188.5t-173.5 -62.5q-242 0 -242 251zM344 242v764q0 55 -45 55t-45 -55v-764q0 -56 45 -56t45 56z" />
    <glyph glyph-name="tau" unicode="&#x3c4;" horiz-adv-x="466" 
d="M334 266q0 -55 11.5 -82.5t49.5 -27.5q30 0 51 12v-160q-40 -18 -118 -18q-94 0 -144.5 57t-50.5 162v854h-113v205h426v-205h-112v-797z" />
    <glyph glyph-name="upsilon" unicode="&#x3c5;" horiz-adv-x="610" 
d="M547 1268v-1035q0 -251 -242 -251t-242 251v1035h197v-1026q0 -56 45 -56t45 56v1026h197z" />
    <glyph glyph-name="uni0444" unicode="&#x3c6;" horiz-adv-x="851" 
d="M526 -285h-200v269q-269 12 -269 249v801q0 240 269 252v400h200v-400q269 -12 269 -252v-801q0 -237 -269 -249v-269zM250 233q0 -27 23 -41t61 -14v912q-38 0 -61 -14.5t-23 -41.5v-801zM602 233v801q0 27 -23 41.5t-61 14.5v-912q38 0 61 14t23 41z" />
    <glyph glyph-name="uni0444" unicode="&#x444;" horiz-adv-x="851" 
d="M526 -285h-200v269q-269 12 -269 249v801q0 240 269 252v400h200v-400q269 -12 269 -252v-801q0 -237 -269 -249v-269zM250 233q0 -27 23 -41t61 -14v912q-38 0 -61 -14.5t-23 -41.5v-801zM602 233v801q0 27 -23 41.5t-61 14.5v-912q38 0 61 14t23 41z" />
    <glyph glyph-name="chi" unicode="&#x3c7;" horiz-adv-x="587" 
d="M580 -285h-207q-29 210 -84 670q-13 -175 -80 -670h-201l154 834l-127 719h209q17 -137 27.5 -236.5t17 -184.5t8.5 -102q29 322 57 523h199l-129 -715z" />
    <glyph glyph-name="psi" unicode="&#x3c8;" horiz-adv-x="868" 
d="M618 233v1035h193v-1035q0 -117 -70 -180t-206 -69v-269h-201v269q-137 6 -207 69t-70 180v1035h193v-1035q0 -26 26.5 -40.5t65.5 -14.5v1090h184v-1090q39 0 65.5 14.5t26.5 40.5z" />
    <glyph glyph-name="omega" unicode="&#x3c9;" horiz-adv-x="878" 
d="M535 864v-622q0 -56 45 -56t45 56v784q0 55 -45 55v207q241 0 241 -254v-801q0 -123 -56.5 -187t-162.5 -64q-105 0 -164 86q-56 -86 -162 -86t-162.5 64t-56.5 187v801q0 254 242 254v-207q-45 0 -45 -55v-784q0 -56 45 -56t45 56v622h191z" />
    <glyph glyph-name="iotadieresis" unicode="&#x3ca;" horiz-adv-x="550" 
d="M494 168v-160q-40 -18 -119 -18q-94 0 -144.5 57t-50.5 162v1059h201v-1002q0 -55 11.5 -82.5t49.5 -27.5q31 0 52 12zM537 1368h-201v256h201v-256zM219 1368h-201v256h201v-256z" />
    <glyph glyph-name="upsilondieresis" unicode="&#x3cb;" horiz-adv-x="610" 
d="M547 1268v-1035q0 -251 -242 -251t-242 251v1035h197v-1026q0 -56 45 -56t45 56v1026h197zM565 1368h-200v256h200v-256zM248 1368h-201v256h201v-256z" />
    <glyph glyph-name="omicrontonos" unicode="&#x3cc;" horiz-adv-x="598" 
d="M57 233v801q0 254 242 254t242 -254v-801q0 -251 -242 -251t-242 251zM344 242v784q0 55 -45 55t-45 -55v-784q0 -56 45 -56t45 56zM365 1348h-146v407h182z" />
    <glyph glyph-name="upsilontonos" unicode="&#x3cd;" horiz-adv-x="610" 
d="M547 1268v-1035q0 -251 -242 -251t-242 251v1035h197v-1026q0 -56 45 -56t45 56v1026h197zM371 1348h-146v407h183z" />
    <glyph glyph-name="omegatonos" unicode="&#x3ce;" horiz-adv-x="878" 
d="M535 864v-622q0 -56 45 -56t45 56v784q0 55 -45 55v207q241 0 241 -254v-801q0 -123 -56.5 -187t-162.5 -64q-105 0 -164 86q-56 -86 -162 -86t-162.5 64t-56.5 187v801q0 254 242 254v-207q-45 0 -45 -55v-784q0 -56 45 -56t45 56v622h191zM506 1348h-146v407h183z" />
    <glyph glyph-name="uni0402" unicode="&#x402;" horiz-adv-x="841" 
d="M510 -27v748q0 35 -13.5 49t-45.5 14q-22 0 -41 -8v-776h-224v1462h-168v224h572v-224h-180v-463q36 9 86 9q110 0 173.5 -74t63.5 -213v-748q0 -139 -70 -203.5t-210 -64.5q-57 0 -88 8v199q30 -6 88 -6q57 0 57 67z" />
    <glyph glyph-name="uni0403" unicode="&#x403;" horiz-adv-x="561" 
d="M70 1686h473v-224h-250v-1462h-223v1686zM356 1761h-192l223 330h256z" />
    <glyph glyph-name="uni0404" unicode="&#x404;" horiz-adv-x="636" 
d="M387 268v322h203v-320q0 -149 -60 -218.5t-194 -69.5q-279 0 -279 284v1147q0 291 279 291q254 0 254 -287v-289h-203v289q0 64 -51 64t-51 -64v-446h262v-223h-262v-480q0 -63 51 -63t51 63z" />
    <glyph glyph-name="uni0409" unicode="&#x409;" horiz-adv-x="1062" 
d="M223 1686h467v-715h51q154 0 224.5 -72t70.5 -231v-363q0 -159 -71.5 -232t-225.5 -73h-272v1462h-64l-26 -526q-28 -527 -72 -709q-13 -54 -29 -91.5t-44.5 -70.5t-73.5 -49t-107 -16h-33v223h27q34 0 52 15.5t34 70.5q35 117 59 670zM817 303v373q0 78 -76 78h-51v-531
h49q78 0 78 80z" />
    <glyph glyph-name="uni040A" unicode="&#x40a;" horiz-adv-x="991" 
d="M395 1686h223v-715h52q154 0 224.5 -72t70.5 -231v-363q0 -159 -71.5 -232t-225.5 -73h-273v748h-102v-748h-223v1686h223v-715h102v715zM745 303v373q0 78 -75 78h-52v-531h50q77 0 77 80z" />
    <glyph glyph-name="uni040B" unicode="&#x40b;" horiz-adv-x="841" 
d="M18 1686h572v-224h-180v-463q36 9 86 9q110 0 173.5 -74t63.5 -213v-721h-223v721q0 35 -13.5 49t-45.5 14q-22 0 -41 -8v-776h-224v1462h-168v224z" />
    <glyph glyph-name="uni040C" unicode="&#x40c;" horiz-adv-x="722" 
d="M721 0h-254q-131 544 -180 803q6 -123 6 -438v-365h-223v1686h223v-336q0 -277 -6 -371q17 98 176 707h237l-223 -752zM438 1761h-192l223 330h256z" />
    <glyph glyph-name="uni040D" unicode="&#x40d;" horiz-adv-x="686" 
d="M283 0h-213v1686h202v-953l88 953h256v-1686h-202v971zM479 1761h-192l-287 330h256z" />
    <glyph glyph-name="uni040E" unicode="&#x40e;" horiz-adv-x="681" 
d="M670 1686l-242 -1397q-11 -61 -23 -102t-32 -75.5t-45.5 -54t-66 -33.5t-91.5 -19t-123 -5h-18v223h18q83 0 125 22t53 91l35 199l-246 1151h234l53 -340q31 -199 47 -367q16 160 49 364l56 343h217zM446 2079h185q0 -178 -65.5 -244t-213.5 -66q-113 0 -173.5 26.5
t-88 93t-27.5 190.5h183q0 -62 8 -104t23.5 -61.5t31 -26.5t37.5 -7t37.5 7t31 26.5t23.5 61.5t8 104z" />
    <glyph glyph-name="uni040F" unicode="&#x40f;" horiz-adv-x="686" 
d="M428 -223h-172v223h-186v1686h223v-1463h102v1463h221v-1686h-188v-223z" />
    <glyph glyph-name="uni0411" unicode="&#x411;" horiz-adv-x="665" 
d="M70 1686h473v-224h-250v-491h51q154 0 224.5 -72t70.5 -231v-363q0 -159 -71.5 -232t-225.5 -73h-272v1686zM420 303v373q0 78 -76 78h-51v-531h49q78 0 78 80z" />
    <glyph glyph-name="uni0414" unicode="&#x414;" horiz-adv-x="796" 
d="M190 -223h-172v446h41q25 0 41.5 18t30.5 68q19 66 31.5 205.5t27.5 464.5l33 707h465v-1463h90v-446h-172v223h-416v-223zM467 1462h-64l-26 -526q-26 -531 -74 -713h164v1239z" />
    <glyph glyph-name="uni0416" unicode="&#x416;" horiz-adv-x="1081" 
d="M256 0h-254l244 934l-223 752h237q159 -609 176 -707q-6 94 -6 371v336h221v-336q0 -277 -6 -371q17 98 176 707h238l-223 -752l243 -934h-254q-131 544 -180 803q6 -123 6 -438v-365h-221v365q0 315 6 438q-49 -259 -180 -803z" />
    <glyph glyph-name="uni0418" unicode="&#x418;" horiz-adv-x="686" 
d="M283 0h-213v1686h202v-953l88 953h256v-1686h-202v971z" />
    <glyph glyph-name="uni0419" unicode="&#x419;" horiz-adv-x="686" 
d="M283 0h-213v1686h202v-953l88 953h256v-1686h-202v971zM442 2079h185q0 -178 -65.5 -244t-213.5 -66q-113 0 -173.5 26.5t-88 93t-27.5 190.5h183q0 -62 8 -104t23.5 -61.5t31 -26.5t37.5 -7t37.5 7t31 26.5t23.5 61.5t8 104z" />
    <glyph glyph-name="uni041B" unicode="&#x41b;" horiz-adv-x="757" 
d="M51 0h-33v223h27q34 0 52 15.5t34 70.5q35 117 59 670l33 707h465v-1686h-221v1462h-64l-26 -526q-28 -527 -72 -709q-13 -54 -29 -91.5t-44.5 -70.5t-73.5 -49t-107 -16z" />
    <glyph glyph-name="uni0423" unicode="&#x423;" horiz-adv-x="681" 
d="M670 1686l-242 -1397q-11 -61 -23 -102t-32 -75.5t-45.5 -54t-66 -33.5t-91.5 -19t-123 -5h-18v223h18q83 0 125 22t53 91l35 199l-246 1151h234l53 -340q31 -199 47 -367q16 160 49 364l56 343h217z" />
    <glyph glyph-name="uni0426" unicode="&#x426;" horiz-adv-x="724" 
d="M707 -223h-172v223h-465v1686h223v-1463h102v1463h221v-1463h91v-446z" />
    <glyph glyph-name="uni0427" unicode="&#x427;" horiz-adv-x="665" 
d="M596 0h-223v686q-32 -8 -86 -8q-110 0 -174 74t-64 213v721h223v-736q0 -35 13.5 -49t46.5 -14q22 0 41 8v791h223v-1686z" />
    <glyph glyph-name="uni0428" unicode="&#x428;" horiz-adv-x="1017" 
d="M944 0h-870v1686h223v-1463h106v1463h211v-1463h107v1463h223v-1686z" />
    <glyph glyph-name="uni0429" unicode="&#x429;" horiz-adv-x="1052" 
d="M1034 -223h-172v223h-788v1686h223v-1463h106v1463h211v-1463h107v1463h223v-1463h90v-446z" />
    <glyph glyph-name="uni042A" unicode="&#x42a;" horiz-adv-x="782" 
d="M18 1686h392v-715h51q154 0 224.5 -72t70.5 -231v-363q0 -159 -71.5 -232t-225.5 -73h-273v1462h-168v224zM537 303v373q0 78 -76 78h-51v-531h49q78 0 78 80z" />
    <glyph glyph-name="uni042B" unicode="&#x42b;" horiz-adv-x="1036" 
d="M70 1686h223v-715h51q154 0 224.5 -72t70.5 -231v-363q0 -159 -71.5 -232t-225.5 -73h-272v1686zM420 303v373q0 78 -76 78h-51v-531h49q78 0 78 80zM963 0h-224v1686h224v-1686z" />
    <glyph glyph-name="uni042C" unicode="&#x42c;" horiz-adv-x="665" 
d="M70 1686h223v-715h51q154 0 224.5 -72t70.5 -231v-363q0 -159 -71.5 -232t-225.5 -73h-272v1686zM420 303v373q0 78 -76 78h-51v-531h49q78 0 78 80z" />
    <glyph glyph-name="uni042D" unicode="&#x42d;" horiz-adv-x="636" 
d="M250 590v-322q0 -63 51 -63t51 63v480h-262v223h262v446q0 64 -51 64t-51 -64v-289h-203v289q0 287 254 287q279 0 279 -291v-1147q0 -284 -279 -284q-134 0 -194 69.5t-60 218.5v320h203z" />
    <glyph glyph-name="uni042E" unicode="&#x42e;" horiz-adv-x="1034" 
d="M297 0h-223v1686h223v-715h131v446q0 287 274 287q275 0 275 -287v-1149q0 -286 -275 -286q-274 0 -274 286v480h-131v-748zM754 268v1149q0 64 -52 64q-51 0 -51 -64v-1149q0 -63 51 -63q52 0 52 63z" />
    <glyph glyph-name="uni042F" unicode="&#x42f;" horiz-adv-x="681" 
d="M274 0h-243l110 797q-51 31 -73.5 85.5t-22.5 151.5v348q0 163 72.5 233.5t228.5 70.5h266v-1686h-223v752h-37zM270 1382v-350q0 -78 74 -78h45v508h-43q-76 0 -76 -80z" />
    <glyph glyph-name="uni0431" unicode="&#x431;" horiz-adv-x="606" 
d="M63 233v1145q0 86 12.5 142t39.5 86t59 42t82 17q92 9 114.5 21t22.5 55v20h156v-20q0 -51 -4 -88t-15.5 -63t-22.5 -41.5t-34.5 -26.5t-42.5 -16t-55 -13q-66 -14 -90.5 -38t-24.5 -77v-108q47 18 98 18q91 0 140 -63t49 -191v-801q0 -251 -244 -251q-240 0 -240 251z
M303 1092q-17 0 -43 -11v-839q0 -56 45 -56t45 56v794q0 56 -47 56z" />
    <glyph glyph-name="uni0432" unicode="&#x432;" horiz-adv-x="632" 
d="M367 780v236q0 47 -48 47h-49v-332h52q45 0 45 49zM367 252v260q0 49 -45 49h-52v-356h49q48 0 48 47zM319 0h-249v1268h249q126 0 180 -53.5t54 -170.5v-262q0 -45 -19.5 -79.5t-52.5 -47.5q38 -10 64 -42t26 -83v-315q0 -112 -61.5 -163.5t-190.5 -51.5z" />
    <glyph glyph-name="uni0433" unicode="&#x433;" horiz-adv-x="444" 
d="M270 0h-200v1268h354v-205h-154v-1063z" />
    <glyph glyph-name="uni0434" unicode="&#x434;" horiz-adv-x="741" 
d="M633 1268v-1063h90v-408h-150v203h-405v-203h-150v408h25q33 0 50 13t30 50q17 48 27.5 142t25.5 346l31 512h426zM432 1063h-61l-23 -358q-23 -373 -57 -500h141v858z" />
    <glyph glyph-name="uni0436" unicode="&#x436;" horiz-adv-x="841" 
d="M510 0h-178v637l-115 -637h-211l150 723l-144 545h197l123 -531v531h178v-531l123 531h196l-143 -545l150 -723h-211l-115 637v-637z" />
    <glyph glyph-name="uni0437" unicode="&#x437;" horiz-adv-x="591" 
d="M330 199v325q0 47 -47 47h-62v170h66q19 0 31 12t12 35v244q0 49 -51 49q-39 0 -39 -49v-205h-183v242q0 117 56.5 169t179.5 52q124 0 178.5 -52t54.5 -171v-291q0 -46 -19.5 -76t-66.5 -53q90 -27 90 -133v-315q0 -101 -58.5 -159t-178.5 -58q-117 0 -178.5 58
t-61.5 159v284h187v-284q0 -47 41 -47q49 0 49 47z" />
    <glyph glyph-name="uni0438" unicode="&#x438;" horiz-adv-x="661" 
d="M250 0h-180v1268h202v-664l123 664h197v-1268h-193v741z" />
    <glyph glyph-name="uni0439" unicode="&#x439;" horiz-adv-x="661" 
d="M250 0h-180v1268h202v-664l123 664h197v-1268h-193v741zM430 1661h184q0 -178 -65 -243.5t-213 -65.5q-167 0 -228 63.5t-61 245.5h182q0 -118 27 -158.5t74 -40.5q22 0 37.5 7t31 26.5t23.5 61.5t8 104z" />
    <glyph glyph-name="uni043B" unicode="&#x43b;" horiz-adv-x="702" 
d="M49 0h-31v205h25q32 0 49 11.5t31 51.5q18 48 28 142t25 346l31 512h426v-1268h-201v1063h-61l-23 -358q-24 -390 -65 -535q-12 -41 -27 -68.5t-41 -52.5t-67.5 -37t-98.5 -12z" />
    <glyph glyph-name="uni043C" unicode="&#x43c;" horiz-adv-x="915" 
d="M846 0h-195v356q0 283 8 422q-7 -60 -19.5 -144.5t-38.5 -261t-54 -372.5h-182l-113 803q12 -220 12 -447v-356h-194v1268h284q25 -221 47 -407t30.5 -259.5t14.5 -127.5t9 -89q9 151 104 883h287v-1268z" />
    <glyph glyph-name="uni043D" unicode="&#x43d;" horiz-adv-x="628" 
d="M270 0h-200v1268h200v-482h88v482h201v-1268h-201v582h-88v-582z" />
    <glyph glyph-name="uni043F" unicode="&#x43f;" horiz-adv-x="628" 
d="M270 0h-200v1268h489v-1268h-201v1063h-88v-1063z" />
    <glyph glyph-name="uni0442" unicode="&#x442;" horiz-adv-x="466" 
d="M334 0h-201v1063h-113v205h426v-205h-112v-1063z" />
    <glyph glyph-name="uni0446" unicode="&#x446;" horiz-adv-x="667" 
d="M649 -203h-149v203h-430v1268h200v-1063h88v1063h201v-1063h90v-408z" />
    <glyph glyph-name="uni0447" unicode="&#x447;" horiz-adv-x="610" 
d="M541 0h-201v586q-28 -8 -76 -8q-99 0 -156 59.5t-57 173.5v457h201v-463q0 -29 11 -40t40 -11q25 0 37 6v508h201v-1268z" />
    <glyph glyph-name="uni0448" unicode="&#x448;" horiz-adv-x="907" 
d="M838 0h-768v1268h200v-1063h88v1063h191v-1063h88v1063h201v-1268z" />
    <glyph glyph-name="uni0449" unicode="&#x449;" horiz-adv-x="946" 
d="M928 -203h-150v203h-708v1268h200v-1063h88v1063h191v-1063h88v1063h201v-1063h90v-408z" />
    <glyph glyph-name="uni044A" unicode="&#x44a;" horiz-adv-x="690" 
d="M334 1268v-482h57q128 0 187 -64t59 -204v-248q0 -141 -59.5 -205.5t-188.5 -64.5h-256v1063h-113v205h314zM436 274v246q0 68 -53 68h-49v-383h47q55 0 55 69z" />
    <glyph glyph-name="uni044B" unicode="&#x44b;" horiz-adv-x="972" 
d="M70 1268h200v-482h58q128 0 186.5 -63.5t58.5 -204.5v-248q0 -141 -59 -205.5t-188 -64.5h-256v1268zM373 274v246q0 68 -54 68h-49v-383h47q56 0 56 69zM901 0h-201v1268h201v-1268z" />
    <glyph glyph-name="uni044C" unicode="&#x44c;" horiz-adv-x="626" 
d="M70 1268h200v-482h58q128 0 186.5 -63.5t58.5 -204.5v-248q0 -141 -59 -205.5t-188 -64.5h-256v1268zM373 274v246q0 68 -54 68h-49v-383h47q56 0 56 69z" />
    <glyph glyph-name="uni044D" unicode="&#x44d;" horiz-adv-x="583" 
d="M287 1288q119 0 179 -70t60 -192v-786q0 -121 -59.5 -189.5t-179.5 -68.5q-119 0 -176.5 66.5t-57.5 187.5v247h187v-243q0 -54 45 -54t45 54v331h-205v170h205v291q0 49 -45 49t-45 -49v-205h-183v201q0 121 56.5 190.5t173.5 69.5z" />
    <glyph glyph-name="uni044E" unicode="&#x44e;" horiz-adv-x="944" 
d="M274 0h-200v1268h200v-520h129v286q0 254 242 254t242 -254v-801q0 -251 -242 -251t-242 251v310h-129v-543zM690 242v784q0 55 -45 55t-45 -55v-784q0 -56 45 -56t45 56z" />
    <glyph glyph-name="uni044F" unicode="&#x44f;" horiz-adv-x="622" 
d="M238 0h-207l98 600q-45 24 -65.5 65t-20.5 113v262q0 122 65 175t205 53h240v-1268h-201v559h-33zM246 1004v-216q0 -59 65 -59h41v334h-39q-67 0 -67 -59z" />
    <glyph glyph-name="uni0452" unicode="&#x452;" horiz-adv-x="622" 
d="M358 -27v1069q0 50 -41 50q-29 0 -47 -21v-1071h-200v1378h-60v172h60v136h200v-136h228v-172h-228v-143q59 53 136 53q153 0 153 -233v-1082q0 -139 -62.5 -203.5t-189.5 -64.5q-51 0 -78 8v199q27 -6 78 -6t51 67z" />
    <glyph glyph-name="uni0453" unicode="&#x453;" horiz-adv-x="509" 
d="M270 0h-200v1268h354v-205h-154v-1063zM281 1343h-193l223 330h256z" />
    <glyph glyph-name="uni0454" unicode="&#x454;" horiz-adv-x="583" 
d="M459 571h-205v-331q0 -54 45 -54t45 54v243h186v-247q0 -254 -233 -254q-120 0 -180 68.5t-60 189.5v786q0 121 60.5 191.5t179.5 70.5q117 0 173 -69.5t56 -190.5v-201h-182v205q0 49 -45 49t-45 -49v-291h205v-170z" />
    <glyph glyph-name="uni0459" unicode="&#x459;" horiz-adv-x="989" 
d="M49 0h-31v205h25q32 0 49 11.5t31 51.5q18 48 28 142t25 346l31 512h426v-482h57q128 0 187 -64t59 -204v-248q0 -141 -59.5 -205.5t-188.5 -64.5h-256v1063h-61l-23 -358q-24 -390 -65 -535q-12 -41 -27 -68.5t-41 -52.5t-67.5 -37t-98.5 -12zM735 274v246q0 68 -53 68
h-49v-383h47q55 0 55 69z" />
    <glyph glyph-name="uni045A" unicode="&#x45a;" horiz-adv-x="915" 
d="M270 0h-200v1268h200v-482h88v482h201v-482h57q128 0 187 -64t59 -204v-248q0 -141 -59.5 -205.5t-188.5 -64.5h-256v582h-88v-582zM662 274v246q0 68 -54 68h-49v-383h47q56 0 56 69z" />
    <glyph glyph-name="uni045C" unicode="&#x45c;" horiz-adv-x="614" 
d="M608 0h-219l-70 334q-36 171 -57 303q4 -68 4 -313v-324h-196v1268h196v-230q0 -236 -4 -301q32 132 74 293l61 238h205l-156 -545zM330 1343h-193l223 330h256z" />
    <glyph glyph-name="uni045D" unicode="&#x45d;" horiz-adv-x="661" 
d="M250 0h-180v1268h202v-664l123 664h197v-1268h-193v741zM477 1343h-192l-287 330h256z" />
    <glyph glyph-name="uni045E" unicode="&#x45e;" horiz-adv-x="571" 
d="M35 -287v199q23 -6 69 -6q40 0 57.5 35.5t24.5 109.5l-170 1217h209q11 -135 24.5 -297.5t19.5 -229.5t11 -141.5t7 -130.5q2 45 5 91t10.5 124t13 135t21 202t25.5 247h191l-166 -1241q-11 -83 -28 -139t-47.5 -99.5t-79.5 -63.5t-119 -20q-47 0 -78 8zM391 1661h184
q0 -178 -65 -243.5t-213 -65.5q-167 0 -228 63.5t-61 245.5h182q0 -118 27 -158.5t74 -40.5q22 0 37.5 7t31 26.5t23.5 61.5t8 104z" />
    <glyph glyph-name="uni045F" unicode="&#x45f;" horiz-adv-x="628" 
d="M389 -203h-149v203h-170v1268h200v-1063h88v1063h201v-1268h-170v-203z" />
    <glyph glyph-name="uni0490" unicode="&#x490;" horiz-adv-x="561" 
d="M70 1686h301v223h172v-447h-250v-1462h-223v1686z" />
    <glyph glyph-name="uni0491" unicode="&#x491;" horiz-adv-x="444" 
d="M424 1063h-154v-1063h-200v1268h204v202h150v-407z" />
    <glyph glyph-name="uni0492" unicode="&#x492;" horiz-adv-x="591" 
d="M506 803h-182v-803h-224v803h-82v172h82v711h473v-224h-249v-487h182v-172z" />
    <glyph glyph-name="uni0493" unicode="&#x493;" horiz-adv-x="497" 
d="M324 0h-201v528h-107v172h107v568h354v-205h-153v-363h143v-172h-143v-528z" />
    <glyph glyph-name="uni0496" unicode="&#x496;" horiz-adv-x="1183" 
d="M256 0h-254l244 934l-223 752h237q159 -609 176 -707q-6 94 -6 371v336h221v-336q0 -277 -6 -371q17 98 176 707h238l-223 -752l184 -711h145v-446h-172v223h-168q-131 544 -180 803q6 -123 6 -438v-365h-221v365q0 315 6 438q-49 -259 -180 -803z" />
    <glyph glyph-name="uni0497" unicode="&#x497;" horiz-adv-x="927" 
d="M510 0h-178v637l-115 -637h-211l150 723l-144 545h197l123 -531v531h178v-531l123 531h196l-143 -545l107 -518h116v-408h-149v203h-135l-115 637v-637z" />
    <glyph glyph-name="uni0498" unicode="&#x498;" horiz-adv-x="641" 
d="M375 268v422q0 64 -53 64h-86v211h96q41 0 41 63v389q0 64 -51 64q-50 0 -50 -64v-301h-219v297q0 153 64 222t205 69t203.5 -69t62.5 -224v-383q0 -62 -22.5 -101.5t-76.5 -68.5q103 -38 103 -176v-414q0 -112 -47.5 -185t-143.5 -93q78 -23 107 -56.5t29 -99.5
q0 -67 -51.5 -103t-145.5 -36h-162v139h166q53 0 53 47q0 31 -24.5 53.5t-102.5 51.5q-110 13 -166.5 86.5t-56.5 193.5v332h225v-330q0 -63 50 -63q53 0 53 63z" />
    <glyph glyph-name="uni0499" unicode="&#x499;" horiz-adv-x="591" 
d="M330 199v325q0 47 -47 47h-62v170h66q19 0 31 12t12 35v244q0 49 -51 49q-39 0 -39 -49v-205h-183v242q0 117 56.5 169t179.5 52q124 0 178.5 -52t54.5 -171v-291q0 -46 -19.5 -76t-66.5 -53q90 -27 90 -133v-315q0 -176 -161 -209q79 -23 108 -56.5t29 -99.5
q0 -67 -51.5 -103t-145.5 -36h-162v139h166q28 0 41 13.5t13 33.5q0 31 -25.5 53.5t-105.5 51.5q-89 13 -136 69t-47 144v284h187v-284q0 -47 41 -47q49 0 49 47z" />
    <glyph glyph-name="uni049A" unicode="&#x49a;" horiz-adv-x="821" 
d="M803 -223h-172v223h-164q-131 544 -180 803q6 -123 6 -438v-365h-223v1686h223v-336q0 -277 -6 -371q17 98 176 707h237l-223 -752l185 -711h141v-446z" />
    <glyph glyph-name="uni049B" unicode="&#x49b;" horiz-adv-x="700" 
d="M682 -203h-150v203h-143l-70 334q-36 171 -57 303q4 -68 4 -313v-324h-196v1268h196v-230q0 -236 -4 -301q32 132 74 293l61 238h205l-156 -545l115 -518h121v-408z" />
    <glyph glyph-name="uni04A0" unicode="&#x4a0;" horiz-adv-x="841" 
d="M840 0h-254q-131 544 -180 803q6 -123 6 -438v-365h-224v1462h-170v224h394v-336q0 -277 -6 -371q17 98 176 707h237l-223 -752z" />
    <glyph glyph-name="uni04A1" unicode="&#x4a1;" horiz-adv-x="681" 
d="M676 0h-219l-70 334q-36 171 -57 303q4 -102 4 -313v-324h-197v1063h-117v205h314v-230q0 -207 -4 -301q42 174 73 293l62 238h205l-156 -545z" />
    <glyph glyph-name="uni04A2" unicode="&#x4a2;" horiz-adv-x="724" 
d="M707 -223h-172v223h-140v748h-102v-748h-223v1686h223v-715h102v715h221v-1463h91v-446z" />
    <glyph glyph-name="uni04A3" unicode="&#x4a3;" horiz-adv-x="686" 
d="M668 -203h-150v203h-160v582h-88v-582h-200v1268h200v-482h88v482h201v-1063h109v-408z" />
    <glyph glyph-name="uni04AA" unicode="&#x4aa;" horiz-adv-x="636" 
d="M387 268v350h203v-348q0 -127 -44 -196t-138 -86q74 -21 101.5 -55t27.5 -99q0 -67 -51.5 -103t-145.5 -36h-162v139h166q53 0 53 47q0 31 -26 54.5t-107 52.5q-207 30 -207 278v1147q0 291 279 291q254 0 254 -287v-299h-203v299q0 64 -51 64t-51 -64v-1149
q0 -63 51 -63t51 63z" />
    <glyph glyph-name="uni04AB" unicode="&#x4ab;" horiz-adv-x="583" 
d="M344 240v278h186v-282q0 -207 -157 -246q71 -22 100 -53.5t29 -90.5q0 -151 -197 -151h-162v139h166q53 0 53 51q0 27 -22.5 49.5t-97.5 51.5q-92 15 -138.5 81.5t-46.5 172.5v786q0 121 60.5 191.5t179.5 70.5q117 0 173 -69.5t56 -190.5v-274h-182v278q0 49 -45 49
t-45 -49v-792q0 -54 45 -54t45 54z" />
    <glyph glyph-name="uni04B2" unicode="&#x4b2;" horiz-adv-x="802" 
d="M784 -223h-172v223h-151q-96 514 -115 674q-29 -243 -115 -674h-227l217 903l-178 783h238q52 -297 75 -531q10 101 76 531h232l-187 -777l168 -686h139v-446z" />
    <glyph glyph-name="uni04B3" unicode="&#x4b3;" horiz-adv-x="774" 
d="M655 -203h-149v203h-133q-31 186 -84 547q-13 -140 -80 -547h-201l154 680l-127 588h209q17 -113 27.5 -193.5t17 -149.5t8.5 -83q2 15 7 65.5t9 85.5t15 110t26 165h199l-129 -584l108 -479h123v-408z" />
    <glyph glyph-name="uni04B6" unicode="&#x4b6;" horiz-adv-x="704" 
d="M686 -223h-172v223h-141v686q-32 -8 -86 -8q-110 0 -174 74t-64 213v721h223v-736q0 -35 13.5 -49t46.5 -14q22 0 41 8v791h223v-1463h90v-446z" />
    <glyph glyph-name="uni04B7" unicode="&#x4b7;" horiz-adv-x="667" 
d="M649 -203h-149v203h-160v586q-28 -8 -76 -8q-99 0 -156 59.5t-57 173.5v457h201v-463q0 -29 11 -40t40 -11q25 0 37 6v508h201v-1063h108v-408z" />
    <glyph glyph-name="uni04BA" unicode="&#x4ba;" horiz-adv-x="679" 
d="M76 1686h223v-687q36 9 86 9q110 0 174 -74t64 -213v-721h-224v735q0 35 -13.5 49.5t-45.5 14.5q-22 0 -41 -8v-791h-223v1686z" />
    <glyph glyph-name="uni04C3" unicode="&#x4c3;" horiz-adv-x="722" 
d="M324 -287v199q34 -6 84 -6q37 0 54 10t17 45q0 19 -6 43l-180 799v-803h-223v1686h223v-707l170 707h237l-223 -752l230 -885q14 -54 14 -100q0 -244 -305 -244q-59 0 -92 8z" />
    <glyph glyph-name="uni04C4" unicode="&#x4c4;" horiz-adv-x="614" 
d="M279 -287v199q27 -6 65 -6q35 0 47 11.5t12 37.5q0 24 -6 51l-131 631v-637h-196v1268h196v-531l131 531h205l-156 -545l150 -672q12 -52 12 -84q0 -135 -64 -198.5t-190 -63.5q-48 0 -75 8z" />
    <glyph glyph-name="uni04C7" unicode="&#x4c7;" horiz-adv-x="686" 
d="M256 -287v199q27 -6 70 -6q40 0 54.5 14.5t14.5 52.5v775h-102v-748h-223v1686h223v-715h102v715h221v-1713q0 -139 -69 -203.5t-211 -64.5q-53 0 -80 8z" />
    <glyph glyph-name="uni04C8" unicode="&#x4c8;" horiz-adv-x="628" 
d="M229 -287v199q27 -6 64 -6t51 14.5t14 52.5v609h-88v-582h-200v1268h200v-482h88v482h201v-1295q0 -140 -63 -204t-193 -64q-47 0 -74 8z" />
    <glyph glyph-name="uni04E8" unicode="&#x4e8;" horiz-adv-x="663" 
d="M57 268v1149q0 287 275 287q274 0 274 -287v-1149q0 -286 -274 -286q-275 0 -275 286zM383 268v494h-102v-494q0 -63 51 -63t51 63zM281 1417v-432h102v432q0 64 -51 64t-51 -64z" />
    <glyph glyph-name="uni04E9" unicode="&#x4e9;" horiz-adv-x="598" 
d="M57 233v801q0 254 242 254t242 -254v-801q0 -251 -242 -251t-242 251zM344 242v315h-90v-315q0 -56 45 -56t45 56zM254 1026v-297h90v297q0 55 -45 55t-45 -55z" />
    <glyph glyph-name="uni04EE" unicode="&#x4ee;" horiz-adv-x="681" 
d="M670 1686l-242 -1397q-11 -61 -23 -102t-32 -75.5t-45.5 -54t-66 -33.5t-91.5 -19t-123 -5h-18v223h18q83 0 125 22t53 91l35 199l-246 1151h234l53 -340q31 -199 47 -367q16 160 49 364l56 343h217zM590 1827h-488v172h488v-172z" />
    <glyph glyph-name="uni04EF" unicode="&#x4ef;" horiz-adv-x="571" 
d="M35 -287v199q23 -6 69 -6q40 0 57.5 35.5t24.5 109.5l-170 1217h209q11 -135 24.5 -297.5t19.5 -229.5t11 -141.5t7 -130.5q2 45 5 91t10.5 124t13 135t21 202t25.5 247h191l-166 -1241q-11 -83 -28 -139t-47.5 -99.5t-79.5 -63.5t-119 -20q-47 0 -78 8zM535 1409h-488
v172h488v-172z" />
    <glyph glyph-name="uni0512" unicode="&#x512;" horiz-adv-x="757" 
d="M328 -287v199q27 -6 84 -6q55 0 55 67v1489h-64l-26 -526q-28 -527 -72 -709q-13 -54 -29 -91.5t-44.5 -70.5t-73.5 -49t-107 -16h-33v223h27q34 0 52 15.5t34 70.5q35 117 59 670l33 707h465v-1713q0 -139 -68.5 -203.5t-207.5 -64.5q-57 0 -84 8z" />
    <glyph glyph-name="uni0513" unicode="&#x513;" horiz-adv-x="702" 
d="M303 -287v199q27 -6 78 -6t51 67v1090h-61l-23 -358q-24 -390 -65 -535q-12 -41 -27 -68.5t-41 -52.5t-67.5 -37t-98.5 -12h-31v205h25q32 0 49 11.5t31 51.5q18 48 28 142t25 346l31 512h426v-1295q0 -139 -62.5 -203.5t-189.5 -64.5q-51 0 -78 8z" />
    <glyph glyph-name="uni058F" unicode="&#x58f;" horiz-adv-x="692" 
d="M657 803h-94v-238h94v-172h-94v-393h-223v393h-205v172h205v238h-205v172h205v442q0 64 -51 64t-51 -64v-307h-197v307q0 147 57.5 217t190.5 70q274 0 274 -287v-442h94v-172z" />
    <glyph glyph-name="uni1E0C" unicode="&#x1e0c;" horiz-adv-x="673" 
d="M395 287v1112q0 63 -53 63h-49v-1239h49q53 0 53 64zM342 0h-272v1686h272q134 0 204 -76t70 -213v-1110q0 -287 -274 -287zM436 -305h-200v209h200v-209z" />
    <glyph glyph-name="uni1E0D" unicode="&#x1e0d;" horiz-adv-x="624" 
d="M354 233v824q-14 26 -47 26q-49 0 -49 -49v-776q0 -53 49 -53q31 0 47 28zM555 0h-170q-6 30 -6 70q-19 -43 -52 -61.5t-94 -18.5q-81 0 -128.5 62t-47.5 177v826q0 121 45.5 177t139.5 56q69 0 112 -37v435h201v-1686zM412 -305h-201v209h201v-209z" />
    <glyph glyph-name="uni1E12" unicode="&#x1e12;" horiz-adv-x="673" 
d="M395 287v1112q0 63 -53 63h-49v-1239h49q53 0 53 64zM342 0h-272v1686h272q134 0 204 -76t70 -213v-1110q0 -287 -274 -287zM590 -305h-172l-103 174l-110 -174h-164l176 256h209z" />
    <glyph glyph-name="uni1E13" unicode="&#x1e13;" horiz-adv-x="624" 
d="M354 233v824q-14 26 -47 26q-49 0 -49 -49v-776q0 -53 49 -53q31 0 47 28zM555 0h-170q-6 30 -6 70q-19 -43 -52 -61.5t-94 -18.5q-81 0 -128.5 62t-47.5 177v826q0 121 45.5 177t139.5 56q69 0 112 -37v435h201v-1686zM586 -305h-172l-103 174l-110 -174h-164l176 256
h209z" />
    <glyph glyph-name="uni1E24" unicode="&#x1e24;" horiz-adv-x="686" 
d="M616 0h-221v748h-102v-748h-223v1686h223v-715h102v715h221v-1686zM442 -305h-200v209h200v-209z" />
    <glyph glyph-name="uni1E25" unicode="&#x1e25;" horiz-adv-x="622" 
d="M559 0h-201v1042q0 50 -41 50q-29 0 -47 -21v-1071h-200v1686h200v-451q59 53 136 53q153 0 153 -233v-1055zM412 -305h-201v209h201v-209z" />
    <glyph glyph-name="uni1E3C" unicode="&#x1e3c;" horiz-adv-x="561" 
d="M543 0h-473v1686h223v-1463h250v-223zM575 -305h-172l-102 174l-111 -174h-163l176 256h209z" />
    <glyph glyph-name="uni1E3D" unicode="&#x1e3d;" horiz-adv-x="487" 
d="M342 0h-201v1686h201v-1686zM516 -305h-172l-102 174l-111 -174h-164l176 256h209z" />
    <glyph glyph-name="uni1E44" unicode="&#x1e44;" horiz-adv-x="731" 
d="M666 0h-213q-156 740 -207 1032q6 -199 6 -598v-434h-186v1686h256q51 -315 84.5 -532t53 -349t25.5 -174q-6 180 -6 528v527h187v-1686zM465 1786h-201v256h201v-256z" />
    <glyph glyph-name="uni1E45" unicode="&#x1e45;" horiz-adv-x="622" 
d="M559 0h-201v1042q0 50 -41 50q-29 0 -47 -21v-1071h-200v1268h170q6 -30 6 -68q58 88 155 88q158 0 158 -233v-1055zM412 1368h-201v256h201v-256z" />
    <glyph glyph-name="uni1E4A" unicode="&#x1e4a;" horiz-adv-x="731" 
d="M666 0h-213q-156 740 -207 1032q6 -199 6 -598v-434h-186v1686h256q51 -315 84.5 -532t53 -349t25.5 -174q-6 180 -6 528v527h187v-1686zM639 -305h-172l-102 174l-111 -174h-164l176 256h209z" />
    <glyph glyph-name="uni1E4B" unicode="&#x1e4b;" horiz-adv-x="622" 
d="M559 0h-201v1042q0 50 -41 50q-29 0 -47 -21v-1071h-200v1268h170q6 -30 6 -68q58 88 155 88q158 0 158 -233v-1055zM586 -305h-172l-103 174l-110 -174h-164l176 256h209z" />
    <glyph glyph-name="uni1E5A" unicode="&#x1e5a;" horiz-adv-x="681" 
d="M412 1032v350q0 80 -76 80h-43v-508h45q74 0 74 78zM651 0h-243q-45 500 -78 752h-37v-752h-223v1686h266q156 0 228.5 -70.5t72.5 -233.5v-348q0 -97 -22.5 -151.5t-73.5 -85.5q48 -303 110 -797zM440 -305h-200v209h200v-209z" />
    <glyph glyph-name="uni1E5B" unicode="&#x1e5b;" horiz-adv-x="423" 
d="M270 0h-200v1268h170q6 -30 6 -66q41 80 123 80q22 0 34 -6v-225q-22 16 -65 16q-55 0 -68 -35v-1032zM270 -305h-200v209h200v-209z" />
    <glyph glyph-name="uni1E62" unicode="&#x1e62;" horiz-adv-x="641" 
d="M371 260v240q0 63 -27.5 111t-136.5 188q-84 111 -121 194t-37 183v251q0 277 273 277q140 0 202 -67t62 -210v-309h-205v309q0 54 -53 54q-54 0 -54 -54v-249q0 -55 23 -96t107 -149q21 -27 32 -42q91 -121 123.5 -201t32.5 -188v-242q0 -138 -65 -208t-205 -70
q-273 0 -273 278v358h213v-358q0 -55 53 -55q56 0 56 55zM420 -305h-201v209h201v-209z" />
    <glyph glyph-name="uni1E63" unicode="&#x1e63;" horiz-adv-x="573" 
d="M522 334v-115q0 -126 -61 -181.5t-187 -55.5q-112 0 -168.5 60t-56.5 187v195h182v-191q0 -53 48 -53q43 0 43 53v132q0 49 -23 90.5t-106 136.5q-77 91 -110.5 161t-33.5 183v96q0 137 58.5 196.5t173.5 59.5q133 0 184 -59t51 -197v-194h-182v196q0 53 -47 53
q-41 0 -41 -53v-131q0 -58 24 -98t111 -135q86 -93 113.5 -159.5t27.5 -176.5zM387 -305h-201v209h201v-209z" />
    <glyph glyph-name="uni1E6C" unicode="&#x1e6c;" 
d="M406 0h-224v1462h-164v224h549v-224h-161v-1462zM393 -305h-200v209h200v-209z" />
    <glyph glyph-name="uni1E6D" unicode="&#x1e6d;" horiz-adv-x="391" 
d="M375 156v-170q-46 -4 -62 -4q-235 0 -235 262v850h-64v174h64v401h201v-401h92v-174h-92v-846q0 -52 23 -72t73 -20zM295 -305h-201v209h201v-209z" />
    <glyph glyph-name="Wgrave" unicode="&#x1e80;" horiz-adv-x="1099" 
d="M893 0h-258q-60 617 -76 804.5t-16 280.5q-7 -100 -103 -1085h-260l-162 1686h234q58 -779 80 -1176q11 202 119 1176h198q94 -1017 103 -1176q19 346 96 1176h233zM686 1761h-192l-287 330h256z" />
    <glyph glyph-name="wgrave" unicode="&#x1e81;" horiz-adv-x="870" 
d="M725 0h-231q-63 651 -66 780q-2 -37 -8.5 -107t-25 -256.5t-38.5 -416.5h-229l-107 1268h185q36 -558 55 -885l84 885h178q23 -279 39.5 -488.5t22.5 -282t10 -114.5q3 52 72 885h182zM571 1343h-192l-287 330h256z" />
    <glyph glyph-name="Wacute" unicode="&#x1e82;" horiz-adv-x="1099" 
d="M893 0h-258q-60 617 -76 804.5t-16 280.5q-7 -100 -103 -1085h-260l-162 1686h234q58 -779 80 -1176q11 202 119 1176h198q94 -1017 103 -1176q19 346 96 1176h233zM604 1761h-192l223 330h256z" />
    <glyph glyph-name="wacute" unicode="&#x1e83;" horiz-adv-x="870" 
d="M725 0h-231q-63 651 -66 780q-2 -37 -8.5 -107t-25 -256.5t-38.5 -416.5h-229l-107 1268h185q36 -558 55 -885l84 885h178q23 -279 39.5 -488.5t22.5 -282t10 -114.5q3 52 72 885h182zM489 1343h-192l223 330h256z" />
    <glyph glyph-name="Wdieresis" unicode="&#x1e84;" horiz-adv-x="1099" 
d="M893 0h-258q-60 617 -76 804.5t-16 280.5q-7 -100 -103 -1085h-260l-162 1686h234q58 -779 80 -1176q11 202 119 1176h198q94 -1017 103 -1176q19 346 96 1176h233zM809 1786h-201v256h201v-256zM492 1786h-201v256h201v-256z" />
    <glyph glyph-name="wdieresis" unicode="&#x1e85;" horiz-adv-x="870" 
d="M725 0h-231q-63 651 -66 780q-2 -37 -8.5 -107t-25 -256.5t-38.5 -416.5h-229l-107 1268h185q36 -558 55 -885l84 885h178q23 -279 39.5 -488.5t22.5 -282t10 -114.5q3 52 72 885h182zM694 1368h-200v256h200v-256zM377 1368h-201v256h201v-256z" />
    <glyph glyph-name="uni1E92" unicode="&#x1e92;" horiz-adv-x="634" 
d="M592 0h-547v227l326 1241h-310v218h531v-201l-316 -1258h316v-227zM418 -305h-201v209h201v-209z" />
    <glyph glyph-name="uni1E93" unicode="&#x1e93;" horiz-adv-x="526" 
d="M481 0h-436v190l248 881h-244v197h434v-187l-237 -876h235v-205zM362 -305h-200v209h200v-209z" />
    <glyph glyph-name="uni1E9E" unicode="&#x1e9e;" horiz-adv-x="745" 
d="M336 1686h313v-201l-123 -541q156 -55 156 -233v-469q0 -136 -61 -198t-197 -62q-32 0 -80 6v202q24 -6 53 -6q31 0 46.5 12.5t15.5 45.5v440q0 58 -25.5 76t-116.5 18v146l119 546h-100q-51 0 -51 -63v-1405h-222v1399q0 287 273 287z" />
    <glyph glyph-name="uni1EA0" unicode="&#x1ea0;" horiz-adv-x="694" 
d="M674 0h-223l-25 240h-164l-29 -240h-215l205 1686h258zM283 442h118q-31 300 -57 672q-25 -357 -61 -672zM446 -305h-200v209h200v-209z" />
    <glyph glyph-name="uni1EA1" unicode="&#x1ea1;" 
d="M528 0h-182q-8 19 -8 63q-51 -81 -131 -81q-166 0 -166 200v187q0 111 30 173t97 109q29 20 158 90v297q0 49 -45 49t-45 -49v-268h-177v268q0 250 226 250q233 0 233 -250v-932q0 -68 10 -106zM326 209v371q-32 -13 -52 -33q-36 -29 -36 -98v-230q0 -20 12.5 -30.5
t32.5 -10.5q27 0 43 31zM393 -305h-200v209h200v-209z" />
    <glyph glyph-name="uni1EA2" unicode="&#x1ea2;" horiz-adv-x="694" 
d="M674 0h-223l-25 240h-164l-29 -240h-215l205 1686h258zM283 442h118q-31 300 -57 672q-25 -357 -61 -672zM416 1772h-131v24q0 46 14.5 71t42.5 46q7 6 21 15t18.5 13t9 14t4.5 25v11q0 18 -24 18q-29 0 -29 -18v-23h-139v29q0 94 166 94q170 0 170 -94v-19
q0 -43 -13.5 -63t-54.5 -47q-40 -25 -47.5 -35.5t-7.5 -36.5v-24z" />
    <glyph glyph-name="uni1EA3" unicode="&#x1ea3;" 
d="M528 0h-182q-8 19 -8 63q-51 -81 -131 -81q-166 0 -166 200v187q0 111 30 173t97 109q29 20 158 90v297q0 49 -45 49t-45 -49v-268h-177v268q0 250 226 250q233 0 233 -250v-932q0 -68 10 -106zM326 209v371q-32 -13 -52 -33q-36 -29 -36 -98v-230q0 -20 12.5 -30.5
t32.5 -10.5q27 0 43 31zM358 1354h-131v24q0 46 15 71t43 46q7 5 18 12.5t15.5 11t10 10t7.5 14.5t2 20v10q0 18 -25 18q-28 0 -28 -18v-23h-140v29q0 94 166 94q170 0 170 -94v-18q0 -44 -13.5 -64.5t-53.5 -46.5t-48 -36.5t-8 -35.5v-24z" />
    <glyph glyph-name="uni1EA4" unicode="&#x1ea4;" horiz-adv-x="694" 
d="M674 0h-223l-25 240h-164l-29 -240h-215l205 1686h258zM283 442h118q-31 300 -57 672q-25 -357 -61 -672zM776 1843h-192l223 330h256zM659 1710h-194l-117 178l-125 -178h-184l199 264h235z" />
    <glyph glyph-name="uni1EA5" unicode="&#x1ea5;" 
d="M528 0h-182q-8 19 -8 63q-51 -81 -131 -81q-166 0 -166 200v187q0 111 30 173t97 109q29 20 158 90v297q0 49 -45 49t-45 -49v-268h-177v268q0 250 226 250q233 0 233 -250v-932q0 -68 10 -106zM326 209v371q-32 -13 -52 -33q-36 -29 -36 -98v-230q0 -20 12.5 -30.5
t32.5 -10.5q27 0 43 31zM604 1343h-194l-117 224l-125 -224h-184l198 330h236zM350 1761h-192l223 330h256z" />
    <glyph glyph-name="uni1EA6" unicode="&#x1ea6;" horiz-adv-x="694" 
d="M674 0h-223l-25 240h-164l-29 -240h-215l205 1686h258zM283 442h118q-31 300 -57 672q-25 -357 -61 -672zM842 1843h-193l-287 330h256zM659 1710h-194l-117 178l-125 -178h-184l199 264h235z" />
    <glyph glyph-name="uni1EA7" unicode="&#x1ea7;" 
d="M528 0h-182q-8 19 -8 63q-51 -81 -131 -81q-166 0 -166 200v187q0 111 30 173t97 109q29 20 158 90v297q0 49 -45 49t-45 -49v-268h-177v268q0 250 226 250q233 0 233 -250v-932q0 -68 10 -106zM326 209v371q-32 -13 -52 -33q-36 -29 -36 -98v-230q0 -20 12.5 -30.5
t32.5 -10.5q27 0 43 31zM604 1343h-194l-117 224l-125 -224h-184l198 330h236zM430 1761h-192l-287 330h256z" />
    <glyph glyph-name="uni1EA8" unicode="&#x1ea8;" horiz-adv-x="694" 
d="M674 0h-223l-25 240h-164l-29 -240h-215l205 1686h258zM283 442h118q-31 300 -57 672q-25 -357 -61 -672zM750 1792h-132v25q0 46 14.5 70.5t43.5 45.5q7 5 18 12.5t15.5 11t10 10t7.5 14.5t2 20v10q0 19 -24 19q-29 0 -29 -19v-22h-139v28q0 94 165 94q170 0 170 -94
v-18q0 -44 -13.5 -64.5t-53.5 -46.5t-47.5 -36t-7.5 -35v-25zM659 1710h-194l-117 178l-125 -178h-184l199 264h235z" />
    <glyph glyph-name="uni1EA9" unicode="&#x1ea9;" 
d="M528 0h-182q-8 19 -8 63q-51 -81 -131 -81q-166 0 -166 200v187q0 111 30 173t97 109q29 20 158 90v297q0 49 -45 49t-45 -49v-268h-177v268q0 250 226 250q233 0 233 -250v-932q0 -68 10 -106zM326 209v371q-32 -13 -52 -33q-36 -29 -36 -98v-230q0 -20 12.5 -30.5
t32.5 -10.5q27 0 43 31zM604 1343h-194l-117 224l-125 -224h-184l198 330h236zM358 1772h-131v24q0 46 15 71t43 46q7 6 21 15t18.5 13t9 14t4.5 25v11q0 18 -25 18q-28 0 -28 -18v-23h-140v29q0 94 166 94q170 0 170 -94v-19q0 -44 -13 -64t-54 -46q-40 -26 -48 -36.5
t-8 -35.5v-24z" />
    <glyph glyph-name="uni1EAA" unicode="&#x1eaa;" horiz-adv-x="694" 
d="M674 0h-223l-25 240h-164l-29 -240h-215l205 1686h258zM283 442h118q-31 300 -57 672q-25 -357 -61 -672zM659 1710h-194l-117 178l-125 -178h-184l199 264h235zM600 2228v-168q-49 -49 -129 -49q-51 0 -134.5 32t-127.5 32q-69 0 -113 -56h-4v166q45 49 129 49
q49 0 132.5 -29.5t129.5 -29.5q43 0 68.5 11t44.5 42h4z" />
    <glyph glyph-name="uni1EAB" unicode="&#x1eab;" 
d="M528 0h-182q-8 19 -8 63q-51 -81 -131 -81q-166 0 -166 200v187q0 111 30 173t97 109q29 20 158 90v297q0 49 -45 49t-45 -49v-268h-177v268q0 250 226 250q233 0 233 -250v-932q0 -68 10 -106zM326 209v371q-32 -13 -52 -33q-36 -29 -36 -98v-230q0 -20 12.5 -30.5
t32.5 -10.5q27 0 43 31zM604 1343h-194l-117 224l-125 -224h-184l198 330h236zM547 2023v-168q-49 -49 -129 -49q-51 0 -134.5 32t-127.5 32q-70 0 -113 -55h-4v165q46 50 129 50q50 0 133 -30t129 -30q43 0 68.5 11t44.5 42h4z" />
    <glyph glyph-name="uni1EAC" unicode="&#x1eac;" horiz-adv-x="694" 
d="M674 0h-223l-25 240h-164l-29 -240h-215l205 1686h258zM283 442h118q-31 300 -57 672q-25 -357 -61 -672zM659 1761h-194l-117 224l-125 -224h-184l199 330h235zM446 -305h-200v209h200v-209z" />
    <glyph glyph-name="uni1EAD" unicode="&#x1ead;" 
d="M528 0h-182q-8 19 -8 63q-51 -81 -131 -81q-166 0 -166 200v187q0 111 30 173t97 109q29 20 158 90v297q0 49 -45 49t-45 -49v-268h-177v268q0 250 226 250q233 0 233 -250v-932q0 -68 10 -106zM326 209v371q-32 -13 -52 -33q-36 -29 -36 -98v-230q0 -20 12.5 -30.5
t32.5 -10.5q27 0 43 31zM604 1343h-194l-117 224l-125 -224h-184l198 330h236zM393 -305h-200v209h200v-209z" />
    <glyph glyph-name="uni1EAE" unicode="&#x1eae;" horiz-adv-x="694" 
d="M674 0h-223l-25 240h-164l-29 -240h-215l205 1686h258zM283 442h118q-31 300 -57 672q-25 -357 -61 -672zM446 1946h185q0 -133 -65.5 -182.5t-213.5 -49.5q-166 0 -227.5 48t-61.5 184h183q0 -89 27 -119.5t73 -30.5t73 30.5t27 119.5zM403 1987h-192l223 329h256z" />
    <glyph glyph-name="uni1EAF" unicode="&#x1eaf;" 
d="M528 0h-182q-8 19 -8 63q-51 -81 -131 -81q-166 0 -166 200v187q0 111 30 173t97 109q29 20 158 90v297q0 49 -45 49t-45 -49v-268h-177v268q0 250 226 250q233 0 233 -250v-932q0 -68 10 -106zM326 209v371q-32 -13 -52 -33q-36 -29 -36 -98v-230q0 -20 12.5 -30.5
t32.5 -10.5q27 0 43 31zM393 1661h185q0 -91 -16.5 -151.5t-53 -95t-86 -48.5t-123.5 -14q-167 0 -228 63.5t-61 245.5h183q0 -62 8 -104t23.5 -61.5t31 -26.5t37.5 -7t37.5 7t31 26.5t23.5 61.5t8 104zM348 1761h-192l223 330h256z" />
    <glyph glyph-name="uni1EB0" unicode="&#x1eb0;" horiz-adv-x="694" 
d="M674 0h-223l-25 240h-164l-29 -240h-215l205 1686h258zM283 442h118q-31 300 -57 672q-25 -357 -61 -672zM483 1987h-192l-287 329h256zM446 1946h185q0 -133 -65.5 -182.5t-213.5 -49.5q-166 0 -227.5 48t-61.5 184h183q0 -89 27 -119.5t73 -30.5t73 30.5t27 119.5z" />
    <glyph glyph-name="uni1EB1" unicode="&#x1eb1;" 
d="M528 0h-182q-8 19 -8 63q-51 -81 -131 -81q-166 0 -166 200v187q0 111 30 173t97 109q29 20 158 90v297q0 49 -45 49t-45 -49v-268h-177v268q0 250 226 250q233 0 233 -250v-932q0 -68 10 -106zM326 209v371q-32 -13 -52 -33q-36 -29 -36 -98v-230q0 -20 12.5 -30.5
t32.5 -10.5q27 0 43 31zM393 1661h185q0 -91 -16.5 -151.5t-53 -95t-86 -48.5t-123.5 -14q-167 0 -228 63.5t-61 245.5h183q0 -62 8 -104t23.5 -61.5t31 -26.5t37.5 -7t37.5 7t31 26.5t23.5 61.5t8 104zM430 1761h-192l-287 330h256z" />
    <glyph glyph-name="uni1EB2" unicode="&#x1eb2;" horiz-adv-x="694" 
d="M674 0h-223l-25 240h-164l-29 -240h-215l205 1686h258zM283 442h118q-31 300 -57 672q-25 -357 -61 -672zM412 1956h-131v24q0 46 14.5 71t42.5 46q7 5 18 12.5t15.5 11t10 10t7.5 14.5t2 20v10q0 18 -24 18q-29 0 -29 -18v-23h-139v29q0 94 166 94q170 0 170 -94v-18
q0 -44 -13.5 -64.5t-54.5 -46.5q-40 -25 -47.5 -35.5t-7.5 -36.5v-24zM446 1946h185q0 -133 -65.5 -182.5t-213.5 -49.5q-166 0 -227.5 48t-61.5 184h183q0 -89 27 -119.5t73 -30.5t73 30.5t27 119.5z" />
    <glyph glyph-name="uni1EB3" unicode="&#x1eb3;" 
d="M528 0h-182q-8 19 -8 63q-51 -81 -131 -81q-166 0 -166 200v187q0 111 30 173t97 109q29 20 158 90v297q0 49 -45 49t-45 -49v-268h-177v268q0 250 226 250q233 0 233 -250v-932q0 -68 10 -106zM326 209v371q-32 -13 -52 -33q-36 -29 -36 -98v-230q0 -20 12.5 -30.5
t32.5 -10.5q27 0 43 31zM393 1661h185q0 -91 -16.5 -151.5t-53 -95t-86 -48.5t-123.5 -14q-167 0 -228 63.5t-61 245.5h183q0 -62 8 -104t23.5 -61.5t31 -26.5t37.5 -7t37.5 7t31 26.5t23.5 61.5t8 104zM358 1772h-131v24q0 46 15 71t43 46q7 6 21 15t18.5 13t9 14t4.5 25
v11q0 18 -25 18q-28 0 -28 -18v-23h-140v29q0 94 166 94q170 0 170 -94v-19q0 -44 -13 -64t-54 -46q-40 -26 -48 -36.5t-8 -35.5v-24z" />
    <glyph glyph-name="uni1EB4" unicode="&#x1eb4;" horiz-adv-x="694" 
d="M674 0h-223l-25 240h-164l-29 -240h-215l205 1686h258zM283 442h118q-31 300 -57 672q-25 -357 -61 -672zM600 2187v-168q-49 -49 -129 -49q-51 0 -134.5 32t-127.5 32q-69 0 -113 -56h-4v166q45 49 129 49q49 0 132.5 -29.5t129.5 -29.5q43 0 68.5 11t44.5 42h4z
M446 1946h185q0 -133 -65.5 -182.5t-213.5 -49.5q-166 0 -227.5 48t-61.5 184h183q0 -89 27 -119.5t73 -30.5t73 30.5t27 119.5z" />
    <glyph glyph-name="uni1EB5" unicode="&#x1eb5;" 
d="M528 0h-182q-8 19 -8 63q-51 -81 -131 -81q-166 0 -166 200v187q0 111 30 173t97 109q29 20 158 90v297q0 49 -45 49t-45 -49v-268h-177v268q0 250 226 250q233 0 233 -250v-932q0 -68 10 -106zM326 209v371q-32 -13 -52 -33q-36 -29 -36 -98v-230q0 -20 12.5 -30.5
t32.5 -10.5q27 0 43 31zM393 1661h185q0 -91 -16.5 -151.5t-53 -95t-86 -48.5t-123.5 -14q-167 0 -228 63.5t-61 245.5h183q0 -62 8 -104t23.5 -61.5t31 -26.5t37.5 -7t37.5 7t31 26.5t23.5 61.5t8 104zM547 2023v-168q-49 -49 -129 -49q-51 0 -134.5 32t-127.5 32
q-70 0 -113 -55h-4v165q46 50 129 50q50 0 133 -30t129 -30q43 0 68.5 11t44.5 42h4z" />
    <glyph glyph-name="uni1EB6" unicode="&#x1eb6;" horiz-adv-x="694" 
d="M674 0h-223l-25 240h-164l-29 -240h-215l205 1686h258zM283 442h118q-31 300 -57 672q-25 -357 -61 -672zM446 2079h185q0 -178 -65.5 -244t-213.5 -66q-113 0 -173.5 26.5t-88 93t-27.5 190.5h183q0 -62 8 -104t23.5 -61.5t31 -26.5t37.5 -7t37.5 7t31 26.5t23.5 61.5
t8 104zM446 -305h-200v209h200v-209z" />
    <glyph glyph-name="uni1EB7" unicode="&#x1eb7;" 
d="M528 0h-182q-8 19 -8 63q-51 -81 -131 -81q-166 0 -166 200v187q0 111 30 173t97 109q29 20 158 90v297q0 49 -45 49t-45 -49v-268h-177v268q0 250 226 250q233 0 233 -250v-932q0 -68 10 -106zM326 209v371q-32 -13 -52 -33q-36 -29 -36 -98v-230q0 -20 12.5 -30.5
t32.5 -10.5q27 0 43 31zM393 1661h185q0 -91 -16.5 -151.5t-53 -95t-86 -48.5t-123.5 -14q-167 0 -228 63.5t-61 245.5h183q0 -62 8 -104t23.5 -61.5t31 -26.5t37.5 -7t37.5 7t31 26.5t23.5 61.5t8 104zM393 -305h-200v209h200v-209z" />
    <glyph glyph-name="uni1EB8" unicode="&#x1eb8;" horiz-adv-x="577" 
d="M543 0h-473v1686h462v-224h-239v-491h151v-223h-151v-525h250v-223zM410 -305h-201v209h201v-209z" />
    <glyph glyph-name="uni1EB9" unicode="&#x1eb9;" horiz-adv-x="575" 
d="M330 743v285q0 51 -45 51q-41 0 -41 -51v-285h86zM330 240v276h188v-278q0 -256 -233 -256q-228 0 -228 256v790q0 260 228 260q233 0 233 -260v-428h-274v-362q0 -52 41 -52q45 0 45 54zM387 -305h-201v209h201v-209z" />
    <glyph glyph-name="uni1EBA" unicode="&#x1eba;" horiz-adv-x="577" 
d="M543 0h-473v1686h462v-224h-239v-491h151v-223h-151v-525h250v-223zM373 1772h-131v24q0 46 14.5 71t42.5 46q7 6 21 15t18.5 13t9 14t4.5 25v11q0 18 -24 18q-29 0 -29 -18v-23h-139v29q0 94 166 94q170 0 170 -94v-19q0 -43 -13.5 -63t-54.5 -47q-40 -25 -47.5 -35.5
t-7.5 -36.5v-24z" />
    <glyph glyph-name="uni1EBB" unicode="&#x1ebb;" horiz-adv-x="575" 
d="M330 743v285q0 51 -45 51q-41 0 -41 -51v-285h86zM330 240v276h188v-278q0 -256 -233 -256q-228 0 -228 256v790q0 260 228 260q233 0 233 -260v-428h-274v-362q0 -52 41 -52q45 0 45 54zM352 1354h-131v24q0 46 15 71t43 46q7 5 18 12.5t15.5 11t10 10t7.5 14.5t2 20v10
q0 18 -25 18q-28 0 -28 -18v-23h-140v29q0 94 166 94q170 0 170 -94v-18q0 -44 -13.5 -64.5t-53.5 -46.5t-48 -36.5t-8 -35.5v-24z" />
    <glyph glyph-name="uni1EBC" unicode="&#x1ebc;" horiz-adv-x="577" 
d="M543 0h-473v1686h462v-224h-239v-491h151v-223h-151v-525h250v-223zM563 2023v-168q-49 -49 -129 -49q-51 0 -134.5 32t-127.5 32q-70 0 -113 -55h-4v165q46 50 129 50q50 0 133 -30t129 -30q43 0 68.5 11t44.5 42h4z" />
    <glyph glyph-name="uni1EBD" unicode="&#x1ebd;" horiz-adv-x="575" 
d="M330 743v285q0 51 -45 51q-41 0 -41 -51v-285h86zM330 240v276h188v-278q0 -256 -233 -256q-228 0 -228 256v790q0 260 228 260q233 0 233 -260v-428h-274v-362q0 -52 41 -52q45 0 45 54zM543 1606v-168q-49 -49 -129 -49q-51 0 -134.5 31.5t-127.5 31.5q-70 0 -113 -55
h-4v166q45 49 129 49q50 0 133 -30t129 -30q43 0 68 11.5t45 42.5h4z" />
    <glyph glyph-name="uni1EBE" unicode="&#x1ebe;" horiz-adv-x="577" 
d="M543 0h-473v1686h462v-224h-239v-491h151v-223h-151v-525h250v-223zM739 1843h-192l223 330h256zM625 1710h-195l-117 178l-125 -178h-184l199 264h235z" />
    <glyph glyph-name="uni1EBF" unicode="&#x1ebf;" horiz-adv-x="575" 
d="M330 743v285q0 51 -45 51q-41 0 -41 -51v-285h86zM330 240v276h188v-278q0 -256 -233 -256q-228 0 -228 256v790q0 260 228 260q233 0 233 -260v-428h-274v-362q0 -52 41 -52q45 0 45 54zM598 1343h-195l-116 224l-125 -224h-185l199 330h236zM342 1761h-192l223 330h256
z" />
    <glyph glyph-name="uni1EC0" unicode="&#x1ec0;" horiz-adv-x="577" 
d="M543 0h-473v1686h462v-224h-239v-491h151v-223h-151v-525h250v-223zM803 1843h-193l-286 330h256zM625 1710h-195l-117 178l-125 -178h-184l199 264h235z" />
    <glyph glyph-name="uni1EC1" unicode="&#x1ec1;" horiz-adv-x="575" 
d="M330 743v285q0 51 -45 51q-41 0 -41 -51v-285h86zM330 240v276h188v-278q0 -256 -233 -256q-228 0 -228 256v790q0 260 228 260q233 0 233 -260v-428h-274v-362q0 -52 41 -52q45 0 45 54zM598 1343h-195l-116 224l-125 -224h-185l199 330h236zM426 1761h-193l-286 330
h256z" />
    <glyph glyph-name="uni1EC2" unicode="&#x1ec2;" horiz-adv-x="577" 
d="M543 0h-473v1686h462v-224h-239v-491h151v-223h-151v-525h250v-223zM717 1792h-131v25q0 46 14.5 70.5t42.5 45.5q7 5 18 12.5t15.5 11t10 10t7.5 14.5t2 20v10q0 19 -24 19q-29 0 -29 -19v-22h-139v28q0 94 166 94q170 0 170 -94v-18q0 -44 -13.5 -64.5t-54.5 -46.5
q-40 -26 -47.5 -36t-7.5 -35v-25zM625 1710h-195l-117 178l-125 -178h-184l199 264h235z" />
    <glyph glyph-name="uni1EC3" unicode="&#x1ec3;" horiz-adv-x="575" 
d="M330 743v285q0 51 -45 51q-41 0 -41 -51v-285h86zM330 240v276h188v-278q0 -256 -233 -256q-228 0 -228 256v790q0 260 228 260q233 0 233 -260v-428h-274v-362q0 -52 41 -52q45 0 45 54zM598 1343h-195l-116 224l-125 -224h-185l199 330h236zM354 1772h-131v24
q0 46 15 71t43 46q7 6 21 15t18.5 13t9 14t4.5 25v11q0 18 -25 18q-28 0 -28 -18v-23h-140v29q0 94 166 94q170 0 170 -94v-19q0 -44 -13 -64t-54 -46q-40 -26 -48 -36.5t-8 -35.5v-24z" />
    <glyph glyph-name="uni1EC4" unicode="&#x1ec4;" horiz-adv-x="577" 
d="M543 0h-473v1686h462v-224h-239v-491h151v-223h-151v-525h250v-223zM567 2228v-168q-49 -49 -129 -49q-51 0 -134.5 32t-127.5 32q-69 0 -113 -56h-4v166q45 49 129 49q50 0 133 -29.5t130 -29.5q43 0 67.5 11t44.5 42h4zM625 1710h-195l-117 178l-125 -178h-184l199 264
h235z" />
    <glyph glyph-name="uni1EC5" unicode="&#x1ec5;" horiz-adv-x="575" 
d="M330 743v285q0 51 -45 51q-41 0 -41 -51v-285h86zM330 240v276h188v-278q0 -256 -233 -256q-228 0 -228 256v790q0 260 228 260q233 0 233 -260v-428h-274v-362q0 -52 41 -52q45 0 45 54zM598 1343h-195l-116 224l-125 -224h-185l199 330h236zM543 2023v-168
q-49 -49 -129 -49q-51 0 -134.5 32t-127.5 32q-70 0 -113 -55h-4v165q46 50 129 50q50 0 133 -30t129 -30q43 0 68.5 11t44.5 42h4z" />
    <glyph glyph-name="uni1EC6" unicode="&#x1ec6;" horiz-adv-x="577" 
d="M543 0h-473v1686h462v-224h-239v-491h151v-223h-151v-525h250v-223zM629 1761h-195l-117 224l-124 -224h-185l199 330h235zM410 -305h-201v209h201v-209z" />
    <glyph glyph-name="uni1EC7" unicode="&#x1ec7;" horiz-adv-x="575" 
d="M330 743v285q0 51 -45 51q-41 0 -41 -51v-285h86zM330 240v276h188v-278q0 -256 -233 -256q-228 0 -228 256v790q0 260 228 260q233 0 233 -260v-428h-274v-362q0 -52 41 -52q45 0 45 54zM598 1343h-195l-116 224l-125 -224h-185l199 330h236zM387 -305h-201v209h201
v-209z" />
    <glyph glyph-name="uni1EC8" unicode="&#x1ec8;" horiz-adv-x="370" 
d="M297 0h-223v1686h223v-1686zM250 1772h-131v24q0 46 14.5 71t42.5 46q7 6 21 15t18.5 13t9 14t4.5 25v11q0 18 -24 18q-29 0 -29 -18v-23h-139v29q0 94 166 94q170 0 170 -94v-19q0 -43 -13.5 -63t-54.5 -47q-40 -25 -47.5 -35.5t-7.5 -36.5v-24z" />
    <glyph glyph-name="uni1EC9" unicode="&#x1ec9;" horiz-adv-x="360" 
d="M274 0h-200v1268h200v-1268zM238 1354h-132v24q0 46 15 71t43 46q7 5 18 12.5t15.5 11t10 10t7.5 14.5t2 20v10q0 18 -24 18q-29 0 -29 -18v-23h-139v29q0 94 165 94q170 0 170 -94v-18q0 -44 -13.5 -64.5t-53.5 -46.5q-40 -25 -47.5 -35.5t-7.5 -36.5v-24z" />
    <glyph glyph-name="uni1ECA" unicode="&#x1eca;" horiz-adv-x="370" 
d="M297 0h-223v1686h223v-1686zM285 -305h-201v209h201v-209z" />
    <glyph glyph-name="uni1ECB" unicode="&#x1ecb;" horiz-adv-x="346" 
d="M274 1430h-200v256h200v-256zM274 0h-200v1268h200v-1268zM272 -305h-200v209h200v-209z" />
    <glyph glyph-name="uni1ECC" unicode="&#x1ecc;" horiz-adv-x="663" 
d="M57 268v1149q0 287 275 287q274 0 274 -287v-1149q0 -286 -274 -286q-275 0 -275 286zM383 268v1149q0 64 -51 64t-51 -64v-1149q0 -63 51 -63t51 63zM432 -305h-201v209h201v-209z" />
    <glyph glyph-name="uni1ECD" unicode="&#x1ecd;" horiz-adv-x="598" 
d="M57 233v801q0 254 242 254t242 -254v-801q0 -251 -242 -251t-242 251zM344 242v784q0 55 -45 55t-45 -55v-784q0 -56 45 -56t45 56zM399 -305h-200v209h200v-209z" />
    <glyph glyph-name="uni1ECE" unicode="&#x1ece;" horiz-adv-x="663" 
d="M57 268v1149q0 287 275 287q274 0 274 -287v-1149q0 -286 -274 -286q-275 0 -275 286zM383 268v1149q0 64 -51 64t-51 -64v-1149q0 -63 51 -63t51 63zM397 1772h-131v24q0 46 15 71t43 46q7 6 21 15t18.5 13t9 14t4.5 25v11q0 18 -25 18q-28 0 -28 -18v-23h-140v29
q0 94 166 94q170 0 170 -94v-19q0 -44 -13 -64t-54 -46q-40 -26 -48 -36.5t-8 -35.5v-24z" />
    <glyph glyph-name="uni1ECF" unicode="&#x1ecf;" horiz-adv-x="598" 
d="M57 233v801q0 254 242 254t242 -254v-801q0 -251 -242 -251t-242 251zM344 242v784q0 55 -45 55t-45 -55v-784q0 -56 45 -56t45 56zM365 1354h-132v24q0 46 15 71t43 46q7 5 18 12.5t15.5 11t10 10t7.5 14.5t2 20v10q0 18 -25 18q-28 0 -28 -18v-23h-139v29q0 94 165 94
q170 0 170 -94v-18q0 -44 -13.5 -64.5t-53.5 -46.5q-40 -25 -47.5 -35.5t-7.5 -36.5v-24z" />
    <glyph glyph-name="uni1ED0" unicode="&#x1ed0;" horiz-adv-x="663" 
d="M57 268v1149q0 287 275 287q274 0 274 -287v-1149q0 -286 -274 -286q-275 0 -275 286zM383 268v1149q0 64 -51 64t-51 -64v-1149q0 -63 51 -63t51 63zM762 1843h-193l224 330h256zM647 1710h-194l-117 178l-125 -178h-184l198 264h236z" />
    <glyph glyph-name="uni1ED1" unicode="&#x1ed1;" horiz-adv-x="598" 
d="M57 233v801q0 254 242 254t242 -254v-801q0 -251 -242 -251t-242 251zM344 242v784q0 55 -45 55t-45 -55v-784q0 -56 45 -56t45 56zM610 1343h-194l-117 224l-125 -224h-184l198 330h236zM354 1761h-192l223 330h256z" />
    <glyph glyph-name="uni1ED2" unicode="&#x1ed2;" horiz-adv-x="663" 
d="M57 268v1149q0 287 275 287q274 0 274 -287v-1149q0 -286 -274 -286q-275 0 -275 286zM383 268v1149q0 64 -51 64t-51 -64v-1149q0 -63 51 -63t51 63zM827 1843h-192l-287 330h256zM647 1710h-194l-117 178l-125 -178h-184l198 264h236z" />
    <glyph glyph-name="uni1ED3" unicode="&#x1ed3;" horiz-adv-x="598" 
d="M57 233v801q0 254 242 254t242 -254v-801q0 -251 -242 -251t-242 251zM344 242v784q0 55 -45 55t-45 -55v-784q0 -56 45 -56t45 56zM610 1343h-194l-117 224l-125 -224h-184l198 330h236zM436 1761h-192l-287 330h256z" />
    <glyph glyph-name="uni1ED4" unicode="&#x1ed4;" horiz-adv-x="663" 
d="M57 268v1149q0 287 275 287q274 0 274 -287v-1149q0 -286 -274 -286q-275 0 -275 286zM383 268v1149q0 64 -51 64t-51 -64v-1149q0 -63 51 -63t51 63zM737 1792h-131v25q0 46 14.5 70.5t43.5 45.5q7 5 18 12.5t15.5 11t10 10t7.5 14.5t2 20v10q0 19 -25 19q-28 0 -28 -19
v-22h-140v28q0 94 166 94q170 0 170 -94v-18q0 -44 -13.5 -64.5t-53.5 -46.5q-41 -26 -48.5 -36t-7.5 -35v-25zM647 1710h-194l-117 178l-125 -178h-184l198 264h236z" />
    <glyph glyph-name="uni1ED5" unicode="&#x1ed5;" horiz-adv-x="598" 
d="M57 233v801q0 254 242 254t242 -254v-801q0 -251 -242 -251t-242 251zM344 242v784q0 55 -45 55t-45 -55v-784q0 -56 45 -56t45 56zM610 1343h-194l-117 224l-125 -224h-184l198 330h236zM362 1772h-131v24q0 46 15 71t43 46q7 6 21 15t18.5 13t9 14t4.5 25v11
q0 18 -25 18q-28 0 -28 -18v-23h-139v29q0 94 165 94q170 0 170 -94v-19q0 -44 -13 -64t-54 -46q-40 -26 -48 -36.5t-8 -35.5v-24z" />
    <glyph glyph-name="uni1ED6" unicode="&#x1ed6;" horiz-adv-x="663" 
d="M57 268v1149q0 287 275 287q274 0 274 -287v-1149q0 -286 -274 -286q-275 0 -275 286zM383 268v1149q0 64 -51 64t-51 -64v-1149q0 -63 51 -63t51 63zM586 2228v-168q-49 -49 -129 -49q-51 0 -134.5 32t-127.5 32q-69 0 -113 -56h-4v166q45 49 129 49q49 0 132 -29.5
t130 -29.5q43 0 68.5 11t44.5 42h4zM647 1710h-194l-117 178l-125 -178h-184l198 264h236z" />
    <glyph glyph-name="uni1ED7" unicode="&#x1ed7;" horiz-adv-x="598" 
d="M57 233v801q0 254 242 254t242 -254v-801q0 -251 -242 -251t-242 251zM344 242v784q0 55 -45 55t-45 -55v-784q0 -56 45 -56t45 56zM610 1343h-194l-117 224l-125 -224h-184l198 330h236zM553 2023v-168q-49 -49 -129 -49q-51 0 -134.5 32t-127.5 32q-70 0 -113 -55h-4
v165q46 50 129 50q50 0 133 -30t129 -30q43 0 68.5 11t44.5 42h4z" />
    <glyph glyph-name="uni1ED8" unicode="&#x1ed8;" horiz-adv-x="663" 
d="M57 268v1149q0 287 275 287q274 0 274 -287v-1149q0 -286 -274 -286q-275 0 -275 286zM383 268v1149q0 64 -51 64t-51 -64v-1149q0 -63 51 -63t51 63zM643 1761h-194l-117 224l-125 -224h-184l198 330h236zM432 -305h-201v209h201v-209z" />
    <glyph glyph-name="uni1ED9" unicode="&#x1ed9;" horiz-adv-x="598" 
d="M57 233v801q0 254 242 254t242 -254v-801q0 -251 -242 -251t-242 251zM344 242v784q0 55 -45 55t-45 -55v-784q0 -56 45 -56t45 56zM610 1343h-194l-117 224l-125 -224h-184l198 330h236zM399 -305h-200v209h200v-209z" />
    <glyph glyph-name="uni1EDA" unicode="&#x1eda;" horiz-adv-x="745" 
d="M322 1704q38 0 88.5 -9t78.5 -9q36 0 51 12.5t15 46.5v143h190v-131q0 -178 -159 -209q20 -53 20 -131v-1149q0 -286 -274 -286q-275 0 -275 286v1149q0 141 69.5 214t195.5 73zM383 268v1149q0 64 -51 64t-51 -64v-1149q0 -63 51 -63t51 63zM387 1761h-192l223 330h256z
" />
    <glyph glyph-name="uni1EDB" unicode="&#x1edb;" horiz-adv-x="708" 
d="M289 1288q36 0 86 -10t78 -10q37 0 51 12.5t14 46.5v143h191v-131q0 -190 -179 -211q11 -53 11 -94v-801q0 -251 -242 -251t-242 251v801q0 122 60.5 188t171.5 66zM344 242v784q0 55 -45 55t-45 -55v-784q0 -56 45 -56t45 56zM354 1343h-192l223 330h256z" />
    <glyph glyph-name="uni1EDC" unicode="&#x1edc;" horiz-adv-x="745" 
d="M322 1704q38 0 88.5 -9t78.5 -9q36 0 51 12.5t15 46.5v143h190v-131q0 -178 -159 -209q20 -53 20 -131v-1149q0 -286 -274 -286q-275 0 -275 286v1149q0 141 69.5 214t195.5 73zM383 268v1149q0 64 -51 64t-51 -64v-1149q0 -63 51 -63t51 63zM469 1761h-193l-286 330h256
z" />
    <glyph glyph-name="uni1EDD" unicode="&#x1edd;" horiz-adv-x="708" 
d="M289 1288q36 0 86 -10t78 -10q37 0 51 12.5t14 46.5v143h191v-131q0 -190 -179 -211q11 -53 11 -94v-801q0 -251 -242 -251t-242 251v801q0 122 60.5 188t171.5 66zM344 242v784q0 55 -45 55t-45 -55v-784q0 -56 45 -56t45 56zM438 1343h-192l-287 330h256z" />
    <glyph glyph-name="uni1EDE" unicode="&#x1ede;" horiz-adv-x="745" 
d="M322 1704q38 0 88.5 -9t78.5 -9q36 0 51 12.5t15 46.5v143h190v-131q0 -178 -159 -209q20 -53 20 -131v-1149q0 -286 -274 -286q-275 0 -275 286v1149q0 141 69.5 214t195.5 73zM383 268v1149q0 64 -51 64t-51 -64v-1149q0 -63 51 -63t51 63zM399 1772h-131v24
q0 46 15 71t43 46q7 6 21 15t18.5 13t9 14t4.5 25v11q0 18 -25 18q-28 0 -28 -18v-23h-140v29q0 94 166 94q170 0 170 -94v-19q0 -44 -13 -64t-54 -46q-40 -26 -48 -36.5t-8 -35.5v-24z" />
    <glyph glyph-name="uni1EDF" unicode="&#x1edf;" horiz-adv-x="708" 
d="M289 1288q36 0 86 -10t78 -10q37 0 51 12.5t14 46.5v143h191v-131q0 -190 -179 -211q11 -53 11 -94v-801q0 -251 -242 -251t-242 251v801q0 122 60.5 188t171.5 66zM344 242v784q0 55 -45 55t-45 -55v-784q0 -56 45 -56t45 56zM360 1354h-131v24q0 46 15 71t43 46
q7 5 18 12.5t15.5 11t10 10t7.5 14.5t2 20v10q0 18 -25 18q-28 0 -28 -18v-23h-140v29q0 94 166 94q170 0 170 -94v-18q0 -44 -13.5 -64.5t-53.5 -46.5t-48 -36.5t-8 -35.5v-24z" />
    <glyph glyph-name="uni1EE0" unicode="&#x1ee0;" horiz-adv-x="745" 
d="M322 1704q38 0 88.5 -9t78.5 -9q36 0 51 12.5t15 46.5v143h190v-131q0 -178 -159 -209q20 -53 20 -131v-1149q0 -286 -274 -286q-275 0 -275 286v1149q0 141 69.5 214t195.5 73zM383 268v1149q0 64 -51 64t-51 -64v-1149q0 -63 51 -63t51 63zM559 2085v-168
q-49 -49 -129 -49q-51 0 -134.5 31.5t-127.5 31.5q-70 0 -113 -55h-4v166q45 49 129 49q49 0 132 -29.5t130 -29.5q43 0 68.5 11t44.5 42h4z" />
    <glyph glyph-name="uni1EE1" unicode="&#x1ee1;" horiz-adv-x="708" 
d="M289 1288q36 0 86 -10t78 -10q37 0 51 12.5t14 46.5v143h191v-131q0 -190 -179 -211q11 -53 11 -94v-801q0 -251 -242 -251t-242 251v801q0 122 60.5 188t171.5 66zM344 242v784q0 55 -45 55t-45 -55v-784q0 -56 45 -56t45 56zM547 1667v-168q-49 -49 -129 -49
q-51 0 -134.5 31.5t-127.5 31.5q-70 0 -113 -55h-4v166q45 49 129 49q50 0 133 -29.5t129 -29.5q43 0 68.5 11t44.5 42h4z" />
    <glyph glyph-name="uni1EE2" unicode="&#x1ee2;" horiz-adv-x="745" 
d="M322 1704q38 0 88.5 -9t78.5 -9q36 0 51 12.5t15 46.5v143h190v-131q0 -178 -159 -209q20 -53 20 -131v-1149q0 -286 -274 -286q-275 0 -275 286v1149q0 141 69.5 214t195.5 73zM383 268v1149q0 64 -51 64t-51 -64v-1149q0 -63 51 -63t51 63zM432 -305h-201v209h201v-209
z" />
    <glyph glyph-name="uni1EE3" unicode="&#x1ee3;" horiz-adv-x="708" 
d="M289 1288q36 0 86 -10t78 -10q37 0 51 12.5t14 46.5v143h191v-131q0 -190 -179 -211q11 -53 11 -94v-801q0 -251 -242 -251t-242 251v801q0 122 60.5 188t171.5 66zM344 242v784q0 55 -45 55t-45 -55v-784q0 -56 45 -56t45 56zM397 -305h-200v209h200v-209z" />
    <glyph glyph-name="uni1EE4" unicode="&#x1ee4;" horiz-adv-x="673" 
d="M389 268v1418h221v-1418q0 -286 -272 -286q-275 0 -275 286v1418h224v-1418q0 -63 51 -63t51 63zM436 -305h-200v209h200v-209z" />
    <glyph glyph-name="uni1EE5" unicode="&#x1ee5;" horiz-adv-x="618" 
d="M549 0h-170q-6 30 -6 68q-55 -78 -152 -78q-73 0 -115.5 57.5t-42.5 155.5v1065h201v-1032q0 -50 39 -50q27 0 45 21v1061h201v-1268zM410 -305h-201v209h201v-209z" />
    <glyph glyph-name="uni1EE6" unicode="&#x1ee6;" horiz-adv-x="673" 
d="M389 268v1418h221v-1418q0 -286 -272 -286q-275 0 -275 286v1418h224v-1418q0 -63 51 -63t51 63zM401 1772h-131v24q0 46 15 71t43 46q7 6 21 15t18.5 13t9 14t4.5 25v11q0 18 -25 18q-28 0 -28 -18v-23h-140v29q0 94 166 94q170 0 170 -94v-19q0 -44 -13 -64t-54 -46
q-40 -26 -48 -36.5t-8 -35.5v-24z" />
    <glyph glyph-name="uni1EE7" unicode="&#x1ee7;" horiz-adv-x="618" 
d="M549 0h-170q-6 30 -6 68q-55 -78 -152 -78q-73 0 -115.5 57.5t-42.5 155.5v1065h201v-1032q0 -50 39 -50q27 0 45 21v1061h201v-1268zM375 1354h-131v24q0 46 14.5 71t42.5 46q7 5 18 12.5t15.5 11t10 10t7.5 14.5t2 20v10q0 18 -24 18q-29 0 -29 -18v-23h-139v29
q0 94 166 94q170 0 170 -94v-18q0 -44 -13.5 -64.5t-54.5 -46.5q-40 -25 -47.5 -35.5t-7.5 -36.5v-24z" />
    <glyph glyph-name="uni1EE8" unicode="&#x1ee8;" horiz-adv-x="862" 
d="M389 268v1418h221q34 0 48 13.5t14 45.5v143h190v-131q0 -113 -61.5 -164t-190.5 -51v-1274q0 -286 -272 -286q-275 0 -275 286v1418h224v-1418q0 -63 51 -63t51 63zM397 1761h-192l223 330h256z" />
    <glyph glyph-name="uni1EE9" unicode="&#x1ee9;" horiz-adv-x="800" 
d="M549 0h-170q-6 30 -6 68q-55 -78 -146 -78q-79 0 -121.5 57t-42.5 156v1065h201v-1032q0 -50 39 -50q27 0 45 21v1061h201q34 0 47.5 13.5t13.5 45.5v143h191v-131q0 -113 -61.5 -164t-190.5 -51v-1124zM365 1343h-193l223 330h256z" />
    <glyph glyph-name="uni1EEA" unicode="&#x1eea;" horiz-adv-x="862" 
d="M389 268v1418h221q34 0 48 13.5t14 45.5v143h190v-131q0 -113 -61.5 -164t-190.5 -51v-1274q0 -286 -272 -286q-275 0 -275 286v1418h224v-1418q0 -63 51 -63t51 63zM479 1761h-192l-287 330h256z" />
    <glyph glyph-name="uni1EEB" unicode="&#x1eeb;" horiz-adv-x="800" 
d="M549 0h-170q-6 30 -6 68q-55 -78 -146 -78q-79 0 -121.5 57t-42.5 156v1065h201v-1032q0 -50 39 -50q27 0 45 21v1061h201q34 0 47.5 13.5t13.5 45.5v143h191v-131q0 -113 -61.5 -164t-190.5 -51v-1124zM446 1343h-192l-287 330h256z" />
    <glyph glyph-name="uni1EEC" unicode="&#x1eec;" horiz-adv-x="862" 
d="M389 268v1418h221q34 0 48 13.5t14 45.5v143h190v-131q0 -113 -61.5 -164t-190.5 -51v-1274q0 -286 -272 -286q-275 0 -275 286v1418h224v-1418q0 -63 51 -63t51 63zM403 1772h-131v24q0 46 15 71t43 46q7 6 21 15t18.5 13t9 14t4.5 25v11q0 18 -25 18q-28 0 -28 -18v-23
h-140v29q0 94 166 94q170 0 170 -94v-19q0 -44 -13 -64t-54 -46q-40 -26 -48 -36.5t-8 -35.5v-24z" />
    <glyph glyph-name="uni1EED" unicode="&#x1eed;" horiz-adv-x="800" 
d="M549 0h-170q-6 30 -6 68q-55 -78 -146 -78q-79 0 -121.5 57t-42.5 156v1065h201v-1032q0 -50 39 -50q27 0 45 21v1061h201q34 0 47.5 13.5t13.5 45.5v143h191v-131q0 -113 -61.5 -164t-190.5 -51v-1124zM373 1354h-131v24q0 46 14.5 71t42.5 46q7 5 18 12.5t15.5 11
t10 10t7.5 14.5t2 20v10q0 18 -24 18q-29 0 -29 -18v-23h-139v29q0 94 166 94q170 0 170 -94v-18q0 -44 -13.5 -64.5t-54.5 -46.5q-40 -25 -47.5 -35.5t-7.5 -36.5v-24z" />
    <glyph glyph-name="uni1EEE" unicode="&#x1eee;" horiz-adv-x="862" 
d="M389 268v1418h221q34 0 48 13.5t14 45.5v143h190v-131q0 -113 -61.5 -164t-190.5 -51v-1274q0 -286 -272 -286q-275 0 -275 286v1418h224v-1418q0 -63 51 -63t51 63zM594 2023v-168q-49 -49 -129 -49q-51 0 -134.5 32t-127.5 32q-70 0 -113 -55h-4v165q46 50 129 50
q49 0 132 -30t130 -30q43 0 68.5 11t44.5 42h4z" />
    <glyph glyph-name="uni1EEF" unicode="&#x1eef;" horiz-adv-x="800" 
d="M549 0h-170q-6 30 -6 68q-55 -78 -146 -78q-79 0 -121.5 57t-42.5 156v1065h201v-1032q0 -50 39 -50q27 0 45 21v1061h201q34 0 47.5 13.5t13.5 45.5v143h191v-131q0 -113 -61.5 -164t-190.5 -51v-1124zM563 1606v-168q-49 -49 -129 -49q-51 0 -134.5 31.5t-127.5 31.5
q-70 0 -113 -55h-4v166q45 49 129 49q50 0 133 -30t129 -30q43 0 68 11.5t45 42.5h4z" />
    <glyph glyph-name="uni1EF0" unicode="&#x1ef0;" horiz-adv-x="862" 
d="M389 268v1418h221q34 0 48 13.5t14 45.5v143h190v-131q0 -113 -61.5 -164t-190.5 -51v-1274q0 -286 -272 -286q-275 0 -275 286v1418h224v-1418q0 -63 51 -63t51 63zM442 -305h-200v209h200v-209z" />
    <glyph glyph-name="uni1EF1" unicode="&#x1ef1;" horiz-adv-x="800" 
d="M549 0h-170q-6 30 -6 68q-55 -78 -146 -78q-79 0 -121.5 57t-42.5 156v1065h201v-1032q0 -50 39 -50q27 0 45 21v1061h201q34 0 47.5 13.5t13.5 45.5v143h191v-131q0 -113 -61.5 -164t-190.5 -51v-1124zM410 -305h-201v209h201v-209z" />
    <glyph glyph-name="Ygrave" unicode="&#x1ef2;" horiz-adv-x="688" 
d="M453 0h-226v719l-215 967h236q63 -366 102 -639q27 188 109 639h217l-223 -967v-719zM481 1761h-192l-287 330h256z" />
    <glyph glyph-name="ygrave" unicode="&#x1ef3;" horiz-adv-x="571" 
d="M35 -287v199q23 -6 69 -6q40 0 57.5 35.5t24.5 109.5l-170 1217h209q11 -135 24.5 -297.5t19.5 -229.5t11 -141.5t7 -130.5q2 45 5 91t10.5 124t13 135t21 202t25.5 247h191l-166 -1241q-11 -83 -28 -139t-47.5 -99.5t-79.5 -63.5t-119 -20q-47 0 -78 8zM424 1343h-193
l-286 330h256z" />
    <glyph glyph-name="uni1EF6" unicode="&#x1ef6;" horiz-adv-x="688" 
d="M453 0h-226v719l-215 967h236q63 -366 102 -639q27 188 109 639h217l-223 -967v-719zM410 1772h-131v24q0 46 14.5 71t42.5 46q7 6 21 15t18.5 13t9 14t4.5 25v11q0 18 -24 18q-29 0 -29 -18v-23h-139v29q0 94 165 94q170 0 170 -94v-19q0 -44 -13 -64t-54 -46
q-40 -25 -47.5 -35.5t-7.5 -36.5v-24z" />
    <glyph glyph-name="uni1EF7" unicode="&#x1ef7;" horiz-adv-x="571" 
d="M35 -287v199q23 -6 69 -6q40 0 57.5 35.5t24.5 109.5l-170 1217h209q11 -135 24.5 -297.5t19.5 -229.5t11 -141.5t7 -130.5q2 45 5 91t10.5 124t13 135t21 202t25.5 247h191l-166 -1241q-11 -83 -28 -139t-47.5 -99.5t-79.5 -63.5t-119 -20q-47 0 -78 8zM350 1354h-131
v24q0 46 14.5 71t42.5 46q7 5 21.5 14.5t19 14t9 14.5t4.5 25v10q0 18 -25 18q-29 0 -29 -18v-23h-139v29q0 94 166 94q170 0 170 -94v-18q0 -44 -13.5 -64.5t-53.5 -46.5t-48 -36.5t-8 -35.5v-24z" />
    <glyph glyph-name="endash" unicode="&#x2013;" horiz-adv-x="575" 
d="M557 764h-537v170h537v-170z" />
    <glyph glyph-name="emdash" unicode="&#x2014;" horiz-adv-x="913" 
d="M897 764h-877v170h877v-170z" />
    <glyph glyph-name="quoteleft" unicode="&#x2018;" horiz-adv-x="321" 
d="M264 1321h-207v233q0 65 39.5 107.5t116.5 42.5h27v-88h-27q-25 0 -34 -10.5t-9 -36.5v-37h94v-211z" />
    <glyph glyph-name="quoteright" unicode="&#x2019;" horiz-adv-x="321" 
d="M109 1303h-27v88h27q24 0 33.5 11t9.5 36v37h-95v211h207v-232q0 -66 -37 -108.5t-118 -42.5z" />
    <glyph glyph-name="quotesinglbase" unicode="&#x201a;" horiz-adv-x="344" 
d="M121 -127h-27v88h27q24 0 33.5 11t9.5 38v35h-94v211h206v-231q0 -65 -39 -108.5t-116 -43.5z" />
    <glyph glyph-name="quotedblleft" unicode="&#x201c;" horiz-adv-x="643" 
d="M264 1321h-207v233q0 65 39.5 107.5t116.5 42.5h27v-88h-27q-25 0 -34 -10.5t-9 -36.5v-37h94v-211zM586 1321h-207v233q0 65 39.5 107.5t116.5 42.5h26v-88h-26q-25 0 -34 -10.5t-9 -36.5v-37h94v-211z" />
    <glyph glyph-name="quotedblright" unicode="&#x201d;" horiz-adv-x="643" 
d="M109 1303h-27v88h27q24 0 33.5 11t9.5 36v37h-95v211h207v-232q0 -66 -37 -108.5t-118 -42.5zM430 1303h-27v88h27q24 0 33.5 11t9.5 36v37h-94v211h207v-232q0 -66 -37.5 -108.5t-118.5 -42.5z" />
    <glyph glyph-name="quotedblbase" unicode="&#x201e;" horiz-adv-x="665" 
d="M121 -127h-27v88h27q24 0 33.5 11t9.5 38v35h-94v211h206v-231q0 -65 -39 -108.5t-116 -43.5zM442 -127h-26v88h26q24 0 33.5 11t9.5 38v35h-94v211h207v-231q0 -65 -39.5 -108.5t-116.5 -43.5z" />
    <glyph glyph-name="dagger" unicode="&#x2020;" horiz-adv-x="833" 
d="M492 399h-152l20 836l-303 -16v157l297 -18l-18 328h160l-19 -328l299 20v-159l-303 16z" />
    <glyph glyph-name="daggerdbl" unicode="&#x2021;" horiz-adv-x="833" 
d="M496 0h-160l18 328l-297 -17v156l303 -16l-36 393l36 391l-303 -16v157l297 -18l-18 328h160l-19 -328l299 20v-159l-303 16l37 -391l-37 -393l303 16v-160l-299 21z" />
    <glyph glyph-name="bullet" unicode="&#x2022;" horiz-adv-x="432" 
d="M217 778q-73 0 -116.5 52.5t-43.5 132.5t43.5 132t116.5 52q72 0 115 -52t43 -132t-43 -132.5t-115 -52.5z" />
    <glyph glyph-name="ellipsis" unicode="&#x2026;" horiz-adv-x="964" 
d="M264 0h-207v256h207v-256zM586 0h-207v256h207v-256zM907 0h-207v256h207v-256z" />
    <glyph glyph-name="perthousand" unicode="&#x2030;" horiz-adv-x="1259" 
d="M125 997v576q0 143 141 143q140 0 140 -143v-576q0 -143 -140 -143q-141 0 -141 143zM295 995v580q0 31 -29 31q-30 0 -30 -31v-580q0 -30 30 -30q29 0 29 30zM184 0h-127l752 1686h125zM584 113v575q0 143 141 143q139 0 139 -143v-575q0 -144 -139 -144
q-141 0 -141 144zM754 111v579q0 31 -29 31q-31 0 -31 -31v-579q0 -31 31 -31q29 0 29 31zM922 113v575q0 143 141 143q139 0 139 -143v-575q0 -144 -139 -144q-141 0 -141 144zM1092 111v579q0 31 -29 31q-31 0 -31 -31v-579q0 -31 31 -31q29 0 29 31z" />
    <glyph glyph-name="guilsinglleft" unicode="&#x2039;" horiz-adv-x="397" 
d="M365 346l-332 219v236l332 205v-187l-226 -135l226 -143v-195z" />
    <glyph glyph-name="guilsinglright" unicode="&#x203a;" horiz-adv-x="397" 
d="M365 565l-332 -219v195l225 143l-225 135v187l332 -205v-236z" />
    <glyph glyph-name="fraction" unicode="&#x2044;" horiz-adv-x="346" 
d="M-137 0h-127l751 1686h125z" />
    <glyph glyph-name="zerosuperior" unicode="&#x2070;" horiz-adv-x="399" 
d="M59 997v576q0 143 142 143q139 0 139 -143v-576q0 -143 -139 -143q-142 0 -142 143zM229 995v580q0 31 -28 31q-31 0 -31 -31v-580q0 -30 31 -30q28 0 28 30z" />
    <glyph glyph-name="foursuperior" unicode="&#x2074;" horiz-adv-x="391" 
d="M135 1133h74q0 99 3 189t3 101q-17 -83 -80 -290zM311 864h-102v162h-172v96l172 584h102v-573h41v-107h-41v-162z" />
    <glyph glyph-name="fivesuperior" unicode="&#x2075;" horiz-adv-x="387" 
d="M221 997v275q0 28 -28 28q-33 0 -39 -40l-95 4l11 442h254v-111h-154l-8 -223q27 27 74 27q94 0 94 -131v-273q0 -141 -133 -141q-138 0 -138 141v179h111v-177q0 -30 25 -30q26 0 26 30z" />
    <glyph glyph-name="sixsuperior" unicode="&#x2076;" horiz-adv-x="391" 
d="M221 997v258q0 31 -24 31q-16 0 -27 -18v-271q0 -30 27 -30q24 0 24 30zM334 1264v-267q0 -67 -35.5 -105t-101.5 -38q-68 0 -103 38t-35 105v576q0 67 35 105t103 38q66 0 98.5 -37.5t32.5 -105.5v-146h-107v146q0 31 -24 31q-27 0 -27 -31v-205q35 25 66 25
q51 0 74.5 -30t23.5 -99z" />
    <glyph glyph-name="sevensuperior" unicode="&#x2077;" horiz-adv-x="358" 
d="M197 864h-111q0 133 12.5 256.5t29.5 204.5t36 144.5t31.5 92t17.5 33.5h-172v111h276v-102q-117 -266 -120 -740z" />
    <glyph glyph-name="eightsuperior" unicode="&#x2078;" horiz-adv-x="385" 
d="M328 1202v-205q0 -143 -135 -143q-138 0 -138 143v205q0 75 51 98q-40 27 -40 91v182q0 143 127 143q126 0 126 -143v-182q0 -62 -43 -91q52 -23 52 -98zM217 997v213q0 31 -24 31q-13 0 -20 -9t-7 -22v-213q0 -30 27 -30q24 0 24 30zM217 1376v197q0 31 -24 31
q-27 0 -27 -31v-197q0 -30 27 -30q24 0 24 30z" />
    <glyph glyph-name="ninesuperior" unicode="&#x2079;" horiz-adv-x="389" 
d="M217 1321v252q0 31 -24 31q-25 0 -25 -31v-238q0 -32 25 -32q19 0 24 18zM217 997v217q-34 -24 -63 -24q-52 0 -74.5 30t-22.5 101v252q0 67 35 105t101 38q68 0 102.5 -37.5t34.5 -105.5v-576q0 -68 -34.5 -105.5t-102.5 -37.5q-63 0 -99.5 38.5t-36.5 104.5v146h111
v-146q0 -30 25 -30q24 0 24 30z" />
    <glyph glyph-name="zeroinferior" unicode="&#x2080;" horiz-adv-x="399" 
d="M59 113v575q0 143 142 143q139 0 139 -143v-575q0 -144 -139 -144q-142 0 -142 144zM229 111v579q0 31 -28 31q-31 0 -31 -31v-579q0 -31 31 -31q28 0 28 31z" />
    <glyph glyph-name="oneinferior" unicode="&#x2081;" horiz-adv-x="270" 
d="M203 -20h-111v671h-47v109h21q36 0 36 41v20h101v-841z" />
    <glyph glyph-name="twoinferior" unicode="&#x2082;" horiz-adv-x="380" 
d="M328 -20h-273v153q0 76 15.5 126t66.5 124q43 64 60.5 110.5t17.5 104.5v90q0 31 -25 31q-24 0 -24 -31v-149h-111v147q0 77 32.5 111t102.5 34q138 0 138 -145v-102q0 -110 -84 -238q-50 -78 -64 -118.5t-14 -94.5v-43h162v-110z" />
    <glyph glyph-name="threeinferior" unicode="&#x2083;" horiz-adv-x="380" 
d="M217 113v211q0 32 -27 32h-43v105h50q20 0 20 33v194q0 31 -27 31q-24 0 -24 -31v-151h-109v149q0 77 31.5 111t101.5 34t102 -35t32 -112v-190q0 -59 -50 -86q52 -18 52 -89v-206q0 -68 -34.5 -106t-101.5 -38q-66 0 -101.5 38.5t-35.5 105.5v166h113v-166q0 -31 24 -31
q27 0 27 31z" />
    <glyph glyph-name="fourinferior" unicode="&#x2084;" horiz-adv-x="391" 
d="M135 248h74q0 99 3 189.5t3 101.5q-18 -86 -80 -291zM311 -20h-102v161h-172v97l172 583h102v-573h41v-107h-41v-161z" />
    <glyph glyph-name="fiveinferior" unicode="&#x2085;" horiz-adv-x="387" 
d="M221 113v274q0 29 -28 29q-33 0 -39 -41l-95 4l11 442h254v-110h-154l-8 -224q27 27 74 27q94 0 94 -131v-272q0 -142 -133 -142q-138 0 -138 142v178h111v-176q0 -31 25 -31q26 0 26 31z" />
    <glyph glyph-name="sixinferior" unicode="&#x2086;" horiz-adv-x="391" 
d="M221 113v258q0 30 -24 30q-16 0 -27 -18v-270q0 -31 27 -31q24 0 24 31zM334 379v-266q0 -67 -35.5 -105.5t-101.5 -38.5q-68 0 -103 38.5t-35 105.5v575q0 67 35 105t103 38q66 0 98.5 -37.5t32.5 -105.5v-145h-107v145q0 31 -24 31q-27 0 -27 -31v-205q35 25 66 25
q51 0 74.5 -30t23.5 -99z" />
    <glyph glyph-name="seveninferior" unicode="&#x2087;" horiz-adv-x="358" 
d="M197 -20h-111q0 133 12.5 256.5t29.5 204.5t36 144.5t31.5 92t17.5 33.5h-172v110h276v-102q-117 -266 -120 -739z" />
    <glyph glyph-name="eightinferior" unicode="&#x2088;" horiz-adv-x="385" 
d="M328 317v-204q0 -144 -135 -144q-138 0 -138 144v204q0 76 51 99q-40 27 -40 90v182q0 143 127 143q126 0 126 -143v-182q0 -61 -43 -90q24 -11 38 -37t14 -62zM217 113v213q0 30 -24 30q-27 0 -27 -30v-213q0 -31 27 -31q24 0 24 31zM217 492v196q0 31 -24 31
q-27 0 -27 -31v-196q0 -31 27 -31q24 0 24 31z" />
    <glyph glyph-name="nineinferior" unicode="&#x2089;" horiz-adv-x="389" 
d="M217 436v252q0 31 -24 31q-25 0 -25 -31v-237q0 -33 25 -33q19 0 24 18zM217 113v217q-35 -25 -63 -25q-52 0 -74.5 30t-22.5 101v252q0 67 35 105t101 38q68 0 102.5 -37.5t34.5 -105.5v-575q0 -68 -34.5 -106t-102.5 -38q-63 0 -99.5 39t-36.5 105v145h111v-145
q0 -31 25 -31q24 0 24 31z" />
    <glyph glyph-name="uni20A9" unicode="&#x20a9;" horiz-adv-x="1099" 
d="M866 0h-231l-68 874h-35l-73 -874h-234l-75 874h-132v170h117l-18 199h-99v170h84l-22 273h211l16 -273h137l25 273h178l21 -273h139l20 273h209l-26 -273h71v-170h-90l-20 -199h110v-170h-127zM682 1243l14 -199h82l17 199h-113zM317 1243l13 -199h80l18 199h-111z
M711 874l28 -364l27 364h-55zM340 874l22 -364l33 364h-55z" />
    <glyph glyph-name="uni20AA" unicode="&#x20aa;" horiz-adv-x="1116" 
d="M539 1440h-289v-1440h-180v1686h469q123 0 182 -64.5t59 -200.5v-1024h-180v994q0 26 -13.5 37.5t-47.5 11.5zM578 246h288v1440h181v-1686h-469q-124 0 -183 64t-59 200v1024h180v-993q0 -26 14 -37.5t48 -11.5z" />
    <glyph glyph-name="dong" unicode="&#x20ab;" horiz-adv-x="624" 
d="M555 221h-170q-6 30 -6 70q-19 -43 -52 -61.5t-94 -18.5q-81 0 -128.5 62.5t-47.5 177.5v604q0 121 45.5 177t139.5 56q69 0 112 -37v158h-227v172h227v105h201v-105h70v-172h-70v-1188zM590 0h-559v147h559v-147zM354 455v602q-14 26 -47 26q-49 0 -49 -49v-555
q0 -53 49 -53q31 0 47 29z" />
    <glyph glyph-name="Euro" unicode="&#x20ac;" horiz-adv-x="710" 
d="M676 426v-158q0 -143 -68 -214.5t-213 -71.5q-146 0 -214 71.5t-68 214.5v316h-99l25 168h74v215h-99l25 168h74v241q0 172 81.5 250t284.5 78q119 0 217 -10l-34 -221q-83 12 -175 12q-65 0 -98.5 -12.5t-43 -33.5t-9.5 -63v-241h270l-26 -168h-244v-215h211l-29 -168
h-182v-320q0 -63 59 -63q62 0 62 63v162h219z" />
    <glyph glyph-name="uni20AD" unicode="&#x20ad;" horiz-adv-x="794" 
d="M725 0h-231l-156 803v-803h-203v811h-110v170h110v705h203v-705l154 705h215l-191 -705h232v-170h-216z" />
    <glyph glyph-name="uni20AE" unicode="&#x20ae;" 
d="M567 911l-161 -94v-131l75 45l86 -147l-161 -95v-489h-224v360l-82 -47l-84 146l166 96v133l-82 -47l-84 145l166 97v579h-164v224h549v-224h-161v-448l75 45z" />
    <glyph glyph-name="uni20B1" unicode="&#x20b1;" horiz-adv-x="813" 
d="M786 983h-98q-4 -150 -74.5 -217.5t-220.5 -67.5h-33v-698h-223v983h-114v147h114v111h-114v148h114v297h254q152 0 224 -71.5t73 -225.5h98v-148h-98v-111h98v-147zM360 1241v-111h109v111h-109zM360 1470v-81h109v2q0 79 -78 79h-31zM393 907q73 0 76 76h-109v-76h33z
" />
    <glyph glyph-name="uni20B2" unicode="&#x20b2;" horiz-adv-x="665" 
d="M217 -102h-162l41 192q-39 67 -39 178v1147q0 142 68.5 215.5t204.5 73.5q55 0 106 -14l17 71h161l-41 -192q25 -67 25 -154v-297h-121l-65 -307h198v-821h-22l-72 67q-57 -75 -201 -75q-43 0 -79 8zM281 1417v-463l106 504q-16 23 -53 23q-53 0 -53 -64zM395 598h-28
l-80 -369q12 -24 47 -24q61 0 61 63v330z" />
    <glyph glyph-name="uni20B4" unicode="&#x20b4;" horiz-adv-x="706" 
d="M121 698h-58v140h140l47 65h-187v139h293q47 68 47 136v249q0 54 -53 54t-53 -54v-309h-205v309q0 142 61.5 209.5t198.5 67.5q277 0 277 -277v-251q0 -69 -19 -134h39v-139h-104l-45 -65h149v-140h-256q-53 -71 -69.5 -109t-16.5 -89v-240q0 -55 55 -55q54 0 54 55v358
h213v-358q0 -278 -273 -278q-140 0 -205 70t-65 208v242q0 114 35 196z" />
    <glyph glyph-name="uni20B8" unicode="&#x20b8;" horiz-adv-x="501" 
d="M354 0h-200v1171h-113v205h426v-205h-113v-1171zM467 1483h-426v203h426v-203z" />
    <glyph glyph-name="uni20B9" unicode="&#x20b9;" horiz-adv-x="681" 
d="M27 1686h626v-168h-112q18 -58 18 -138v-37h94v-167h-94v-72q0 -135 -55 -207.5t-166 -89.5l313 -807h-243l-295 801v188h151q76 0 76 92v95h-313v167h313v80q0 45 -18.5 70t-53.5 25h-241v168z" />
    <glyph glyph-name="uni20BA" unicode="&#x20ba;" horiz-adv-x="739" 
d="M582 1075l-197 -114v-132l111 66l86 -147l-197 -115v-410h49q53 0 53 64v198h203v-198q0 -287 -274 -287h-254v504l-47 -27l-84 146l131 75v133l-47 -26l-84 145l131 76v660h223v-529l111 66z" />
    <glyph glyph-name="uni20BC" unicode="&#x20bc;" horiz-adv-x="862" 
d="M809 948v-948h-195v965q0 44 -17 65.5t-62 30.5v-856h-207v856q-45 -9 -62.5 -30.5t-17.5 -65.5v-965h-195v948q0 84 9.5 135.5t37.5 94.5t82 65t140 31v412h219v-412q86 -9 140 -31t81.5 -65t37 -94.5t9.5 -135.5z" />
    <glyph glyph-name="uni20BD" unicode="&#x20bd;" horiz-adv-x="714" 
d="M336 0h-223v254h-86v170h86v238h-86v169h86v855h256q154 0 225.5 -69.5t71.5 -219.5v-449q0 -150 -70.5 -218t-224.5 -68h-35v-238h213v-170h-213v-254zM446 909v504q0 80 -77 80h-33v-662h35q75 0 75 78z" />
    <glyph glyph-name="uni20BE" unicode="&#x20be;" horiz-adv-x="843" 
d="M403 1004h-90v466q-30 -7 -39.5 -21.5t-9.5 -43.5v-805q0 -86 40.5 -166t92 -130.5t113.5 -90.5v-213h-469v223h233q-49 35 -85.5 70.5t-69 81t-49.5 102.5t-17 123v803q0 142 55.5 210t204.5 85v160h90v-154h56v154h90v-160q144 -18 201 -87t57 -208v-174h-207v176
q0 28 -10.5 43t-40.5 22v-466h-90v477h-56v-477z" />
    <glyph glyph-name="litre" unicode="&#x2113;" horiz-adv-x="681" 
d="M369 1761q115 0 167 -62.5t52 -189.5v-538q0 -208 -60 -330t-198 -199v-194q0 -66 123 -66q94 0 182 43v-190q-36 -25 -106.5 -39t-139.5 -14q-136 0 -196 64t-60 198v114l-63 -18l-41 158q32 8 104 30v981q0 123 59.5 187.5t176.5 64.5zM330 1518v-887q52 49 71 125
t19 211v551q0 55 -45 55t-45 -55z" />
    <glyph glyph-name="uni2116" unicode="&#x2116;" horiz-adv-x="1257" 
d="M666 0h-213q-156 740 -207 1032q6 -199 6 -598v-434h-186v1686h256q51 -315 84.5 -532t53 -349t25.5 -174q-6 180 -6 528v527h187v-1686zM768 768v705q0 223 213 223t213 -223v-705q0 -223 -213 -223t-213 223zM1020 774v692q0 47 -39 47t-39 -47v-692q0 -49 39 -49
t39 49z" />
    <glyph glyph-name="uni2117" unicode="&#x2117;" horiz-adv-x="1077" 
d="M1020 1233v-780q0 -252 -114.5 -361.5t-366.5 -109.5t-367 109.5t-115 361.5v780q0 252 115 361.5t367 109.5q250 0 365.5 -110t115.5 -361zM870 434v817q0 178 -71 245t-260 67q-190 0 -261 -66.5t-71 -245.5v-817q0 -168 73 -238.5t259 -70.5t258.5 70t72.5 239z
M588 1012v180q0 49 -47 49h-31v-278h33q45 0 45 49zM510 322h-141v1060h172q186 0 186 -190v-176q0 -99 -45.5 -145t-138.5 -46h-33v-503z" />
    <glyph glyph-name="trademark" unicode="&#x2122;" horiz-adv-x="1007" 
d="M283 907h-136v676h-98v103h332v-103h-98v-676zM938 907h-123v219q0 152 8 275q-16 -147 -71 -494h-115q-18 128 -34 239t-24 164t-12 91q8 -123 8 -275v-219h-122v779h178l63 -543q25 249 64 543h180v-779z" />
    <glyph glyph-name="onethird" unicode="&#x2153;" horiz-adv-x="991" 
d="M295 864h-111v672h-47v109h21q37 0 37 41v20h100v-842zM184 0h-127l752 1686h125zM803 113v211q0 32 -27 32h-43v105h49q21 0 21 33v194q0 31 -27 31q-24 0 -24 -31v-151h-109v149q0 77 31.5 111t101.5 34q69 0 101 -34.5t32 -112.5v-190q0 -59 -49 -86q51 -17 51 -89
v-206q0 -68 -34 -106t-101 -38q-66 0 -101.5 38.5t-35.5 105.5v166h113v-166q0 -31 24 -31q27 0 27 31z" />
    <glyph glyph-name="twothirds" unicode="&#x2154;" horiz-adv-x="991" 
d="M350 864h-272v154q0 76 15.5 126t66.5 124q43 64 60.5 110.5t17.5 104.5v90q0 31 -25 31t-25 -31v-150h-110v148q0 77 32.5 111t102.5 34q137 0 137 -145v-103q0 -109 -84 -237q-50 -78 -64 -118.5t-14 -94.5v-43h162v-111zM184 0h-127l752 1686h125zM782 113v211
q0 32 -26 32h-43v105h49q20 0 20 33v194q0 31 -26 31q-25 0 -25 -31v-151h-108v149q0 77 31.5 111t101.5 34q69 0 101 -34.5t32 -112.5v-190q0 -59 -49 -86q51 -17 51 -89v-206q0 -68 -34 -106t-101 -38q-66 0 -102 38.5t-36 105.5v166h113v-166q0 -31 25 -31q26 0 26 31z
" />
    <glyph glyph-name="oneeighth" unicode="&#x215b;" horiz-adv-x="991" 
d="M295 864h-111v672h-47v109h21q37 0 37 41v20h100v-842zM184 0h-127l752 1686h125zM913 317v-204q0 -144 -135 -144q-137 0 -137 144v204q0 76 51 99q-41 27 -41 90v182q0 143 127 143t127 -143v-182q0 -61 -43 -90q51 -23 51 -99zM803 113v213q0 13 -6.5 21.5t-18.5 8.5
q-26 0 -26 -30v-213q0 -31 26 -31q25 0 25 31zM803 492v196q0 31 -25 31q-26 0 -26 -31v-196q0 -31 26 -31q25 0 25 31z" />
    <glyph glyph-name="threeeighths" unicode="&#x215c;" horiz-adv-x="991" 
d="M260 997v211q0 33 -27 33h-43v105h50q20 0 20 32v195q0 31 -27 31q-24 0 -24 -31v-152h-109v150q0 77 31.5 111t101.5 34t102 -35t32 -112v-191q0 -59 -50 -86q52 -18 52 -88v-207q0 -68 -34.5 -105.5t-101.5 -37.5q-66 0 -101.5 38t-35.5 105v166h113v-166q0 -30 24 -30
q27 0 27 30zM184 0h-127l752 1686h125zM893 317v-204q0 -144 -135 -144q-137 0 -137 144v204q0 76 51 99q-41 27 -41 90v182q0 143 127 143t127 -143v-182q0 -61 -43 -90q51 -23 51 -99zM782 113v213q0 30 -24 30q-27 0 -27 -30v-213q0 -31 27 -31q24 0 24 31zM782 492v196
q0 31 -24 31q-27 0 -27 -31v-196q0 -31 27 -31q24 0 24 31z" />
    <glyph glyph-name="fiveeighths" unicode="&#x215d;" horiz-adv-x="991" 
d="M258 997v275q0 28 -29 28q-33 0 -39 -40l-94 4l10 442h254v-111h-153l-8 -223q27 27 73 27q95 0 95 -131v-273q0 -141 -134 -141q-137 0 -137 141v179h111v-177q0 -30 24 -30q27 0 27 30zM184 0h-127l752 1686h125zM893 317v-204q0 -144 -135 -144q-137 0 -137 144v204
q0 76 51 99q-41 27 -41 90v182q0 143 127 143t127 -143v-182q0 -61 -43 -90q51 -23 51 -99zM782 113v213q0 30 -24 30q-27 0 -27 -30v-213q0 -31 27 -31q24 0 24 31zM782 492v196q0 31 -24 31q-27 0 -27 -31v-196q0 -31 27 -31q24 0 24 31z" />
    <glyph glyph-name="seveneighths" unicode="&#x215e;" horiz-adv-x="991" 
d="M303 864h-110q0 133 12 256.5t29 204.5t36 144.5t31.5 92t17.5 33.5h-172v111h277v-102q-118 -268 -121 -740zM184 0h-127l752 1686h125zM893 317v-204q0 -144 -135 -144q-137 0 -137 144v204q0 76 51 99q-41 27 -41 90v182q0 143 127 143t127 -143v-182q0 -61 -43 -90
q51 -23 51 -99zM782 113v213q0 30 -24 30q-27 0 -27 -30v-213q0 -31 27 -31q24 0 24 31zM782 492v196q0 31 -24 31q-27 0 -27 -31v-196q0 -31 27 -31q24 0 24 31z" />
    <glyph glyph-name="partialdiff" unicode="&#x2202;" horiz-adv-x="888" 
d="M371 1458v223q35 21 141 21q348 0 348 -668q0 -91 -5.5 -181.5t-21 -197.5t-40 -200t-66 -181.5t-94.5 -151.5t-129 -101.5t-168 -38.5q-81 0 -141.5 34.5t-96 97t-52.5 141.5t-17 175q0 112 26 210.5t76 174.5t129 120t178 44q67 0 129 -38t101 -112q8 91 8 222
q0 426 -203 426q-60 0 -102 -19zM641 653q-29 74 -82 114t-106 40q-120 0 -181 -93.5t-61 -258.5q0 -119 41 -185.5t119 -66.5q62 0 109.5 35.5t78 101.5t49.5 140.5t33 172.5z" />
    <glyph glyph-name="product" unicode="&#x220f;" horiz-adv-x="958" 
d="M889 -285h-195v1805h-432v-1805h-192v1971h819v-1971z" />
    <glyph glyph-name="summation" unicode="&#x2211;" horiz-adv-x="843" 
d="M807 -285h-770v162l375 823l-375 820v166h770v-224h-522l329 -762l-329 -766h522v-219z" />
    <glyph glyph-name="minus" unicode="&#x2212;" horiz-adv-x="962" 
d="M895 776h-825v166h825v-166z" />
    <glyph glyph-name="radical" unicode="&#x221a;" horiz-adv-x="983" 
d="M547 0h-217l-137 592h-154v143h301l98 -493l344 1444h183z" />
    <glyph glyph-name="infinity" unicode="&#x221e;" horiz-adv-x="1271" 
d="M637 666q-24 -107 -86.5 -145t-183.5 -38q-42 0 -70 1.5t-63.5 8.5t-58.5 19t-47.5 35t-38.5 55.5t-23 80.5t-9 110q0 71 10.5 124t33.5 86t48 53.5t64.5 30t72 12.5t81.5 3q121 0 184 -37.5t86 -144.5q11 55 33.5 91.5t58.5 56t77.5 27t98.5 7.5q41 0 69.5 -2t63.5 -8.5
t58.5 -19t47.5 -35.5t38 -55.5t23 -80t9 -108.5q0 -62 -9 -110t-23 -80.5t-38 -55.5t-47 -35t-58.5 -19t-63.5 -8.5t-70 -1.5q-117 0 -182.5 38.5t-85.5 144.5zM1073 793q0 36 -10 61t-23.5 38t-40 19.5t-45.5 7.5t-53 1q-93 0 -129.5 -23t-36.5 -104q0 -45 9 -72
t32.5 -39.5t49.5 -16t75 -3.5q87 0 129.5 27t42.5 104zM539 793q0 81 -36.5 104t-131.5 23q-34 0 -53 -1t-45 -7.5t-39 -19.5t-23 -38t-10 -61t9.5 -61.5t23.5 -39t39 -20.5t45 -8.5t53 -1.5t53.5 1.5t45 8.5t37.5 20.5t22.5 39t9.5 61.5z" />
    <glyph glyph-name="integral" unicode="&#x222b;" horiz-adv-x="620" 
d="M127 -285h-102v168h98q44 0 62 27t18 88v1679q0 149 72.5 215t218.5 66h102v-168h-100q-42 0 -60 -28t-18 -89v-1681q0 -144 -73 -210.5t-218 -66.5z" />
    <glyph glyph-name="approxequal" unicode="&#x2248;" horiz-adv-x="964" 
d="M897 795v-195q-97 -70 -240 -70q-67 0 -190.5 43t-179.5 43q-61 0 -112 -22.5t-105 -81.5v197q78 71 211 71q69 0 140.5 -21.5t134.5 -43t110 -21.5q70 0 121.5 21.5t109.5 79.5zM897 1204v-194q-97 -70 -240 -70q-67 0 -190.5 43t-179.5 43q-61 0 -112 -22.5t-105 -81.5
v196q79 72 211 72q69 0 140.5 -21.5t134.5 -43t110 -21.5q71 0 122 21t109 79z" />
    <glyph glyph-name="notequal" unicode="&#x2260;" horiz-adv-x="962" 
d="M211 0h-168l246 584h-219v168h288l93 215h-381v168h450l234 551h166l-232 -551h207v-168h-279l-90 -215h369v-168h-438z" />
    <glyph glyph-name="lessequal" unicode="&#x2264;" horiz-adv-x="962" 
d="M895 522l-825 234v202l825 234v-166l-655 -164l655 -174v-166zM895 285h-825v166h825v-166z" />
    <glyph glyph-name="greaterequal" unicode="&#x2265;" horiz-adv-x="962" 
d="M895 756l-825 -234v166l655 174l-655 164v166l825 -234v-202zM895 285h-825v166h825v-166z" />
    <glyph glyph-name="lozenge" unicode="&#x25ca;" horiz-adv-x="831" 
d="M522 0h-213l-252 844l252 842h213l252 -842zM410 174l188 670l-176 667l-189 -667z" />
    <glyph glyph-name="fi" unicode="&#xfb01;" horiz-adv-x="737" 
d="M279 0h-201v1094h-64v174h64v176q0 114 47.5 183t155.5 69q50 0 94 -13v-170q-9 3 -29 3q-67 0 -67 -76v-172h92v-174h-92v-1094zM666 1430h-201v256h201v-256zM666 0h-201v1268h201v-1268z" />
    <glyph glyph-name="fl" unicode="&#xfb02;" horiz-adv-x="731" 
d="M279 0h-201v1094h-64v174h64v176q0 114 47.5 183t155.5 69q50 0 94 -13v-170q-9 3 -29 3q-67 0 -67 -76v-172h92v-174h-92v-1094zM662 0h-201v1686h201v-1686z" />
    <glyph glyph-name="uni021A" 
d="M406 0h-224v1462h-164v224h549v-224h-161v-1462zM279 -305h-48v63h41q23 0 23 25v29h-82v147h166v-176q0 -88 -100 -88z" />
    <glyph glyph-name="uni021B" horiz-adv-x="391" 
d="M375 156v-170q-46 -4 -62 -4q-235 0 -235 262v850h-64v174h64v401h201v-401h92v-174h-92v-846q0 -52 23 -72t73 -20zM219 -305h-47v63h41q23 0 23 25v29h-82v147h165v-176q0 -88 -100 -88z" />
    <glyph glyph-name="CR" horiz-adv-x="278" 
 />
    </font>
</defs>
</svg>
