<svg width="101" height="76" viewBox="0 0 101 76" fill="none" xmlns="http://www.w3.org/2000/svg">
<path d="M7.66113 39.9972C7.64325 40.5256 7.20021 40.9395 6.67179 40.9216L2.21496 40.7705C1.68654 40.7526 1.27271 40.3095 1.2906 39.7811C1.30848 39.2527 1.75152 38.8389 2.27994 38.8568L6.73702 39.0079C7.26519 39.026 7.67902 39.4688 7.66113 39.9972Z" fill="#CDDBA4"/>
<path d="M10.7423 34.9929C10.2403 35.1586 9.69882 34.8861 9.53309 34.3841L8.13446 30.1495C7.96873 29.6475 8.24125 29.106 8.74323 28.9402C9.2452 28.7745 9.78672 29.047 9.95245 29.549L11.3508 33.7837C11.5171 34.2857 11.2445 34.8272 10.7423 34.9929Z" fill="#CDDBA4"/>
<path d="M8.19212 36.6779C7.92891 37.1366 7.34382 37.295 6.88516 37.0318L3.0172 34.8121C2.55855 34.5489 2.40012 33.9638 2.66333 33.5051C2.92653 33.0465 3.51162 32.888 3.97028 33.1512L7.83799 35.371C8.29689 35.6344 8.45532 36.2195 8.19212 36.6779Z" fill="#CDDBA4"/>
<path d="M2.24673 38.8565C2.25781 38.8565 2.26864 38.8567 2.27972 38.857L6.73681 39.0081C7.26523 39.026 7.67905 39.469 7.66117 39.9975C7.64354 40.5148 7.21864 40.9223 6.70507 40.9223C6.69399 40.9223 6.68316 40.9221 6.67208 40.9218L2.21525 40.7707C1.68682 40.7528 1.273 40.3098 1.29089 39.7813C1.30801 39.264 1.73292 38.8565 2.24673 38.8565ZM2.24673 37.5664C1.02894 37.5664 0.04262 38.52 0.00131336 39.7375C-0.0407488 40.976 0.932726 42.0177 2.17117 42.0598L6.62825 42.2109C6.6542 42.2119 6.67963 42.2121 6.70507 42.2121C7.92286 42.2121 8.90918 41.2583 8.95049 40.0408C8.97089 39.4408 8.7563 38.8688 8.34651 38.4303C7.93671 37.9918 7.38059 37.7389 6.78063 37.7185L2.32355 37.5674C2.29761 37.5669 2.27217 37.5664 2.24673 37.5664Z" fill="black"/>
<path d="M9.04357 28.8918C9.44531 28.8918 9.81958 29.1466 9.95257 29.5491L11.351 33.7838C11.5167 34.2858 11.2442 34.8273 10.7422 34.993C10.6424 35.026 10.5412 35.0416 10.4417 35.0416C10.04 35.0416 9.66569 34.7868 9.5327 34.3843L8.13407 30.1496C7.96834 29.6476 8.24087 29.1061 8.74284 28.9404C8.84283 28.9076 8.94383 28.8918 9.04357 28.8918ZM9.04357 27.6019C8.80405 27.6019 8.56679 27.6402 8.33859 27.7155C7.16186 28.1042 6.52085 29.3776 6.90948 30.5543L8.30811 34.789C8.61288 35.7119 9.47049 36.332 10.442 36.332C10.6815 36.332 10.9185 36.2937 11.1469 36.2184C11.7169 36.0302 12.1796 35.631 12.4496 35.095C12.7196 34.5588 12.7644 33.9495 12.5763 33.3796L11.1779 29.1451C10.8726 28.2218 10.015 27.6019 9.04357 27.6019Z" fill="black"/>
<path d="M3.49502 33.0243C3.65672 33.0243 3.82044 33.0654 3.97055 33.1515L7.83826 35.3712C8.29692 35.6345 8.45534 36.2195 8.19214 36.6782C8.01508 36.9865 7.69268 37.1593 7.36097 37.1593C7.19927 37.1593 7.03555 37.1182 6.88544 37.0321L3.01748 34.8124C2.55883 34.5491 2.4004 33.964 2.6636 33.5054C2.84067 33.1969 3.16331 33.0243 3.49502 33.0243ZM3.49502 31.7343C2.69156 31.7343 1.94452 32.167 1.5448 32.8631C1.24608 33.3837 1.16775 33.9895 1.32466 34.569C1.48158 35.1486 1.8546 35.6322 2.37521 35.9309L6.24317 38.1506C6.5832 38.3458 6.96982 38.4488 7.36097 38.4488C8.16418 38.4488 8.91148 38.0164 9.31094 37.32C9.92777 36.2452 9.55526 34.869 8.48028 34.2522L4.61257 32.0325C4.27254 31.8375 3.88618 31.7343 3.49502 31.7343Z" fill="black"/>
<path d="M85.9391 4.08861L72.7827 25.0484L68.6929 24.178L70.1771 16.4496L72.3369 5.21245C72.7472 3.07786 74.5337 1.45531 76.7023 1.31402C79.3631 1.14073 81.8432 1.96207 83.5627 2.75823C85.0279 3.43375 85.9391 4.08861 85.9391 4.08861Z" fill="#F06A6A"/>
<path d="M77.427 1.29007C82.0457 1.29007 85.9386 4.0891 85.9386 4.0891L72.782 25.0487L68.6926 24.179L72.3374 5.21269C72.7477 3.07784 74.5335 1.45505 76.7026 1.3135C76.9461 1.29763 77.1872 1.29007 77.427 1.29007ZM77.427 0C77.1564 0 76.8844 0.00881257 76.6187 0.0261916C73.8771 0.205019 71.5957 2.2376 71.0705 4.96913L67.4257 23.9354C67.2932 24.6253 67.737 25.2945 68.4241 25.4406L72.5135 26.3103C72.6029 26.3294 72.6931 26.3385 72.782 26.3385C73.2195 26.3385 73.6351 26.1153 73.8743 25.7342L87.031 4.77468C87.3929 4.1979 87.2443 3.43902 86.6915 3.04157C86.5189 2.9174 82.4044 0 77.427 0Z" fill="black"/>
<path d="M83.5626 2.75842L77.9832 11.7635C77.9832 11.7635 74.9666 17.7809 70.1768 16.4498L72.3365 5.21263C72.7468 3.07804 74.5333 1.45549 76.7019 1.31419C79.3627 1.14066 81.8428 1.96226 83.5626 2.75842Z" fill="#F77575"/>
<path d="M74.7085 26.4513L76.2625 31.5766L95.4809 27.4734C97.8256 26.9726 99.4418 24.827 99.2872 22.4342C99.1222 19.878 98.2044 16.682 95.1406 14.3026L74.7085 26.4513Z" fill="#F06A6A"/>
<path d="M95.1411 14.3029C98.2048 16.6823 99.1227 19.8783 99.2876 22.4345C99.442 24.827 97.826 26.9729 95.4814 27.4736L76.263 31.5768L74.7089 26.4516L95.1411 14.3029ZM95.1408 13.0128C94.9137 13.0128 94.6857 13.0728 94.4817 13.1939L74.0493 25.3423C73.5393 25.6456 73.302 26.2576 73.474 26.8253L75.0281 31.9506C75.1958 32.5037 75.7046 32.8667 76.2617 32.8667C76.3509 32.8667 76.4415 32.8573 76.532 32.838L95.7504 28.735C98.695 28.1063 100.769 25.362 100.575 22.3514C100.332 18.5897 98.7265 15.4542 95.932 13.2841C95.7008 13.1042 95.4214 13.0128 95.1408 13.0128Z" fill="black"/>
<path d="M95.481 27.474L90.8836 28.4557L90.8746 28.458C90.869 28.459 90.8617 28.4615 90.8509 28.4636L89.8303 28.6812C89.8248 28.6839 89.8192 28.6849 89.8122 28.6839C87.6789 29.0625 82.8941 29.5023 80.4537 26.4849C79.4596 25.2557 79.7916 23.4287 81.1504 22.6209L95.1402 14.3037C98.2037 16.6829 99.1215 19.8773 99.2878 22.4351C99.4412 24.8271 97.8252 26.9727 95.481 27.474Z" fill="#F77575"/>
<path d="M94.6062 16.4935L84.1771 22.5958L78.4392 25.9548C76.8313 26.8955 74.7781 26.5351 73.5867 25.1009C72.8905 24.2619 72.6024 23.1897 72.7424 22.1558C72.8122 21.6407 72.9878 21.1362 73.2724 20.6731L77.5086 13.7872L83.0273 4.8126C84.5602 2.31783 87.7405 1.41362 90.364 2.71226C92.6394 3.8371 95.1729 5.78708 96.8421 9.15558C98.1518 11.7977 97.1509 15.0052 94.6062 16.4935Z" fill="#F77575"/>
<path d="M94.6065 16.4935L86.0107 21.5231C83.7565 22.8422 80.8715 22.5142 79.0344 20.6579C78.8992 20.5214 78.7689 20.3779 78.6443 20.2275C77.4378 18.7737 76.9394 16.9159 77.1817 15.1249C77.2429 14.672 77.3512 14.2237 77.5088 13.7872L83.0275 4.8126C84.5604 2.31783 87.7408 1.41362 90.3643 2.71226C92.6396 3.8371 95.1732 5.78708 96.8423 9.15558C98.1521 11.7977 97.1511 15.0052 94.6065 16.4935Z" fill="#FA7D7D"/>
<path d="M87.8468 2.121C88.6959 2.121 89.5567 2.31192 90.3647 2.71163C92.6391 3.83673 95.1739 5.78671 96.8428 9.15521C98.1518 11.7971 97.1511 15.0049 94.6065 16.4939L78.44 25.9546C77.839 26.3063 77.1756 26.4763 76.5187 26.4763C75.417 26.4763 74.3327 25.999 73.587 25.1006C72.5442 23.8447 72.418 22.0638 73.2731 20.6734L83.027 4.81197C84.0884 3.08566 85.9384 2.121 87.8468 2.121ZM87.8468 0.831177C85.4132 0.831177 83.2006 2.0666 81.9279 4.13621L72.174 19.9977C71.0285 21.8605 71.1975 24.2422 72.5943 25.9247C73.566 27.0951 74.9964 27.7663 76.5187 27.7663C77.4214 27.7663 78.311 27.5248 79.0916 27.0682L95.2581 17.6074C98.3931 15.7728 99.597 11.8087 97.9987 8.58271C96.46 5.47716 94.0841 3.11286 90.9367 1.5558C89.9653 1.07473 88.9256 0.831177 87.8468 0.831177Z" fill="black"/>
<path d="M74.1802 23.6731L80.2568 15.9506" stroke="black" stroke-width="2" stroke-miterlimit="10" stroke-linecap="round" stroke-linejoin="round"/>
<path d="M75.5669 24.9925L82.1374 20.4122" stroke="black" stroke-width="2" stroke-miterlimit="10" stroke-linecap="round" stroke-linejoin="round"/>
<path opacity="0.2" d="M92.5724 6.44196C92.7784 4.91967 91.0504 3.42918 88.7129 3.11287C86.3753 2.79656 84.3134 3.7742 84.1074 5.2965C83.9014 6.81879 85.6293 8.30928 87.9669 8.62559C90.3044 8.9419 92.3664 7.96426 92.5724 6.44196Z" fill="#FFB8B8"/>
<path d="M77.4644 28.8816L85.7932 26.3762" stroke="black" stroke-width="2" stroke-miterlimit="10" stroke-linecap="round" stroke-linejoin="round"/>
<path d="M70.5332 22.6556L72.8507 14.2498" stroke="black" stroke-width="2" stroke-miterlimit="10" stroke-linecap="round" stroke-linejoin="round"/>
<path d="M78.9674 3.04886C79.4976 4.05558 78.6745 5.53153 77.1288 6.34583C75.583 7.15987 73.9001 7.00396 73.3699 5.99724C72.8397 4.99052 73.6628 3.51456 75.2085 2.70027C76.7542 1.88623 78.4372 2.04213 78.9674 3.04886Z" fill="#FA7D7D"/>
<path d="M95.2965 26.1577C94.2096 25.8209 93.748 24.1948 94.2653 22.5262C94.7826 20.8576 96.083 19.7778 97.1696 20.1148C98.2564 20.4518 98.7178 22.0776 98.2008 23.7463C97.6834 25.4149 96.383 26.4947 95.2965 26.1577Z" fill="#FA7D7D"/>
<path d="M79.6145 34.979C79.6958 34.3781 79.4722 33.8046 79.0656 33.4126C79.2747 33.16 79.4195 32.8467 79.4666 32.4976C79.5313 32.0191 79.4036 31.5606 79.146 31.1967C79.3394 30.9494 79.4729 30.6511 79.518 30.3169C79.6082 29.6502 79.3253 29.0185 78.8309 28.6314C79.28 28.3518 79.6036 27.8841 79.6799 27.3194C79.8076 26.3767 79.1928 25.5029 78.2838 25.2906C78.3186 25.1856 78.3445 25.0755 78.3599 24.9624C78.477 24.0965 77.9687 23.2893 77.1822 22.9986C77.0582 22.952 76.9288 22.9198 76.7918 22.9011C76.5706 22.8712 76.3553 22.883 76.1497 22.9296C76.044 22.1302 75.4171 21.4705 74.5821 21.3577C74.4396 21.3383 74.2985 21.336 74.161 21.3491C74.1116 20.4905 73.4628 19.7591 72.5785 19.6394C72.3448 19.6077 72.1156 19.6233 71.8982 19.6757C71.6226 19.3891 71.2516 19.1883 70.826 19.1306C70.3784 19.0702 69.9452 19.1787 69.5928 19.4047C69.3329 19.1815 69.0095 19.0281 68.6458 18.9788C68.4723 18.9553 68.3007 18.9581 68.1355 18.9823C67.8522 18.5886 67.4159 18.3063 66.8971 18.2363C66.1042 18.129 65.3632 18.5458 65.0206 19.2213C64.7554 18.9808 64.4189 18.8143 64.0371 18.7627C63.3558 18.6705 62.711 18.9664 62.3251 19.4815C62.2659 19.4661 62.204 19.4558 62.1418 19.4475C61.528 19.3644 60.9459 19.5963 60.554 20.0177C60.32 19.8502 60.045 19.7369 59.7399 19.6956C58.8758 19.5787 58.0703 20.0872 57.7799 20.8721C57.5764 20.7534 57.3474 20.6721 57.1009 20.6388C56.244 20.523 55.4476 21.0197 55.1496 21.7924C54.5232 21.7894 53.9515 22.1085 53.6178 22.6102C53.3898 22.4528 53.1236 22.3442 52.8294 22.3044C51.8265 22.1687 50.9036 22.8717 50.7679 23.8746C50.7621 23.9184 50.7595 23.9628 50.7575 24.0053C50.6998 23.992 50.6419 23.9804 50.5835 23.9723C49.9349 23.8847 49.3206 24.1494 48.9297 24.6174C48.7474 24.5219 48.5464 24.4539 48.329 24.4244C47.3626 24.2937 46.473 24.9435 46.2873 25.8875C46.2727 25.8855 46.2584 25.8817 46.2438 25.8797C45.5441 25.785 44.8837 26.1011 44.5018 26.6411C44.2832 26.4981 44.0303 26.4006 43.7543 26.3633C42.9249 26.251 42.1519 26.7119 41.832 27.4408C41.7217 27.4035 41.6046 27.3748 41.4842 27.3585C40.653 27.2459 39.8778 27.7103 39.5589 28.443C38.937 28.4891 38.3872 28.8538 38.093 29.3905C37.8275 29.1518 37.4908 28.9873 37.111 28.9359C36.2378 28.8178 35.4272 29.3351 35.1409 30.1333C35.0411 30.1011 34.9366 30.0759 34.8288 30.0613C34.1475 29.9691 33.5047 30.2635 33.1194 30.7751C32.8622 30.558 32.5438 30.4088 32.1859 30.3605C31.4167 30.2565 30.6964 30.6443 30.34 31.2846C30.1773 31.2085 30.002 31.1569 29.8138 31.1315C29.1398 31.0403 28.5016 31.3297 28.1152 31.8337C28.0898 31.8301 28.0646 31.8231 28.0389 31.8196C27.4891 31.7453 26.9644 31.9233 26.5798 32.2639C26.4305 32.1991 26.2713 32.1515 26.1015 32.1284C25.5625 32.0553 25.0464 32.2273 24.6631 32.5568C24.3863 32.2646 24.012 32.0614 23.5828 32.0032C22.6036 31.8707 21.7019 32.5412 21.5341 33.5061C20.738 33.4373 20.0065 33.8927 19.699 34.5989C18.8643 34.54 18.1067 35.0513 17.8387 35.8223C17.6694 35.7399 17.4838 35.6812 17.2866 35.6545C16.2836 35.5188 15.3608 36.2217 15.225 37.2247C15.2051 37.3708 15.2044 37.5141 15.2187 37.6554C14.485 37.8128 13.8921 38.4135 13.7859 39.1991L13.7846 39.2082C13.7325 39.1956 13.6798 39.1847 13.6252 39.1772C12.6222 39.0414 11.6994 39.7444 11.5636 40.7473C11.5152 41.1055 11.5744 41.45 11.7137 41.7556C11.3591 42.0387 11.1077 42.453 11.042 42.9388C11.0128 43.1544 11.0233 43.366 11.0667 43.5673C10.3876 43.7599 9.85341 44.3387 9.75292 45.0823C9.70708 45.4203 9.75947 45.7492 9.88364 46.0411C9.33053 46.2937 8.91394 46.8141 8.82629 47.4624C8.77566 47.8369 8.84165 48.2012 8.99807 48.5162C8.23389 48.651 7.60926 49.2658 7.49969 50.0751C7.40575 50.7692 7.71328 51.4248 8.24573 51.8074C8.15027 51.9898 8.08428 52.1893 8.05532 52.4031C7.96867 53.0444 8.22659 53.6541 8.68524 54.0435C8.16765 54.3082 7.78305 54.8125 7.69943 55.4318C7.68306 55.5525 7.67827 55.6708 7.68658 55.7872C7.68784 55.8058 7.6886 55.8265 7.68986 55.8454C7.74426 56.4461 8.09486 56.9773 8.61144 57.2705C8.58097 57.7165 8.71119 58.1417 8.96104 58.4804C8.90059 58.6248 8.85551 58.7787 8.83359 58.9414C8.82201 59.0273 8.81621 59.1119 8.81773 59.196C8.81848 59.5348 8.91243 59.8562 9.07992 60.1319C8.90613 60.3707 8.78775 60.6543 8.74569 60.9667C8.61799 61.9112 9.23256 62.7849 10.1433 62.9975C10.1065 63.9281 10.7838 64.7527 11.7283 64.8807C11.8288 64.8943 11.9271 64.8966 12.0258 64.8948C12.1784 65.2242 12.4268 65.5053 12.7396 65.6965C12.6295 65.8917 12.5514 66.1118 12.5189 66.3511C12.3834 67.3523 13.0864 68.2751 14.0894 68.4109C14.2848 68.4373 14.4772 68.4318 14.6621 68.3991C14.9157 68.9449 15.4346 69.3574 16.0776 69.4446C16.1708 69.4572 16.2653 69.4607 16.3567 69.4582C16.5562 70.1289 17.1304 70.6548 17.8666 70.7545C18.0712 70.7822 18.2716 70.7722 18.4626 70.7367C18.549 71.5557 19.1834 72.2423 20.0365 72.3579C20.444 72.4131 20.8369 72.3267 21.1709 72.1413C21.451 72.5866 21.917 72.91 22.4779 72.9861C22.7995 73.0297 23.1121 72.9864 23.3934 72.8738C23.6234 73.4835 24.1724 73.9485 24.8613 74.0417C25.4257 74.118 25.965 73.9286 26.3539 73.5702C26.6367 73.9414 27.0624 74.2036 27.5613 74.2711C27.8883 74.3155 28.2071 74.2691 28.4943 74.1538C28.7764 74.5585 29.2204 74.8509 29.7501 74.9227C30.3055 74.9978 30.8362 74.8149 31.2218 74.4671C31.4956 74.7386 31.8535 74.9265 32.2645 74.9822C32.9221 75.0711 33.545 74.7983 33.9339 74.317C34.0699 74.3706 34.2132 74.4107 34.3631 74.4308C34.922 74.5064 35.4552 74.32 35.8431 73.9689C36.1108 74.2172 36.4521 74.3898 36.843 74.4429C37.3618 74.5132 37.8573 74.357 38.2351 74.0528C38.5144 74.5036 38.9854 74.8316 39.5518 74.9081C40.3538 75.0167 41.1039 74.588 41.4429 73.8971C41.6071 73.9752 41.7874 74.0311 41.9794 74.0571C42.6937 74.1538 43.3654 73.8223 43.7425 73.2632C43.9812 73.437 44.2646 73.5571 44.5769 73.5994C45.494 73.7236 46.3425 73.1445 46.5846 72.2768C47.145 72.3005 47.6678 72.0663 48.023 71.6696C48.2968 71.9429 48.6559 72.1328 49.069 72.1887C49.9825 72.3124 50.8283 71.7383 51.0751 70.877C51.9499 70.9694 52.7526 70.4269 53.0102 69.6095C53.2724 69.844 53.6059 70.0045 53.9804 70.0554C54.9834 70.1911 55.9062 69.4881 56.042 68.4852C56.0485 68.4358 56.0516 68.386 56.0543 68.3381C56.819 68.2686 57.4736 67.721 57.6638 66.9616C57.8081 67.0221 57.9605 67.0649 58.1229 67.0871C59.1259 67.2228 60.047 66.5196 60.1825 65.5184C60.1936 65.4363 60.1991 65.3552 60.1986 65.2751C60.7678 65.0285 61.2 64.5009 61.2895 63.8397C61.2907 63.8307 61.2902 63.8211 61.2912 63.812C62.136 63.8518 62.8949 63.3035 63.1301 62.5C63.2298 62.532 63.3326 62.5572 63.4404 62.5718C64.4434 62.7076 65.3662 62.0046 65.502 61.0017C65.5181 60.883 65.5214 60.7624 65.5148 60.6463C66.3455 60.5707 67.0439 59.9322 67.1605 59.0701C67.1923 58.8363 67.1766 58.6071 67.124 58.3918C67.8831 58.2528 68.5017 57.6407 68.6108 56.835C68.6204 56.7637 68.6246 56.6917 68.6267 56.6214C68.7231 56.6511 68.8221 56.6758 68.9244 56.6897C69.9273 56.8254 70.8502 56.1224 70.9859 55.1195C71.0388 54.7286 70.9635 54.35 70.792 54.0236C71.1632 53.7408 71.4272 53.3151 71.4949 52.8146C71.5312 52.5461 71.507 52.286 71.4337 52.0437C72.0871 51.8344 72.5954 51.2689 72.6931 50.5456C72.6986 50.5053 72.7004 50.4647 72.7039 50.4241C72.7472 50.4337 72.7906 50.4433 72.8364 50.4496C73.8393 50.5853 74.7622 49.8824 74.898 48.8794C74.9695 48.3515 74.8053 47.8455 74.4887 47.4642C75.0932 47.2317 75.5538 46.6857 75.6468 46.0006C75.6871 45.7029 75.6521 45.4114 75.5579 45.1457C76.4082 45.0896 77.1303 44.4412 77.2489 43.5645C77.334 42.9361 77.0892 42.3391 76.6492 41.9467C77.1703 41.6843 77.5587 41.1788 77.6428 40.5557C77.7035 40.1081 77.5962 39.6769 77.3703 39.3245C78.0184 39.1127 78.5224 38.5503 78.6198 37.8304C78.6861 37.3408 78.5508 36.8706 78.2808 36.5008C78.9687 36.3129 79.5125 35.7316 79.6145 34.979Z" fill="#F5B560"/>
<path d="M77.1223 31.0667C77.2024 30.4748 76.9848 29.9114 76.583 29.526C76.788 29.2767 76.9319 28.9686 76.9785 28.6253C77.0419 28.1558 76.9152 27.7035 76.6626 27.3436C76.8518 27.1013 76.9827 26.8066 77.0271 26.4794C77.116 25.8218 76.8389 25.2019 76.3531 24.8201C76.7938 24.5468 77.1132 24.0839 77.188 23.5305C77.2125 23.3497 77.2089 23.1706 77.1817 22.9996C77.0578 22.953 76.9283 22.9207 76.7913 22.9021C76.5702 22.8721 76.3548 22.884 76.1493 22.9306C76.0435 22.1311 75.4166 21.4715 74.5817 21.3586C74.4391 21.3392 74.2981 21.337 74.1606 21.3501C74.1112 20.4915 73.4624 19.76 72.578 19.6404C72.3443 19.6087 72.1151 19.6243 71.8978 19.6767C71.6222 19.39 71.2512 19.1893 70.8255 19.1316C70.378 19.0712 69.9448 19.1797 69.5924 19.4056C69.3325 19.1825 69.0091 19.0291 68.6454 18.9797C68.4718 18.9563 68.3003 18.9591 68.1351 18.9833C67.8517 18.5896 67.4155 18.3072 66.8966 18.2372C66.1037 18.1299 65.3627 18.5468 65.0202 19.2223C64.755 18.9818 64.4185 18.8153 64.0367 18.7636C63.3553 18.6715 62.7106 18.9674 62.3247 19.4825C62.2655 19.4671 62.2035 19.4568 62.1413 19.4485C61.5275 19.3653 60.9455 19.5973 60.5535 20.0187C60.3196 19.8512 60.0445 19.7379 59.7395 19.6966C58.8753 19.5797 58.0699 20.0882 57.7795 20.873C57.5759 20.7544 57.347 20.6731 57.1004 20.6398C56.2436 20.524 55.4471 21.0206 55.1492 21.7934C54.5228 21.7903 53.951 22.1095 53.6173 22.6112C53.3894 22.4538 53.1231 22.3452 52.829 22.3054C51.826 22.1697 50.9032 22.8726 50.7674 23.8756C50.7616 23.9194 50.7591 23.9637 50.7571 24.0063C50.6994 23.9929 50.6415 23.9814 50.583 23.9733C49.9345 23.8857 49.3202 24.1504 48.9293 24.6183C48.7469 24.5229 48.5459 24.4549 48.3286 24.4254C47.3621 24.2947 46.4725 24.9445 46.2869 25.8885C46.2723 25.8865 46.2579 25.8827 46.2433 25.8807C45.5436 25.786 44.8832 26.1021 44.5014 26.6421C44.2828 26.499 44.0299 26.4016 43.7539 26.3643C42.9244 26.252 42.1515 26.7129 41.8316 27.4418C41.7213 27.4045 41.6041 27.3758 41.4838 27.3594C40.6526 27.2468 39.8773 27.7113 39.5585 28.444C38.9366 28.4901 38.3868 28.8548 38.0926 29.3915C37.8271 29.1527 37.4904 28.9883 37.1105 28.9369C36.2373 28.8188 35.4268 29.3361 35.1404 30.1343C35.0407 30.102 34.9362 30.0768 34.8284 30.0622C34.147 29.9701 33.5043 30.2645 33.1189 30.776C32.8618 30.5589 32.5434 30.4098 32.1855 30.3615C31.4163 30.2574 30.6959 30.6453 30.3395 31.2856C30.1768 31.2095 30.0015 31.1579 29.8134 31.1324C29.1394 31.0413 28.5011 31.3307 28.1148 31.8346C28.0893 31.8311 28.0641 31.8241 28.0385 31.8205C27.4886 31.7462 26.964 31.9243 26.5794 32.2648C26.43 32.2001 26.2708 32.1525 26.1011 32.1293C25.5621 32.0563 25.046 32.2283 24.6626 32.5578C24.3858 32.2656 24.0116 32.0623 23.5824 32.0042C22.6031 31.8717 21.7014 32.5421 21.5337 33.5071C20.7375 33.4383 20.0061 33.8937 19.6986 34.5999C18.8639 34.541 18.1062 35.0523 17.8382 35.8233C17.669 35.7409 17.4834 35.6822 17.2861 35.6555C16.2832 35.5197 15.3604 36.2227 15.2246 37.2257C15.2047 37.3717 15.2039 37.5151 15.2183 37.6564C14.4846 37.8138 13.8917 38.4145 13.7854 39.2001L13.7842 39.2091C13.732 39.1965 13.6794 39.1857 13.6247 39.1781C12.6218 39.0424 11.6989 39.7454 11.5632 40.7483C11.5148 41.1065 11.574 41.451 11.7133 41.7565C11.3587 42.0396 11.1073 42.454 11.0415 42.9398C11.0123 43.1554 11.0229 43.367 11.0662 43.5682C10.3872 43.7609 9.85298 44.3397 9.75248 45.0832C9.70664 45.4212 9.75903 45.7502 9.8832 46.0421C9.33009 46.2947 8.9135 46.8151 8.82585 47.4634C8.77523 47.8379 8.84122 48.2021 8.99763 48.5172C8.23345 48.652 7.60882 49.2668 7.49925 50.076C7.40531 50.7702 7.71284 51.4258 8.24529 51.8084C8.14983 51.9907 8.08384 52.1902 8.05488 52.4041C7.96824 53.0453 8.22615 53.6551 8.6848 54.0445C8.16721 54.3092 7.78261 54.8134 7.69899 55.4328C7.68262 55.5534 7.67783 55.6718 7.68614 55.7882C7.69194 55.8003 7.69974 55.8124 7.70579 55.8224C7.701 55.831 7.69445 55.8375 7.68967 55.8464C7.52671 56.0753 7.4174 56.3471 7.37685 56.6448C7.25116 57.5729 7.85666 58.4323 8.75306 58.6411C8.74551 58.8335 8.76893 59.0189 8.81729 59.1967C9.00745 59.868 9.57768 60.3954 10.3121 60.4949C10.4109 60.5082 10.5071 60.512 10.6043 60.5082C10.7557 60.8339 10.999 61.1104 11.3085 61.2973C11.1987 61.4907 11.1229 61.7076 11.0912 61.9413C10.9577 62.9279 11.6496 63.8362 12.6361 63.9697C12.8281 63.9956 13.0185 63.9898 13.1998 63.9566C13.4504 64.4966 13.9595 64.9003 14.5916 64.9857C14.6848 64.9983 14.7773 65.0016 14.8687 65.0008C15.0642 65.6597 15.6286 66.177 16.3537 66.2753C16.5547 66.3025 16.7529 66.2939 16.9403 66.2579C17.0265 67.0639 17.6493 67.7396 18.4898 67.8535C18.8918 67.9079 19.2769 67.8243 19.6069 67.6419C19.8807 68.0789 20.3401 68.396 20.8919 68.4706C21.208 68.5134 21.5168 68.4713 21.7939 68.362C22.0195 68.9617 22.5585 69.4199 23.2381 69.5118C23.7934 69.5868 24.3246 69.4002 24.7057 69.0463C24.9855 69.4115 25.4044 69.671 25.894 69.7372C26.2174 69.781 26.5308 69.7339 26.8121 69.6196C27.0909 70.02 27.5282 70.3079 28.0488 70.3785C28.5951 70.4525 29.118 70.2719 29.4973 69.9289C29.7663 70.1959 30.1207 70.3815 30.5244 70.4361C31.1712 70.5238 31.784 70.255 32.1666 69.7803C32.3008 69.8337 32.4406 69.8732 32.5885 69.8931C33.1403 69.9677 33.6652 69.7858 34.045 69.4392C34.3077 69.6831 34.6458 69.8536 35.0293 69.9055C35.5391 69.9745 36.0285 69.8211 36.4005 69.5198C36.6751 69.9662 37.1372 70.2893 37.6944 70.3646C38.4855 70.4717 39.2237 70.047 39.5554 69.3682C39.7197 69.4463 39.8967 69.4999 40.0849 69.5254C40.7881 69.6206 41.4498 69.2952 41.8203 68.7446C42.0557 68.9159 42.3336 69.0335 42.6424 69.0753C43.5448 69.1974 44.379 68.6275 44.6173 67.7744C45.1686 67.7968 45.6837 67.5653 46.0323 67.1752C46.3028 67.4444 46.6569 67.6318 47.0624 67.6867C47.9613 67.8084 48.793 67.2437 49.0358 66.3967C49.8962 66.4871 50.6863 65.9541 50.9402 65.1494C51.1991 65.3799 51.5276 65.5378 51.8948 65.5874C52.8831 65.7211 53.7916 65.0293 53.9251 64.0427C53.9317 63.9933 53.9347 63.9455 53.9374 63.8974C54.6908 63.8281 55.333 63.2901 55.5214 62.5436C55.6625 62.6017 55.8129 62.6443 55.9718 62.666C56.9584 62.7995 57.8664 62.1093 58.0001 61.121C58.0109 61.0407 58.0142 60.9611 58.0155 60.883C58.5766 60.6409 59.0005 60.1196 59.0882 59.471C59.0894 59.4619 59.0889 59.4526 59.0902 59.4433C59.9221 59.4816 60.6684 58.9426 60.9001 58.1517C60.9981 58.1835 61.0988 58.2084 61.2049 58.2227C62.1915 58.3562 63.0997 57.6643 63.2332 56.6778C63.2493 56.5591 63.2538 56.4425 63.247 56.3282C64.0646 56.2529 64.7525 55.624 64.8673 54.7747C64.8986 54.5444 64.8822 54.3208 64.831 54.1075C65.5788 53.9704 66.1866 53.37 66.2942 52.5753C66.3035 52.5058 66.3093 52.436 66.3095 52.3653C66.4042 52.3947 66.5012 52.4192 66.6037 52.433C67.5903 52.5665 68.4985 51.8746 68.632 50.8881C68.6841 50.5027 68.6101 50.1299 68.4413 49.8093C68.8066 49.5295 69.068 49.1109 69.1345 48.6195C69.17 48.3563 69.1456 48.0981 69.0735 47.8596C69.7153 47.6543 70.2165 47.0972 70.313 46.3846C70.3185 46.3443 70.32 46.3055 70.3233 46.267C70.3649 46.2763 70.4082 46.2859 70.452 46.2919C71.4386 46.4254 72.3468 45.7335 72.4808 44.7452C72.5514 44.2246 72.3914 43.7287 72.0794 43.3534C72.674 43.1249 73.1281 42.5875 73.2193 41.9135C73.2591 41.6193 73.2233 41.3336 73.1324 41.072C73.9679 41.0158 74.6791 40.3791 74.796 39.5149C74.8796 38.8973 74.6394 38.3087 74.2039 37.9243C74.7187 37.6667 75.1005 37.1677 75.1836 36.5539C75.2433 36.1137 75.1368 35.69 74.9162 35.3419C75.5526 35.1341 76.0481 34.5798 76.144 33.871C76.209 33.3904 76.078 32.9283 75.811 32.5648C76.4871 32.3794 77.022 31.8064 77.1223 31.0667Z" fill="#FABE6E"/>
<path d="M79.6134 34.9795C79.6951 34.377 79.4724 33.8048 79.0654 33.4134C79.2742 33.1595 79.4188 32.8477 79.4661 32.4978C79.5308 32.02 79.4034 31.5614 79.1455 31.1964C79.3384 30.9493 79.4719 30.6504 79.5167 30.3171C79.6072 29.6497 79.3246 29.0193 78.8309 28.6311C79.2787 28.3526 79.6036 27.8838 79.6799 27.3204C79.8076 26.3766 79.1923 25.5042 78.2833 25.2916C78.3181 25.1861 78.345 25.0765 78.3604 24.9624C78.4962 23.9597 77.7932 23.0369 76.7905 22.9011C76.5704 22.8714 76.3548 22.884 76.15 22.9293C76.0435 22.1314 75.4178 21.47 74.5813 21.3569C74.4385 21.3375 74.298 21.337 74.1605 21.3501C74.1119 20.4912 73.4618 19.7593 72.5775 19.6396C72.3435 19.6079 72.1143 19.6235 71.8982 19.6764C71.6219 19.3893 71.2514 19.1891 70.8257 19.1314C70.3777 19.0707 69.9459 19.1785 69.5928 19.4047C69.3336 19.1815 69.0097 19.0274 68.6455 18.978C68.4723 18.9546 68.3015 18.9578 68.1365 18.9818C67.8529 18.5881 67.4157 18.3065 66.8971 18.2362C66.1047 18.1289 65.3639 18.5465 65.0204 19.2205C64.7554 18.9805 64.4182 18.8148 64.0371 18.7631C63.3553 18.671 62.711 18.9669 62.3254 19.4807C62.2654 19.4664 62.2042 19.4548 62.1418 19.4465C61.5282 19.3636 60.9456 19.5953 60.554 20.0167C60.3202 19.851 60.0447 19.7366 59.7412 19.6956C58.876 19.5784 58.0718 20.0862 57.7796 20.8715C57.5771 20.7534 57.3489 20.6718 57.1021 20.6383C56.2455 20.5224 55.4488 21.0194 55.1499 21.7919C54.523 21.7894 53.953 22.1077 53.619 22.6102C53.3903 22.453 53.1233 22.3442 52.8296 22.3047C51.827 22.1689 50.9041 22.8719 50.7684 23.8746C50.7623 23.9184 50.76 23.9617 50.7573 24.0053C50.7006 23.9919 50.6427 23.9809 50.5837 23.9728C49.9349 23.8852 49.3211 24.1496 48.9307 24.6178C48.7473 24.5221 48.5456 24.4539 48.3287 24.4247C47.3623 24.2939 46.4722 24.943 46.2873 25.888C46.2727 25.8858 46.2589 25.882 46.2443 25.88C45.5438 25.7853 44.8834 26.1003 44.5018 26.6404C44.2825 26.4986 44.0303 26.3998 43.7545 26.3623C42.9259 26.2502 42.1529 26.7116 41.8325 27.441C41.7212 27.403 41.6046 27.3746 41.4837 27.3582C40.653 27.2458 39.8788 27.7098 39.5597 28.442C38.9373 28.4891 38.3869 28.853 38.093 29.3908C37.8285 29.1517 37.4918 28.9868 37.1117 28.9354C36.2387 28.8173 35.4267 29.3351 35.1416 30.1328C35.0409 30.1005 34.9366 30.0748 34.828 30.0602C34.1477 29.9681 33.505 30.2627 33.1191 30.7745C32.8619 30.5574 32.5433 30.4076 32.1854 30.359C31.4167 30.2549 30.6964 30.6448 30.3402 31.2838C30.1778 31.2085 30.0015 31.1556 29.8146 31.1304C29.1393 31.039 28.5013 31.3289 28.1147 31.8336C28.0893 31.8291 28.0643 31.8228 28.0384 31.8193C27.4896 31.745 26.9657 31.9231 26.5806 32.2631C26.4312 32.1989 26.2715 32.152 26.1025 32.1291C25.5625 32.056 25.0472 32.2276 24.6638 32.5568C24.3868 32.2651 24.0128 32.0618 23.5833 32.0037C22.6035 31.8712 21.7021 32.5401 21.5346 33.5063C20.7377 33.4373 20.0063 33.8922 19.699 34.5989C18.8653 34.5395 18.1069 35.0513 17.8394 35.8223C17.6692 35.7396 17.4838 35.6815 17.2861 35.6545C16.2834 35.5188 15.3605 36.2217 15.2248 37.2244C15.2049 37.3707 15.2049 37.5151 15.2192 37.6556C14.4848 37.8125 13.8924 38.413 13.7861 39.2001C13.7856 39.2028 13.7858 39.2056 13.7853 39.2084C13.7324 39.1963 13.6793 39.1857 13.6246 39.1784C12.622 39.0427 11.6991 39.7456 11.5633 40.7483C11.515 41.105 11.5747 41.4508 11.7142 41.7555C11.3591 42.0394 11.1075 42.4537 11.0417 42.9396C11.0125 43.1552 11.0243 43.3662 11.0672 43.5672C10.3884 43.7609 9.85365 44.339 9.75291 45.0832C9.70707 45.4212 9.7587 45.7494 9.88287 46.0424C9.32977 46.295 8.91343 46.8153 8.82603 47.4626C8.77515 47.8379 8.84189 48.2019 8.9978 48.5177C8.23313 48.652 7.60899 49.266 7.49918 50.0766C7.40523 50.7707 7.71352 51.4261 8.24446 51.8092C8.15051 51.9908 8.08377 52.19 8.0548 52.4043C7.96791 53.0463 8.22582 53.6544 8.68498 54.0453C8.16713 54.309 7.78253 54.813 7.69866 55.4325C7.59539 56.1965 7.97924 56.9128 8.61093 57.2712C8.5797 57.7178 8.71143 58.1422 8.96052 58.4814C8.89982 58.6263 8.85524 58.7801 8.83308 58.9431C8.7749 59.3735 8.87187 59.7886 9.07991 60.1337C8.90562 60.372 8.78673 60.6556 8.74442 60.9686C8.61672 61.9129 9.2328 62.7859 10.1423 62.9977C10.1065 63.9296 10.7841 64.7537 11.7271 64.8814C11.8273 64.895 11.9263 64.8981 12.0243 64.8953C12.1769 65.2257 12.425 65.5068 12.7396 65.697C12.6282 65.8937 12.5507 66.1138 12.5187 66.3516C12.3829 67.3543 13.0859 68.2771 14.0886 68.4129C14.284 68.4393 14.4765 68.433 14.6606 68.3998C14.915 68.9474 15.4331 69.3587 16.0758 69.4455C16.1703 69.4584 16.2637 69.4614 16.3564 69.4597C16.5551 70.1296 17.1289 70.6555 17.8664 70.7553C18.0704 70.783 18.2704 70.7742 18.4618 70.7369C18.5487 71.5567 19.1829 72.2431 20.0362 72.3584C20.4435 72.4136 20.8364 72.3285 21.1699 72.1431C21.4487 72.5879 21.9157 72.9105 22.4766 72.9863C22.7977 73.0299 23.1106 72.9863 23.3921 72.8755C23.6226 73.4838 24.1707 73.95 24.8605 74.0434C25.425 74.1197 25.9642 73.9303 26.3519 73.5714C26.636 73.9419 27.0606 74.2046 27.5598 74.2724C27.8875 74.3167 28.2061 74.2701 28.4922 74.154C28.7754 74.5603 29.2191 74.8522 29.7486 74.924C30.3042 74.9993 30.8349 74.8162 31.2213 74.4678C31.4943 74.7386 31.8529 74.9275 32.2635 74.9832C32.9216 75.0723 33.544 74.7985 33.9334 74.3172C34.0686 74.3709 34.2115 74.4109 34.3621 74.4313C34.921 74.5069 35.4547 74.3215 35.8416 73.9694C36.109 74.218 36.4521 74.3902 36.8412 74.4429C37.3603 74.5132 37.857 74.3573 38.2351 74.053C38.5129 74.5049 38.9836 74.8333 39.5503 74.9099C40.3533 75.0184 41.1036 74.5887 41.4411 73.8989C41.6068 73.9769 41.7867 74.0318 41.9779 74.0578C42.6922 74.1545 43.3644 73.8243 43.7419 73.2644C43.98 73.4384 44.2633 73.5573 44.5761 73.5996C45.4934 73.7238 46.3422 73.145 46.5843 72.2781C47.145 72.3012 47.6668 72.0665 48.0222 71.6703C48.2957 71.9431 48.6559 72.1335 49.0682 72.1894C49.9818 72.3131 50.827 71.7396 51.0731 70.8784C51.9484 70.9709 52.7513 70.4286 53.0095 69.6118C53.2722 69.8453 53.6049 70.006 53.9794 70.0566C54.9821 70.1923 55.905 69.4894 56.0407 68.4867C56.0475 68.4371 56.0506 68.3882 56.0531 68.3391C56.8188 68.2698 57.4721 67.7225 57.6625 66.9631C57.8066 67.0231 57.9595 67.0674 58.1212 67.0893C59.1239 67.2251 60.0467 66.5221 60.1825 65.5194C60.1936 65.4378 60.1971 65.357 60.1973 65.2769C60.7673 65.0303 61.1988 64.5021 61.2882 63.842C61.2894 63.8326 61.2894 63.8236 61.2905 63.8143C62.1357 63.8536 62.8933 63.305 63.1291 62.502C63.2288 62.5338 63.3319 62.5589 63.4392 62.5735C64.4418 62.7093 65.3647 62.0063 65.5005 61.0036C65.5166 60.8835 65.5201 60.7649 65.5133 60.6483C66.3442 60.5719 67.0432 59.933 67.1598 59.0708C67.1913 58.8371 67.1759 58.6084 67.1232 58.3923C67.8826 58.254 68.5012 57.6424 68.6105 56.836C68.6201 56.7644 68.6244 56.6934 68.6259 56.6229C68.7221 56.6529 68.8213 56.677 68.9244 56.6909C69.9271 56.8266 70.8499 56.1237 70.9857 55.121C71.0388 54.7293 70.9622 54.3505 70.7915 54.0254C71.1635 53.7412 71.4272 53.3156 71.4949 52.8151C71.5312 52.5476 71.506 52.2864 71.4332 52.0439C72.0858 51.8353 72.5949 51.2697 72.6928 50.5455C72.6984 50.5052 72.7001 50.4654 72.7029 50.4256C72.7465 50.4347 72.7901 50.4443 72.8349 50.4503C73.8376 50.5861 74.7604 49.8831 74.8962 48.8804C74.9677 48.3515 74.8045 47.846 74.4884 47.4654C75.0916 47.2327 75.5531 46.6874 75.646 46.0013C75.6863 45.7031 75.651 45.4127 75.5573 45.1472C76.4074 45.0898 77.1288 44.442 77.2474 43.5647C77.3325 42.9366 77.0882 42.3399 76.6474 41.9482C77.1696 41.6858 77.5577 41.1793 77.6421 40.5564C77.7025 40.1091 77.5955 39.6781 77.3701 39.3255C78.0174 39.1142 78.5213 38.5508 78.6186 37.8309C78.6848 37.3415 78.5503 36.872 78.2798 36.5031C78.9684 36.3134 79.5119 35.7308 79.6134 34.9795Z" stroke="black" stroke-width="2" stroke-miterlimit="10" stroke-linecap="round" stroke-linejoin="round"/>
<path d="M53.8028 61.7911C53.8358 61.972 53.8365 62.1506 53.8098 62.3213C53.0419 62.3375 52.3553 61.7954 52.2137 61.0161C52.2135 61.0144 52.213 61.0126 52.2127 61.0106C52.1603 60.7174 52.4502 60.4716 52.7331 60.5643C53.2693 60.7403 53.6945 61.1967 53.8028 61.7911Z" fill="#E8A54D"/>
<path d="M54.5265 61.8891C54.4467 62.0546 54.3983 62.2266 54.3789 62.3984C55.1149 62.618 55.9209 62.278 56.2647 61.5645C56.2654 61.5627 56.2662 61.5612 56.2669 61.5594C56.3951 61.2907 56.1813 60.9766 55.8838 60.991C55.3199 61.0177 54.7887 61.3448 54.5265 61.8891Z" fill="#E8A54D"/>
<path d="M23.7518 69.9839C23.7848 70.1647 23.7855 70.3433 23.7588 70.5141C22.9909 70.5302 22.3043 69.9882 22.1625 69.2089C22.1622 69.2071 22.1617 69.2054 22.1615 69.2036C22.1091 68.9104 22.399 68.6646 22.6818 68.7573C23.2186 68.9328 23.6437 69.3892 23.7518 69.9839Z" fill="#E8A54D"/>
<path d="M24.4762 70.0819C24.3964 70.2473 24.348 70.4194 24.3286 70.5911C25.0646 70.8108 25.8706 70.4708 26.2144 69.7572C26.2151 69.7554 26.2159 69.7539 26.2166 69.7522C26.3451 69.4834 26.131 69.1693 25.8335 69.1837C25.2696 69.2104 24.7384 69.5373 24.4762 70.0819Z" fill="#E8A54D"/>
<path d="M62.4233 37.3363C62.4561 37.5172 62.4571 37.6957 62.4304 37.8665C61.6624 37.8826 60.9758 37.3406 60.8343 36.5613C60.834 36.5595 60.8335 36.5578 60.8333 36.5558C60.7811 36.2626 61.0708 36.0168 61.3536 36.1095C61.8899 36.2855 62.3153 36.7419 62.4233 37.3363Z" fill="#E8A54D"/>
<path d="M63.1476 37.4343C63.0678 37.5998 63.0194 37.7718 63 37.9436C63.736 38.1632 64.5419 37.8232 64.8857 37.1096C64.8865 37.1079 64.8873 37.1063 64.8883 37.1046C65.0165 36.8358 64.8026 36.5218 64.5052 36.5361C63.941 36.5631 63.4098 36.89 63.1476 37.4343Z" fill="#E8A54D"/>
<path d="M54.6158 26.3778C54.6485 26.5587 54.6495 26.7372 54.6228 26.908C53.8549 26.9241 53.1683 26.3821 53.0267 25.6028C53.0265 25.601 53.026 25.5993 53.0257 25.5975C52.9733 25.3043 53.2632 25.0585 53.5461 25.1512C54.0823 25.327 54.5077 25.7834 54.6158 26.3778Z" fill="#E8A54D"/>
<path d="M55.3395 26.4758C55.2596 26.6413 55.2113 26.8133 55.1919 26.9851C55.9279 27.2047 56.7338 26.8647 57.0776 26.1511C57.0784 26.1494 57.0792 26.1479 57.0799 26.1461C57.2081 25.8773 56.9943 25.5633 56.6968 25.5776C56.1331 25.6043 55.6019 25.9315 55.3395 26.4758Z" fill="#E8A54D"/>
<path d="M34.1497 55.3702C34.1827 55.5511 34.1835 55.7297 34.1568 55.9004C33.3888 55.9165 32.7022 55.3745 32.5604 54.5952C32.5602 54.5935 32.5597 54.5917 32.5594 54.5897C32.507 54.2965 32.7969 54.0507 33.0798 54.1434C33.6165 54.3194 34.0417 54.7758 34.1497 55.3702Z" fill="#E8A54D"/>
<path d="M34.8737 55.4682C34.7941 55.6337 34.7455 55.8057 34.7261 55.9775C35.462 56.1971 36.268 55.8571 36.6118 55.1436C36.6126 55.1418 36.6133 55.1403 36.6141 55.1385C36.7423 54.8698 36.5285 54.5557 36.231 54.5701C35.6673 54.597 35.1361 54.9239 34.8737 55.4682Z" fill="#E8A54D"/>
<path d="M11.9878 50.5639C12.0208 50.7447 12.0216 50.9233 11.9949 51.094C11.2269 51.1102 10.5403 50.5681 10.3988 49.7889C10.3985 49.7871 10.398 49.7853 10.3978 49.7833C10.3454 49.4901 10.6353 49.2443 10.9181 49.337C11.4546 49.5131 11.8798 49.9694 11.9878 50.5639Z" fill="#E8A54D"/>
<path d="M12.7121 50.6618C12.6322 50.8273 12.5838 50.9993 12.5645 51.1711C13.3004 51.3907 14.1064 51.0507 14.4502 50.3372C14.451 50.3354 14.4517 50.3339 14.4525 50.3321C14.5807 50.0634 14.3668 49.7493 14.0694 49.7637C13.5054 49.7906 12.9742 50.1175 12.7121 50.6618Z" fill="#E8A54D"/>
<path d="M26.2857 35.8629C26.3187 36.0438 26.3194 36.2223 26.2927 36.3931C25.5248 36.4092 24.8382 35.8672 24.6966 35.0879C24.6964 35.0862 24.6959 35.0844 24.6956 35.0824C24.6432 34.7892 24.9331 34.5434 25.216 34.6361C25.7525 34.8121 26.1776 35.2685 26.2857 35.8629Z" fill="#E8A54D"/>
<path d="M27.0094 35.9609C26.9296 36.1264 26.8812 36.2984 26.8618 36.4702C27.5978 36.6898 28.4038 36.3498 28.7476 35.6362C28.7483 35.6345 28.7491 35.633 28.7498 35.6312C28.878 35.3625 28.6642 35.0484 28.3667 35.0627C27.8031 35.0897 27.2719 35.4166 27.0094 35.9609Z" fill="#E8A54D"/>
<path d="M74.4175 27.9557C74.4505 28.1365 74.4513 28.3151 74.4246 28.4859C73.6566 28.502 72.97 27.96 72.8285 27.1807C72.8282 27.1789 72.8277 27.1772 72.8275 27.1754C72.7751 26.8822 73.065 26.6364 73.3478 26.7291C73.8843 26.9049 74.3095 27.3613 74.4175 27.9557Z" fill="#E8A54D"/>
<path d="M75.1417 28.0537C75.0619 28.2191 75.0135 28.3912 74.9941 28.5629C75.7301 28.7826 76.5361 28.4426 76.8799 27.729C76.8806 27.7272 76.8814 27.7257 76.8822 27.724C77.0104 27.4552 76.7965 27.1411 76.4991 27.1555C75.9351 27.1825 75.4039 27.5094 75.1417 28.0537Z" fill="#E8A54D"/>
<path d="M69.5132 48.8026C69.5462 48.9835 69.547 49.162 69.5203 49.3328C68.7523 49.3489 68.0657 48.8069 67.9242 48.0276C67.9239 48.0258 67.9234 48.0241 67.9232 48.0223C67.8708 47.7291 68.1607 47.4833 68.4435 47.576C68.9798 47.7516 69.4052 48.2079 69.5132 48.8026Z" fill="#E8A54D"/>
<path d="M70.2374 48.9006C70.1576 49.0661 70.1092 49.2381 70.0898 49.4099C70.8258 49.6295 71.6318 49.2895 71.9756 48.5759C71.9763 48.5742 71.9771 48.5727 71.9779 48.5709C72.1061 48.3021 71.8922 47.9881 71.5948 48.0024C71.0311 48.0291 70.4999 48.3561 70.2374 48.9006Z" fill="#E8A54D"/>
<path d="M44.6426 42.6168C44.6756 42.7977 44.6764 42.9762 44.6497 43.147C43.8817 43.1631 43.1951 42.6211 43.0536 41.8418C43.0533 41.8401 43.0528 41.8383 43.0526 41.8363C43.0002 41.5431 43.2901 41.2973 43.5729 41.39C44.1092 41.566 44.5343 42.0224 44.6426 42.6168Z" fill="#E8A54D"/>
<path d="M45.3663 42.7148C45.2865 42.8803 45.2381 43.0523 45.2188 43.2241C45.9547 43.4437 46.7607 43.1037 47.1045 42.3901C47.1053 42.3884 47.106 42.3869 47.1068 42.3851C47.235 42.1164 47.0211 41.8023 46.7237 41.8166C46.16 41.8436 45.6288 42.1705 45.3663 42.7148Z" fill="#E8A54D"/>
<path d="M20.8942 50.3447C20.8942 50.3447 21.1254 46.9641 22.5782 44.7439C24.0829 42.4446 27.5098 42.7514 28.6319 45.26C29.155 46.4292 29.4351 48.1527 29.0225 50.682C28.8964 51.4547 28.5805 52.1967 28.0483 52.771C27.3783 53.4938 26.2371 54.1595 24.3526 53.9318C24.3526 53.9318 20.866 53.6369 20.8942 50.3447Z" fill="black"/>
<path d="M27.1153 51.7099C26.7186 52.9372 25.1998 53.5452 23.7231 53.068C22.2462 52.5907 21.3707 51.2087 21.7674 49.9813C22.1641 48.7539 23.6828 48.1459 25.1598 48.6232C26.6362 49.1008 27.5117 50.4825 27.1153 51.7099Z" fill="#535353"/>
<path d="M28.5858 46.4373C28.4994 47.1886 27.8201 47.7279 27.0685 47.6412C26.3172 47.5548 25.778 46.8755 25.8646 46.124C25.9512 45.3726 26.6305 44.8334 27.3819 44.92C28.1332 45.0064 28.6722 45.6857 28.5858 46.4373Z" fill="white"/>
<path d="M35.9995 56.276L35.3434 59.811C35.1096 61.0752 33.9674 61.9889 32.6879 61.8844C32.6695 61.8864 32.6517 61.8847 32.6335 61.8832C32.6156 61.8816 32.5975 61.8799 32.5834 61.8751C31.3024 61.7489 30.3415 60.6457 30.3375 59.3602L30.3271 55.765C30.7427 55.8678 31.1271 55.8733 31.4694 55.8207C32.5796 55.6665 33.2607 54.9182 33.2607 54.9182C33.2607 54.9182 33.7969 55.7761 34.8618 56.1262C35.1895 56.2393 35.5686 56.3025 35.9995 56.276Z" fill="black"/>
<path d="M34.8622 56.1263C34.4156 56.3694 33.7945 56.4913 33.1248 56.4308C32.455 56.3704 31.8659 56.1397 31.4697 55.8205C32.58 55.6664 33.261 54.9181 33.261 54.9181C33.261 54.9181 33.7973 55.7765 34.8622 56.1263Z" fill="white"/>
<path d="M34.0882 60.6503C34.0436 61.1445 33.4109 61.4913 32.6747 61.4251C31.9385 61.3588 31.3778 60.9045 31.4224 60.4103C31.467 59.9161 32.0997 59.5693 32.8359 59.6356C33.5721 59.7018 34.1328 60.1562 34.0882 60.6503Z" fill="#FA7D7D"/>
<path d="M28.4019 54.8295C28.4019 54.8295 30.8576 57.3613 33.2607 54.9184L33.3524 53.9006C33.3524 53.9006 31.1742 56.339 28.4019 54.8295Z" fill="black"/>
<path d="M33.3524 53.9006L33.2607 54.9184C35.1886 57.7515 38.0573 55.6992 38.0573 55.6992C35.0601 56.6888 33.3524 53.9006 33.3524 53.9006Z" fill="black"/>
<path d="M46.3314 47.2251L39.2075 50.7697L45.6584 54.5875" stroke="black" stroke-width="2" stroke-miterlimit="10" stroke-linecap="round" stroke-linejoin="round"/>
<path d="M44.4221 55.7081C44.2977 57.0909 45.8356 58.3595 47.8571 58.5417C49.8788 58.7238 51.6185 57.7503 51.7432 56.3675C51.8676 54.9848 50.3297 53.7161 48.3082 53.534C46.2864 53.3519 44.5468 54.3254 44.4221 55.7081Z" fill="#FA7D7D"/>
<path d="M49.6935 57.7384C49.919 57.677 50.0522 57.4445 49.9908 57.2191L49.3452 54.8467C49.284 54.6213 49.0513 54.4881 48.8259 54.5495C48.6004 54.6107 48.4672 54.8435 48.5287 55.0689L49.1742 57.4412C49.2356 57.6667 49.4681 57.7997 49.6935 57.7384Z" fill="#F06A6A"/>
<path d="M47.3391 57.5264C47.5645 57.4649 47.6977 57.2325 47.6363 57.0071L46.9907 54.6347C46.9293 54.4093 46.6968 54.276 46.4714 54.3375C46.2459 54.3989 46.1127 54.6314 46.1742 54.8568L46.8194 57.2292C46.8809 57.4546 47.1134 57.5876 47.3391 57.5264Z" fill="#F06A6A"/>
<path d="M15.4279 52.4763C15.3035 53.859 16.8414 55.1277 18.8629 55.3098C20.8847 55.4919 22.6244 54.5184 22.749 53.1357C22.8737 51.7529 21.3355 50.4842 19.314 50.3021C17.2923 50.1203 15.5524 51.0935 15.4279 52.4763Z" fill="#FA7D7D"/>
<path d="M20.6992 54.5066C20.9246 54.4452 21.0578 54.2127 20.9964 53.9873L20.3511 51.6149C20.2896 51.3895 20.0571 51.2563 19.8317 51.3177C19.6063 51.3792 19.4731 51.6116 19.5345 51.8371L20.1798 54.2094C20.241 54.4351 20.4737 54.5681 20.6992 54.5066Z" fill="#F06A6A"/>
<path d="M18.3444 54.2946C18.5699 54.2331 18.7031 54.0007 18.6416 53.7752L17.9961 51.4029C17.9349 51.1775 17.7022 51.0442 17.4767 51.1057C17.2513 51.1669 17.1181 51.3996 17.1795 51.625L17.8251 53.9974C17.8865 54.2231 18.119 54.356 18.3444 54.2946Z" fill="#F06A6A"/>
</svg>
