<svg width="1920" height="1607" viewBox="0 0 1920 1607" fill="none" xmlns="http://www.w3.org/2000/svg">
<mask id="mask0_2355_399" style="mask-type:alpha" maskUnits="userSpaceOnUse" x="0" y="0" width="1920" height="1607">
<path d="M1920 0H-4.76837e-05V1606.59H1920V0Z" fill="#FF7F00"/>
</mask>
<g mask="url(#mask0_2355_399)">
<rect width="1920" height="1663.06" transform="matrix(-1 0 0 1 1920 0)" fill="#FF7F00"/>
<path d="M-1.43051e-05 277.603V62.9357L906.578 828.748C909.156 826.207 911.947 823.861 914.933 821.725L193.867 0H405.049L924.124 816.093C927.147 814.539 930.293 813.196 933.564 812.031L582.72 0H740.676L943.253 809.296C946.702 808.552 950.222 808.034 953.849 807.759L887.804 0H1031.02L966.009 807.742C969.653 808.018 973.209 808.535 976.676 809.28L1178.06 0H1336.04L986.364 812.015C989.636 813.164 992.8 814.507 995.804 816.06L1513.74 0H1724.73L1004.84 821.563C1007.89 823.747 1010.76 826.142 1013.4 828.732L1920 61.5278V276.454L1020.48 836.726C1022.49 839.429 1024.21 842.309 1025.76 845.271L1920 451.619V603.319L1029.58 853.912C1030.61 856.874 1031.34 859.933 1031.89 863.056L1920 741.376V872.766L1032.94 873.623C1032.94 873.721 1032.94 873.801 1032.94 873.899C1032.94 877.426 1032.55 880.857 1031.96 884.223L1920 1004.06V1141.97L1029.74 893.383C1028.73 896.393 1027.41 899.29 1025.97 902.106L1920 1293.49V1468.43L1020.75 910.65C1018.63 913.531 1016.25 916.217 1013.69 918.758L1920 1682.73V1747.76H1728.21L1005.3 925.895C1002.42 927.982 999.36 929.859 996.142 931.526L1516.57 1747.76H1338.67L986.649 935.669C983.502 936.786 980.249 937.708 976.924 938.436L1180.53 1747.76H1033.37L966.382 940.006C964.284 940.168 962.169 940.297 960.018 940.297C958.009 940.297 956.036 940.168 954.062 940.022L890.009 1747.76H742.933L943.129 938.436C939.858 937.724 936.676 936.834 933.6 935.734L585.013 1747.76H407.449L924.089 931.64C920.853 929.973 917.778 928.079 914.862 925.975L196.658 1747.75H0.0177808V1687.56L906.525 918.936C903.947 916.395 901.529 913.725 899.413 910.844L0.0177808 1472.33V1296.91L894.08 902.138C892.64 899.371 891.342 896.522 890.329 893.545L0.0177808 1145.11V1006.96L888.071 884.45C887.52 881.375 887.182 878.236 887.129 875.047L0.0177808 874.983V742.347L888.107 863.088C888.676 859.965 889.387 856.89 890.418 853.929L0.0177808 604.371V452.736L894.258 845.255C895.804 842.309 897.529 839.429 899.52 836.742L0.0177808 277.603H-1.43051e-05Z" fill="#FF6200"/>
</g>
</svg>
