<svg width="172" height="164" viewBox="0 0 172 164" fill="none" xmlns="http://www.w3.org/2000/svg">
<path d="M71.5844 25.4868L61.3134 14.7417L60.7608 30.7685C60.162 48.1322 47.5027 62.7123 30.3949 65.7418L9.19092 69.4967L25.0818 76.1325C43.0628 83.641 52.0757 103.863 45.6386 122.254L42.3598 131.623C60.4531 119.375 85.1959 125.925 94.8595 145.52L95.5353 146.891L95.8581 144.78C99.2324 122.717 121.944 109.253 142.919 116.881C131.804 106.228 136.568 87.5209 151.426 83.4835L166.085 79.5L154.044 75.8355C134.141 69.778 123.211 48.4403 129.924 28.7484L133.443 18.4272L121.982 28.1369C107.126 40.7229 85.0382 39.5615 71.5844 25.4868Z" fill="#FFB300" stroke="black" stroke-width="2.94444"/>
<path d="M32.3565 104.245L11.2969 116.354M70.2638 144.258L63.9459 162.685M36.0419 40.0133L18.1412 28.4305M102.38 18.9537V3.05176e-05M149.764 55.808L168.191 47.9106M127.651 130.043L141.866 144.258" stroke="black" stroke-width="2.94444"/>
<mask id="path-3-inside-1_2369_435" fill="white">
<path fill-rule="evenodd" clip-rule="evenodd" d="M136.734 112.269C135.973 112.87 135.197 113.284 134.298 113.665C133.813 113.868 133.359 113.98 132.878 114.187L125.431 116.353L118.37 118.85C118.098 118.954 117.917 119.02 117.648 119.136C117.4 119.239 117.238 119.326 117.002 119.426L114.427 120.672C114.061 120.867 113.572 121.227 113.197 121.318C113.359 122.047 113.564 122.693 113.738 123.439C113.828 123.824 113.903 124.106 114.01 124.499C114.873 127.692 115.551 130.869 116.083 134.174C116.146 134.58 116.19 135.006 116.237 135.35C116.296 135.768 116.284 136.1 116.328 136.518C116.56 138.742 116.478 141.061 116.056 143.252C115.744 144.859 115.07 146.391 113.998 147.505C113.067 148.47 111.317 149.576 109.933 149.576C109.866 150.413 109.551 151.258 109.322 152.065C108.888 153.602 107.765 157.035 107.193 158.253C106.795 159.094 105.951 159.595 105.159 159.992C104.481 160.332 103.755 160.518 102.951 160.734C101.658 161.077 100.163 161.293 98.6417 161.359H96.6744C95.4246 161.305 94.2024 161.14 93.1025 160.854C92.8462 160.787 92.7911 160.759 92.5703 160.667C92.1445 160.481 92.1958 160.423 91.8094 160.589C91.1747 160.854 90.5674 160.949 89.8578 161.073C86.554 161.645 78.5468 161.4 77.0525 158.481C76.9343 158.253 76.8633 158 76.7648 157.739C76.13 156.066 75.6135 154.409 75.0813 152.653C75.0064 152.405 74.9512 152.103 74.8723 151.829C74.8053 151.61 74.7343 151.283 74.6792 151.059C74.5964 150.703 74.4978 149.758 74.1784 149.651C74.0602 149.614 73.9144 149.605 73.7567 149.568C72.5069 149.278 71.2611 148.636 70.3188 147.742C69.2819 146.76 68.6038 145.555 68.0952 144.188C67.2239 141.844 67.5156 140.506 67.3027 139.057C67.2239 138.543 67.3619 137.789 67.358 137.21C67.358 136.489 67.4486 136.009 67.4959 135.346C67.7049 132.459 68.2963 129.755 68.8758 126.951C69.2701 125.042 69.7392 123.257 70.1926 121.401C70.236 121.219 70.3425 120.801 70.4095 120.656C69.7747 120.656 69.4238 120.73 68.7772 120.73C67.7364 120.73 66.8178 120.561 65.7967 120.436C65.5247 120.403 65.2724 120.37 64.9885 120.316C63.041 119.956 61.3496 119.521 59.5637 118.784C57.8408 118.071 55.6447 116.568 54.458 114.978C54.3713 114.862 54.3083 114.824 54.2137 114.713C54.123 114.605 54.0835 114.53 54.0008 114.414C53.2556 113.383 52.7274 112.306 52.274 111.085C52.1754 110.811 52.1005 110.563 52.0334 110.294C51.4854 108.119 51.3909 106.632 51.3909 104.33C51.3909 101.878 52.1754 100.047 52.1754 97.6203C52.1754 95.1934 51.3435 91.6358 50.9374 89.2254L50.6536 87.0635C50.5905 86.6742 50.5786 86.3884 50.5353 85.9991C50.3224 84.1105 50.1135 82.4042 50.1135 80.3997L50.3303 76.0055C50.5077 74.3737 50.7916 72.8869 51.1503 71.3462C51.4539 70.0416 52.9403 66.219 52.9521 65.5646C52.6879 65.49 52.8022 65.5025 52.6169 65.3202C51.2922 64.0281 49.1909 63.1335 49.1909 60.4166C49.1909 57.6998 49.5458 55.8112 50.9927 53.5126C51.1859 53.2062 51.379 52.9287 51.588 52.6471L52.2936 51.8229C52.471 51.6407 52.4711 51.5951 52.613 51.4128C53.0506 50.8661 53.6065 50.394 54.1033 49.9219C54.7538 49.3089 55.3767 48.7415 56.1889 48.3149C58.1838 47.263 61.2432 46.8116 63.5968 47.4411C65.915 48.0665 66.0727 49.0149 67.3462 50.6591C67.5078 50.8703 67.4998 50.7295 67.5708 51.0194C67.8192 50.9987 67.9887 50.891 68.1819 50.7668C70.7288 49.1184 76.1497 47.4121 78.9213 46.8364C81.0542 46.3974 84.3856 45.8217 86.4515 45.801L90.7843 45.7182C91.1273 45.7637 91.5688 45.6975 91.9158 45.7223L93.9738 45.9501C94.2892 45.9791 94.6321 46.0578 94.9673 46.0992C95.2905 46.1406 95.5942 46.2069 95.9332 46.2773C96.2841 46.3519 96.5482 46.4057 96.8794 46.4761C97.1751 46.5382 97.5063 46.6708 97.8059 46.6956C97.8059 46.269 97.9675 45.5028 98.0622 45.1011C98.2317 44.3846 98.4761 43.8379 98.9255 43.3244L99.7772 42.4256C100.593 41.7009 101.559 41.1583 102.604 40.8518C103.653 40.5412 104.804 40.3714 105.967 40.359H106.203C107.686 40.3714 109.172 40.6489 110.461 41.2287C111.723 41.7961 112.886 42.5623 113.986 43.4155C114.912 44.132 115.748 45.0059 116.45 45.9709C118.137 48.2818 119.17 52.2412 117.507 54.8669C117.274 55.2314 117.045 55.5006 116.738 55.7739L115.906 56.5401L117.081 58.2837C117.85 59.3937 118.894 61.1787 119.478 62.4046C119.569 62.5992 119.624 62.711 119.71 62.9057L121.035 65.9125C121.185 66.2479 121.331 66.6248 121.449 66.9686L122.92 71.2386C122.995 71.4581 123.042 71.5326 123.117 71.7769C123.625 73.3963 124.276 74.9411 124.8 76.5687C125.049 77.3266 125.317 78.0431 125.545 78.7679C126.014 80.2589 126.48 81.7788 126.803 83.3361C127.304 85.7547 127.931 89.2088 127.753 91.6565C127.733 91.9423 127.69 91.8512 127.678 92.1742C127.619 93.8391 127.359 95.4749 126.854 97.0487L126.259 98.6599C128.699 98.6599 130.86 98.7012 133.012 99.5461C133.572 99.7656 134.183 99.981 134.692 100.316L135.323 100.702C135.997 101.112 136.592 101.654 137.136 102.226C139.975 105.187 139.9 109.772 136.738 112.277L136.734 112.269Z"/>
</mask>
<path fill-rule="evenodd" clip-rule="evenodd" d="M136.734 112.269C135.973 112.87 135.197 113.284 134.298 113.665C133.813 113.868 133.359 113.98 132.878 114.187L125.431 116.353L118.37 118.85C118.098 118.954 117.917 119.02 117.648 119.136C117.4 119.239 117.238 119.326 117.002 119.426L114.427 120.672C114.061 120.867 113.572 121.227 113.197 121.318C113.359 122.047 113.564 122.693 113.738 123.439C113.828 123.824 113.903 124.106 114.01 124.499C114.873 127.692 115.551 130.869 116.083 134.174C116.146 134.58 116.19 135.006 116.237 135.35C116.296 135.768 116.284 136.1 116.328 136.518C116.56 138.742 116.478 141.061 116.056 143.252C115.744 144.859 115.07 146.391 113.998 147.505C113.067 148.47 111.317 149.576 109.933 149.576C109.866 150.413 109.551 151.258 109.322 152.065C108.888 153.602 107.765 157.035 107.193 158.253C106.795 159.094 105.951 159.595 105.159 159.992C104.481 160.332 103.755 160.518 102.951 160.734C101.658 161.077 100.163 161.293 98.6417 161.359H96.6744C95.4246 161.305 94.2024 161.14 93.1025 160.854C92.8462 160.787 92.7911 160.759 92.5703 160.667C92.1445 160.481 92.1958 160.423 91.8094 160.589C91.1747 160.854 90.5674 160.949 89.8578 161.073C86.554 161.645 78.5468 161.4 77.0525 158.481C76.9343 158.253 76.8633 158 76.7648 157.739C76.13 156.066 75.6135 154.409 75.0813 152.653C75.0064 152.405 74.9512 152.103 74.8723 151.829C74.8053 151.61 74.7343 151.283 74.6792 151.059C74.5964 150.703 74.4978 149.758 74.1784 149.651C74.0602 149.614 73.9144 149.605 73.7567 149.568C72.5069 149.278 71.2611 148.636 70.3188 147.742C69.2819 146.76 68.6038 145.555 68.0952 144.188C67.2239 141.844 67.5156 140.506 67.3027 139.057C67.2239 138.543 67.3619 137.789 67.358 137.21C67.358 136.489 67.4486 136.009 67.4959 135.346C67.7049 132.459 68.2963 129.755 68.8758 126.951C69.2701 125.042 69.7392 123.257 70.1926 121.401C70.236 121.219 70.3425 120.801 70.4095 120.656C69.7747 120.656 69.4238 120.73 68.7772 120.73C67.7364 120.73 66.8178 120.561 65.7967 120.436C65.5247 120.403 65.2724 120.37 64.9885 120.316C63.041 119.956 61.3496 119.521 59.5637 118.784C57.8408 118.071 55.6447 116.568 54.458 114.978C54.3713 114.862 54.3083 114.824 54.2137 114.713C54.123 114.605 54.0835 114.53 54.0008 114.414C53.2556 113.383 52.7274 112.306 52.274 111.085C52.1754 110.811 52.1005 110.563 52.0334 110.294C51.4854 108.119 51.3909 106.632 51.3909 104.33C51.3909 101.878 52.1754 100.047 52.1754 97.6203C52.1754 95.1934 51.3435 91.6358 50.9374 89.2254L50.6536 87.0635C50.5905 86.6742 50.5786 86.3884 50.5353 85.9991C50.3224 84.1105 50.1135 82.4042 50.1135 80.3997L50.3303 76.0055C50.5077 74.3737 50.7916 72.8869 51.1503 71.3462C51.4539 70.0416 52.9403 66.219 52.9521 65.5646C52.6879 65.49 52.8022 65.5025 52.6169 65.3202C51.2922 64.0281 49.1909 63.1335 49.1909 60.4166C49.1909 57.6998 49.5458 55.8112 50.9927 53.5126C51.1859 53.2062 51.379 52.9287 51.588 52.6471L52.2936 51.8229C52.471 51.6407 52.4711 51.5951 52.613 51.4128C53.0506 50.8661 53.6065 50.394 54.1033 49.9219C54.7538 49.3089 55.3767 48.7415 56.1889 48.3149C58.1838 47.263 61.2432 46.8116 63.5968 47.4411C65.915 48.0665 66.0727 49.0149 67.3462 50.6591C67.5078 50.8703 67.4998 50.7295 67.5708 51.0194C67.8192 50.9987 67.9887 50.891 68.1819 50.7668C70.7288 49.1184 76.1497 47.4121 78.9213 46.8364C81.0542 46.3974 84.3856 45.8217 86.4515 45.801L90.7843 45.7182C91.1273 45.7637 91.5688 45.6975 91.9158 45.7223L93.9738 45.9501C94.2892 45.9791 94.6321 46.0578 94.9673 46.0992C95.2905 46.1406 95.5942 46.2069 95.9332 46.2773C96.2841 46.3519 96.5482 46.4057 96.8794 46.4761C97.1751 46.5382 97.5063 46.6708 97.8059 46.6956C97.8059 46.269 97.9675 45.5028 98.0622 45.1011C98.2317 44.3846 98.4761 43.8379 98.9255 43.3244L99.7772 42.4256C100.593 41.7009 101.559 41.1583 102.604 40.8518C103.653 40.5412 104.804 40.3714 105.967 40.359H106.203C107.686 40.3714 109.172 40.6489 110.461 41.2287C111.723 41.7961 112.886 42.5623 113.986 43.4155C114.912 44.132 115.748 45.0059 116.45 45.9709C118.137 48.2818 119.17 52.2412 117.507 54.8669C117.274 55.2314 117.045 55.5006 116.738 55.7739L115.906 56.5401L117.081 58.2837C117.85 59.3937 118.894 61.1787 119.478 62.4046C119.569 62.5992 119.624 62.711 119.71 62.9057L121.035 65.9125C121.185 66.2479 121.331 66.6248 121.449 66.9686L122.92 71.2386C122.995 71.4581 123.042 71.5326 123.117 71.7769C123.625 73.3963 124.276 74.9411 124.8 76.5687C125.049 77.3266 125.317 78.0431 125.545 78.7679C126.014 80.2589 126.48 81.7788 126.803 83.3361C127.304 85.7547 127.931 89.2088 127.753 91.6565C127.733 91.9423 127.69 91.8512 127.678 92.1742C127.619 93.8391 127.359 95.4749 126.854 97.0487L126.259 98.6599C128.699 98.6599 130.86 98.7012 133.012 99.5461C133.572 99.7656 134.183 99.981 134.692 100.316L135.323 100.702C135.997 101.112 136.592 101.654 137.136 102.226C139.975 105.187 139.9 109.772 136.738 112.277L136.734 112.269Z" fill="white" stroke="black" stroke-width="0.502733" mask="url(#path-3-inside-1_2369_435)"/>
<mask id="path-4-inside-2_2369_435" fill="white">
<path fill-rule="evenodd" clip-rule="evenodd" d="M94.9575 89.2585C94.0192 89.6437 93.1912 90.7494 93.1912 92.1037C93.1912 95.5329 97.3744 96.295 98.7977 93.2966C100.012 90.7329 97.5794 88.1776 94.9536 89.2585H94.9575ZM84.8879 97.3221C84.6592 97.1482 84.4779 97.0116 84.2216 96.8293L82.195 95.4543C81.5287 95.0443 80.618 94.1663 79.9635 94.3029C78.8596 94.5307 78.552 95.5206 77.6689 96.5891C77.4165 96.8997 75.8789 98.9829 75.8789 99.4054C75.8789 99.9976 76.4545 100.374 77.0853 100.374C77.6215 100.374 78.2918 99.0285 78.7176 98.3617L79.7624 96.7009C80.2908 95.9637 80.6062 96.2454 81.8521 97.231C82.2463 97.5417 83.9811 99.0326 84.3951 99.0326C84.5094 99.0326 84.9234 98.8545 85.0062 98.78C85.365 98.4777 85.5306 97.8067 84.8919 97.318L84.8879 97.3221ZM66.1326 95.475C65.9749 95.3508 65.8685 95.3052 65.6792 95.2058C64.8 94.7502 63.3215 94.7378 62.4068 95.5495C61.9849 95.9264 61.4644 96.7506 61.4644 97.5458C61.4644 98.3824 61.4132 98.5522 61.7956 99.2852C62.0874 99.8444 62.6945 100.461 63.2386 100.751C64.4135 101.381 65.5333 101.128 66.381 100.25C67.4377 99.1569 67.5598 97.3759 66.8304 96.2329C66.5978 95.8725 66.4717 95.7484 66.1326 95.475ZM137.14 102.226C136.592 101.654 135.997 101.112 135.327 100.702L134.696 100.316C134.187 99.981 133.576 99.7656 133.016 99.5461C130.863 98.7012 128.703 98.6599 126.262 98.6599L126.858 97.0488C127.358 95.475 127.619 93.8391 127.682 92.1742C127.694 91.847 127.733 91.9381 127.757 91.6565C127.934 89.2047 127.303 85.7547 126.806 83.3361C126.483 81.7788 126.018 80.2589 125.549 78.7679C125.32 78.0431 125.048 77.3266 124.804 76.5687C124.279 74.9452 123.629 73.4004 123.12 71.7769C123.045 71.5326 122.998 71.4581 122.923 71.2386L121.452 66.9686C121.338 66.6248 121.188 66.2438 121.038 65.9125L119.713 62.9057C119.623 62.7111 119.572 62.5992 119.481 62.4046C118.897 61.1787 117.857 59.3937 117.084 58.2837L115.909 56.5401L116.741 55.7739C117.052 55.5006 117.281 55.2314 117.51 54.8669C119.173 52.2412 118.14 48.2818 116.453 45.9709C115.751 45.0059 114.915 44.132 113.989 43.4155C112.889 42.5623 111.726 41.7961 110.464 41.2287C109.175 40.6489 107.688 40.3714 106.206 40.359H105.969C104.806 40.3714 103.651 40.5371 102.606 40.8519C101.561 41.1625 100.592 41.7009 99.7794 42.4256L98.9277 43.3244C98.4783 43.8379 98.2338 44.3846 98.0643 45.1011C97.9697 45.5029 97.8081 46.269 97.8081 46.6956C97.5045 46.6708 97.1733 46.5424 96.8815 46.4761C96.5503 46.4057 96.2862 46.3519 95.9353 46.2773C95.5962 46.2069 95.2927 46.1406 94.9694 46.0992C94.6342 46.0578 94.2912 45.9791 93.9758 45.9501L91.9176 45.7224C91.5667 45.6934 91.1292 45.7596 90.7861 45.7182L86.4531 45.801C84.3872 45.8217 81.0556 46.3974 78.9226 46.8364C76.147 47.4121 70.7297 49.1184 68.1828 50.7668C67.9896 50.891 67.8239 50.9987 67.5716 51.0194C67.4967 50.7295 67.5086 50.8703 67.347 50.6591C66.0774 49.0107 65.9197 48.0623 63.5975 47.4411C61.2476 46.8074 58.1881 47.2588 56.1892 48.3149C55.377 48.7415 54.754 49.3089 54.1035 49.9219C53.6106 50.394 53.0508 50.8703 52.6131 51.4129C52.4673 51.591 52.4672 51.6407 52.2938 51.8229L51.5881 52.6471C51.3791 52.9245 51.1859 53.2062 50.9927 53.5126C49.5458 55.8112 49.1909 57.6128 49.1909 60.4166C49.1909 63.2205 51.2923 64.0239 52.6171 65.3202C52.8024 65.5025 52.6881 65.49 52.9522 65.5646C52.9404 66.2231 51.454 70.0417 51.1504 71.3462C50.7916 72.8869 50.5077 74.3737 50.3303 76.0055L50.1135 80.3997C50.1135 82.4042 50.3224 84.1064 50.5353 85.9991C50.5787 86.3925 50.5906 86.6742 50.6536 87.0635L50.9375 89.2254C51.3436 91.6358 52.1755 95.2099 52.1755 97.6203C52.1755 100.031 51.391 101.882 51.391 104.33C51.391 106.632 51.4855 108.119 52.0336 110.294C52.1006 110.563 52.1716 110.811 52.2741 111.085C52.7275 112.306 53.2597 113.383 54.001 114.414C54.0838 114.53 54.1232 114.605 54.2139 114.713C54.3085 114.824 54.3716 114.862 54.4584 114.978C55.6451 116.568 57.8412 118.071 59.5641 118.784C61.3541 119.521 63.0416 119.956 64.9892 120.316C65.2771 120.37 65.5254 120.403 65.7974 120.436C66.8186 120.565 67.7372 120.73 68.7781 120.73C69.4247 120.73 69.7796 120.656 70.4104 120.656C70.3434 120.801 70.2409 121.219 70.1936 121.401C69.7401 123.257 69.267 125.042 68.8767 126.951C68.2971 129.755 67.7096 132.459 67.4967 135.346C67.4494 136.013 67.3549 136.489 67.3588 137.21C67.3588 137.785 67.2247 138.543 67.3035 139.057C67.5204 140.506 67.2247 141.848 68.096 144.188C68.6046 145.555 69.2828 146.76 70.3197 147.742C71.262 148.636 72.5079 149.278 73.7577 149.568C73.9115 149.605 74.0613 149.614 74.1795 149.651C74.4989 149.763 74.5975 150.703 74.6803 151.059C74.7355 151.283 74.8064 151.61 74.8735 151.829C74.9523 152.103 75.0115 152.405 75.0824 152.654C75.6147 154.41 76.1312 156.066 76.766 157.739C76.8645 158 76.9355 158.253 77.0538 158.481C78.548 161.396 86.5556 161.641 89.8596 161.073C90.5693 160.953 91.1765 160.854 91.8113 160.589C92.1937 160.427 92.1464 160.485 92.5722 160.667C92.793 160.763 92.8521 160.787 93.1044 160.854C94.2044 161.14 95.4266 161.305 96.6765 161.359H98.6439C100.166 161.293 101.66 161.077 102.953 160.734C103.758 160.522 104.483 160.332 105.161 159.992C105.954 159.595 106.797 159.094 107.196 158.253C107.767 157.039 108.891 153.602 109.325 152.065C109.553 151.258 109.873 150.413 109.936 149.576C111.316 149.576 113.07 148.475 114.001 147.505C115.069 146.396 115.747 144.863 116.059 143.252C116.481 141.061 116.567 138.742 116.331 136.518C116.287 136.1 116.295 135.764 116.24 135.35C116.189 135.006 116.149 134.576 116.086 134.174C115.554 130.869 114.88 127.688 114.012 124.499C113.906 124.106 113.831 123.824 113.74 123.439C113.567 122.698 113.362 122.047 113.2 121.318C113.575 121.227 114.064 120.867 114.43 120.672L117.005 119.426C117.241 119.326 117.403 119.239 117.651 119.136C117.924 119.02 118.105 118.954 118.373 118.85L125.434 116.353L132.882 114.187C133.363 113.98 133.816 113.868 134.301 113.665C135.2 113.284 135.977 112.87 136.738 112.269C139.9 109.763 139.975 105.183 137.136 102.218L137.14 102.226ZM51.3791 61.3278C51.2884 61.0172 51.178 59.9528 51.178 59.5262L51.2648 58.35C51.4106 57.3063 51.7497 56.2212 52.2189 55.3308C52.3687 55.0492 52.5225 54.8089 52.6842 54.548C53.0903 53.9061 53.3268 53.5789 53.8236 53.0612L54.4622 52.3903C54.687 52.1832 54.8447 51.9637 55.0655 51.7566L56.5283 50.6052C56.8319 50.4189 57.0487 50.2946 57.3562 50.1331C59.3985 49.0563 63.8852 48.3274 65.4347 50.8165C65.62 51.1147 65.9118 51.7276 65.9433 52.1459C65.7147 52.2743 65.6043 52.3696 65.3954 52.5394C65.2022 52.6968 65.0562 52.8044 64.867 52.9577C64.5003 53.2434 64.1927 53.5126 63.8261 53.8025C62.592 54.7799 61.563 55.4385 60.5813 56.2047L59.0792 57.5341C58.9254 57.6956 58.7479 57.8571 58.6218 58.0228C58.4443 58.2672 58.405 58.3251 58.1921 58.5405L54.4307 63.3157C53.5831 64.1896 51.7261 62.5288 51.3831 61.3319L51.3791 61.3278ZM134.865 110.381C134.412 110.741 133.844 110.998 133.268 111.238C130.887 112.253 128.222 112.886 125.773 113.731C125.158 113.946 124.524 114.12 123.877 114.348L122.048 114.961C121.397 115.152 120.778 115.354 120.183 115.611C119.595 115.864 118.992 116.038 118.397 116.27C116.942 116.841 115.065 117.595 113.681 118.399C113.504 118.502 113.457 118.556 113.279 118.651C112.353 119.144 110.795 119.943 110.795 121.26L111.903 125.464C112.293 126.905 112.597 128.264 112.94 129.742C113.263 131.15 113.543 132.708 113.776 134.232C113.957 135.425 114.135 136.646 114.131 137.885C114.131 138.444 114.245 139.065 114.202 139.674C114.182 139.955 114.143 139.868 114.127 140.192C114.119 140.382 114.143 140.606 114.127 140.792C114.072 141.562 113.874 142.548 113.701 143.252C113.177 145.414 111.785 146.851 109.664 147.207C108.465 147.41 108.095 147.24 107.779 148.736C107.389 150.608 106.845 152.401 106.257 154.144L105.346 156.692C105.204 157.06 105.185 157.209 104.901 157.416C103.844 158.183 102.011 158.526 100.623 158.737C98.8962 159.003 96.984 158.998 95.2453 158.833L93.7392 158.547C93.479 158.477 93.4829 158.435 93.2582 158.381C93.2582 157.412 93.3489 152.566 93.2464 151.838C93.0059 150.135 91.074 150.289 90.9202 151.751C90.8138 152.794 90.9597 154.037 90.9202 155.101C90.9084 155.408 90.8768 155.329 90.8531 155.553C90.7664 156.319 90.8492 157.578 90.8492 158.381C90.6481 158.481 90.2224 158.568 89.9424 158.626C87.2023 159.193 81.576 159.036 79.3326 157.582C78.8674 157.28 78.623 156.174 78.4377 155.619C77.452 152.674 77.1602 151.465 76.4584 148.454C76.147 147.116 74.9287 147.576 73.4818 146.959C71.9047 146.284 70.8243 145.103 70.2566 143.414C69.0225 139.757 69.7638 134.555 70.438 130.91L71.8139 124.454C72.1096 123.203 72.3817 121.915 72.7602 120.676C72.8628 120.345 73.3162 120.109 73.5488 119.865C73.671 119.736 73.7774 119.604 73.9075 119.492L76.8566 116.999C79.8412 114.638 82.9362 112.513 86.5122 111.258C88.4363 110.583 91.6141 109.726 93.7826 110.65L95.4464 111.582C96.7948 112.53 98.7425 114.65 98.0801 116.556C97.3743 118.581 94.0231 119.272 92.1976 119.765C91.8586 119.861 91.4958 119.964 91.1922 120.051L89.1736 120.618C88.4599 120.801 87.8843 121.012 87.1864 121.215C86.8474 121.314 86.528 121.443 86.2284 121.55C85.9011 121.662 85.6015 121.753 85.2703 121.886C84.6198 122.155 84.0717 122.37 83.4448 122.652L81.2646 123.72C81.0872 123.816 81.0399 123.865 80.8664 123.969C80.5549 124.151 80.342 124.238 80.0305 124.437C79.8294 124.565 79.8216 124.565 79.6481 124.706C78.8398 125.34 78.4968 126.781 79.7072 126.781C80.5233 126.781 81.852 125.953 82.4986 125.613C82.952 125.373 83.3463 125.203 83.7997 124.963C84.6711 124.503 85.5739 124.056 86.5122 123.712C89.1065 122.756 90.3525 122.764 92.9625 122.213C93.203 122.159 93.5184 122.126 93.8062 122.051C94.0861 121.977 94.2597 121.894 94.5711 121.811C95.6041 121.542 96.6174 121.269 97.4966 120.71C97.9342 120.432 98.2654 120.242 98.6399 119.902L99.1722 119.417C101.041 117.463 101.002 114.783 99.6808 112.509C99.5192 112.232 99.464 112.128 99.2826 111.88L97.5715 109.95C97.4414 109.83 97.4453 109.813 97.3073 109.705C97.1181 109.56 96.9289 109.399 96.7396 109.258C93.8772 107.138 89.7571 107.494 86.5596 108.484L83.7958 109.531L80.7165 111.221C80.4839 111.362 80.3301 111.466 80.0975 111.615L74.5896 115.669C73.876 116.22 73.0835 116.796 72.4448 117.442L71.467 118.428C68.4193 118.428 64.8315 118.56 62.0716 117.562C61.8272 117.475 61.7523 117.425 61.5039 117.338C58.9411 116.427 56.1655 114.021 54.9985 111.569C53.5949 108.604 53.5909 104.901 54.0837 101.663C54.1468 101.257 54.2257 100.809 54.2888 100.387C54.4544 99.2976 54.6318 98.1339 54.5056 97.0281C54.478 96.792 54.5214 96.5435 54.4859 96.3033L54.1153 93.632C53.7132 91.3211 53.1218 88.2645 52.8655 85.9991C52.8182 85.589 52.7551 85.1418 52.6842 84.6987C52.5462 83.8372 52.5658 82.3214 52.5067 81.8244C52.4712 81.4972 52.4042 81.6298 52.4831 81.1908C52.5107 81.0292 52.5974 78.6892 52.7551 77.7491C52.9049 76.8379 52.8931 75.9972 53.0271 75.0488C53.4805 71.8018 53.7566 69.6896 55.2351 66.8568C55.4243 66.4964 55.5622 66.2604 55.7554 65.9125L56.9303 64.0944C57.6045 63.1708 58.6652 61.5763 59.4498 60.777C59.6193 60.5989 59.6351 60.5823 59.781 60.3752C60.1831 59.8037 60.7587 59.402 61.224 58.9091L61.9691 58.2009C63.144 57.1531 64.4097 56.2336 65.695 55.3308C65.9986 55.1196 66.2469 54.9456 66.5466 54.7344C66.8462 54.5232 67.1261 54.3575 67.414 54.1504L69.2434 53.0198C69.8506 52.6181 70.4813 52.353 71.1279 52.0175L72.0979 51.5454C72.7406 51.2058 73.4384 50.9573 74.1165 50.6798C76.419 49.7355 79.5929 48.8327 82.0453 48.4972C86.4492 47.8925 89.9739 47.9381 94.3858 48.4931C94.8155 48.5469 95.3281 48.6339 95.7421 48.7043C96.8382 48.8906 97.9618 49.0936 98.9988 49.3835C99.2472 49.4539 99.3378 49.5284 99.6374 49.5326C99.6374 47.4659 100.067 45.3786 101.112 44.2976C101.644 43.7427 102.22 43.3161 102.965 43.0386C105.149 42.2227 107.795 42.4546 109.884 43.3989C110.965 43.8918 111.895 44.4923 112.83 45.2254C113.09 45.4283 113.188 45.5608 113.453 45.7638C114.332 46.4471 115.582 48.4102 115.905 49.3752C116.307 50.5763 116.481 51.943 115.988 53.1399C115.696 53.8564 115.274 54.4528 114.813 55.0368C114.651 55.2397 114.478 55.3142 114.281 55.5213C113.985 55.8278 113.457 56.2833 113.058 56.3951C113.121 56.6478 114.288 57.7909 114.647 58.3003C115.558 59.5925 116.394 60.9426 117.08 62.3839L119.272 67.4573C119.414 67.83 119.524 68.1282 119.658 68.4678C120.739 71.2717 121.598 74.1832 122.686 76.9912C122.769 77.2024 122.801 77.3018 122.879 77.5379L123.25 78.6395C123.546 79.5465 123.877 80.4453 124.118 81.3813L124.713 83.7378C125.009 84.9803 125.174 86.2144 125.355 87.461C125.493 88.4178 125.592 89.772 125.557 90.7619C125.545 91.0891 125.505 90.9979 125.482 91.2796C125.47 91.4659 125.494 91.6896 125.482 91.8801C125.442 92.9486 125.139 94.2491 124.871 95.2597C124.764 95.6614 124.701 95.7897 124.583 96.1542C124.358 96.8458 124.086 97.4878 123.735 98.0924L122.142 100.524C121.555 101.373 120.991 101.774 120.494 102.292L119.296 103.344C118.231 104.185 117.123 104.992 115.925 105.618C114.438 106.396 112.972 107.216 111.387 107.784C110.807 107.991 110.365 108.194 109.77 108.401C109.187 108.604 108.662 108.861 108.662 109.618C108.662 110.236 109.131 110.592 109.656 110.592C110.18 110.592 111.189 110.165 111.635 109.983C111.789 109.917 111.891 109.871 112.096 109.796L113.488 109.171C113.784 109.03 114.072 108.927 114.387 108.774C117.029 107.481 117.853 107.432 120.545 105.547C120.833 105.344 121.042 105.195 121.298 104.996C121.555 104.798 121.772 104.586 122.052 104.371C122.544 103.986 122.974 103.501 123.412 103.042L124.311 101.973C124.709 101.414 124.823 101.368 125.588 101.223L127.41 101.05C127.855 101.033 128.096 100.954 128.557 101.029C128.924 101.091 129.393 101.041 130.371 101.215C130.69 101.269 131.163 101.385 131.463 101.484C132.539 101.841 133.631 102.309 134.487 103.079C136.762 105.133 137.708 108.132 134.873 110.381H134.865ZM94.9575 89.2585C94.0192 89.6437 93.1912 90.7494 93.1912 92.1037C93.1912 95.5329 97.3744 96.295 98.7977 93.2966C100.012 90.7329 97.5794 88.1776 94.9536 89.2585H94.9575ZM84.8879 97.3221C84.6592 97.1482 84.4779 97.0116 84.2216 96.8293L82.195 95.4543C81.5287 95.0443 80.618 94.1663 79.9635 94.3029C78.8596 94.5307 78.552 95.5206 77.6689 96.5891C77.4165 96.8997 75.8789 98.9829 75.8789 99.4054C75.8789 99.9976 76.4545 100.374 77.0853 100.374C77.6215 100.374 78.2918 99.0285 78.7176 98.3617L79.7624 96.7009C80.2908 95.9637 80.6062 96.2454 81.8521 97.231C82.2463 97.5417 83.9811 99.0326 84.3951 99.0326C84.5094 99.0326 84.9234 98.8545 85.0062 98.78C85.365 98.4777 85.5306 97.8067 84.8919 97.318L84.8879 97.3221ZM66.1326 95.475C65.9749 95.3508 65.8685 95.3052 65.6792 95.2058C64.8 94.7502 63.3215 94.7378 62.4068 95.5495C61.9849 95.9264 61.4644 96.7506 61.4644 97.5458C61.4644 98.3824 61.4132 98.5522 61.7956 99.2852C62.0874 99.8444 62.6945 100.461 63.2386 100.751C64.4135 101.381 65.5333 101.128 66.381 100.25C67.4377 99.1569 67.5598 97.3759 66.8304 96.2329C66.5978 95.8725 66.4717 95.7484 66.1326 95.475ZM94.9575 89.2585C94.0192 89.6437 93.1912 90.7494 93.1912 92.1037C93.1912 95.5329 97.3744 96.295 98.7977 93.2966C100.012 90.7329 97.5794 88.1776 94.9536 89.2585H94.9575ZM66.8344 96.2329C66.6018 95.8725 66.4756 95.7484 66.1365 95.475C65.9788 95.3508 65.8724 95.3052 65.6832 95.2058C64.8039 94.7502 63.3254 94.7378 62.4107 95.5495C61.9889 95.9264 61.4684 96.7506 61.4684 97.5458C61.4684 98.3824 61.4171 98.5522 61.7996 99.2852C62.0913 99.8444 62.6985 100.461 63.2426 100.751C64.4175 101.381 65.5373 101.128 66.385 100.25C67.4416 99.1569 67.5638 97.3759 66.8344 96.2329ZM84.8879 97.3221C84.6592 97.1482 84.4779 97.0116 84.2216 96.8293L82.195 95.4543C81.5287 95.0443 80.618 94.1663 79.9635 94.3029C78.8596 94.5307 78.552 95.5206 77.6689 96.5891C77.4165 96.8997 75.8789 98.9829 75.8789 99.4054C75.8789 99.9976 76.4545 100.374 77.0853 100.374C77.6215 100.374 78.2918 99.0285 78.7176 98.3617L79.7624 96.7009C80.2908 95.9637 80.6062 96.2454 81.8521 97.231C82.2463 97.5417 83.9811 99.0326 84.3951 99.0326C84.5094 99.0326 84.9234 98.8545 85.0062 98.78C85.365 98.4777 85.5306 97.8067 84.8919 97.318L84.8879 97.3221Z"/>
</mask>
<path fill-rule="evenodd" clip-rule="evenodd" d="M94.9575 89.2585C94.0192 89.6437 93.1912 90.7494 93.1912 92.1037C93.1912 95.5329 97.3744 96.295 98.7977 93.2966C100.012 90.7329 97.5794 88.1776 94.9536 89.2585H94.9575ZM84.8879 97.3221C84.6592 97.1482 84.4779 97.0116 84.2216 96.8293L82.195 95.4543C81.5287 95.0443 80.618 94.1663 79.9635 94.3029C78.8596 94.5307 78.552 95.5206 77.6689 96.5891C77.4165 96.8997 75.8789 98.9829 75.8789 99.4054C75.8789 99.9976 76.4545 100.374 77.0853 100.374C77.6215 100.374 78.2918 99.0285 78.7176 98.3617L79.7624 96.7009C80.2908 95.9637 80.6062 96.2454 81.8521 97.231C82.2463 97.5417 83.9811 99.0326 84.3951 99.0326C84.5094 99.0326 84.9234 98.8545 85.0062 98.78C85.365 98.4777 85.5306 97.8067 84.8919 97.318L84.8879 97.3221ZM66.1326 95.475C65.9749 95.3508 65.8685 95.3052 65.6792 95.2058C64.8 94.7502 63.3215 94.7378 62.4068 95.5495C61.9849 95.9264 61.4644 96.7506 61.4644 97.5458C61.4644 98.3824 61.4132 98.5522 61.7956 99.2852C62.0874 99.8444 62.6945 100.461 63.2386 100.751C64.4135 101.381 65.5333 101.128 66.381 100.25C67.4377 99.1569 67.5598 97.3759 66.8304 96.2329C66.5978 95.8725 66.4717 95.7484 66.1326 95.475ZM137.14 102.226C136.592 101.654 135.997 101.112 135.327 100.702L134.696 100.316C134.187 99.981 133.576 99.7656 133.016 99.5461C130.863 98.7012 128.703 98.6599 126.262 98.6599L126.858 97.0488C127.358 95.475 127.619 93.8391 127.682 92.1742C127.694 91.847 127.733 91.9381 127.757 91.6565C127.934 89.2047 127.303 85.7547 126.806 83.3361C126.483 81.7788 126.018 80.2589 125.549 78.7679C125.32 78.0431 125.048 77.3266 124.804 76.5687C124.279 74.9452 123.629 73.4004 123.12 71.7769C123.045 71.5326 122.998 71.4581 122.923 71.2386L121.452 66.9686C121.338 66.6248 121.188 66.2438 121.038 65.9125L119.713 62.9057C119.623 62.7111 119.572 62.5992 119.481 62.4046C118.897 61.1787 117.857 59.3937 117.084 58.2837L115.909 56.5401L116.741 55.7739C117.052 55.5006 117.281 55.2314 117.51 54.8669C119.173 52.2412 118.14 48.2818 116.453 45.9709C115.751 45.0059 114.915 44.132 113.989 43.4155C112.889 42.5623 111.726 41.7961 110.464 41.2287C109.175 40.6489 107.688 40.3714 106.206 40.359H105.969C104.806 40.3714 103.651 40.5371 102.606 40.8519C101.561 41.1625 100.592 41.7009 99.7794 42.4256L98.9277 43.3244C98.4783 43.8379 98.2338 44.3846 98.0643 45.1011C97.9697 45.5029 97.8081 46.269 97.8081 46.6956C97.5045 46.6708 97.1733 46.5424 96.8815 46.4761C96.5503 46.4057 96.2862 46.3519 95.9353 46.2773C95.5962 46.2069 95.2927 46.1406 94.9694 46.0992C94.6342 46.0578 94.2912 45.9791 93.9758 45.9501L91.9176 45.7224C91.5667 45.6934 91.1292 45.7596 90.7861 45.7182L86.4531 45.801C84.3872 45.8217 81.0556 46.3974 78.9226 46.8364C76.147 47.4121 70.7297 49.1184 68.1828 50.7668C67.9896 50.891 67.8239 50.9987 67.5716 51.0194C67.4967 50.7295 67.5086 50.8703 67.347 50.6591C66.0774 49.0107 65.9197 48.0623 63.5975 47.4411C61.2476 46.8074 58.1881 47.2588 56.1892 48.3149C55.377 48.7415 54.754 49.3089 54.1035 49.9219C53.6106 50.394 53.0508 50.8703 52.6131 51.4129C52.4673 51.591 52.4672 51.6407 52.2938 51.8229L51.5881 52.6471C51.3791 52.9245 51.1859 53.2062 50.9927 53.5126C49.5458 55.8112 49.1909 57.6128 49.1909 60.4166C49.1909 63.2205 51.2923 64.0239 52.6171 65.3202C52.8024 65.5025 52.6881 65.49 52.9522 65.5646C52.9404 66.2231 51.454 70.0417 51.1504 71.3462C50.7916 72.8869 50.5077 74.3737 50.3303 76.0055L50.1135 80.3997C50.1135 82.4042 50.3224 84.1064 50.5353 85.9991C50.5787 86.3925 50.5906 86.6742 50.6536 87.0635L50.9375 89.2254C51.3436 91.6358 52.1755 95.2099 52.1755 97.6203C52.1755 100.031 51.391 101.882 51.391 104.33C51.391 106.632 51.4855 108.119 52.0336 110.294C52.1006 110.563 52.1716 110.811 52.2741 111.085C52.7275 112.306 53.2597 113.383 54.001 114.414C54.0838 114.53 54.1232 114.605 54.2139 114.713C54.3085 114.824 54.3716 114.862 54.4584 114.978C55.6451 116.568 57.8412 118.071 59.5641 118.784C61.3541 119.521 63.0416 119.956 64.9892 120.316C65.2771 120.37 65.5254 120.403 65.7974 120.436C66.8186 120.565 67.7372 120.73 68.7781 120.73C69.4247 120.73 69.7796 120.656 70.4104 120.656C70.3434 120.801 70.2409 121.219 70.1936 121.401C69.7401 123.257 69.267 125.042 68.8767 126.951C68.2971 129.755 67.7096 132.459 67.4967 135.346C67.4494 136.013 67.3549 136.489 67.3588 137.21C67.3588 137.785 67.2247 138.543 67.3035 139.057C67.5204 140.506 67.2247 141.848 68.096 144.188C68.6046 145.555 69.2828 146.76 70.3197 147.742C71.262 148.636 72.5079 149.278 73.7577 149.568C73.9115 149.605 74.0613 149.614 74.1795 149.651C74.4989 149.763 74.5975 150.703 74.6803 151.059C74.7355 151.283 74.8064 151.61 74.8735 151.829C74.9523 152.103 75.0115 152.405 75.0824 152.654C75.6147 154.41 76.1312 156.066 76.766 157.739C76.8645 158 76.9355 158.253 77.0538 158.481C78.548 161.396 86.5556 161.641 89.8596 161.073C90.5693 160.953 91.1765 160.854 91.8113 160.589C92.1937 160.427 92.1464 160.485 92.5722 160.667C92.793 160.763 92.8521 160.787 93.1044 160.854C94.2044 161.14 95.4266 161.305 96.6765 161.359H98.6439C100.166 161.293 101.66 161.077 102.953 160.734C103.758 160.522 104.483 160.332 105.161 159.992C105.954 159.595 106.797 159.094 107.196 158.253C107.767 157.039 108.891 153.602 109.325 152.065C109.553 151.258 109.873 150.413 109.936 149.576C111.316 149.576 113.07 148.475 114.001 147.505C115.069 146.396 115.747 144.863 116.059 143.252C116.481 141.061 116.567 138.742 116.331 136.518C116.287 136.1 116.295 135.764 116.24 135.35C116.189 135.006 116.149 134.576 116.086 134.174C115.554 130.869 114.88 127.688 114.012 124.499C113.906 124.106 113.831 123.824 113.74 123.439C113.567 122.698 113.362 122.047 113.2 121.318C113.575 121.227 114.064 120.867 114.43 120.672L117.005 119.426C117.241 119.326 117.403 119.239 117.651 119.136C117.924 119.02 118.105 118.954 118.373 118.85L125.434 116.353L132.882 114.187C133.363 113.98 133.816 113.868 134.301 113.665C135.2 113.284 135.977 112.87 136.738 112.269C139.9 109.763 139.975 105.183 137.136 102.218L137.14 102.226ZM51.3791 61.3278C51.2884 61.0172 51.178 59.9528 51.178 59.5262L51.2648 58.35C51.4106 57.3063 51.7497 56.2212 52.2189 55.3308C52.3687 55.0492 52.5225 54.8089 52.6842 54.548C53.0903 53.9061 53.3268 53.5789 53.8236 53.0612L54.4622 52.3903C54.687 52.1832 54.8447 51.9637 55.0655 51.7566L56.5283 50.6052C56.8319 50.4189 57.0487 50.2946 57.3562 50.1331C59.3985 49.0563 63.8852 48.3274 65.4347 50.8165C65.62 51.1147 65.9118 51.7276 65.9433 52.1459C65.7147 52.2743 65.6043 52.3696 65.3954 52.5394C65.2022 52.6968 65.0562 52.8044 64.867 52.9577C64.5003 53.2434 64.1927 53.5126 63.8261 53.8025C62.592 54.7799 61.563 55.4385 60.5813 56.2047L59.0792 57.5341C58.9254 57.6956 58.7479 57.8571 58.6218 58.0228C58.4443 58.2672 58.405 58.3251 58.1921 58.5405L54.4307 63.3157C53.5831 64.1896 51.7261 62.5288 51.3831 61.3319L51.3791 61.3278ZM134.865 110.381C134.412 110.741 133.844 110.998 133.268 111.238C130.887 112.253 128.222 112.886 125.773 113.731C125.158 113.946 124.524 114.12 123.877 114.348L122.048 114.961C121.397 115.152 120.778 115.354 120.183 115.611C119.595 115.864 118.992 116.038 118.397 116.27C116.942 116.841 115.065 117.595 113.681 118.399C113.504 118.502 113.457 118.556 113.279 118.651C112.353 119.144 110.795 119.943 110.795 121.26L111.903 125.464C112.293 126.905 112.597 128.264 112.94 129.742C113.263 131.15 113.543 132.708 113.776 134.232C113.957 135.425 114.135 136.646 114.131 137.885C114.131 138.444 114.245 139.065 114.202 139.674C114.182 139.955 114.143 139.868 114.127 140.192C114.119 140.382 114.143 140.606 114.127 140.792C114.072 141.562 113.874 142.548 113.701 143.252C113.177 145.414 111.785 146.851 109.664 147.207C108.465 147.41 108.095 147.24 107.779 148.736C107.389 150.608 106.845 152.401 106.257 154.144L105.346 156.692C105.204 157.06 105.185 157.209 104.901 157.416C103.844 158.183 102.011 158.526 100.623 158.737C98.8962 159.003 96.984 158.998 95.2453 158.833L93.7392 158.547C93.479 158.477 93.4829 158.435 93.2582 158.381C93.2582 157.412 93.3489 152.566 93.2464 151.838C93.0059 150.135 91.074 150.289 90.9202 151.751C90.8138 152.794 90.9597 154.037 90.9202 155.101C90.9084 155.408 90.8768 155.329 90.8531 155.553C90.7664 156.319 90.8492 157.578 90.8492 158.381C90.6481 158.481 90.2224 158.568 89.9424 158.626C87.2023 159.193 81.576 159.036 79.3326 157.582C78.8674 157.28 78.623 156.174 78.4377 155.619C77.452 152.674 77.1602 151.465 76.4584 148.454C76.147 147.116 74.9287 147.576 73.4818 146.959C71.9047 146.284 70.8243 145.103 70.2566 143.414C69.0225 139.757 69.7638 134.555 70.438 130.91L71.8139 124.454C72.1096 123.203 72.3817 121.915 72.7602 120.676C72.8628 120.345 73.3162 120.109 73.5488 119.865C73.671 119.736 73.7774 119.604 73.9075 119.492L76.8566 116.999C79.8412 114.638 82.9362 112.513 86.5122 111.258C88.4363 110.583 91.6141 109.726 93.7826 110.65L95.4464 111.582C96.7948 112.53 98.7425 114.65 98.0801 116.556C97.3743 118.581 94.0231 119.272 92.1976 119.765C91.8586 119.861 91.4958 119.964 91.1922 120.051L89.1736 120.618C88.4599 120.801 87.8843 121.012 87.1864 121.215C86.8474 121.314 86.528 121.443 86.2284 121.55C85.9011 121.662 85.6015 121.753 85.2703 121.886C84.6198 122.155 84.0717 122.37 83.4448 122.652L81.2646 123.72C81.0872 123.816 81.0399 123.865 80.8664 123.969C80.5549 124.151 80.342 124.238 80.0305 124.437C79.8294 124.565 79.8216 124.565 79.6481 124.706C78.8398 125.34 78.4968 126.781 79.7072 126.781C80.5233 126.781 81.852 125.953 82.4986 125.613C82.952 125.373 83.3463 125.203 83.7997 124.963C84.6711 124.503 85.5739 124.056 86.5122 123.712C89.1065 122.756 90.3525 122.764 92.9625 122.213C93.203 122.159 93.5184 122.126 93.8062 122.051C94.0861 121.977 94.2597 121.894 94.5711 121.811C95.6041 121.542 96.6174 121.269 97.4966 120.71C97.9342 120.432 98.2654 120.242 98.6399 119.902L99.1722 119.417C101.041 117.463 101.002 114.783 99.6808 112.509C99.5192 112.232 99.464 112.128 99.2826 111.88L97.5715 109.95C97.4414 109.83 97.4453 109.813 97.3073 109.705C97.1181 109.56 96.9289 109.399 96.7396 109.258C93.8772 107.138 89.7571 107.494 86.5596 108.484L83.7958 109.531L80.7165 111.221C80.4839 111.362 80.3301 111.466 80.0975 111.615L74.5896 115.669C73.876 116.22 73.0835 116.796 72.4448 117.442L71.467 118.428C68.4193 118.428 64.8315 118.56 62.0716 117.562C61.8272 117.475 61.7523 117.425 61.5039 117.338C58.9411 116.427 56.1655 114.021 54.9985 111.569C53.5949 108.604 53.5909 104.901 54.0837 101.663C54.1468 101.257 54.2257 100.809 54.2888 100.387C54.4544 99.2976 54.6318 98.1339 54.5056 97.0281C54.478 96.792 54.5214 96.5435 54.4859 96.3033L54.1153 93.632C53.7132 91.3211 53.1218 88.2645 52.8655 85.9991C52.8182 85.589 52.7551 85.1418 52.6842 84.6987C52.5462 83.8372 52.5658 82.3214 52.5067 81.8244C52.4712 81.4972 52.4042 81.6298 52.4831 81.1908C52.5107 81.0292 52.5974 78.6892 52.7551 77.7491C52.9049 76.8379 52.8931 75.9972 53.0271 75.0488C53.4805 71.8018 53.7566 69.6896 55.2351 66.8568C55.4243 66.4964 55.5622 66.2604 55.7554 65.9125L56.9303 64.0944C57.6045 63.1708 58.6652 61.5763 59.4498 60.777C59.6193 60.5989 59.6351 60.5823 59.781 60.3752C60.1831 59.8037 60.7587 59.402 61.224 58.9091L61.9691 58.2009C63.144 57.1531 64.4097 56.2336 65.695 55.3308C65.9986 55.1196 66.2469 54.9456 66.5466 54.7344C66.8462 54.5232 67.1261 54.3575 67.414 54.1504L69.2434 53.0198C69.8506 52.6181 70.4813 52.353 71.1279 52.0175L72.0979 51.5454C72.7406 51.2058 73.4384 50.9573 74.1165 50.6798C76.419 49.7355 79.5929 48.8327 82.0453 48.4972C86.4492 47.8925 89.9739 47.9381 94.3858 48.4931C94.8155 48.5469 95.3281 48.6339 95.7421 48.7043C96.8382 48.8906 97.9618 49.0936 98.9988 49.3835C99.2472 49.4539 99.3378 49.5284 99.6374 49.5326C99.6374 47.4659 100.067 45.3786 101.112 44.2976C101.644 43.7427 102.22 43.3161 102.965 43.0386C105.149 42.2227 107.795 42.4546 109.884 43.3989C110.965 43.8918 111.895 44.4923 112.83 45.2254C113.09 45.4283 113.188 45.5608 113.453 45.7638C114.332 46.4471 115.582 48.4102 115.905 49.3752C116.307 50.5763 116.481 51.943 115.988 53.1399C115.696 53.8564 115.274 54.4528 114.813 55.0368C114.651 55.2397 114.478 55.3142 114.281 55.5213C113.985 55.8278 113.457 56.2833 113.058 56.3951C113.121 56.6478 114.288 57.7909 114.647 58.3003C115.558 59.5925 116.394 60.9426 117.08 62.3839L119.272 67.4573C119.414 67.83 119.524 68.1282 119.658 68.4678C120.739 71.2717 121.598 74.1832 122.686 76.9912C122.769 77.2024 122.801 77.3018 122.879 77.5379L123.25 78.6395C123.546 79.5465 123.877 80.4453 124.118 81.3813L124.713 83.7378C125.009 84.9803 125.174 86.2144 125.355 87.461C125.493 88.4178 125.592 89.772 125.557 90.7619C125.545 91.0891 125.505 90.9979 125.482 91.2796C125.47 91.4659 125.494 91.6896 125.482 91.8801C125.442 92.9486 125.139 94.2491 124.871 95.2597C124.764 95.6614 124.701 95.7897 124.583 96.1542C124.358 96.8458 124.086 97.4878 123.735 98.0924L122.142 100.524C121.555 101.373 120.991 101.774 120.494 102.292L119.296 103.344C118.231 104.185 117.123 104.992 115.925 105.618C114.438 106.396 112.972 107.216 111.387 107.784C110.807 107.991 110.365 108.194 109.77 108.401C109.187 108.604 108.662 108.861 108.662 109.618C108.662 110.236 109.131 110.592 109.656 110.592C110.18 110.592 111.189 110.165 111.635 109.983C111.789 109.917 111.891 109.871 112.096 109.796L113.488 109.171C113.784 109.03 114.072 108.927 114.387 108.774C117.029 107.481 117.853 107.432 120.545 105.547C120.833 105.344 121.042 105.195 121.298 104.996C121.555 104.798 121.772 104.586 122.052 104.371C122.544 103.986 122.974 103.501 123.412 103.042L124.311 101.973C124.709 101.414 124.823 101.368 125.588 101.223L127.41 101.05C127.855 101.033 128.096 100.954 128.557 101.029C128.924 101.091 129.393 101.041 130.371 101.215C130.69 101.269 131.163 101.385 131.463 101.484C132.539 101.841 133.631 102.309 134.487 103.079C136.762 105.133 137.708 108.132 134.873 110.381H134.865ZM94.9575 89.2585C94.0192 89.6437 93.1912 90.7494 93.1912 92.1037C93.1912 95.5329 97.3744 96.295 98.7977 93.2966C100.012 90.7329 97.5794 88.1776 94.9536 89.2585H94.9575ZM84.8879 97.3221C84.6592 97.1482 84.4779 97.0116 84.2216 96.8293L82.195 95.4543C81.5287 95.0443 80.618 94.1663 79.9635 94.3029C78.8596 94.5307 78.552 95.5206 77.6689 96.5891C77.4165 96.8997 75.8789 98.9829 75.8789 99.4054C75.8789 99.9976 76.4545 100.374 77.0853 100.374C77.6215 100.374 78.2918 99.0285 78.7176 98.3617L79.7624 96.7009C80.2908 95.9637 80.6062 96.2454 81.8521 97.231C82.2463 97.5417 83.9811 99.0326 84.3951 99.0326C84.5094 99.0326 84.9234 98.8545 85.0062 98.78C85.365 98.4777 85.5306 97.8067 84.8919 97.318L84.8879 97.3221ZM66.1326 95.475C65.9749 95.3508 65.8685 95.3052 65.6792 95.2058C64.8 94.7502 63.3215 94.7378 62.4068 95.5495C61.9849 95.9264 61.4644 96.7506 61.4644 97.5458C61.4644 98.3824 61.4132 98.5522 61.7956 99.2852C62.0874 99.8444 62.6945 100.461 63.2386 100.751C64.4135 101.381 65.5333 101.128 66.381 100.25C67.4377 99.1569 67.5598 97.3759 66.8304 96.2329C66.5978 95.8725 66.4717 95.7484 66.1326 95.475ZM94.9575 89.2585C94.0192 89.6437 93.1912 90.7494 93.1912 92.1037C93.1912 95.5329 97.3744 96.295 98.7977 93.2966C100.012 90.7329 97.5794 88.1776 94.9536 89.2585H94.9575ZM66.8344 96.2329C66.6018 95.8725 66.4756 95.7484 66.1365 95.475C65.9788 95.3508 65.8724 95.3052 65.6832 95.2058C64.8039 94.7502 63.3254 94.7378 62.4107 95.5495C61.9889 95.9264 61.4684 96.7506 61.4684 97.5458C61.4684 98.3824 61.4171 98.5522 61.7996 99.2852C62.0913 99.8444 62.6985 100.461 63.2426 100.751C64.4175 101.381 65.5373 101.128 66.385 100.25C67.4416 99.1569 67.5638 97.3759 66.8344 96.2329ZM84.8879 97.3221C84.6592 97.1482 84.4779 97.0116 84.2216 96.8293L82.195 95.4543C81.5287 95.0443 80.618 94.1663 79.9635 94.3029C78.8596 94.5307 78.552 95.5206 77.6689 96.5891C77.4165 96.8997 75.8789 98.9829 75.8789 99.4054C75.8789 99.9976 76.4545 100.374 77.0853 100.374C77.6215 100.374 78.2918 99.0285 78.7176 98.3617L79.7624 96.7009C80.2908 95.9637 80.6062 96.2454 81.8521 97.231C82.2463 97.5417 83.9811 99.0326 84.3951 99.0326C84.5094 99.0326 84.9234 98.8545 85.0062 98.78C85.365 98.4777 85.5306 97.8067 84.8919 97.318L84.8879 97.3221Z" fill="black" stroke="black" stroke-width="0.502733" mask="url(#path-4-inside-2_2369_435)"/>
<path d="M30.2865 140.459C30.3669 135.895 27.4184 132.686 23.0723 132.601C27.4184 132.686 30.475 129.59 30.5554 125.026C30.475 129.59 33.4235 132.799 37.7697 132.884C33.4235 132.799 30.3669 135.895 30.2865 140.459Z" fill="white" stroke="black" stroke-width="2"/>
<path d="M12.4276 40.5996C12.3924 32.9185 17.4172 27.5866 24.7319 27.5497C17.4172 27.5866 12.3396 22.3101 12.3044 14.6291C12.3396 22.3101 7.31476 27.642 0 27.679C7.31476 27.642 12.3924 32.9185 12.4276 40.5996Z" fill="white" stroke="black" stroke-width="2"/>
<path d="M134.792 32.2446C134.772 27.6782 131.758 24.5398 127.409 24.5609C131.758 24.5398 134.747 21.375 134.726 16.8085C134.747 21.375 137.76 24.5134 142.109 24.4923C137.76 24.5134 134.772 27.6782 134.792 32.2446Z" fill="white" stroke="black" stroke-width="2"/>
</svg>
