<svg width="211" height="217" viewBox="0 0 211 217" fill="none" xmlns="http://www.w3.org/2000/svg">
<path d="M173.564 147.729L120.462 119.61L132.8 145.09L134.191 147.961H131H2V214.317H209V147.961H174.5H174.003L173.564 147.729Z" fill="#FFCE00" stroke="black" stroke-width="4"/>
<mask id="path-2-outside-1_2369_444" maskUnits="userSpaceOnUse" x="7.0625" y="154.412" width="189" height="39" fill="black">
<rect fill="white" x="7.0625" y="154.412" width="189" height="39"/>
<path d="M9.72227 167.797L13.4843 166.84C15.1673 171.988 16.6523 178.423 17.5103 183.406C20.4143 178.357 23.1203 171.163 23.9453 166.477L27.4763 167.599C26.1233 174.529 21.4043 185.881 17.2133 190.567L14.2433 188.323C14.4083 188.125 14.6063 187.861 14.8043 187.564C13.3523 181.162 11.5043 173.77 9.72227 167.797ZM29.946 171.328V167.401H45.093V171.328H39.351V185.485H47.106V189.412H27.933V185.485H35.655V171.328H29.946ZM69.606 179.116H68.484V182.251C68.484 186.97 66.801 189.412 62.115 189.412H50.499V185.485H62.049C64.227 185.485 64.821 184.429 64.821 182.251V179.116H56.307C53.337 179.116 51.72 177.367 51.72 174.199V171.328H49.509V167.401H68.616V171.328H55.383V174.199C55.383 174.859 55.581 175.156 56.307 175.156H69.606V179.116ZM72.9706 171.328V167.401H88.1176V171.328H82.3756V185.485H90.1306V189.412H70.9576V185.485H78.6796V171.328H72.9706ZM81.2536 157.732L84.4546 159.778C83.2336 161.197 81.7156 164.068 81.1546 165.949L77.7556 164.134C78.3166 162.253 80.0986 158.92 81.2536 157.732ZM108.801 171.097V175.024H101.805V177.07C101.805 181.393 101.178 188.488 94.0833 189.709L93.2253 185.749C97.8123 185.749 98.1423 180.469 98.1423 177.07V175.024H91.1463V171.097H98.1423V165.223H101.805V171.097H108.801ZM108.428 189.61L107.009 187.399L116.579 166.378L119.945 167.962L112.19 184.792L121.694 182.218L118.955 176.047L122.387 174.496L128.723 188.488L125.324 190.039L123.344 185.815L108.428 189.61ZM134.819 172.054V189.412H131.156V168.127H138.218V165.223H141.914V168.127H149.768V172.054H148.976V182.251C148.976 186.97 147.293 189.412 142.607 189.412H142.112L141.188 185.485H142.541C144.686 185.485 145.313 184.429 145.313 182.251V172.054H134.819ZM170.682 167.401V189.412H167.019V187.828H156.525V189.412H152.862V167.401H170.682ZM156.525 183.901H167.019V171.328H156.525V183.901ZM193.846 179.116H192.724V182.251C192.724 186.97 191.041 189.412 186.355 189.412H174.739V185.485H186.289C188.467 185.485 189.061 184.429 189.061 182.251V179.116H180.547C177.577 179.116 175.96 177.367 175.96 174.199V171.328H173.749V167.401H192.856V171.328H179.623V174.199C179.623 174.859 179.821 175.156 180.547 175.156H193.846V179.116Z"/>
</mask>
<path d="M9.72227 167.797L13.4843 166.84C15.1673 171.988 16.6523 178.423 17.5103 183.406C20.4143 178.357 23.1203 171.163 23.9453 166.477L27.4763 167.599C26.1233 174.529 21.4043 185.881 17.2133 190.567L14.2433 188.323C14.4083 188.125 14.6063 187.861 14.8043 187.564C13.3523 181.162 11.5043 173.77 9.72227 167.797ZM29.946 171.328V167.401H45.093V171.328H39.351V185.485H47.106V189.412H27.933V185.485H35.655V171.328H29.946ZM69.606 179.116H68.484V182.251C68.484 186.97 66.801 189.412 62.115 189.412H50.499V185.485H62.049C64.227 185.485 64.821 184.429 64.821 182.251V179.116H56.307C53.337 179.116 51.72 177.367 51.72 174.199V171.328H49.509V167.401H68.616V171.328H55.383V174.199C55.383 174.859 55.581 175.156 56.307 175.156H69.606V179.116ZM72.9706 171.328V167.401H88.1176V171.328H82.3756V185.485H90.1306V189.412H70.9576V185.485H78.6796V171.328H72.9706ZM81.2536 157.732L84.4546 159.778C83.2336 161.197 81.7156 164.068 81.1546 165.949L77.7556 164.134C78.3166 162.253 80.0986 158.92 81.2536 157.732ZM108.801 171.097V175.024H101.805V177.07C101.805 181.393 101.178 188.488 94.0833 189.709L93.2253 185.749C97.8123 185.749 98.1423 180.469 98.1423 177.07V175.024H91.1463V171.097H98.1423V165.223H101.805V171.097H108.801ZM108.428 189.61L107.009 187.399L116.579 166.378L119.945 167.962L112.19 184.792L121.694 182.218L118.955 176.047L122.387 174.496L128.723 188.488L125.324 190.039L123.344 185.815L108.428 189.61ZM134.819 172.054V189.412H131.156V168.127H138.218V165.223H141.914V168.127H149.768V172.054H148.976V182.251C148.976 186.97 147.293 189.412 142.607 189.412H142.112L141.188 185.485H142.541C144.686 185.485 145.313 184.429 145.313 182.251V172.054H134.819ZM170.682 167.401V189.412H167.019V187.828H156.525V189.412H152.862V167.401H170.682ZM156.525 183.901H167.019V171.328H156.525V183.901ZM193.846 179.116H192.724V182.251C192.724 186.97 191.041 189.412 186.355 189.412H174.739V185.485H186.289C188.467 185.485 189.061 184.429 189.061 182.251V179.116H180.547C177.577 179.116 175.96 177.367 175.96 174.199V171.328H173.749V167.401H192.856V171.328H179.623V174.199C179.623 174.859 179.821 175.156 180.547 175.156H193.846V179.116Z" fill="white"/>
<path d="M9.72227 167.797L9.2292 165.859L7.21013 166.372L7.80575 168.369L9.72227 167.797ZM13.4843 166.84L15.3853 166.218L14.804 164.44L12.9912 164.902L13.4843 166.84ZM17.5103 183.406L15.5393 183.745L16.48 189.209L19.244 184.403L17.5103 183.406ZM23.9453 166.477L24.5509 164.571L22.372 163.878L21.9756 166.13L23.9453 166.477ZM27.4763 167.599L29.4392 167.982L29.7808 166.233L28.0819 165.693L27.4763 167.599ZM17.2133 190.567L16.0076 192.163L17.4766 193.273L18.704 191.9L17.2133 190.567ZM14.2433 188.323L12.7068 187.042L11.3639 188.654L13.0376 189.919L14.2433 188.323ZM14.8043 187.564L16.4684 188.673L16.9447 187.959L16.7547 187.121L14.8043 187.564ZM10.2153 169.735L13.9773 168.778L12.9912 164.902L9.2292 165.859L10.2153 169.735ZM11.5833 167.461C13.2298 172.498 14.6939 178.835 15.5393 183.745L19.4813 183.066C18.6107 178.01 17.1047 171.478 15.3853 166.218L11.5833 167.461ZM19.244 184.403C22.244 179.187 25.0433 171.775 25.915 166.824L21.9756 166.13C21.1972 170.551 18.5845 177.527 15.7766 182.409L19.244 184.403ZM23.3396 168.383L26.8706 169.505L28.0819 165.693L24.5509 164.571L23.3396 168.383ZM25.5133 167.216C24.8729 170.496 23.4101 174.923 21.5761 179.124C19.7275 183.359 17.6018 187.132 15.7225 189.234L18.704 191.9C21.0158 189.315 23.3451 185.07 25.242 180.725C27.1534 176.346 28.7266 171.632 29.4392 167.982L25.5133 167.216ZM18.4189 188.971L15.4489 186.727L13.0376 189.919L16.0076 192.163L18.4189 188.971ZM15.7797 189.603C15.9953 189.344 16.2355 189.023 16.4684 188.673L13.1402 186.454C12.977 186.699 12.8212 186.905 12.7068 187.042L15.7797 189.603ZM16.7547 187.121C15.2972 180.695 13.4381 173.256 11.6388 167.225L7.80575 168.369C9.57042 174.284 11.4074 181.629 12.8538 188.006L16.7547 187.121ZM29.946 171.328H27.946V173.328H29.946V171.328ZM29.946 167.401V165.401H27.946V167.401H29.946ZM45.093 167.401H47.093V165.401H45.093V167.401ZM45.093 171.328V173.328H47.093V171.328H45.093ZM39.351 171.328V169.328H37.351V171.328H39.351ZM39.351 185.485H37.351V187.485H39.351V185.485ZM47.106 185.485H49.106V183.485H47.106V185.485ZM47.106 189.412V191.412H49.106V189.412H47.106ZM27.933 189.412H25.933V191.412H27.933V189.412ZM27.933 185.485V183.485H25.933V185.485H27.933ZM35.655 185.485V187.485H37.655V185.485H35.655ZM35.655 171.328H37.655V169.328H35.655V171.328ZM31.946 171.328V167.401H27.946V171.328H31.946ZM29.946 169.401H45.093V165.401H29.946V169.401ZM43.093 167.401V171.328H47.093V167.401H43.093ZM45.093 169.328H39.351V173.328H45.093V169.328ZM37.351 171.328V185.485H41.351V171.328H37.351ZM39.351 187.485H47.106V183.485H39.351V187.485ZM45.106 185.485V189.412H49.106V185.485H45.106ZM47.106 187.412H27.933V191.412H47.106V187.412ZM29.933 189.412V185.485H25.933V189.412H29.933ZM27.933 187.485H35.655V183.485H27.933V187.485ZM37.655 185.485V171.328H33.655V185.485H37.655ZM35.655 169.328H29.946V173.328H35.655V169.328ZM69.606 179.116V181.116H71.606V179.116H69.606ZM68.484 179.116V177.116H66.484V179.116H68.484ZM50.499 189.412H48.499V191.412H50.499V189.412ZM50.499 185.485V183.485H48.499V185.485H50.499ZM64.821 179.116H66.821V177.116H64.821V179.116ZM51.72 171.328H53.72V169.328H51.72V171.328ZM49.509 171.328H47.509V173.328H49.509V171.328ZM49.509 167.401V165.401H47.509V167.401H49.509ZM68.616 167.401H70.616V165.401H68.616V167.401ZM68.616 171.328V173.328H70.616V171.328H68.616ZM55.383 171.328V169.328H53.383V171.328H55.383ZM69.606 175.156H71.606V173.156H69.606V175.156ZM69.606 177.116H68.484V181.116H69.606V177.116ZM66.484 179.116V182.251H70.484V179.116H66.484ZM66.484 182.251C66.484 184.447 66.0776 185.656 65.5242 186.316C65.0384 186.895 64.1275 187.412 62.115 187.412V191.412C64.7885 191.412 67.0622 190.707 68.5893 188.886C70.049 187.145 70.484 184.774 70.484 182.251H66.484ZM62.115 187.412H50.499V191.412H62.115V187.412ZM52.499 189.412V185.485H48.499V189.412H52.499ZM50.499 187.485H62.049V183.485H50.499V187.485ZM62.049 187.485C63.4237 187.485 64.8606 187.149 65.8252 185.919C66.6886 184.819 66.821 183.411 66.821 182.251H62.821C62.821 182.717 62.7879 183.033 62.7414 183.243C62.6964 183.446 62.654 183.481 62.6783 183.45C62.7167 183.401 62.7557 183.392 62.7111 183.409C62.6393 183.435 62.4453 183.485 62.049 183.485V187.485ZM66.821 182.251V179.116H62.821V182.251H66.821ZM64.821 177.116H56.307V181.116H64.821V177.116ZM56.307 177.116C55.2176 177.116 54.6643 176.806 54.3638 176.483C54.042 176.137 53.72 175.464 53.72 174.199H49.72C49.72 176.101 50.2066 177.887 51.4357 179.208C52.6862 180.552 54.4264 181.116 56.307 181.116V177.116ZM53.72 174.199V171.328H49.72V174.199H53.72ZM51.72 169.328H49.509V173.328H51.72V169.328ZM51.509 171.328V167.401H47.509V171.328H51.509ZM49.509 169.401H68.616V165.401H49.509V169.401ZM66.616 167.401V171.328H70.616V167.401H66.616ZM68.616 169.328H55.383V173.328H68.616V169.328ZM53.383 171.328V174.199H57.383V171.328H53.383ZM53.383 174.199C53.383 174.618 53.4193 175.518 54.0823 176.258C54.7955 177.056 55.7503 177.156 56.307 177.156V173.156C56.1377 173.156 56.6306 173.108 57.0632 173.591C57.2624 173.814 57.3391 174.035 57.3666 174.146C57.3906 174.243 57.383 174.279 57.383 174.199H53.383ZM56.307 177.156H69.606V173.156H56.307V177.156ZM67.606 175.156V179.116H71.606V175.156H67.606ZM72.9706 171.328H70.9706V173.328H72.9706V171.328ZM72.9706 167.401V165.401H70.9706V167.401H72.9706ZM88.1176 167.401H90.1176V165.401H88.1176V167.401ZM88.1176 171.328V173.328H90.1176V171.328H88.1176ZM82.3756 171.328V169.328H80.3756V171.328H82.3756ZM82.3756 185.485H80.3756V187.485H82.3756V185.485ZM90.1306 185.485H92.1306V183.485H90.1306V185.485ZM90.1306 189.412V191.412H92.1306V189.412H90.1306ZM70.9576 189.412H68.9576V191.412H70.9576V189.412ZM70.9576 185.485V183.485H68.9576V185.485H70.9576ZM78.6796 185.485V187.485H80.6796V185.485H78.6796ZM78.6796 171.328H80.6796V169.328H78.6796V171.328ZM81.2536 157.732L82.3308 156.047L80.9565 155.168L79.8196 156.338L81.2536 157.732ZM84.4546 159.778L85.9707 161.082L87.4746 159.335L85.5318 158.093L84.4546 159.778ZM81.1546 165.949L80.2126 167.713L82.3717 168.866L83.0712 166.52L81.1546 165.949ZM77.7556 164.134L75.8391 163.562L75.372 165.128L76.8136 165.898L77.7556 164.134ZM74.9706 171.328V167.401H70.9706V171.328H74.9706ZM72.9706 169.401H88.1176V165.401H72.9706V169.401ZM86.1176 167.401V171.328H90.1176V167.401H86.1176ZM88.1176 169.328H82.3756V173.328H88.1176V169.328ZM80.3756 171.328V185.485H84.3756V171.328H80.3756ZM82.3756 187.485H90.1306V183.485H82.3756V187.485ZM88.1306 185.485V189.412H92.1306V185.485H88.1306ZM90.1306 187.412H70.9576V191.412H90.1306V187.412ZM72.9576 189.412V185.485H68.9576V189.412H72.9576ZM70.9576 187.485H78.6796V183.485H70.9576V187.485ZM80.6796 185.485V171.328H76.6796V185.485H80.6796ZM78.6796 169.328H72.9706V173.328H78.6796V169.328ZM80.1765 159.417L83.3775 161.463L85.5318 158.093L82.3308 156.047L80.1765 159.417ZM82.9386 158.473C81.5156 160.127 79.871 163.255 79.2381 165.377L83.0712 166.52C83.5602 164.881 84.9517 162.267 85.9707 161.082L82.9386 158.473ZM82.0967 164.185L78.6977 162.37L76.8136 165.898L80.2126 167.713L82.0967 164.185ZM79.6722 164.705C79.897 163.952 80.4119 162.785 81.04 161.627C81.6841 160.439 82.3116 159.513 82.6876 159.126L79.8196 156.338C79.0406 157.139 78.1997 158.473 77.5238 159.719C76.8319 160.995 76.1752 162.435 75.8391 163.562L79.6722 164.705ZM108.801 171.097H110.801V169.097H108.801V171.097ZM108.801 175.024V177.024H110.801V175.024H108.801ZM101.805 175.024V173.024H99.8053V175.024H101.805ZM94.0833 189.709L92.1287 190.132L92.5344 192.005L94.4225 191.68L94.0833 189.709ZM93.2253 185.749V183.749H90.7456L91.2707 186.172L93.2253 185.749ZM98.1423 175.024H100.142V173.024H98.1423V175.024ZM91.1463 175.024H89.1463V177.024H91.1463V175.024ZM91.1463 171.097V169.097H89.1463V171.097H91.1463ZM98.1423 171.097V173.097H100.142V171.097H98.1423ZM98.1423 165.223V163.223H96.1423V165.223H98.1423ZM101.805 165.223H103.805V163.223H101.805V165.223ZM101.805 171.097H99.8053V173.097H101.805V171.097ZM106.801 171.097V175.024H110.801V171.097H106.801ZM108.801 173.024H101.805V177.024H108.801V173.024ZM99.8053 175.024V177.07H103.805V175.024H99.8053ZM99.8053 177.07C99.8053 179.185 99.6413 181.697 98.763 183.773C97.9388 185.721 96.5121 187.261 93.7441 187.738L94.4225 191.68C98.7496 190.935 101.184 188.317 102.447 185.332C103.656 182.474 103.805 179.277 103.805 177.07H99.8053ZM96.038 189.285L95.18 185.325L91.2707 186.172L92.1287 190.132L96.038 189.285ZM93.2253 187.749C94.7858 187.749 96.1227 187.288 97.1884 186.424C98.223 185.585 98.8668 184.477 99.2761 183.388C100.073 181.267 100.142 178.766 100.142 177.07H96.1423C96.1423 178.773 96.0466 180.611 95.5318 181.98C95.2853 182.636 94.9864 183.06 94.6691 183.317C94.3828 183.549 93.9584 183.749 93.2253 183.749V187.749ZM100.142 177.07V175.024H96.1423V177.07H100.142ZM98.1423 173.024H91.1463V177.024H98.1423V173.024ZM93.1463 175.024V171.097H89.1463V175.024H93.1463ZM91.1463 173.097H98.1423V169.097H91.1463V173.097ZM100.142 171.097V165.223H96.1423V171.097H100.142ZM98.1423 167.223H101.805V163.223H98.1423V167.223ZM99.8053 165.223V171.097H103.805V165.223H99.8053ZM101.805 173.097H108.801V169.097H101.805V173.097ZM108.428 189.61L106.745 190.69L107.524 191.904L108.921 191.548L108.428 189.61ZM107.009 187.399L105.189 186.57L104.737 187.562L105.326 188.479L107.009 187.399ZM116.579 166.378L117.431 164.568L115.598 163.706L114.759 165.549L116.579 166.378ZM119.945 167.962L121.761 168.799L122.592 166.997L120.797 166.152L119.945 167.962ZM112.19 184.792L110.373 183.955L108.583 187.841L112.713 186.722L112.19 184.792ZM121.694 182.218L122.217 184.148L124.468 183.539L123.522 181.406L121.694 182.218ZM118.955 176.047L118.131 174.224L116.321 175.042L117.127 176.858L118.955 176.047ZM122.387 174.496L124.209 173.671L123.384 171.85L121.563 172.673L122.387 174.496ZM128.723 188.488L129.553 190.307L131.367 189.48L130.545 187.663L128.723 188.488ZM125.324 190.039L123.513 190.888L124.353 192.68L126.154 191.858L125.324 190.039ZM123.344 185.815L125.155 184.966L124.453 183.469L122.851 183.877L123.344 185.815ZM110.111 188.53L108.692 186.319L105.326 188.479L106.745 190.69L110.111 188.53ZM108.829 188.228L118.399 167.207L114.759 165.549L105.189 186.57L108.829 188.228ZM115.727 168.188L119.093 169.772L120.797 166.152L117.431 164.568L115.727 168.188ZM118.128 167.125L110.373 183.955L114.006 185.629L121.761 168.799L118.128 167.125ZM112.713 186.722L122.217 184.148L121.171 180.287L111.667 182.861L112.713 186.722ZM123.522 181.406L120.783 175.235L117.127 176.858L119.866 183.029L123.522 181.406ZM119.779 177.869L123.211 176.318L121.563 172.673L118.131 174.224L119.779 177.869ZM120.565 175.321L126.901 189.313L130.545 187.663L124.209 173.671L120.565 175.321ZM127.893 186.668L124.494 188.219L126.154 191.858L129.553 190.307L127.893 186.668ZM127.135 189.19L125.155 184.966L121.533 186.664L123.513 190.888L127.135 189.19ZM122.851 183.877L107.935 187.672L108.921 191.548L123.837 187.753L122.851 183.877ZM134.819 172.054V170.054H132.819V172.054H134.819ZM134.819 189.412V191.412H136.819V189.412H134.819ZM131.156 189.412H129.156V191.412H131.156V189.412ZM131.156 168.127V166.127H129.156V168.127H131.156ZM138.218 168.127V170.127H140.218V168.127H138.218ZM138.218 165.223V163.223H136.218V165.223H138.218ZM141.914 165.223H143.914V163.223H141.914V165.223ZM141.914 168.127H139.914V170.127H141.914V168.127ZM149.768 168.127H151.768V166.127H149.768V168.127ZM149.768 172.054V174.054H151.768V172.054H149.768ZM148.976 172.054V170.054H146.976V172.054H148.976ZM142.112 189.412L140.166 189.87L140.528 191.412H142.112V189.412ZM141.188 185.485V183.485H138.663L139.242 185.943L141.188 185.485ZM145.313 172.054H147.313V170.054H145.313V172.054ZM132.819 172.054V189.412H136.819V172.054H132.819ZM134.819 187.412H131.156V191.412H134.819V187.412ZM133.156 189.412V168.127H129.156V189.412H133.156ZM131.156 170.127H138.218V166.127H131.156V170.127ZM140.218 168.127V165.223H136.218V168.127H140.218ZM138.218 167.223H141.914V163.223H138.218V167.223ZM139.914 165.223V168.127H143.914V165.223H139.914ZM141.914 170.127H149.768V166.127H141.914V170.127ZM147.768 168.127V172.054H151.768V168.127H147.768ZM149.768 170.054H148.976V174.054H149.768V170.054ZM146.976 172.054V182.251H150.976V172.054H146.976ZM146.976 182.251C146.976 184.447 146.57 185.656 146.017 186.316C145.531 186.895 144.62 187.412 142.607 187.412V191.412C145.281 191.412 147.554 190.707 149.082 188.886C150.541 187.145 150.976 184.774 150.976 182.251H146.976ZM142.607 187.412H142.112V191.412H142.607V187.412ZM144.059 188.954L143.135 185.027L139.242 185.943L140.166 189.87L144.059 188.954ZM141.188 187.485H142.541V183.485H141.188V187.485ZM142.541 187.485C143.91 187.485 145.335 187.144 146.299 185.927C147.168 184.831 147.313 183.428 147.313 182.251H143.313C143.313 182.712 143.279 183.024 143.232 183.231C143.186 183.431 143.143 183.469 143.164 183.443C143.198 183.399 143.232 183.393 143.187 183.41C143.116 183.436 142.926 183.485 142.541 183.485V187.485ZM147.313 182.251V172.054H143.313V182.251H147.313ZM145.313 170.054H134.819V174.054H145.313V170.054ZM170.682 167.401H172.682V165.401H170.682V167.401ZM170.682 189.412V191.412H172.682V189.412H170.682ZM167.019 189.412H165.019V191.412H167.019V189.412ZM167.019 187.828H169.019V185.828H167.019V187.828ZM156.525 187.828V185.828H154.525V187.828H156.525ZM156.525 189.412V191.412H158.525V189.412H156.525ZM152.862 189.412H150.862V191.412H152.862V189.412ZM152.862 167.401V165.401H150.862V167.401H152.862ZM156.525 183.901H154.525V185.901H156.525V183.901ZM167.019 183.901V185.901H169.019V183.901H167.019ZM167.019 171.328H169.019V169.328H167.019V171.328ZM156.525 171.328V169.328H154.525V171.328H156.525ZM168.682 167.401V189.412H172.682V167.401H168.682ZM170.682 187.412H167.019V191.412H170.682V187.412ZM169.019 189.412V187.828H165.019V189.412H169.019ZM167.019 185.828H156.525V189.828H167.019V185.828ZM154.525 187.828V189.412H158.525V187.828H154.525ZM156.525 187.412H152.862V191.412H156.525V187.412ZM154.862 189.412V167.401H150.862V189.412H154.862ZM152.862 169.401H170.682V165.401H152.862V169.401ZM156.525 185.901H167.019V181.901H156.525V185.901ZM169.019 183.901V171.328H165.019V183.901H169.019ZM167.019 169.328H156.525V173.328H167.019V169.328ZM154.525 171.328V183.901H158.525V171.328H154.525ZM193.846 179.116V181.116H195.846V179.116H193.846ZM192.724 179.116V177.116H190.724V179.116H192.724ZM174.739 189.412H172.739V191.412H174.739V189.412ZM174.739 185.485V183.485H172.739V185.485H174.739ZM189.061 179.116H191.061V177.116H189.061V179.116ZM175.96 171.328H177.96V169.328H175.96V171.328ZM173.749 171.328H171.749V173.328H173.749V171.328ZM173.749 167.401V165.401H171.749V167.401H173.749ZM192.856 167.401H194.856V165.401H192.856V167.401ZM192.856 171.328V173.328H194.856V171.328H192.856ZM179.623 171.328V169.328H177.623V171.328H179.623ZM193.846 175.156H195.846V173.156H193.846V175.156ZM193.846 177.116H192.724V181.116H193.846V177.116ZM190.724 179.116V182.251H194.724V179.116H190.724ZM190.724 182.251C190.724 184.447 190.317 185.656 189.764 186.316C189.278 186.895 188.367 187.412 186.355 187.412V191.412C189.028 191.412 191.302 190.707 192.829 188.886C194.289 187.145 194.724 184.774 194.724 182.251H190.724ZM186.355 187.412H174.739V191.412H186.355V187.412ZM176.739 189.412V185.485H172.739V189.412H176.739ZM174.739 187.485H186.289V183.485H174.739V187.485ZM186.289 187.485C187.664 187.485 189.1 187.149 190.065 185.919C190.928 184.819 191.061 183.411 191.061 182.251H187.061C187.061 182.717 187.028 183.033 186.981 183.243C186.936 183.446 186.894 183.481 186.918 183.45C186.957 183.401 186.996 183.392 186.951 183.409C186.879 183.435 186.685 183.485 186.289 183.485V187.485ZM191.061 182.251V179.116H187.061V182.251H191.061ZM189.061 177.116H180.547V181.116H189.061V177.116ZM180.547 177.116C179.457 177.116 178.904 176.806 178.604 176.483C178.282 176.137 177.96 175.464 177.96 174.199H173.96C173.96 176.101 174.446 177.887 175.676 179.208C176.926 180.552 178.666 181.116 180.547 181.116V177.116ZM177.96 174.199V171.328H173.96V174.199H177.96ZM175.96 169.328H173.749V173.328H175.96V169.328ZM175.749 171.328V167.401H171.749V171.328H175.749ZM173.749 169.401H192.856V165.401H173.749V169.401ZM190.856 167.401V171.328H194.856V167.401H190.856ZM192.856 169.328H179.623V173.328H192.856V169.328ZM177.623 171.328V174.199H181.623V171.328H177.623ZM177.623 174.199C177.623 174.618 177.659 175.518 178.322 176.258C179.035 177.056 179.99 177.156 180.547 177.156V173.156C180.378 173.156 180.87 173.108 181.303 173.591C181.502 173.814 181.579 174.035 181.606 174.146C181.63 174.243 181.623 174.279 181.623 174.199H177.623ZM180.547 177.156H193.846V173.156H180.547V177.156ZM191.846 175.156V179.116H195.846V175.156H191.846Z" fill="black" mask="url(#path-2-outside-1_2369_444)"/>
<path fill-rule="evenodd" clip-rule="evenodd" d="M0.516009 76.5122C-0.515191 80.3042 0.108987 83.3426 1.41931 85.7937C2.09773 87.0536 2.92347 88.1799 3.84612 89.2413C4.81142 90.3675 5.83875 91.3277 6.95524 92.3C9.12231 94.1879 12.0841 95.8975 15.0885 97.2871C16.6741 98.0285 18.3488 98.7739 19.9809 99.3006C21.1207 99.6692 22.6791 100.402 23.8227 100.731L25.1912 101.136C24.9314 101.837 23.501 104.215 23.0396 105.029C22.6752 105.71 22.272 106.39 21.9541 107.018C21.6091 107.703 21.2873 108.343 20.9384 108.999C20.2523 110.288 19.5584 111.847 18.973 113.241C16.4105 119.273 14.2589 128.077 20.8105 132.124C20.954 132.217 21.9154 132.74 21.9658 132.809C22.0898 132.971 22.0356 133.202 22.0201 133.449C21.8844 136.22 22.1325 139.104 22.3108 141.81C22.3612 142.54 22.4232 143.629 22.5744 144.274C23.5397 148.284 32.398 151.452 36.8406 152.084C37.6625 152.202 38.465 152.275 39.2558 152.178C40.4033 152.04 40.0389 152.328 41.1632 152.98C42.5665 153.81 44.1831 154.434 45.7997 154.916C49.5368 156.026 55.3712 157.497 58.2438 155.402C59.6007 154.426 63.6324 147.551 64.3845 146.105C64.6791 145.529 64.5978 145.538 65.2452 145.57C67.6332 145.696 69.9941 145.007 71.8937 143.528C73.2931 142.438 73.6033 141.733 74.6423 140.494C76.0611 141.92 75.6424 142.398 78.6895 143.532C83.3842 145.286 88.8968 142.856 90.5057 136.933C91.374 133.736 90.9437 130.236 90.4785 127.672C90.2304 126.322 90.0366 124.957 89.6877 123.641C89.176 121.684 88.7108 119.743 88.1215 117.815C87.4431 115.603 86.6716 113.431 85.8343 111.296C85.7063 110.968 85.6094 110.668 85.466 110.389C85.2993 110.049 85.2373 109.814 85.0628 109.494C84.8806 109.149 84.8341 108.947 84.6596 108.606L83.8029 106.868C83.5935 106.475 82.857 105.6 82.857 105.167C83.6555 105.402 85.8653 105.345 86.6678 105.321C89.0054 105.268 91.3508 105.07 93.5915 104.458C96.72 103.611 99.6973 101.934 101.988 99.5315C103.462 97.9879 104.977 95.541 105.741 92.7294C106.846 88.6579 106.617 85.2305 106.885 81.5763C107.179 77.6709 108.757 74.1746 109.835 70.2004C110.804 66.6393 111.905 62.6529 112.374 59.1404C112.816 55.8386 113.304 50.8596 112.707 47.6429C112.355 45.7226 111.955 44.8881 111.672 43.458C111.579 42.9637 111.498 42.4938 111.401 41.9671C111.312 41.4526 111.285 41.011 111.18 40.5208C111.649 40.3709 112.343 39.9212 112.762 39.589C114.13 38.5316 115.875 38.1387 116.592 35.4972C117.406 32.5034 116.929 29.0638 115.805 26.4467C114.801 24.1173 112.886 21.5447 111.157 19.7257C109.288 17.7608 105.501 16.2416 102.395 16.2781C97.7241 16.3348 97.7783 17.9593 95.398 20.0822C95.1848 19.8837 94.7856 19.6001 94.5142 19.3935C94.2002 19.1666 93.9559 19.0005 93.6496 18.7736C86.7142 13.8311 76.1503 10.3349 67.9123 9.38688C64.7179 9.01821 62.5354 9.00605 59.4805 9.14784C59.1277 9.1681 58.7323 9.26939 58.3485 9.18432C58.4261 8.78324 58.3679 7.91222 58.3485 7.53545C58.2128 4.01085 54.4059 1.47881 51.227 0.538914C46.7456 -0.7899 42.7254 0.486261 39.0116 2.75497C37.0965 3.91768 35.3791 5.56653 34.22 7.60026C32.9601 9.82845 31.9211 13.1424 33.4756 15.5245C33.7431 15.9256 34.8519 17.3962 35.1853 17.5988C34.7899 18.6926 30.8008 22.2739 29.7269 23.7364C28.5523 25.3164 27.5792 27.0828 26.6837 28.9139C25.6719 30.9598 24.7376 32.6087 24.063 34.8693C23.7568 35.8902 23.2567 37.1097 22.9698 38.1954L22.462 40.0671C22.2953 40.7112 22.1053 41.0191 21.9193 41.7321L20.5508 47.092C20.3608 47.7928 20.3686 48.1291 20.1747 48.8056C20.0158 49.3931 19.8646 49.9886 19.7018 50.5842C19.5389 51.1878 19.3413 51.5443 19.1513 52.2452C18.3953 55.1013 16.9765 57.0338 15.6739 59.42C14.1 62.2923 12.999 65.9101 12.8827 69.224C12.8051 71.4117 13.1153 73.0079 13.1075 73.1416C11.6964 71.833 10.2853 71.1443 8.37407 70.5771C6.61793 70.0586 4.51677 70.8243 3.43905 71.675C2.16362 72.6878 1.10918 74.3043 0.508295 76.5122H0.516009Z" fill="white"/>
<path fill-rule="evenodd" clip-rule="evenodd" d="M0.516009 76.5122C-0.515191 80.3042 0.108987 83.3426 1.41931 85.7937C2.09773 87.0536 2.92347 88.1799 3.84612 89.2413C4.81142 90.3675 5.83875 91.3277 6.95524 92.3C9.12231 94.1879 12.0841 95.8975 15.0885 97.2871C16.6741 98.0285 18.3488 98.7739 19.9809 99.3006C21.1207 99.6692 22.6791 100.402 23.8227 100.731L25.1912 101.136C24.9314 101.837 23.501 104.215 23.0396 105.029C22.6752 105.71 22.272 106.39 21.9541 107.018C21.6091 107.703 21.2873 108.343 20.9384 108.999C20.2523 110.288 19.5584 111.847 18.973 113.241C16.4105 119.273 14.2589 128.077 20.8105 132.124C20.954 132.217 21.9154 132.74 21.9658 132.809C22.0898 132.971 22.0356 133.202 22.0201 133.449C21.8844 136.22 22.1325 139.104 22.3108 141.81C22.3612 142.54 22.4232 143.629 22.5744 144.274C23.5397 148.284 32.398 151.452 36.8406 152.084C37.6625 152.202 38.465 152.275 39.2558 152.178C40.4033 152.04 40.0389 152.328 41.1632 152.98C42.5665 153.81 44.1831 154.434 45.7997 154.916C49.5368 156.026 55.3712 157.497 58.2438 155.402C59.6007 154.426 63.6324 147.551 64.3845 146.105C64.6791 145.529 64.5978 145.538 65.2452 145.57C67.6332 145.696 69.9941 145.007 71.8937 143.528C73.2931 142.438 73.6033 141.733 74.6423 140.494C76.0611 141.92 75.6424 142.398 78.6895 143.532C83.3842 145.286 88.8968 142.856 90.5057 136.933C91.374 133.736 90.9437 130.236 90.4785 127.672C90.2304 126.322 90.0366 124.957 89.6877 123.641C89.176 121.684 88.7108 119.743 88.1215 117.815C87.4431 115.603 86.6716 113.431 85.8343 111.296C85.7063 110.968 85.6094 110.668 85.466 110.389C85.2993 110.049 85.2373 109.814 85.0628 109.494C84.8806 109.149 84.8341 108.947 84.6596 108.606L83.8029 106.868C83.5935 106.475 82.857 105.6 82.857 105.167C83.6555 105.402 85.8653 105.345 86.6678 105.321C89.0054 105.268 91.3508 105.07 93.5915 104.458C96.72 103.611 99.6973 101.934 101.988 99.5315C103.462 97.9879 104.977 95.541 105.741 92.7294C106.846 88.6579 106.617 85.2305 106.885 81.5763C107.179 77.6709 108.757 74.1746 109.835 70.2004C110.804 66.6393 111.905 62.6529 112.374 59.1404C112.816 55.8386 113.304 50.8596 112.707 47.6429C112.355 45.7226 111.955 44.8881 111.672 43.458C111.579 42.9637 111.498 42.4938 111.401 41.9671C111.312 41.4526 111.285 41.011 111.18 40.5208C111.649 40.3709 112.343 39.9212 112.762 39.589C114.13 38.5316 115.875 38.1387 116.592 35.4972C117.406 32.5034 116.929 29.0638 115.805 26.4467C114.801 24.1173 112.886 21.5447 111.157 19.7257C109.288 17.7608 105.501 16.2416 102.395 16.2781C97.7241 16.3348 97.7783 17.9593 95.398 20.0822C95.1848 19.8837 94.7856 19.6001 94.5142 19.3935C94.2002 19.1666 93.9559 19.0005 93.6496 18.7736C86.7142 13.8311 76.1503 10.3349 67.9123 9.38688C64.7179 9.01821 62.5354 9.00605 59.4805 9.14784C59.1277 9.1681 58.7323 9.26939 58.3485 9.18432C58.4261 8.78324 58.3679 7.91222 58.3485 7.53545C58.2128 4.01085 54.4059 1.47881 51.227 0.538914C46.7456 -0.7899 42.7254 0.486261 39.0116 2.75497C37.0965 3.91768 35.3791 5.56653 34.22 7.60026C32.9601 9.82845 31.9211 13.1424 33.4756 15.5245C33.7431 15.9256 34.8519 17.3962 35.1853 17.5988C34.7899 18.6926 30.8008 22.2739 29.7269 23.7364C28.5523 25.3164 27.5792 27.0828 26.6837 28.9139C25.6719 30.9598 24.7376 32.6087 24.063 34.8693C23.7568 35.8902 23.2567 37.1097 22.9698 38.1954L22.462 40.0671C22.2953 40.7112 22.1053 41.0191 21.9193 41.7321L20.5508 47.092C20.3608 47.7928 20.3686 48.1291 20.1747 48.8056C20.0158 49.3931 19.8646 49.9886 19.7018 50.5842C19.5389 51.1878 19.3413 51.5443 19.1513 52.2452C18.3953 55.1013 16.9765 57.0338 15.6739 59.42C14.1 62.2923 12.999 65.9101 12.8827 69.224C12.8051 71.4117 13.1153 73.0079 13.1075 73.1416C11.6964 71.833 10.2853 71.1443 8.37407 70.5771C6.61793 70.0586 4.51677 70.8243 3.43905 71.675C2.16362 72.6878 1.10918 74.3043 0.508295 76.5122H0.516009ZM56.2396 9.52866C55.8403 9.50436 51.4829 10.5253 51.0952 10.6387C49.215 11.1694 48.2304 11.3558 46.1873 12.0445C45.1174 12.401 42.6324 13.4381 41.5431 14.0782L40.4227 14.6575C39.659 15.0627 37.7323 16.3388 36.9724 16.112C36.1738 15.8729 34.9139 13.5313 35.1426 12.6846C35.5148 11.3112 35.8908 9.82441 36.5886 8.67385C37.7245 6.80217 39.7908 5.14115 41.6516 4.21341C44.6289 2.72255 47.9784 2.2607 51.3123 3.25326C53.115 3.78803 55.0146 4.97505 55.7705 6.42135C56.3288 7.51114 56.2861 8.31733 56.2357 9.52461L56.2396 9.52866ZM110.424 37.9037C109.854 37.7335 109.377 36.9395 109.098 36.4331L106.865 32.4912C105.974 30.8059 104.342 28.6223 102.993 27.338L101.046 25.4744C99.9958 24.4778 99.1933 23.5258 98.2746 22.598C97.9683 22.2982 97.6272 21.8769 97.3519 21.723C97.5651 20.937 98.1582 20.1794 98.6002 19.7581C100.74 17.7284 105.365 18.9316 107.745 20.3739C109.936 21.7068 111.886 24.2064 113.099 26.4629C114.487 29.0233 114.863 32.0577 114.033 35.1205C113.522 37.0124 111.072 38.0901 110.432 37.8997L110.424 37.9037ZM3.50109 77.3995C3.9818 75.6331 5.00912 73.8546 6.50553 73.652C9.52935 73.2307 13.3711 77.8978 15.6816 79.8059L19.0079 82.7228C19.6204 83.217 20.1554 83.6546 20.7058 84.1407C22.7062 85.8747 30.51 90.6471 32.6267 91.6396C33.3477 91.9799 34.2432 91.903 34.5417 91.0157C34.8325 90.169 34.2743 89.5451 33.6075 89.1927C30.8046 87.7059 28.0289 86.0529 25.4238 84.3068C21.8029 81.8518 17.7014 78.315 16.2631 73.9235C16.1352 73.5224 16.0964 73.2915 15.9879 72.8863C15.4529 70.7554 15.6584 67.8101 16.2787 65.5252C17.1044 62.4827 18.1395 61.5226 19.4924 59.0634C21.803 54.8339 22.8962 50.9974 23.7878 46.3222C24.222 44.0657 24.8888 41.6066 25.5091 39.3338C26.8155 34.5249 30.1882 27.6621 33.3826 24.016C33.8013 23.5379 34.2045 23.068 34.6581 22.6507C36.4375 21.0302 38.2983 19.4867 40.3568 18.2956L41.892 17.4003L44.2373 16.1768C45.5205 15.48 46.9588 14.929 48.3428 14.4712C48.9669 14.2605 49.4128 14.1147 50.0834 13.981C51.6457 13.665 55.9101 12.8467 57.4142 12.6806C58.0616 12.6036 58.6083 12.4942 59.2789 12.4253C62.6129 12.0648 66.036 12.2187 69.4126 12.6117C75.3478 13.3044 81.9149 15.2531 87.1407 18.3159L90.6607 20.4509C93.5566 22.3266 97.6465 25.9363 100.007 28.4724C101.019 29.5703 102.043 30.737 102.923 31.9524L104.384 34.1684C104.586 34.4885 104.667 34.5857 104.861 34.9341C105.004 35.2137 105.125 35.4689 105.287 35.7363C105.757 36.4979 106.23 37.2798 106.575 38.1306C106.687 38.4141 106.838 38.6532 106.993 38.9287C107.164 39.2487 107.191 39.4027 107.338 39.7065C110.06 45.5849 109.854 48.7813 109.583 54.9473C109.401 59.0837 109.323 60.9068 108.156 65.2092C107.637 67.1214 107.102 68.7662 106.602 70.6095C106.113 72.4123 105.505 73.9478 105.001 75.8073C104.055 79.2914 103.911 80.8065 103.807 84.2177C103.702 87.7139 103.558 89.2696 102.628 92.6849C101.322 97.4937 97.0689 100.621 92.8627 101.78C92.2424 101.95 91.5524 102.189 90.9088 102.278C85.6676 103.048 81.3024 102.051 76.0689 101.59C75.2548 101.513 74.6035 101.901 74.7004 102.821C74.8555 104.34 76.1464 104.413 77.3094 104.579C77.7475 104.648 78.1584 104.705 78.6198 104.762C79.0035 104.802 79.5502 104.77 79.837 105.061C80.2906 105.515 81.5273 107.606 81.8064 108.262L83.3299 111.641C85.2682 116.344 86.8616 121.299 87.7726 126.339C88.1797 128.607 88.5518 131.071 88.3154 133.441C88.2146 134.47 87.7067 136.56 87.2182 137.512C86.6871 138.557 85.9583 139.513 85.0202 140.117C83.9308 140.802 82.3724 141.353 80.7558 140.98C78.6508 140.502 77.6195 140.068 76.9915 138.391C76.1813 136.191 76.9915 135.28 77.4529 133.185C78.7128 127.376 78.5073 121.372 78.1313 115.493C77.9917 113.265 75.7122 113.18 75.2586 114.849C75.1656 115.186 75.4951 118.653 75.53 119.338C75.7316 123.973 75.6269 129.065 74.3166 133.886C72.9597 138.889 70.3818 142.884 65.0009 142.604C63.2215 142.503 63.0781 142.345 62.2756 143.941C61.3917 145.7 60.314 147.551 59.2595 149.155C58.8215 149.824 58.4222 150.444 57.9803 151.047C56.7048 152.785 56.8017 153.344 54.6695 153.446C53.9446 153.478 53.1499 153.409 52.3202 153.328C49.9361 153.118 46.7262 152.259 44.3885 151.254L42.0625 150.067C42.551 148.264 43.0356 146.445 43.5357 144.642C43.6946 144.055 43.652 143.848 43.8032 143.289C43.9117 142.896 44.1017 142.329 44.1637 141.956C44.4235 140.271 42.0199 139.659 41.4229 141.235C40.5545 143.561 39.8334 146.761 39.1667 149.208C38.9224 149.196 38.8798 149.236 38.6704 149.236C37.4609 149.261 36.4025 149.042 35.1659 148.694C34.689 148.552 34.5883 148.625 34.1192 148.487C33.6307 148.353 33.5532 148.228 33.1267 148.09C31.1574 147.442 29.2074 146.615 27.4862 145.534C25.1563 144.063 25.3307 143.816 25.1098 141.158L24.8345 135.559C24.7686 132.667 25.6021 130.973 23.7839 130.329C13.4991 126.687 23.5785 110.105 26.8116 104.194C27.7924 102.412 28.9864 100.937 28.5755 99.4586C28.4863 99.1223 28.2615 98.859 27.9242 98.6443C27.556 98.4214 25.9588 98.1014 25.3152 97.911C24.7531 97.753 24.6135 97.6112 24.0747 97.437C23.6172 97.2992 23.1637 97.1777 22.7024 97.04C21.9309 96.8131 21.0276 96.3674 20.291 96.1284C18.6395 95.5977 17.085 94.8158 15.5847 94.0785C14.1387 93.3695 12.7547 92.5431 11.5413 91.7166C9.00211 89.9989 6.88931 88.1272 5.13704 85.9476C4.25316 84.8538 3.64063 83.606 3.38089 82.1799C3.14829 80.8754 3.02425 79.1091 3.48945 77.3995H3.50109Z" fill="black"/>
<path fill-rule="evenodd" clip-rule="evenodd" d="M40.3608 59.9506C40.1631 58.8487 40.4383 57.8359 41.0857 56.9649C43.311 53.971 48.6995 56.2275 47.521 60.5664C46.3968 64.7068 41.0431 63.7426 40.3608 59.9506Z" fill="black"/>
<path fill-rule="evenodd" clip-rule="evenodd" d="M81.1202 67.4171C82.9229 66.7041 84.8884 67.0404 85.9196 68.9566C86.2879 69.6413 86.5631 70.565 86.284 71.5899C85.6831 73.8019 83.3493 75.1388 81.9382 74.7216C79.8254 74.0936 78.6314 71.991 79.1354 70.1436C79.4649 68.9323 79.9766 67.8749 81.1202 67.4212V67.4171Z" fill="black"/>
<path fill-rule="evenodd" clip-rule="evenodd" d="M60.8801 65.4644C61.2018 65.3145 61.4383 65.1201 61.7562 64.9621C62.1012 64.7879 62.2524 64.7514 62.6052 64.5407C63.2952 64.1234 63.4193 64.2328 64.1287 64.4394C64.7684 64.6298 65.1212 65.2983 65.4817 65.9708L67.5363 69.4144C67.7612 69.7993 68.3427 70.9255 68.2341 71.3266C68.0597 71.9748 66.7068 72.8337 65.9275 71.6223L64.528 68.7702C64.3303 68.28 63.6519 66.8905 63.2216 66.7649C62.5974 66.5785 59.7597 68.5028 59.1006 68.9728C57.0848 70.411 56.5498 68.6446 56.7242 68.0086C56.8909 67.4009 60.0582 65.8493 60.884 65.4644H60.8801Z" fill="black"/>
</svg>
