<svg width="199" height="109" viewBox="0 0 199 109" fill="none" xmlns="http://www.w3.org/2000/svg">
<path d="M197.97 78.8155C196.614 73.455 192.068 70.8207 187.729 70.7736C186.097 70.7467 184.513 71.0092 182.988 71.6218C182.81 71.6958 182.615 71.7317 182.429 71.7923C182.299 71.5971 182.205 71.449 182.102 71.3009C180.051 68.4086 177.3 66.5866 173.928 65.7205C171.872 65.1909 169.799 65.1819 167.737 65.6733C165.699 66.1468 163.865 67.0556 162.29 68.4737C162.147 68.6038 162.042 68.8372 161.741 68.716C161.735 68.5859 161.726 68.4423 161.71 68.2964C161.638 67.547 161.621 66.7975 161.469 66.0615C161.072 64.1588 160.232 62.4512 159.047 60.9164C157.334 58.677 155.175 56.9964 152.67 55.7825C149.71 54.3442 146.591 53.6104 143.309 53.6059C140.365 53.5902 137.533 54.1579 134.856 55.4392C132.55 56.5364 130.602 58.0802 129.181 60.2747C129.1 60.3936 128.994 60.4968 128.906 60.6135C128.838 60.5439 128.781 60.508 128.755 60.4609C128.691 60.3263 128.63 60.1939 128.575 60.0593C128.042 58.8431 127.362 57.7256 126.531 56.7069C124.291 53.9717 121.485 52.0465 118.229 50.8258C113.405 49.0173 108.48 48.8176 103.511 50.0831C101.039 50.7114 98.7285 51.7189 96.6531 53.2559C96.5478 53.3434 96.4162 53.4063 96.3021 53.4781C96.2582 53.4085 96.2253 53.3861 96.2253 53.3614C96.2692 53.1572 96.3131 52.9597 96.3657 52.7533C97.1424 50.0697 97.1358 47.3591 96.5588 44.6485C95.8941 41.5071 94.4813 38.7225 92.4498 36.2924C90.5258 33.9925 88.1982 32.249 85.4318 31.1563C83.1678 30.2588 80.8446 29.9154 78.4336 30.3552C77.9158 30.4495 77.4091 30.5841 76.8167 30.7165C76.4723 29.5071 75.9524 28.4031 75.2328 27.418C74.4957 26.3926 73.6226 25.504 72.5739 24.8197C71.5472 24.142 70.4459 23.6955 69.2459 23.442C68.0284 23.1884 66.813 23.2265 65.5932 23.4756C65.4155 23.1211 65.4748 22.7778 65.466 22.4636C65.3738 19.2325 64.6587 16.1584 63.3643 13.2212C62.2411 10.6722 60.6945 8.4239 58.5621 6.64453C56.9869 5.3431 55.2472 4.37601 53.2399 3.97436C50.5832 3.44032 48.1678 3.95192 46.0508 5.73353C45.9674 5.80309 45.8599 5.84124 45.7524 5.90407C45.6186 5.78963 45.5111 5.69988 45.4036 5.59217C43.5872 3.93397 41.5403 2.67517 39.2807 1.7552C36.6986 0.698347 34.009 0.141874 31.2251 0.0207063C28.8623 -0.0780229 26.5413 0.177775 24.2466 0.756687C20.2516 1.77988 16.6604 3.63105 13.4311 6.20698C8.36779 10.2392 4.75898 15.3686 2.40502 21.4449C1.05583 24.9386 0.266062 28.5602 0.0554564 32.3029C-0.111273 35.1616 0.101526 37.9978 0.64559 40.8138C1.35419 44.4713 2.61343 47.9021 4.59005 51.0502C4.68439 51.1983 4.77214 51.3554 4.86867 51.5192C4.81602 51.692 4.76995 51.8737 4.70852 52.0375C3.5107 55.2619 3.10265 58.6052 3.29132 62.0338C3.50412 65.7272 4.41016 69.2523 5.89537 72.6293C7.58021 76.4887 9.91223 79.8836 13.034 82.6727C15.4494 84.8403 18.1653 86.4715 21.2761 87.3511C24.9661 88.399 28.5881 88.2464 32.107 86.6107C32.4777 86.4446 32.8463 86.2516 33.2631 86.043C33.3903 86.3436 33.5088 86.6039 33.6251 86.8709C34.9172 89.7835 38.1816 91.4215 41.2288 90.7191C42.7294 90.3646 44.0259 89.6578 45.1031 88.5291C45.2084 88.417 45.2917 88.2105 45.5747 88.3227C45.5901 88.4686 45.6164 88.6369 45.6406 88.8119C45.6954 89.2225 45.7195 89.6488 45.7963 90.0572C46.4128 93.6384 47.955 96.7618 50.3353 99.4567C52.3865 101.775 54.8216 103.592 57.542 105.003C62.1862 107.413 67.1486 108.47 72.3326 108.477C75.2438 108.477 78.1308 108.158 80.974 107.483C85.4252 106.424 89.5408 104.6 93.3032 101.923C97.116 99.2009 100.058 95.7296 101.912 91.3317C101.969 91.2061 102.056 91.0894 102.173 90.8964C102.285 91.2218 102.361 91.4349 102.429 91.6593C103.68 95.9563 106.183 99.2996 109.869 101.701C113.192 103.87 116.88 104.864 120.8 104.952C123.279 105.003 125.725 104.723 128.106 103.994C134.977 101.896 140.323 97.8635 143.579 91.1859C143.636 91.0692 143.732 90.9592 143.842 90.7977C143.93 90.9615 144.006 91.0557 144.037 91.1657C144.715 93.2794 145.966 94.9959 147.536 96.4903C149.149 98.0161 150.992 99.1717 153.032 99.9997C156.27 101.326 159.64 101.867 163.119 101.683C165.596 101.555 168.007 101.083 170.312 100.116C172.995 98.9989 175.345 97.4058 177.028 94.9286C177.065 94.877 177.118 94.8501 177.179 94.8074C177.894 95.1619 178.541 95.5299 179.219 95.797C182.106 96.9323 185.033 96.9099 187.918 95.8441C192.856 94.0041 196.234 90.5553 197.823 85.381C198.487 83.2225 198.547 81.0168 197.981 78.8088L197.97 78.8155ZM195.673 85.0669C194.497 88.7042 192.15 91.325 188.843 93.0617C187.207 93.9256 185.452 94.3901 183.613 94.4731C181.657 94.5628 179.82 94.1432 178.107 93.1806C178.059 93.1515 178.024 93.1043 177.964 93.0438C178.059 92.5927 178.182 92.1238 178.236 91.6526C178.287 91.2689 178.272 90.874 178.252 90.4948C178.232 90.2704 178.087 90.0998 177.857 90.0639C177.627 90.037 177.458 90.1514 177.359 90.3601C177.267 90.5441 177.181 90.7348 177.107 90.9323C176.003 93.8762 174.016 95.9922 171.275 97.3878C169.391 98.346 167.397 98.9159 165.315 99.1897C161.206 99.7349 157.237 99.2211 153.387 97.6795C151.882 97.0715 150.454 96.3041 149.157 95.3033C147.727 94.2038 146.54 92.8889 145.759 91.2352C145.283 90.2188 144.987 89.1597 144.965 88.0288C144.959 87.7864 144.963 87.5441 144.996 87.3062C145.18 86.1866 145.371 85.0669 145.56 83.9068C145.775 83.7722 146.04 83.8709 146.295 83.8889C149.313 84.102 151.81 83.0362 153.76 80.6645C153.872 80.5276 153.973 80.3683 154.052 80.2112C154.08 80.1439 154.043 80.0497 154.039 79.9779C153.817 79.8522 153.683 79.998 153.563 80.1102C152.584 81.0325 151.422 81.6024 150.147 81.8784C147.808 82.3855 145.531 82.2419 143.405 80.9988C142.227 80.3144 141.284 79.3989 140.676 78.1379C140.578 77.9247 140.463 77.7138 140.31 77.5276C140.233 77.4356 140.047 77.357 139.939 77.3862C139.829 77.4176 139.698 77.5949 139.696 77.7004C139.693 78.0885 139.691 78.4857 139.783 78.8604C140.049 79.9285 140.588 80.844 141.352 81.6271C141.982 82.2778 142.706 82.7714 143.524 83.1439C143.783 83.2584 144.05 83.3795 144.318 83.5029C144.325 83.6331 144.346 83.7206 144.327 83.8014C143.704 87.6967 142.137 91.1298 139.579 94.0871C136.128 98.0902 131.859 100.709 126.781 101.86C122.318 102.872 117.913 102.632 113.64 100.873C111.575 100.02 109.713 98.8419 108.063 97.3116C105.67 95.0946 104.07 92.3796 103.285 89.1799C103.184 88.7737 103.129 88.3564 103.052 87.9884C103.228 87.7101 103.454 87.7954 103.643 87.7999C106.205 87.9031 108.59 87.2636 110.832 86.0317C111.584 85.6234 112.277 85.114 112.874 84.4902C113.24 84.1133 113.262 84.0639 113.442 83.4468C113.26 83.4491 113.085 83.4109 112.944 83.4603C112.556 83.6039 112.179 83.7789 111.808 83.9472C110.52 84.5486 109.228 85.1006 107.846 85.4237C103.728 86.3751 99.9241 85.6638 96.4403 83.2023C95.7559 82.7153 95.1855 82.1185 94.6963 81.4341C94.5756 81.2636 94.4637 81.0841 94.3211 80.9382C94.1281 80.7318 93.8648 80.7138 93.6849 80.8619C93.4809 81.028 93.4151 81.2568 93.5072 81.5037C93.5445 81.6159 93.6059 81.7236 93.6586 81.8268C95.2535 84.6316 97.489 86.5748 100.604 87.3893C100.852 87.4476 101.096 87.5306 101.385 87.6181C101.311 87.8582 101.26 88.0624 101.19 88.2532C100.038 91.1836 98.395 93.7887 96.2253 96.0505C92.5134 99.8987 88.0929 102.511 83.0603 104.097C79.6468 105.176 76.141 105.753 72.5739 105.755C67.2408 105.755 62.1292 104.734 57.3599 102.201C54.7756 100.83 52.5159 99.0416 50.6271 96.7641C48.7711 94.5337 47.4373 92.0206 46.8493 89.1327C46.687 88.3496 46.6256 87.5351 46.5576 86.7296C46.5356 86.4715 46.6234 86.2 46.6804 85.9375C46.7616 85.5516 46.8691 85.1813 46.9415 84.7976C46.9722 84.6249 46.97 84.4409 46.9283 84.2636C46.8757 84.0235 46.7309 83.8305 46.4588 83.7879C46.2022 83.7385 46.0025 83.8395 45.849 84.0504C45.7832 84.1424 45.7349 84.2591 45.6932 84.3668C45.623 84.5329 45.5704 84.7056 45.5089 84.8784C44.5173 87.8178 41.2617 89.1956 38.6533 88.5134C36.0514 87.8223 34.4829 85.4865 34.8207 82.7468C34.869 82.3384 34.9743 81.9278 35.062 81.5194C35.0905 81.3399 35.1542 81.1671 35.1739 80.9876C35.1937 80.7767 35.1827 80.559 34.9545 80.4491C34.7264 80.3414 34.5443 80.4737 34.4017 80.6196C34.2218 80.8081 34.0529 81.0212 33.9147 81.2456C33.3838 82.1028 33.1359 83.0542 33.0722 84.0549C33.0613 84.2658 33.0635 84.4768 33.0635 84.7348C32.8945 84.8246 32.7344 84.948 32.5567 85.031C30.8368 85.8186 29.0269 86.1417 27.1555 86.1036C23.6082 86.043 20.4447 84.7774 17.5247 82.7916C14.9843 81.0527 12.8541 78.8784 11.0596 76.3518C8.63763 72.9142 7.00543 69.1334 6.19592 64.971C5.52242 61.5065 5.45003 58.0555 6.1674 54.5977C6.77947 51.6493 7.95097 48.95 9.6753 46.5042C9.89468 46.1923 10.1228 45.8714 10.3181 45.5371C10.4058 45.4025 10.419 45.2162 10.4914 44.9694C10.2479 45.0075 10.0482 44.9873 9.92758 45.0749C9.47127 45.3935 8.99741 45.7121 8.59156 46.0823C7.73378 46.8677 6.99227 47.7607 6.34949 48.7458C6.21128 48.9567 6.04894 49.1609 5.85807 49.4369C5.71986 49.2192 5.61676 49.0779 5.53778 48.9298C4.22588 46.392 3.30229 43.7173 2.76042 40.9013C0.779412 30.5594 4.1118 17.8481 12.7949 9.60865C16.0505 6.51439 19.7602 4.22791 24.0338 2.94444C26.5084 2.20172 29.0291 1.82924 31.6046 1.90778C35.3055 2.02446 38.7674 3.08804 41.9879 4.95716C43.3941 5.77392 44.7192 6.71634 46.0179 7.70139C46.4632 8.04021 46.9108 8.37903 47.3715 8.70663C47.4702 8.78292 47.615 8.80536 47.8168 8.88389C47.8015 8.33415 47.4856 8.04469 47.2618 7.71036C47.0292 7.36705 46.7748 7.05067 46.4918 6.67146C46.676 6.57273 46.8208 6.474 46.9766 6.42464C49.7145 5.43959 52.3492 5.70885 54.8655 7.15838C56.1884 7.91455 57.3138 8.92652 58.3032 10.0843C60.644 12.7972 62.1709 15.9385 62.9914 19.4434C63.3117 20.792 63.5289 22.1562 63.621 23.5339L63.6561 24.1622C63.3972 24.3305 63.1822 24.4719 62.9607 24.6222C61.9603 25.2797 61.1288 26.1211 60.5146 27.1667C59.8279 28.3223 59.4769 29.5811 59.5756 30.9431L59.5954 31.3066C59.5954 31.3313 59.5756 31.365 59.5559 31.4547C59.4352 31.4121 59.308 31.3964 59.1939 31.338C58.6586 31.0935 58.1496 30.7748 57.5946 30.5886C56.0129 30.0478 54.4246 30.0523 52.8823 30.7883C52.5971 30.9252 52.3492 31.1518 52.1079 31.3582C51.9807 31.4704 52.0904 31.7711 52.2659 31.7778C52.5511 31.7935 52.8428 31.7846 53.1346 31.7442C54.7536 31.5377 56.2871 31.7891 57.7306 32.5946C58.5555 33.0568 59.2992 33.6447 59.9639 34.3358C61.6005 36.0367 62.6952 38.0696 63.4367 40.3269C63.5398 40.6365 63.6385 40.9552 63.7877 41.2446C63.8316 41.3389 64.0268 41.4017 64.1519 41.3927C64.2221 41.3882 64.3318 41.2289 64.3515 41.1212C64.3713 40.917 64.3691 40.7083 64.3406 40.4997C63.9983 38.018 63.2129 35.718 61.7168 33.7075C61.3833 33.2565 60.9731 32.8594 60.5935 32.4443C60.4575 32.2894 60.3083 32.1526 60.157 32C60.3127 31.4009 60.4553 30.8175 60.6374 30.2475C61.5149 27.5011 63.6056 25.8182 66.4356 25.6387C69.2108 25.4614 71.6284 26.3971 73.695 28.2774C74.5615 29.0695 75.1516 30.0142 75.6211 31.2169C75.4149 31.3493 75.2021 31.4996 74.9805 31.6342C72.8898 32.8953 71.3673 34.6679 70.4503 36.9701C70.2419 37.4929 70.0839 38.0516 69.9633 38.6014C69.8997 38.8886 69.9413 39.1937 69.9633 39.4922C69.9808 39.6605 70.277 39.7412 70.3889 39.6044C70.5381 39.4249 70.6763 39.2319 70.7925 39.0232C71.0953 38.4802 71.3564 37.9058 71.6745 37.3695C72.767 35.5093 74.239 34.089 76.2091 33.2543C78.0716 32.4577 80.0087 32.2737 81.9963 32.6036C85.094 33.1129 87.6717 34.6387 89.883 36.8579C92.4959 39.4742 94.1895 42.6223 94.9464 46.2686C95.4531 48.7166 95.3763 51.1646 94.558 53.5499C94.2663 54.4092 93.8582 55.2013 93.4019 55.971C93.2198 56.2739 93.1123 56.6194 92.9566 56.9358C92.8293 57.2096 92.7021 57.4766 92.5485 57.7279C91.6886 59.1864 91.1006 60.7414 90.879 62.4377C90.7869 63.1872 90.8198 63.9299 90.9317 64.6771C90.9558 64.8207 91.0107 64.971 91.105 65.0787C91.1467 65.1326 91.3463 65.1371 91.3814 65.0877C91.4692 64.9778 91.5262 64.8274 91.5569 64.6883C91.6381 64.3024 91.6886 63.9209 91.7631 63.535C92.2918 60.8087 93.6235 58.5626 95.644 56.7384C97.5197 55.0443 99.6784 53.8505 102.03 53.0181C104.893 51.9949 107.839 51.5977 110.867 51.7211C113.951 51.849 116.909 52.5199 119.732 53.7899C121.412 54.5506 122.961 55.5132 124.313 56.7855C125.631 58.0196 126.66 59.4579 127.393 61.1318C127.584 61.5649 127.827 61.9733 128.075 62.4512C128.016 62.6486 127.95 62.9112 127.869 63.167C127.568 64.1789 127.428 65.2156 127.408 66.268C127.384 67.1184 127.524 67.9441 127.845 68.7272C127.926 68.9247 128.031 69.0975 128.257 69.1648C128.507 68.9561 128.492 68.6823 128.501 68.4153C128.516 67.8162 128.52 67.2171 128.544 66.6158C128.643 64.3921 129.512 62.4983 130.931 60.8446C132.513 58.9889 134.503 57.7481 136.76 56.9538C139.002 56.1594 141.31 55.8318 143.691 55.9463C146.205 56.0675 148.631 56.5746 150.965 57.5641C152.959 58.4123 154.771 59.5611 156.351 61.0802C157.781 62.4624 158.898 64.0645 159.596 65.9493C160.015 67.0915 160.199 68.2605 160.201 69.4744C160.208 69.894 160.271 70.3046 160.326 70.8589C160.263 70.9913 160.127 71.2583 159.999 71.5343C159.433 72.7415 159.131 74.0115 159.19 75.36C159.21 75.7146 159.278 76.0758 159.359 76.4259C159.372 76.5134 159.503 76.6278 159.6 76.639C159.679 76.6435 159.824 76.5448 159.859 76.455C159.936 76.2733 159.98 76.0601 160.015 75.8559C160.519 72.8245 162.189 70.6637 164.791 69.2186C166.388 68.3323 168.119 67.8858 169.922 67.7399C171.986 67.5716 174.029 67.7444 176.01 68.3906C177.71 68.9471 179.246 69.8065 180.549 71.0653C180.908 71.4176 181.238 71.7856 181.525 72.2635C181.266 72.4318 181.042 72.5664 180.829 72.7235C180.435 73.0287 180.042 73.3428 179.656 73.6659C179.55 73.7602 179.447 73.897 179.526 74.0608C179.605 74.2179 179.765 74.2179 179.912 74.1753C180.215 74.0698 180.527 73.9688 180.821 73.8477C181.749 73.455 182.688 73.1162 183.664 72.8985C185.908 72.4049 188.15 72.3465 190.348 73.1588C193.224 74.2224 195.124 76.2576 195.918 79.2935C196.421 81.2299 196.291 83.1731 195.675 85.0624L195.673 85.0669Z" fill="#00183A"/>
<path d="M195.673 85.0669C194.497 88.7042 192.15 91.325 188.844 93.0617C187.207 93.9256 185.452 94.3901 183.614 94.4731C181.657 94.5628 179.821 94.1432 178.107 93.1806C178.059 93.1515 178.024 93.1043 177.965 93.0438C178.059 92.5927 178.182 92.1238 178.237 91.6526C178.287 91.2689 178.272 90.874 178.252 90.4948C178.232 90.2704 178.088 90.0998 177.857 90.0639C177.627 90.037 177.458 90.1514 177.359 90.3601C177.267 90.5441 177.181 90.7348 177.107 90.9323C176.003 93.8762 174.016 95.9922 171.276 97.3878C169.391 98.346 167.397 98.9159 165.315 99.1896C161.206 99.7349 157.238 99.2211 153.387 97.6795C151.883 97.0715 150.454 96.3041 149.158 95.3033C147.727 94.2038 146.541 92.8889 145.76 91.2352C145.284 90.2188 144.987 89.1597 144.965 88.0288C144.959 87.7864 144.963 87.5441 144.996 87.3062C145.18 86.1866 145.371 85.0669 145.56 83.9068C145.775 83.7722 146.04 83.8709 146.295 83.8889C149.314 84.102 151.81 83.0362 153.76 80.6645C153.872 80.5276 153.973 80.3683 154.052 80.2112C154.081 80.1439 154.043 80.0497 154.039 79.9779C153.817 79.8522 153.684 79.998 153.563 80.1102C152.585 81.0325 151.422 81.6024 150.147 81.8784C147.809 82.3855 145.531 82.2419 143.406 80.9988C142.228 80.3144 141.284 79.3989 140.677 78.1379C140.578 77.9247 140.464 77.7138 140.31 77.5276C140.233 77.4356 140.047 77.357 139.939 77.3862C139.83 77.4176 139.698 77.5949 139.696 77.7004C139.694 78.0885 139.692 78.4857 139.784 78.8604C140.049 79.9285 140.589 80.844 141.352 81.6271C141.982 82.2778 142.706 82.7714 143.524 83.1439C143.783 83.2584 144.051 83.3795 144.318 83.5029C144.325 83.6331 144.347 83.7206 144.327 83.8014C143.704 87.6967 142.138 91.1298 139.58 94.0871C136.129 98.0902 131.86 100.709 126.781 101.86C122.319 102.872 117.914 102.632 113.64 100.873C111.576 100.02 109.713 98.8418 108.063 97.3115C105.67 95.0946 104.071 92.3796 103.285 89.1799C103.184 88.7737 103.13 88.3564 103.053 87.9884C103.228 87.7101 103.454 87.7954 103.643 87.7999C106.205 87.9031 108.59 87.2636 110.832 86.0317C111.584 85.6234 112.278 85.114 112.874 84.4902C113.241 84.1133 113.263 84.0639 113.443 83.4468C113.261 83.4491 113.085 83.4109 112.945 83.4603C112.556 83.6039 112.179 83.7789 111.808 83.9472C110.52 84.5486 109.228 85.1006 107.846 85.4237C103.728 86.3751 99.9244 85.6638 96.4406 83.2023C95.7562 82.7153 95.1858 82.1185 94.6966 81.4341C94.5759 81.2636 94.464 81.0841 94.3214 80.9382C94.1284 80.7318 93.8651 80.7138 93.6852 80.8619C93.4812 81.028 93.4154 81.2568 93.5075 81.5037C93.5448 81.6159 93.6062 81.7236 93.6589 81.8268C95.2538 84.6316 97.4893 86.5748 100.604 87.3893C100.852 87.4476 101.096 87.5306 101.385 87.6181C101.311 87.8582 101.26 88.0624 101.19 88.2531C100.038 91.1836 98.3953 93.7887 96.2256 96.0505C92.5137 99.8987 88.0932 102.511 83.0606 104.097C79.6471 105.176 76.1414 105.753 72.5742 105.755C67.2411 105.755 62.1295 104.734 57.3602 102.201C54.7759 100.83 52.5163 99.0415 50.6274 96.764C48.7714 94.5337 47.4376 92.0206 46.8497 89.1327C46.6873 88.3496 46.6259 87.5351 46.5579 86.7296C46.5359 86.4715 46.6237 86.2 46.6807 85.9375C46.7619 85.5516 46.8694 85.1813 46.9418 84.7976C46.9725 84.6249 46.9703 84.4409 46.9286 84.2636C46.876 84.0235 46.7312 83.8305 46.4592 83.7879C46.2025 83.7385 46.0028 83.8395 45.8493 84.0504C45.7835 84.1424 45.7352 84.2591 45.6935 84.3668C45.6233 84.5329 45.5707 84.7056 45.5092 84.8784C44.5176 87.8178 41.262 89.1956 38.6536 88.5134C36.0517 87.8223 34.4832 85.4865 34.821 82.7468C34.8693 82.3384 34.9746 81.9278 35.0623 81.5194C35.0909 81.3399 35.1545 81.1671 35.1742 80.9876C35.194 80.7767 35.183 80.559 34.9548 80.4491C34.7267 80.3414 34.5446 80.4737 34.402 80.6196C34.2221 80.8081 34.0532 81.0212 33.915 81.2456C33.3841 82.1028 33.1362 83.0542 33.0725 84.0549C33.0616 84.2658 33.0638 84.4768 33.0638 84.7348C32.8949 84.8246 32.7347 84.948 32.557 85.031C30.8371 85.8186 29.0272 86.1417 27.1559 86.1035C23.6085 86.043 20.445 84.7774 17.525 82.7916C14.9846 81.0527 12.8544 78.8784 11.0599 76.3518C8.63793 72.9142 7.00574 69.1334 6.19623 64.971C5.52273 61.5065 5.45033 58.0555 6.16771 54.5977C6.77978 51.6493 7.95127 48.95 9.6756 46.5042C9.89499 46.1923 10.1231 45.8714 10.3184 45.5371C10.4061 45.4025 10.4193 45.2162 10.4917 44.9694C10.2482 45.0075 10.0486 44.9873 9.92789 45.0749C9.47158 45.3935 8.99772 45.7121 8.59186 46.0823C7.73409 46.8677 6.99258 47.7607 6.34979 48.7458C6.21158 48.9567 6.04924 49.1609 5.85838 49.4369C5.72017 49.2192 5.61706 49.0779 5.53809 48.9298C4.22619 46.392 3.3026 43.7173 2.76073 40.9013C0.779721 30.5594 4.11211 17.8481 12.7952 9.60866C16.0508 6.5144 19.7605 4.22792 24.0341 2.94444C26.5087 2.20173 29.0294 1.82925 31.6049 1.90779C35.3058 2.02447 38.7677 3.08805 41.9882 4.95717C43.3944 5.77393 44.7195 6.71634 46.0182 7.70139C46.4635 8.04021 46.9111 8.37903 47.3718 8.70663C47.4705 8.78292 47.6153 8.80536 47.8171 8.8839C47.8018 8.33416 47.4859 8.0447 47.2621 7.71037C47.0295 7.36706 46.7751 7.05068 46.4921 6.67147C46.6763 6.57274 46.8211 6.47401 46.9769 6.42464C49.7148 5.4396 52.3495 5.70886 54.8658 7.15838C56.1887 7.91456 57.3141 8.92653 58.3035 10.0844C60.6443 12.7972 62.1712 15.9385 62.9917 19.4434C63.312 20.792 63.5292 22.1562 63.6213 23.534L63.6564 24.1622C63.3975 24.3305 63.1825 24.4719 62.961 24.6222C61.9606 25.2797 61.1291 26.1211 60.5149 27.1667C59.8282 28.3223 59.4772 29.5811 59.5759 30.9431L59.5957 31.3066C59.5957 31.3313 59.5759 31.365 59.5562 31.4547C59.4355 31.4121 59.3083 31.3964 59.1942 31.338C58.6589 31.0935 58.1499 30.7748 57.5949 30.5886C56.0132 30.0478 54.4249 30.0523 52.8826 30.7883C52.5974 30.9252 52.3495 31.1518 52.1082 31.3582C51.981 31.4704 52.0907 31.7711 52.2662 31.7778C52.5514 31.7935 52.8431 31.7846 53.1349 31.7442C54.7539 31.5377 56.2874 31.7891 57.7309 32.5946C58.5558 33.0568 59.2995 33.6447 59.9642 34.3358C61.6008 36.0367 62.6955 38.0696 63.437 40.3269C63.5401 40.6365 63.6389 40.9552 63.788 41.2446C63.8319 41.3389 64.0272 41.4017 64.1522 41.3927C64.2224 41.3882 64.3321 41.2289 64.3518 41.1212C64.3716 40.917 64.3694 40.7083 64.3409 40.4997C63.9986 38.018 63.2133 35.718 61.7171 33.7075C61.3836 33.2565 60.9734 32.8594 60.5938 32.4443C60.4578 32.2894 60.3086 32.1526 60.1573 32C60.313 31.4009 60.4556 30.8175 60.6377 30.2475C61.5152 27.5011 63.6059 25.8182 66.4359 25.6387C69.2111 25.4614 71.6287 26.3971 73.6953 28.2774C74.5618 29.0695 75.1519 30.0142 75.6214 31.2169C75.4152 31.3493 75.2024 31.4996 74.9808 31.6342C72.8901 32.8953 71.3676 34.6679 70.4506 36.9701C70.2422 37.4929 70.0843 38.0516 69.9636 38.6014C69.9 38.8886 69.9417 39.1937 69.9636 39.4922C69.9811 39.6605 70.2773 39.7412 70.3892 39.6044C70.5384 39.4249 70.6766 39.2319 70.7929 39.0232C71.0956 38.4802 71.3567 37.9058 71.6748 37.3695C72.7673 35.5094 74.2393 34.089 76.2094 33.2543C78.0719 32.4577 80.009 32.2737 81.9966 32.6036C85.0943 33.1129 87.672 34.6387 89.8834 36.8579C92.4962 39.4742 94.1898 42.6223 94.9467 46.2686C95.4534 48.7166 95.3766 51.1646 94.5584 53.5499C94.2666 54.4092 93.8585 55.2013 93.4022 55.971C93.2201 56.2739 93.1126 56.6194 92.9569 56.9358C92.8296 57.2096 92.7024 57.4766 92.5488 57.7279C91.6889 59.1864 91.1009 60.7414 90.8793 62.4377C90.7872 63.1872 90.8201 63.9299 90.932 64.6771C90.9561 64.8207 91.011 64.971 91.1053 65.0787C91.147 65.1326 91.3466 65.1371 91.3817 65.0877C91.4695 64.9778 91.5265 64.8274 91.5572 64.6883C91.6384 64.3024 91.6889 63.9209 91.7634 63.535C92.2922 60.8087 93.6238 58.5626 95.6443 56.7384C97.52 55.0443 99.6787 53.8505 102.03 53.0181C104.893 51.9949 107.84 51.5977 110.867 51.7211C113.952 51.849 116.909 52.5199 119.732 53.7899C121.413 54.5506 122.962 55.5132 124.313 56.7855C125.631 58.0196 126.66 59.4579 127.393 61.1318C127.584 61.5649 127.827 61.9732 128.075 62.4512C128.016 62.6486 127.95 62.9112 127.869 63.167C127.569 64.1789 127.428 65.2156 127.408 66.268C127.384 67.1184 127.525 67.9441 127.845 68.7272C127.926 68.9247 128.031 69.0975 128.257 69.1648C128.507 68.9561 128.492 68.6823 128.501 68.4153C128.516 67.8162 128.521 67.2171 128.545 66.6158C128.644 64.3921 129.512 62.4983 130.932 60.8446C132.513 58.9889 134.503 57.7481 136.761 56.9538C139.003 56.1594 141.311 55.8318 143.691 55.9463C146.205 56.0675 148.631 56.5746 150.965 57.5641C152.96 58.4123 154.772 59.5611 156.351 61.0802C157.782 62.4624 158.898 64.0645 159.596 65.9493C160.015 67.0915 160.199 68.2605 160.201 69.4744C160.208 69.894 160.272 70.3046 160.326 70.8589C160.263 70.9913 160.127 71.2583 160 71.5343C159.434 72.7415 159.131 74.0115 159.19 75.36C159.21 75.7145 159.278 76.0758 159.359 76.4258C159.372 76.5134 159.504 76.6278 159.6 76.639C159.679 76.6435 159.824 76.5448 159.859 76.455C159.936 76.2733 159.98 76.0601 160.015 75.8559C160.52 72.8245 162.189 70.6637 164.791 69.2186C166.388 68.3323 168.119 67.8858 169.922 67.7399C171.987 67.5716 174.029 67.7444 176.01 68.3906C177.71 68.9471 179.246 69.8065 180.549 71.0653C180.909 71.4176 181.238 71.7856 181.525 72.2635C181.266 72.4318 181.043 72.5664 180.83 72.7235C180.435 73.0287 180.042 73.3428 179.656 73.6659C179.551 73.7602 179.448 73.897 179.527 74.0608C179.606 74.2179 179.766 74.2179 179.913 74.1753C180.216 74.0698 180.527 73.9688 180.821 73.8477C181.749 73.455 182.688 73.1162 183.664 72.8985C185.908 72.4049 188.151 72.3465 190.349 73.1588C193.225 74.2224 195.125 76.2576 195.919 79.2935C196.421 81.2299 196.292 83.1731 195.675 85.0624L195.673 85.0669Z" fill="white"/>
<path d="M195.673 85.0669C194.497 88.7042 192.15 91.325 188.844 93.0617C187.207 93.9256 185.452 94.3901 183.614 94.4731C181.657 94.5628 179.821 94.1432 178.107 93.1806C178.059 93.1515 178.024 93.1043 177.965 93.0438C178.059 92.5927 178.182 92.1238 178.237 91.6526C178.287 91.2689 178.272 90.874 178.252 90.4948C178.232 90.2704 178.088 90.0998 177.857 90.0639C177.627 90.037 177.458 90.1514 177.359 90.3601C177.267 90.5441 177.181 90.7348 177.107 90.9323C176.003 93.8762 174.016 95.9922 171.276 97.3878C169.391 98.346 167.397 98.9159 165.315 99.1896C161.206 99.7349 157.238 99.2211 153.387 97.6795C151.883 97.0715 150.454 96.3041 149.158 95.3033C147.727 94.2038 146.541 92.8889 145.76 91.2352C145.284 90.2188 144.987 89.1597 144.965 88.0288C144.959 87.7864 144.963 87.5441 144.996 87.3062C145.18 86.1866 145.371 85.0669 145.56 83.9068C145.775 83.7722 146.04 83.8709 146.295 83.8889C149.314 84.102 151.81 83.0362 153.76 80.6645C153.872 80.5276 153.973 80.3683 154.052 80.2112C154.081 80.1439 154.043 80.0497 154.039 79.9779C153.817 79.8522 153.684 79.998 153.563 80.1102C152.585 81.0325 151.422 81.6024 150.147 81.8784C147.809 82.3855 145.531 82.2419 143.406 80.9988C142.228 80.3144 141.284 79.3989 140.677 78.1379C140.578 77.9247 140.464 77.7138 140.31 77.5276C140.233 77.4356 140.047 77.357 139.939 77.3862C139.83 77.4176 139.698 77.5949 139.696 77.7004C139.694 78.0885 139.692 78.4857 139.784 78.8604C140.049 79.9285 140.589 80.844 141.352 81.6271C141.982 82.2778 142.706 82.7714 143.524 83.1439C143.783 83.2584 144.051 83.3795 144.318 83.5029C144.325 83.6331 144.347 83.7206 144.327 83.8014C143.704 87.6967 142.138 91.1298 139.58 94.0871C136.129 98.0902 131.86 100.709 126.781 101.86C122.319 102.872 117.914 102.632 113.64 100.873C111.576 100.02 109.713 98.8418 108.063 97.3115C105.67 95.0946 104.071 92.3796 103.285 89.1799C103.184 88.7737 103.13 88.3564 103.053 87.9884C103.228 87.7101 103.454 87.7954 103.643 87.7999C106.205 87.9031 108.59 87.2636 110.832 86.0317C111.584 85.6234 112.278 85.114 112.874 84.4902C113.241 84.1133 113.263 84.0639 113.443 83.4468C113.261 83.4491 113.085 83.4109 112.945 83.4603C112.556 83.6039 112.179 83.7789 111.808 83.9472C110.52 84.5486 109.228 85.1006 107.846 85.4237C103.728 86.3751 99.9244 85.6638 96.4406 83.2023C95.7562 82.7153 95.1858 82.1185 94.6966 81.4341C94.5759 81.2636 94.464 81.0841 94.3214 80.9382C94.1284 80.7318 93.8651 80.7138 93.6852 80.8619C93.4812 81.028 93.4154 81.2568 93.5075 81.5037C93.5448 81.6159 93.6062 81.7236 93.6589 81.8268C95.2538 84.6316 97.4893 86.5748 100.604 87.3893C100.852 87.4476 101.096 87.5306 101.385 87.6181C101.311 87.8582 101.26 88.0624 101.19 88.2531C100.038 91.1836 98.3953 93.7887 96.2256 96.0505C92.5137 99.8987 88.0932 102.511 83.0606 104.097C79.6471 105.176 76.1414 105.753 72.5742 105.755C67.2411 105.755 62.1295 104.734 57.3602 102.201C54.7759 100.83 52.5163 99.0415 50.6274 96.764C48.7714 94.5337 47.4376 92.0206 46.8497 89.1327C46.6873 88.3496 46.6259 87.5351 46.5579 86.7296C46.5359 86.4715 46.6237 86.2 46.6807 85.9375C46.7619 85.5516 46.8694 85.1813 46.9418 84.7976C46.9725 84.6249 46.9703 84.4409 46.9286 84.2636C46.876 84.0235 46.7312 83.8305 46.4592 83.7879C46.2025 83.7385 46.0028 83.8395 45.8493 84.0504C45.7835 84.1424 45.7352 84.2591 45.6935 84.3668C45.6233 84.5329 45.5707 84.7056 45.5092 84.8784C44.5176 87.8178 41.262 89.1956 38.6536 88.5134C36.0517 87.8223 34.4832 85.4865 34.821 82.7468C34.8693 82.3384 34.9746 81.9278 35.0623 81.5194C35.0909 81.3399 35.1545 81.1671 35.1742 80.9876C35.194 80.7767 35.183 80.559 34.9548 80.4491C34.7267 80.3414 34.5446 80.4737 34.402 80.6196C34.2221 80.8081 34.0532 81.0212 33.915 81.2456C33.3841 82.1028 33.1362 83.0542 33.0725 84.0549C33.0616 84.2658 33.0638 84.4768 33.0638 84.7348C32.8949 84.8246 32.7347 84.948 32.557 85.031C30.8371 85.8186 29.0272 86.1417 27.1559 86.1035C23.6085 86.043 20.445 84.7774 17.525 82.7916C14.9846 81.0527 12.8544 78.8784 11.0599 76.3518C8.63793 72.9142 7.00574 69.1334 6.19623 64.971C5.52273 61.5065 5.45033 58.0555 6.16771 54.5977C6.77978 51.6493 7.95127 48.95 9.6756 46.5042C9.89499 46.1923 10.1231 45.8714 10.3184 45.5371C10.4061 45.4025 10.4193 45.2162 10.4917 44.9694C10.2482 45.0075 10.0486 44.9873 9.92789 45.0749C9.47158 45.3935 8.99772 45.7121 8.59186 46.0823C7.73409 46.8677 6.99258 47.7607 6.34979 48.7458C6.21158 48.9567 6.04924 49.1609 5.85838 49.4369C5.72017 49.2192 5.61706 49.0779 5.53809 48.9298C4.22619 46.392 3.3026 43.7173 2.76073 40.9013C0.779721 30.5594 4.11211 17.8481 12.7952 9.60866C16.0508 6.5144 19.7605 4.22792 24.0341 2.94444C26.5087 2.20173 29.0294 1.82925 31.6049 1.90779C35.3058 2.02447 38.7677 3.08805 41.9882 4.95717C43.3944 5.77393 44.7195 6.71634 46.0182 7.70139C46.4635 8.04021 46.9111 8.37903 47.3718 8.70663C47.4705 8.78292 47.6153 8.80536 47.8171 8.8839C47.8018 8.33416 47.4859 8.0447 47.2621 7.71037C47.0295 7.36706 46.7751 7.05068 46.4921 6.67147C46.6763 6.57274 46.8211 6.47401 46.9769 6.42464C49.7148 5.4396 52.3495 5.70886 54.8658 7.15838C56.1887 7.91456 57.3141 8.92653 58.3035 10.0844C60.6443 12.7972 62.1712 15.9385 62.9917 19.4434C63.312 20.792 63.5292 22.1562 63.6213 23.534L63.6564 24.1622C63.3975 24.3305 63.1825 24.4719 62.961 24.6222C61.9606 25.2797 61.1291 26.1211 60.5149 27.1667C59.8282 28.3223 59.4772 29.5811 59.5759 30.9431L59.5957 31.3066C59.5957 31.3313 59.5759 31.365 59.5562 31.4547C59.4355 31.4121 59.3083 31.3964 59.1942 31.338C58.6589 31.0935 58.1499 30.7748 57.5949 30.5886C56.0132 30.0478 54.4249 30.0523 52.8826 30.7883C52.5974 30.9252 52.3495 31.1518 52.1082 31.3582C51.981 31.4704 52.0907 31.7711 52.2662 31.7778C52.5514 31.7935 52.8431 31.7846 53.1349 31.7442C54.7539 31.5377 56.2874 31.7891 57.7309 32.5946C58.5558 33.0568 59.2995 33.6447 59.9642 34.3358C61.6008 36.0367 62.6955 38.0696 63.437 40.3269C63.5401 40.6365 63.6389 40.9552 63.788 41.2446C63.8319 41.3389 64.0272 41.4017 64.1522 41.3927C64.2224 41.3882 64.3321 41.2289 64.3518 41.1212C64.3716 40.917 64.3694 40.7083 64.3409 40.4997C63.9986 38.018 63.2133 35.718 61.7171 33.7075C61.3836 33.2565 60.9734 32.8594 60.5938 32.4443C60.4578 32.2894 60.3086 32.1526 60.1573 32C60.313 31.4009 60.4556 30.8175 60.6377 30.2475C61.5152 27.5011 63.6059 25.8182 66.4359 25.6387C69.2111 25.4614 71.6287 26.3971 73.6953 28.2774C74.5618 29.0695 75.1519 30.0142 75.6214 31.2169C75.4152 31.3493 75.2024 31.4996 74.9808 31.6342C72.8901 32.8953 71.3676 34.6679 70.4506 36.9701C70.2422 37.4929 70.0843 38.0516 69.9636 38.6014C69.9 38.8886 69.9417 39.1937 69.9636 39.4922C69.9811 39.6605 70.2773 39.7412 70.3892 39.6044C70.5384 39.4249 70.6766 39.2319 70.7929 39.0232C71.0956 38.4802 71.3567 37.9058 71.6748 37.3695C72.7673 35.5094 74.2393 34.089 76.2094 33.2543C78.0719 32.4577 80.009 32.2737 81.9966 32.6036C85.0943 33.1129 87.672 34.6387 89.8834 36.8579C92.4962 39.4742 94.1898 42.6223 94.9467 46.2686C95.4534 48.7166 95.3766 51.1646 94.5584 53.5499C94.2666 54.4092 93.8585 55.2013 93.4022 55.971C93.2201 56.2739 93.1126 56.6194 92.9569 56.9358C92.8296 57.2096 92.7024 57.4766 92.5488 57.7279C91.6889 59.1864 91.1009 60.7414 90.8793 62.4377C90.7872 63.1872 90.8201 63.9299 90.932 64.6771C90.9561 64.8207 91.011 64.971 91.1053 65.0787C91.147 65.1326 91.3466 65.1371 91.3817 65.0877C91.4695 64.9778 91.5265 64.8274 91.5572 64.6883C91.6384 64.3024 91.6889 63.9209 91.7634 63.535C92.2922 60.8087 93.6238 58.5626 95.6443 56.7384C97.52 55.0443 99.6787 53.8505 102.03 53.0181C104.893 51.9949 107.84 51.5977 110.867 51.7211C113.952 51.849 116.909 52.5199 119.732 53.7899C121.413 54.5506 122.962 55.5132 124.313 56.7855C125.631 58.0196 126.66 59.4579 127.393 61.1318C127.584 61.5649 127.827 61.9732 128.075 62.4512C128.016 62.6486 127.95 62.9112 127.869 63.167C127.569 64.1789 127.428 65.2156 127.408 66.268C127.384 67.1184 127.525 67.9441 127.845 68.7272C127.926 68.9247 128.031 69.0975 128.257 69.1648C128.507 68.9561 128.492 68.6823 128.501 68.4153C128.516 67.8162 128.521 67.2171 128.545 66.6158C128.644 64.3921 129.512 62.4983 130.932 60.8446C132.513 58.9889 134.503 57.7481 136.761 56.9538C139.003 56.1594 141.311 55.8318 143.691 55.9463C146.205 56.0675 148.631 56.5746 150.965 57.5641C152.96 58.4123 154.772 59.5611 156.351 61.0802C157.782 62.4624 158.898 64.0645 159.596 65.9493C160.015 67.0915 160.199 68.2605 160.201 69.4744C160.208 69.894 160.272 70.3046 160.326 70.8589C160.263 70.9913 160.127 71.2583 160 71.5343C159.434 72.7415 159.131 74.0115 159.19 75.36C159.21 75.7145 159.278 76.0758 159.359 76.4258C159.372 76.5134 159.504 76.6278 159.6 76.639C159.679 76.6435 159.824 76.5448 159.859 76.455C159.936 76.2733 159.98 76.0601 160.015 75.8559C160.52 72.8245 162.189 70.6637 164.791 69.2186C166.388 68.3323 168.119 67.8858 169.922 67.7399C171.987 67.5716 174.029 67.7444 176.01 68.3906C177.71 68.9471 179.246 69.8065 180.549 71.0653C180.909 71.4176 181.238 71.7856 181.525 72.2635C181.266 72.4318 181.043 72.5664 180.83 72.7235C180.435 73.0287 180.042 73.3428 179.656 73.6659C179.551 73.7602 179.448 73.897 179.527 74.0608C179.606 74.2179 179.766 74.2179 179.913 74.1753C180.216 74.0698 180.527 73.9688 180.821 73.8477C181.749 73.455 182.688 73.1162 183.664 72.8985C185.908 72.4049 188.151 72.3465 190.349 73.1588C193.225 74.2224 195.125 76.2576 195.919 79.2935C196.421 81.2299 196.292 83.1731 195.675 85.0624L195.673 85.0669Z" fill="white"/>
<path d="M176.005 68.3929C174.022 67.7467 171.979 67.5739 169.917 67.7422C168.114 67.888 166.381 68.3346 164.786 69.2209C162.945 70.2441 161.583 71.633 160.758 73.4259C164.408 71.3997 173.833 67.1655 181.522 72.2658C181.235 71.7878 180.906 71.4199 180.546 71.0676C179.243 69.8088 177.707 68.9494 176.007 68.3929H176.005Z" fill="#D8DAEF"/>
<path d="M183.613 94.4731C185.451 94.3901 187.206 93.9256 188.843 93.0617C192.149 91.325 194.496 88.7042 195.672 85.0669C196.289 83.1776 196.418 81.2366 195.916 79.298C195.122 76.2598 193.222 74.2269 190.346 73.1633C188.15 72.351 185.905 72.4093 183.661 72.903C183.532 72.9322 183.407 72.9793 183.279 73.0107C185.754 74.3076 189.856 77.5163 188.814 84.2411C187.347 93.7236 177.964 93.0437 177.964 93.0437C178.023 93.1043 178.056 93.1514 178.106 93.1806C179.822 94.141 181.656 94.5606 183.613 94.4731Z" fill="#D8DAEF"/>
<path d="M78.2847 105.248C79.8927 104.972 81.4854 104.586 83.0584 104.088C88.0888 102.502 92.5115 99.892 96.2234 96.0416C98.3931 93.7798 100.036 91.1747 101.188 88.2442C101.256 88.0535 101.309 87.8493 101.383 87.6092C101.094 87.5217 100.852 87.4387 100.602 87.3803C97.4871 86.5658 95.2516 84.6226 93.6567 81.8178C93.604 81.7146 93.5426 81.6069 93.5053 81.4947C93.5053 81.4947 90.3221 99.4343 78.2869 105.246L78.2847 105.248Z" fill="#D8DAEF"/>
<path d="M69.9562 39.4899C69.9321 39.1915 69.8904 38.8864 69.9562 38.5991C70.0769 38.0494 70.2348 37.4907 70.4432 36.9679C71.3603 34.6657 72.8849 32.893 74.9735 31.632C75.195 31.4974 75.4078 31.347 75.614 31.2146C75.1446 30.0119 74.5544 29.0673 73.6879 28.2752C71.6213 26.3949 69.2037 25.4592 66.4286 25.6364C63.5986 25.816 61.5079 27.4988 60.6303 30.2453C60.4483 30.8152 60.3057 31.3964 60.1499 31.9977C60.1499 31.9977 69.0787 28.4749 69.9562 39.4899Z" fill="#D8DAEF"/>
<path d="M136.754 56.956C134.496 57.7504 132.506 58.9912 130.925 60.8469C129.505 62.4983 128.637 64.3944 128.538 66.618C128.538 66.6584 128.538 66.6966 128.536 66.737C131.585 64.6681 140.839 59.2515 149.938 62.6195C159.367 66.1109 159.468 72.1312 159.282 73.8724C159.407 73.0691 159.642 72.2882 159.993 71.5388C160.12 71.265 160.256 70.998 160.32 70.8634C160.265 70.3092 160.203 69.8985 160.194 69.4789C160.19 68.265 160.008 67.0937 159.589 65.9539C158.891 64.069 157.775 62.4647 156.344 61.0847C154.765 59.5656 152.953 58.4168 150.959 57.5686C148.624 56.5791 146.2 56.072 143.684 55.9508C141.304 55.8386 138.996 56.1662 136.754 56.9583V56.956Z" fill="#D8DAEF"/>
<path d="M108.056 97.3094C109.476 98.6243 111.057 99.6654 112.784 100.475C108.034 95.696 110.827 86.0296 110.827 86.0296C108.585 87.2592 106.198 87.9009 103.638 87.7977C103.447 87.7932 103.221 87.708 103.048 87.9862C103.125 88.3542 103.177 88.7715 103.28 89.1777C104.066 92.3774 105.665 95.0924 108.059 97.3094H108.056Z" fill="#D8DAEF"/>
<path d="M92.5418 57.7279C92.6932 57.4766 92.8226 57.2096 92.9499 56.9358C93.1056 56.6195 93.2131 56.2739 93.3952 55.971C93.8515 55.1991 94.2574 54.407 94.5514 53.5499C95.3697 51.1647 95.4464 48.7144 94.9397 46.2686C94.185 42.6223 92.4914 39.4742 89.8764 36.8579C87.665 34.6388 85.0873 33.1129 81.9896 32.6036C80.002 32.2737 78.0649 32.4577 76.2024 33.2543C74.2301 34.089 72.7581 35.5094 71.6678 37.3695C71.3497 37.9058 71.0886 38.4802 70.7859 39.0232C70.7376 39.113 70.6718 39.187 70.6147 39.27C73.3526 38.4174 84.0255 35.8527 89.4201 45.5551C92.3707 50.864 92.8468 54.9343 92.5353 57.7481C92.5396 57.7414 92.5418 57.7369 92.544 57.7302L92.5418 57.7279Z" fill="#D8DAEF"/>
<path d="M127.487 67.4886C127.419 67.0892 127.39 66.6831 127.401 66.2702C127.421 65.2178 127.564 64.1812 127.862 63.1692C127.943 62.9134 128.007 62.6509 128.068 62.4534C127.82 61.9733 127.577 61.5671 127.386 61.1341C126.653 59.4601 125.624 58.0241 124.306 56.7877C122.954 55.5155 121.406 54.5529 119.725 53.7922C116.902 52.5222 113.944 51.8535 110.86 51.7234C107.83 51.6 104.886 51.9971 102.023 53.0203C99.6715 53.8528 97.515 55.0465 95.6371 56.7406C94.3472 57.9052 93.3424 59.2447 92.6426 60.7683C97.7563 56.3771 113.113 46.2484 127.487 67.4909V67.4886Z" fill="#D8DAEF"/>
<path d="M144.323 83.7991C144.342 83.7161 144.323 83.6286 144.314 83.5007C144.046 83.3795 143.778 83.2561 143.52 83.1417C142.699 82.7692 141.977 82.2755 141.348 81.6248C140.905 81.1716 140.549 80.669 140.266 80.1215C140.196 84.0078 139.143 96.6496 128.716 101.333C132.952 99.9997 136.576 97.5674 139.577 94.0849C142.135 91.1275 143.702 87.6967 144.325 83.7991H144.323Z" fill="#D8DAEF"/>
<path d="M59.9505 28.3605C60.0997 27.9521 60.2774 27.5482 60.5077 27.1623C61.122 26.1144 61.9534 25.2729 62.9538 24.6177C63.1754 24.4674 63.3882 24.326 63.6492 24.1578L63.6141 23.5295C63.522 22.1518 63.3048 20.7875 62.9845 19.4389C62.1662 15.9341 60.6393 12.7927 58.2964 10.0799C57.3069 8.92429 56.1815 7.91232 54.8587 7.1539C52.3424 5.70438 49.7076 5.43736 46.9697 6.42016C46.9697 6.42016 58.2854 11.1255 59.9527 28.3627L59.9505 28.3605Z" fill="#D8DAEF"/>
<path d="M156.564 91.2352C152.745 86.4065 151.918 83.6892 151.762 82.491C150.189 83.5635 148.366 84.037 146.29 83.8889C146.036 83.8709 145.77 83.7744 145.555 83.9068C145.367 85.0669 145.176 86.1866 144.992 87.3063C144.957 87.5419 144.954 87.7864 144.961 88.0288C144.985 89.1597 145.279 90.2188 145.755 91.2352C146.536 92.8889 147.723 94.2038 149.153 95.3033C150.452 96.3041 151.878 97.0715 153.383 97.6796C157.235 99.2211 161.204 99.7349 165.311 99.1897C167.393 98.9159 169.387 98.346 171.271 97.3878C172.596 96.7124 173.739 95.8665 174.698 94.8433C174.533 94.886 161.985 98.0879 156.562 91.2352H156.564Z" fill="#D8DAEF"/>
<path d="M34.8136 82.7423C34.4736 85.482 36.0443 87.8179 38.6462 88.509C41.0725 89.144 44.0517 87.9951 45.2583 85.4708C43.0733 86.2337 37.4308 87.5172 35.0549 81.5149C34.9672 81.9255 34.8619 82.3362 34.8136 82.7423Z" fill="#D8DAEF"/>
<path d="M2.75588 40.8968C3.29995 43.7151 4.22354 46.3875 5.53324 48.9253C5.61222 49.0734 5.71533 49.2148 5.85354 49.4324C6.0444 49.1542 6.20674 48.95 6.34495 48.7413C6.98773 47.7563 7.72924 46.8655 8.58702 46.0779C8.99287 45.7054 9.46674 45.3868 9.92305 45.0704C9.92305 45.0704 2.33906 32.1346 6.0444 18.7838C2.51237 25.8294 1.41327 33.9028 2.75369 40.8968H2.75588Z" fill="#D8DAEF"/>
<path d="M5.74824 57.4923C5.53763 59.9807 5.70656 62.4714 6.19139 64.9666C6.99871 69.1289 8.63309 72.9098 11.0551 76.3473C12.8496 78.8739 14.9776 81.0482 17.5202 82.7872C20.438 84.7707 23.6036 86.0363 27.151 86.0991C29.0201 86.1372 30.83 85.8141 32.5522 85.0265C32.7299 84.9435 32.89 84.8201 33.0589 84.7303C33.0589 84.4723 33.0567 84.2614 33.0677 84.0505C33.116 83.301 33.2673 82.5785 33.5635 81.9031C28.8337 82.8343 13.9948 83.4558 5.75043 57.4946L5.74824 57.4923Z" fill="#D8DAEF"/>
</svg>
