<svg width="24" height="24" viewBox="0 0 24 24" fill="none" xmlns="http://www.w3.org/2000/svg">
<mask id="path-1-outside-1_2335_878" maskUnits="userSpaceOnUse" x="0" y="0.000488281" width="24" height="24" fill="black">
<rect fill="white" y="0.000488281" width="24" height="24"/>
<path fill-rule="evenodd" clip-rule="evenodd" d="M17.3381 7.86159C18.0011 7.86159 18.5381 7.32459 18.5381 6.66159C18.5381 5.99959 18.0011 5.46259 17.3381 5.46259C16.6761 5.46259 16.1381 5.99959 16.1381 6.66159C16.1381 7.32459 16.6761 7.86159 17.3381 7.86159ZM8.667 12.0005C8.667 13.8415 10.159 15.3335 12 15.3335C13.841 15.3335 15.333 13.8415 15.333 12.0005C15.333 10.1585 13.841 8.66649 12 8.66649C10.159 8.66649 8.667 10.1585 8.667 12.0005ZM6.865 12.0005C6.865 9.16349 9.164 6.86449 12 6.86449C14.836 6.86449 17.135 9.16349 17.135 12.0005C17.135 14.8365 14.836 17.1355 12 17.1355C9.164 17.1355 6.865 14.8365 6.865 12.0005ZM12 2.00049C9.284 2.00049 8.943 2.01149 7.877 2.06049C6.813 2.10849 6.086 2.27749 5.449 2.52449C4.792 2.78049 4.234 3.12249 3.679 3.67849C3.122 4.23349 2.78 4.79249 2.525 5.44949C2.277 6.08549 2.108 6.81249 2.061 7.87749C2.012 8.94349 2 9.28349 2 12.0005C2 14.7165 2.012 15.0565 2.061 16.1225C2.108 17.1875 2.277 17.9145 2.525 18.5505C2.78 19.2075 3.122 19.7665 3.679 20.3215C4.234 20.8775 4.792 21.2195 5.449 21.4755C6.086 21.7225 6.813 21.8915 7.877 21.9395C8.943 21.9885 9.284 22.0005 12 22.0005C14.716 22.0005 15.057 21.9885 16.123 21.9395C17.187 21.8915 17.914 21.7225 18.551 21.4755C19.208 21.2195 19.766 20.8775 20.321 20.3215C20.878 19.7665 21.22 19.2075 21.475 18.5505C21.723 17.9145 21.892 17.1875 21.939 16.1225C21.988 15.0565 22 14.7165 22 12.0005C22 9.28349 21.988 8.94349 21.939 7.87749C21.892 6.81249 21.723 6.08549 21.475 5.44949C21.22 4.79249 20.878 4.23349 20.321 3.67849C19.766 3.12249 19.208 2.78049 18.551 2.52449C17.914 2.27749 17.187 2.10849 16.123 2.06049C15.057 2.01149 14.716 2.00049 12 2.00049M12 3.80249C14.67 3.80249 14.986 3.81249 16.041 3.85949C17.016 3.90449 17.545 4.06749 17.897 4.20449C18.364 4.38649 18.697 4.60349 19.048 4.95249C19.397 5.30249 19.614 5.63549 19.796 6.10249C19.933 6.45449 20.096 6.98349 20.14 7.95949C20.188 9.01349 20.198 9.32949 20.198 12.0005C20.198 14.6705 20.188 14.9865 20.14 16.0405C20.096 17.0165 19.933 17.5455 19.796 17.8975C19.614 18.3645 19.397 18.6975 19.048 19.0475C18.697 19.3975 18.364 19.6135 17.897 19.7955C17.545 19.9325 17.016 20.0955 16.041 20.1405C14.986 20.1875 14.67 20.1975 12 20.1975C9.33 20.1975 9.014 20.1875 7.959 20.1405C6.984 20.0955 6.455 19.9325 6.103 19.7955C5.636 19.6135 5.303 19.3975 4.952 19.0475C4.603 18.6975 4.386 18.3645 4.204 17.8975C4.067 17.5455 3.904 17.0165 3.86 16.0405C3.812 14.9865 3.802 14.6705 3.802 12.0005C3.802 9.32949 3.812 9.01349 3.86 7.95949C3.904 6.98349 4.067 6.45449 4.204 6.10249C4.386 5.63549 4.603 5.30249 4.952 4.95249C5.303 4.60349 5.636 4.38649 6.103 4.20449C6.455 4.06749 6.984 3.90449 7.959 3.85949C9.014 3.81249 9.33 3.80249 12 3.80249"/>
</mask>
<path fill-rule="evenodd" clip-rule="evenodd" d="M17.3381 7.86159C18.0011 7.86159 18.5381 7.32459 18.5381 6.66159C18.5381 5.99959 18.0011 5.46259 17.3381 5.46259C16.6761 5.46259 16.1381 5.99959 16.1381 6.66159C16.1381 7.32459 16.6761 7.86159 17.3381 7.86159ZM8.667 12.0005C8.667 13.8415 10.159 15.3335 12 15.3335C13.841 15.3335 15.333 13.8415 15.333 12.0005C15.333 10.1585 13.841 8.66649 12 8.66649C10.159 8.66649 8.667 10.1585 8.667 12.0005ZM6.865 12.0005C6.865 9.16349 9.164 6.86449 12 6.86449C14.836 6.86449 17.135 9.16349 17.135 12.0005C17.135 14.8365 14.836 17.1355 12 17.1355C9.164 17.1355 6.865 14.8365 6.865 12.0005ZM12 2.00049C9.284 2.00049 8.943 2.01149 7.877 2.06049C6.813 2.10849 6.086 2.27749 5.449 2.52449C4.792 2.78049 4.234 3.12249 3.679 3.67849C3.122 4.23349 2.78 4.79249 2.525 5.44949C2.277 6.08549 2.108 6.81249 2.061 7.87749C2.012 8.94349 2 9.28349 2 12.0005C2 14.7165 2.012 15.0565 2.061 16.1225C2.108 17.1875 2.277 17.9145 2.525 18.5505C2.78 19.2075 3.122 19.7665 3.679 20.3215C4.234 20.8775 4.792 21.2195 5.449 21.4755C6.086 21.7225 6.813 21.8915 7.877 21.9395C8.943 21.9885 9.284 22.0005 12 22.0005C14.716 22.0005 15.057 21.9885 16.123 21.9395C17.187 21.8915 17.914 21.7225 18.551 21.4755C19.208 21.2195 19.766 20.8775 20.321 20.3215C20.878 19.7665 21.22 19.2075 21.475 18.5505C21.723 17.9145 21.892 17.1875 21.939 16.1225C21.988 15.0565 22 14.7165 22 12.0005C22 9.28349 21.988 8.94349 21.939 7.87749C21.892 6.81249 21.723 6.08549 21.475 5.44949C21.22 4.79249 20.878 4.23349 20.321 3.67849C19.766 3.12249 19.208 2.78049 18.551 2.52449C17.914 2.27749 17.187 2.10849 16.123 2.06049C15.057 2.01149 14.716 2.00049 12 2.00049M12 3.80249C14.67 3.80249 14.986 3.81249 16.041 3.85949C17.016 3.90449 17.545 4.06749 17.897 4.20449C18.364 4.38649 18.697 4.60349 19.048 4.95249C19.397 5.30249 19.614 5.63549 19.796 6.10249C19.933 6.45449 20.096 6.98349 20.14 7.95949C20.188 9.01349 20.198 9.32949 20.198 12.0005C20.198 14.6705 20.188 14.9865 20.14 16.0405C20.096 17.0165 19.933 17.5455 19.796 17.8975C19.614 18.3645 19.397 18.6975 19.048 19.0475C18.697 19.3975 18.364 19.6135 17.897 19.7955C17.545 19.9325 17.016 20.0955 16.041 20.1405C14.986 20.1875 14.67 20.1975 12 20.1975C9.33 20.1975 9.014 20.1875 7.959 20.1405C6.984 20.0955 6.455 19.9325 6.103 19.7955C5.636 19.6135 5.303 19.3975 4.952 19.0475C4.603 18.6975 4.386 18.3645 4.204 17.8975C4.067 17.5455 3.904 17.0165 3.86 16.0405C3.812 14.9865 3.802 14.6705 3.802 12.0005C3.802 9.32949 3.812 9.01349 3.86 7.95949C3.904 6.98349 4.067 6.45449 4.204 6.10249C4.386 5.63549 4.603 5.30249 4.952 4.95249C5.303 4.60349 5.636 4.38649 6.103 4.20449C6.455 4.06749 6.984 3.90449 7.959 3.85949C9.014 3.81249 9.33 3.80249 12 3.80249" fill="white"/>
<path d="M7.877 2.06049L7.96713 4.05846L7.96884 4.05838L7.877 2.06049ZM5.449 2.52449L4.72594 0.659763L4.72288 0.660958L5.449 2.52449ZM3.679 3.67849L5.09067 5.09525L5.09449 5.09143L3.679 3.67849ZM2.525 5.44949L4.38835 6.17608L4.38949 6.17315L2.525 5.44949ZM2.061 7.87749L4.05889 7.96932L4.05906 7.96567L2.061 7.87749ZM2.061 16.1225L4.05906 16.0343L4.05889 16.0307L2.061 16.1225ZM2.525 18.5505L4.38949 17.8268L4.38835 17.8239L2.525 18.5505ZM3.679 20.3215L5.09449 18.9085L5.09067 18.9047L3.679 20.3215ZM5.449 21.4755L4.72287 23.339L4.72594 23.3402L5.449 21.4755ZM7.877 21.9395L7.96884 19.9416L7.96713 19.9415L7.877 21.9395ZM16.123 21.9395L16.0329 19.9415L16.0312 19.9416L16.123 21.9395ZM18.551 21.4755L19.2741 23.3402L19.2771 23.339L18.551 21.4755ZM20.321 20.3215L18.9093 18.9047L18.9055 18.9085L20.321 20.3215ZM21.475 18.5505L19.6116 17.8239L19.6105 17.8268L21.475 18.5505ZM21.939 16.1225L19.9411 16.0307L19.9409 16.0343L21.939 16.1225ZM21.939 7.87749L19.9409 7.96567L19.9411 7.96932L21.939 7.87749ZM21.475 5.44949L19.6105 6.17315L19.6117 6.17608L21.475 5.44949ZM20.321 3.67849L18.9055 5.09143L18.9093 5.09524L20.321 3.67849ZM18.551 2.52449L19.2771 0.660956L19.2741 0.659766L18.551 2.52449ZM16.123 2.06049L16.0312 4.05838L16.0329 4.05846L16.123 2.06049ZM16.041 3.85949L16.1332 1.86161L16.13 1.86147L16.041 3.85949ZM17.897 4.20449L18.6232 2.341L18.6224 2.34068L17.897 4.20449ZM19.048 4.95249L20.4642 3.54029L20.4582 3.53424L19.048 4.95249ZM19.796 6.10249L21.6598 5.37708L21.6595 5.37625L19.796 6.10249ZM20.14 7.95949L18.142 8.04956L18.1421 8.05048L20.14 7.95949ZM20.14 16.0405L18.1421 15.9495L18.142 15.9504L20.14 16.0405ZM19.796 17.8975L21.6595 18.6237L21.6598 18.6229L19.796 17.8975ZM19.048 19.0475L20.4602 20.4637L20.4642 20.4597L19.048 19.0475ZM17.897 19.7955L18.6224 21.6593L18.6232 21.659L17.897 19.7955ZM16.041 20.1405L16.13 22.1385L16.1332 22.1384L16.041 20.1405ZM7.959 20.1405L7.86679 22.1384L7.86999 22.1385L7.959 20.1405ZM6.103 19.7955L5.37676 21.659L5.3776 21.6593L6.103 19.7955ZM4.952 19.0475L3.53576 20.4597L3.53981 20.4637L4.952 19.0475ZM4.204 17.8975L2.34019 18.6229L2.34052 18.6237L4.204 17.8975ZM3.86 16.0405L5.85797 15.9504L5.85793 15.9495L3.86 16.0405ZM3.86 7.95949L5.85793 8.05048L5.85797 8.04956L3.86 7.95949ZM4.204 6.10249L2.34052 5.37625L2.34019 5.37708L4.204 6.10249ZM4.952 4.95249L3.54182 3.53423L3.53576 3.5403L4.952 4.95249ZM6.103 4.20449L5.3776 2.34068L5.37676 2.341L6.103 4.20449ZM7.959 3.85949L7.86999 1.86147L7.86679 1.86162L7.959 3.85949ZM16.5381 6.66159C16.5381 6.22002 16.8965 5.86159 17.3381 5.86159V9.86159C19.1057 9.86159 20.5381 8.42916 20.5381 6.66159H16.5381ZM17.3381 7.46259C16.8976 7.46259 16.5381 7.10524 16.5381 6.66159H20.5381C20.5381 4.89393 19.1046 3.46259 17.3381 3.46259V7.46259ZM18.1381 6.66159C18.1381 7.10633 17.7785 7.46259 17.3381 7.46259V3.46259C15.5737 3.46259 14.1381 4.89285 14.1381 6.66159H18.1381ZM17.3381 5.86159C17.7796 5.86159 18.1381 6.21893 18.1381 6.66159H14.1381C14.1381 8.43024 15.5726 9.86159 17.3381 9.86159V5.86159ZM12 13.3335C11.2636 13.3335 10.667 12.7369 10.667 12.0005H6.667C6.667 14.9461 9.05443 17.3335 12 17.3335V13.3335ZM13.333 12.0005C13.333 12.7369 12.7364 13.3335 12 13.3335V17.3335C14.9456 17.3335 17.333 14.9461 17.333 12.0005H13.333ZM12 10.6665C12.736 10.6665 13.333 11.2627 13.333 12.0005H17.333C17.333 9.05431 14.946 6.66649 12 6.66649V10.6665ZM10.667 12.0005C10.667 11.2627 11.264 10.6665 12 10.6665V6.66649C9.05404 6.66649 6.667 9.05431 6.667 12.0005H10.667ZM12 4.86449C8.05918 4.86449 4.865 8.05917 4.865 12.0005H8.865C8.865 10.2678 10.2688 8.86449 12 8.86449V4.86449ZM19.135 12.0005C19.135 8.05917 15.9408 4.86449 12 4.86449V8.86449C13.7312 8.86449 15.135 10.2678 15.135 12.0005H19.135ZM12 19.1355C15.9406 19.1355 19.135 15.9411 19.135 12.0005H15.135C15.135 13.7319 13.7314 15.1355 12 15.1355V19.1355ZM4.865 12.0005C4.865 15.9411 8.05943 19.1355 12 19.1355V15.1355C10.2686 15.1355 8.865 13.7319 8.865 12.0005H4.865ZM12 0.000488281C9.27511 0.000488281 8.89768 0.0114596 7.78516 0.0625978L7.96884 4.05838C8.98832 4.01152 9.29289 4.00049 12 4.00049V0.000488281ZM7.78687 0.0625203C6.53242 0.119112 5.58851 0.325303 4.72594 0.659766L6.17206 4.38921C6.58349 4.22967 7.09358 4.09786 7.96713 4.05846L7.78687 0.0625203ZM4.72288 0.660958C3.82739 1.00989 3.02922 1.49846 2.26351 2.26555L5.09449 5.09143C5.43878 4.74651 5.75661 4.55109 6.17512 4.38802L4.72288 0.660958ZM2.26733 2.26173C1.49766 3.02864 1.00848 3.8293 0.660512 4.72583L4.38949 6.17315C4.55152 5.75568 4.74634 5.43833 5.09067 5.09524L2.26733 2.26173ZM0.661651 4.7229C0.324632 5.58719 0.118377 6.53324 0.0629447 7.78931L4.05906 7.96567C4.09762 7.09174 4.22937 6.58379 4.38835 6.17608L0.661651 4.7229ZM0.0631096 7.78565C0.0120101 8.89733 0 9.27304 0 12.0005H4C4 9.29394 4.01199 8.98965 4.05889 7.96932L0.0631096 7.78565ZM0 12.0005C0 14.727 0.0120104 15.1027 0.0631096 16.2143L4.05889 16.0307C4.01199 15.0103 4 14.706 4 12.0005H0ZM0.0629447 16.2107C0.118377 17.4667 0.324632 18.4128 0.661651 19.2771L4.38835 17.8239C4.22937 17.4162 4.09762 16.9082 4.05906 16.0343L0.0629447 16.2107ZM0.660512 19.2741C1.00848 20.1707 1.49766 20.9713 2.26733 21.7382L5.09067 18.9047C4.74634 18.5616 4.55152 18.2443 4.38949 17.8268L0.660512 19.2741ZM2.26351 21.7344C3.02922 22.5015 3.82739 22.9901 4.72288 23.339L6.17512 19.612C5.75661 19.4489 5.43878 19.2535 5.09449 18.9085L2.26351 21.7344ZM4.72594 23.3402C5.58851 23.6747 6.53242 23.8809 7.78687 23.9375L7.96713 19.9415C7.09358 19.9021 6.58349 19.7703 6.17206 19.6108L4.72594 23.3402ZM7.78516 23.9374C8.89684 23.9885 9.27356 24.0005 12 24.0005V20.0005C9.29444 20.0005 8.98916 19.9885 7.96884 19.9416L7.78516 23.9374ZM12 24.0005C14.7264 24.0005 15.1032 23.9885 16.2148 23.9374L16.0312 19.9416C15.0108 19.9885 14.7056 20.0005 12 20.0005V24.0005ZM16.2131 23.9375C17.4676 23.8809 18.4115 23.6747 19.2741 23.3402L17.8279 19.6108C17.4165 19.7703 16.9064 19.9021 16.0329 19.9415L16.2131 23.9375ZM19.2771 23.339C20.1726 22.9901 20.9708 22.5015 21.7365 21.7344L18.9055 18.9085C18.5612 19.2535 18.2434 19.4489 17.8249 19.612L19.2771 23.339ZM21.7327 21.7382C22.5023 20.9713 22.9915 20.1707 23.3395 19.2741L19.6105 17.8268C19.4485 18.2443 19.2537 18.5616 18.9093 18.9047L21.7327 21.7382ZM23.3383 19.2771C23.6754 18.4128 23.8816 17.4667 23.9371 16.2107L19.9409 16.0343C19.9024 16.9082 19.7706 17.4162 19.6117 17.8239L23.3383 19.2771ZM23.9369 16.2143C23.988 15.1027 24 14.727 24 12.0005H20C20 14.706 19.988 15.0103 19.9411 16.0307L23.9369 16.2143ZM24 12.0005C24 9.27304 23.988 8.89733 23.9369 7.78565L19.9411 7.96932C19.988 8.98965 20 9.29394 20 12.0005H24ZM23.9371 7.78931C23.8816 6.53324 23.6754 5.58719 23.3383 4.7229L19.6117 6.17608C19.7706 6.58378 19.9024 7.09174 19.9409 7.96567L23.9371 7.78931ZM23.3395 4.72583C22.9915 3.82929 22.5023 3.02864 21.7327 2.26173L18.9093 5.09524C19.2537 5.43834 19.4485 5.75568 19.6105 6.17315L23.3395 4.72583ZM21.7365 2.26555C20.9708 1.49846 20.1726 1.00989 19.2771 0.660958L17.8249 4.38802C18.2434 4.55109 18.5612 4.74651 18.9055 5.09143L21.7365 2.26555ZM19.2741 0.659766C18.4115 0.325303 17.4676 0.119112 16.2131 0.0625203L16.0329 4.05846C16.9064 4.09786 17.4165 4.22967 17.8279 4.38921L19.2741 0.659766ZM16.2148 0.0625978C15.1023 0.0114596 14.7249 0.000488281 12 0.000488281V4.00049C14.7071 4.00049 15.0117 4.01152 16.0312 4.05838L16.2148 0.0625978ZM12 5.80249C14.6615 5.80249 14.9421 5.81252 15.952 5.85751L16.13 1.86147C15.0299 1.81246 14.6785 1.80249 12 1.80249V5.80249ZM15.9488 5.85736C16.3411 5.87547 16.6075 5.91559 16.786 5.95361C16.9577 5.99017 17.0734 6.03008 17.1716 6.0683L18.6224 2.34068C18.0711 2.12611 17.3284 1.91678 16.1332 1.86162L15.9488 5.85736ZM17.1708 6.06797C17.3829 6.15065 17.4828 6.21656 17.6378 6.37074L20.4582 3.53424C19.9112 2.99041 19.3451 2.62232 18.6232 2.341L17.1708 6.06797ZM17.6318 6.36468C17.7842 6.51755 17.8498 6.61644 17.9325 6.82873L21.6595 5.37625C21.3782 4.65453 21.0098 4.08742 20.4642 3.5403L17.6318 6.36468ZM17.9322 6.82789C17.9704 6.92601 18.0102 7.04141 18.0466 7.21268C18.0844 7.39084 18.1243 7.65707 18.142 8.04956L22.138 7.86942C22.084 6.67234 21.8746 5.92894 21.6598 5.37708L17.9322 6.82789ZM18.1421 8.05048C18.188 9.05811 18.198 9.33777 18.198 12.0005H22.198C22.198 9.32121 22.188 8.96887 22.1379 7.8685L18.1421 8.05048ZM18.198 12.0005C18.198 14.6622 18.188 14.9419 18.1421 15.9495L22.1379 16.1315C22.188 15.0311 22.198 14.6788 22.198 12.0005H18.198ZM18.142 15.9504C18.1243 16.3429 18.0844 16.6091 18.0466 16.7873C18.0102 16.9586 17.9704 17.074 17.9322 17.1721L21.6598 18.6229C21.8746 18.071 22.084 17.3276 22.138 16.1306L18.142 15.9504ZM17.9325 17.1712C17.8498 17.3835 17.7842 17.4824 17.6318 17.6353L20.4642 20.4597C21.0098 19.9126 21.3782 19.3454 21.6595 18.6237L17.9325 17.1712ZM17.6358 17.6313C17.4834 17.7832 17.385 17.8485 17.1708 17.932L18.6232 21.659C19.343 21.3785 19.9106 21.0118 20.4602 20.4637L17.6358 17.6313ZM17.1716 17.9317C17.0734 17.9699 16.9577 18.0098 16.786 18.0464C16.6075 18.0844 16.3411 18.1245 15.9488 18.1426L16.1332 22.1384C17.3284 22.0832 18.0711 21.8739 18.6224 21.6593L17.1716 17.9317ZM15.952 18.1425C14.9421 18.1875 14.6615 18.1975 12 18.1975V22.1975C14.6785 22.1975 15.0299 22.1875 16.13 22.1385L15.952 18.1425ZM12 18.1975C9.33848 18.1975 9.05785 18.1875 8.04801 18.1425L7.86999 22.1385C8.97015 22.1875 9.32152 22.1975 12 22.1975V18.1975ZM8.05121 18.1426C7.65891 18.1245 7.39252 18.0844 7.21402 18.0464C7.04235 18.0098 6.92661 17.9699 6.8284 17.9317L5.3776 21.6593C5.9289 21.8739 6.67157 22.0832 7.86679 22.1384L8.05121 18.1426ZM6.82924 17.932C6.61495 17.8485 6.51657 17.7832 6.36419 17.6313L3.53981 20.4637C4.08943 21.0118 4.65705 21.3785 5.37676 21.659L6.82924 17.932ZM6.36824 17.6353C6.21579 17.4824 6.15022 17.3835 6.06748 17.1712L2.34052 18.6237C2.62178 19.3454 2.99021 19.9126 3.53576 20.4597L6.36824 17.6353ZM6.06781 17.1721C6.02962 17.074 5.98984 16.9586 5.95345 16.7873C5.91559 16.6091 5.87567 16.3429 5.85797 15.9504L1.86203 16.1306C1.916 17.3276 2.12541 18.071 2.34019 18.6229L6.06781 17.1721ZM5.85793 15.9495C5.81204 14.9419 5.802 14.6622 5.802 12.0005H1.802C1.802 14.6788 1.81196 15.0311 1.86207 16.1315L5.85793 15.9495ZM5.802 12.0005C5.802 9.33777 5.81204 9.05811 5.85793 8.05048L1.86207 7.8685C1.81196 8.96887 1.802 9.32121 1.802 12.0005H5.802ZM5.85797 8.04956C5.87567 7.65707 5.91559 7.39084 5.95345 7.21269C5.98984 7.04141 6.02962 6.92601 6.06781 6.82789L2.34019 5.37708C2.12541 5.92894 1.916 6.67234 1.86203 7.86942L5.85797 8.04956ZM6.06748 6.82873C6.15022 6.61644 6.2158 6.51755 6.36824 6.36468L3.53576 3.5403C2.9902 4.08742 2.62178 4.65453 2.34052 5.37625L6.06748 6.82873ZM6.36217 6.37074C6.51723 6.21656 6.61709 6.15065 6.82924 6.06797L5.37676 2.341C4.65491 2.62232 4.08877 2.99041 3.54183 3.53424L6.36217 6.37074ZM6.8284 6.0683C6.92661 6.03008 7.04235 5.99017 7.21402 5.95361C7.39252 5.91559 7.65891 5.87547 8.05121 5.85736L7.86679 1.86162C6.67157 1.91678 5.9289 2.12611 5.3776 2.34068L6.8284 6.0683ZM8.04801 5.85751C9.05785 5.81252 9.33848 5.80249 12 5.80249V1.80249C9.32152 1.80249 8.97015 1.81246 7.86999 1.86147L8.04801 5.85751Z" fill="black" mask="url(#path-1-outside-1_2335_878)"/>
</svg>
