<svg width="81" height="80" viewBox="0 0 81 80" fill="none" xmlns="http://www.w3.org/2000/svg">
<g clip-path="url(#clip0_192_1814)">
<path d="M80.5 0H0.5V80H80.5V0Z" fill="#FF6200"/>
<path d="M12.6271 18.2056L11.0528 39.1968H10.8321L9.44302 18.2056H5.95361L9.30755 48.0191V60.981H12.7986V47.7058L16.117 18.2056H12.6271Z" fill="black"/>
<path d="M45.0533 18.2056H41.5622V56.8352C41.5622 57.4521 40.8172 57.9522 39.8982 57.9522C38.9793 57.9522 38.2343 57.4521 38.2343 56.8352V18.2056H34.7432V56.7155V57.7332C34.7432 59.5264 37.0512 60.9804 39.8977 60.9804C42.7442 60.9804 45.0522 59.5264 45.0522 57.7332V56.7155V18.2056H45.0533Z" fill="black"/>
<path d="M60.3806 18.2056H56.8896L54.5228 37.0559H53.8969V18.2056H50.4058V60.981H53.8969V41.2502H54.5324L57.2102 60.981H60.7013L57.7447 39.1968L60.3806 18.2056Z" fill="black"/>
<path d="M74.3267 22.4V18.2056H70.9118H67.4207H64.0063V22.4H67.4207V56.786H64.0063V60.981H67.4207H70.9118H74.3267V56.786H70.9118V22.4H74.3267Z" fill="black"/>
<path d="M26.1594 56.8352C26.1594 57.4521 25.4143 57.9522 24.4954 57.9522C23.5765 57.9522 22.8314 57.4521 22.8314 56.8352V18.2056H19.3403V56.7155V57.7332C19.3403 59.5264 21.6483 60.9804 24.4948 60.9804C27.3413 60.9804 29.6494 59.5264 29.6494 57.7332V18.2056H26.1583V56.8352H26.1594Z" fill="black"/>
</g>
<defs>
<clipPath id="clip0_192_1814">
<rect width="80" height="80" fill="white" transform="translate(0.5)"/>
</clipPath>
</defs>
</svg>
