<svg width="77" height="68" viewBox="0 0 77 68" fill="none" xmlns="http://www.w3.org/2000/svg">
<path d="M3.01616 19.5301C1.7053 20.195 0.862678 21.5624 1.01806 23.0206C1.08189 23.6281 1.30614 24.2838 1.79538 24.9492C2.18593 25.482 2.72598 25.8838 3.33826 26.1276C5.55369 27.0072 12.0641 29.0322 17.758 25.2296L18.9431 23.7604L23.6647 17.9139C23.6647 17.9139 27.2658 7.56221 20.803 1.80705C19.675 0.802958 17.9774 0.71666 16.7959 1.65776C15.81 2.44243 14.723 3.73145 14.0461 5.82447C13.6354 7.09879 13.1165 8.33785 12.4343 9.48955C10.7631 12.3206 7.53185 17.0238 3.44955 19.2993C3.30718 19.3787 3.16272 19.4566 3.01616 19.5301Z" fill="#C98444"/>
<path d="M12.4347 9.48987C11.1738 11.6259 9.02476 14.828 6.29196 17.2486C4.40514 18.92 4.40094 21.898 6.36272 23.4806C6.37637 23.4917 6.39023 23.5029 6.40409 23.5138C9.76282 26.1905 14.6071 26.1124 18.9431 23.7607L23.6647 17.9142C23.6647 17.9142 27.2658 7.56253 20.803 1.80737C19.675 0.80328 17.9774 0.716981 16.7959 1.65808C15.81 2.44275 14.723 3.73178 14.0461 5.82479C13.6358 7.09912 13.1167 8.33838 12.4347 9.48987Z" fill="#D18C4D"/>
<path d="M23.6647 17.9135C23.6647 17.9135 27.2657 7.56122 20.8032 1.80775C19.6758 0.804074 17.9788 0.717564 16.7975 1.6574C15.8113 2.44207 14.723 3.73215 14.0475 5.82537C13.6362 7.09991 13.1173 8.3375 12.436 9.49046C10.7033 12.4215 7.30631 17.3561 3.01698 19.531C1.70717 20.1951 0.863699 21.562 1.01887 23.0226C1.08312 23.6277 1.30737 24.2835 1.79661 24.9502C2.18695 25.4818 2.72658 25.8845 3.33971 26.1279C5.55429 27.0073 12.0662 29.0322 17.7586 25.2298L23.6647 17.9135Z" stroke="black" stroke-width="2" stroke-miterlimit="10" stroke-linecap="round" stroke-linejoin="round"/>
<path d="M21.1022 19.9499C21.2605 20.0761 21.482 20.1108 21.679 20.0211C21.958 19.8941 22.0808 19.5646 21.9538 19.2858L19.1114 13.0488C18.9837 12.7695 18.6551 12.6467 18.3761 12.7739C18.097 12.9009 17.974 13.2304 18.1012 13.5092L20.9436 19.7463C20.981 19.8286 21.036 19.8972 21.1022 19.9499Z" fill="black"/>
<path d="M11.0703 22.7364C11.1365 22.7891 11.2158 22.8274 11.3044 22.8456L18.0185 24.2243C18.3188 24.2858 18.6125 24.0924 18.6741 23.7922C18.7358 23.4917 18.5424 23.1984 18.2419 23.1366L11.5278 21.758C11.2276 21.6964 10.934 21.8898 10.8723 22.1901C10.8288 22.4019 10.912 22.6102 11.0703 22.7364Z" fill="black"/>
<path d="M13.6772 17.4369L19.4435 22.0322C19.6832 22.2233 20.0326 22.1838 20.2237 21.944C20.4148 21.7042 20.3753 21.355 20.1355 21.1637L14.3692 16.5685C14.1295 16.3774 13.7803 16.4169 13.589 16.6567C13.3979 16.8967 13.4374 17.2458 13.6772 17.4369Z" fill="black"/>
<path d="M19.4281 4.42693C17.9831 4.78703 17.3397 7.19878 17.9912 9.81379C18.6428 12.4288 20.3427 14.2566 21.7878 13.8965C23.233 13.5364 23.8762 11.1247 23.2246 8.50964C22.5729 5.89485 20.8731 4.06682 19.4281 4.42693Z" fill="#D99355"/>
<path d="M40.3047 14.387L70.3466 27.6481L71.1792 25.0035L72.3569 21.2594C72.6754 20.2467 72.2885 19.1433 71.4032 18.5543C67.2201 15.7718 54.8714 8.6226 43.7176 12.7341C42.5646 13.158 41.4222 13.7044 40.3047 14.387Z" fill="#D18C4D"/>
<path d="M40.3052 14.387L70.3471 27.6481L71.1797 25.0035C68.6002 21.8799 65.3666 19.2918 61.7109 17.3867C55.3853 14.0893 49.2026 12.8678 43.7181 12.7339C42.5652 13.158 41.4227 13.7044 40.3052 14.387Z" fill="#C98444"/>
<path d="M70.347 27.6479L72.3575 21.2597C72.6767 20.2458 72.2897 19.1432 71.4047 18.5542C66.7878 15.4827 52.2293 7.09514 40.3045 14.3865L70.347 27.6479Z" stroke="black" stroke-width="2" stroke-miterlimit="10" stroke-linecap="round" stroke-linejoin="round"/>
<path d="M66.2207 18.7068L64.4458 24.8645" stroke="black" stroke-width="2" stroke-miterlimit="10" stroke-linecap="round" stroke-linejoin="round"/>
<path d="M59.9307 15.8119L57.9338 22.1688" stroke="black" stroke-width="2" stroke-miterlimit="10" stroke-linecap="round" stroke-linejoin="round"/>
<path d="M53.106 14.1261L51.5442 19.3481" stroke="black" stroke-width="2" stroke-miterlimit="10" stroke-linecap="round" stroke-linejoin="round"/>
<path d="M18.7706 52.6335C24.8718 59.4125 31.8452 62.2748 36.5094 63.4845C39.7148 64.3154 41.8315 64.3636 41.8315 64.3636C28.8418 56.4369 22.9688 44.8534 22.9688 44.8534L20.6415 46.8151L19.0847 48.1273C17.7302 49.2712 17.5849 51.3136 18.7706 52.6335Z" fill="#D18C4D"/>
<path d="M20.6415 46.8151C23.2237 51.3464 26.3435 55.0394 28.9434 57.6991C31.1855 59.9884 33.7327 61.9445 36.5094 63.4845C39.7148 64.3154 41.8315 64.3636 41.8315 64.3636C28.8418 56.4369 22.9688 44.8534 22.9688 44.8534L20.6415 46.8151Z" fill="#C98444"/>
<path d="M41.832 64.3635C41.832 64.3635 29.061 64.0664 18.7711 52.6323C17.5843 51.3135 17.7292 49.2711 19.0854 48.1273L22.9693 44.8524C22.9693 44.8524 28.8433 56.4368 41.832 64.3635Z" stroke="black" stroke-width="2" stroke-miterlimit="10" stroke-linecap="round" stroke-linejoin="round"/>
<path d="M25.4634 48.8646L21.7361 52.0398" stroke="black" stroke-width="2" stroke-miterlimit="10" stroke-linecap="round" stroke-linejoin="round"/>
<path d="M33.7505 58.5418L31.9103 60.1481" stroke="black" stroke-width="2" stroke-miterlimit="10" stroke-linecap="round" stroke-linejoin="round"/>
<path d="M29.5679 54.0564L26.6715 56.663" stroke="black" stroke-width="2" stroke-miterlimit="10" stroke-linecap="round" stroke-linejoin="round"/>
<path d="M18.4121 22.5709C18.0543 23.4047 17.832 24.3036 17.7583 25.2302C16.6164 39.6119 25.2153 51.0107 31.1256 57.0525C34.1876 60.1799 37.8244 62.6861 41.83 64.3621L41.8317 64.3636C43.2662 64.9616 44.7491 65.4561 46.2693 65.8328C56.441 68.3589 63.7611 64.8641 67.8476 61.8565C70.2825 60.0627 72.2165 57.6711 73.4919 54.9305C75.0961 51.4781 75.8295 48.1809 75.9736 45.1067C76.1523 41.2623 75.4069 37.7719 74.2791 34.7687C73.3132 32.1929 71.9814 29.8055 70.3488 27.6495L70.3471 27.6481C67.6494 24.0813 64.1302 21.146 60.0971 19.045C40.296 8.72591 21.9004 18.7427 21.9004 18.7427C21.8066 18.7929 21.7144 18.8443 21.6254 18.8955C20.1631 19.7466 19.0639 21.0513 18.4121 22.5709Z" fill="#C98444"/>
<path d="M21.3554 19.0602C19.4988 20.2489 18.3509 22.2865 18.1876 24.4851C17.4886 33.8908 22.505 44.6877 32.1038 52.337C45.8568 63.297 63.8101 63.6447 72.2042 53.1116C72.3222 52.9633 72.4379 52.8138 72.5509 52.6631C75.4865 48.7458 76.4656 43.7138 75.4826 38.9182C75.1819 37.4514 74.7663 36.0645 74.2794 34.7685C73.3135 32.1928 71.9817 29.8054 70.3491 27.6494L70.3474 27.6479C67.6497 24.0811 64.1306 21.1459 60.0974 19.0449C40.2963 8.72575 21.9007 18.7425 21.9007 18.7425C21.8069 18.7927 21.7147 18.8442 21.6257 18.8954C21.5339 18.9485 21.444 19.0035 21.3554 19.0602Z" fill="#D18C4D"/>
<path d="M21.0394 23.5608C20.3764 22.0729 20.5359 20.278 21.6013 18.9101C21.6093 18.9052 21.6169 18.9 21.6251 18.8952C21.7141 18.8439 21.8063 18.7925 21.9001 18.7423C21.9001 18.7423 23.2183 18.025 25.527 17.1721C25.7099 17.1856 25.8926 17.2082 26.0736 17.2439C26.0391 17.1665 26.008 17.0877 25.978 17.0086C26.285 16.8992 26.6077 16.7883 26.9449 16.6768C27.1089 17.0938 27.351 17.4848 27.6736 17.822C28.7654 16.7452 30.3043 16.3184 31.7487 16.6025C31.5843 16.2335 31.4724 15.8453 31.4102 15.4497C31.7363 15.3775 32.0685 15.3074 32.4078 15.2402C32.5097 15.9524 32.8271 16.6354 33.3487 17.1807C34.4406 16.104 35.9795 15.6771 37.4241 15.9612C37.2259 15.5165 37.1028 15.0443 37.0539 14.5645C37.3886 14.5336 37.7285 14.5074 38.071 14.4838C38.1539 15.2374 38.4746 15.965 39.0243 16.5395C40.1161 15.4627 41.655 15.0359 43.0994 15.32C42.9697 15.0289 42.8735 14.7259 42.8074 14.4169C43.1603 14.4313 43.5158 14.4505 43.8742 14.4744C44.0307 14.9962 44.306 15.4865 44.6994 15.898C45.2641 15.3412 45.9486 14.9582 46.6774 14.7572C48.2238 14.9676 49.8096 15.2759 51.423 15.696C51.1983 15.8678 50.989 16.0656 50.8048 16.2965C49.6926 17.692 49.815 19.6765 51.0159 20.9319C52.517 19.4516 54.8638 19.1986 56.6465 20.3341C57.5464 19.4218 58.763 18.9613 59.9811 18.9865C60.0197 19.0065 60.0581 19.0249 60.0968 19.0451C61.0354 19.5341 61.945 20.0702 62.8239 20.647C62.8147 20.661 62.8073 20.6759 62.7966 20.6894C62.6213 20.9092 62.3011 20.9456 62.081 20.7702C60.5591 19.5574 58.3343 19.8088 57.1212 21.3306C56.0092 22.7261 56.1314 24.7106 57.3323 25.966C58.8334 24.4857 61.1802 24.2327 62.9629 25.368C64.0894 24.2262 65.7108 23.7934 67.2113 24.134C67.7961 24.6938 68.3578 25.276 68.8942 25.8803C68.7319 25.9414 68.5432 25.92 68.3977 25.8039C66.8758 24.5911 64.6509 24.8424 63.4381 26.3643C62.3259 27.76 62.4483 29.7443 63.6491 30.9997C65.1502 29.5194 67.4971 29.2664 69.2797 30.4017C69.8855 29.7877 70.6345 29.3781 71.4309 29.1834C71.6317 29.4881 71.8276 29.7961 72.0168 30.1088C71.1561 30.2314 70.338 30.6661 69.7547 31.3982C68.6425 32.7937 68.7649 34.7782 69.9657 36.0336C71.1284 34.8869 72.7979 34.4804 74.3202 34.8815C74.4715 35.2895 74.6154 35.7065 74.751 36.1319C73.2894 35.3892 71.4568 35.7424 70.396 37.0734C69.2837 38.4689 69.4062 40.4533 70.607 41.7088C71.6988 40.632 73.2377 40.2051 74.6822 40.4892C74.1125 39.2113 74.1513 37.7077 74.8482 36.4416C75.0259 37.0213 75.1867 37.6168 75.3289 38.2268C75.2487 38.938 75.3843 39.664 75.7263 40.3009C75.8903 41.4028 75.985 42.5457 75.9966 43.7245C75.9374 44.0836 75.9319 44.4485 75.9836 44.8063C75.955 45.6409 75.8834 46.4922 75.7625 47.3591C74.3514 46.7874 72.6748 47.1742 71.6789 48.4241C70.5667 49.8196 70.6891 51.8041 71.8899 53.0595C72.675 52.2853 73.6915 51.849 74.7374 51.7696C74.621 52.1264 74.4976 52.4848 74.3632 52.8455C73.5838 53.0068 72.8539 53.4299 72.3204 54.0995C71.4704 55.1659 71.3421 56.5768 71.8637 57.7434C71.5181 58.2343 71.1496 58.7084 70.7571 59.1624C69.4977 58.9054 68.1413 59.3438 67.2867 60.4161C66.7355 61.1078 66.4898 61.9445 66.5253 62.7657C66.2185 62.9631 65.8979 63.1594 65.5643 63.3534C65.391 62.2977 65.5861 61.1852 66.177 60.2288C64.6853 59.3385 62.7235 59.6621 61.6113 61.0576C60.6194 62.3023 60.6121 64.014 61.4736 65.2606C59.2338 66.0652 56.6383 66.6261 53.7025 66.6918C53.6388 66.691 53.5754 66.6939 53.512 66.6964C52.6679 66.709 51.7967 66.6813 50.8974 66.6057C51.9437 65.8042 53.2817 65.5073 54.5472 65.7562C53.9479 64.4115 54.0206 62.8161 54.8265 61.5115C53.3348 60.6213 51.373 60.9448 50.2608 62.3403C49.2731 63.5796 49.2613 65.282 50.1113 66.5272C49.6989 66.4806 49.2808 66.4239 48.8573 66.3569C48.2772 65.0208 48.353 63.4448 49.1509 62.153C47.6592 61.2627 45.6974 61.5861 44.5854 62.9818C44.0832 63.6119 43.8358 64.3626 43.822 65.112C43.4864 64.9982 43.1526 64.8801 42.8217 64.755C42.8865 64.055 43.1116 63.3635 43.5081 62.7411C42.0036 61.2568 41.7262 58.9129 42.8342 57.1191C41.3424 56.2288 39.3808 56.5522 38.2688 57.9479C37.056 59.4698 37.3073 61.6946 38.8292 62.9077C38.8351 62.9125 38.8395 62.9184 38.8452 62.9232C38.1292 62.5308 37.4281 62.1108 36.7433 61.6646C36.2904 60.3783 36.4231 58.9135 37.1914 57.7073C35.6868 56.2229 35.4096 53.8788 36.5176 52.0852C35.026 51.1949 33.0644 51.5185 31.9522 52.914C30.7394 54.4359 30.9907 56.661 32.5126 57.8738C32.7068 58.0285 32.7572 58.2964 32.6457 58.5083C32.1252 58.039 31.6173 57.5548 31.1255 57.0526C30.8553 56.7762 30.5777 56.485 30.2974 56.1864C30.0143 55.015 30.1937 53.7427 30.8748 52.6734C29.3701 51.1891 29.093 48.8449 30.201 47.0513C28.7094 46.1608 26.7478 46.4844 25.6356 47.8801C25.2458 48.3691 25.0092 48.9312 24.9153 49.5086C24.6655 49.1429 24.4179 48.7706 24.1731 48.3907C24.2764 48.1323 24.4045 47.8807 24.558 47.6395C23.0533 46.1552 22.7761 43.811 23.8842 42.0174C22.8855 41.4213 21.6771 41.372 20.6533 41.8215C20.5193 41.5103 20.3883 41.1968 20.2611 40.8796C21.1096 40.5111 22.0551 40.408 22.9634 40.5867C22.3642 39.242 22.4368 37.6466 23.2427 36.3421C21.8518 35.512 20.0534 35.738 18.9149 36.9031C18.8135 36.5377 18.7182 36.1688 18.6279 35.7972C19.6807 34.9695 21.0384 34.6589 22.3222 34.9115C21.7229 33.5668 21.7954 31.9715 22.6012 30.6669C21.1094 29.7764 19.148 30.1 18.0358 31.4957C17.9816 31.5635 17.9329 31.634 17.8846 31.7046C17.8304 31.2473 17.7876 30.7851 17.7521 30.32C18.8326 29.3447 20.2991 28.9646 21.6805 29.2363C21.0812 27.8917 21.1539 26.2963 21.96 24.9917C20.6138 24.1882 18.887 24.3765 17.7452 25.4457C17.7504 25.3735 17.7521 25.3025 17.758 25.2303C17.7897 24.8313 17.8523 24.4383 17.9384 24.0521C18.8826 23.5265 19.9858 23.3535 21.0394 23.5608ZM28.1036 18.8624C26.9913 20.2579 27.1138 22.2423 28.3146 23.4978C29.4065 22.421 30.9454 21.9942 32.39 22.2783C31.7907 20.9336 31.8631 19.3382 32.6692 18.0336C31.1774 17.1432 29.2158 17.4667 28.1036 18.8624ZM38.7066 27.3119C38.1073 25.9673 38.1798 24.3719 38.9859 23.0673C37.494 22.177 35.5326 22.5006 34.4204 23.8961C33.3082 25.2916 33.4306 27.276 34.6314 28.5315C35.7231 27.4547 37.262 27.0278 38.7066 27.3119ZM35.0615 29.5715C33.9492 30.9669 34.0719 32.9514 35.2727 34.2068C36.3646 33.1301 37.9034 32.7032 39.3479 32.9873C38.7486 31.6426 38.8212 30.0475 39.6271 28.7427C38.1355 27.8522 36.1737 28.1758 35.0615 29.5715ZM40.3066 27.8902C41.3985 26.8135 42.9373 26.3866 44.3818 26.6707C43.7825 25.326 43.8551 23.7308 44.661 22.4261C43.1692 21.5356 41.2076 21.8592 40.0954 23.2548C38.9833 24.6503 39.1058 26.6348 40.3066 27.8902ZM40.7368 28.93C39.6246 30.3255 39.747 32.3099 40.9479 33.5654C42.0397 32.4886 43.5786 32.0617 45.0232 32.3458C44.424 31.0012 44.4966 29.4058 45.3025 28.1012C43.8106 27.2107 41.8491 27.5345 40.7368 28.93ZM41.3783 34.6052C40.2661 36.0006 40.3887 37.9851 41.5895 39.2405C42.6814 38.1638 44.2203 37.7369 45.6647 38.021C45.0654 36.6763 45.1381 35.081 45.944 33.7764C44.4521 32.8861 42.4903 33.2097 41.3783 34.6052ZM46.6232 32.9241C47.7151 31.8474 49.254 31.4205 50.6984 31.7046C50.0991 30.3599 50.1718 28.7645 50.9776 27.46C49.4858 26.5695 47.5242 26.893 46.412 28.2887C45.3 29.6842 45.4224 31.6687 46.6232 32.9241ZM47.0535 33.9639C45.9412 35.3594 46.0636 37.3438 47.2645 38.5993C48.3563 37.5225 49.8952 37.0956 51.3396 37.3797C50.7404 36.0351 50.813 34.4397 51.6189 33.1351C50.1273 32.2448 48.1657 32.5684 47.0535 33.9639ZM47.6949 39.6391C46.5827 41.0345 46.7051 43.019 47.9062 44.2744C48.998 43.1977 50.5369 42.7708 51.9813 43.0549C51.3821 41.7102 51.4547 40.1148 52.2606 38.8103C50.7687 37.92 48.8071 38.2436 47.6949 39.6391ZM52.9398 37.9578C54.0317 36.8811 55.5706 36.4542 57.015 36.7383C56.4157 35.3936 56.4884 33.7984 57.2943 32.4937C55.8024 31.6032 53.8408 31.9269 52.7288 33.3224C51.6166 34.7181 51.739 36.7024 52.9398 37.9578ZM53.3701 38.9978C52.2578 40.3933 52.3803 42.3777 53.5811 43.6332C54.673 42.5564 56.2119 42.1295 57.6563 42.4136C57.057 41.069 57.1296 39.4736 57.9355 38.169C56.4439 37.2785 54.4823 37.6021 53.3701 38.9978ZM54.0115 44.6729C52.8993 46.0686 53.0217 48.0529 54.2228 49.3083C55.3146 48.2316 56.8535 47.8047 58.2979 48.0888C57.6987 46.7441 57.7713 45.1488 58.5772 43.8442C57.0853 42.9539 55.1238 43.2775 54.0115 44.6729ZM59.2565 42.9917C60.3483 41.915 61.8872 41.4881 63.3316 41.7722C62.7324 40.4275 62.805 38.8321 63.6109 37.5276C62.119 36.6371 60.1575 36.9608 59.0452 38.3563C57.9332 39.752 58.0556 41.7363 59.2565 42.9917ZM59.6867 44.0317C58.5745 45.4272 58.6969 47.4116 59.8977 48.6671C60.9896 47.5903 62.5285 47.1634 63.9729 47.4475C63.3736 46.1029 63.4463 44.5075 64.2521 43.2029C62.7605 42.3124 60.7989 42.636 59.6867 44.0317ZM60.3282 49.7069C59.2159 51.1023 59.3384 53.0868 60.5394 54.3422C61.6313 53.2655 63.1702 52.8386 64.6146 53.1227C64.0153 51.778 64.0879 50.1826 64.8938 48.8781C63.402 47.9878 61.4404 48.3114 60.3282 49.7069ZM59.2185 49.5196C57.7266 48.6291 55.765 48.9526 54.653 50.3483C53.5408 51.7438 53.6632 53.7283 54.864 54.9837C55.9559 53.9069 57.4948 53.4801 58.9392 53.7642C58.3399 52.4195 58.4126 50.8241 59.2185 49.5196ZM53.5433 50.1608C52.0514 49.2705 50.0899 49.5941 48.9776 50.9896C47.8654 52.3851 47.9878 54.3695 49.1889 55.6249C50.2807 54.5482 51.8196 54.1213 53.264 54.4054C52.6648 53.0608 52.7374 51.4656 53.5433 50.1608ZM52.6226 48.7303C52.0233 47.3856 52.096 45.7904 52.9018 44.4857C51.41 43.5954 49.4484 43.9187 48.3364 45.3144C47.2242 46.7099 47.3466 48.6944 48.5474 49.9498C49.6393 48.873 51.1782 48.4462 52.6226 48.7303ZM47.2267 45.1269C45.7348 44.2366 43.7733 44.5602 42.661 45.9557C41.5488 47.3512 41.6712 49.3356 42.8723 50.5908C43.9641 49.5141 45.503 49.0872 46.9474 49.3713C46.3479 48.0271 46.4208 46.4317 47.2267 45.1269ZM46.3059 43.6964C45.7067 42.3517 45.7791 40.7563 46.585 39.4518C45.0934 38.5615 43.1318 38.885 42.0196 40.2805C40.9075 41.676 41.0297 43.6605 42.2306 44.9159C43.3224 43.8391 44.8615 43.4123 46.3059 43.6964ZM40.9101 40.093C39.4182 39.2027 37.4566 39.5263 36.3444 40.9218C35.2322 42.3173 35.3548 44.3017 36.5556 45.5571C37.6475 44.4804 39.1864 44.0535 40.6308 44.3376C40.0315 42.9932 40.104 41.3978 40.9101 40.093ZM39.9893 38.6625C39.3901 37.3178 39.4625 35.7224 40.2684 34.4179C38.7765 33.5274 36.8152 33.8511 35.7029 35.2466C34.5907 36.6421 34.7131 38.6266 35.914 39.882C37.0058 38.8052 38.5449 38.3784 39.9893 38.6625ZM34.5934 35.0593C33.1016 34.1688 31.14 34.4926 30.0278 35.8881C28.9155 37.2836 29.0382 39.268 30.239 40.5235C31.3309 39.4467 32.8698 39.0198 34.3142 39.3039C33.7147 37.9593 33.7873 36.3639 34.5934 35.0593ZM33.6727 33.6286C33.0732 32.2839 33.1459 30.6885 33.9517 29.384C32.4599 28.4937 30.4985 28.8172 29.3863 30.2127C28.2741 31.6084 28.3965 33.5927 29.5973 34.8481C30.6892 33.7713 32.2283 33.3445 33.6727 33.6286ZM33.0312 27.9534C32.432 26.6087 32.5046 25.0134 33.3105 23.7088C31.8186 22.8183 29.8571 23.1419 28.7448 24.5376C27.6326 25.933 27.7552 27.9175 28.9561 29.1729C30.0479 28.096 31.5868 27.6693 33.0312 27.9534ZM33.7787 18.2209C32.6665 19.6164 32.7889 21.6009 33.99 22.8563C35.0818 21.7796 36.6207 21.3527 38.0651 21.6368C37.4659 20.2921 37.5385 18.6969 38.3444 17.3922C36.8525 16.5019 34.891 16.8253 33.7787 18.2209ZM39.4541 17.5795C38.3419 18.975 38.4643 20.9594 39.6651 22.2148C40.757 21.1381 42.2959 20.7112 43.7403 20.9953C43.141 19.6506 43.2135 18.0553 44.0195 16.7507C42.5277 15.8604 40.5663 16.184 39.4541 17.5795ZM49.6949 16.1095C48.2031 15.219 46.2415 15.5425 45.1293 16.9382C44.017 18.3337 44.1397 20.3182 45.3405 21.5736C46.4324 20.4968 47.9712 20.07 49.4156 20.3541C48.8162 19.0094 48.889 17.414 49.6949 16.1095ZM45.7707 22.6134C44.6585 24.0089 44.7809 25.9933 45.9817 27.2487C47.0736 26.172 48.6125 25.7451 50.0571 26.0292C49.4579 24.6845 49.5303 23.0892 50.3364 21.7846C48.8445 20.8943 46.883 21.2179 45.7707 22.6134ZM56.0115 21.1434C54.5197 20.2529 52.5581 20.5764 51.4459 21.9721C50.3337 23.3678 50.4561 25.3521 51.6571 26.6075C52.749 25.5307 54.2879 25.1039 55.7323 25.388C55.133 24.0433 55.2057 22.4479 56.0115 21.1434ZM52.0873 27.6473C50.9751 29.0427 51.0975 31.0272 52.2984 32.2826C53.3902 31.2059 54.9291 30.779 56.3735 31.0631C55.7743 29.7184 55.8469 28.1231 56.6528 26.8185C55.1611 25.9282 53.1996 26.2518 52.0873 27.6473ZM62.3282 26.177C60.8363 25.2868 58.8747 25.6103 57.7627 27.0058C56.6505 28.4015 56.7729 30.3857 57.9737 31.6412C59.0656 30.5644 60.6045 30.1376 62.0489 30.4216C61.4496 29.0772 61.5223 27.4818 62.3282 26.177ZM58.404 32.6812C57.2917 34.0766 57.4142 36.0611 58.615 37.3165C59.7069 36.2398 61.2458 35.8129 62.6902 36.097C62.0909 34.7523 62.1635 33.157 62.9694 31.8524C61.4778 30.9619 59.5162 31.2855 58.404 32.6812ZM68.6448 31.2109C67.1531 30.3204 65.1914 30.6442 64.0793 32.0397C62.9671 33.4352 63.0895 35.4196 64.2904 36.6751C65.3822 35.5983 66.9211 35.1715 68.3655 35.4555C67.7663 34.1109 67.8389 32.5157 68.6448 31.2109ZM69.2863 36.8863C67.7944 35.996 65.8328 36.3196 64.7206 37.7151C63.6084 39.1106 63.7308 41.095 64.9316 42.3504C66.0235 41.2737 67.5624 40.8468 69.0068 41.1309C68.4077 39.7862 68.4804 38.1909 69.2863 36.8863ZM65.3621 43.3902C64.2498 44.7857 64.3723 46.7702 65.5731 48.0256C66.665 46.9489 68.2038 46.522 69.6483 46.8061C69.049 45.4614 69.1216 43.866 69.9275 42.5615C68.4359 41.6712 66.4743 41.9947 65.3621 43.3902ZM75.3236 46.1646C74.7244 44.8199 74.797 43.2246 75.6029 41.92C74.111 41.0295 72.1495 41.3531 71.0374 42.7488C69.9252 44.1442 70.0476 46.1287 71.2485 47.3841C72.3403 46.3074 73.8792 45.8805 75.3236 46.1646ZM70.569 48.2368C69.0771 47.3465 67.1156 47.6699 66.0035 49.0656C64.8913 50.4611 65.0137 52.4455 66.2146 53.701C67.3064 52.6242 68.8453 52.1973 70.2897 52.4814C69.6905 51.1368 69.7631 49.5414 70.569 48.2368ZM70.9312 58.1566C70.3319 56.8119 70.4046 55.2165 71.2105 53.912C69.7186 53.0217 67.757 53.3453 66.645 54.7408C65.5328 56.1362 65.6552 58.1207 66.8562 59.3761C67.9479 58.2992 69.4868 57.8725 70.9312 58.1566ZM65.2558 58.7979C64.6566 57.4532 64.7292 55.858 65.5351 54.5532C64.0432 53.6627 62.0817 53.9863 60.9696 55.382C59.8574 56.7775 59.9798 58.7619 61.1807 60.0174C62.2725 58.9406 63.8114 58.5138 65.2558 58.7979ZM56.1468 66.3342C57.2386 65.2575 58.7775 64.8306 60.2219 65.1147C59.6227 63.77 59.6953 62.1749 60.5012 60.8701C59.0095 59.9796 57.0478 60.3032 55.9357 61.6988C54.8235 63.0943 54.9459 65.0788 56.1468 66.3342ZM59.5807 59.4393C58.9814 58.0947 59.0541 56.4993 59.8599 55.1947C58.3681 54.3044 56.4065 54.628 55.2943 56.0235C54.182 57.419 54.3045 59.4034 55.5055 60.6588C56.5974 59.5821 58.1363 59.1552 59.5807 59.4393ZM53.9055 60.0808C53.3062 58.7361 53.3789 57.141 54.1848 55.8362C52.6929 54.9457 50.7313 55.2693 49.6193 56.6649C48.5071 58.0604 48.6295 60.0449 49.8303 61.3003C50.922 60.2236 52.4609 59.7965 53.9055 60.0808ZM44.155 61.9416C45.2468 60.8648 46.7857 60.438 48.2301 60.722C47.6309 59.3774 47.7035 57.782 48.5094 56.4774C47.0175 55.5872 45.056 55.9107 43.9437 57.3062C42.8317 58.7019 42.9541 60.6861 44.155 61.9416ZM47.5887 55.0469C46.9894 53.7022 47.0621 52.1071 47.8679 50.8023C46.3761 49.912 44.4145 50.2354 43.3025 51.631C42.1903 53.0265 42.3127 55.011 43.5135 56.2664C44.6054 55.1897 46.1443 54.7628 47.5887 55.0469ZM37.8384 56.9077C38.9302 55.8309 40.4691 55.4041 41.9135 55.6881C41.3143 54.3435 41.3869 52.7481 42.1928 51.4435C40.7009 50.5533 38.7394 50.8768 37.6271 52.2723C36.5151 53.668 36.6375 55.6522 37.8384 56.9077ZM41.272 50.013C40.6728 48.6683 40.7452 47.0729 41.5511 45.7684C40.0595 44.8781 38.0979 45.2017 36.9857 46.5971C35.8736 47.9926 35.9958 49.9771 37.1967 51.2325C38.2887 50.1558 39.8276 49.7289 41.272 50.013ZM31.5217 51.8738C32.6136 50.797 34.1525 50.3702 35.5969 50.6542C34.9976 49.3096 35.0703 47.7142 35.8762 46.4096C34.3843 45.5191 32.4227 45.8427 31.3105 47.2384C30.1983 48.6341 30.3209 50.6183 31.5217 51.8738ZM34.9554 44.9791C34.3562 43.6344 34.4286 42.039 35.2345 40.7345C33.7428 39.844 31.7813 40.1678 30.669 41.5632C29.5568 42.9589 29.6792 44.9432 30.8801 46.1986C31.9719 45.1219 33.511 44.695 34.9554 44.9791ZM25.2051 46.8401C26.297 45.7633 27.8359 45.3365 29.2803 45.6206C28.681 44.2759 28.7537 42.6805 29.5597 41.376C28.0679 40.4855 26.1063 40.809 24.9941 42.2047C23.8816 43.6002 24.0043 45.5847 25.2051 46.8401ZM24.5636 41.1647C25.6555 40.088 27.1944 39.6611 28.639 39.9452C28.0397 38.6005 28.1122 37.0054 28.9181 35.7006C27.4264 34.8103 25.4648 35.1337 24.3526 36.5294C23.2404 37.925 23.3626 39.9093 24.5636 41.1647ZM23.9222 35.4896C25.014 34.4128 26.5529 33.9859 27.9973 34.27C27.3981 32.9254 27.4707 31.33 28.2766 30.0254C26.7847 29.1349 24.8232 29.4587 23.7109 30.8542C22.5987 32.2497 22.7213 34.2341 23.9222 35.4896ZM23.2807 29.8142C24.3726 28.7374 25.9115 28.3106 27.3561 28.5947C26.7568 27.25 26.8293 25.6546 27.6351 24.3501C26.1433 23.4596 24.1819 23.7831 23.0697 25.1788C21.9577 26.5745 22.0799 28.5588 23.2807 29.8142ZM26.7146 22.9195C26.1153 21.5748 26.188 19.9797 26.9939 18.6749C25.502 17.7844 23.5404 18.108 22.4282 19.5037C21.316 20.8991 21.4386 22.8836 22.6394 24.139C23.7313 23.0623 25.2702 22.6354 26.7146 22.9195Z" fill="#DE9859"/>
<path d="M61.3754 19.7519C61.4137 19.7742 61.4525 19.7956 61.4905 19.8178C61.9424 20.0837 62.3867 20.36 62.8236 20.6468C62.8144 20.6609 62.807 20.6758 62.7963 20.6892C62.621 20.9091 62.3008 20.9454 62.0807 20.7701C60.5589 19.5573 58.334 19.8086 57.121 21.3305C56.009 22.726 56.1312 24.7104 57.332 25.9659C58.8331 24.4855 61.18 24.2325 62.9626 25.3679C64.0891 24.226 65.7106 23.7933 67.211 24.1338C67.7958 24.6936 68.3575 25.2759 68.894 25.8802C68.7316 25.9413 68.5429 25.9199 68.3974 25.8038C66.8755 24.591 64.6506 24.8423 63.4378 26.3642C62.3256 27.7599 62.448 29.7441 63.6488 30.9996C65.1499 29.5192 67.4968 29.2662 69.2795 30.4015C69.8852 29.7876 70.6342 29.3779 71.4306 29.1833C71.6314 29.4879 71.8273 29.7958 72.0165 30.1084L72.0167 30.1086C71.156 30.2313 70.3379 30.6659 69.7546 31.3981C68.6424 32.7936 68.7648 34.778 69.9657 36.0335C71.1281 34.887 72.7969 34.4805 74.319 34.8809C74.4093 35.1241 74.4965 35.3706 74.5813 35.6198C74.6164 35.7229 74.6506 35.8268 74.6846 35.931C74.706 35.9965 74.7258 36.0637 74.747 36.1296C73.2862 35.3899 71.4558 35.7433 70.3961 37.0732C69.2839 38.4687 69.4063 40.4532 70.6071 41.7086C71.699 40.6319 73.2379 40.205 74.6823 40.4891C74.1135 39.2129 74.1515 37.7111 74.8459 36.446C74.8606 36.4941 74.8763 36.5412 74.8908 36.5895C74.938 36.7465 74.983 36.9057 75.0277 37.065C75.0724 37.2244 75.1159 37.3848 75.1581 37.5465C75.2028 37.7181 75.2465 37.8904 75.2883 38.0645C75.3021 38.1223 75.3145 38.1813 75.328 38.2394C75.2526 38.9302 75.3817 39.6341 75.7047 40.2564C76.0045 42.5926 75.8434 44.9546 75.2251 47.1897C73.9447 46.8966 72.5509 47.3294 71.6786 48.4238C70.5664 49.8192 70.6888 51.8037 71.8896 53.0591C72.1481 52.8042 72.4335 52.5896 72.735 52.4086C72.6739 52.4937 72.613 52.5787 72.5502 52.6627C72.4373 52.8137 72.3216 52.9632 72.2036 53.1112C71.7773 53.646 71.3252 54.1512 70.8517 54.6299C70.949 54.3834 71.0674 54.1428 71.2104 53.9116C69.7185 53.0213 67.757 53.3449 66.6449 54.7404C65.8519 55.7354 65.6898 57.0287 66.0954 58.1447C65.7933 58.3043 65.4861 58.4554 65.1753 58.6005C64.6668 57.2989 64.7682 55.7944 65.5352 54.5529C64.0434 53.6624 62.0818 53.9859 60.9698 55.3816C59.8584 56.7763 59.98 58.7586 61.1783 60.0143C60.5458 60.1736 59.9019 60.3082 59.2482 60.4183C58.5794 60.3126 57.8916 60.401 57.2707 60.6736C55.2003 60.8619 53.0506 60.8172 50.8646 60.539C51.7952 60.0391 52.8741 59.8774 53.9054 60.0802C53.3062 58.7355 53.3788 57.1404 54.1847 55.8356C52.6928 54.9451 50.7313 55.2687 49.6193 56.6644C48.7773 57.7207 48.6441 59.1143 49.1495 60.274C48.7645 60.2041 48.3787 60.1279 47.9924 60.0439C47.6764 58.8626 47.8355 57.5683 48.5098 56.4771C47.0179 55.5868 45.0563 55.9104 43.9441 57.3058C43.6147 57.7193 43.3961 58.185 43.2793 58.6677C42.9602 58.5508 42.6414 58.4305 42.3231 58.3038C42.435 57.8935 42.6026 57.4935 42.8344 57.1185C41.7763 56.4869 40.4831 56.4691 39.423 57.0085C39.0698 56.8332 38.7179 56.6507 38.3672 56.4632C39.3975 55.7191 40.6891 55.4471 41.9139 55.688C41.3146 54.3433 41.3873 52.7479 42.1931 51.4434C40.7013 50.5531 38.7397 50.8767 37.6275 52.2721C36.8142 53.2926 36.6639 54.627 37.1099 55.7619C36.6962 55.5215 36.2847 55.2727 35.8755 55.015C35.7558 54.0183 35.9632 52.9825 36.5178 52.0849C35.1821 51.2878 33.4717 51.4665 32.3298 52.5136C32.2545 52.4544 32.1787 52.3967 32.1035 52.3368C31.9093 52.1821 31.7201 52.024 31.5296 51.8667C32.6211 50.7952 34.156 50.3708 35.5972 50.6543C34.998 49.3096 35.0706 47.7143 35.8765 46.4097C34.3846 45.5192 32.4231 45.8428 31.3108 47.2385C30.2121 48.6174 30.3204 50.5699 31.4816 51.8272C30.8288 51.2863 30.1963 50.7322 29.5882 50.1634C29.4188 49.1114 29.6126 48.0038 30.2011 47.051C29.0767 46.3797 27.6855 46.3992 26.5921 47.0468C26.3675 46.7866 26.1474 46.5243 25.9311 46.2604C26.9264 45.6191 28.1329 45.3945 29.2804 45.6202C28.6811 44.2755 28.7538 42.6801 29.5599 41.3756C28.068 40.4851 26.1065 40.8087 24.9942 42.2044C24.5558 42.7543 24.3122 43.3959 24.248 44.0483C23.9796 43.6683 23.7193 43.2855 23.4679 42.9C23.5744 42.5962 23.7102 42.2993 23.8847 42.0171C23.4933 41.7834 23.0696 41.6349 22.6373 41.5665C22.4281 41.2139 22.2272 40.8597 22.0321 40.5038C22.3435 40.5002 22.656 40.5258 22.964 40.5863C22.3647 39.2416 22.4374 37.6463 23.2433 36.3417C22.2469 35.747 21.0423 35.6971 20.0202 36.1435C19.8994 35.8233 19.7848 35.5024 19.6754 35.1816C20.5094 34.8318 21.4337 34.7362 22.3225 34.9111C21.7233 33.5665 21.7957 31.9711 22.6016 30.6665C21.3245 29.9043 19.705 30.0343 18.5669 30.9622C18.4983 30.5886 18.4359 30.2157 18.3832 29.8436C19.3682 29.227 20.5529 29.0138 21.6808 29.2358C21.0816 27.8911 21.1542 26.2957 21.9603 24.9912C20.7654 24.2781 19.2716 24.3478 18.1522 25.1197C18.1621 24.9076 18.1716 24.6953 18.1873 24.4845C18.2022 24.285 18.2278 24.0876 18.2587 23.8915C19.1274 23.4943 20.1029 23.376 21.0398 23.5604C20.3767 22.0725 20.5363 20.2777 21.6017 18.9097C21.6097 18.9049 21.6172 18.8996 21.6254 18.8948C21.7144 18.8436 21.8066 18.7921 21.9005 18.7419C21.9005 18.7419 21.9057 18.739 21.9154 18.734C21.916 18.7335 21.9177 18.7327 21.9185 18.7323C21.9282 18.7272 21.9416 18.7199 21.9591 18.7109C21.9628 18.709 21.9683 18.706 21.9723 18.7039C21.9895 18.6949 22.009 18.6848 22.0323 18.6727C22.0378 18.6699 22.0447 18.6664 22.0504 18.6634C22.0764 18.6502 22.1048 18.6357 22.1373 18.6191C22.1426 18.6166 22.1485 18.6136 22.1537 18.6109C22.1879 18.5937 22.2255 18.5748 22.2667 18.5544C22.2751 18.5502 22.2843 18.5458 22.2929 18.5416C22.3345 18.5213 22.3788 18.4994 22.4267 18.4761C22.4357 18.4717 22.4454 18.4671 22.4546 18.4627C22.5041 18.4387 22.5573 18.4133 22.6133 18.3867C22.6243 18.3814 22.6354 18.3762 22.6465 18.3709C22.7036 18.3438 22.7641 18.3157 22.8275 18.2863C22.8395 18.2808 22.8515 18.2752 22.8636 18.2695C22.93 18.2388 23.0001 18.2069 23.073 18.1738C23.0837 18.1689 23.0942 18.1641 23.1051 18.1593C23.1828 18.1242 23.264 18.0879 23.3487 18.0507C23.3566 18.0471 23.3642 18.0438 23.3724 18.0402C23.4627 18.0005 23.557 17.9594 23.655 17.9174C23.6586 17.9157 23.6622 17.9142 23.6657 17.9128C24.1831 17.6908 24.8067 17.438 25.5267 17.172L25.5273 17.1718C25.7102 17.1852 25.8927 17.2079 26.0739 17.2436C26.0395 17.1661 26.0084 17.0874 25.9784 17.0082L25.9788 17.008C26.1321 16.9534 26.2891 16.8984 26.4502 16.8432L26.4508 16.8429C26.6116 16.7877 26.7763 16.7323 26.9447 16.6766L26.9453 16.6764C27.1093 17.0934 27.3514 17.4844 27.6739 17.8216C28.7658 16.7449 30.3047 16.318 31.7491 16.6021C31.5847 16.2332 31.4727 15.8449 31.4106 15.4494L31.4108 15.4494C31.7369 15.3771 32.0689 15.307 32.4082 15.2398C32.51 15.952 32.8275 16.6351 33.3491 17.1804C34.4409 16.1036 35.9798 15.6768 37.4244 15.9608C37.2262 15.5161 37.1032 15.0439 37.0542 14.5641L37.0547 14.5641C37.3892 14.5332 37.7287 14.5072 38.0709 14.4835L38.0714 14.4835C38.1543 15.2371 38.4749 15.9646 39.0246 16.5391C40.1165 15.4624 41.6554 15.0355 43.0998 15.3196C42.97 15.0286 42.8739 14.7256 42.8077 14.4165L42.8079 14.4165C43.1609 14.431 43.5162 14.4499 43.8744 14.474C44.0308 14.9958 44.3061 15.4861 44.6996 15.8976C45.2642 15.3408 45.9487 14.9578 46.6775 14.7569C46.678 14.7569 46.6784 14.7571 46.6788 14.7571C47.0353 14.8056 47.3944 14.8606 47.7549 14.9198C47.8196 14.9303 47.8847 14.9414 47.9495 14.9523C48.3027 15.012 48.6574 15.0756 49.0141 15.1457C49.0194 15.1468 49.0244 15.1476 49.0297 15.1487C49.8198 15.3043 50.6181 15.4861 51.4233 15.6957C51.1987 15.8674 50.9893 16.0652 50.8052 16.2962C49.693 17.6917 49.8154 19.6761 51.0162 20.9315C52.5173 19.4512 54.8642 19.1982 56.6469 20.3337C57.5468 19.4214 58.7634 18.9609 59.9814 18.9861C60.0201 19.0061 60.0585 19.0246 60.0971 19.0447C60.3363 19.1692 60.5733 19.2973 60.8089 19.4277C60.9988 19.5337 61.1875 19.6425 61.3754 19.7519ZM52.0873 27.6473C50.9751 29.0428 51.0975 31.0273 52.2983 32.2827C53.3902 31.206 54.9291 30.7791 56.3735 31.0632C55.7742 29.7185 55.8469 28.1231 56.6527 26.8186C55.1611 25.9283 53.1995 26.2518 52.0873 27.6473ZM52.9398 37.9579C54.0316 36.8811 55.5705 36.4542 57.0149 36.7383C56.4157 35.3937 56.4883 33.7985 57.2942 32.4937C55.8023 31.6032 53.8408 31.927 52.7287 33.3225C51.6165 34.7182 51.7389 36.7024 52.9398 37.9579ZM51.6188 33.1352C50.1272 32.2449 48.1654 32.5685 47.0534 33.964C45.9412 35.3594 46.0636 37.3439 47.2644 38.5993C48.3563 37.5226 49.8952 37.0957 51.3396 37.3798C50.7403 36.0351 50.813 34.4397 51.6188 33.1352ZM53.37 38.9978C52.2578 40.3933 52.3802 42.3778 53.581 43.6332C54.6729 42.5565 56.2118 42.1296 57.6562 42.4137C57.0569 41.069 57.1296 39.4736 57.9355 38.1691C56.4438 37.2786 54.4822 37.6022 53.37 38.9978ZM59.2564 42.9918C60.3483 41.915 61.8872 41.4881 63.3316 41.7722C62.7323 40.4276 62.8049 38.8322 63.6108 37.5276C62.119 36.6371 60.1574 36.9609 59.0452 38.3564C57.9331 39.7521 58.0556 41.7363 59.2564 42.9918ZM59.6866 44.0317C58.5744 45.4272 58.6968 47.4117 59.8977 48.6671C60.9895 47.5904 62.5284 47.1635 63.9728 47.4476C63.3736 46.1029 63.4462 44.5075 64.2521 43.203C62.7604 42.3125 60.7989 42.6361 59.6866 44.0317ZM58.5769 43.8442C57.0851 42.954 55.1235 43.2775 54.0115 44.673C52.8992 46.0687 53.0217 48.0529 54.2227 49.3084C55.3146 48.2316 56.8535 47.8048 58.2979 48.0888C57.6984 46.7442 57.771 45.1488 58.5769 43.8442ZM52.9018 44.4857C51.4099 43.5954 49.4483 43.9188 48.3363 45.3145C47.2241 46.71 47.3465 48.6944 48.5473 49.9498C49.6392 48.8731 51.1781 48.4462 52.6225 48.7303C52.0232 47.3857 52.0959 45.7903 52.9018 44.4857ZM51.981 43.055C51.3818 41.7103 51.4544 40.1149 52.2603 38.8103C50.7684 37.9201 48.8069 38.2436 47.6949 39.6391C46.5826 41.0346 46.705 43.019 47.9061 44.2745C48.9979 43.1977 50.5366 42.7709 51.981 43.055ZM46.5849 39.4518C45.0933 38.5615 43.1317 38.8851 42.0195 40.2806C40.9075 41.6761 41.0297 43.6605 42.2305 44.9159C43.3224 43.8392 44.8613 43.4123 46.3059 43.6964C45.7066 42.3518 45.7791 40.7564 46.5849 39.4518ZM45.6646 38.0213C45.0654 36.6766 45.138 35.0812 45.9439 33.7767C44.452 32.8862 42.4905 33.2097 41.3782 34.6054C40.266 36.0009 40.3886 37.9854 41.5895 39.2408C42.6811 38.1638 44.22 37.7372 45.6646 38.0213ZM40.2685 34.4179C38.7767 33.5274 36.8153 33.8512 35.7031 35.2467C34.5908 36.6422 34.7133 38.6266 35.9141 39.882C37.006 38.8053 38.5448 38.3784 39.9895 38.6625C39.39 37.3179 39.4624 35.7225 40.2685 34.4179ZM39.3478 32.9874C38.7485 31.6427 38.8212 30.0475 39.627 28.7428C38.1352 27.8523 36.1736 28.1758 35.0614 29.5715C33.9492 30.967 34.0718 32.9515 35.2726 34.2069C36.3645 33.1299 37.9034 32.7031 39.3478 32.9874ZM33.9519 29.384C32.46 28.4937 30.4987 28.8173 29.3864 30.2128C28.2742 31.6085 28.3966 33.5927 29.5975 34.8481C30.6893 33.7714 32.2282 33.3445 33.6728 33.6286C33.0732 32.284 33.1458 30.6888 33.9519 29.384ZM33.0312 27.9535C32.4319 26.6088 32.5045 25.0134 33.3104 23.7089C31.8186 22.8184 29.857 23.1419 28.7448 24.5376C27.6325 25.9331 27.7552 27.9176 28.956 29.173C30.0479 28.096 31.5868 27.6694 33.0312 27.9535ZM34.6312 28.5315C35.723 27.4548 37.2619 27.0279 38.7063 27.312C38.1071 25.9673 38.1795 24.372 38.9856 23.0674C37.4937 22.1771 35.5324 22.5007 34.4201 23.8962C33.3081 25.2918 33.4303 27.2761 34.6312 28.5315ZM40.3065 27.8903C41.3984 26.8135 42.9373 26.3866 44.3817 26.6707C43.7824 25.3261 43.8551 23.7309 44.6609 22.4261C43.1691 21.5356 41.2075 21.8592 40.0953 23.2549C38.9833 24.6504 39.1057 26.6348 40.3065 27.8903ZM40.7368 28.9301C39.6245 30.3255 39.7469 32.31 40.9478 33.5654C42.0396 32.4887 43.5785 32.0618 45.0232 32.3459C44.4239 31.0012 44.4965 29.4059 45.3024 28.1013C43.8106 27.2108 41.849 27.5346 40.7368 28.9301ZM46.6231 32.9242C47.715 31.8474 49.2539 31.4205 50.6983 31.7046C50.099 30.36 50.1717 28.7646 50.9776 27.46C49.4857 26.5695 47.5241 26.8931 46.4119 28.2888C45.2999 29.6843 45.4223 31.6687 46.6231 32.9242ZM62.3281 26.1771C60.8362 25.2868 58.8747 25.6104 57.7626 27.0059C56.6504 28.4015 56.7728 30.3858 57.9737 31.6412C59.0655 30.5645 60.6044 30.1376 62.0488 30.4217C61.4496 29.0772 61.5222 27.4819 62.3281 26.1771ZM58.4039 32.6812C57.2917 34.0767 57.4141 36.0612 58.6149 37.3166C59.7068 36.2399 61.2457 35.813 62.6901 36.0971C62.0908 34.7524 62.1635 33.157 62.9694 31.8525C61.4777 30.962 59.5161 31.2855 58.4039 32.6812ZM68.6447 31.211C67.1531 30.3205 65.1913 30.6443 64.0793 32.0398C62.967 33.4352 63.0895 35.4197 64.2903 36.6751C65.3822 35.5984 66.9211 35.1715 68.3655 35.4556C67.7662 34.1109 67.8388 32.5158 68.6447 31.211ZM69.2862 36.8864C67.7943 35.9961 65.8328 36.3196 64.7205 37.7151C63.6083 39.1106 63.7307 41.0951 64.9316 42.3505C66.0234 41.2738 67.5623 40.8469 69.0067 41.131C68.4077 39.7863 68.4803 38.1909 69.2862 36.8864ZM65.362 43.3903C64.2498 44.7858 64.3722 46.7702 65.573 48.0256C66.6649 46.9489 68.2038 46.522 69.6482 46.8061C69.0489 45.4615 69.1216 43.8661 69.9274 42.5615C68.4358 41.6712 66.4742 41.9948 65.362 43.3903ZM75.3235 46.1647C74.7243 44.82 74.7969 43.2246 75.6028 41.92C74.111 41.0296 72.1494 41.3531 71.0374 42.7488C69.9251 44.1443 70.0476 46.1287 71.2484 47.3842C72.3402 46.3074 73.8791 45.8806 75.3235 46.1647ZM70.2897 52.4813C69.6904 51.1366 69.763 49.5412 70.5689 48.2367C69.0771 47.3464 67.1155 47.6697 66.0035 49.0654C64.8912 50.4609 65.0137 52.4454 66.2145 53.7008C67.3064 52.6241 68.8452 52.1972 70.2897 52.4813ZM64.6145 53.1227C64.0152 51.7781 64.0879 50.1827 64.8938 48.8781C63.4021 47.9879 61.4403 48.3114 60.3283 49.7069C59.2161 51.1024 59.3385 53.0868 60.5395 54.3423C61.6312 53.2655 63.1699 52.8387 64.6145 53.1227ZM55.5054 60.6589C56.5973 59.5822 58.1362 59.1553 59.5806 59.4394C58.9813 58.0947 59.054 56.4993 59.8599 55.1948C58.368 54.3045 56.4064 54.628 55.2942 56.0235C54.182 57.4192 54.3046 59.4035 55.5054 60.6589ZM58.9391 53.7642C58.3399 52.4195 58.4125 50.8244 59.2184 49.5196C57.7265 48.6291 55.765 48.9527 54.6529 50.3484C53.5407 51.7439 53.6631 53.7283 54.864 54.9837C55.9558 53.907 57.4947 53.4799 58.9391 53.7642ZM53.264 54.4055C52.6647 53.0608 52.7374 51.4654 53.5432 50.1609C52.0514 49.2706 50.0898 49.5941 48.9776 50.9896C47.8653 52.3851 47.9878 54.3696 49.1888 55.625C50.2807 54.5483 51.8194 54.1214 53.264 54.4055ZM43.5134 56.2665C44.6053 55.1897 46.1442 54.7628 47.5886 55.0469C46.9893 53.7023 47.062 52.1071 47.8679 50.8023C46.376 49.912 44.4144 50.2354 43.3024 51.6311C42.1902 53.0266 42.3126 55.011 43.5134 56.2665ZM46.9473 49.3716C46.3481 48.0269 46.4207 46.4315 47.2266 45.127C45.7348 44.2367 43.7732 44.5603 42.661 45.9557C41.5487 47.3512 41.6711 49.3357 42.8722 50.5909C43.964 49.5144 45.5029 49.0875 46.9473 49.3716ZM37.1968 51.2326C38.2887 50.1558 39.8276 49.729 41.2722 50.013C40.6729 48.6684 40.7454 47.073 41.5512 45.7684C40.0596 44.8781 38.098 45.2017 36.9858 46.5972C35.8736 47.9927 35.996 49.9771 37.1968 51.2326ZM40.6307 44.3379C40.0315 42.9932 40.1041 41.3978 40.91 40.0933C39.4181 39.203 37.4566 39.5266 36.3443 40.922C35.2321 42.3175 35.3547 44.302 36.5556 45.5574C37.6474 44.4805 39.1863 44.0536 40.6307 44.3379ZM30.8802 46.1987C31.9721 45.1219 33.5109 44.6951 34.9556 44.9791C34.3563 43.6345 34.4287 42.0391 35.2346 40.7345C33.743 39.844 31.7814 40.1678 30.6692 41.5633C29.5569 42.959 29.6791 44.9432 30.8802 46.1987ZM34.3139 39.304C33.7146 37.9593 33.7873 36.3639 34.5932 35.0594C33.1013 34.1689 31.1397 34.4927 30.0275 35.8881C28.9153 37.2836 29.0379 39.2681 30.2387 40.5235C31.3308 39.4466 32.8695 39.0197 34.3139 39.304ZM24.5636 41.1648C25.6554 40.088 27.1943 39.6612 28.6389 39.9452C28.0397 38.6006 28.1121 37.0054 28.918 35.7006C27.4263 34.8104 25.4648 35.1337 24.3525 36.5294C23.2403 37.9251 23.3625 39.9093 24.5636 41.1648ZM23.9221 35.4896C25.014 34.4129 26.5529 33.986 27.9973 34.2701C27.398 32.9254 27.4707 31.33 28.2765 30.0255C26.7847 29.135 24.8231 29.4588 23.7109 30.8542C22.5986 32.2497 22.7213 34.2342 23.9221 35.4896ZM23.2806 29.8142C24.3725 28.7375 25.9114 28.3106 27.356 28.5947C26.7567 27.2501 26.8292 25.6547 27.6351 24.3501C26.1432 23.4596 24.1818 23.7832 23.0696 25.1789C21.9576 26.5746 22.0798 28.5588 23.2806 29.8142ZM22.4281 19.5037C21.3159 20.8992 21.4385 22.8837 22.6394 24.1391C23.7312 23.0624 25.2701 22.6355 26.7145 22.9196C26.1153 21.5749 26.1879 19.9797 26.9938 18.675C25.5019 17.7847 23.5404 18.108 22.4281 19.5037ZM28.1035 18.8625C26.9913 20.2579 27.1137 22.2424 28.3145 23.4978C29.4064 22.4211 30.9453 21.9942 32.3899 22.2783C31.7906 20.9336 31.8631 19.3383 32.6692 18.0337C31.1773 17.1432 29.2157 17.4668 28.1035 18.8625ZM33.7787 18.221C32.6664 19.6165 32.7889 21.6009 33.9899 22.8564C35.0818 21.7796 36.6207 21.3527 38.0651 21.6368C37.4658 20.2922 37.5384 18.697 38.3443 17.3922C36.8525 16.5019 34.8909 16.8253 33.7787 18.221ZM39.454 17.5795C38.3418 18.975 38.4642 20.9595 39.6651 22.2149C40.7569 21.1382 42.2958 20.7113 43.7402 20.9954C43.141 19.6507 43.2134 18.0553 44.0195 16.7508C42.5276 15.8605 40.5663 16.184 39.454 17.5795ZM49.6948 16.1095C48.203 15.219 46.2414 15.5426 45.1292 16.9383C44.017 18.3338 44.1396 20.3182 45.3404 21.5736C46.4323 20.4969 47.9712 20.07 49.4156 20.3541C48.8161 19.0094 48.889 17.4141 49.6948 16.1095ZM45.7707 22.6134C44.6584 24.0089 44.7808 25.9934 45.9817 27.2488C47.0735 26.1721 48.6124 25.7452 50.0571 26.0293C49.4578 24.6846 49.5302 23.0892 50.3363 21.7847C48.8445 20.8944 46.8829 21.2179 45.7707 22.6134ZM51.4458 21.972C50.3336 23.3677 50.456 25.3519 51.657 26.6073C52.7489 25.5306 54.2878 25.1037 55.7322 25.3878C55.1329 24.0431 55.2056 22.4478 56.0115 21.1432C54.5196 20.2529 52.558 20.5765 51.4458 21.972Z" fill="#E8A466"/>
<path d="M17.7585 25.2301C16.6166 39.6118 25.2154 51.0106 31.1258 57.0524C34.1878 60.1797 37.8246 62.686 41.8302 64.362L41.8319 64.3634C43.2664 64.9615 44.7493 65.4559 46.2695 65.8326C56.4412 68.3588 63.7613 64.864 67.8478 61.8564C70.2826 60.0626 72.2167 57.671 73.4921 54.9304C77.1007 47.1631 76.3089 40.1714 74.2793 34.7686C73.3134 32.1928 71.9815 29.8054 70.349 27.6494L70.3473 27.6479C67.6496 24.0811 64.1304 21.1459 60.0973 19.0449C40.2961 8.72579 21.9006 18.7426 21.9006 18.7426C21.8067 18.7927 21.7146 18.8442 21.6255 18.8954C19.3614 20.2149 17.9657 22.6182 17.7585 25.2301Z" stroke="black" stroke-width="2" stroke-miterlimit="10" stroke-linecap="round" stroke-linejoin="round"/>
<path d="M47.4069 48.7551C47.4069 48.7551 39.4472 53.5406 41.8149 64.3523L41.8302 64.3616L41.8319 64.363C43.2664 64.961 44.7493 65.4555 46.2695 65.8322C49.2952 66.5822 52.0662 66.8 54.5771 66.657C60.5082 66.3233 64.9766 63.9693 67.8478 61.8559C70.2826 60.0621 72.2167 57.6705 73.4921 54.93C77.1007 47.1626 76.3089 40.171 74.2793 34.7681C73.3134 32.1924 71.9815 29.805 70.349 27.649L70.3473 27.6475C70.3473 27.6475 68.3039 27.6746 65.3789 28.6119C59.9643 30.3432 51.5253 35.1923 47.4069 48.7551Z" fill="#C98444"/>
<path d="M53.1516 39.8648C49.4075 46.139 48.2178 52.9827 49.431 58.4451C50.6711 64.0289 56.6222 67.1271 61.9631 65.0801C64.3591 64.1619 66.3274 62.9753 67.8478 61.8561C70.2826 60.0623 72.2167 57.6707 73.4921 54.9302C77.1007 47.1628 76.3089 40.1712 74.2793 34.7683C73.3134 32.1926 71.9815 29.8052 70.349 27.6492L70.3473 27.6477C70.3473 27.6477 68.3039 27.6748 65.3789 28.6121C60.795 30.5905 56.3482 34.5065 53.1516 39.8648Z" fill="#D18C4D"/>
<path d="M69.9452 35.8703C72.3652 35.7795 74.4599 39.2485 74.6239 43.6185C74.7879 47.9884 72.959 51.6046 70.539 51.6954C68.119 51.7862 66.0243 48.3173 65.8603 43.9473C65.6963 39.5773 67.5252 35.9611 69.9452 35.8703Z" fill="#D99355"/>
<path d="M47.4069 48.755C47.4069 48.755 39.4472 53.5405 41.8149 64.3523L41.8302 64.3615L41.8319 64.363C43.2664 64.961 44.7493 65.4555 46.2695 65.8321C56.4412 68.3583 63.7613 64.8635 67.8478 61.8559C70.2826 60.0621 72.2167 57.6705 73.4921 54.9299C77.1007 47.1626 76.3089 40.1709 74.2793 34.7681C73.3134 32.1923 71.9815 29.8049 70.349 27.6489L70.3473 27.6475C70.3473 27.6479 53.7502 27.8642 47.4069 48.755Z" stroke="black" stroke-width="2" stroke-miterlimit="10" stroke-linecap="round" stroke-linejoin="round"/>
<path d="M52.7676 53.0881C52.7676 53.0881 48.0722 57.6089 50.4883 63.1517" stroke="black" stroke-width="2" stroke-miterlimit="10" stroke-linecap="round" stroke-linejoin="round"/>
<path d="M48.231 54.1773C48.231 54.1773 45.1908 58.2924 46.9896 62.0381" stroke="black" stroke-width="2" stroke-miterlimit="10" stroke-linecap="round" stroke-linejoin="round"/>
<path d="M65.7532 52.0722C65.7532 52.0722 65.8311 58.0348 71.9128 61.2616C71.9128 61.2616 71.9489 61.2724 72.0138 61.2868C74.4919 61.8357 76.0167 58.6189 74.027 57.0431C73.9584 56.9885 73.8857 56.9345 73.8095 56.8808C73.3219 56.5383 72.7556 56.3273 72.1694 56.2208C70.8526 55.9817 67.707 55.1086 65.7532 52.0722Z" fill="#D18C4D"/>
<path d="M71.9128 61.2615C71.9128 61.2615 71.9769 61.7214 71.8255 62.3364C71.4104 64.0229 69.4962 64.8321 67.9672 64.0084C67.9187 63.9824 67.8698 63.9551 67.8204 63.9265C66.9089 63.4012 66.2026 62.5797 65.7843 61.6145C64.9797 59.7577 63.8912 56.028 65.7533 52.0721C65.7533 52.0721 65.8576 58.0542 71.9128 61.2615Z" fill="#D18C4D"/>
<path d="M65.7532 52.0722C65.7532 52.0722 65.8311 58.0348 71.9128 61.2616C71.9128 61.2616 71.9489 61.2724 72.0138 61.2868C74.4919 61.8357 76.0167 58.6189 74.027 57.0431C73.9584 56.9885 73.8857 56.9345 73.8095 56.8808C73.3219 56.5383 72.7556 56.3273 72.1694 56.2208C70.8526 55.9817 67.707 55.1086 65.7532 52.0722Z" stroke="black" stroke-width="2" stroke-miterlimit="10" stroke-linecap="round" stroke-linejoin="round"/>
<path d="M71.9128 61.2615C71.9128 61.2615 71.9769 61.7214 71.8255 62.3364C71.4104 64.0229 69.4962 64.8321 67.9672 64.0084C67.9187 63.9824 67.8698 63.9551 67.8204 63.9265C66.9089 63.4012 66.2026 62.5797 65.7843 61.6145C64.9797 59.7577 63.8912 56.028 65.7533 52.0721C65.7533 52.0721 65.8576 58.0542 71.9128 61.2615Z" stroke="black" stroke-width="2" stroke-miterlimit="10" stroke-linecap="round" stroke-linejoin="round"/>
<path d="M72.5948 57.3803C71.9857 57.5284 71.6476 58.2899 71.8399 59.0811C72.0323 59.8723 72.6821 60.3937 73.2913 60.2456C73.9004 60.0976 74.2385 59.336 74.0461 58.5448C73.854 57.7535 73.2041 57.2321 72.5948 57.3803Z" fill="#D99355"/>
<path d="M67.4518 62.0011C67.3479 62.6917 67.9908 63.3609 68.8878 63.4959C69.7849 63.6307 70.5962 63.1803 70.6999 62.4897C70.8039 61.7991 70.1609 61.13 69.2639 60.9949C68.3669 60.8601 67.5556 61.3105 67.4518 62.0011Z" fill="#D99355"/>
<path d="M70.1218 47.9733C70.7668 47.2378 72.7473 44.7524 72.2759 42.4452C71.8818 40.5157 69.6793 39.617 67.9773 40.6079C67.233 41.0413 66.3945 41.7848 65.5401 43.0348C64.5071 44.5464 64.6308 46.6039 65.9181 47.9059C65.9412 47.9292 65.9647 47.9526 65.9887 47.9757C66.2952 48.2728 66.662 48.5046 67.0654 48.6448C67.6989 48.8651 68.7128 49.0402 69.6332 48.4181C69.8163 48.294 69.976 48.1394 70.1218 47.9733Z" fill="black"/>
<path d="M69.3412 42.5169C68.8269 43.1622 68.9332 44.102 69.5784 44.6162C70.2237 45.1304 71.1635 45.0242 71.6777 44.379C72.192 43.7337 72.0857 42.7937 71.4405 42.2796C70.7952 41.7654 69.8554 41.8717 69.3412 42.5169Z" fill="white"/>
<path d="M65.4415 46.2775C65.7665 47.4364 66.8516 48.145 67.8654 47.8607C68.8789 47.5764 69.437 46.4064 69.112 45.2478C68.787 44.0892 67.7018 43.3801 66.6881 43.6646C65.6745 43.9489 65.1164 45.1189 65.4415 46.2775Z" fill="#4D4D4D"/>
</svg>
