<svg width="74" height="77" viewBox="0 0 74 77" fill="none" xmlns="http://www.w3.org/2000/svg">
<path d="M71.8268 31.1713C69.5156 35.6506 55.3404 40.7086 37.7743 43.0421C21.8511 45.1587 8.03342 44.3831 3.05573 41.4484C1.9024 40.7689 1.22293 39.9731 1.10223 39.0702C0.462926 34.2692 15.8497 28.2655 35.4654 25.6614C55.0811 23.0553 71.5005 24.8321 72.1375 29.6334C72.2045 30.1343 72.0971 30.6483 71.8268 31.1713Z" fill="#802B3E"/>
<path d="M71.8268 31.1713C69.5155 35.6506 55.3403 40.7086 37.7743 43.0421C21.851 45.1588 8.03336 44.3832 3.05566 41.4485C3.57655 40.4404 4.69846 39.4034 6.32335 38.3774C11.9225 34.8325 23.4961 31.3882 37.1104 29.5799C50.7225 27.7717 62.7945 28.0757 69.1222 30.0336C70.195 30.3668 71.1048 30.7468 71.8268 31.1713Z" fill="#661E2F"/>
<path d="M71.8268 31.1713C69.5156 35.6506 55.3404 40.7086 37.7743 43.0421C21.8511 45.1587 8.03342 44.3831 3.05573 41.4484C1.9024 40.7689 1.22293 39.9731 1.10223 39.0702C0.462926 34.2692 15.8497 28.2655 35.4654 25.6614C55.0811 23.0553 71.5005 24.8321 72.1375 29.6334C72.2045 30.1343 72.0971 30.6483 71.8268 31.1713Z" stroke="black" stroke-width="2" stroke-miterlimit="10" stroke-linecap="round" stroke-linejoin="round"/>
<path d="M2.42128 10.846L15.5917 25.9675L42.3863 57.7141L44.8935 60.5916C45.1426 60.8765 45.5484 60.9799 45.8958 60.8284C45.923 60.8162 45.9505 60.8039 45.9776 60.7893C45.9846 60.786 45.9928 60.7812 46.0011 60.7764C46.4687 60.5132 46.5646 59.8786 46.2265 59.4643L43.8905 56.6016L17.9263 24.0818L5.28608 8.59641C4.92584 8.15606 4.35646 7.9388 3.79728 8.03286C3.785 8.03432 3.77501 8.03557 3.76398 8.03827C3.16464 8.15252 2.74634 8.41827 2.45312 8.72107C1.89165 9.30627 1.88749 10.233 2.42128 10.846Z" fill="#822C40"/>
<path d="M3.67878 10.2111L16.6351 25.5163L43.0511 57.5866L45.5165 60.5007C45.6387 60.6447 45.8018 60.7448 45.9768 60.7891C45.9839 60.7858 45.992 60.781 46.0004 60.7762C46.468 60.513 46.5639 59.8784 46.2257 59.4641L43.8897 56.6014L17.9258 24.0818L5.28557 8.59641C4.92534 8.15606 4.35596 7.9388 3.79678 8.03286C3.77888 8.05013 3.75994 8.06886 3.74205 8.08614C3.17079 8.66363 3.15394 9.5895 3.67878 10.2111Z" fill="#8F3046"/>
<path d="M15.5918 25.9674L42.3863 57.7141C42.8198 57.558 43.3517 57.2577 43.8275 56.6798C43.8493 56.6544 43.8699 56.628 43.8905 56.6016L17.9263 24.0818C17.5089 24.2949 17.0284 24.5948 16.5376 25.0141C16.2219 25.2797 15.9015 25.5947 15.5918 25.9674Z" fill="#A13C53"/>
<path d="M16.8919 25.4386L42.6763 57.1258C42.8404 57.3224 43.1326 57.3457 43.3291 57.1815C43.6444 56.9181 43.8754 56.6207 43.8903 56.6016L17.9261 24.0818C17.6379 24.2289 17.3197 24.4173 16.989 24.6578C16.7372 24.8408 16.6925 25.1997 16.8919 25.4386Z" fill="#B34961"/>
<path d="M4.43476 9.57636L5.79724 11.2984C5.96268 11.5076 6.26631 11.543 6.47546 11.3775C6.6846 11.2121 6.71998 10.9085 6.55454 10.6993L5.19206 8.97722C5.02662 8.76808 4.72299 8.7327 4.51385 8.89814C4.3047 9.06338 4.26932 9.36722 4.43476 9.57636Z" fill="#A13C53"/>
<path d="M2.42128 10.846L15.5917 25.9675L42.3863 57.7141L44.8935 60.5916C45.1426 60.8765 45.5484 60.9799 45.8958 60.8284C45.923 60.8162 45.9505 60.8039 45.9776 60.7893C45.9846 60.786 45.9928 60.7812 46.0011 60.7764C46.4687 60.5132 46.5646 59.8786 46.2265 59.4643L43.8905 56.6016L17.9263 24.0818L5.28608 8.59641C4.92584 8.15606 4.35646 7.9388 3.79728 8.03286C3.785 8.03432 3.77501 8.03557 3.76398 8.03827C3.16464 8.15252 2.74634 8.41827 2.45312 8.72107C1.89165 9.30627 1.88749 10.233 2.42128 10.846Z" stroke="black" stroke-width="2" stroke-miterlimit="10" stroke-linecap="round" stroke-linejoin="round"/>
<path d="M24.8504 2.43289L26.8363 22.3872L31.5924 63.6568L31.9697 67.4547C32.0065 67.8314 31.8036 68.1979 31.4553 68.3469C31.4276 68.3583 31.3999 68.37 31.3708 68.3795C31.3635 68.3825 31.3543 68.3852 31.3452 68.3877C30.833 68.5477 30.3051 68.1829 30.2351 67.6526L29.7513 63.9895L23.8633 22.7949L21.2489 2.9775C21.175 2.41333 21.407 1.84999 21.8588 1.50723C21.8684 1.49933 21.8761 1.49287 21.8855 1.48684C22.3793 1.12869 22.8596 1.00611 23.2813 1.00008C24.0922 0.991961 24.7698 1.62398 24.8504 2.43289Z" fill="#822C40"/>
<path d="M23.526 2.91403L25.7925 22.8384L31.0434 64.0541L31.4761 67.8466C31.4971 68.0343 31.4582 68.2216 31.3708 68.3796C31.3635 68.3825 31.3543 68.3852 31.3452 68.3877C30.833 68.5477 30.3051 68.1829 30.2351 67.6526L29.7513 63.9896L23.8633 22.7949L21.2489 2.97751C21.175 2.41333 21.407 1.84999 21.8588 1.50723C21.8836 1.50599 21.9103 1.50495 21.9352 1.50391C22.7473 1.48351 23.433 2.10575 23.526 2.91403Z" fill="#8F3046"/>
<path d="M26.8363 22.3872L31.5924 63.6568C31.1818 63.8655 30.5984 64.0472 29.8513 63.9974C29.8178 63.996 29.7845 63.9929 29.7512 63.9897L23.8633 22.7951C24.3045 22.6371 24.8524 22.4927 25.494 22.4228C25.9036 22.3749 26.3527 22.3572 26.8363 22.3872Z" fill="#A13C53"/>
<path d="M25.5602 22.9716L30.9651 63.4648C30.9957 63.7191 30.8126 63.9478 30.5583 63.9784C30.1504 64.0275 29.7756 63.9919 29.7512 63.9896L23.8633 22.7949C24.1679 22.6859 24.5232 22.5833 24.925 22.5073C25.2308 22.4493 25.5229 22.6626 25.5602 22.9716Z" fill="#B34961"/>
<path d="M22.5456 3.02932L22.8661 5.20174C22.905 5.46562 22.7227 5.71098 22.4588 5.7499C22.195 5.78881 21.9496 5.60651 21.9107 5.34263L21.5902 3.17021C21.5513 2.90633 21.7336 2.66097 21.9975 2.62205C22.2611 2.58314 22.5067 2.76544 22.5456 3.02932Z" fill="#A13C53"/>
<path d="M24.8504 2.43289L26.8363 22.3872L31.5924 63.6568L31.9697 67.4547C32.0065 67.8314 31.8036 68.1979 31.4553 68.3469C31.4276 68.3583 31.3999 68.37 31.3708 68.3795C31.3635 68.3825 31.3543 68.3852 31.3452 68.3877C30.833 68.5477 30.3051 68.1829 30.2351 67.6526L29.7513 63.9895L23.8633 22.7949L21.2489 2.9775C21.175 2.41333 21.407 1.84999 21.8588 1.50723C21.8684 1.49933 21.8761 1.49287 21.8855 1.48684C22.3793 1.12869 22.8596 1.00611 23.2813 1.00008C24.0922 0.991961 24.7698 1.62398 24.8504 2.43289Z" stroke="black" stroke-width="2" stroke-miterlimit="10" stroke-linecap="round" stroke-linejoin="round"/>
<path d="M41.2565 24.5521C42.0469 23.7618 42.0469 22.4804 41.2565 21.69C40.4662 20.8997 39.1848 20.8997 38.3944 21.69C37.6041 22.4804 37.6041 23.7618 38.3944 24.5521C39.1848 25.3425 40.4662 25.3425 41.2565 24.5521Z" fill="#779665"/>
<path d="M41.337 22.6767C41.337 23.3004 40.8315 23.8059 40.2078 23.8059C39.5841 23.8059 39.0786 23.3004 39.0786 22.6767C39.0786 22.053 39.5841 21.5475 40.2078 21.5475C40.8315 21.5475 41.337 22.0532 41.337 22.6767Z" fill="#7FA16C"/>
<path d="M41.2565 24.5521C42.0469 23.7618 42.0469 22.4804 41.2565 21.69C40.4662 20.8997 39.1848 20.8997 38.3944 21.69C37.6041 22.4804 37.6041 23.7618 38.3944 24.5521C39.1848 25.3425 40.4662 25.3425 41.2565 24.5521Z" stroke="black" stroke-width="2" stroke-miterlimit="10" stroke-linecap="round" stroke-linejoin="round"/>
<path d="M38.0142 23.8688C38.272 22.7812 37.5994 21.6906 36.5119 21.4327C35.4243 21.1748 34.3336 21.8474 34.0758 22.935C33.8179 24.0225 34.4905 25.1132 35.5781 25.3711C36.6656 25.6289 37.7563 24.9563 38.0142 23.8688Z" fill="#779665"/>
<path d="M36.428 24.0861C37.0516 24.0861 37.5572 23.5806 37.5572 22.9569C37.5572 22.3333 37.0516 21.8278 36.428 21.8278C35.8044 21.8278 35.2988 22.3333 35.2988 22.9569C35.2988 23.5806 35.8044 24.0861 36.428 24.0861Z" fill="#7FA16C"/>
<path d="M38.0142 23.8688C38.272 22.7812 37.5994 21.6906 36.5119 21.4327C35.4243 21.1748 34.3336 21.8474 34.0758 22.935C33.8179 24.0225 34.4905 25.1132 35.5781 25.3711C36.6656 25.6289 37.7563 24.9563 38.0142 23.8688Z" stroke="black" stroke-width="2" stroke-miterlimit="10" stroke-linecap="round" stroke-linejoin="round"/>
<path d="M35.4824 30.3179C35.5607 30.5281 35.5786 30.7626 35.5159 30.9951C35.4287 31.3191 35.2052 31.5695 34.9236 31.7058C35.0287 31.9986 35.0086 32.3338 34.841 32.6244C34.6712 32.9172 34.3917 33.1005 34.0856 33.1586C34.1079 33.4693 34.003 33.7889 33.7659 34.0257C33.5268 34.2649 33.2095 34.37 32.8988 34.3454C32.8407 34.6538 32.6551 34.9333 32.3646 35.1008C32.074 35.2683 31.7365 35.2885 31.4437 35.1857C31.3097 35.4673 31.057 35.6908 30.733 35.778C30.409 35.8652 30.0781 35.7959 29.8211 35.6215C29.6178 35.8563 29.3181 36.0082 28.9828 36.0082C28.6453 36.0082 28.3458 35.8563 28.1425 35.6215C27.9614 35.7445 27.7423 35.8159 27.5167 35.8159C27.4229 35.8159 27.3267 35.8026 27.2306 35.7778C26.9066 35.6906 26.6539 35.4671 26.5197 35.1855C26.2269 35.2883 25.8916 35.2681 25.5988 35.1006C25.3083 34.9329 25.1227 34.6536 25.0669 34.3452C24.7539 34.3697 24.4365 34.2647 24.1974 34.0255C23.9606 33.7885 23.8555 33.4691 23.8778 33.1584C23.5714 33.1003 23.2922 32.917 23.1223 32.6241C22.9548 32.3336 22.9346 31.9984 23.0397 31.7056C22.7582 31.5693 22.5346 31.3189 22.4475 30.9949C22.3603 30.6686 22.4273 30.34 22.6039 30.083C22.3669 29.8796 22.2173 29.58 22.2173 29.2426C22.2173 28.9074 22.3671 28.6056 22.6039 28.4044C22.4787 28.221 22.4096 28.0042 22.4096 27.7786C22.4096 27.6847 22.4208 27.5886 22.4477 27.4924C22.5349 27.1684 22.7584 26.9158 23.0399 26.7818C22.9348 26.4867 22.955 26.1514 23.1225 25.8609C23.2724 25.6062 23.5069 25.4318 23.7685 25.3512C23.8043 25.3423 23.8422 25.3333 23.878 25.3267C23.8757 25.2998 23.8757 25.273 23.8757 25.2441C23.8757 25.1927 23.8801 25.1413 23.8869 25.0899C23.9181 24.8597 24.0209 24.6362 24.1976 24.4595C24.2288 24.4283 24.2623 24.3992 24.2981 24.3723C24.5217 24.1958 24.7966 24.1176 25.0671 24.1399C25.1229 23.8337 25.3085 23.552 25.599 23.3844C25.8918 23.2167 26.2271 23.1967 26.5199 23.2995C26.6541 23.018 26.9065 22.7965 27.2308 22.7095C27.5571 22.6223 27.8857 22.6893 28.1427 22.866C28.346 22.629 28.6457 22.4794 28.983 22.4794C29.3183 22.4794 29.6178 22.6292 29.8213 22.866C30.0783 22.6893 30.4092 22.6223 30.7332 22.7095C31.0572 22.7967 31.3099 23.018 31.4439 23.2995C31.7367 23.1967 32.0742 23.2169 32.3648 23.3844C32.6553 23.552 32.8409 23.8337 32.899 24.1399C32.9281 24.1376 32.957 24.1355 32.9862 24.1355C33.2677 24.1355 33.5495 24.2449 33.7662 24.4595C34.0032 24.6965 34.1081 25.016 34.0858 25.3267C34.3919 25.3847 34.6714 25.5704 34.8412 25.8609C35.009 26.1514 35.0289 26.4867 34.9239 26.7818C35.2054 26.9158 35.4289 27.1684 35.5161 27.4924C35.6033 27.8165 35.5363 28.1451 35.3596 28.4044C35.5965 28.6056 35.7463 28.9074 35.7463 29.2426C35.7463 29.5802 35.5967 29.8796 35.3596 30.083C35.4108 30.157 35.4512 30.2353 35.4824 30.3179Z" fill="#FCEAEA"/>
<path d="M35.3601 30.0833C35.4115 30.157 35.4516 30.2352 35.4831 30.318C34.5264 32.6134 32.2578 34.2273 29.6136 34.2273C26.1 34.2273 23.2524 31.3798 23.2524 27.8661C23.2524 26.9721 23.4358 26.1226 23.7688 25.3516C23.8068 25.2621 23.847 25.1751 23.8872 25.09C24.0079 24.8419 24.1465 24.6005 24.2984 24.3724C24.5219 24.196 24.7968 24.1177 25.0673 24.14C25.1231 23.8339 25.3087 23.5521 25.5993 23.3845C25.8921 23.2168 26.2273 23.1968 26.5201 23.2996C26.6544 23.0181 26.9068 22.7966 27.231 22.7097C27.5573 22.6225 27.8859 22.6895 28.1429 22.8662C28.3463 22.6291 28.6459 22.4795 28.9833 22.4795C29.3185 22.4795 29.618 22.6293 29.8215 22.8662C30.0785 22.6895 30.4094 22.6225 30.7335 22.7097C31.0575 22.7969 31.3101 23.0181 31.4441 23.2996C31.7369 23.1968 32.0745 23.217 32.365 23.3845C32.6555 23.5521 32.8412 23.8339 32.8992 24.14C32.9284 24.1377 32.9573 24.1356 32.9864 24.1356C33.268 24.1356 33.5498 24.2451 33.7664 24.4596C34.0034 24.6967 34.1083 25.0161 34.086 25.3268C34.3922 25.3849 34.6717 25.5705 34.8415 25.861C35.0092 26.1515 35.0292 26.4868 34.9241 26.7819C35.2057 26.9159 35.4292 27.1685 35.5164 27.4926C35.6036 27.8166 35.5366 28.1452 35.3599 28.4045C35.5967 28.6057 35.7465 28.9075 35.7465 29.2427C35.7467 29.5803 35.5971 29.8798 35.3601 30.0833Z" fill="white"/>
<path d="M33.3487 32.5755C32.9933 33.0271 32.5688 33.4137 32.097 33.7221C31.2209 34.3077 30.1837 34.6274 29.1132 34.6274C29.0461 34.6274 28.9789 34.6251 28.9098 34.623C26.583 34.5358 24.6183 32.9444 23.9679 30.7987C23.836 30.3695 23.7577 29.9179 23.7398 29.453C23.6839 27.9734 24.216 26.5741 25.242 25.5103C26.2656 24.4464 27.6425 23.8608 29.12 23.8608C29.187 23.8564 31.2234 23.7938 32.8214 25.0924C33.0114 25.2489 33.0405 25.5304 32.884 25.7204C32.7298 25.9127 32.4483 25.9417 32.256 25.7852C30.9193 24.6966 29.1558 24.7525 29.1379 24.7548C27.8884 24.7548 26.7397 25.242 25.8858 26.1294C25.032 27.0167 24.5873 28.1857 24.6341 29.4195C24.7213 31.7485 26.6167 33.6418 28.9456 33.7311C30.3963 33.7848 31.7484 33.1634 32.647 32.0213C33.3152 31.1741 33.5121 30.032 33.1723 28.9613C32.837 27.9041 32.0614 27.1239 31.0444 26.8222C29.8665 26.4713 28.7132 26.6657 27.9598 27.3408C27.3653 27.8706 26.8602 28.9122 27.0947 29.7904C27.2602 30.4095 27.7965 30.9258 28.5296 31.1672C29.2047 31.3884 29.94 31.1828 30.358 30.6553C30.4586 30.5279 30.5391 30.3849 30.5951 30.2351C30.7403 29.8441 30.6598 29.4237 30.3805 29.1153C30.1169 28.8225 29.7346 28.7084 29.3568 28.8092L29.3211 28.8181C29.1311 28.8741 28.997 29.0506 29.0081 29.2316C29.0147 29.3188 29.0482 29.4329 29.2561 29.5446C29.473 29.6609 29.5556 29.9336 29.4395 30.1504C29.3233 30.3673 29.0528 30.4499 28.836 30.3337C28.2772 30.0366 28.1363 29.6029 28.1163 29.2922C28.0762 28.691 28.4807 28.1299 29.0753 27.9601L29.1244 27.9445C29.833 27.7591 30.5503 27.9713 31.0444 28.5145C31.5451 29.0689 31.6949 29.8466 31.4333 30.5485C31.3438 30.7876 31.2165 31.0088 31.06 31.2101C30.4097 32.0325 29.2786 32.3567 28.2483 32.0148C27.229 31.6796 26.4758 30.9331 26.2321 30.0212C25.9014 28.7829 26.5518 27.4015 27.3632 26.675C28.3511 25.7899 29.8218 25.5263 31.2993 25.9643C32.5869 26.3487 33.6037 27.368 34.0241 28.6912C34.453 30.043 34.2003 31.496 33.3487 32.5755Z" fill="#E86B6B"/>
<path d="M33.3485 32.5754C32.993 33.027 32.5685 33.4137 32.0967 33.7221C31.3346 34.0484 30.4941 34.2272 29.6134 34.2272C27.1569 34.2272 25.0269 32.8368 23.9674 30.7984C23.8355 30.3693 23.7573 29.9177 23.7394 29.4528C23.6834 27.9732 24.2155 26.5738 25.2415 25.51C26.2651 24.4462 27.642 23.8606 29.1195 23.8606C29.1865 23.8562 31.2229 23.7935 32.8209 25.0921C33.0109 25.2486 33.0401 25.5302 32.8836 25.7202C32.7294 25.9125 32.4478 25.9414 32.2555 25.7849C30.9188 24.6963 29.1553 24.7523 29.1374 24.7546C27.888 24.7546 26.7392 25.2418 25.8854 26.1291C25.0315 27.0165 24.5868 28.1854 24.6336 29.4193C24.7208 31.7482 26.6162 33.6416 28.9451 33.7308C30.3959 33.7845 31.7479 33.1631 32.6465 32.021C33.3148 31.1738 33.5116 30.0317 33.1718 28.961C32.8365 27.9039 32.0609 27.1237 31.0439 26.8219C29.866 26.471 28.7127 26.6654 27.9593 27.3405C27.3648 27.8704 26.8597 28.9119 27.0942 29.7901C27.2597 30.4092 27.796 30.9256 28.5291 31.167C29.2042 31.3882 29.9395 31.1826 30.3576 30.655C30.4581 30.5277 30.5386 30.3847 30.5946 30.2349C30.7399 29.8438 30.6593 29.4234 30.38 29.115C30.1164 28.8222 29.7341 28.7082 29.3564 28.8089L29.3206 28.8179C29.1306 28.8738 28.9965 29.0503 29.0076 29.2314C29.0142 29.3186 29.0477 29.4326 29.2556 29.5444C29.4725 29.6607 29.5551 29.9333 29.439 30.1502C29.3229 30.367 29.0523 30.4496 28.8355 30.3335C28.2767 30.0363 28.1358 29.6026 28.1158 29.2919C28.0757 28.6907 28.4802 28.1297 29.0748 27.9598L29.1239 27.9442C29.8325 27.7588 30.5499 27.9711 31.0439 28.5142C31.5446 29.0686 31.6944 29.8463 31.4328 30.5483C31.3434 30.7874 31.216 31.0086 31.0595 31.2098C30.4092 32.0323 29.2781 32.3565 28.2478 32.0146C27.2285 31.6793 26.4753 30.9328 26.2316 30.0209C25.901 28.7827 26.5513 27.4013 27.3627 26.6748C28.3506 25.7897 29.8213 25.526 31.2988 25.9641C32.5864 26.3485 33.6032 27.3678 34.0236 28.6909C34.4527 30.043 34.2 31.496 33.3485 32.5754Z" fill="#FA7D7D"/>
<path d="M28.9828 22.4793C29.318 22.4793 29.6175 22.6292 29.821 22.866C30.0021 22.7416 30.22 22.6714 30.4462 22.6714C30.5411 22.6714 30.6372 22.6837 30.7329 22.7095C31.057 22.7967 31.3096 23.0179 31.4436 23.2995C31.5614 23.2581 31.6863 23.2366 31.8126 23.2366C32.0003 23.2366 32.1909 23.2841 32.3647 23.3844C32.6552 23.5519 32.8409 23.8337 32.8989 24.1398C32.9281 24.1375 32.957 24.1355 32.9861 24.1355C33.2677 24.1355 33.5495 24.2449 33.7661 24.4595C34.0031 24.6965 34.108 25.016 34.0857 25.3267C34.3919 25.3847 34.6714 25.5704 34.8412 25.8609C35.0089 26.1514 35.0289 26.4866 34.9238 26.7817C35.2054 26.9158 35.4289 27.1684 35.5161 27.4924C35.6033 27.8164 35.5362 28.145 35.3596 28.4043C35.5964 28.6056 35.7462 28.9073 35.7462 29.2426C35.7462 29.5801 35.5966 29.8796 35.3596 30.0829C35.411 30.1566 35.4511 30.2349 35.4826 30.3177C35.5608 30.5279 35.5787 30.7624 35.5161 30.9949C35.4289 31.3189 35.2054 31.5692 34.9238 31.7055C35.0289 31.9983 35.0087 32.3336 34.8412 32.6241C34.6714 32.9169 34.3919 33.1003 34.0857 33.1583C34.108 33.469 34.0031 33.7887 33.7661 34.0255C33.5497 34.2419 33.2689 34.3487 32.9872 34.3487C32.9578 34.3487 32.9283 34.3475 32.8989 34.3452C32.8409 34.6536 32.6552 34.9331 32.3647 35.1006C32.1909 35.2009 32.0003 35.2483 31.8126 35.2483C31.6863 35.2483 31.5614 35.2269 31.4436 35.1855C31.3096 35.4671 31.057 35.6906 30.7329 35.7778C30.638 35.8032 30.5427 35.8154 30.4487 35.8154C30.2216 35.8154 30.0027 35.7447 29.821 35.6213C29.6177 35.856 29.318 36.0079 28.9828 36.0079C28.6452 36.0079 28.3458 35.856 28.1424 35.6213C27.9614 35.7443 27.7422 35.8156 27.5167 35.8156C27.4228 35.8156 27.3267 35.8023 27.2305 35.7778C26.9065 35.6906 26.6538 35.4671 26.5198 35.1855C26.402 35.2269 26.2776 35.2483 26.1517 35.2483C25.9644 35.2483 25.7742 35.2009 25.599 35.1006C25.3084 34.9331 25.1228 34.6536 25.067 34.3452C25.0375 34.3475 25.0077 34.3487 24.9782 34.3487C24.6947 34.3487 24.4142 34.2422 24.1976 34.0255C23.9607 33.7885 23.8556 33.469 23.8779 33.1583C23.5716 33.1003 23.2923 32.9169 23.1225 32.6241C22.955 32.3336 22.9348 31.9983 23.0399 31.7055C22.7583 31.5692 22.5348 31.3189 22.4476 30.9949C22.3604 30.6685 22.4274 30.3399 22.6041 30.0829C22.3671 29.8796 22.2174 29.5799 22.2174 29.2426C22.2174 28.9073 22.3673 28.6056 22.6041 28.4043C22.4788 28.221 22.4097 28.0042 22.4097 27.7786C22.4097 27.6847 22.421 27.5886 22.4478 27.4924C22.535 27.1684 22.7585 26.9158 23.0401 26.7817C22.935 26.4866 22.9552 26.1514 23.1227 25.8609C23.2725 25.6061 23.5071 25.4318 23.7687 25.3512C23.8045 25.3423 23.8423 25.3333 23.8781 25.3267C23.8758 25.2998 23.8758 25.273 23.8758 25.244C23.8758 25.1926 23.8802 25.1412 23.8871 25.0898C23.9183 24.8597 24.0211 24.6362 24.1978 24.4595C24.229 24.4283 24.2625 24.3991 24.2983 24.3723C24.4968 24.2154 24.7361 24.1361 24.9767 24.1361C25.0069 24.1361 25.0371 24.1373 25.067 24.1398C25.1228 23.8337 25.3084 23.5519 25.599 23.3844C25.774 23.2841 25.9644 23.2366 26.1517 23.2366C26.2776 23.2366 26.4022 23.2581 26.5198 23.2995C26.6541 23.0179 26.9065 22.7965 27.2305 22.7095C27.3269 22.6837 27.4234 22.6714 27.5183 22.6714C27.7447 22.6714 27.9614 22.7416 28.1424 22.866C28.3458 22.629 28.6452 22.4793 28.9828 22.4793ZM28.9828 21.1383C28.6202 21.1383 28.2673 21.2184 27.9468 21.3683C27.8063 21.3433 27.663 21.3306 27.5181 21.3306C27.3048 21.3306 27.0917 21.3587 26.8842 21.414C26.5325 21.5085 26.212 21.6775 25.9413 21.905C25.5877 21.9356 25.2425 22.0434 24.9324 22.2209C24.6152 22.4038 24.3482 22.651 24.1453 22.9424C23.9068 23.0292 23.6815 23.1528 23.4796 23.3099C23.3982 23.3719 23.3206 23.4398 23.2486 23.5118C22.992 23.7684 22.7995 24.0728 22.6794 24.4087C22.3912 24.6104 22.1475 24.8728 21.966 25.1816C21.9642 25.1847 21.9625 25.1879 21.9606 25.191C21.7792 25.5054 21.6724 25.8517 21.6426 26.2047C21.4164 26.4733 21.2483 26.7909 21.154 27.1384C21.0972 27.3443 21.0683 27.5598 21.0683 27.779C21.0683 27.9234 21.081 28.0666 21.1057 28.2071C20.9561 28.5271 20.876 28.8801 20.876 29.243C20.876 29.6057 20.9563 29.9591 21.1064 30.2798C21.0443 30.6284 21.0581 30.9905 21.1517 31.3416C21.2458 31.6912 21.4148 32.011 21.6424 32.2818C21.6722 32.6343 21.7792 32.9804 21.9606 33.2951C22.1431 33.6095 22.3895 33.875 22.6798 34.0777C22.8003 34.4115 22.993 34.7185 23.2492 34.9745C23.5075 35.2327 23.8132 35.4259 24.1468 35.5461C24.3491 35.8358 24.6144 36.0816 24.9286 36.2629C25.2414 36.442 25.5865 36.5498 25.9394 36.5809C26.2104 36.8096 26.5311 36.9792 26.8821 37.0736C26.8876 37.0751 26.8928 37.0766 26.8982 37.0778C27.1052 37.1309 27.3133 37.1577 27.5167 37.1577C27.6621 37.1577 27.8061 37.1448 27.9474 37.1194C28.2683 37.2695 28.6211 37.3498 28.9828 37.3498C29.344 37.3498 29.6964 37.2695 30.0171 37.119C30.1586 37.1442 30.303 37.1571 30.4487 37.1571C30.662 37.1571 30.8749 37.129 31.0811 37.0734C31.4322 36.979 31.7529 36.8094 32.0236 36.5809C32.3789 36.5501 32.7247 36.4416 33.0346 36.2629C33.3482 36.0818 33.6138 35.8362 33.8165 35.5464C34.1501 35.4261 34.456 35.2327 34.7142 34.9743C34.9702 34.7183 35.1629 34.4115 35.2834 34.0777C35.5735 33.8755 35.8195 33.6105 36.001 33.2976C36.1833 32.9814 36.2906 32.6347 36.3206 32.2818C36.5485 32.0112 36.7173 31.692 36.8111 31.3434C36.9054 30.9936 36.9204 30.6323 36.8571 30.2796C37.0071 29.9587 37.0875 29.6055 37.0875 29.2428C37.0875 28.8792 37.0074 28.5263 36.8573 28.2058C36.9193 27.8566 36.9054 27.4945 36.8113 27.1443C36.7173 26.7942 36.5485 26.4748 36.3208 26.2045C36.2911 25.8515 36.1843 25.5054 36.0028 25.1908C35.8191 24.8763 35.5729 24.6114 35.284 24.4091C35.1635 24.0747 34.9706 23.7675 34.7142 23.5111C34.4531 23.2527 34.1478 23.06 33.8165 22.9397C33.6138 22.6496 33.3482 22.4036 33.0346 22.2227C32.7243 22.0438 32.3778 21.9351 32.022 21.9046C31.7516 21.6773 31.4316 21.5085 31.0811 21.4143C30.8738 21.3585 30.6601 21.3302 30.446 21.3302C30.3009 21.3302 30.1575 21.3429 30.0168 21.3678C29.6968 21.2182 29.3445 21.1383 28.9828 21.1383Z" fill="#661E2F"/>
<path d="M43.9422 33.2564C44.0204 33.4666 44.0383 33.7011 43.9757 33.9336C43.8885 34.2576 43.665 34.5079 43.3834 34.6442C43.4885 34.9371 43.4683 35.2723 43.3008 35.5628C43.131 35.8556 42.8515 36.039 42.5454 36.097C42.5676 36.4077 42.4627 36.7274 42.2257 36.9642C41.9866 37.2033 41.6692 37.3084 41.3585 37.2839C41.3005 37.5923 41.1148 37.8718 40.8243 38.0393C40.5338 38.2068 40.1962 38.227 39.9034 38.1242C39.7694 38.4058 39.5168 38.6293 39.1928 38.7165C38.8687 38.8037 38.5378 38.7344 38.2808 38.56C38.0775 38.7947 37.7778 38.9466 37.4426 38.9466C37.105 38.9466 36.8056 38.7947 36.6022 38.56C36.4212 38.683 36.2021 38.7544 35.9765 38.7544C35.8826 38.7544 35.7865 38.741 35.6903 38.7163C35.3663 38.6291 35.1137 38.4056 34.9796 38.124C34.6868 38.2268 34.3516 38.2066 34.0588 38.0391C33.7683 37.8716 33.5826 37.5921 33.5269 37.2837C33.2139 37.3082 32.8965 37.2031 32.6574 36.964C32.4206 36.727 32.3155 36.4075 32.3377 36.0968C32.0316 36.0388 31.7521 35.8554 31.5823 35.5626C31.4148 35.2721 31.3946 34.9368 31.4997 34.644C31.2181 34.5077 30.9946 34.2574 30.9074 33.9334C30.8202 33.607 30.8872 33.2784 31.0639 33.0214C30.8269 32.8181 30.6772 32.5184 30.6772 32.1811C30.6772 31.8458 30.8271 31.5441 31.0639 31.3428C30.9386 31.1595 30.8695 30.9427 30.8695 30.7171C30.8695 30.6232 30.8808 30.5271 30.9076 30.4309C30.9948 30.1069 31.2183 29.8543 31.4999 29.7202C31.3948 29.4251 31.415 29.0899 31.5825 28.7994C31.7323 28.5446 31.9669 28.3703 32.2285 28.2897C32.2643 28.2808 32.3021 28.2718 32.3379 28.2652C32.3356 28.2383 32.3356 28.2115 32.3356 28.1825C32.3356 28.1311 32.34 28.0797 32.3469 28.0283C32.3781 27.7982 32.4809 27.5747 32.6576 27.398C32.6888 27.3668 32.7223 27.3376 32.7581 27.3108C32.9816 27.1343 33.2565 27.0559 33.5271 27.0783C33.583 26.7722 33.7685 26.4904 34.059 26.3229C34.3518 26.1554 34.687 26.1352 34.9798 26.238C35.1141 25.9564 35.3665 25.735 35.6905 25.648C36.0168 25.5608 36.3454 25.6278 36.6025 25.8045C36.8058 25.5675 37.1055 25.4178 37.4428 25.4178C37.7781 25.4178 38.0775 25.5677 38.281 25.8045C38.5381 25.628 38.8689 25.5608 39.193 25.648C39.517 25.7352 39.7696 25.9564 39.9036 26.238C40.1965 26.1352 40.534 26.1554 40.8245 26.3229C41.115 26.4904 41.3007 26.7722 41.3587 27.0783C41.3879 27.076 41.4168 27.074 41.4459 27.074C41.7275 27.074 42.0093 27.1834 42.2259 27.398C42.4627 27.6348 42.5678 27.9545 42.5456 28.2652C42.8517 28.3232 43.1312 28.5089 43.301 28.7994C43.4687 29.0899 43.4887 29.4251 43.3836 29.7202C43.6652 29.8543 43.8887 30.1069 43.9759 30.4309C44.0631 30.7549 43.9961 31.0835 43.8194 31.3428C44.0562 31.5441 44.206 31.8458 44.206 32.1811C44.206 32.5186 44.0562 32.8181 43.8194 33.0214C43.8706 33.0953 43.9107 33.1736 43.9422 33.2564Z" fill="#FCEAEA"/>
<path d="M43.8195 33.0216C43.871 33.0955 43.9111 33.1736 43.9425 33.2564C42.9859 35.5518 40.7173 37.1657 38.0731 37.1657C34.5594 37.1657 31.7119 34.3181 31.7119 30.8045C31.7119 29.9104 31.8953 29.061 32.2282 28.2899C32.2663 28.2004 32.3065 28.1134 32.3466 28.0283C32.4673 27.7803 32.6059 27.5389 32.7579 27.3108C32.9814 27.1343 33.2563 27.0559 33.5268 27.0783C33.5828 26.7722 33.7682 26.4904 34.0587 26.3229C34.3515 26.1554 34.6868 26.1352 34.9796 26.238C35.1138 25.9564 35.3663 25.735 35.6903 25.648C36.0166 25.5608 36.3452 25.6278 36.6022 25.8045C36.8055 25.5675 37.1052 25.4178 37.4425 25.4178C37.7778 25.4178 38.0773 25.5677 38.2808 25.8045C38.5378 25.628 38.8687 25.5608 39.1927 25.648C39.5167 25.7352 39.7694 25.9564 39.9034 26.238C40.1962 26.1352 40.5338 26.1554 40.8243 26.3229C41.1148 26.4904 41.3004 26.7722 41.3585 27.0783C41.3876 27.076 41.4165 27.074 41.4457 27.074C41.7272 27.074 42.009 27.1834 42.2257 27.398C42.4625 27.6348 42.5676 27.9545 42.5453 28.2652C42.8514 28.3232 43.1309 28.5089 43.3007 28.7994C43.4685 29.0899 43.4885 29.4251 43.3834 29.7202C43.6649 29.8543 43.8884 30.1069 43.9756 30.4309C44.0628 30.7549 43.9958 31.0835 43.8191 31.3428C44.056 31.5441 44.2058 31.8458 44.2058 32.1811C44.2062 32.5186 44.0564 32.8183 43.8195 33.0216Z" fill="white"/>
<path d="M41.8079 35.5137C41.4525 35.9653 41.0279 36.352 40.5562 36.6604C39.68 37.246 38.6428 37.5656 37.5721 37.5656C37.5051 37.5656 37.4381 37.5633 37.3688 37.5613C35.042 37.4741 33.0772 35.8827 32.4269 33.7369C32.295 33.3078 32.2167 32.8562 32.1988 32.3913C32.143 30.9116 32.675 29.5123 33.7009 28.4485C34.7246 27.3844 36.1014 26.799 37.579 26.799C37.646 26.7947 39.6823 26.732 41.2804 28.0306C41.4704 28.1871 41.4995 28.4687 41.343 28.6587C41.1888 28.851 40.9072 28.8799 40.7149 28.7234C39.3783 27.6348 37.6148 27.6908 37.5969 27.6931C36.3474 27.6931 35.1985 28.1802 34.3448 29.0676C33.4909 29.955 33.0462 31.1239 33.093 32.3578C33.1802 34.6867 35.0757 36.58 37.4046 36.6693C38.8553 36.723 40.2074 36.1016 41.106 34.9595C41.7742 34.1123 41.9711 32.9702 41.6312 31.8995C41.296 30.8423 40.5204 30.0621 39.5033 29.7604C38.3255 29.4095 37.1721 29.6039 36.4188 30.279C35.8242 30.8088 35.3192 31.8502 35.5539 32.7286C35.7193 33.3477 36.2556 33.864 36.9888 34.1054C37.6639 34.3267 38.3991 34.1211 38.8172 33.5935C38.9177 33.4661 38.9983 33.323 39.0543 33.1733C39.1995 32.7821 39.119 32.3619 38.8397 32.0535C38.576 31.7607 38.1937 31.6467 37.816 31.7474L37.7802 31.7563C37.5902 31.8123 37.4562 31.9888 37.4672 32.1698C37.4739 32.257 37.5074 32.3711 37.7153 32.4828C37.9321 32.5992 38.0148 32.8718 37.8986 33.0886C37.7823 33.3055 37.512 33.3881 37.2951 33.272C36.7364 32.9748 36.5955 32.5411 36.5755 32.2304C36.5353 31.6292 36.9399 31.0681 37.5344 30.8983L37.5836 30.8827C38.2922 30.6973 39.0095 30.9096 39.5036 31.4527C40.0043 32.0071 40.1539 32.7848 39.8925 33.4867C39.803 33.7259 39.6757 33.9473 39.5192 34.1483C38.8688 34.9708 37.7378 35.295 36.7074 34.9531C35.6881 34.6178 34.935 33.8713 34.6913 32.9594C34.3604 31.7212 35.0109 30.3398 35.8224 29.6135C36.8102 28.7284 38.2809 28.4645 39.7585 28.9028C41.046 29.2872 42.0628 30.3065 42.4832 31.6296C42.9119 32.9815 42.6595 34.4343 41.8079 35.5137Z" fill="#E86B6B"/>
<path d="M41.8079 35.5137C41.4525 35.9653 41.0279 36.3519 40.5562 36.6603C39.7939 36.9866 38.9535 37.1654 38.0728 37.1654C35.6163 37.1654 33.4864 35.775 32.4269 33.7366C32.295 33.3075 32.2167 32.8559 32.1988 32.391C32.143 30.9114 32.675 29.5121 33.7009 28.4482C34.7246 27.3842 36.1014 26.7988 37.579 26.7988C37.646 26.7944 39.6823 26.7318 41.2804 28.0304C41.4704 28.1869 41.4995 28.4684 41.343 28.6584C41.1888 28.8507 40.9072 28.8796 40.7149 28.7231C39.3783 27.6345 37.6148 27.6905 37.5969 27.6928C36.3474 27.6928 35.1985 28.18 34.3448 29.0674C33.4909 29.9547 33.0462 31.1237 33.093 32.3575C33.1802 34.6864 35.0757 36.5798 37.4046 36.6691C38.8553 36.7228 40.2074 36.1014 41.106 34.9593C41.7742 34.1121 41.9711 32.97 41.6312 31.8993C41.296 30.8421 40.5204 30.0619 39.5033 29.7601C38.3255 29.4093 37.1721 29.6036 36.4188 30.2787C35.8242 30.8086 35.3192 31.8499 35.5539 32.7284C35.7193 33.3475 36.2556 33.8638 36.9888 34.1052C37.6639 34.3264 38.3991 34.1208 38.8172 33.5933C38.9177 33.4659 38.9983 33.3227 39.0543 33.1731C39.1995 32.7818 39.119 32.3617 38.8397 32.0533C38.576 31.7605 38.1937 31.6464 37.816 31.7471L37.7802 31.7561C37.5902 31.8121 37.4562 31.9885 37.4672 32.1696C37.4739 32.2568 37.5074 32.3708 37.7153 32.4826C37.9321 32.5989 38.0148 32.8715 37.8986 33.0884C37.7823 33.3052 37.512 33.3879 37.2951 33.2717C36.7364 32.9746 36.5955 32.5409 36.5755 32.2302C36.5353 31.6289 36.9399 31.0679 37.5344 30.8981L37.5836 30.8825C38.2922 30.697 39.0095 30.9093 39.5036 31.4525C40.0043 32.0069 40.1539 32.7846 39.8925 33.4865C39.803 33.7256 39.6757 33.947 39.5192 34.1481C38.8688 34.9705 37.7378 35.2947 36.7074 34.9528C35.6881 34.6176 34.935 33.8711 34.6913 32.9592C34.3604 31.7209 35.0109 30.3395 35.8224 29.6132C36.8102 28.7281 38.2809 28.4643 39.7585 28.9025C41.046 29.2869 42.0628 30.3062 42.4832 31.6294C42.9119 32.9814 42.6595 34.4342 41.8079 35.5137Z" fill="#FA7D7D"/>
<path d="M37.4422 25.4176C37.7775 25.4176 38.077 25.5674 38.2805 25.8042C38.4618 25.6798 38.6794 25.6097 38.9056 25.6097C39.0005 25.6097 39.0967 25.6219 39.1924 25.6477C39.5164 25.7349 39.7691 25.9562 39.9031 26.2377C40.0209 26.1963 40.1458 26.1749 40.2719 26.1749C40.4596 26.1749 40.6502 26.2223 40.824 26.3226C41.1145 26.4902 41.3001 26.7719 41.3582 27.0781C41.3873 27.0758 41.4162 27.0737 41.4454 27.0737C41.7269 27.0737 42.0087 27.1832 42.2254 27.3977C42.4622 27.6345 42.5673 27.9542 42.545 28.2649C42.8511 28.323 43.1306 28.5086 43.3004 28.7991C43.4682 29.0896 43.4881 29.4249 43.3831 29.72C43.6646 29.854 43.8881 30.1066 43.9753 30.4307C44.0625 30.7547 43.9955 31.0833 43.8188 31.3426C44.0557 31.5438 44.2055 31.8456 44.2055 32.1808C44.2055 32.5184 44.0557 32.8178 43.8188 33.0212C43.8702 33.095 43.9104 33.1731 43.9418 33.2559C44.0201 33.4661 44.038 33.7006 43.9753 33.9331C43.8881 34.2571 43.6646 34.5075 43.3831 34.6438C43.4881 34.9366 43.468 35.2718 43.3004 35.5624C43.1306 35.8552 42.8511 36.0385 42.545 36.0966C42.5673 36.4073 42.4624 36.7269 42.2254 36.9637C42.0089 37.1802 41.7282 37.2869 41.4464 37.2869C41.4169 37.2869 41.3875 37.2857 41.3582 37.2834C41.3001 37.5918 41.1145 37.8713 40.824 38.0388C40.6502 38.1391 40.4598 38.1866 40.2719 38.1866C40.1455 38.1866 40.0207 38.1651 39.9031 38.1237C39.7691 38.4053 39.5164 38.6288 39.1924 38.716C39.0975 38.7416 39.0022 38.7537 38.9081 38.7537C38.6809 38.7537 38.4622 38.6829 38.2805 38.5595C38.0772 38.7942 37.7775 38.9462 37.4422 38.9462C37.1047 38.9462 36.8052 38.7942 36.6019 38.5595C36.4209 38.6825 36.2017 38.7539 35.9761 38.7539C35.8823 38.7539 35.7861 38.7406 35.69 38.7158C35.366 38.6286 35.1133 38.4051 34.9793 38.1235C34.8615 38.1649 34.7371 38.1864 34.6112 38.1864C34.4239 38.1864 34.2337 38.1389 34.0584 38.0386C33.7679 37.8711 33.5823 37.5916 33.5265 37.2832C33.497 37.2855 33.4672 37.2867 33.4376 37.2867C33.1542 37.2867 32.8737 37.1802 32.657 36.9635C32.4202 36.7265 32.3151 36.4071 32.3374 36.0964C32.0313 36.0383 31.7518 35.8549 31.582 35.5621C31.4144 35.2716 31.3942 34.9364 31.4993 34.6436C31.2178 34.5073 30.9943 34.2569 30.9071 33.9329C30.8199 33.6066 30.8869 33.278 31.0636 33.021C30.8265 32.8176 30.6769 32.518 30.6769 32.1806C30.6769 31.8454 30.8267 31.5436 31.0636 31.3424C30.9383 31.159 30.8692 30.9422 30.8692 30.7166C30.8692 30.6227 30.8804 30.5266 30.9073 30.4304C30.9945 30.1064 31.218 29.8538 31.4995 29.7198C31.3945 29.4247 31.4146 29.0894 31.5822 28.7989C31.732 28.5442 31.9665 28.3698 32.2281 28.2892C32.2639 28.2803 32.3018 28.2713 32.3376 28.2647C32.3353 28.2378 32.3353 28.211 32.3353 28.1821C32.3353 28.1307 32.3397 28.0793 32.3465 28.0279C32.3778 27.7977 32.4806 27.5742 32.6572 27.3975C32.6885 27.3663 32.722 27.3372 32.7578 27.3103C32.9563 27.1534 33.1956 27.0741 33.4362 27.0741C33.4664 27.0741 33.4965 27.0754 33.5265 27.0778C33.5825 26.7717 33.7679 26.49 34.0584 26.3224C34.2334 26.2221 34.4239 26.1747 34.6112 26.1747C34.7371 26.1747 34.8617 26.1961 34.9793 26.2375C35.1135 25.9559 35.366 25.7345 35.69 25.6475C35.7863 25.6217 35.8829 25.6095 35.9778 25.6095C36.2042 25.6095 36.4209 25.6796 36.6019 25.804C36.805 25.5674 37.1047 25.4176 37.4422 25.4176ZM37.4422 24.0765C37.0797 24.0765 36.7268 24.1567 36.4063 24.3065C36.2656 24.2815 36.1224 24.2688 35.9776 24.2688C35.7643 24.2688 35.5512 24.2969 35.3437 24.3523C34.992 24.4468 34.6715 24.6157 34.4008 24.8432C34.0472 24.8738 33.7019 24.9816 33.3919 25.1591C33.0747 25.342 32.8077 25.5893 32.6048 25.8806C32.3663 25.9674 32.1409 26.091 31.9391 26.2481C31.8577 26.3101 31.7801 26.378 31.7081 26.4498C31.4515 26.7064 31.259 27.0108 31.1387 27.3467C30.8507 27.5484 30.6068 27.8108 30.4253 28.1196C30.4234 28.1228 30.4216 28.1259 30.4199 28.129C30.2384 28.4434 30.1317 28.7897 30.1019 29.1427C29.8757 29.4116 29.7075 29.7291 29.6131 30.0767C29.5563 30.2825 29.5275 30.4979 29.5275 30.717C29.5275 30.8614 29.5402 31.0046 29.5652 31.1451C29.4154 31.4652 29.3354 31.8181 29.3354 32.181C29.3354 32.5438 29.4158 32.8971 29.5656 33.2178C29.5036 33.5664 29.5173 33.9285 29.611 34.2796C29.705 34.6292 29.8738 34.9491 30.1017 35.2198C30.1315 35.5723 30.2384 35.9184 30.4199 36.2331C30.6024 36.5475 30.8488 36.8131 31.1391 37.0158C31.2596 37.3496 31.4523 37.6565 31.7085 37.9125C31.9667 38.1708 32.2725 38.3641 32.6063 38.4842C32.8085 38.7739 33.0739 39.0196 33.3881 39.2009C33.7009 39.3801 34.0459 39.4879 34.3989 39.5189C34.6698 39.7476 34.9905 39.9172 35.3416 40.0117C35.347 40.0131 35.3522 40.0146 35.3576 40.0158C35.5647 40.0689 35.7728 40.0957 35.9761 40.0957C36.1216 40.0957 36.2656 40.0828 36.4069 40.0575C36.7278 40.2075 37.0805 40.2878 37.4422 40.2878C37.8035 40.2878 38.1558 40.2073 38.4765 40.057C38.618 40.0822 38.7625 40.0951 38.9081 40.0951C39.1214 40.0951 39.3343 40.067 39.5406 40.0115C39.8917 39.917 40.2123 39.7476 40.4831 39.5189C40.8383 39.4881 41.1842 39.3796 41.4941 39.2009C41.8077 39.0198 42.073 38.7743 42.2759 38.4844C42.6095 38.3641 42.9154 38.1708 43.1737 37.9123C43.4297 37.6563 43.6224 37.3496 43.7429 37.0158C44.033 36.8135 44.279 36.5486 44.4604 36.2356C44.6427 35.9195 44.7501 35.5728 44.7801 35.2198C45.008 34.9493 45.1767 34.63 45.2706 34.2815C45.3646 33.9316 45.3798 33.5704 45.3166 33.2176C45.4666 32.8969 45.5469 32.5436 45.5469 32.1808C45.5469 31.8173 45.4668 31.4643 45.3168 31.1438C45.3788 30.7946 45.3649 30.4325 45.2708 30.0823C45.1767 29.7325 45.0079 29.4128 44.7805 29.1425C44.7507 28.7895 44.644 28.4434 44.4625 28.1288C44.2787 27.8143 44.0326 27.5494 43.7437 27.3471C43.6232 27.0127 43.4303 26.7055 43.1739 26.4492C42.9129 26.1907 42.6074 25.9978 42.2761 25.8777C42.0734 25.5874 41.8079 25.3416 41.4943 25.1608C41.184 24.9818 40.8375 24.8732 40.4816 24.8426C40.2113 24.6153 39.8912 24.4466 39.5408 24.3523C39.3335 24.2965 39.1198 24.2682 38.9056 24.2682C38.7608 24.2682 38.6172 24.2809 38.4765 24.3059C38.1562 24.1567 37.8039 24.0765 37.4422 24.0765Z" fill="#661E2F"/>
<path d="M57.3591 34.8195C57.3591 34.8195 57.1108 36.27 56.2609 38.0353C53.66 43.4376 47.1644 44.4812 42.9683 41.5875C41.4001 40.5085 40.1535 38.8775 39.5514 36.7184C39.5223 36.6181 39.4944 36.5139 39.4703 36.4108C39.1615 35.1741 39.0865 33.8919 39.1906 32.6198C39.4534 29.4247 40.65 21.6449 46.1185 18.9237C47.3504 18.3114 48.7129 18.0835 50.0313 18.2334C51.2972 18.377 52.5194 18.8668 53.5462 19.698C55.9873 21.67 58.5214 25.88 57.3591 34.8195Z" fill="#FCEAEA"/>
<path d="M54.3226 30.4073C54.2481 32.5381 53.7412 34.6348 52.8203 36.5577C52.812 36.5754 52.8035 36.5929 52.7949 36.6106C51.8526 38.567 50.3998 39.9521 48.7304 40.7856C45.106 42.5955 40.6846 40.678 39.5698 36.7833C39.5635 36.7617 39.5575 36.74 39.5514 36.7184C39.5223 36.6181 39.4944 36.5138 39.4703 36.4108C39.1615 35.174 39.0865 33.8919 39.1906 32.6197C39.4534 29.4247 40.65 21.6448 46.1185 18.9236C46.1314 18.9172 46.1443 18.9109 46.157 18.9047C48.3021 17.8548 50.9137 18.6354 52.1683 20.6675C53.4413 22.7286 54.4839 25.7957 54.3226 30.4073Z" fill="white"/>
<path d="M57.3591 34.8195C57.3591 34.8195 57.1108 36.27 56.2609 38.0353C53.66 43.4376 47.1644 44.4812 42.9683 41.5875C41.4001 40.5085 40.1535 38.8775 39.5514 36.7184C39.5223 36.6181 39.4944 36.5139 39.4703 36.4108C39.1615 35.1741 39.0865 33.8919 39.1906 32.6198C39.4534 29.4247 40.65 21.6449 46.1185 18.9237C47.3504 18.3114 48.7129 18.0835 50.0313 18.2334C51.2972 18.377 52.5194 18.8668 53.5462 19.698C55.9873 21.67 58.5214 25.88 57.3591 34.8195Z" stroke="black" stroke-width="2" stroke-miterlimit="10" stroke-linecap="round" stroke-linejoin="round"/>
<path d="M54.3226 30.4073C54.2481 32.5381 53.7412 34.6348 52.8203 36.5577C52.812 36.5754 52.8035 36.5929 52.7949 36.6106C51.8526 38.567 50.3998 39.9521 48.7304 40.7856C45.106 42.5955 40.6846 40.678 39.5698 36.7833C39.5635 36.7617 39.5575 36.74 39.5514 36.7184C39.5223 36.6181 39.4944 36.5138 39.4703 36.4108C39.1615 35.174 39.0865 33.8919 39.1906 32.6197C39.4534 29.4247 40.65 21.6448 46.1185 18.9236C46.1314 18.9172 46.1443 18.9109 46.157 18.9047C48.3021 17.8548 50.9137 18.6354 52.1683 20.6675C53.4413 22.7286 54.4839 25.7957 54.3226 30.4073Z" stroke="black" stroke-width="2" stroke-miterlimit="10" stroke-linecap="round" stroke-linejoin="round"/>
<path d="M50.3074 30.7304C50.619 27.9583 49.1932 25.5224 47.1228 25.2897C45.0524 25.057 43.1214 27.1155 42.8098 29.8876C42.4982 32.6597 43.924 35.0956 45.9944 35.3284C48.0648 35.5611 49.9958 33.5025 50.3074 30.7304Z" fill="#FABE6E"/>
<path d="M50.3074 30.7304C50.619 27.9583 49.1932 25.5224 47.1228 25.2897C45.0524 25.057 43.1214 27.1155 42.8098 29.8876C42.4982 32.6597 43.924 35.0956 45.9944 35.3284C48.0648 35.5611 49.9958 33.5025 50.3074 30.7304Z" stroke="black" stroke-width="2" stroke-miterlimit="10" stroke-linecap="round" stroke-linejoin="round"/>
<path d="M48.3925 30.1006C49.0239 28.5608 48.6003 26.929 47.4463 26.4558C46.2923 25.9826 44.845 26.8472 44.2136 28.3869C43.5822 29.9267 44.0058 31.5585 45.1598 32.0318C46.3137 32.505 47.7611 31.6404 48.3925 30.1006Z" fill="#FAD87D"/>
<path d="M70.1876 41.9146C70.1876 41.9146 69.6424 43.5066 68.3604 45.3442C64.4376 50.9674 56.9144 50.9589 52.7065 46.9258C51.5223 45.7916 50.6004 44.339 50.0968 42.6013C49.9303 42.0332 49.8096 41.4338 49.7389 40.8054C49.7243 40.6867 49.7118 40.564 49.7035 40.4433C49.5807 38.9907 49.7305 37.5298 50.0802 36.1126C50.9604 32.5539 53.7324 23.9901 60.4024 21.9174C61.905 21.4512 63.4845 21.4429 64.9454 21.8529C66.348 22.2462 67.6383 23.0224 68.6455 24.1483C69.8026 25.4406 70.891 27.3282 71.3717 30.0504C71.8858 32.9554 71.7089 36.8139 70.1876 41.9146Z" fill="#FCDEDE"/>
<path d="M69.2162 24.845C71.1861 27.4807 71.655 30.9245 70.6817 34.0679C70.275 35.3813 69.689 36.6844 68.9184 37.9354C64.8457 44.5492 57.1456 47.2026 51.72 43.8604C51.688 43.8406 51.6559 43.8206 51.6241 43.8004C50.5838 43.1416 49.8808 42.0475 49.7409 40.8243C49.7403 40.818 49.7395 40.8118 49.7389 40.8054C49.7243 40.6867 49.7118 40.564 49.7035 40.4433C49.5807 38.9907 49.7305 37.5298 50.0802 36.1126C50.9604 32.5539 53.7324 23.9901 60.4024 21.9174C61.905 21.4512 63.4845 21.4429 64.9454 21.8529C66.348 22.2462 67.6383 23.0224 68.6455 24.1483C68.8387 24.3637 69.0295 24.5955 69.2162 24.845Z" fill="#FCEAEA"/>
<path d="M67.5657 36.379C67.1744 38.3664 66.4481 40.2706 65.4159 42.0062C65.2058 42.362 64.981 42.7096 64.7458 43.0488C64.7334 43.0654 64.7209 43.0842 64.7084 43.1029C63.287 45.1382 61.3953 46.4368 59.3578 47.0736C54.9355 48.4533 50.2945 45.4815 49.7472 40.8822C49.7451 40.8635 49.743 40.8426 49.7409 40.8239C49.7409 40.8177 49.7389 40.8114 49.7389 40.8052C49.7243 40.6866 49.7118 40.5638 49.7035 40.4431C49.5807 38.9905 49.7305 37.5296 50.0802 36.1124C50.9604 32.5538 53.7324 23.99 60.4024 21.9172C60.4815 21.8923 60.5606 21.8694 60.6397 21.8486C63.1952 21.1764 65.8925 22.5291 66.9143 24.991C67.9736 27.5509 68.5896 31.2031 67.5657 36.379Z" fill="#FCEAEA"/>
<path d="M67.5657 36.3792C67.5538 36.4393 67.5417 36.4992 67.5293 36.5592C66.4873 41.5793 62.0904 45.2913 56.9633 45.3057C55.1184 45.3109 53.3202 44.8466 51.72 43.8608C51.6888 43.84 51.6555 43.8213 51.6243 43.8004C50.5838 43.1428 49.8804 42.0482 49.7409 40.8245C49.7409 40.8183 49.7389 40.812 49.7389 40.8058C49.7243 40.6872 49.7118 40.5644 49.7035 40.4437C49.5807 38.9911 49.7305 37.5302 50.0802 36.113C50.9604 32.5544 53.7324 23.9906 60.4024 21.9178C60.4815 21.8929 60.5606 21.87 60.6397 21.8492C63.1952 21.177 65.8925 22.5297 66.9143 24.9916C67.9736 27.5511 68.5896 31.2033 67.5657 36.3792Z" fill="white"/>
<path d="M62.9759 36.0062C62.1178 39.0787 59.5619 41.0499 57.2673 40.4091C54.9725 39.7683 53.8079 36.7581 54.666 33.6856C55.524 30.6131 58.0799 28.6419 60.3745 29.2829C62.6693 29.9234 63.8339 32.9337 62.9759 36.0062Z" fill="#FABE6E"/>
<path d="M62.9759 36.0062C62.1178 39.0787 59.5619 41.0499 57.2673 40.4091C54.9725 39.7683 53.8079 36.7581 54.666 33.6856C55.524 30.6131 58.0799 28.6419 60.3745 29.2829C62.6693 29.9234 63.8339 32.9337 62.9759 36.0062Z" stroke="black" stroke-width="2" stroke-miterlimit="10" stroke-linecap="round" stroke-linejoin="round"/>
<path d="M70.1876 41.9146C70.1876 41.9146 69.6424 43.5066 68.3604 45.3442C64.4376 50.9674 56.9144 50.9589 52.7065 46.9258C51.5223 45.7916 50.6004 44.339 50.0968 42.6013C49.9303 42.0332 49.8096 41.4338 49.7389 40.8054C49.7243 40.6867 49.7118 40.564 49.7035 40.4433C49.5807 38.9907 49.7305 37.5298 50.0802 36.1126C50.9604 32.5539 53.7324 23.9901 60.4024 21.9174C61.905 21.4512 63.4845 21.4429 64.9454 21.8529C66.348 22.2462 67.6383 23.0224 68.6455 24.1483C69.8026 25.4406 70.891 27.3282 71.3717 30.0504C71.8858 32.9554 71.7089 36.8139 70.1876 41.9146Z" stroke="black" stroke-width="2" stroke-miterlimit="10" stroke-linecap="round" stroke-linejoin="round"/>
<path d="M67.5657 36.379C67.1744 38.3664 66.4481 40.2706 65.4159 42.0062C65.2058 42.362 64.981 42.7096 64.7458 43.0488C64.7334 43.0654 64.7209 43.0842 64.7084 43.1029C63.287 45.1382 61.3953 46.4368 59.3578 47.0736C54.9355 48.4533 50.2945 45.4815 49.7472 40.8822C49.7451 40.8635 49.743 40.8426 49.7409 40.8239C49.7409 40.8177 49.7389 40.8114 49.7389 40.8052C49.7243 40.6866 49.7118 40.5638 49.7035 40.4431C49.5807 38.9905 49.7305 37.5296 50.0802 36.1124C50.9604 32.5538 53.7324 23.99 60.4024 21.9172C60.4815 21.8923 60.5606 21.8694 60.6397 21.8486C63.1952 21.1764 65.8925 22.5291 66.9143 24.991C67.9736 27.5509 68.5896 31.2031 67.5657 36.379Z" stroke="black" stroke-width="2" stroke-miterlimit="10" stroke-linecap="round" stroke-linejoin="round"/>
<path d="M60.7823 34.6848C61.544 32.9664 61.0993 31.1025 59.7892 30.5218C58.479 29.9411 56.7995 30.8635 56.0378 32.5819C55.2762 34.3004 55.7208 36.1642 57.0309 36.7449C58.3411 37.3256 60.0206 36.4033 60.7823 34.6848Z" fill="#FAD87D"/>
<path d="M36.3815 43.2211C23.1249 44.855 11.4909 44.4683 5.46041 42.4926L5.45813 42.4903C5.43357 35.0115 9.25794 31.3659 12.8118 29.5935C15.447 28.2793 18.4198 27.7919 21.3502 28.0803C38.0557 29.7342 36.3815 43.2211 36.3815 43.2211Z" fill="#FAD87D"/>
<path d="M34.077 43.4871C34.202 36.7592 30.5835 33.469 27.1726 31.862C22.5033 29.6582 16.7076 29.7252 12.5479 33.0289C10.4088 34.7277 9.01199 37.1663 8.27654 39.7657C7.9725 40.8408 7.74899 41.9696 7.68427 43.0937C7.29989 43.0088 6.92884 42.9173 6.57568 42.8234C6.65393 41.8445 6.8327 40.8654 7.06078 39.9156C7.65076 37.4636 8.69234 35.0719 10.3553 33.1519C12.5546 30.6128 15.6816 29.2917 19.0055 29.0861C21.2899 28.9452 23.5674 29.2582 25.7377 29.9712C28.3103 30.8161 30.7267 32.251 32.441 34.3766C34.495 36.9203 35.2507 40.1499 35.2036 43.362C34.8257 43.4045 34.4501 43.4469 34.077 43.4871Z" fill="#FABE6E"/>
<path d="M32.9477 43.6036C32.57 43.6416 32.1923 43.6772 31.819 43.711C31.9284 38.1052 28.8797 35.3804 26.0501 34.0573C23.3723 32.8012 20.5113 32.5306 17.675 33.3891C14.6017 34.3189 12.2168 36.5273 10.963 39.4664C10.4221 40.7361 10.0375 42.1308 9.94157 43.5187C9.55491 43.4583 9.18157 43.3957 8.81738 43.3264C8.90458 42.0657 9.20862 40.8006 9.62421 39.616C10.5852 36.8823 12.3825 34.4775 14.9574 33.0827C18.6386 31.0891 22.8654 31.1963 26.6115 32.9597C29.7313 34.4259 33.0662 37.4345 32.9477 43.6036Z" fill="#FABE6E"/>
<path d="M29.5597 43.8985C29.6423 39.4394 27.1748 37.2869 24.9262 36.2497C22.9972 35.3557 21.1488 35.2887 20.9946 35.2974C13.2566 35.7043 12.311 42.4567 12.1971 43.82C11.8128 43.7776 11.435 43.7305 11.0684 43.6814C11.1712 42.1504 11.6496 40.5969 12.3536 39.2469C13.9898 36.1176 17.2152 34.229 20.7287 34.0659C25.0448 33.8646 29.4479 36.8106 30.4271 41.0709C30.6327 41.9695 30.7065 42.8904 30.6907 43.809C30.3107 43.8404 29.9353 43.8718 29.5597 43.8985Z" fill="#FABE6E"/>
<path d="M28.433 43.9766C28.053 44.0035 27.6776 44.0258 27.3043 44.0459C27.3378 40.7602 25.4602 39.1956 23.8039 38.4448C22.199 37.7183 20.458 37.5976 18.7861 38.1653C17.0425 38.7553 15.7261 40.0763 15.031 41.7638C14.7359 42.4768 14.5236 43.2547 14.4587 44.028C14.0743 43.9989 13.6987 43.9677 13.3276 43.9319C13.4394 42.6712 14.3066 36.9091 20.9227 36.5358C21.106 36.5268 22.7041 36.5849 24.3648 37.3472C26.3187 38.2458 28.4911 40.1032 28.433 43.9766Z" fill="#FABE6E"/>
<path d="M26.1758 44.1063C25.7957 44.1242 25.418 44.1421 25.0447 44.1554C25.0156 42.0723 23.7415 41.1 22.6821 40.6395C21.8261 40.2684 20.9833 40.2349 20.7084 40.2551C17.5456 40.5077 16.8751 43.1676 16.7344 44.1577C16.3477 44.1421 15.9677 44.1242 15.5923 44.102C15.6839 43.1676 16.0147 42.2267 16.5019 41.4376C17.9324 39.1332 20.8359 38.4693 23.2431 39.5421C24.6045 40.1502 26.1803 41.4176 26.1758 44.1063Z" fill="#FABE6E"/>
<path d="M23.9135 44.1936C23.5291 44.2069 23.1491 44.2158 22.7691 44.2225H22.7668C22.6528 43.3776 22.0181 42.9976 21.5575 42.8344C21.2402 42.7204 20.8983 42.6846 20.5651 42.736C19.5682 42.8902 19.1882 43.6837 19.0474 44.2292C18.6517 44.2225 18.2628 44.2135 17.8784 44.2C18.1265 42.7158 19.2396 41.6028 20.8065 41.5C21.2512 41.4709 21.7095 41.567 22.1186 41.7369C22.8809 42.0501 23.8419 42.7229 23.9135 44.1936Z" fill="#FABE6E"/>
<path d="M36.3815 43.2211C23.1249 44.855 11.4909 44.4683 5.46041 42.4926L5.45813 42.4903C5.43357 35.0115 9.25794 31.3659 12.8118 29.5935C15.447 28.2793 18.4198 27.7919 21.3502 28.0803C38.0557 29.7342 36.3815 43.2211 36.3815 43.2211Z" stroke="black" stroke-width="2" stroke-miterlimit="10" stroke-linecap="round" stroke-linejoin="round"/>
<path d="M56.4356 39.218C51.0869 40.7805 44.6922 42.1236 37.7743 43.0424C34.9066 43.4224 32.1059 43.7106 29.4126 43.9075C29.967 40.9101 32.0658 34.2896 39.8777 32.5461C42.2805 32.0096 44.7817 32.0768 47.1687 32.6801C50.1259 33.4289 54.2095 35.1724 56.4356 39.218Z" fill="#FAD87D"/>
<path d="M55.5284 39.4773C55.1016 39.598 54.6679 39.7164 54.2299 39.8348C52.3255 36.6766 49.0488 35.2752 46.6438 34.6538C44.5918 34.1219 42.435 34.0615 40.3698 34.5398C34.1582 35.9568 32.2517 41.0462 31.6728 43.7218H31.6705C31.2258 43.7643 30.7831 43.8001 30.3428 43.8359C30.9105 40.9592 32.9379 34.9691 40.1082 33.3688C42.3568 32.868 44.6992 32.9284 46.9322 33.4961C49.6657 34.1889 53.4295 35.7892 55.5284 39.4773Z" fill="#FABE6E"/>
<path d="M52.9123 40.177C52.4697 40.2888 52.0227 40.3982 51.569 40.5079C50.0758 38.4314 47.7983 37.4458 46.0637 36.972C44.3762 36.5093 42.5925 36.4579 40.8937 36.8781C36.5776 37.9465 34.964 41.2881 34.3648 43.4539C33.9111 43.5053 33.4596 43.5523 33.0103 43.5947C33.6025 41.1562 35.375 36.9586 40.6322 35.7092C42.5141 35.2622 44.4834 35.3136 46.352 35.812C48.4264 36.3593 51.2069 37.5574 52.9123 40.177Z" fill="#FABE6E"/>
<path d="M50.19 40.8297C49.7184 40.9371 49.24 41.0443 48.7572 41.1471C47.7625 40.1413 46.5086 39.5935 45.4872 39.2897C44.1618 38.8941 42.7492 38.8471 41.4192 39.2181C38.9337 39.9088 37.7267 41.6611 37.1434 43.123C36.6718 43.1857 36.2023 43.2437 35.7354 43.2995C36.3366 41.4555 37.7648 38.932 41.1578 38.0492C42.6709 37.6536 44.2692 37.7027 45.7757 38.1297C47.1592 38.523 48.927 39.2941 50.19 40.8297Z" fill="#FABE6E"/>
<path d="M47.2194 41.4689C46.6294 41.5873 46.0325 41.7036 45.429 41.8177C45.2503 41.7351 45.0759 41.6658 44.9081 41.6075C43.9492 41.2745 42.9032 41.2298 41.9443 41.5584C41.2067 41.811 40.6657 42.2245 40.2701 42.6894C39.7246 42.7721 39.1748 42.8503 38.6206 42.9286C39.1525 41.9182 40.078 40.8745 41.6827 40.3872C42.8271 40.0407 44.0563 40.0854 45.1986 40.4475C45.8315 40.6462 46.5601 40.9636 47.2194 41.4689Z" fill="#FABE6E"/>
<path d="M56.4356 39.218C51.0869 40.7805 44.6922 42.1236 37.7743 43.0424C34.9066 43.4224 32.1059 43.7106 29.4126 43.9075C29.967 40.9101 32.0658 34.2896 39.8777 32.5461C42.2805 32.0096 44.7817 32.0768 47.1687 32.6801C50.1259 33.4289 54.2095 35.1724 56.4356 39.218Z" stroke="black" stroke-width="2" stroke-miterlimit="10" stroke-linecap="round" stroke-linejoin="round"/>
<path d="M54.093 41.0556C54.8833 40.2652 54.8833 38.9838 54.093 38.1935C53.3026 37.4031 52.0212 37.4031 51.2309 38.1935C50.4405 38.9838 50.4405 40.2652 51.2309 41.0556C52.0212 41.8459 53.3026 41.8459 54.093 41.0556Z" fill="#779665"/>
<path d="M54.1744 39.1801C54.1744 39.8038 53.6689 40.3093 53.0452 40.3093C52.4215 40.3093 51.916 39.8038 51.916 39.1801C51.916 38.5564 52.4215 38.0509 53.0452 38.0509C53.6689 38.0509 54.1744 38.5564 54.1744 39.1801Z" fill="#7FA16C"/>
<path d="M54.093 41.0556C54.8833 40.2652 54.8833 38.9838 54.093 38.1935C53.3026 37.4031 52.0212 37.4031 51.2309 38.1935C50.4405 38.9838 50.4405 40.2652 51.2309 41.0556C52.0212 41.8459 53.3026 41.8459 54.093 41.0556Z" stroke="black" stroke-width="2" stroke-miterlimit="10" stroke-linecap="round" stroke-linejoin="round"/>
<path d="M57.9284 38.5061C58.1841 37.418 57.5093 36.3286 56.4212 36.0728C55.3331 35.8171 54.2437 36.4919 53.988 37.58C53.7322 38.6681 54.407 39.7575 55.4951 40.0132C56.5832 40.269 57.6726 39.5942 57.9284 38.5061Z" fill="#779665"/>
<path d="M57.4678 37.6006C57.4678 38.2243 56.9624 38.7298 56.3387 38.7298C55.715 38.7298 55.2095 38.2243 55.2095 37.6006C55.2095 36.9769 55.715 36.4714 56.3387 36.4714C56.9621 36.4714 57.4678 36.9769 57.4678 37.6006Z" fill="#7FA16C"/>
<path d="M57.9284 38.5061C58.1841 37.418 57.5093 36.3286 56.4212 36.0728C55.3331 35.8171 54.2437 36.4919 53.988 37.58C53.7322 38.6681 54.407 39.7575 55.4951 40.0132C56.5832 40.269 57.6726 39.5942 57.9284 38.5061Z" stroke="black" stroke-width="2" stroke-miterlimit="10" stroke-linecap="round" stroke-linejoin="round"/>
<path d="M28.4345 45.1151C29.5522 45.1151 30.4583 44.209 30.4583 43.0912C30.4583 41.9735 29.5522 41.0674 28.4345 41.0674C27.3167 41.0674 26.4106 41.9735 26.4106 43.0912C26.4106 44.209 27.3167 45.1151 28.4345 45.1151Z" fill="#779665"/>
<path d="M29.9459 42.6469C29.9459 43.2706 29.4404 43.7761 28.8167 43.7761C28.193 43.7761 27.6875 43.2706 27.6875 42.6469C27.6875 42.0232 28.193 41.5177 28.8167 41.5177C29.4404 41.5177 29.9459 42.0234 29.9459 42.6469Z" fill="#7FA16C"/>
<path d="M28.4345 45.1151C29.5522 45.1151 30.4583 44.209 30.4583 43.0912C30.4583 41.9735 29.5522 41.0674 28.4345 41.0674C27.3167 41.0674 26.4106 41.9735 26.4106 43.0912C26.4106 44.209 27.3167 45.1151 28.4345 45.1151Z" stroke="black" stroke-width="2" stroke-miterlimit="10" stroke-linecap="round" stroke-linejoin="round"/>
<path d="M33.6787 44.0947C33.9366 43.0072 33.264 41.9165 32.1764 41.6586C31.0889 41.4008 29.9982 42.0734 29.7403 43.1609C29.4825 44.2485 30.1551 45.3392 31.2426 45.597C32.3302 45.8549 33.4209 45.1823 33.6787 44.0947Z" fill="#779665"/>
<path d="M32.0935 44.3126C32.7172 44.3126 33.2227 43.807 33.2227 43.1834C33.2227 42.5598 32.7172 42.0542 32.0935 42.0542C31.4699 42.0542 30.9644 42.5598 30.9644 43.1834C30.9644 43.807 31.4699 44.3126 32.0935 44.3126Z" fill="#7FA16C"/>
<path d="M33.6787 44.0947C33.9366 43.0072 33.264 41.9165 32.1764 41.6586C31.0889 41.4008 29.9982 42.0734 29.7403 43.1609C29.4825 44.2485 30.1551 45.3392 31.2426 45.597C32.3302 45.8549 33.4209 45.1823 33.6787 44.0947Z" stroke="black" stroke-width="2" stroke-miterlimit="10" stroke-linecap="round" stroke-linejoin="round"/>
<path d="M10.8422 39.8218C11.6236 39.0226 11.6092 37.7413 10.81 36.9599C10.0108 36.1785 8.72947 36.1929 7.94807 36.992C7.16666 37.7912 7.18107 39.0725 7.98025 39.854C8.77943 40.6354 10.0607 40.621 10.8422 39.8218Z" fill="#779665"/>
<path d="M10.9068 37.9652C10.9068 38.5889 10.4013 39.0944 9.77762 39.0944C9.15393 39.0944 8.64844 38.5889 8.64844 37.9652C8.64844 37.3416 9.15393 36.8361 9.77762 36.8361C10.4013 36.8361 10.9068 37.3418 10.9068 37.9652Z" fill="#7FA16C"/>
<path d="M10.8422 39.8218C11.6236 39.0226 11.6092 37.7413 10.81 36.9599C10.0108 36.1785 8.72947 36.1929 7.94807 36.992C7.16666 37.7912 7.18107 39.0725 7.98025 39.854C8.77943 40.6354 10.0607 40.621 10.8422 39.8218Z" stroke="black" stroke-width="2" stroke-miterlimit="10" stroke-linecap="round" stroke-linejoin="round"/>
<path d="M8.0368 37.0426C8.28516 35.9528 7.60305 34.868 6.51326 34.6197C5.42347 34.3713 4.33868 35.0534 4.09032 36.1432C3.84196 37.233 4.52408 38.3178 5.61387 38.5662C6.70366 38.8145 7.78844 38.1324 8.0368 37.0426Z" fill="#779665"/>
<path d="M7.57527 36.1503C7.57527 36.774 7.06978 37.2795 6.44608 37.2795C5.82239 37.2795 5.31689 36.774 5.31689 36.1503C5.31689 35.5266 5.82239 35.0211 6.44608 35.0211C7.06978 35.0213 7.57527 35.5268 7.57527 36.1503Z" fill="#7FA16C"/>
<path d="M8.0368 37.0426C8.28516 35.9528 7.60305 34.868 6.51326 34.6197C5.42347 34.3713 4.33868 35.0534 4.09032 36.1432C3.84196 37.233 4.52408 38.3178 5.61387 38.5662C6.70366 38.8145 7.78844 38.1324 8.0368 37.0426Z" stroke="black" stroke-width="2" stroke-miterlimit="10" stroke-linecap="round" stroke-linejoin="round"/>
<path d="M5.40574 38.878C5.66259 37.7903 4.989 36.7002 3.90122 36.4434C2.81344 36.1865 1.7234 36.8601 1.46654 37.9479C1.20969 39.0357 1.88328 40.1257 2.97106 40.3826C4.05884 40.6394 5.14888 39.9658 5.40574 38.878Z" fill="#779665"/>
<path d="M3.81961 39.0944C4.44325 39.0944 4.9488 38.5889 4.9488 37.9652C4.9488 37.3416 4.44325 36.8361 3.81961 36.8361C3.19598 36.8361 2.69043 37.3416 2.69043 37.9652C2.69043 38.5889 3.19598 39.0944 3.81961 39.0944Z" fill="#7FA16C"/>
<path d="M5.40574 38.878C5.66259 37.7903 4.989 36.7002 3.90122 36.4434C2.81344 36.1865 1.7234 36.8601 1.46654 37.9479C1.20969 39.0357 1.88328 40.1257 2.97106 40.3826C4.05884 40.6394 5.14888 39.9658 5.40574 38.878Z" stroke="black" stroke-width="2" stroke-miterlimit="10" stroke-linecap="round" stroke-linejoin="round"/>
<path d="M11.7467 42.5947C12.0025 41.5066 11.3277 40.4172 10.2396 40.1614C9.15146 39.9057 8.06205 40.5805 7.80632 41.6686C7.55058 42.7567 8.22535 43.8461 9.31347 44.1018C10.4016 44.3576 11.491 43.6828 11.7467 42.5947Z" fill="#779665"/>
<path d="M11.2862 41.6883C11.2862 42.3118 10.7807 42.8175 10.157 42.8175C9.53353 42.8175 9.02783 42.312 9.02783 41.6883C9.02783 41.0646 9.53332 40.5591 10.157 40.5591C10.7807 40.5591 11.2862 41.0646 11.2862 41.6883Z" fill="#7FA16C"/>
<path d="M11.7467 42.5947C12.0025 41.5066 11.3277 40.4172 10.2396 40.1614C9.15146 39.9057 8.06205 40.5805 7.80632 41.6686C7.55058 42.7567 8.22535 43.8461 9.31347 44.1018C10.4016 44.3576 11.491 43.6828 11.7467 42.5947Z" stroke="black" stroke-width="2" stroke-miterlimit="10" stroke-linecap="round" stroke-linejoin="round"/>
<path d="M5.86026 42.5827C6.97799 42.5827 7.8841 41.6766 7.8841 40.5589C7.8841 39.4411 6.97799 38.535 5.86026 38.535C4.74253 38.535 3.83643 39.4411 3.83643 40.5589C3.83643 41.6766 4.74253 42.5827 5.86026 42.5827Z" fill="#779665"/>
<path d="M7.37116 40.1145C7.37116 40.7382 6.86567 41.2437 6.24198 41.2437C5.61828 41.2437 5.11279 40.7382 5.11279 40.1145C5.11279 39.4908 5.61828 38.9854 6.24198 38.9854C6.86567 38.9854 7.37116 39.4911 7.37116 40.1145Z" fill="#7FA16C"/>
<path d="M5.86026 42.5827C6.97799 42.5827 7.8841 41.6766 7.8841 40.5589C7.8841 39.4411 6.97799 38.535 5.86026 38.535C4.74253 38.535 3.83643 39.4411 3.83643 40.5589C3.83643 41.6766 4.74253 42.5827 5.86026 42.5827Z" stroke="black" stroke-width="2" stroke-miterlimit="10" stroke-linecap="round" stroke-linejoin="round"/>
<path d="M60.2531 69.6828C48.9768 79.5823 28.1782 74.836 28.1782 74.836V69.0402C28.2117 69.0446 28.2452 69.0492 28.281 69.0558C28.3168 69.0602 28.3547 69.0671 28.3905 69.0737C29.8903 69.3353 31.361 69.5074 32.7959 69.6013C33.9963 69.7041 35.2434 69.7757 36.5354 69.8158C43.0643 70.0191 49.5685 68.6446 55.3397 65.5869C56.1332 65.1667 56.9311 64.7062 57.7291 64.1988C57.7314 64.1988 57.7337 64.1988 57.7358 64.1965L60.2531 69.6828Z" fill="#E35D5D"/>
<path d="M60.2531 69.6828C47.0862 79.4919 28.1782 74.836 28.1782 74.836V69.0402C28.2117 69.0446 28.2452 69.0492 28.281 69.0558C28.3168 69.0602 28.3547 69.0671 28.3905 69.0737C29.8903 69.3353 31.361 69.5074 32.7959 69.6013C33.9963 69.7041 35.2434 69.7757 36.5354 69.8158C43.0643 70.0191 49.5685 68.6446 55.3397 65.5869C56.1332 65.1667 56.9311 64.7062 57.7291 64.1988C57.7314 64.1988 57.7337 64.1988 57.7358 64.1965L60.2531 69.6828Z" stroke="black" stroke-width="2" stroke-miterlimit="10" stroke-linecap="round" stroke-linejoin="round"/>
<path d="M43.8325 69.3735L44.5353 75.4979" stroke="black" stroke-width="2" stroke-miterlimit="10" stroke-linecap="round" stroke-linejoin="round"/>
<path d="M40.8936 69.7152L41.2498 75.7212" stroke="black" stroke-width="2" stroke-miterlimit="10" stroke-linecap="round" stroke-linejoin="round"/>
<path d="M38.2007 69.9286V76.0001" stroke="black" stroke-width="2" stroke-miterlimit="10" stroke-linecap="round" stroke-linejoin="round"/>
<path d="M35.6453 69.9286L35.5146 75.7212" stroke="black" stroke-width="2" stroke-miterlimit="10" stroke-linecap="round" stroke-linejoin="round"/>
<path d="M33.2105 69.6354L32.8345 75.602" stroke="black" stroke-width="2" stroke-miterlimit="10" stroke-linecap="round" stroke-linejoin="round"/>
<path d="M30.6352 69.4026L30.3696 75.2614" stroke="black" stroke-width="2" stroke-miterlimit="10" stroke-linecap="round" stroke-linejoin="round"/>
<path d="M46.269 68.9138L47.4619 75.0557" stroke="black" stroke-width="2" stroke-miterlimit="10" stroke-linecap="round" stroke-linejoin="round"/>
<path d="M48.585 68.3192L50.3189 74.4557" stroke="black" stroke-width="2" stroke-miterlimit="10" stroke-linecap="round" stroke-linejoin="round"/>
<path d="M50.9697 67.5349L53.3698 73.256" stroke="black" stroke-width="2" stroke-miterlimit="10" stroke-linecap="round" stroke-linejoin="round"/>
<path d="M53.5103 66.4889L56.0972 72.3427" stroke="black" stroke-width="2" stroke-miterlimit="10" stroke-linecap="round" stroke-linejoin="round"/>
<path d="M55.7944 65.3419L58.2004 71.0064" stroke="black" stroke-width="2" stroke-miterlimit="10" stroke-linecap="round" stroke-linejoin="round"/>
<path d="M72.7588 39.343C72.4369 49.6628 68.7087 56.7124 63.979 61.5157C62.1999 63.3239 60.2777 64.8169 58.3421 66.0441C58.3398 66.0464 58.3377 66.0464 58.3354 66.0464C57.5375 66.5537 56.7394 67.0143 55.9459 67.4344C54.9066 67.9842 53.8449 68.4806 52.7631 68.923C52.3629 69.0862 51.9584 69.2427 51.5518 69.3902C46.9653 71.0732 42.0613 71.8176 37.1416 71.6634C35.8497 71.6232 34.6025 71.5516 33.4022 71.4488C31.8622 71.3214 30.3936 71.1427 28.9968 70.9213C28.961 70.9146 28.9231 70.9079 28.8873 70.9034C28.8515 70.8967 28.818 70.8921 28.7845 70.8877V70.8855C10.1991 67.859 3.94967 57.0231 1.92459 48.8289C1.64968 47.7157 1.45073 46.6519 1.31213 45.664C0.766684 41.7928 1.10194 39.0703 1.10194 39.0703C1.22265 39.9733 1.90211 40.7691 3.05544 41.4486C3.39528 41.6498 3.77965 41.8398 4.19982 42.0209C9.93523 44.4751 22.9417 45.0139 37.7741 43.0423C49.1196 41.5358 59.0527 38.8916 65.2843 36.0016C65.3938 35.9525 65.5011 35.9011 65.6062 35.8518C65.7471 35.7848 65.8834 35.7175 66.0197 35.6505C67.1283 35.1074 68.1072 34.5553 68.9345 34.0032C70.3583 33.0531 71.3485 32.0988 71.8267 31.1712C72.0973 30.6483 72.2045 30.134 72.1374 29.6335C72.4952 32.0274 72.6962 34.2849 72.7588 36.4149C72.7901 37.4209 72.7878 38.3952 72.7588 39.343Z" fill="#DB5151"/>
<path d="M72.7588 39.343C72.7499 39.6 72.7409 39.857 72.7276 40.1119C72.2404 50.1903 66.7395 59.028 58.5747 64.1555C57.6157 64.759 56.6189 65.3111 55.5909 65.805C53.0249 67.0432 50.2556 67.9372 47.3409 68.4269C45.0634 68.8069 42.7097 69.0079 40.3023 69.0079C21.8578 69.0079 6.61631 57.2599 4.2002 42.0207C9.93561 44.4749 22.9421 45.0137 37.7744 43.0421C49.12 41.5356 59.0531 38.8914 65.2847 36.0014C66.7017 35.3442 67.9289 34.6737 68.9346 34.0032C70.3585 33.0532 71.3487 32.0988 71.8269 31.1712C72.0974 30.6483 72.2046 30.134 72.1376 29.6335C72.4953 32.0274 72.6964 34.2849 72.759 36.4149C72.79 37.4209 72.7877 38.3952 72.7588 39.343Z" fill="#E35D5D"/>
<path d="M46.958 72.3673C47.0005 72.3451 47.0429 72.3226 47.0854 72.3026C47.034 72.3295 46.9915 72.3517 46.958 72.3673Z" fill="#FABE6E"/>
<path d="M72.7587 39.343C67.6537 43.5474 54.189 47.8298 38.0624 49.9733C25.4896 51.6429 14.1418 51.634 6.89322 50.2594C4.91059 49.884 3.23429 49.4033 1.92447 48.8289C1.64956 47.7158 1.45061 46.6519 1.31201 45.664C1.4015 45.7244 1.49535 45.7804 1.5915 45.8384C2.60394 46.4353 3.96079 46.9447 5.6169 47.3651C12.5146 49.1196 24.5575 49.303 38.0422 47.5104C54.7142 45.2953 68.4782 40.7423 72.7585 36.4152C72.7899 37.4209 72.7877 38.3953 72.7587 39.343Z" fill="#FCEAEA"/>
<path d="M72.7585 39.343C67.6535 43.5474 54.1888 47.8298 38.0622 49.9733C25.4894 51.6429 14.1416 51.634 6.89302 50.2594C6.4125 49.3184 5.98546 48.3529 5.6167 47.3649C12.5144 49.1194 24.5573 49.3027 38.042 47.5101C54.714 45.295 68.478 40.7421 72.7583 36.4149C72.7897 37.4209 72.7874 38.3953 72.7585 39.343Z" fill="white"/>
<path opacity="0.2" d="M58.5745 64.1556C56.9003 65.803 54.9759 67.4033 52.7631 68.9231C52.363 69.0863 51.9584 69.2428 51.5518 69.3903C52.7923 68.4359 54.1826 67.2468 55.5907 65.8051C61.1673 60.1031 67.0526 50.4697 65.2845 36.0015C65.4141 35.9411 65.5415 35.8808 65.6668 35.8227C65.7852 35.7647 65.9036 35.7087 66.0199 35.6506C66.6235 35.3555 67.1889 35.0561 67.7098 34.7566C67.8484 34.6784 67.9847 34.6001 68.1166 34.5196C68.2642 34.4301 68.4071 34.3431 68.548 34.2536C68.613 34.2134 68.68 34.171 68.7424 34.1283C68.8071 34.0859 68.872 34.0457 68.9347 34.0031C69.7257 40.5301 69.5178 53.3865 58.5745 64.1556Z" fill="white"/>
<path d="M72.7588 39.343C72.3162 53.5496 65.4164 61.5559 58.3421 66.0441C58.3398 66.0464 58.3377 66.0464 58.3354 66.0464C57.5375 66.5538 56.7394 67.0143 55.9459 67.4345C50.1747 70.4922 43.6705 71.8667 37.1416 71.6634C35.8497 71.6232 34.6025 71.5517 33.4022 71.4488C31.8622 71.3215 30.3936 71.1427 28.9968 70.9213C28.961 70.9146 28.9231 70.908 28.8873 70.9034C28.8515 70.8967 28.818 70.8922 28.7845 70.8878V70.8855C10.1991 67.859 3.94967 57.0231 1.92459 48.8289C1.64968 47.7158 1.45073 46.6519 1.31213 45.664C0.766684 41.7928 1.10194 39.0704 1.10194 39.0704C1.22265 39.9734 1.90211 40.7692 3.05544 41.4486C8.03314 44.3833 21.8508 45.159 37.7741 43.0423C55.3401 40.7088 69.5155 35.6506 71.8265 31.1715C72.0971 30.6485 72.2042 30.1343 72.1372 29.6338C72.495 32.0276 72.696 34.2852 72.7586 36.4152C72.7901 37.4209 72.7878 38.3953 72.7588 39.343Z" stroke="black" stroke-width="2" stroke-miterlimit="10" stroke-linecap="round" stroke-linejoin="round"/>
<path d="M22.4873 59.5559C22.5635 57.6235 22.9308 55.2452 24.1188 53.6272C25.6717 51.5122 28.8641 51.6539 30.2888 53.8574C30.983 54.931 31.6246 56.5276 31.8766 58.8815C32.1374 61.3142 30.4717 63.5233 28.0554 63.9075C27.6071 63.9788 27.1339 64.0198 26.6434 64.0163C24.2547 63.9984 22.3934 61.9429 22.4873 59.5559Z" fill="black"/>
<path d="M30.0665 55.6174C30.0263 56.6592 29.1493 57.4713 28.1076 57.4311C27.0658 57.3909 26.2537 56.514 26.2939 55.4722C26.3341 54.4304 27.211 53.6184 28.2528 53.6585C29.2944 53.6987 30.1064 54.5757 30.0665 55.6174Z" fill="white"/>
<path d="M29.9869 61.4001C29.7792 62.7786 28.1672 63.6785 26.3864 63.4102C24.6057 63.142 23.3306 61.807 23.5383 60.4285C23.746 59.05 25.358 58.1501 27.1387 58.4184C28.9195 58.6869 30.1946 60.0219 29.9869 61.4001Z" fill="#424242"/>
<path d="M57.5818 55.2647C57.1071 53.3901 56.2549 51.1394 54.7574 49.8027C52.7999 48.0552 49.7062 48.8552 48.7689 51.3061C48.3123 52.5002 48.0153 54.1952 48.2561 56.5502C48.5052 58.9842 50.5921 60.8003 53.0357 60.6757C53.4892 60.6526 53.9605 60.5947 54.4396 60.4896C56.7731 59.9768 58.1682 57.5803 57.5818 55.2647Z" fill="black"/>
<path d="M49.3512 52.9818C49.6062 53.9925 50.6325 54.6054 51.6433 54.3503C52.6543 54.0954 53.267 53.069 53.0118 52.0582C52.7569 51.0472 51.7305 50.4345 50.7197 50.6897C49.709 50.9446 49.0963 51.971 49.3512 52.9818Z" fill="white"/>
<path d="M54.5622 59.8444C56.2487 59.213 57.2196 57.6429 56.7309 56.3374C56.2421 55.0319 54.4788 54.4854 52.7923 55.1167C51.1059 55.7481 50.135 57.3182 50.6237 58.6237C51.1125 59.9292 52.8758 60.4758 54.5622 59.8444Z" fill="#424242"/>
<path d="M38.355 64.2399C38.355 64.2399 41.7881 65.5425 45.3911 63.4006" stroke="black" stroke-width="2" stroke-miterlimit="10" stroke-linecap="round" stroke-linejoin="round"/>
<path d="M55.9591 59.1287C56.1715 60.4102 57.8626 61.1973 59.7362 60.8868C61.6098 60.5763 62.9564 59.2856 62.7442 58.0041C62.5317 56.7226 60.8406 55.9355 58.967 56.246C57.0932 56.5565 55.7466 57.8472 55.9591 59.1287Z" fill="#FAD87D"/>
<path d="M61.2101 59.7277C61.3999 59.6191 61.4656 59.3773 61.3572 59.1875L60.2147 57.1907C60.1061 57.0009 59.8643 56.9352 59.6745 57.0436C59.4847 57.1522 59.4189 57.394 59.5273 57.5838L60.6698 59.5806C60.7785 59.7704 61.0203 59.8364 61.2101 59.7277Z" fill="#FABE6E"/>
<path d="M59.028 60.0895C59.2178 59.9809 59.2835 59.7391 59.1751 59.5493L58.0326 57.5525C57.9239 57.3627 57.6821 57.297 57.4923 57.4054C57.3025 57.514 57.2368 57.7558 57.3452 57.9456L58.4877 59.9424C58.5963 60.1322 58.8382 60.1982 59.028 60.0895Z" fill="#FABE6E"/>
<path d="M19.1016 64.4073C19.3141 65.6888 21.0052 66.4759 22.8788 66.1654C24.7524 65.8549 26.099 64.5642 25.8868 63.2827C25.6743 62.0012 23.9834 61.2141 22.1096 61.5246C20.2358 61.8351 18.8892 63.1258 19.1016 64.4073Z" fill="#FAD87D"/>
<path d="M24.3527 65.0062C24.5425 64.8975 24.6082 64.6557 24.4998 64.4659L23.3573 62.4691C23.2487 62.2794 23.0068 62.2136 22.817 62.322C22.6273 62.4306 22.5615 62.6725 22.6699 62.8623L23.8124 64.859C23.9211 65.0488 24.1629 65.1148 24.3527 65.0062Z" fill="#FABE6E"/>
<path d="M22.1707 65.368C22.3605 65.2594 22.4262 65.0175 22.3176 64.8277L21.1751 62.831C21.0665 62.6412 20.8247 62.5754 20.6349 62.6838C20.4451 62.7925 20.3793 63.0343 20.4879 63.2241L21.6304 65.2209C21.7391 65.4107 21.9809 65.4766 22.1707 65.368Z" fill="#FABE6E"/>
</svg>
