<svg width="75" height="69" viewBox="0 0 75 69" fill="none" xmlns="http://www.w3.org/2000/svg">
<path d="M70.5615 33.4741L69.8842 33.268C59.1017 29.9864 53.1804 18.4268 56.8172 7.7589C47.8796 15.331 34.5407 14.6748 26.4466 6.20712C26.0588 17.4531 17.8596 26.8964 6.77932 28.8585L4.5 29.2621L7.33463 30.4458C17.0712 34.5117 21.9517 45.4617 18.466 55.4207C26.0843 50.2637 36.5025 53.0216 40.5714 61.2725L40.856 61.8495L40.9919 60.9608C42.4127 51.6711 51.9755 46.002 60.8074 49.2136C56.127 44.7282 58.1332 36.8513 64.3891 35.1514L70.5615 33.4741Z" fill="#FFB300" stroke="black" stroke-width="2"/>
<path d="M14.254 43.8932L5.38672 48.9919M30.2152 60.7411L27.555 68.5M15.8058 16.8479L8.2686 11.9709M43.7378 7.98058V0M63.6893 23.4984L71.4482 20.1731M54.3786 54.7557L60.3641 60.7411" stroke="black" stroke-width="2"/>
</svg>
