<svg width="24" height="24" viewBox="0 0 24 24" fill="none" xmlns="http://www.w3.org/2000/svg">
<mask id="path-1-outside-1_2335_889" maskUnits="userSpaceOnUse" x="-0.000488281" y="0" width="24" height="24" fill="black">
<rect fill="white" x="-0.000488281" width="24" height="24"/>
<path fill-rule="evenodd" clip-rule="evenodd" d="M17.7695 9.047V10.82C16.5895 10.82 15.4975 10.442 14.6045 9.799V14.436C14.6045 16.751 12.7265 18.634 10.4175 18.634C9.52551 18.634 8.69851 18.353 8.01851 17.873C6.93851 17.113 6.23051 15.857 6.23051 14.436C6.23051 12.12 8.10951 10.236 10.4175 10.236C10.6095 10.236 10.7975 10.252 10.9815 10.277V10.818V12.607C10.8035 12.55 10.6145 12.518 10.4175 12.518C9.36351 12.518 8.50551 13.378 8.50551 14.436C8.50551 15.172 8.92251 15.812 9.53051 16.133C9.79651 16.273 10.0975 16.353 10.4175 16.353C11.4475 16.353 12.2885 15.531 12.3265 14.508L12.3305 5.365H14.6045C14.6045 5.563 14.6235 5.756 14.6585 5.944C14.8185 6.814 15.3325 7.559 16.0455 8.025C16.5425 8.35 17.1335 8.539 17.7695 8.539V9.047ZM19.6195 2H4.38051C3.06851 2 1.99951 3.068 1.99951 4.381V19.618C1.99951 20.932 3.06851 22 4.38051 22H19.6195C20.9325 22 21.9995 20.932 21.9995 19.618V4.381C21.9995 3.068 20.9325 2 19.6195 2V2Z"/>
</mask>
<path fill-rule="evenodd" clip-rule="evenodd" d="M17.7695 9.047V10.82C16.5895 10.82 15.4975 10.442 14.6045 9.799V14.436C14.6045 16.751 12.7265 18.634 10.4175 18.634C9.52551 18.634 8.69851 18.353 8.01851 17.873C6.93851 17.113 6.23051 15.857 6.23051 14.436C6.23051 12.12 8.10951 10.236 10.4175 10.236C10.6095 10.236 10.7975 10.252 10.9815 10.277V10.818V12.607C10.8035 12.55 10.6145 12.518 10.4175 12.518C9.36351 12.518 8.50551 13.378 8.50551 14.436C8.50551 15.172 8.92251 15.812 9.53051 16.133C9.79651 16.273 10.0975 16.353 10.4175 16.353C11.4475 16.353 12.2885 15.531 12.3265 14.508L12.3305 5.365H14.6045C14.6045 5.563 14.6235 5.756 14.6585 5.944C14.8185 6.814 15.3325 7.559 16.0455 8.025C16.5425 8.35 17.1335 8.539 17.7695 8.539V9.047ZM19.6195 2H4.38051C3.06851 2 1.99951 3.068 1.99951 4.381V19.618C1.99951 20.932 3.06851 22 4.38051 22H19.6195C20.9325 22 21.9995 20.932 21.9995 19.618V4.381C21.9995 3.068 20.9325 2 19.6195 2V2Z" fill="white"/>
<path d="M17.7695 10.82V12.82H19.7695V10.82H17.7695ZM14.6045 9.799L15.7732 8.17597L12.6045 5.89439V9.799H14.6045ZM8.01851 17.873L9.17188 16.2391L9.1695 16.2374L8.01851 17.873ZM10.9815 10.277H12.9815V8.53036L11.2508 8.29521L10.9815 10.277ZM10.9815 12.607L10.3716 14.5117L12.9815 15.3475V12.607H10.9815ZM9.53051 16.133L8.59674 17.9016L8.59902 17.9028L9.53051 16.133ZM12.3265 14.508L14.3251 14.5822L14.3265 14.5456L14.3265 14.5089L12.3265 14.508ZM12.3305 5.365V3.365H10.3314L10.3305 5.36412L12.3305 5.365ZM14.6045 5.365H16.6045V3.365H14.6045V5.365ZM14.6585 5.944L16.6255 5.58225L16.6247 5.57795L14.6585 5.944ZM16.0455 8.025L17.1401 6.35112L17.1397 6.35085L16.0455 8.025ZM17.7695 8.539H19.7695V6.539H17.7695V8.539ZM15.7695 9.047V10.82H19.7695V9.047H15.7695ZM17.7695 8.82C17.0242 8.82 16.3384 8.58294 15.7732 8.17597L13.4359 11.422C14.6566 12.3011 16.1548 12.82 17.7695 12.82V8.82ZM12.6045 9.799V14.436H16.6045V9.799H12.6045ZM12.6045 14.436C12.6045 15.6514 11.617 16.634 10.4175 16.634V20.634C13.836 20.634 16.6045 17.8506 16.6045 14.436H12.6045ZM10.4175 16.634C9.95267 16.634 9.52617 16.4892 9.17188 16.2391L6.86515 19.5069C7.87085 20.2168 9.09835 20.634 10.4175 20.634V16.634ZM9.1695 16.2374C8.59695 15.8345 8.23051 15.1763 8.23051 14.436H4.23051C4.23051 16.5377 5.28007 18.3915 6.86752 19.5086L9.1695 16.2374ZM8.23051 14.436C8.23051 13.219 9.21966 12.236 10.4175 12.236V8.236C6.99936 8.236 4.23051 11.021 4.23051 14.436H8.23051ZM10.4175 12.236C10.499 12.236 10.5947 12.2428 10.7122 12.2588L11.2508 8.29521C11.0004 8.26119 10.72 8.236 10.4175 8.236V12.236ZM8.98151 10.277V10.818H12.9815V10.277H8.98151ZM8.98151 10.818V12.607H12.9815V10.818H8.98151ZM11.5915 10.7023C11.2277 10.5858 10.8332 10.518 10.4175 10.518V14.518C10.3958 14.518 10.3793 14.5142 10.3716 14.5117L11.5915 10.7023ZM10.4175 10.518C8.25351 10.518 6.50551 12.2789 6.50551 14.436H10.5055C10.5055 14.444 10.5035 14.4562 10.4984 14.4682C10.4939 14.4789 10.4882 14.4867 10.4825 14.4924C10.4768 14.4981 10.4685 14.5044 10.4562 14.5096C10.4426 14.5154 10.4283 14.518 10.4175 14.518V10.518ZM6.50551 14.436C6.50551 15.9455 7.36159 17.2495 8.59674 17.9016L10.4643 14.3644C10.4773 14.3712 10.4858 14.3797 10.4921 14.3899C10.4957 14.3958 10.4993 14.4033 10.5019 14.4124C10.5046 14.4218 10.5055 14.4303 10.5055 14.436H6.50551ZM8.59902 17.9028C9.13968 18.1874 9.75903 18.353 10.4175 18.353V14.353C10.425 14.353 10.4341 14.354 10.4434 14.3564C10.4524 14.3586 10.4587 14.3614 10.462 14.3632L8.59902 17.9028ZM10.4175 18.353C12.5352 18.353 14.2477 16.6682 14.3251 14.5822L10.3279 14.4338C10.3288 14.4098 10.3404 14.3893 10.3516 14.3784C10.3574 14.3728 10.3661 14.3664 10.3786 14.3612C10.3924 14.3555 10.4068 14.353 10.4175 14.353V18.353ZM14.3265 14.5089L14.3305 5.36587L10.3305 5.36412L10.3265 14.5071L14.3265 14.5089ZM12.3305 7.365H14.6045V3.365H12.3305V7.365ZM12.6045 5.365C12.6045 5.69175 12.6359 6.00733 12.6923 6.31005L16.6247 5.57795C16.6111 5.50467 16.6045 5.43425 16.6045 5.365H12.6045ZM12.6915 6.30575C12.9533 7.72917 13.7929 8.942 14.9513 9.69915L17.1397 6.35085C16.8722 6.176 16.6837 5.89883 16.6255 5.58225L12.6915 6.30575ZM14.9509 9.69888C15.761 10.2286 16.7302 10.539 17.7695 10.539V6.539C17.5368 6.539 17.324 6.47141 17.1401 6.35112L14.9509 9.69888ZM15.7695 8.539V9.047H19.7695V8.539H15.7695ZM19.6195 0H4.38051V4H19.6195V0ZM4.38051 0C1.96449 0 -0.000488281 1.96288 -0.000488281 4.381H3.99951C3.99951 4.17312 4.17253 4 4.38051 4V0ZM-0.000488281 4.381V19.618H3.99951V4.381H-0.000488281ZM-0.000488281 19.618C-0.000488281 22.0366 1.96394 24 4.38051 24V20C4.17308 20 3.99951 19.8274 3.99951 19.618H-0.000488281ZM4.38051 24H19.6195V20H4.38051V24ZM19.6195 24C22.0387 24 23.9995 22.0349 23.9995 19.618H19.9995C19.9995 19.8291 19.8263 20 19.6195 20V24ZM23.9995 19.618V4.381H19.9995V19.618H23.9995ZM23.9995 4.381C23.9995 1.96453 22.0382 0 19.6195 0V4C19.8268 4 19.9995 4.17147 19.9995 4.381H23.9995Z" fill="black" mask="url(#path-1-outside-1_2335_889)"/>
</svg>
