<svg width="88" height="77" viewBox="0 0 88 77" fill="none" xmlns="http://www.w3.org/2000/svg">
<path d="M1.14912 43.9683C2.32637 32.9927 8.17256 17.3449 30.6581 10.3714C41.3615 7.05198 52.9885 7.85101 62.9035 13.074C70.9726 17.3244 78.9712 24.9476 81.4471 38.6189C83.5309 50.1258 78.6336 61.8659 68.8163 68.2203C65.4966 70.3692 61.359 72.2968 56.2036 73.7319C47.4098 76.1796 38.1468 76.3916 29.2032 74.5664C25.0742 73.7239 20.418 72.4236 16.0757 70.4201C5.95834 65.7518 -0.0390082 55.0468 1.14912 43.9683Z" fill="#FFEDED"/>
<path d="M3.81548 42.1998C4.86014 32.4587 10.0489 18.571 30.005 12.3822C39.5046 9.43617 49.8234 10.1452 58.6233 14.7805C65.7848 18.5528 72.8835 25.3187 75.0807 37.4521C76.9302 47.6649 72.5837 58.0843 63.871 63.7239C60.9246 65.631 57.2523 67.3418 52.6769 68.6154C44.8724 70.788 36.6515 70.976 28.7138 69.3562C25.0491 68.6084 20.9166 67.4545 17.063 65.6762C8.08379 61.5331 2.76089 52.0322 3.81548 42.1998Z" fill="white"/>
<path d="M81.889 42.5893L81.1764 42.0804C81.1764 42.0804 79.6104 28.2253 63.6529 26.585C61.8832 26.405 60.0942 26.5066 58.3402 26.8044C55.815 27.2271 51.3011 27.3879 51.0936 23.1558C51.0936 23.1558 48.6036 24.569 45.5225 29.9406C45.5225 29.9406 40.8638 37.3672 34.5801 32.9042C34.5801 32.9042 29.9057 36.1458 30.2109 47.2291C30.2775 49.6095 28.0146 51.4026 25.7361 50.7134C24.2914 50.275 22.5649 49.0183 20.6585 46.211C20.6585 46.211 15.7922 39.8492 17.7967 27.0981C17.7967 27.0981 11.7167 27.8692 11.376 21.5507C15.7842 17.0444 21.9817 13.063 30.6574 10.3732C41.3608 7.0532 52.9885 7.8519 62.9051 13.0746C70.9738 17.3262 78.9721 24.9489 81.4464 38.6197C81.6856 39.9427 81.8342 41.2698 81.889 42.5893Z" fill="#FFDBDB"/>
<path d="M1.14912 43.9683C2.32637 32.9927 8.17256 17.3449 30.6581 10.3714C41.3615 7.05198 52.9885 7.85101 62.9035 13.074C70.9726 17.3244 78.9712 24.9476 81.4471 38.6189C83.5309 50.1258 78.6336 61.8659 68.8163 68.2203C65.4966 70.3692 61.359 72.2968 56.2036 73.7319C47.4098 76.1796 38.1468 76.3916 29.2032 74.5664C25.0742 73.7239 20.418 72.4236 16.0757 70.4201C5.95834 65.7518 -0.0390082 55.0468 1.14912 43.9683Z" stroke="black" stroke-width="2" stroke-miterlimit="10" stroke-linecap="round" stroke-linejoin="round"/>
<path d="M43.387 75.7754C43.387 75.7754 50.0047 76.6929 58.2041 74.8127C79.7506 69.8719 91.9723 46.6319 83.6125 26.1678C80.8465 19.397 75.5864 12.4649 66.0252 6.91236C56.9833 1.66151 46.3439 -0.308993 36.1198 1.88185C30.9881 2.98159 25.4859 5.19645 20.5297 9.369C18.1352 11.385 16.2556 13.9669 15.1914 16.9103C14.0641 20.0286 13.8707 23.5526 18.5784 23.8165C18.5784 23.8165 13.2869 40.1983 23.6803 47.7076C25.2037 48.8083 27.3411 47.7748 27.4196 45.8969C27.4301 45.6487 27.4224 45.3794 27.3933 45.0873C27.2233 43.38 27.2601 41.659 27.6364 39.9847C28.4963 36.1596 30.8379 30.2904 37.2167 26.6959C37.2167 26.6959 37.1956 26.7346 37.1629 26.8051C36.1314 29.0465 38.6748 31.2656 40.7753 29.9708C42.1297 29.1359 43.9609 27.3454 46.096 23.576C46.096 23.576 48.9757 18.2166 54.6554 18.2166C54.6554 18.2166 54.6297 18.2432 54.5859 18.2941C52.7928 20.3764 54.2938 23.6176 57.0416 23.6317C57.7679 23.6356 58.614 23.568 59.5581 23.3717C63.274 22.598 67.1653 23.0822 70.438 25.0043C73.2658 26.6651 76.3127 29.37 78.5769 33.7706C82.6175 41.6251 82.2975 51.0789 77.7906 58.6756C73.2594 66.3148 63.6711 74.7342 43.387 75.7754Z" fill="#CDDBA4"/>
<path d="M58.204 74.8137C50.0059 76.6929 43.3856 75.7767 43.3856 75.7767C63.6732 74.7352 73.2609 66.3142 77.7906 58.6759C82.2968 51.077 82.6177 41.626 78.5774 33.7687C76.3145 29.3681 73.2648 26.6629 70.4382 25.0031C67.1652 23.0809 63.2739 22.5992 59.5583 23.3704C58.6149 23.5661 57.7691 23.6365 57.0408 23.6327C54.2924 23.617 52.793 20.3754 54.5861 18.2928C54.629 18.2419 54.6565 18.2147 54.6565 18.2147C48.9759 18.2147 46.0946 23.5744 46.0946 23.5744C43.9608 27.3444 42.1286 29.1375 40.7743 29.9714C38.676 31.2672 36.131 29.0475 37.1647 26.8041C37.1961 26.7337 37.2157 26.6946 37.2157 26.6946C30.8382 30.2885 28.4968 36.1609 27.6357 39.986C27.2597 41.6577 27.2245 43.3804 27.3929 45.0873C27.4243 45.381 27.432 45.6471 27.4204 45.8979C27.342 47.7733 25.2046 48.8067 23.6815 47.7066C13.4517 40.3152 18.4159 24.3302 18.5764 23.829C16.3058 32.5908 19.6335 37.3046 21.7866 39.3205C22.4287 39.9236 23.4897 39.5671 23.6501 38.698C26.6608 22.0513 39.8504 17.921 39.8504 17.921C39.5958 19.1777 39.5958 20.0939 39.7328 20.7556C39.9874 21.9732 41.5688 22.2707 42.2619 21.2372C50.6672 8.69745 62.561 13.5246 62.561 13.5246C61.5391 14.3467 61.0107 15.1925 60.7484 15.9204C60.4038 16.8834 61.1359 17.8778 62.154 17.8819C79.5795 17.9056 85.6831 33.2483 85.6831 33.2483C89.0656 51.6957 77.2932 70.4368 58.204 74.8137Z" fill="#C2D196"/>
<path d="M43.387 75.7754C43.387 75.7754 50.0047 76.6929 58.2041 74.8127C79.7506 69.8719 91.9723 46.6319 83.6125 26.1678C80.8465 19.397 75.5864 12.4649 66.0252 6.91236C56.9833 1.66151 46.3439 -0.308993 36.1198 1.88185C30.9881 2.98159 25.4859 5.19645 20.5297 9.369C18.1352 11.385 16.2556 13.9669 15.1914 16.9103C14.0641 20.0286 13.8707 23.5526 18.5784 23.8165C18.5784 23.8165 13.2869 40.1983 23.6803 47.7076C25.2037 48.8083 27.3411 47.7748 27.4196 45.8969C27.4301 45.6487 27.4224 45.3794 27.3933 45.0873C27.2233 43.38 27.2601 41.659 27.6364 39.9847C28.4963 36.1596 30.8379 30.2904 37.2167 26.6959C37.2167 26.6959 37.0358 27.0261 36.9221 27.5154C36.4462 29.5685 38.6389 31.1973 40.4999 30.2081C41.8767 29.476 43.8126 27.7066 46.096 23.5763C46.096 23.5763 48.9757 18.2169 54.6554 18.2169C54.6554 18.2169 54.6297 18.2435 54.5859 18.2944C52.7928 20.3767 54.2938 23.618 57.0416 23.632C57.7679 23.6359 58.614 23.5683 59.5581 23.372C63.274 22.5983 67.1653 23.0825 70.438 25.0046C73.2658 26.6655 76.3127 29.3703 78.5769 33.7709C82.6175 41.6254 82.2975 51.0792 77.7906 58.6759C73.2594 66.3148 63.6711 74.7342 43.387 75.7754Z" stroke="black" stroke-width="2" stroke-miterlimit="10" stroke-linecap="round" stroke-linejoin="round"/>
<path d="M25.8536 47.9942C25.8536 47.9942 25.1413 46.6981 24.391 44.4384C18.6479 27.1439 29.0859 8.75634 46.757 4.30581C49.7434 3.55386 53.1172 3.03345 56.8923 2.8999" stroke="black" stroke-width="2" stroke-miterlimit="10" stroke-linecap="round" stroke-linejoin="round"/>
<path d="M36.3919 9.00195C36.3919 9.00195 29.2318 21.1446 31.6839 31.3802" stroke="black" stroke-width="2" stroke-miterlimit="10" stroke-linecap="round" stroke-linejoin="round"/>
<path d="M29.2316 15.8451C29.2316 15.8451 20.0308 19.5011 14.5215 19.994" stroke="black" stroke-width="2" stroke-miterlimit="10" stroke-linecap="round" stroke-linejoin="round"/>
<path d="M46.7568 4.30579C46.7568 4.30579 36.8646 7.02216 28.6328 4.30579" stroke="black" stroke-width="2" stroke-miterlimit="10" stroke-linecap="round" stroke-linejoin="round"/>
<path d="M58.6145 3.47473C58.6145 3.47473 46.0962 9.00195 46.0962 23.5763" stroke="black" stroke-width="2" stroke-miterlimit="10" stroke-linecap="round" stroke-linejoin="round"/>
<path d="M76.1216 14.7236C76.1216 14.7236 64.6275 11.6172 58.6147 23.5305" stroke="black" stroke-width="2" stroke-miterlimit="10" stroke-linecap="round" stroke-linejoin="round"/>
<path d="M84.9794 30.1706C84.9794 30.1706 79.6001 25.3809 74.1123 27.7632" stroke="black" stroke-width="2" stroke-miterlimit="10" stroke-linecap="round" stroke-linejoin="round"/>
<path d="M29.4532 8.52091C30.3717 9.87942 28.8793 12.4936 26.1197 14.3594C23.3601 16.2252 20.3782 16.6364 19.4594 15.2779C18.5409 13.9194 20.0333 11.3052 22.7929 9.43939C25.5528 7.5736 28.5347 7.1624 29.4532 8.52091Z" fill="#D8E6B3"/>
<path d="M46.4977 46.9233C46.4768 45.2054 46.2754 42.9579 45.5337 40.9746C43.8927 36.5868 37.6997 36.3345 35.7849 40.6098C35.057 42.2348 34.6096 44.475 34.8376 47.5551C34.9849 49.5465 36.2986 51.2777 38.1916 51.9134C39.6324 52.3973 41.5181 52.5222 43.7076 51.4805C45.4508 50.651 46.521 48.8537 46.4977 46.9233Z" fill="black"/>
<path d="M36.4452 41.7371C36.4853 43.3819 37.8511 44.683 39.4963 44.6427C41.1411 44.6027 42.4419 43.2368 42.4019 41.592C42.3619 39.9472 40.996 38.646 39.3512 38.6863C37.7061 38.7264 36.4052 40.0922 36.4452 41.7371Z" fill="white"/>
<path d="M37.8864 49.9516C38.4722 51.508 40.6435 52.1312 42.7357 51.3437C44.8282 50.5562 46.0493 48.6562 45.4636 47.0997C44.8778 45.5433 42.7065 44.9201 40.6143 45.7076C38.5218 46.4951 37.3007 48.3955 37.8864 49.9516Z" fill="#616161"/>
<path d="M5.26497 43.2721C5.28258 41.8115 5.45392 39.8999 6.08481 38.2134C7.48015 34.4822 12.747 34.2676 14.3752 37.9031C14.9942 39.285 15.3747 41.1902 15.1809 43.8095C15.0557 45.503 13.9387 46.9752 12.3288 47.5158C11.1035 47.9273 9.49998 48.0333 7.63804 47.1475C6.15527 46.4423 5.24511 44.9137 5.26497 43.2721Z" fill="black"/>
<path d="M13.8133 38.862C13.7793 40.2608 12.6178 41.367 11.2189 41.333C9.82003 41.2991 8.71388 40.1372 8.74783 38.7387C8.78178 37.3398 9.94333 36.2337 11.3422 36.2676C12.7411 36.3016 13.8475 37.4634 13.8133 38.862Z" fill="white"/>
<path d="M12.5885 45.8476C12.0902 47.1712 10.2439 47.7012 8.46458 47.0316C6.68527 46.3619 5.64669 44.7459 6.14469 43.4223C6.64268 42.0987 8.48924 41.5687 10.2686 42.2384C12.0479 42.9083 13.0865 44.524 12.5885 45.8476Z" fill="#616161"/>
<path d="M27.584 55.1349C27.584 57.5989 25.7503 59.5963 23.4867 59.5963C21.2232 59.5963 19.3853 57.5989 19.3853 55.1349C19.3853 53.9234 19.8272 52.8304 20.5478 52.024C21.2885 51.1891 22.3325 50.6693 23.4867 50.6693C24.6246 50.6693 25.6561 51.1769 26.3968 51.9913C27.1296 52.8015 27.584 53.9067 27.584 55.1349Z" fill="black"/>
<path d="M26.3974 51.9913C25.7425 52.5767 24.67 52.9614 23.4543 52.9614C22.2633 52.9614 21.2071 52.5931 20.5483 52.024C21.2891 51.1891 22.3331 50.6693 23.4873 50.6693C24.6248 50.6693 25.6564 51.1766 26.3974 51.9913Z" fill="white"/>
<path d="M25.7746 57.4484C25.7746 58.3371 24.7501 59.0576 23.4864 59.0576C22.2227 59.0576 21.1982 58.3371 21.1982 57.4484C21.1982 56.5597 22.2227 55.8391 23.4864 55.8391C24.7501 55.8391 25.7746 56.5597 25.7746 57.4484Z" fill="#FA9696"/>
<path d="M23.4868 50.6693C24.6246 50.6693 25.6561 51.1769 26.3969 51.9913C27.1296 52.8019 27.5837 53.9067 27.5837 55.1349C27.5837 57.5989 25.75 59.5963 23.4864 59.5963C21.2229 59.5963 19.385 57.5989 19.385 55.1349C19.385 53.9234 19.8269 52.8304 20.5475 52.024C21.2889 51.1891 22.3326 50.6693 23.4868 50.6693ZM23.4868 49.1577C21.9511 49.1577 20.4677 49.8366 19.4173 51.0209C18.4233 52.1335 17.874 53.5958 17.874 55.1349C17.874 58.4284 20.3918 61.1079 23.4868 61.1079C26.5794 61.1079 29.0953 58.4284 29.0953 55.1349C29.0953 53.5791 28.5352 52.1027 27.5181 50.9777C26.4497 49.8027 25.0192 49.1577 23.4868 49.1577Z" fill="black"/>
<path d="M43.023 50.6552C43.0178 52.2491 44.9022 53.547 47.2323 53.5547C49.5625 53.5624 51.4555 52.2766 51.4609 50.683C51.4661 49.0895 49.5817 47.7912 47.2516 47.7835C44.9214 47.7758 43.0284 49.0616 43.023 50.6552Z" fill="#FA7D7D"/>
<path d="M49.253 52.4544C49.5047 52.3618 49.6341 52.0826 49.5415 51.8309L48.568 49.1817C48.4754 48.93 48.1962 48.801 47.9444 48.8932C47.6927 48.9857 47.5633 49.265 47.6559 49.5167L48.6295 52.1658C48.722 52.4176 49.0013 52.5466 49.253 52.4544Z" fill="#F06A6A"/>
<path d="M46.5391 52.4454C46.7908 52.3528 46.9202 52.0736 46.8277 51.8218L45.8541 49.1727C45.7616 48.921 45.4823 48.7916 45.2306 48.8842C44.9789 48.9767 44.8495 49.256 44.942 49.5077L45.9156 52.1568C46.0081 52.4085 46.2874 52.5379 46.5391 52.4454Z" fill="#F06A6A"/>
<path d="M1.08936 46.2049C1.0852 47.4805 2.59359 48.5194 4.45841 48.5255C6.32324 48.5315 7.83866 47.5026 7.84283 46.227C7.84699 44.9515 6.3386 43.9126 4.47378 43.9062C2.60863 43.9004 1.09353 44.9294 1.08936 46.2049Z" fill="#FA7D7D"/>
<path d="M6.07547 47.6448C6.27691 47.5708 6.38035 47.3473 6.30637 47.1458L5.5272 45.0254C5.45322 44.824 5.22969 44.7206 5.02825 44.7945C4.82681 44.8685 4.72337 45.0921 4.79735 45.2935L5.57652 47.4139C5.6505 47.6156 5.87403 47.7188 6.07547 47.6448Z" fill="#F06A6A"/>
<path d="M3.9036 47.6377C4.10503 47.5637 4.20848 47.3402 4.1345 47.1387L3.35533 45.0184C3.28135 44.8169 3.05781 44.7135 2.85638 44.7875C2.65494 44.8614 2.55149 45.085 2.62547 45.2864L3.40464 47.4068C3.47862 47.6082 3.70184 47.7117 3.9036 47.6377Z" fill="#F06A6A"/>
</svg>
